<?xml version="1.0" encoding="UTF-8" standalone="no"?>
<svg
   width="24"
   height="24"
   viewBox="0 0 24 24"
   fill="none"
   stroke="currentColor"
   stroke-width="2"
   stroke-linecap="round"
   stroke-linejoin="round"
   version="1.1"
   id="svg12"
   xmlns="http://www.w3.org/2000/svg"
   xmlns:svg="http://www.w3.org/2000/svg">
  <defs
     id="defs16" />
  <path
     style="color:#000000;fill:#000000;-inkscape-stroke:none"
     d="m 16,2 c -1.092724,0 -2,0.9072762 -2,2 0,1.0927238 0.907276,2 2,2 1.092724,0 2,-0.9072762 2,-2 0,-1.0927238 -0.907276,-2 -2,-2 z"
     id="circle2" />
  <path
     style="color:#000000;fill:#000000;-inkscape-stroke:none"
     d="m 18.835937,11.013672 -5.999999,1 a 1,1 0 0 0 -0.822266,1.150391 1,1 0 0 0 1.150391,0.822265 l 4.652343,-0.77539 -0.80664,5.648437 a 1,1 0 0 0 0.849609,1.130859 1,1 0 0 0 1.130859,-0.849609 l 1,-7 a 1.0001,1.0001 0 0 0 -1.154297,-1.126953 z"
     id="path4" />
  <path
     style="color:#000000;fill:#000000;-inkscape-stroke:none"
     d="M 8.4785156,4.1230469 A 1.0001,1.0001 0 0 0 7.2929687,4.2929687 l -3,3 a 1,1 0 0 0 0,1.4140626 1,1 0 0 0 1.4140625,0 L 8.1777344,6.2363281 12.056641,8.3515625 10.310547,10.941406 a 1,1 0 0 0 0.269531,1.388672 1,1 0 0 0 1.388672,-0.271484 L 14.330078,8.5585938 A 1.0001,1.0001 0 0 0 13.978516,7.1230469 Z"
     id="path6" />
  <path
     style="color:#000000;fill:#000000;-inkscape-stroke:none"
     d="m 4.5332031,13.542969 a 1,1 0 0 0 -1.25,0.664062 c -0.7469382,2.443517 0.1381803,4.832511 1.7949219,6.277344 1.6567416,1.444833 4.1417197,1.996171 6.460938,0.923828 a 1,1 0 0 0 0.488281,-1.328125 1,1 0 0 0 -1.326172,-0.488281 C 9.0977919,20.333156 7.5110163,19.951945 6.3925781,18.976562 5.27414,18.00118 4.6808735,16.482282 5.1972656,14.792969 a 1,1 0 0 0 -0.6640625,-1.25 z"
     id="path8" />
  <path
     style="color:#000000;fill:#000000;-inkscape-stroke:none"
     d="m 8.2148438,10.082031 c -0.5850614,0.07651 -1.1741019,0.24168 -1.7539063,0.509766 a 1,1 0 0 0 -0.4882813,1.328125 1,1 0 0 0 1.3261719,0.488281 c 1.60338,-0.741359 3.1901559,-0.360148 4.3085939,0.615235 1.118438,0.975382 1.711705,2.49428 1.195312,4.183593 a 1,1 0 0 0 0.664063,1.25 1,1 0 0 0 1.25,-0.664062 C 15.463735,15.349452 14.578617,12.960458 12.921875,11.515625 11.679319,10.432 9.9700278,9.8524916 8.2148438,10.082031 Z"
     id="path10" />
</svg>
