<?xml version="1.0" encoding="UTF-8" standalone="no"?>
<svg
   width="24"
   height="24"
   viewBox="0 0 24 24"
   fill="none"
   stroke="currentColor"
   stroke-width="2"
   stroke-linecap="round"
   stroke-linejoin="round"
   version="1.1"
   id="svg4"
   xmlns="http://www.w3.org/2000/svg"
   xmlns:svg="http://www.w3.org/2000/svg">
  <defs
     id="defs8" />
  <path
     style="color:#000000;fill:#000000;-inkscape-stroke:none"
     d="M 9,2 A 1.0001,1.0001 0 0 0 8.0507813,2.6835938 L 5.2792969,11 H 2 a 1,1 0 0 0 -1,1 1,1 0 0 0 1,1 H 6 A 1.0001,1.0001 0 0 0 6.9492187,12.316406 L 9,6.1640625 14.050781,21.316406 a 1.0001,1.0001 0 0 0 1.898438,0 L 18.720703,13 H 22 a 1,1 0 0 0 1,-1 1,1 0 0 0 -1,-1 h -4 a 1.0001,1.0001 0 0 0 -0.949219,0.683594 L 15,17.835937 9.9492188,2.6835938 A 1.0001,1.0001 0 0 0 9,2 Z"
     id="path2" />
</svg>
