<?xml version="1.0" encoding="UTF-8" standalone="no"?>
<svg
   width="24"
   height="24"
   viewBox="0 0 24 24"
   fill="none"
   stroke="currentColor"
   stroke-width="2"
   stroke-linecap="round"
   stroke-linejoin="round"
   version="1.1"
   id="svg6"
   xmlns="http://www.w3.org/2000/svg"
   xmlns:svg="http://www.w3.org/2000/svg">
  <defs
     id="defs10" />
  <path
     style="color:#000000;fill:#000000;-inkscape-stroke:none"
     d="M 5,2 C 3.3552989,2 2,3.3552989 2,5 v 14 c 0,1.644701 1.3552989,3 3,3 h 14 c 1.644701,0 3,-1.355299 3,-3 V 5 C 22,3.3552989 20.644701,2 19,2 Z m 0,2 h 14 c 0.571297,0 1,0.4287033 1,1 v 14 c 0,0.571297 -0.428703,1 -1,1 H 5 C 4.4287033,20 4,19.571297 4,19 V 5 C 4,4.4287033 4.4287033,4 5,4 Z"
     id="rect2" />
  <path
     style="color:#000000;fill:#000000;-inkscape-stroke:none"
     d="m 11.091797,6.0039062 a 1.0001,1.0001 0 0 0 -1.019531,0.625 L 8.3222656,11 H 7 a 1,1 0 0 0 -1,1 1,1 0 0 0 1,1 h 2 a 1.0001,1.0001 0 0 0 0.9277344,-0.628906 l 0.7519536,-1.878906 1.339843,6.703124 a 1.0001,1.0001 0 0 0 1.908203,0.175782 L 15.677734,13 H 17 a 1,1 0 0 0 1,-1 1,1 0 0 0 -1,-1 h -2 a 1.0001,1.0001 0 0 0 -0.927734,0.628906 L 13.320313,13.507813 11.980469,6.8046875 A 1.0001,1.0001 0 0 0 11.091797,6.0039062 Z"
     id="path4" />
</svg>
