<?xml version="1.0" encoding="UTF-8" standalone="no"?>
<svg
   width="24"
   height="24"
   viewBox="0 0 24 24"
   fill="none"
   stroke="currentColor"
   stroke-width="2"
   stroke-linecap="round"
   stroke-linejoin="round"
   version="1.1"
   id="svg10"
   xmlns="http://www.w3.org/2000/svg"
   xmlns:svg="http://www.w3.org/2000/svg">
  <defs
     id="defs14" />
  <path
     style="color:#000000;fill:#000000;-inkscape-stroke:none"
     d="M 4,2 C 2.354992,2 1,3.354992 1,5 v 5 c 0,1.645008 1.354992,3 3,3 H 6 A 1,1 0 0 0 7,12 1,1 0 0 0 6,11 H 4 C 3.4358712,11 3,10.564129 3,10 V 5 C 3,4.4358712 3.4358712,4 4,4 h 16 c 0.564129,0 1,0.4358712 1,1 v 5 c 0,0.564129 -0.435871,1 -1,1 h -2 a 1,1 0 0 0 -1,1 1,1 0 0 0 1,1 h 2 c 1.645008,0 3,-1.354992 3,-3 V 5 C 23,3.354992 21.645008,2 20,2 Z"
     id="path2" />
  <path
     style="color:#000000;fill:#000000;-inkscape-stroke:none"
     d="M 6,7 A 1,1 0 0 0 5,8 1,1 0 0 0 6,9 H 18 A 1,1 0 0 0 19,8 1,1 0 0 0 18,7 Z"
     id="path4" />
  <path
     style="color:#000000;fill:#000000;-inkscape-stroke:none"
     d="m 14,11 a 1,1 0 0 0 -1,1 v 7.529297 a 1.0001,1.0001 0 0 0 0.002,0.04687 c 0.05175,1.130527 0.64346,2.170429 1.589844,2.791015 a 1.0001,1.0001 0 0 0 0.0078,0.0039 c 1.646384,1.05995 3.588856,0.503114 4.59375,-0.714844 1.004895,-1.217958 1.183472,-3.231423 -0.169922,-4.646484 a 1,1 0 0 0 -1.414062,-0.0332 1,1 0 0 0 -0.03125,1.414063 c 0.693899,0.725517 0.536567,1.429442 0.07227,1.992187 -0.463538,0.56182 -1.122716,0.846469 -1.964844,0.306641 C 15.277754,20.420297 15.023803,19.976312 15,19.488281 V 12 a 1,1 0 0 0 -1,-1 z"
     id="path6" />
  <path
     style="color:#000000;fill:#000000;-inkscape-stroke:none"
     d="m 10,11 a 1,1 0 0 0 -1,1 v 5 a 1.0001,1.0001 0 0 0 0,0.01367 c 0.010592,0.754 -0.6835968,1.226561 -1.3808594,0.939453 C 6.9218781,17.666017 6.7623374,16.84238 7.3007812,16.314453 a 1,1 0 0 0 0.013672,-1.414062 1,1 0 0 0 -1.4140625,-0.01367 c -1.511778,1.482248 -1.0006779,4.1099 0.9570313,4.916015 C 8.815131,20.60885 11.029738,19.103319 11,16.986328 V 12 a 1,1 0 0 0 -1,-1 z"
     id="path8" />
</svg>
