<?xml version="1.0" encoding="UTF-8" standalone="no"?>
<svg
   width="24"
   height="24"
   viewBox="0 0 24 24"
   fill="none"
   stroke="currentColor"
   stroke-width="2"
   stroke-linecap="round"
   stroke-linejoin="round"
   version="1.1"
   id="svg6"
   xmlns="http://www.w3.org/2000/svg"
   xmlns:svg="http://www.w3.org/2000/svg">
  <defs
     id="defs10" />
  <path
     style="color:#000000;fill:#000000;-inkscape-stroke:none"
     d="M 4,2 C 2.354992,2 1,3.354992 1,5 v 10 c 0,1.645008 1.354992,3 3,3 H 5 A 1,1 0 0 0 6,17 1,1 0 0 0 5,16 H 4 C 3.4358712,16 3,15.564129 3,15 V 5 C 3,4.4358712 3.4358712,4 4,4 h 16 c 0.564129,0 1,0.4358712 1,1 v 10 c 0,0.564129 -0.435871,1 -1,1 h -1 a 1,1 0 0 0 -1,1 1,1 0 0 0 1,1 h 1 c 1.645008,0 3,-1.354992 3,-3 V 5 C 23,3.354992 21.645008,2 20,2 Z"
     id="path2" />
  <path
     style="color:#000000;fill:#000000;-inkscape-stroke:none"
     d="m 12,14 a 1.0001,1.0001 0 0 0 -0.767578,0.359375 l -5.0000001,6 A 1.0001,1.0001 0 0 0 7,22 h 10 a 1.0001,1.0001 0 0 0 0.767578,-1.640625 l -5,-6 A 1.0001,1.0001 0 0 0 12,14 Z M 12,16.5625 14.865234,20 H 9.1347656 Z"
     id="polygon4" />
</svg>
