<?xml version="1.0" encoding="UTF-8" standalone="no"?>
<svg
   width="24"
   height="24"
   viewBox="0 0 24 24"
   fill="none"
   stroke="currentColor"
   stroke-width="2"
   stroke-linecap="round"
   stroke-linejoin="round"
   version="1.1"
   id="svg14"
   xmlns="http://www.w3.org/2000/svg"
   xmlns:svg="http://www.w3.org/2000/svg">
  <defs
     id="defs18" />
  <path
     style="color:#000000;fill:#000000;-inkscape-stroke:none"
     d="M 6.9667969,5.875 A 1,1 0 0 0 6.234375,6.0976562 C 2.1391254,9.4633198 1.8376928,15.665818 5.5859375,19.414062 9.3341822,23.162307 15.53668,22.860875 18.902344,18.765625 a 1,1 0 0 0 -0.136719,-1.408203 1,1 0 0 0 -1.408203,0.136719 C 14.721727,20.701184 9.9352992,20.935299 7,18 4.0647008,15.064701 4.2988163,10.278273 7.5058594,7.6425781 A 1,1 0 0 0 7.6425781,6.234375 1,1 0 0 0 6.9667969,5.875 Z"
     id="path2" />
  <path
     style="color:#000000;fill:#000000;-inkscape-stroke:none"
     d="M 12.800781,4.0351562 C 12.084542,3.9710817 11.344708,3.9927332 10.59375,4.1113281 A 1,1 0 0 0 9.7617188,5.2558594 1,1 0 0 0 10.90625,6.0878906 c 4.723188,-0.7459088 8.751768,3.2826716 8.005859,8.0058594 a 1,1 0 0 0 0.832032,1.144531 1,1 0 0 0 1.144531,-0.832031 C 21.718836,9.1495447 17.814455,4.4836779 12.800781,4.0351562 Z"
     id="path4" />
  <path
     style="color:#000000;fill:#000000;-inkscape-stroke:none"
     d="m 18.292969,2.2929688 a 1,1 0 0 0 0,1.4140625 l 3,2.9999999 a 1,1 0 0 0 1.414062,0 1,1 0 0 0 0,-1.4140625 l -3,-2.9999999 a 1,1 0 0 0 -1.414062,0 z"
     id="path6" />
  <path
     style="color:#000000;fill:#000000;-inkscape-stroke:none"
     d="m 6.9570312,17.953125 a 1,1 0 0 0 -1.4140625,0.02148 L 3.28125,20.304687 a 1,1 0 0 0 0.023437,1.414063 1,1 0 0 0 1.4140625,-0.02344 l 2.2597656,-2.328125 a 1,1 0 0 0 -0.021484,-1.414062 z"
     id="path8" />
  <path
     style="color:#000000;fill:#000000;-inkscape-stroke:none"
     d="m 2,1 a 1,1 0 0 0 -0.7070313,0.2929687 1,1 0 0 0 0,1.4140626 L 21.292969,22.707031 a 1,1 0 0 0 1.414062,0 1,1 0 0 0 0,-1.414062 L 2.7070313,1.2929687 A 1,1 0 0 0 2,1 Z"
     id="path10" />
  <path
     style="color:#000000;fill:#000000;-inkscape-stroke:none"
     d="M 4,3 A 1,1 0 0 0 3.2929688,3.2929688 L 1.2929687,5.2929687 a 1,1 0 0 0 0,1.4140625 1,1 0 0 0 1.4140626,0 l 1.9999999,-2 a 1,1 0 0 0 0,-1.4140624 A 1,1 0 0 0 4,3 Z"
     id="path12" />
</svg>
