<?xml version="1.0" encoding="UTF-8" standalone="no"?>
<svg
   width="24"
   height="24"
   viewBox="0 0 24 24"
   fill="none"
   stroke="currentColor"
   stroke-width="2"
   stroke-linecap="round"
   stroke-linejoin="round"
   version="1.1"
   id="svg14"
   xmlns="http://www.w3.org/2000/svg"
   xmlns:svg="http://www.w3.org/2000/svg">
  <defs
     id="defs18" />
  <path
     style="color:#000000;fill:#000000;-inkscape-stroke:none"
     d="m 12,4 c -4.9587132,0 -9,4.0412868 -9,9 0,4.958713 4.0412868,9 9,9 4.958713,0 9,-4.041287 9,-9 0,-4.9587132 -4.041287,-9 -9,-9 z m 0,2 c 3.877834,0 7,3.122166 7,7 0,3.877834 -3.122166,7 -7,7 C 8.122166,20 5,16.877834 5,13 5,9.122166 8.122166,6 12,6 Z"
     id="circle2" />
  <path
     style="color:#000000;fill:#000000;-inkscape-stroke:none"
     d="M 5,2 A 1,1 0 0 0 4.2929687,2.2929688 l -3,2.9999999 a 1,1 0 0 0 0,1.4140625 1,1 0 0 0 1.4140626,0 L 5.7070312,3.7070313 a 1,1 0 0 0 0,-1.4140625 A 1,1 0 0 0 5,2 Z"
     id="path4" />
  <path
     style="color:#000000;fill:#000000;-inkscape-stroke:none"
     d="m 18.292969,2.2929688 a 1,1 0 0 0 0,1.4140625 l 3,2.9999999 a 1,1 0 0 0 1.414062,0 1,1 0 0 0 0,-1.4140625 l -3,-2.9999999 a 1,1 0 0 0 -1.414062,0 z"
     id="path6" />
  <path
     style="color:#000000;fill:#000000;-inkscape-stroke:none"
     d="m 6.3964844,17.699219 a 1,1 0 0 0 -0.7109375,0.28125 L 3.3046875,20.28125 a 1,1 0 0 0 -0.023437,1.414062 1,1 0 0 0 1.4140625,0.02344 l 2.3789062,-2.298828 a 1,1 0 0 0 0.025391,-1.414063 1,1 0 0 0 -0.703125,-0.30664 z"
     id="path8" />
  <path
     style="color:#000000;fill:#000000;-inkscape-stroke:none"
     d="m 17.632812,17.669922 a 1,1 0 0 0 -0.705078,0.296875 1,1 0 0 0 0.0098,1.414062 l 2.359375,2.330078 a 1,1 0 0 0 1.414062,-0.0078 1,1 0 0 0 -0.0078,-1.414063 l -2.361328,-2.330078 a 1,1 0 0 0 -0.708985,-0.289062 z"
     id="path10" />
  <path
     style="color:#000000;fill:#000000;-inkscape-stroke:none"
     d="m 15,10 a 1,1 0 0 0 -0.707031,0.292969 L 11,13.585938 9.7070313,12.292969 a 1,1 0 0 0 -1.4140625,0 1,1 0 0 0 0,1.414062 l 2.0000002,2 a 1.0001,1.0001 0 0 0 1.414062,0 l 4,-4 a 1,1 0 0 0 0,-1.414062 A 1,1 0 0 0 15,10 Z"
     id="path12" />
</svg>
