<?xml version="1.0" encoding="UTF-8" standalone="no"?>
<svg
   width="24"
   height="24"
   viewBox="0 0 24 24"
   fill="none"
   stroke="currentColor"
   stroke-width="2"
   stroke-linecap="round"
   stroke-linejoin="round"
   version="1.1"
   id="svg8"
   xmlns="http://www.w3.org/2000/svg"
   xmlns:svg="http://www.w3.org/2000/svg">
  <defs
     id="defs12" />
  <path
     style="color:#000000;fill:#000000;-inkscape-stroke:none"
     d="M 7.859375,1 A 1.0001,1.0001 0 0 0 7.1523437,1.2929687 l -5.859375,5.859375 A 1.0001,1.0001 0 0 0 1,7.859375 v 8.28125 a 1.0001,1.0001 0 0 0 0.2929687,0.707031 l 5.859375,5.859375 A 1.0001,1.0001 0 0 0 7.859375,23 h 8.28125 a 1.0001,1.0001 0 0 0 0.707031,-0.292969 l 5.859375,-5.859375 A 1.0001,1.0001 0 0 0 23,16.140625 V 7.859375 A 1.0001,1.0001 0 0 0 22.707031,7.1523437 L 16.847656,1.2929687 A 1.0001,1.0001 0 0 0 16.140625,1 Z M 8.2734375,3 H 15.726563 L 21,8.2734375 V 15.726563 L 15.726563,21 H 8.2734375 L 3,15.726563 V 8.2734375 Z"
     id="polygon2" />
  <path
     style="color:#000000;fill:#000000;-inkscape-stroke:none"
     d="m 12,7 a 1,1 0 0 0 -1,1 v 4 a 1,1 0 0 0 1,1 1,1 0 0 0 1,-1 V 8 A 1,1 0 0 0 12,7 Z"
     id="line4" />
  <path
     style="color:#000000;fill:#000000;-inkscape-stroke:none"
     d="m 12,15 a 1,1 0 0 0 -1,1 1,1 0 0 0 1,1 h 0.0098 a 1,1 0 0 0 1,-1 1,1 0 0 0 -1,-1 z"
     id="line6" />
</svg>
