<?xml version="1.0" encoding="UTF-8" standalone="no"?>
<svg
   width="24"
   height="24"
   viewBox="0 0 24 24"
   fill="none"
   stroke="currentColor"
   stroke-width="2"
   stroke-linecap="round"
   stroke-linejoin="round"
   version="1.1"
   id="svg8"
   xmlns="http://www.w3.org/2000/svg"
   xmlns:svg="http://www.w3.org/2000/svg">
  <defs
     id="defs12" />
  <path
     style="color:#000000;fill:#000000;-inkscape-stroke:none"
     d="m 7,15 c -1.6447011,0 -3,1.355299 -3,3 v 2 c 0,1.644701 1.3552989,3 3,3 h 10 c 1.644701,0 3,-1.355299 3,-3 v -2 c 0,-1.644701 -1.355299,-3 -3,-3 z m 0,2 h 10 c 0.571297,0 1,0.428703 1,1 v 2 c 0,0.571297 -0.428703,1 -1,1 H 7 C 6.4287033,21 6,20.571297 6,20 v -2 c 0,-0.571297 0.4287033,-1 1,-1 z"
     id="rect2" />
  <path
     style="color:#000000;fill:#000000;-inkscape-stroke:none"
     d="M 9,5 C 7.3552989,5 6,6.3552989 6,8 v 2 c 0,1.644701 1.3552989,3 3,3 h 6 c 1.644701,0 3,-1.355299 3,-3 V 8 C 18,6.3552989 16.644701,5 15,5 Z m 0,2 h 6 c 0.571297,0 1,0.4287033 1,1 v 2 c 0,0.571297 -0.428703,1 -1,1 H 9 C 8.4287033,11 8,10.571297 8,10 V 8 C 8,7.4287033 8.4287033,7 9,7 Z"
     id="rect4" />
  <path
     style="color:#000000;fill:#000000;-inkscape-stroke:none"
     d="M 2,1 A 1,1 0 0 0 1,2 1,1 0 0 0 2,3 H 22 A 1,1 0 0 0 23,2 1,1 0 0 0 22,1 Z"
     id="path6" />
</svg>
