<?xml version="1.0" encoding="UTF-8" standalone="no"?>
<svg
   width="24"
   height="24"
   viewBox="0 0 24 24"
   fill="none"
   stroke="currentColor"
   stroke-width="2"
   stroke-linecap="round"
   stroke-linejoin="round"
   version="1.1"
   id="svg10"
   xmlns="http://www.w3.org/2000/svg"
   xmlns:svg="http://www.w3.org/2000/svg">
  <defs
     id="defs14" />
  <path
     style="color:#000000;fill:#000000;-inkscape-stroke:none"
     d="m 7,13 c -1.6447011,0 -3,1.355299 -3,3 v 2 c 0,1.644701 1.3552989,3 3,3 h 10 c 1.644701,0 3,-1.355299 3,-3 v -2 c 0,-1.644701 -1.355299,-3 -3,-3 z m 0,2 h 10 c 0.571297,0 1,0.428703 1,1 v 2 c 0,0.571297 -0.428703,1 -1,1 H 7 C 6.4287033,19 6,18.571297 6,18 v -2 c 0,-0.571297 0.4287033,-1 1,-1 z"
     id="rect2" />
  <path
     style="color:#000000;fill:#000000;-inkscape-stroke:none"
     d="M 9,3 C 7.3552989,3 6,4.3552989 6,6 v 2 c 0,1.6447011 1.3552989,3 3,3 h 6 c 1.644701,0 3,-1.3552989 3,-3 V 6 C 18,4.3552989 16.644701,3 15,3 Z m 0,2 h 6 c 0.571297,0 1,0.4287033 1,1 v 2 c 0,0.5712967 -0.428703,1 -1,1 H 9 C 8.4287033,9 8,8.5712967 8,8 V 6 C 8,5.4287033 8.4287033,5 9,5 Z"
     id="rect4" />
  <path
     style="color:#000000;fill:#000000;-inkscape-stroke:none"
     d="m 2,13 a 1,1 0 0 0 -1,1 1,1 0 0 0 1,1 h 20 a 1,1 0 0 0 1,-1 1,1 0 0 0 -1,-1 z"
     id="path6" />
  <path
     style="color:#000000;fill:#000000;-inkscape-stroke:none"
     d="M 2,3 A 1,1 0 0 0 1,4 1,1 0 0 0 2,5 H 22 A 1,1 0 0 0 23,4 1,1 0 0 0 22,3 Z"
     id="path8" />
</svg>
