<?xml version="1.0" encoding="UTF-8" standalone="no"?>
<svg
   width="24"
   height="24"
   viewBox="0 0 24 24"
   fill="none"
   stroke="currentColor"
   stroke-width="2"
   stroke-linecap="round"
   stroke-linejoin="round"
   version="1.1"
   id="svg12"
   xmlns="http://www.w3.org/2000/svg"
   xmlns:svg="http://www.w3.org/2000/svg">
  <defs
     id="defs16" />
  <path
     style="color:#000000;fill:#000000;-inkscape-stroke:none"
     d="m 12,1 a 1,1 0 0 0 -1,1 v 20 a 1,1 0 0 0 1,1 1,1 0 0 0 1,-1 V 2 A 1,1 0 0 0 12,1 Z"
     id="path2" />
  <path
     style="color:#000000;fill:#000000;-inkscape-stroke:none"
     d="M 4,3 C 2.3545471,3 1,4.3545471 1,6 v 2 c 0,1.645008 1.354992,3 3,3 H 8 A 1,1 0 0 0 9,10 1,1 0 0 0 8,9 H 4 C 3.4358712,9 3,8.5641288 3,8 V 6 C 3,5.4454551 3.4454551,5 4,5 H 8 A 1,1 0 0 0 9,4 1,1 0 0 0 8,3 Z"
     id="path4" />
  <path
     style="color:#000000;fill:#000000;-inkscape-stroke:none"
     d="m 16,3 a 1,1 0 0 0 -1,1 1,1 0 0 0 1,1 h 4 c 0.564129,0 1,0.4358712 1,1 v 2 c 0,0.5641288 -0.435871,1 -1,1 h -4 a 1,1 0 0 0 -1,1 1,1 0 0 0 1,1 h 4 c 1.645008,0 3,-1.354992 3,-3 V 6 C 23,4.354992 21.645008,3 20,3 Z"
     id="path6" />
  <path
     style="color:#000000;fill:#000000;-inkscape-stroke:none"
     d="m 7,13 c -1.6454529,0 -3,1.354547 -3,3 v 2 c 0,1.645008 1.354992,3 3,3 H 8 A 1,1 0 0 0 9,20 1,1 0 0 0 8,19 H 7 C 6.4358712,19 6,18.564129 6,18 V 16 C 6,15.445455 6.4454551,15 7,15 H 8 A 1,1 0 0 0 9,14 1,1 0 0 0 8,13 Z"
     id="path8" />
  <path
     style="color:#000000;fill:#000000;-inkscape-stroke:none"
     d="m 16,13 a 1,1 0 0 0 -1,1 1,1 0 0 0 1,1 h 1 c 0.564129,0 1,0.435871 1,1 v 2 c 0,0.564129 -0.435871,1 -1,1 h -1 a 1,1 0 0 0 -1,1 1,1 0 0 0 1,1 h 1 c 1.645008,0 3,-1.354992 3,-3 v -2 c 0,-1.645008 -1.354992,-3 -3,-3 z"
     id="path10" />
</svg>
