<?xml version="1.0" encoding="UTF-8" standalone="no"?>
<svg
   width="24"
   height="24"
   viewBox="0 0 24 24"
   fill="none"
   stroke="currentColor"
   stroke-width="2"
   stroke-linecap="round"
   stroke-linejoin="round"
   version="1.1"
   id="svg8"
   xmlns="http://www.w3.org/2000/svg"
   xmlns:svg="http://www.w3.org/2000/svg">
  <defs
     id="defs12" />
  <path
     style="color:#000000;fill:#000000;-inkscape-stroke:none"
     d="m 8,13 c -1.6447011,0 -3,1.355299 -3,3 v 2 c 0,1.644701 1.3552989,3 3,3 h 5 c 1.644701,0 3,-1.355299 3,-3 v -2 c 0,-1.644701 -1.355299,-3 -3,-3 z m 0,2 h 5 c 0.571297,0 1,0.428703 1,1 v 2 c 0,0.571297 -0.428703,1 -1,1 H 8 C 7.4287033,19 7,18.571297 7,18 v -2 c 0,-0.571297 0.4287033,-1 1,-1 z"
     id="rect2" />
  <path
     style="color:#000000;fill:#000000;-inkscape-stroke:none"
     d="M 8,3 C 6.3552989,3 5,4.3552989 5,6 v 2 c 0,1.6447011 1.3552989,3 3,3 h 12 c 1.644701,0 3,-1.3552989 3,-3 V 6 C 23,4.3552989 21.644701,3 20,3 Z m 0,2 h 12 c 0.571297,0 1,0.4287033 1,1 v 2 c 0,0.5712967 -0.428703,1 -1,1 H 8 C 7.4287033,9 7,8.5712967 7,8 V 6 C 7,5.4287033 7.4287033,5 8,5 Z"
     id="rect4" />
  <path
     style="color:#000000;fill:#000000;-inkscape-stroke:none"
     d="M 2,1 A 1,1 0 0 0 1,2 v 20 a 1,1 0 0 0 1,1 1,1 0 0 0 1,-1 V 2 A 1,1 0 0 0 2,1 Z"
     id="path6" />
</svg>
