<?xml version="1.0" encoding="UTF-8" standalone="no"?>
<svg
   width="24"
   height="24"
   viewBox="0 0 24 24"
   fill="none"
   stroke="currentColor"
   stroke-width="2"
   stroke-linecap="round"
   stroke-linejoin="round"
   version="1.1"
   id="svg12"
   xmlns="http://www.w3.org/2000/svg"
   xmlns:svg="http://www.w3.org/2000/svg">
  <defs
     id="defs16" />
  <path
     style="color:#000000;fill:#000000;-inkscape-stroke:none"
     d="m 2,11 a 1,1 0 0 0 -1,1 1,1 0 0 0 1,1 h 20 a 1,1 0 0 0 1,-1 1,1 0 0 0 -1,-1 z"
     id="path2" />
  <path
     style="color:#000000;fill:#000000;-inkscape-stroke:none"
     d="m 4,15 a 1,1 0 0 0 -1,1 v 4 c 0,1.645008 1.354992,3 3,3 h 2 c 1.645008,0 3,-1.354992 3,-3 v -4 a 1,1 0 0 0 -1,-1 1,1 0 0 0 -1,1 v 4 c 0,0.564129 -0.4358712,1 -1,1 H 6 C 5.4358712,21 5,20.564129 5,20 V 16 A 1,1 0 0 0 4,15 Z"
     id="path4" />
  <path
     style="color:#000000;fill:#000000;-inkscape-stroke:none"
     d="M 6,1 C 4.354992,1 3,2.354992 3,4 V 8 A 1,1 0 0 0 4,9 1,1 0 0 0 5,8 V 4 C 5,3.4358712 5.4358712,3 6,3 h 2 c 0.5641288,0 1,0.4358712 1,1 v 4 a 1,1 0 0 0 1,1 1,1 0 0 0 1,-1 V 4 C 11,2.354992 9.645008,1 8,1 Z"
     id="path6" />
  <path
     style="color:#000000;fill:#000000;-inkscape-stroke:none"
     d="m 14,15 a 1,1 0 0 0 -1,1 v 1 c 0,1.645008 1.354992,3 3,3 h 2 c 1.645008,0 3,-1.354992 3,-3 v -1 a 1,1 0 0 0 -1,-1 1,1 0 0 0 -1,1 v 1 c 0,0.564129 -0.435871,1 -1,1 h -2 c -0.564129,0 -1,-0.435871 -1,-1 v -1 a 1,1 0 0 0 -1,-1 z"
     id="path8" />
  <path
     style="color:#000000;fill:#000000;-inkscape-stroke:none"
     d="m 16,4 c -1.645453,0 -3,1.3545471 -3,3 v 1 a 1,1 0 0 0 1,1 1,1 0 0 0 1,-1 V 7 c 0,-0.5545449 0.445455,-1 1,-1 h 2 c 0.564129,0 1,0.4358712 1,1 v 1 a 1,1 0 0 0 1,1 1,1 0 0 0 1,-1 V 7 C 21,5.354992 19.645008,4 18,4 Z"
     id="path10" />
</svg>
