<?xml version="1.0" encoding="UTF-8" standalone="no"?>
<svg
   width="24"
   height="24"
   viewBox="0 0 24 24"
   fill="none"
   stroke="currentColor"
   stroke-width="2"
   stroke-linecap="round"
   stroke-linejoin="round"
   version="1.1"
   id="svg8"
   xmlns="http://www.w3.org/2000/svg"
   xmlns:svg="http://www.w3.org/2000/svg">
  <defs
     id="defs12" />
  <path
     style="color:#000000;fill:#000000;-inkscape-stroke:none"
     d="M 6,5 C 4.3552989,5 3,6.3552989 3,8 v 12 c 0,1.644701 1.3552989,3 3,3 h 2 c 1.6447011,0 3,-1.355299 3,-3 V 8 C 11,6.3552989 9.6447011,5 8,5 Z m 0,2 h 2 c 0.5712967,0 1,0.4287033 1,1 v 12 c 0,0.571297 -0.4287033,1 -1,1 H 6 C 5.4287033,21 5,20.571297 5,20 V 8 C 5,7.4287033 5.4287033,7 6,7 Z"
     id="rect2" />
  <path
     style="color:#000000;fill:#000000;-inkscape-stroke:none"
     d="m 16,5 c -1.644701,0 -3,1.3552989 -3,3 v 5 c 0,1.644701 1.355299,3 3,3 h 2 c 1.644701,0 3,-1.355299 3,-3 V 8 C 21,6.3552989 19.644701,5 18,5 Z m 0,2 h 2 c 0.571297,0 1,0.4287033 1,1 v 5 c 0,0.571297 -0.428703,1 -1,1 h -2 c -0.571297,0 -1,-0.428703 -1,-1 V 8 c 0,-0.5712967 0.428703,-1 1,-1 z"
     id="rect4" />
  <path
     style="color:#000000;fill:#000000;-inkscape-stroke:none"
     d="M 2,1 A 1,1 0 0 0 1,2 1,1 0 0 0 2,3 H 22 A 1,1 0 0 0 23,2 1,1 0 0 0 22,1 Z"
     id="path6" />
</svg>
