<?xml version="1.0" encoding="UTF-8" standalone="no"?>
<svg
   width="24"
   height="24"
   viewBox="0 0 24 24"
   fill="none"
   stroke="currentColor"
   stroke-width="2"
   stroke-linecap="round"
   stroke-linejoin="round"
   version="1.1"
   id="svg10"
   xmlns="http://www.w3.org/2000/svg"
   xmlns:svg="http://www.w3.org/2000/svg">
  <defs
     id="defs14" />
  <path
     style="color:#000000;fill:#000000;-inkscape-stroke:none"
     d="m 7,14 c -1.6447011,0 -3,1.355299 -3,3 v 2 c 0,1.644701 1.3552989,3 3,3 h 10 c 1.644701,0 3,-1.355299 3,-3 v -2 c 0,-1.644701 -1.355299,-3 -3,-3 z m 0,2 h 10 c 0.571297,0 1,0.428703 1,1 v 2 c 0,0.571297 -0.428703,1 -1,1 H 7 C 6.4287033,20 6,19.571297 6,19 v -2 c 0,-0.571297 0.4287033,-1 1,-1 z"
     id="rect2" />
  <path
     style="color:#000000;fill:#000000;-inkscape-stroke:none"
     d="M 9,2 C 7.3552989,2 6,3.3552989 6,5 v 2 c 0,1.6447011 1.3552989,3 3,3 h 6 c 1.644701,0 3,-1.3552989 3,-3 V 5 C 18,3.3552989 16.644701,2 15,2 Z m 0,2 h 6 c 0.571297,0 1,0.4287033 1,1 v 2 c 0,0.5712967 -0.428703,1 -1,1 H 9 C 8.4287033,8 8,7.5712967 8,7 V 5 C 8,4.4287033 8.4287033,4 9,4 Z"
     id="rect4" />
  <path
     style="color:#000000;fill:#000000;-inkscape-stroke:none"
     d="m 2,20 a 1,1 0 0 0 -1,1 1,1 0 0 0 1,1 h 20 a 1,1 0 0 0 1,-1 1,1 0 0 0 -1,-1 z"
     id="path6" />
  <path
     style="color:#000000;fill:#000000;-inkscape-stroke:none"
     d="M 2,2 A 1,1 0 0 0 1,3 1,1 0 0 0 2,4 H 22 A 1,1 0 0 0 23,3 1,1 0 0 0 22,2 Z"
     id="path8" />
</svg>
