<?xml version="1.0" encoding="UTF-8" standalone="no"?>
<svg
   width="24"
   height="24"
   viewBox="0 0 24 24"
   fill="none"
   stroke="currentColor"
   stroke-width="2"
   stroke-linecap="round"
   stroke-linejoin="round"
   version="1.1"
   id="svg8"
   xmlns="http://www.w3.org/2000/svg"
   xmlns:svg="http://www.w3.org/2000/svg">
  <defs
     id="defs12" />
  <path
     style="color:#000000;fill:#000000;-inkscape-stroke:none"
     d="M 11,6 C 9.3552989,6 8,7.3552989 8,9 v 6 c 0,1.644701 1.3552989,3 3,3 h 2 c 1.644701,0 3,-1.355299 3,-3 V 9 C 16,7.3552989 14.644701,6 13,6 Z m 0,2 h 2 c 0.571297,0 1,0.4287033 1,1 v 6 c 0,0.571297 -0.428703,1 -1,1 h -2 c -0.571297,0 -1,-0.428703 -1,-1 V 9 c 0,-0.5712967 0.428703,-1 1,-1 z"
     id="rect2" />
  <path
     style="color:#000000;fill:#000000;-inkscape-stroke:none"
     d="M 4,1 A 1,1 0 0 0 3,2 v 20 a 1,1 0 0 0 1,1 1,1 0 0 0 1,-1 V 2 A 1,1 0 0 0 4,1 Z"
     id="path4" />
  <path
     style="color:#000000;fill:#000000;-inkscape-stroke:none"
     d="m 20,1 a 1,1 0 0 0 -1,1 v 20 a 1,1 0 0 0 1,1 1,1 0 0 0 1,-1 V 2 A 1,1 0 0 0 20,1 Z"
     id="path6" />
</svg>
