<?xml version="1.0" encoding="UTF-8" standalone="no"?>
<svg
   width="24"
   height="24"
   viewBox="0 0 24 24"
   fill="none"
   stroke="currentColor"
   stroke-width="2"
   stroke-linecap="round"
   stroke-linejoin="round"
   version="1.1"
   id="svg8"
   xmlns="http://www.w3.org/2000/svg"
   xmlns:svg="http://www.w3.org/2000/svg">
  <defs
     id="defs12" />
  <path
     style="color:#000000;fill:#000000;-inkscape-stroke:none"
     d="M 8,4 C 6.3552989,4 5,5.3552989 5,7 v 10 c 0,1.644701 1.3552989,3 3,3 h 2 c 1.644701,0 3,-1.355299 3,-3 V 7 C 13,5.3552989 11.644701,4 10,4 Z m 0,2 h 2 c 0.571297,0 1,0.4287033 1,1 v 10 c 0,0.571297 -0.428703,1 -1,1 H 8 C 7.4287033,18 7,17.571297 7,17 V 7 C 7,6.4287033 7.4287033,6 8,6 Z"
     id="rect2" />
  <path
     style="color:#000000;fill:#000000;-inkscape-stroke:none"
     d="m 18,6 c -1.644701,0 -3,1.3552989 -3,3 v 6 c 0,1.644701 1.355299,3 3,3 h 2 c 1.644701,0 3,-1.355299 3,-3 V 9 C 23,7.3552989 21.644701,6 20,6 Z m 0,2 h 2 c 0.571297,0 1,0.4287033 1,1 v 6 c 0,0.571297 -0.428703,1 -1,1 h -2 c -0.571297,0 -1,-0.428703 -1,-1 V 9 c 0,-0.5712967 0.428703,-1 1,-1 z"
     id="rect4" />
  <path
     style="color:#000000;fill:#000000;-inkscape-stroke:none"
     d="M 2,1 A 1,1 0 0 0 1,2 v 20 a 1,1 0 0 0 1,1 1,1 0 0 0 1,-1 V 2 A 1,1 0 0 0 2,1 Z"
     id="path6" />
</svg>
