<?xml version="1.0" encoding="UTF-8" standalone="no"?>
<svg
   width="24"
   height="24"
   viewBox="0 0 24 24"
   fill="none"
   stroke="currentColor"
   stroke-width="2"
   stroke-linecap="round"
   stroke-linejoin="round"
   version="1.1"
   id="svg8"
   xmlns="http://www.w3.org/2000/svg"
   xmlns:svg="http://www.w3.org/2000/svg">
  <defs
     id="defs12" />
  <path
     style="color:#000000;fill:#000000;-inkscape-stroke:none"
     d="M 6,1 C 4.3552989,1 3,2.3552989 3,4 v 12 c 0,1.644701 1.3552989,3 3,3 h 2 c 1.6447011,0 3,-1.355299 3,-3 V 4 C 11,2.3552989 9.6447011,1 8,1 Z m 0,2 h 2 c 0.5712967,0 1,0.4287033 1,1 v 12 c 0,0.571297 -0.4287033,1 -1,1 H 6 C 5.4287033,17 5,16.571297 5,16 V 4 C 5,3.4287033 5.4287033,3 6,3 Z"
     id="rect2" />
  <path
     style="color:#000000;fill:#000000;-inkscape-stroke:none"
     d="m 16,8 c -1.644701,0 -3,1.3552989 -3,3 v 5 c 0,1.644701 1.355299,3 3,3 h 2 c 1.644701,0 3,-1.355299 3,-3 V 11 C 21,9.3552989 19.644701,8 18,8 Z m 0,2 h 2 c 0.571297,0 1,0.428703 1,1 v 5 c 0,0.571297 -0.428703,1 -1,1 h -2 c -0.571297,0 -1,-0.428703 -1,-1 v -5 c 0,-0.571297 0.428703,-1 1,-1 z"
     id="rect4" />
  <path
     style="color:#000000;fill:#000000;-inkscape-stroke:none"
     d="m 2,21 a 1,1 0 0 0 -1,1 1,1 0 0 0 1,1 h 20 a 1,1 0 0 0 1,-1 1,1 0 0 0 -1,-1 z"
     id="path6" />
</svg>
