<?xml version="1.0" encoding="UTF-8" standalone="no"?>
<svg
   width="24"
   height="24"
   viewBox="0 0 24 24"
   fill="none"
   stroke="currentColor"
   stroke-width="2"
   stroke-linecap="round"
   stroke-linejoin="round"
   version="1.1"
   id="svg8"
   xmlns="http://www.w3.org/2000/svg"
   xmlns:svg="http://www.w3.org/2000/svg">
  <defs
     id="defs12" />
  <path
     style="color:#000000;fill:#000000;-inkscape-stroke:none"
     d="m 7,11 c -1.6447011,0 -3,1.355299 -3,3 v 2 c 0,1.644701 1.3552989,3 3,3 h 10 c 1.644701,0 3,-1.355299 3,-3 v -2 c 0,-1.644701 -1.355299,-3 -3,-3 z m 0,2 h 10 c 0.571297,0 1,0.428703 1,1 v 2 c 0,0.571297 -0.428703,1 -1,1 H 7 C 6.4287033,17 6,16.571297 6,16 v -2 c 0,-0.571297 0.4287033,-1 1,-1 z"
     id="rect2" />
  <path
     style="color:#000000;fill:#000000;-inkscape-stroke:none"
     d="M 9,1 C 7.3552989,1 6,2.3552989 6,4 v 2 c 0,1.6447011 1.3552989,3 3,3 h 6 c 1.644701,0 3,-1.3552989 3,-3 V 4 C 18,2.3552989 16.644701,1 15,1 Z m 0,2 h 6 c 0.571297,0 1,0.4287033 1,1 v 2 c 0,0.5712967 -0.428703,1 -1,1 H 9 C 8.4287033,7 8,6.5712967 8,6 V 4 C 8,3.4287033 8.4287033,3 9,3 Z"
     id="rect4" />
  <path
     style="color:#000000;fill:#000000;-inkscape-stroke:none"
     d="m 2,21 a 1,1 0 0 0 -1,1 1,1 0 0 0 1,1 h 20 a 1,1 0 0 0 1,-1 1,1 0 0 0 -1,-1 z"
     id="path6" />
</svg>
