<?xml version="1.0" encoding="UTF-8" standalone="no"?>
<svg
   width="24"
   height="24"
   viewBox="0 0 24 24"
   fill="none"
   stroke="currentColor"
   stroke-width="2"
   stroke-linecap="round"
   stroke-linejoin="round"
   version="1.1"
   id="svg6"
   xmlns="http://www.w3.org/2000/svg"
   xmlns:svg="http://www.w3.org/2000/svg">
  <defs
     id="defs10" />
  <path
     style="color:#000000;fill:#000000;-inkscape-stroke:none"
     d="M 5,5 C 4.2777786,5 3.5421188,5.2353477 2.9609375,5.7519531 2.3797562,6.2685585 2,7.0833344 2,8 2,8.8101888 2.2950473,9.7462367 2.7382813,10.730469 2.5010048,10.922722 2.2457133,11.032332 2.03125,11.275391 1.4380711,11.94766 1,12.886906 1,14 c 0,2.209802 1.7901983,4 4,4 1.2223315,0 2.2920085,-0.451251 3.2382813,-1.074219 0.4332263,0.307335 0.7632483,0.640762 1.2480468,0.931641 a 1,1 0 0 0 1.3710939,-0.34375 1,1 0 0 0 -0.34375,-1.371094 C 10.200903,15.954917 10.004448,15.741461 9.7167969,15.546875 10.471,14.543774 11,13.357103 11,12 A 1,1 0 0 0 10,11 1,1 0 0 0 9,12 C 9,12.929437 8.6571894,13.72319 8.1621094,14.388672 7.0397373,13.440286 6.0846657,12.47733 5.4472656,11.556641 5.3807311,11.460535 5.3661011,11.384066 5.3046875,11.289063 5.8272495,10.982541 6.3754042,10.68715 6.8730469,10.255859 7.4632691,9.7443334 8,8.9583324 8,8 8,7.0833344 7.6202438,6.2685585 7.0390625,5.7519531 6.4578812,5.2353477 5.7222214,5 5,5 Z M 5,7 C 5.2777776,7 5.5421196,7.0979866 5.7109375,7.2480469 5.8797554,7.3981072 6,7.5833341 6,8 6,8.2916664 5.9117299,8.4431674 5.5644531,8.7441406 5.3005941,8.9728185 4.8260614,9.2454767 4.3652344,9.5214844 4.1197966,8.8809837 4,8.3424319 4,8 4,7.5833341 4.1202446,7.3981072 4.2890625,7.2480469 4.4578804,7.0979866 4.7222224,7 5,7 Z m -1.3125,5.482422 c 0.048904,0.07333 0.064131,0.137121 0.1152344,0.210937 0.689534,0.995994 1.6549244,2.009665 2.7851562,3 C 6.105526,15.891201 5.5700596,16 5,16 3.8098051,16 3,15.190195 3,14 3,13.363096 3.1869298,12.989839 3.53125,12.599609 3.5674788,12.55855 3.6471889,12.522929 3.6875,12.482422 Z"
     id="path2" />
  <path
     style="color:#000000;fill:#000000;-inkscape-stroke:none"
     d="M 17,5 C 16.277779,5 15.542119,5.2353477 14.960938,5.7519531 14.379756,6.2685585 14,7.0833344 14,8 c 0,0.8101888 0.295047,1.7462367 0.738281,2.730469 -0.237276,0.192253 -0.492568,0.301863 -0.707031,0.544922 C 13.438071,11.94766 13,12.886906 13,14 c 0,2.209802 1.790198,4 4,4 1.222332,0 2.292009,-0.451251 3.238281,-1.074219 0.433227,0.307335 0.763249,0.640762 1.248047,0.931641 a 1,1 0 0 0 1.371094,-0.34375 1,1 0 0 0 -0.34375,-1.371094 C 22.200903,15.954917 22.004448,15.741461 21.716797,15.546875 22.471,14.543774 23,13.357103 23,12 a 1,1 0 0 0 -1,-1 1,1 0 0 0 -1,1 c 0,0.929437 -0.342811,1.72319 -0.837891,2.388672 -1.122372,-0.948386 -2.077443,-1.911342 -2.714843,-2.832031 -0.06653,-0.09611 -0.08116,-0.172575 -0.142579,-0.267578 0.522563,-0.306522 1.070717,-0.601913 1.56836,-1.033204 C 19.463269,9.7443334 20,8.9583324 20,8 20,7.0833344 19.620244,6.2685585 19.039062,5.7519531 18.457881,5.2353477 17.722221,5 17,5 Z m 0,2 c 0.277778,0 0.54212,0.097987 0.710937,0.2480469 C 17.879755,7.3981072 18,7.5833341 18,8 18,8.2916664 17.91173,8.4431674 17.564453,8.7441406 17.300594,8.9728185 16.826061,9.2454767 16.365234,9.5214844 16.119797,8.8809837 16,8.3424319 16,8 16,7.5833341 16.120245,7.3981072 16.289062,7.2480469 16.45788,7.0979866 16.722222,7 17,7 Z m -1.3125,5.482422 c 0.0489,0.07333 0.06413,0.137121 0.115234,0.210937 0.689534,0.995994 1.654925,2.009665 2.785157,3 C 18.105526,15.891201 17.57006,16 17,16 c -1.190195,0 -2,-0.809805 -2,-2 0,-0.636904 0.18693,-1.010161 0.53125,-1.400391 0.03623,-0.04106 0.115939,-0.07668 0.15625,-0.117187 z"
     id="path4" />
</svg>
