<?xml version="1.0" encoding="UTF-8" standalone="no"?>
<svg
   width="24"
   height="24"
   viewBox="0 0 24 24"
   fill="none"
   stroke="currentColor"
   stroke-width="2"
   stroke-linecap="round"
   stroke-linejoin="round"
   version="1.1"
   id="svg6"
   xmlns="http://www.w3.org/2000/svg"
   xmlns:svg="http://www.w3.org/2000/svg">
  <defs
     id="defs10" />
  <path
     style="color:#000000;fill:#000000;-inkscape-stroke:none"
     d="M 10,3 C 9.0277788,3 8.0421186,3.3186813 7.2734375,4.0019531 6.5047564,4.685225 6,5.7500016 6,7 6,8.0617781 6.3788869,9.3495963 6.9941406,10.712891 6.5037944,10.987458 5.9862875,11.136575 5.5546875,11.554688 4.6348677,12.445763 4,13.777779 4,15.5 4,18.525718 6.4742815,21 9.5,21 c 2.157139,0 4.069412,-0.870111 5.625,-2.150391 1.115431,0.6907 2.065848,1.400332 3.447266,2.054688 a 1,1 0 0 0 1.332031,-0.476563 1,1 0 0 0 -0.476563,-1.332031 C 18.246584,18.536211 17.485786,17.943185 16.525391,17.363281 17.687588,15.846902 18.5,14.044321 18.5,12 a 1,1 0 0 0 -1,-1 1,1 0 0 0 -1,1 c 0,1.673385 -0.671893,3.152625 -1.658203,4.359375 -2.453414,-1.704392 -4.09257,-3.363451 -5.1132814,-4.914062 0.8744724,-0.345906 1.7938614,-0.666657 2.6054684,-1.25 C 13.25502,9.5333184 14,8.4212949 14,7 14,5.7500016 13.495244,4.685225 12.726563,4.0019531 11.957881,3.3186813 10.972221,3 10,3 Z m 0,2 c 0.527777,0 1.04212,0.1813201 1.398438,0.4980469 C 11.754755,5.8147736 12,6.2500013 12,7 12,7.8287029 11.744979,8.1541827 11.166016,8.5703125 10.609384,8.9703914 9.6992575,9.3187357 8.7207031,9.7148438 8.259004,8.6501241 8,7.6946889 8,7 8,6.2500013 8.2452448,5.8147736 8.6015625,5.4980469 8.9578802,5.1813201 9.4722227,5 10,5 Z M 7.9746094,12.408203 C 9.0954982,14.150621 10.759677,15.949 13.265625,17.742187 12.161612,18.470745 10.916392,19 9.5,19 7.5551607,19 6,17.444839 6,15.5 6,14.222224 6.3651338,13.554236 6.9453125,12.992188 7.1909292,12.754246 7.6380339,12.604094 7.9746094,12.408203 Z"
     id="path2" />
  <path
     style="color:#000000;fill:#000000;-inkscape-stroke:none"
     d="m 16,11 a 1,1 0 0 0 -1,1 1,1 0 0 0 1,1 h 3 a 1,1 0 0 0 1,-1 1,1 0 0 0 -1,-1 z"
     id="path4" />
</svg>
