<?xml version="1.0" encoding="UTF-8" standalone="no"?>
<svg
   width="24"
   height="24"
   viewBox="0 0 24 24"
   fill="none"
   stroke="currentColor"
   stroke-width="2"
   stroke-linecap="round"
   stroke-linejoin="round"
   version="1.1"
   id="svg8"
   xmlns="http://www.w3.org/2000/svg"
   xmlns:svg="http://www.w3.org/2000/svg">
  <defs
     id="defs12" />
  <path
     style="color:#000000;fill:#000000;-inkscape-stroke:none"
     d="M 12,1 C 9.8027078,1 8,2.8027078 8,5 8,7.1972922 9.8027078,9 12,9 14.197292,9 16,7.1972922 16,5 16,2.8027078 14.197292,1 12,1 Z m 0,2 c 1.116413,0 2,0.883587 2,2 0,1.116413 -0.883587,2 -2,2 -1.116413,0 -2,-0.883587 -2,-2 0,-1.116413 0.883587,-2 2,-2 z"
     id="circle2" />
  <path
     style="color:#000000;fill:#000000;-inkscape-stroke:none"
     d="m 12,7 a 1,1 0 0 0 -1,1 v 14 a 1,1 0 0 0 1,1 1,1 0 0 0 1,-1 V 8 A 1,1 0 0 0 12,7 Z"
     id="line4" />
  <path
     style="color:#000000;fill:#000000;-inkscape-stroke:none"
     d="m 2,11 a 1.0001,1.0001 0 0 0 -1,1 c 0,6.063285 4.9367195,11 11,11 6.06328,0 11,-4.936715 11,-11 a 1.0001,1.0001 0 0 0 -1,-1 h -3 a 1,1 0 0 0 -1,1 1,1 0 0 0 1,1 h 1.798828 C 20.281364,17.485172 16.627298,21 12,21 7.3727017,21 3.7186356,17.485172 3.2011719,13 H 5 A 1,1 0 0 0 6,12 1,1 0 0 0 5,11 Z"
     id="path6" />
</svg>
