<?xml version="1.0" encoding="UTF-8" standalone="no"?>
<svg
   width="24"
   height="24"
   viewBox="0 0 24 24"
   fill="none"
   stroke="currentColor"
   stroke-width="2"
   stroke-linecap="round"
   stroke-linejoin="round"
   version="1.1"
   id="svg14"
   xmlns="http://www.w3.org/2000/svg"
   xmlns:svg="http://www.w3.org/2000/svg">
  <defs
     id="defs18" />
  <path
     style="color:#000000;fill:#000000;-inkscape-stroke:none"
     d="M 12,1 C 5.9367185,1 1,5.9367185 1,12 1,18.063282 5.9367185,23 12,23 18.063282,23 23,18.063282 23,12 23,5.9367185 18.063282,1 12,1 Z m 0,2 c 4.982402,0 9,4.0175976 9,9 0,4.982402 -4.017598,9 -9,9 C 7.0175976,21 3,16.982402 3,12 3,7.0175976 7.0175976,3 12,3 Z"
     id="circle2" />
  <path
     style="color:#000000;fill:#000000;-inkscape-stroke:none"
     d="m 12,13 c -3.0333303,0 -4.8007812,2.400391 -4.8007813,2.400391 a 1,1 0 0 0 0.2011719,1.40039 1,1 0 0 0 1.4003907,-0.201172 C 8.8007813,16.599609 10.033335,15 12,15 c 1.966665,0 3.199219,1.599609 3.199219,1.599609 a 1,1 0 0 0 1.40039,0.201172 1,1 0 0 0 0.201172,-1.40039 C 16.800781,15.400391 15.03333,13 12,13 Z"
     id="path4" />
  <path
     style="color:#000000;fill:#000000;-inkscape-stroke:none"
     d="M 7.8710937,7.0722656 A 1,1 0 0 0 6.5722656,7.6289062 1,1 0 0 0 7.1289062,8.9277344 l 2.5000001,1 A 1,1 0 0 0 10.927734,9.3710938 1,1 0 0 0 10.371094,8.0722656 Z"
     id="path6" />
  <path
     style="color:#000000;fill:#000000;-inkscape-stroke:none"
     d="m 16.128906,7.0722656 -2.5,1 a 1,1 0 0 0 -0.55664,1.2988282 1,1 0 0 0 1.298828,0.5566406 l 2.5,-1 a 1,1 0 0 0 0.55664,-1.2988282 1,1 0 0 0 -1.298828,-0.5566406 z"
     id="path8" />
  <path
     style="color:#000000;fill:#000000;-inkscape-stroke:none"
     d="M 9,9 A 1,1 0 0 0 8,10 1,1 0 0 0 9,11 1,1 0 0 0 10,10 1,1 0 0 0 9,9 Z"
     id="path10" />
  <path
     style="color:#000000;fill:#000000;-inkscape-stroke:none"
     d="m 15,9 a 1,1 0 0 0 -1,1 1,1 0 0 0 1,1 1,1 0 0 0 1,-1 1,1 0 0 0 -1,-1 z"
     id="path12" />
</svg>
