<?xml version="1.0" encoding="UTF-8" standalone="no"?>
<svg
   width="24"
   height="24"
   viewBox="0 0 24 24"
   fill="none"
   stroke="currentColor"
   stroke-width="2"
   stroke-linecap="round"
   stroke-linejoin="round"
   version="1.1"
   id="svg16"
   xmlns="http://www.w3.org/2000/svg"
   xmlns:svg="http://www.w3.org/2000/svg">
  <defs
     id="defs20" />
  <path
     style="color:#000000;fill:#000000;-inkscape-stroke:none"
     d="M 12,1 C 5.9367185,1 1,5.9367185 1,12 1,18.063282 5.9367185,23 12,23 18.063282,23 23,18.063282 23,12 23,5.9367185 18.063282,1 12,1 Z m 0,2 c 4.982402,0 9,4.0175976 9,9 0,4.982402 -4.017598,9 -9,9 C 7.0175976,21 3,16.982402 3,12 3,7.0175976 7.0175976,3 12,3 Z"
     id="circle2" />
  <path
     style="color:#000000;fill:#000000;-inkscape-stroke:none"
     d="M 14.568359,7.0332031 A 1,1 0 0 0 13.810547,7.1347656 1,1 0 0 0 13.443359,8.5 l 5.740235,9.939453 a 1,1 0 0 0 1.367187,0.367188 1,1 0 0 0 0.365235,-1.367188 L 15.175781,7.5 A 1,1 0 0 0 14.568359,7.0332031 Z"
     id="line4" />
  <path
     style="color:#000000;fill:#000000;-inkscape-stroke:none"
     d="m 9.6894531,7 a 1,1 0 0 0 -1,1 1,1 0 0 0 1,1 H 21.169922 a 1,1 0 0 0 1,-1 1,1 0 0 0 -1,-1 z"
     id="line6" />
  <path
     style="color:#000000;fill:#000000;-inkscape-stroke:none"
     d="M 13.619141,1.1933594 A 1,1 0 0 0 12.253906,1.5605469 L 6.5136719,11.5 A 1,1 0 0 0 6.8808594,12.865234 1,1 0 0 0 8.2460938,12.5 L 13.986328,2.5605469 A 1,1 0 0 0 13.619141,1.1933594 Z"
     id="line8" />
  <path
     style="color:#000000;fill:#000000;-inkscape-stroke:none"
     d="M 4.2089844,5.09375 A 1,1 0 0 0 3.4492188,5.1933594 1,1 0 0 0 3.0839844,6.5605469 L 8.8242188,16.5 A 1,1 0 0 0 10.189453,16.865234 1,1 0 0 0 10.556641,15.5 L 4.8164062,5.5605469 A 1,1 0 0 0 4.2089844,5.09375 Z"
     id="line10" />
  <path
     style="color:#000000;fill:#000000;-inkscape-stroke:none"
     d="m 2.8300781,15 a 1,1 0 0 0 -1,1 1,1 0 0 0 1,1 H 14.310547 a 1,1 0 0 0 1,-1 1,1 0 0 0 -1,-1 z"
     id="line12" />
  <path
     style="color:#000000;fill:#000000;-inkscape-stroke:none"
     d="M 17.119141,11.134766 A 1,1 0 0 0 15.753906,11.5 l -5.740234,9.939453 a 1,1 0 0 0 0.367187,1.367188 1,1 0 0 0 1.365235,-0.367188 L 17.486328,12.5 a 1,1 0 0 0 -0.367187,-1.365234 z"
     id="line14" />
</svg>
