<?xml version="1.0" encoding="UTF-8" standalone="no"?>
<svg
   width="24"
   height="24"
   viewBox="0 0 24 24"
   fill="none"
   stroke="currentColor"
   stroke-width="2"
   stroke-linecap="round"
   stroke-linejoin="round"
   version="1.1"
   id="svg6"
   xmlns="http://www.w3.org/2000/svg"
   xmlns:svg="http://www.w3.org/2000/svg">
  <defs
     id="defs10" />
  <path
     style="color:#000000;fill:#000000;-inkscape-stroke:none"
     d="M 7.0117187,4.0019531 C 3.7784727,3.9406259 1.0785331,6.5217334 1,9.7558594 a 1.0001,1.0001 0 0 0 0,0.023437 c 0,2.3469641 0.7813488,5.4494671 1.9609375,8.0996091 0.5897943,1.325072 1.2773217,2.527744 2.078125,3.457031 C 5.8398658,22.265225 6.8055567,23 8,23 8.9076658,23 9.6352209,22.657357 10.28125,22.396484 10.927279,22.135612 11.485556,21.939453 12,21.939453 c 0.514444,0 1.072721,0.196159 1.71875,0.457031 C 14.364779,22.657357 15.092334,23 16,23 c 1.194443,0 2.160134,-0.734775 2.960937,-1.664063 0.800804,-0.929287 1.488331,-2.131959 2.078125,-3.457031 C 22.218651,15.228764 23,12.126261 23,9.7792969 a 1.0001,1.0001 0 0 0 0,-0.025391 C 22.91499,6.5229704 20.218848,3.9461385 16.988281,4.0019531 14.657389,4.0066 12.956416,5.2174571 12,5.8339844 11.043584,5.2174571 9.3426111,4.0066 7.0117187,4.0019531 Z M 6.9785156,6 A 1.0001,1.0001 0 0 0 7,6 c 1.7875658,0 3.315468,1.2031465 4.511719,1.8730469 a 1.0001,1.0001 0 0 0 0.976562,0 C 13.684532,7.2031465 15.212434,6 17,6 a 1.0001,1.0001 0 0 0 0.01953,0 c 2.155514,-0.040263 3.916334,1.6432426 3.978516,3.796875 -0.0036,1.874014 -0.71942,4.87079 -1.78711,7.269531 -0.535204,1.202426 -1.160179,2.262258 -1.765625,2.964844 C 16.839867,20.733836 16.305555,21 16,21 15.657667,21 15.13522,20.812096 14.46875,20.542969 13.80228,20.273842 12.985555,19.939453 12,19.939453 c -0.985555,0 -1.80228,0.334389 -2.46875,0.603516 C 8.8647804,20.812096 8.342333,21 8,21 7.6944448,21 7.1601328,20.733836 6.5546875,20.03125 5.9492422,19.328664 5.324267,18.268832 4.7890625,17.066406 3.7210759,14.666996 3.0051946,11.668831 3.0019531,9.7949219 3.059806,7.6403572 4.8222672,5.9553499 6.9785156,6 Z"
     id="path2" />
  <path
     style="color:#000000;fill:#000000;-inkscape-stroke:none"
     d="M 9.6835938,1.0507812 A 1,1 0 0 0 9.1054688,1.5527344 1,1 0 0 0 9.5527344,2.8945313 C 10.075706,3.1560171 11,4.222225 11,7 a 1,1 0 0 0 1,1 1,1 0 0 0 1,-1 C 13,3.777781 11.924292,1.8439819 10.447266,1.1054687 A 1,1 0 0 0 9.6835938,1.0507812 Z"
     id="path4" />
</svg>
