<?xml version="1.0" encoding="UTF-8" standalone="no"?>
<svg
   width="24"
   height="24"
   viewBox="0 0 24 24"
   fill="none"
   stroke="currentColor"
   stroke-width="2"
   stroke-linecap="round"
   stroke-linejoin="round"
   version="1.1"
   id="svg8"
   xmlns="http://www.w3.org/2000/svg"
   xmlns:svg="http://www.w3.org/2000/svg">
  <defs
     id="defs12" />
  <path
     style="color:#000000;fill:#000000;-inkscape-stroke:none"
     d="M 4,3 C 2.3552989,3 1,4.3552989 1,6 v 1 c 0,1.6447011 1.3552989,3 3,3 h 16 c 1.644701,0 3,-1.3552989 3,-3 V 6 C 23,4.3552989 21.644701,3 20,3 Z m 0,2 h 16 c 0.571297,0 1,0.4287033 1,1 v 1 c 0,0.5712967 -0.428703,1 -1,1 H 4 C 3.4287033,8 3,7.5712967 3,7 V 6 C 3,5.4287033 3.4287033,5 4,5 Z"
     id="rect2" />
  <path
     style="color:#000000;fill:#000000;-inkscape-stroke:none"
     d="M 4,8 A 1,1 0 0 0 3,9 v 9 c 0,1.645008 1.354992,3 3,3 h 12 c 1.645008,0 3,-1.354992 3,-3 V 9 A 1,1 0 0 0 20,8 1,1 0 0 0 19,9 v 9 c 0,0.564129 -0.435871,1 -1,1 H 6 C 5.4358712,19 5,18.564129 5,18 V 9 A 1,1 0 0 0 4,8 Z"
     id="path4" />
  <path
     style="color:#000000;fill:#000000;-inkscape-stroke:none"
     d="m 10,12 a 1,1 0 0 0 -1,1 1,1 0 0 0 1,1 h 4 a 1,1 0 0 0 1,-1 1,1 0 0 0 -1,-1 z"
     id="path6" />
</svg>
