<?xml version="1.0" encoding="UTF-8" standalone="no"?>
<svg
   width="24"
   height="24"
   viewBox="0 0 24 24"
   fill="none"
   stroke="currentColor"
   stroke-width="2"
   stroke-linecap="round"
   stroke-linejoin="round"
   version="1.1"
   id="svg6"
   xmlns="http://www.w3.org/2000/svg"
   xmlns:svg="http://www.w3.org/2000/svg">
  <defs
     id="defs10" />
  <path
     style="color:#000000;fill:#000000;-inkscape-stroke:none"
     d="M 3,2 A 1,1 0 0 0 2,3 v 18 a 1.0001,1.0001 0 0 0 1,1 h 18 a 1,1 0 0 0 1,-1 1,1 0 0 0 -1,-1 H 4 V 3 A 1,1 0 0 0 3,2 Z"
     id="path2" />
  <path
     style="color:#000000;fill:#000000;-inkscape-stroke:none"
     d="M 19.382812,7.0761719 A 1.0001,1.0001 0 0 0 18.292969,7.2929687 L 14,11.585938 10.707031,8.2929688 a 1.0001,1.0001 0 0 0 -1.4140622,0 L 6.2929687,11.292969 A 1.0001,1.0001 0 0 0 6,12 v 5 a 1.0001,1.0001 0 0 0 1,1 h 12 a 1.0001,1.0001 0 0 0 1,-1 V 8 A 1.0001,1.0001 0 0 0 19.382812,7.0761719 Z M 10,10.414063 l 3.292969,3.292968 a 1.0001,1.0001 0 0 0 1.414062,0 L 18,10.414063 V 16 H 8 v -3.585937 z"
     id="path4" />
</svg>
