<?xml version="1.0" encoding="UTF-8" standalone="no"?>
<svg
   width="24"
   height="24"
   viewBox="0 0 24 24"
   fill="none"
   stroke="currentColor"
   stroke-width="2"
   stroke-linecap="round"
   stroke-linejoin="round"
   version="1.1"
   id="svg10"
   xmlns="http://www.w3.org/2000/svg"
   xmlns:svg="http://www.w3.org/2000/svg">
  <defs
     id="defs14" />
  <path
     style="color:#000000;fill:#000000;-inkscape-stroke:none"
     d="M 7,3 C 5.354992,3 4,4.354992 4,6 V 9 A 1,1 0 0 0 5,10 1,1 0 0 0 6,9 V 6 C 6,5.4358712 6.4358712,5 7,5 h 10 c 0.564129,0 1,0.4358712 1,1 v 3 a 1,1 0 0 0 1,1 1,1 0 0 0 1,-1 V 6 C 20,4.354992 18.645008,3 17,3 Z"
     id="path2" />
  <path
     style="color:#000000;fill:#000000;-inkscape-stroke:none"
     d="M 5,8 C 4.2777786,8 3.5421188,8.2353477 2.9609375,8.7519531 2.3797562,9.2685585 2,10.083334 2,11 v 5 c 0,1.645008 1.354992,3 3,3 h 14 c 1.645008,0 3,-1.354992 3,-3 V 11 C 22,10.083334 21.620244,9.2685585 21.039062,8.7519531 20.457881,8.2353477 19.722221,8 19,8 18.277779,8 17.542119,8.2353477 16.960937,8.7519531 16.379756,9.2685585 16,10.083334 16,11 v 1 H 8 V 11 C 8,10.083334 7.6202438,9.2685585 7.0390625,8.7519531 6.4578812,8.2353477 5.7222214,8 5,8 Z m 0,2 c 0.2777776,0 0.5421196,0.09799 0.7109375,0.248047 C 5.8797554,10.398107 6,10.583334 6,11 v 2 a 1.0001,1.0001 0 0 0 1,1 h 10 a 1.0001,1.0001 0 0 0 1,-1 v -2 c 0,-0.416666 0.120245,-0.601893 0.289062,-0.751953 C 18.45788,10.097987 18.722222,10 19,10 c 0.277778,0 0.54212,0.09799 0.710937,0.248047 C 19.879755,10.398107 20,10.583334 20,11 v 5 c 0,0.564129 -0.435871,1 -1,1 H 5 C 4.4358712,17 4,16.564129 4,16 V 11 C 4,10.583334 4.1202446,10.398107 4.2890625,10.248047 4.4578804,10.097987 4.7222224,10 5,10 Z"
     id="path4" />
  <path
     style="color:#000000;fill:#000000;-inkscape-stroke:none"
     d="m 5,17 a 1,1 0 0 0 -1,1 v 2 a 1,1 0 0 0 1,1 1,1 0 0 0 1,-1 V 18 A 1,1 0 0 0 5,17 Z"
     id="path6" />
  <path
     style="color:#000000;fill:#000000;-inkscape-stroke:none"
     d="m 19,17 a 1,1 0 0 0 -1,1 v 2 a 1,1 0 0 0 1,1 1,1 0 0 0 1,-1 v -2 a 1,1 0 0 0 -1,-1 z"
     id="path8" />
</svg>
