<?xml version="1.0" encoding="UTF-8" standalone="no"?>
<svg
   width="24"
   height="24"
   viewBox="0 0 24 24"
   fill="none"
   stroke="currentColor"
   stroke-width="2"
   stroke-linecap="round"
   stroke-linejoin="round"
   version="1.1"
   id="svg6"
   xmlns="http://www.w3.org/2000/svg"
   xmlns:svg="http://www.w3.org/2000/svg">
  <defs
     id="defs10" />
  <path
     style="color:#000000;fill:#000000;-inkscape-stroke:none"
     d="M 12,4 A 1,1 0 0 0 11.292969,4.2929687 L 4.2929687,11.292969 a 1.0001,1.0001 0 0 0 0,1.414062 l 7.0000003,7 a 1,1 0 0 0 1.414062,0 1,1 0 0 0 0,-1.414062 L 6.4140625,12 12.707031,5.7070312 a 1,1 0 0 0 0,-1.4140625 A 1,1 0 0 0 12,4 Z"
     id="path2" />
  <path
     style="color:#000000;fill:#000000;-inkscape-stroke:none"
     d="m 5,11 a 1,1 0 0 0 -1,1 1,1 0 0 0 1,1 h 14 a 1,1 0 0 0 1,-1 1,1 0 0 0 -1,-1 z"
     id="path4" />
</svg>
