<?xml version="1.0" encoding="UTF-8" standalone="no"?>
<svg
   width="24"
   height="24"
   viewBox="0 0 24 24"
   fill="none"
   stroke="currentColor"
   stroke-width="2"
   stroke-linecap="round"
   stroke-linejoin="round"
   version="1.1"
   id="svg6"
   xmlns="http://www.w3.org/2000/svg"
   xmlns:svg="http://www.w3.org/2000/svg">
  <defs
     id="defs10" />
  <path
     style="color:#000000;fill:#000000;-inkscape-stroke:none"
     d="m 19,8 a 1,1 0 0 0 -1,1 v 6 a 1,1 0 0 0 1,1 1,1 0 0 0 1,-1 V 9 A 1,1 0 0 0 19,8 Z"
     id="path2" />
  <path
     style="color:#000000;fill:#000000;-inkscape-stroke:none"
     d="M 12.382813,4.0761719 A 1.0001,1.0001 0 0 0 11.292969,4.2929687 L 4.2929687,11.292969 a 1.0001,1.0001 0 0 0 0,1.414062 l 7.0000003,7 A 1.0001,1.0001 0 0 0 13,19 v -3 h 2 a 1.0001,1.0001 0 0 0 1,-1 V 9 A 1.0001,1.0001 0 0 0 15,8 H 13 V 5 A 1.0001,1.0001 0 0 0 12.382813,4.0761719 Z M 11,7.4140625 V 9 a 1.0001,1.0001 0 0 0 1,1 h 2 v 4 h -2 a 1.0001,1.0001 0 0 0 -1,1 v 1.585937 L 6.4140625,12 Z"
     id="path4" />
</svg>
