<?xml version="1.0" encoding="UTF-8" standalone="no"?>
<svg
   width="24"
   height="24"
   viewBox="0 0 24 24"
   fill="none"
   stroke="currentColor"
   stroke-width="2"
   stroke-linecap="round"
   stroke-linejoin="round"
   version="1.1"
   id="svg4"
   xmlns="http://www.w3.org/2000/svg"
   xmlns:svg="http://www.w3.org/2000/svg">
  <defs
     id="defs8" />
  <path
     style="color:#000000;fill:#000000;-inkscape-stroke:none"
     d="M 11.617188,4.0761719 A 1.0001,1.0001 0 0 0 11,5 V 8 H 6 A 1.0001,1.0001 0 0 0 5,9 v 6 a 1.0001,1.0001 0 0 0 1,1 h 5 v 3 a 1.0001,1.0001 0 0 0 1.707031,0.707031 l 7,-7 a 1.0001,1.0001 0 0 0 0,-1.414062 l -7,-7.0000003 A 1.0001,1.0001 0 0 0 11.617188,4.0761719 Z M 13,7.4140625 17.585937,12 13,16.585937 V 15 A 1.0001,1.0001 0 0 0 12,14 H 7 v -4 h 5 a 1.0001,1.0001 0 0 0 1,-1 z"
     id="path2" />
</svg>
