<?xml version="1.0" encoding="UTF-8" standalone="no"?>
<svg
   width="24"
   height="24"
   viewBox="0 0 24 24"
   fill="none"
   stroke="currentColor"
   stroke-width="2"
   stroke-linecap="round"
   stroke-linejoin="round"
   version="1.1"
   id="svg12"
   xmlns="http://www.w3.org/2000/svg"
   xmlns:svg="http://www.w3.org/2000/svg">
  <defs
     id="defs16" />
  <path
     style="color:#000000;fill:#000000;-inkscape-stroke:none"
     d="M 6.2929687,3.2929688 2.2929688,7.2929687 a 1,1 0 0 0 0,1.4140626 1,1 0 0 0 1.4140625,0 L 7,5.4140625 10.292969,8.7070313 a 1,1 0 0 0 1.414062,0 1,1 0 0 0 0,-1.4140626 L 7.7070312,3.2929688 a 1.0001,1.0001 0 0 0 -1.4140625,0 z"
     id="path2" />
  <path
     style="color:#000000;fill:#000000;-inkscape-stroke:none"
     d="M 7,3 A 1,1 0 0 0 6,4 v 16 a 1,1 0 0 0 1,1 1,1 0 0 0 1,-1 V 4 A 1,1 0 0 0 7,3 Z"
     id="path4" />
  <path
     style="color:#000000;fill:#000000;-inkscape-stroke:none"
     d="m 17,3 c -1.644701,0 -3,1.3552989 -3,3 v 2 c 0,1.6447011 1.355299,3 3,3 1.644701,0 3,-1.3552989 3,-3 V 6 C 20,4.3552989 18.644701,3 17,3 Z m 0,2 c 0.571297,0 1,0.4287033 1,1 V 8 C 18,8.5712967 17.571297,9 17,9 16.428703,9 16,8.5712967 16,8 V 6 c 0,-0.5712967 0.428703,-1 1,-1 z"
     id="rect6" />
  <path
     style="color:#000000;fill:#000000;-inkscape-stroke:none"
     d="m 15,13 a 1,1 0 0 0 -1,1 1,1 0 0 0 1,1 h 1 v 5 a 1,1 0 0 0 1,1 1,1 0 0 0 1,-1 v -6 a 1.0001,1.0001 0 0 0 -1,-1 z"
     id="path8" />
  <path
     style="color:#000000;fill:#000000;-inkscape-stroke:none"
     d="m 15,19 a 1,1 0 0 0 -1,1 1,1 0 0 0 1,1 h 4 a 1,1 0 0 0 1,-1 1,1 0 0 0 -1,-1 z"
     id="path10" />
</svg>
