<?xml version="1.0" encoding="UTF-8" standalone="no"?>
<svg
   width="24"
   height="24"
   viewBox="0 0 24 24"
   fill="none"
   stroke="currentColor"
   stroke-width="2"
   stroke-linecap="round"
   stroke-linejoin="round"
   version="1.1"
   id="svg12"
   xmlns="http://www.w3.org/2000/svg"
   xmlns:svg="http://www.w3.org/2000/svg">
  <defs
     id="defs16" />
  <path
     style="color:#000000;fill:#000000;-inkscape-stroke:none"
     d="m 3,15 a 1,1 0 0 0 -0.7070312,0.292969 1,1 0 0 0 0,1.414062 l 3.9999999,4 a 1.0001,1.0001 0 0 0 1.4140625,0 l 3.9999998,-4 a 1,1 0 0 0 0,-1.414062 1,1 0 0 0 -1.414062,0 L 7,18.585937 3.7070313,15.292969 A 1,1 0 0 0 3,15 Z"
     id="path2" />
  <path
     style="color:#000000;fill:#000000;-inkscape-stroke:none"
     d="M 7,3 A 1,1 0 0 0 6,4 v 16 a 1,1 0 0 0 1,1 1,1 0 0 0 1,-1 V 4 A 1,1 0 0 0 7,3 Z"
     id="path4" />
  <path
     style="color:#000000;fill:#000000;-inkscape-stroke:none"
     d="m 11,3 a 1,1 0 0 0 -1,1 1,1 0 0 0 1,1 H 21 A 1,1 0 0 0 22,4 1,1 0 0 0 21,3 Z"
     id="path6" />
  <path
     style="color:#000000;fill:#000000;-inkscape-stroke:none"
     d="m 11,7 a 1,1 0 0 0 -1,1 1,1 0 0 0 1,1 h 7 A 1,1 0 0 0 19,8 1,1 0 0 0 18,7 Z"
     id="path8" />
  <path
     style="color:#000000;fill:#000000;-inkscape-stroke:none"
     d="m 11,11 a 1,1 0 0 0 -1,1 1,1 0 0 0 1,1 h 4 a 1,1 0 0 0 1,-1 1,1 0 0 0 -1,-1 z"
     id="path10" />
</svg>
