<?xml version="1.0" encoding="UTF-8" standalone="no"?>
<svg
   width="24"
   height="24"
   viewBox="0 0 24 24"
   fill="none"
   stroke="currentColor"
   stroke-width="2"
   stroke-linecap="round"
   stroke-linejoin="round"
   version="1.1"
   id="svg8"
   xmlns="http://www.w3.org/2000/svg"
   xmlns:svg="http://www.w3.org/2000/svg">
  <defs
     id="defs12" />
  <path
     style="color:#000000;fill:#000000;-inkscape-stroke:none"
     d="M 5,2 A 1,1 0 0 0 4,3 1,1 0 0 0 5,4 H 19 A 1,1 0 0 0 20,3 1,1 0 0 0 19,2 Z"
     id="path2" />
  <path
     style="color:#000000;fill:#000000;-inkscape-stroke:none"
     d="M 11.292969,6.2929687 5.2929687,12.292969 a 1,1 0 0 0 0,1.414062 1,1 0 0 0 1.4140625,0 L 12,8.4140625 17.292969,13.707031 a 1,1 0 0 0 1.414062,0 1,1 0 0 0 0,-1.414062 l -6,-6.0000003 a 1.0001,1.0001 0 0 0 -1.414062,0 z"
     id="path4" />
  <path
     style="color:#000000;fill:#000000;-inkscape-stroke:none"
     d="m 12,6 a 1,1 0 0 0 -1,1 v 14 a 1,1 0 0 0 1,1 1,1 0 0 0 1,-1 V 7 A 1,1 0 0 0 12,6 Z"
     id="path6" />
</svg>
