<?xml version="1.0" encoding="UTF-8" standalone="no"?>
<svg
   width="24"
   height="24"
   viewBox="0 0 24 24"
   fill="none"
   stroke="currentColor"
   stroke-width="2"
   stroke-linecap="round"
   stroke-linejoin="round"
   version="1.1"
   id="svg12"
   xmlns="http://www.w3.org/2000/svg"
   xmlns:svg="http://www.w3.org/2000/svg">
  <defs
     id="defs16" />
  <path
     style="color:#000000;fill:#000000;-inkscape-stroke:none"
     d="m 3,15 a 1,1 0 0 0 -0.7070312,0.292969 1,1 0 0 0 0,1.414062 l 3.9999999,4 a 1.0001,1.0001 0 0 0 1.4140625,0 l 3.9999998,-4 a 1,1 0 0 0 0,-1.414062 1,1 0 0 0 -1.414062,0 L 7,18.585937 3.7070313,15.292969 A 1,1 0 0 0 3,15 Z"
     id="path2" />
  <path
     style="color:#000000;fill:#000000;-inkscape-stroke:none"
     d="M 7,3 A 1,1 0 0 0 6,4 v 16 a 1,1 0 0 0 1,1 1,1 0 0 0 1,-1 V 4 A 1,1 0 0 0 7,3 Z"
     id="path4" />
  <path
     style="color:#000000;fill:#000000;-inkscape-stroke:none"
     d="m 15,7 a 1,1 0 0 0 -1,1 1,1 0 0 0 1,1 h 5 A 1,1 0 0 0 21,8 1,1 0 0 0 20,7 Z"
     id="path6" />
  <path
     style="color:#000000;fill:#000000;-inkscape-stroke:none"
     d="M 17.5,3 C 16.652779,3 15.792119,3.2770145 15.117188,3.8769531 14.442256,4.4768917 14,5.416668 14,6.5 V 10 a 1,1 0 0 0 1,1 1,1 0 0 0 1,-1 V 6.5 C 16,5.9166677 16.182745,5.6064404 16.445312,5.3730469 16.70788,5.1396534 17.097223,5 17.5,5 17.902777,5 18.29212,5.1396534 18.554687,5.3730469 18.817255,5.6064404 19,5.9166677 19,6.5 V 10 a 1,1 0 0 0 1,1 1,1 0 0 0 1,-1 V 6.5 C 21,5.416668 20.557744,4.4768917 19.882812,3.8769531 19.207881,3.2770145 18.347221,3 17.5,3 Z"
     id="path8" />
  <path
     style="color:#000000;fill:#000000;-inkscape-stroke:none"
     d="m 15,13 a 1,1 0 0 0 -1,1 1,1 0 0 0 1,1 h 2.865234 l -3.632812,4.359375 A 1.0001,1.0001 0 0 0 15,21 h 5 a 1,1 0 0 0 1,-1 1,1 0 0 0 -1,-1 h -2.865234 l 3.632812,-4.359375 A 1.0001,1.0001 0 0 0 20,13 Z"
     id="path10" />
</svg>
