<?xml version="1.0" encoding="UTF-8" standalone="no"?>
<svg
   width="24"
   height="24"
   viewBox="0 0 24 24"
   fill="none"
   stroke="currentColor"
   stroke-width="2"
   stroke-linecap="round"
   stroke-linejoin="round"
   version="1.1"
   id="svg6"
   xmlns="http://www.w3.org/2000/svg"
   xmlns:svg="http://www.w3.org/2000/svg">
  <defs
     id="defs10" />
  <path
     style="color:#000000;fill:#000000;-inkscape-stroke:none"
     d="m 5,11 a 1,1 0 0 0 -1,1 1,1 0 0 0 1,1 h 14 a 1,1 0 0 0 1,-1 1,1 0 0 0 -1,-1 z"
     id="path2" />
  <path
     style="color:#000000;fill:#000000;-inkscape-stroke:none"
     d="m 12,4 a 1,1 0 0 0 -0.707031,0.2929687 1,1 0 0 0 0,1.4140625 L 17.585937,12 11.292969,18.292969 a 1,1 0 0 0 0,1.414062 1,1 0 0 0 1.414062,0 l 7,-7 a 1.0001,1.0001 0 0 0 0,-1.414062 l -7,-7.0000003 A 1,1 0 0 0 12,4 Z"
     id="path4" />
</svg>
