<?xml version="1.0" encoding="UTF-8" standalone="no"?>
<svg
   width="24"
   height="24"
   viewBox="0 0 24 24"
   fill="none"
   stroke="currentColor"
   stroke-width="2"
   stroke-linecap="round"
   stroke-linejoin="round"
   version="1.1"
   id="svg8"
   xmlns="http://www.w3.org/2000/svg"
   xmlns:svg="http://www.w3.org/2000/svg">
  <defs
     id="defs12" />
  <path
     style="color:#000000;fill:#000000;-inkscape-stroke:none"
     d="M 10.791016,1.0605469 C 9.756624,1.179398 8.7451953,1.4427079 7.7910156,1.8378906 3.9742967,3.4186216 1,7.1421859 1,12 a 1,1 0 0 0 1,1 1,1 0 0 0 1,-1 C 3,7.9481549 5.4128429,4.9875811 8.5566406,3.6855469 11.700438,2.3835127 15.498586,2.7720238 18.363281,5.6367187 21.227976,8.5014137 21.616487,12.299562 20.314453,15.443359 19.012419,18.587157 16.051845,21 12,21 a 1,1 0 0 0 -1,1 1,1 0 0 0 1,1 c 4.857814,0 8.581378,-2.974297 10.162109,-6.791016 C 23.74284,12.392265 23.211966,7.6572781 19.777344,4.2226562 17.201377,1.6466898 13.894191,0.70399359 10.791016,1.0605469 Z"
     id="path2" />
  <path
     style="color:#000000;fill:#000000;-inkscape-stroke:none"
     d="m 12,11 a 1,1 0 0 0 -0.707031,0.292969 l -10.0000003,10 a 1,1 0 0 0 0,1.414062 1,1 0 0 0 1.4140626,0 l 9.9999997,-10 a 1,1 0 0 0 0,-1.414062 A 1,1 0 0 0 12,11 Z"
     id="path4" />
  <path
     style="color:#000000;fill:#000000;-inkscape-stroke:none"
     d="m 2,15 a 1,1 0 0 0 -1,1 v 6 a 1.0001,1.0001 0 0 0 1,1 H 8 A 1,1 0 0 0 9,22 1,1 0 0 0 8,21 H 3 V 16 A 1,1 0 0 0 2,15 Z"
     id="path6" />
</svg>
