<?xml version="1.0" encoding="UTF-8" standalone="no"?>
<svg
   width="24"
   height="24"
   viewBox="0 0 24 24"
   fill="none"
   stroke="currentColor"
   stroke-width="2"
   stroke-linecap="round"
   stroke-linejoin="round"
   version="1.1"
   id="svg8"
   xmlns="http://www.w3.org/2000/svg"
   xmlns:svg="http://www.w3.org/2000/svg">
  <defs
     id="defs12" />
  <path
     style="color:#000000;fill:#000000;-inkscape-stroke:none"
     d="M 2,1 A 1.0001,1.0001 0 0 0 1,2 V 8 A 1,1 0 0 0 2,9 1,1 0 0 0 3,8 V 3 H 8 A 1,1 0 0 0 9,2 1,1 0 0 0 8,1 Z"
     id="path2" />
  <path
     style="color:#000000;fill:#000000;-inkscape-stroke:none"
     d="m 2,1 a 1,1 0 0 0 -0.7070313,0.2929687 1,1 0 0 0 0,1.4140626 L 11.292969,12.707031 a 1,1 0 0 0 1.414062,0 1,1 0 0 0 0,-1.414062 L 2.7070313,1.2929687 A 1,1 0 0 0 2,1 Z"
     id="path4" />
  <path
     style="color:#000000;fill:#000000;-inkscape-stroke:none"
     d="m 12,1 a 1,1 0 0 0 -1,1 1,1 0 0 0 1,1 c 4.051845,0 7.012419,2.4128429 8.314453,5.5566406 1.302034,3.1437974 0.913523,6.9419454 -1.951172,9.8066404 -2.864695,2.864695 -6.662843,3.253206 -9.8066404,1.951172 C 5.4128429,19.012419 3,16.051845 3,12 A 1,1 0 0 0 2,11 1,1 0 0 0 1,12 C 1,16.857814 3.9742967,20.581378 7.7910156,22.162109 11.607735,23.74284 16.342722,23.211966 19.777344,19.777344 23.211966,16.342722 23.74284,11.607735 22.162109,7.7910156 20.581378,3.9742967 16.857814,1 12,1 Z"
     id="path6" />
</svg>
