<?xml version="1.0" encoding="UTF-8" standalone="no"?>
<svg
   width="24"
   height="24"
   viewBox="0 0 24 24"
   fill="none"
   stroke="currentColor"
   stroke-width="2"
   stroke-linecap="round"
   stroke-linejoin="round"
   version="1.1"
   id="svg8"
   xmlns="http://www.w3.org/2000/svg"
   xmlns:svg="http://www.w3.org/2000/svg">
  <defs
     id="defs12" />
  <path
     style="color:#000000;fill:#000000;-inkscape-stroke:none"
     d="M 12,1 C 5.9367185,1 1,5.9367185 1,12 1,18.063282 5.9367185,23 12,23 18.063282,23 23,18.063282 23,12 23,5.9367185 18.063282,1 12,1 Z m 0,2 c 4.982402,0 9,4.0175976 9,9 0,4.982402 -4.017598,9 -9,9 C 7.0175976,21 3,16.982402 3,12 3,7.0175976 7.0175976,3 12,3 Z"
     id="circle2" />
  <path
     style="color:#000000;fill:#000000;-inkscape-stroke:none"
     d="m 8,11 a 1,1 0 0 0 -1,1 1,1 0 0 0 1,1 h 8 a 1,1 0 0 0 1,-1 1,1 0 0 0 -1,-1 z"
     id="path4" />
  <path
     style="color:#000000;fill:#000000;-inkscape-stroke:none"
     d="m 12,7 a 1,1 0 0 0 -0.707031,0.2929687 1,1 0 0 0 0,1.4140626 L 14.585938,12 11.292969,15.292969 a 1,1 0 0 0 0,1.414062 1,1 0 0 0 1.414062,0 l 4,-4 a 1.0001,1.0001 0 0 0 0,-1.414062 l -4,-4.0000003 A 1,1 0 0 0 12,7 Z"
     id="path6" />
</svg>
