<?xml version="1.0" encoding="UTF-8" standalone="no"?>
<svg
   width="24"
   height="24"
   viewBox="0 0 24 24"
   fill="none"
   stroke="currentColor"
   stroke-width="2"
   stroke-linecap="round"
   stroke-linejoin="round"
   version="1.1"
   id="svg8"
   xmlns="http://www.w3.org/2000/svg"
   xmlns:svg="http://www.w3.org/2000/svg">
  <defs
     id="defs12" />
  <path
     style="color:#000000;fill:#000000;-inkscape-stroke:none"
     d="M 13.208984,1.0605469 C 10.105809,0.70399359 6.7986227,1.6466898 4.2226562,4.2226562 0.78803438,7.6572781 0.25715964,12.392265 1.8378906,16.208984 3.4186216,20.025703 7.1421859,23 12,23 a 1,1 0 0 0 1,-1 1,1 0 0 0 -1,-1 C 7.9481549,21 4.9875811,18.587157 3.6855469,15.443359 2.3835127,12.299562 2.7720238,8.5014137 5.6367187,5.6367187 8.5014137,2.7720238 12.299562,2.3835127 15.443359,3.6855469 18.587157,4.9875811 21,7.9481549 21,12 a 1,1 0 0 0 1,1 1,1 0 0 0 1,-1 C 23,7.1421859 20.025703,3.4186216 16.208984,1.8378906 c -0.954179,-0.3951827 -1.965608,-0.6584926 -3,-0.7773437 z"
     id="path2" />
  <path
     style="color:#000000;fill:#000000;-inkscape-stroke:none"
     d="m 12,11 a 1,1 0 0 0 -0.707031,0.292969 1,1 0 0 0 0,1.414062 l 10,10 a 1,1 0 0 0 1.414062,0 1,1 0 0 0 0,-1.414062 l -10,-10 A 1,1 0 0 0 12,11 Z"
     id="path4" />
  <path
     style="color:#000000;fill:#000000;-inkscape-stroke:none"
     d="m 22,15 a 1,1 0 0 0 -1,1 v 5 h -5 a 1,1 0 0 0 -1,1 1,1 0 0 0 1,1 h 6 a 1.0001,1.0001 0 0 0 1,-1 v -6 a 1,1 0 0 0 -1,-1 z"
     id="path6" />
</svg>
