<?xml version="1.0" encoding="UTF-8" standalone="no"?>
<svg
   width="24"
   height="24"
   viewBox="0 0 24 24"
   fill="none"
   stroke="currentColor"
   stroke-width="2"
   stroke-linecap="round"
   stroke-linejoin="round"
   version="1.1"
   id="svg8"
   xmlns="http://www.w3.org/2000/svg"
   xmlns:svg="http://www.w3.org/2000/svg">
  <defs
     id="defs12" />
  <path
     style="color:#000000;fill:#000000;-inkscape-stroke:none"
     d="M 12,1 C 7.1421859,1 3.4186216,3.9742967 1.8378906,7.7910156 0.25715964,11.607735 0.78803438,16.342722 4.2226562,19.777344 7.6572781,23.211966 12.392265,23.74284 16.208984,22.162109 20.025703,20.581378 23,16.857814 23,12 a 1,1 0 0 0 -1,-1 1,1 0 0 0 -1,1 c 0,4.051845 -2.412843,7.012419 -5.556641,8.314453 C 12.299562,21.616487 8.5014137,21.227976 5.6367187,18.363281 2.7720238,15.498586 2.3835127,11.700438 3.6855469,8.5566406 4.9875811,5.4128429 7.9481549,3 12,3 A 1,1 0 0 0 13,2 1,1 0 0 0 12,1 Z"
     id="path2" />
  <path
     style="color:#000000;fill:#000000;-inkscape-stroke:none"
     d="m 21.292969,1.2929687 -10,10.0000003 a 1,1 0 0 0 0,1.414062 1,1 0 0 0 1.414062,0 l 10,-9.9999997 a 1,1 0 0 0 0,-1.4140626 1,1 0 0 0 -1.414062,0 z"
     id="path4" />
  <path
     style="color:#000000;fill:#000000;-inkscape-stroke:none"
     d="m 16,1 a 1,1 0 0 0 -1,1 1,1 0 0 0 1,1 h 5 v 5 a 1,1 0 0 0 1,1 1,1 0 0 0 1,-1 V 2 A 1.0001,1.0001 0 0 0 22,1 Z"
     id="path6" />
</svg>
