<?xml version="1.0" encoding="UTF-8" standalone="no"?>
<svg
   width="24"
   height="24"
   viewBox="0 0 24 24"
   fill="none"
   stroke="currentColor"
   stroke-width="2"
   stroke-linecap="round"
   stroke-linejoin="round"
   version="1.1"
   id="svg10"
   xmlns="http://www.w3.org/2000/svg"
   xmlns:svg="http://www.w3.org/2000/svg">
  <defs
     id="defs14" />
  <path
     style="color:#000000;fill:#000000;-inkscape-stroke:none"
     d="M 8,2 A 1,1 0 0 0 7.2929687,2.2929688 L 3.2929688,6.2929687 a 1.0001,1.0001 0 0 0 0,1.4140625 l 3.9999999,3.9999998 a 1,1 0 0 0 1.4140626,0 1,1 0 0 0 0,-1.414062 L 5.4140625,7 8.7070313,3.7070313 a 1,1 0 0 0 0,-1.4140625 A 1,1 0 0 0 8,2 Z"
     id="path2" />
  <path
     style="color:#000000;fill:#000000;-inkscape-stroke:none"
     d="M 4,6 A 1,1 0 0 0 3,7 1,1 0 0 0 4,8 H 20 A 1,1 0 0 0 21,7 1,1 0 0 0 20,6 Z"
     id="path4" />
  <path
     style="color:#000000;fill:#000000;-inkscape-stroke:none"
     d="m 15.292969,12.292969 a 1,1 0 0 0 0,1.414062 L 18.585937,17 15.292969,20.292969 a 1,1 0 0 0 0,1.414062 1,1 0 0 0 1.414062,0 l 4,-4 a 1.0001,1.0001 0 0 0 0,-1.414062 l -4,-4 a 1,1 0 0 0 -1.414062,0 z"
     id="path6" />
  <path
     style="color:#000000;fill:#000000;-inkscape-stroke:none"
     d="m 4,16 a 1,1 0 0 0 -1,1 1,1 0 0 0 1,1 h 16 a 1,1 0 0 0 1,-1 1,1 0 0 0 -1,-1 z"
     id="path8" />
</svg>
