<?xml version="1.0" encoding="UTF-8" standalone="no"?>
<svg
   width="24"
   height="24"
   viewBox="0 0 24 24"
   fill="none"
   stroke="currentColor"
   stroke-width="2"
   stroke-linecap="round"
   stroke-linejoin="round"
   version="1.1"
   id="svg6"
   xmlns="http://www.w3.org/2000/svg"
   xmlns:svg="http://www.w3.org/2000/svg">
  <defs
     id="defs10" />
  <path
     style="color:#000000;fill:#000000;-inkscape-stroke:none"
     d="m 9,18 a 1,1 0 0 0 -1,1 1,1 0 0 0 1,1 h 6 a 1,1 0 0 0 1,-1 1,1 0 0 0 -1,-1 z"
     id="path2" />
  <path
     style="color:#000000;fill:#000000;-inkscape-stroke:none"
     d="M 11.292969,4.2929687 4.2929687,11.292969 A 1.0001,1.0001 0 0 0 5,13 h 3 v 2 a 1.0001,1.0001 0 0 0 1,1 h 6 a 1.0001,1.0001 0 0 0 1,-1 v -2 h 3 a 1.0001,1.0001 0 0 0 0.707031,-1.707031 l -7,-7.0000003 a 1.0001,1.0001 0 0 0 -1.414062,0 z M 12,6.4140625 16.585937,11 H 15 a 1.0001,1.0001 0 0 0 -1,1 v 2 H 10 V 12 A 1.0001,1.0001 0 0 0 9,11 H 7.4140625 Z"
     id="path4" />
</svg>
