<?xml version="1.0" encoding="UTF-8" standalone="no"?>
<svg
   width="24"
   height="24"
   viewBox="0 0 24 24"
   fill="none"
   stroke="currentColor"
   stroke-width="2"
   stroke-linecap="round"
   stroke-linejoin="round"
   version="1.1"
   id="svg6"
   xmlns="http://www.w3.org/2000/svg"
   xmlns:svg="http://www.w3.org/2000/svg">
  <defs
     id="defs10" />
  <path
     style="color:#000000;fill:#000000;-inkscape-stroke:none"
     d="M 9,4 A 1,1 0 0 0 8,5 1,1 0 0 0 9,6 h 6 A 1,1 0 0 0 16,5 1,1 0 0 0 15,4 Z"
     id="path2" />
  <path
     style="color:#000000;fill:#000000;-inkscape-stroke:none"
     d="M 9,8 A 1.0001,1.0001 0 0 0 8,9 v 2 H 5 a 1.0001,1.0001 0 0 0 -0.7070313,1.707031 l 7.0000003,7 a 1.0001,1.0001 0 0 0 1.414062,0 l 7,-7 A 1.0001,1.0001 0 0 0 19,11 H 16 V 9 A 1.0001,1.0001 0 0 0 15,8 Z m 1,2 h 4 v 2 a 1.0001,1.0001 0 0 0 1,1 h 1.585937 L 12,17.585937 7.4140625,13 H 9 a 1.0001,1.0001 0 0 0 1,-1 z"
     id="path4" />
</svg>
