<?xml version="1.0" encoding="UTF-8" standalone="no"?>
<svg
   width="24"
   height="24"
   viewBox="0 0 24 24"
   fill="none"
   stroke="currentColor"
   stroke-width="2"
   stroke-linecap="round"
   stroke-linejoin="round"
   version="1.1"
   id="svg12"
   xmlns="http://www.w3.org/2000/svg"
   xmlns:svg="http://www.w3.org/2000/svg">
  <defs
     id="defs16" />
  <path
     style="color:#000000;fill:#000000;-inkscape-stroke:none"
     d="M 6.2929687,3.2929688 2.2929688,7.2929687 a 1,1 0 0 0 0,1.4140626 1,1 0 0 0 1.4140625,0 L 7,5.4140625 10.292969,8.7070313 a 1,1 0 0 0 1.414062,0 1,1 0 0 0 0,-1.4140626 L 7.7070312,3.2929688 a 1.0001,1.0001 0 0 0 -1.4140625,0 z"
     id="path2" />
  <path
     style="color:#000000;fill:#000000;-inkscape-stroke:none"
     d="M 7,3 A 1,1 0 0 0 6,4 v 16 a 1,1 0 0 0 1,1 1,1 0 0 0 1,-1 V 4 A 1,1 0 0 0 7,3 Z"
     id="path4" />
  <path
     style="color:#000000;fill:#000000;-inkscape-stroke:none"
     d="m 15,3 a 1,1 0 0 0 -1,1 1,1 0 0 0 1,1 h 2.865234 L 14.232422,9.359375 A 1.0001,1.0001 0 0 0 15,11 h 5 A 1,1 0 0 0 21,10 1,1 0 0 0 20,9 H 17.134766 L 20.767578,4.640625 A 1.0001,1.0001 0 0 0 20,3 Z"
     id="path6" />
  <path
     style="color:#000000;fill:#000000;-inkscape-stroke:none"
     d="m 17.5,13 c -0.847221,0 -1.707881,0.277015 -2.382812,0.876953 C 14.442256,14.476892 14,15.416668 14,16.5 V 20 a 1,1 0 0 0 1,1 1,1 0 0 0 1,-1 v -3.5 c 0,-0.583332 0.182745,-0.89356 0.445312,-1.126953 C 16.70788,15.139653 17.097223,15 17.5,15 c 0.402777,0 0.79212,0.139653 1.054687,0.373047 C 18.817255,15.60644 19,15.916668 19,16.5 V 20 a 1,1 0 0 0 1,1 1,1 0 0 0 1,-1 V 16.5 C 21,15.416668 20.557744,14.476892 19.882812,13.876953 19.207881,13.277015 18.347221,13 17.5,13 Z"
     id="path8" />
  <path
     style="color:#000000;fill:#000000;-inkscape-stroke:none"
     d="m 15,17 a 1,1 0 0 0 -1,1 1,1 0 0 0 1,1 h 5 a 1,1 0 0 0 1,-1 1,1 0 0 0 -1,-1 z"
     id="path10" />
</svg>
