<?xml version="1.0" encoding="UTF-8" standalone="no"?>
<svg
   width="24"
   height="24"
   viewBox="0 0 24 24"
   fill="none"
   stroke="currentColor"
   stroke-width="2"
   stroke-linecap="round"
   stroke-linejoin="round"
   version="1.1"
   id="svg8"
   xmlns="http://www.w3.org/2000/svg"
   xmlns:svg="http://www.w3.org/2000/svg">
  <defs
     id="defs12" />
  <path
     style="color:#000000;fill:#000000;-inkscape-stroke:none"
     d="m 12,5 a 1,1 0 0 0 -1,1 v 12 a 1,1 0 0 0 1,1 1,1 0 0 0 1,-1 V 6 A 1,1 0 0 0 12,5 Z"
     id="path2" />
  <path
     style="color:#000000;fill:#000000;-inkscape-stroke:none"
     d="M 17.455078,8.0332031 A 1,1 0 0 0 16.695312,8.1347656 L 6.3046875,14.134766 A 1,1 0 0 0 5.9375,15.5 1,1 0 0 0 7.3046875,15.865234 L 17.695312,9.8652344 A 1,1 0 0 0 18.0625,8.5 1,1 0 0 0 17.455078,8.0332031 Z"
     id="path4" />
  <path
     style="color:#000000;fill:#000000;-inkscape-stroke:none"
     d="M 6.5449219,8.0332031 A 1,1 0 0 0 5.9375,8.5 1,1 0 0 0 6.3046875,9.8652344 L 16.695312,15.865234 A 1,1 0 0 0 18.0625,15.5 1,1 0 0 0 17.695312,14.134766 L 7.3046875,8.1347656 A 1,1 0 0 0 6.5449219,8.0332031 Z"
     id="path6" />
</svg>
