<?xml version="1.0" encoding="UTF-8" standalone="no"?>
<svg
   width="24"
   height="24"
   viewBox="0 0 24 24"
   fill="none"
   stroke="currentColor"
   stroke-width="2"
   stroke-linecap="round"
   stroke-linejoin="round"
   version="1.1"
   id="svg6"
   xmlns="http://www.w3.org/2000/svg"
   xmlns:svg="http://www.w3.org/2000/svg">
  <defs
     id="defs10" />
  <path
     style="color:#000000;fill:#000000;-inkscape-stroke:none"
     d="m 12,7 c -2.7495764,0 -5,2.2504236 -5,5 0,2.749576 2.2504236,5 5,5 2.749576,0 5,-2.250424 5,-5 0,-2.7495764 -2.250424,-5 -5,-5 z m 0,2 c 1.668697,0 3,1.331303 3,3 0,1.668697 -1.331303,3 -3,3 -1.668697,0 -3,-1.331303 -3,-3 0,-1.668697 1.331303,-3 3,-3 z"
     id="circle2" />
  <path
     style="color:#000000;fill:#000000;-inkscape-stroke:none"
     d="M 11.041016,1.0273437 C 7.5255256,1.304736 4.0837912,3.2425739 2.1640625,7.0820312 -0.39557571,12.201308 1.3731494,17.45756 4.9511719,20.445312 c 3.5780225,2.987753 9.0664851,3.791933 13.6484371,0.355469 a 1,1 0 0 0 0.201172,-1.40039 1,1 0 0 0 -1.40039,-0.201172 C 13.537104,22.096684 9.1955036,21.382785 6.234375,18.910156 3.2732464,16.437528 1.7954369,12.291939 3.953125,7.9765625 6.1108131,3.6611862 10.31358,2.3549086 14.068359,3.2402344 17.823139,4.1255602 21,7.1708912 21,12 v 1 c 0,0.749999 -0.245245,1.185226 -0.601563,1.501953 C 20.04212,14.81868 19.527777,15 19,15 18.472223,15 17.95788,14.81868 17.601562,14.501953 17.245245,14.185226 17,13.749999 17,13 V 8 A 1,1 0 0 0 16,7 1,1 0 0 0 15,8 v 5 c 0,1.249998 0.504756,2.314775 1.273437,2.998047 C 17.042119,16.681319 18.027779,17 19,17 19.972221,17 20.957881,16.681319 21.726562,15.998047 22.495244,15.314775 23,14.249998 23,13 V 12 C 23,6.2725601 19.06436,2.3646882 14.527344,1.2949219 13.39309,1.0274803 12.212846,0.93487965 11.041016,1.0273437 Z"
     id="path4" />
</svg>
