<?xml version="1.0" encoding="UTF-8" standalone="no"?>
<svg
   width="24"
   height="24"
   viewBox="0 0 24 24"
   fill="none"
   stroke="currentColor"
   stroke-width="2"
   stroke-linecap="round"
   stroke-linejoin="round"
   version="1.1"
   id="svg8"
   xmlns="http://www.w3.org/2000/svg"
   xmlns:svg="http://www.w3.org/2000/svg">
  <defs
     id="defs12" />
  <path
     style="color:#000000;fill:#000000;-inkscape-stroke:none"
     d="m 12,10 c -1.092724,0 -2,0.907276 -2,2 0,1.092724 0.907276,2 2,2 1.092724,0 2,-0.907276 2,-2 0,-1.092724 -0.907276,-2 -2,-2 z"
     id="circle2" />
  <path
     style="color:#000000;fill:#000000;-inkscape-stroke:none"
     d="M 5.8457031,2.0078125 C 4.8087161,2.0403662 3.8136353,2.3695763 3.09375,3.0917969 2.3701667,3.8118332 2.0403957,4.8077781 2.0078125,5.8457031 1.9752293,6.8836282 2.2131962,7.99644 2.6542969,9.1621094 c 0.8822013,2.3313386 2.5920022,4.8882646 4.9375,7.2441406 a 1.0001,1.0001 0 0 0 0.00195,0.002 c 2.355876,2.345498 4.912802,4.055299 7.244141,4.9375 1.165669,0.441101 2.278481,0.679068 3.316406,0.646484 1.036987,-0.03255 2.032068,-0.361763 2.751953,-1.083984 3.99e-4,-3.97e-4 -3.99e-4,-0.0016 0,-0.002 h 0.002 c 0.722221,-0.719885 1.051431,-1.714966 1.083984,-2.751953 0.03258,-1.037925 -0.205383,-2.150737 -0.646484,-3.316406 -0.882201,-2.331339 -2.592002,-4.888265 -4.9375,-7.244141 a 1.0001,1.0001 0 0 0 -0.002,-0.00195 C 14.050374,5.2462991 11.493448,3.5364982 9.1621094,2.6542969 7.99644,2.2131962 6.8836282,1.9752293 5.8457031,2.0078125 Z m 0.0625,1.9980469 c 0.6742608,-0.021167 1.5587966,0.1456327 2.546875,0.5195312 1.9761569,0.7477971 4.3549429,2.3079242 6.5390629,4.4824219 2.173422,2.1835525 3.732908,4.5615775 4.480468,6.5371095 0.373899,0.988078 0.540698,1.872614 0.519532,2.546875 -0.02117,0.674261 -0.203585,1.103475 -0.5,1.398437 a 1.0001,1.0001 0 0 0 -0.0039,0.0039 c -0.294962,0.296415 -0.724176,0.478833 -1.398437,0.5 -0.674261,0.02117 -1.558797,-0.145633 -2.546875,-0.519532 -1.975532,-0.74756 -4.353557,-2.307046 -6.5371095,-4.480468 l -0.00195,-0.002 C 6.8324371,12.808635 5.2729512,10.43061 4.5253906,8.4550781 4.1514921,7.4669997 3.9846926,6.5824639 4.0058594,5.9082031 c 0.021167,-0.6742607 0.2035843,-1.1034748 0.5,-1.3984375 a 1.0001,1.0001 0 0 0 0.00391,-0.00391 c 0.2949627,-0.2964157 0.7241768,-0.4788332 1.3984375,-0.5 z"
     id="path4" />
  <path
     style="color:#000000;fill:#000000;-inkscape-stroke:none"
     d="M 18.154297,2.0078125 C 17.116372,1.9752293 16.00356,2.2131962 14.837891,2.6542969 12.506552,3.5364982 9.949626,5.2462991 7.59375,7.5917969 a 1.0001,1.0001 0 0 0 -0.00195,0.00195 c -2.3454978,2.355876 -4.0552987,4.912802 -4.9375,7.244141 -0.4411007,1.165669 -0.6790676,2.278481 -0.6464844,3.316406 0.032554,1.036987 0.3617638,2.032068 1.0839844,2.751953 3.972e-4,3.99e-4 0.00156,-3.99e-4 0.00195,0 3.99e-4,3.97e-4 -3.992e-4,0.0016 0,0.002 0.7198853,0.722221 1.7149661,1.051431 2.7519531,1.083984 1.0379251,0.03258 2.1507369,-0.205383 3.3164063,-0.646484 2.3313386,-0.882201 4.8882646,-2.592002 7.2441406,-4.9375 a 1.0001,1.0001 0 0 0 0.002,-0.002 c 2.345498,-2.355876 4.055299,-4.912802 4.9375,-7.2441406 C 21.786804,7.99644 22.024771,6.8836282 21.992187,5.8457031 21.959634,4.8087161 21.630424,3.8136353 20.908203,3.09375 20.188167,2.3701667 19.192222,2.0403957 18.154297,2.0078125 Z m -0.0625,1.9980469 c 0.674261,0.021167 1.103475,0.2035843 1.398437,0.5 a 1.0001,1.0001 0 0 0 0.0039,0.00391 c 0.296415,0.2949627 0.478833,0.7241768 0.5,1.3984375 0.02117,0.6742608 -0.145633,1.5587966 -0.519532,2.546875 -0.74756,1.9755319 -2.307046,4.3535569 -4.480468,6.5371099 h -0.002 c -3.76e-4,3.77e-4 3.75e-4,0.0016 0,0.002 -2.183553,2.173422 -4.561578,3.732908 -6.5371099,4.480468 -0.9880784,0.373899 -1.8726142,0.540698 -2.546875,0.519532 -0.6742607,-0.02117 -1.1034748,-0.203585 -1.3984375,-0.5 a 1.0001,1.0001 0 0 0 -0.00391,-0.0039 c -0.2964157,-0.294962 -0.4788332,-0.724176 -0.5,-1.398437 C 3.9846926,17.417536 4.1514921,16.533 4.5253906,15.544922 5.2731877,13.568765 6.8333148,11.189979 9.0078125,9.0058594 11.191365,6.8324371 13.56939,5.2729512 15.544922,4.5253906 16.533,4.1514921 17.417536,3.9846926 18.091797,4.0058594 Z"
     id="path6" />
</svg>
