<?xml version="1.0" encoding="UTF-8" standalone="no"?>
<svg
   width="24"
   height="24"
   viewBox="0 0 24 24"
   fill="none"
   stroke="currentColor"
   stroke-width="2"
   stroke-linecap="round"
   stroke-linejoin="round"
   version="1.1"
   id="svg6"
   xmlns="http://www.w3.org/2000/svg"
   xmlns:svg="http://www.w3.org/2000/svg">
  <defs
     id="defs10" />
  <path
     style="color:#000000;fill:#000000;-inkscape-stroke:none"
     d="M 12,1 C 8.1458552,1 5,4.1458552 5,8 c 0,3.854145 3.1458552,7 7,7 3.854145,0 7,-3.145855 7,-7 0,-3.8541448 -3.145855,-7 -7,-7 z m 0,2 c 2.773266,0 5,2.2267344 5,5 0,2.773266 -2.226734,5 -5,5 C 9.2267344,13 7,10.773266 7,8 7,5.2267344 9.2267344,3 12,3 Z"
     id="circle2" />
  <path
     style="color:#000000;fill:#000000;-inkscape-stroke:none"
     d="m 8.6875,11.904297 a 1,1 0 0 0 -1.1503906,0.820312 l -1.5234375,9.111328 a 1.0001,1.0001 0 0 0 1.5,1.021485 L 12,20.166016 l 4.486328,2.691406 a 1.0001,1.0001 0 0 0 1.5,-1.021485 L 16.462891,12.724609 A 1,1 0 0 0 15.3125,11.904297 1,1 0 0 0 14.490234,13.054688 l 1.166016,6.972656 -3.142578,-1.884766 a 1.0001,1.0001 0 0 0 -1.027344,0 L 8.34375,20.027344 9.5097656,13.054688 A 1,1 0 0 0 8.6875,11.904297 Z"
     id="path4" />
</svg>
