<?xml version="1.0" encoding="UTF-8" standalone="no"?>
<svg
   width="24"
   height="24"
   viewBox="0 0 24 24"
   fill="none"
   stroke="currentColor"
   stroke-width="2"
   stroke-linecap="round"
   stroke-linejoin="round"
   version="1.1"
   id="svg6"
   xmlns="http://www.w3.org/2000/svg"
   xmlns:svg="http://www.w3.org/2000/svg">
  <defs
     id="defs10" />
  <path
     style="color:#000000;fill:#000000;-inkscape-stroke:none"
     d="M 11,8 A 1,1 0 0 0 10.292969,8.2929688 L 1.7929687,16.792969 c -0.6767758,0.676776 -0.99471487,1.55274 -0.94726557,2.359375 0.0474493,0.806635 0.41513137,1.522553 0.94726557,2.054687 0.5321343,0.532134 1.2480524,0.899817 2.0546876,0.947266 0.8066351,0.04745 1.6825991,-0.27049 2.3593749,-0.947266 l 8.4999998,-8.5 a 1,1 0 0 0 0,-1.414062 1,1 0 0 0 -1.414062,0 l -8.5000003,8.5 C 4.4697461,20.116191 4.2207074,20.173254 3.9648438,20.158203 3.7089801,20.143152 3.4248963,20.010834 3.2070313,19.792969 2.9891662,19.575104 2.8568477,19.29102 2.8417969,19.035156 2.826746,18.779293 2.8838086,18.530254 3.2070313,18.207031 L 11.707031,9.7070313 a 1,1 0 0 0 0,-1.4140625 A 1,1 0 0 0 11,8 Z"
     id="path2" />
  <path
     style="color:#000000;fill:#000000;-inkscape-stroke:none"
     d="M 12.292969,2.2929688 8.2929688,6.2929687 a 1.0001,1.0001 0 0 0 0,1.4140625 L 14,13.414063 V 16 a 1.0001,1.0001 0 0 0 1.117188,0.992187 c 4.123692,-0.49007 7.384929,-3.751307 7.874999,-7.8749995 A 1.0001,1.0001 0 0 0 22,8 H 19.414062 L 13.707031,2.2929688 a 1.0001,1.0001 0 0 0 -1.414062,0 z M 13,4.4140625 18.292969,9.7070313 A 1.0001,1.0001 0 0 0 19,10 h 1.677734 C 20.007708,12.276139 18.276139,14.007708 16,14.677734 V 13 A 1.0001,1.0001 0 0 0 15.707031,12.292969 L 10.414063,7 Z"
     id="path4" />
</svg>
