<?xml version="1.0" encoding="UTF-8" standalone="no"?>
<svg
   width="24"
   height="24"
   viewBox="0 0 24 24"
   fill="none"
   stroke="currentColor"
   stroke-width="2"
   stroke-linecap="round"
   stroke-linejoin="round"
   version="1.1"
   id="svg6"
   xmlns="http://www.w3.org/2000/svg"
   xmlns:svg="http://www.w3.org/2000/svg">
  <defs
     id="defs10" />
  <path
     style="color:#000000;fill:#000000;-inkscape-stroke:none"
     d="M 4,3 A 1,1 0 0 0 3,4 v 16 a 1.0001,1.0001 0 0 0 1,1 h 16 a 1,1 0 0 0 1,-1 1,1 0 0 0 -1,-1 H 5 V 4 A 1,1 0 0 0 4,3 Z"
     id="path2" />
  <path
     style="color:#000000;fill:#000000;-inkscape-stroke:none"
     d="m 11,12 a 1,1 0 0 0 -0.707031,0.292969 l -7.0000002,7 a 1,1 0 0 0 0,1.414062 1,1 0 0 0 1.4140624,0 l 6.9999998,-7 a 1,1 0 0 0 0,-1.414062 A 1,1 0 0 0 11,12 Z"
     id="path4" />
</svg>
