<?xml version="1.0" encoding="UTF-8" standalone="no"?>
<svg
   width="24"
   height="24"
   viewBox="0 0 24 24"
   fill="none"
   stroke="currentColor"
   stroke-width="2"
   stroke-linecap="round"
   stroke-linejoin="round"
   version="1.1"
   id="svg10"
   xmlns="http://www.w3.org/2000/svg"
   xmlns:svg="http://www.w3.org/2000/svg">
  <defs
     id="defs14" />
  <path
     style="color:#000000;fill:#000000;-inkscape-stroke:none"
     d="m 9,11 a 1,1 0 0 0 -1,1 1,1 0 0 0 1,1 h 0.00977 A 1,1 0 0 0 10.009766,12 1,1 0 0 0 9.0097656,11 Z"
     id="path2" />
  <path
     style="color:#000000;fill:#000000;-inkscape-stroke:none"
     d="m 15,11 a 1,1 0 0 0 -1,1 1,1 0 0 0 1,1 h 0.0098 a 1,1 0 0 0 1,-1 1,1 0 0 0 -1,-1 z"
     id="path4" />
  <path
     style="color:#000000;fill:#000000;-inkscape-stroke:none"
     d="m 9.7578125,15.029297 a 1,1 0 0 0 -0.6152344,0.457031 1,1 0 0 0 0.34375,1.371094 C 10.171277,17.268391 11.033334,17.5 12,17.5 c 0.966666,0 1.828723,-0.231609 2.513672,-0.642578 a 1,1 0 0 0 0.34375,-1.371094 1,1 0 0 0 -1.371094,-0.34375 C 13.171278,15.331608 12.633333,15.5 12,15.5 c -0.633333,0 -1.171278,-0.168392 -1.486328,-0.357422 A 1,1 0 0 0 9.7578125,15.029297 Z"
     id="path6" />
  <path
     style="color:#000000;fill:#000000;-inkscape-stroke:none"
     d="M 11.998047,2 C 7.3736539,2.0093345 3.412839,5.2223638 2.3417969,9.6914063 0.83038427,10.860789 0.83129913,13.145613 2.3457031,14.3125 3.5723616,19.277718 7.797192,21.914063 12,21.914062 c 4.202808,0 8.427638,-2.636344 9.654297,-7.601562 1.503535,-1.158512 1.512207,-3.414917 0.0332,-4.59375 C 21.354947,8.2470523 20.723819,6.8573259 19.78125,5.6757812 a 1,1 0 0 0 -1.404297,-0.1582031 1,1 0 0 0 -0.158203,1.40625 c 0.805329,1.0095097 1.353879,2.1990111 1.599609,3.4667969 a 1.0001,1.0001 0 0 0 0.544922,0.708984 c 0.811983,0.393262 0.811983,1.40752 0,1.800782 a 1.0001,1.0001 0 0 0 -0.541015,0.689453 C 18.900842,17.887355 15.485436,19.914063 12,19.914062 c -3.4854358,0 -6.900842,-2.026707 -7.8222656,-6.324218 A 1.0001,1.0001 0 0 0 3.6367188,12.900391 c -0.8119831,-0.393262 -0.8119831,-1.40752 0,-1.800782 A 1.0001,1.0001 0 0 0 4.1796875,10.400391 C 4.9398403,6.6763784 8.1993938,4.0085986 12,4 12.816666,4 13.493401,4.2328267 13.916016,4.5371094 14.33863,4.8413921 14.5,5.1571432 14.5,5.5 14.5,6.4714276 13.933333,7 13.5,7 13.266667,7 13.059511,6.9274303 12.986328,6.8808594 12.913145,6.8342885 13,6.9111112 13,7 A 1,1 0 0 0 12,6 1,1 0 0 0 11,7 c 0,0.6888882 0.437246,1.2649306 0.914063,1.5683594 C 12.390879,8.8717881 12.933334,9 13.5,9 c 1.766665,0 3,-1.6714304 3,-3.5 C 16.5,4.4428582 15.911368,3.5097789 15.083984,2.9140625 14.2566,2.3183461 13.183332,2 12,2 a 1.0001,1.0001 0 0 0 -0.002,0 z"
     id="path8" />
</svg>
