<?xml version="1.0" encoding="UTF-8" standalone="no"?>
<svg
   width="24"
   height="24"
   viewBox="0 0 24 24"
   fill="none"
   stroke="currentColor"
   stroke-width="2"
   stroke-linecap="round"
   stroke-linejoin="round"
   version="1.1"
   id="svg12"
   xmlns="http://www.w3.org/2000/svg"
   xmlns:svg="http://www.w3.org/2000/svg">
  <defs
     id="defs16" />
  <path
     style="color:#000000;fill:#000000;-inkscape-stroke:none"
     d="M 8,5 C 5.2504236,5 3,7.2504236 3,10 v 10 c 0,1.645008 1.354992,3 3,3 h 12 c 1.645008,0 3,-1.354992 3,-3 V 10 C 21,7.2504236 18.749576,5 16,5 Z m 0,2 h 8 c 1.668697,0 3,1.3313028 3,3 v 10 c 0,0.564129 -0.435871,1 -1,1 H 6 C 5.4358712,21 5,20.564129 5,20 V 10 C 5,8.3313028 6.3313028,7 8,7 Z"
     id="path2" />
  <path
     style="color:#000000;fill:#000000;-inkscape-stroke:none"
     d="M 11,1 C 9.354992,1 8,2.354992 8,4 V 6 A 1,1 0 0 0 9,7 1,1 0 0 0 10,6 V 4 c 0,-0.5641288 0.435871,-1 1,-1 h 2 c 0.564129,0 1,0.4358712 1,1 v 2 a 1,1 0 0 0 1,1 1,1 0 0 0 1,-1 V 4 C 16,2.354992 14.645008,1 13,1 Z"
     id="path4" />
  <path
     style="color:#000000;fill:#000000;-inkscape-stroke:none"
     d="m 10,13 c -1.645008,0 -3,1.354992 -3,3 v 5 a 1,1 0 0 0 1,1 1,1 0 0 0 1,-1 v -5 c 0,-0.564129 0.4358712,-1 1,-1 h 4 c 0.564129,0 1,0.435871 1,1 v 5 a 1,1 0 0 0 1,1 1,1 0 0 0 1,-1 v -5 c 0,-1.645008 -1.354992,-3 -3,-3 z"
     id="path6" />
  <path
     style="color:#000000;fill:#000000;-inkscape-stroke:none"
     d="m 8,9 a 1,1 0 0 0 -1,1 1,1 0 0 0 1,1 h 8 a 1,1 0 0 0 1,-1 1,1 0 0 0 -1,-1 z"
     id="path8" />
  <path
     style="color:#000000;fill:#000000;-inkscape-stroke:none"
     d="m 8,17 a 1,1 0 0 0 -1,1 1,1 0 0 0 1,1 h 8 a 1,1 0 0 0 1,-1 1,1 0 0 0 -1,-1 z"
     id="path10" />
</svg>
