<?xml version="1.0" encoding="UTF-8" standalone="no"?>
<svg
   width="24"
   height="24"
   viewBox="0 0 24 24"
   fill="none"
   stroke="currentColor"
   stroke-width="2"
   stroke-linecap="round"
   stroke-linejoin="round"
   version="1.1"
   id="svg12"
   xmlns="http://www.w3.org/2000/svg"
   xmlns:svg="http://www.w3.org/2000/svg">
  <defs
     id="defs16" />
  <path
     style="color:#000000;fill:#000000;-inkscape-stroke:none"
     d="M 2,4 A 1,1 0 0 0 1,5 1,1 0 0 0 2,6 c 0.5641288,0 1,0.4358712 1,1 v 9 c 0,1.645008 1.354992,3 3,3 h 16 a 1,1 0 0 0 1,-1 1,1 0 0 0 -1,-1 H 6 C 5.4358712,17 5,16.564129 5,16 V 7 C 5,5.354992 3.645008,4 2,4 Z"
     id="path2" />
  <path
     style="color:#000000;fill:#000000;-inkscape-stroke:none"
     d="m 14,1 c -1.645008,0 -3,1.354992 -3,3 v 10 a 1,1 0 0 0 1,1 1,1 0 0 0 1,-1 V 4 c 0,-0.5641288 0.435871,-1 1,-1 h 1 c 0.564129,0 1,0.4358712 1,1 v 10 a 1,1 0 0 0 1,1 1,1 0 0 0 1,-1 V 4 C 18,2.354992 16.645008,1 15,1 Z"
     id="path4" />
  <path
     style="color:#000000;fill:#000000;-inkscape-stroke:none"
     d="M 9,5 C 7.9092983,5 7,5.9092983 7,7 v 6 c 0,1.090702 0.9092983,2 2,2 h 11 c 1.090702,0 2,-0.909298 2,-2 V 7 C 22,5.9092983 21.090702,5 20,5 Z m 0,2 h 11 v 6 H 9 Z"
     id="rect6" />
  <path
     style="color:#000000;fill:#000000;-inkscape-stroke:none"
     d="m 18,17 c -1.645008,0 -3,1.354992 -3,3 0,1.645008 1.354992,3 3,3 1.645008,0 3,-1.354992 3,-3 0,-1.645008 -1.354992,-3 -3,-3 z m 0,2 c 0.564129,0 1,0.435871 1,1 0,0.564129 -0.435871,1 -1,1 -0.564129,0 -1,-0.435871 -1,-1 0,-0.564129 0.435871,-1 1,-1 z"
     id="circle8" />
  <path
     style="color:#000000;fill:#000000;-inkscape-stroke:none"
     d="m 9,17 c -1.645008,0 -3,1.354992 -3,3 0,1.645008 1.354992,3 3,3 1.645008,0 3,-1.354992 3,-3 0,-1.645008 -1.354992,-3 -3,-3 z m 0,2 c 0.5641288,0 1,0.435871 1,1 0,0.564129 -0.4358712,1 -1,1 -0.5641288,0 -1,-0.435871 -1,-1 0,-0.564129 0.4358712,-1 1,-1 z"
     id="circle10" />
</svg>
