<?xml version="1.0" encoding="UTF-8" standalone="no"?>
<svg
   width="24"
   height="24"
   viewBox="0 0 24 24"
   fill="none"
   stroke="currentColor"
   stroke-width="2"
   stroke-linecap="round"
   stroke-linejoin="round"
   version="1.1"
   id="svg6"
   xmlns="http://www.w3.org/2000/svg"
   xmlns:svg="http://www.w3.org/2000/svg">
  <defs
     id="defs10" />
  <path
     style="color:#000000;fill:#000000;-inkscape-stroke:none"
     d="m 9.6992188,10.759766 c -2.0899181,-0.288265 -4.2850234,0.2795 -6.1953125,1.371093 a 1,1 0 0 0 -0.3730469,1.365235 1,1 0 0 0 1.3652343,0.373047 c 1.5897074,-0.908405 3.3946092,-1.340642 4.9296876,-1.128907 1.5350787,0.211735 2.8138527,0.975362 3.6796877,2.707032 a 1.0001,1.0001 0 0 0 1.349609,0.443359 C 17.521339,14.325141 21.063534,16.540234 21,19.982422 A 1,1 0 0 0 21.982422,21 1,1 0 0 0 23,20.017578 C 23.084176,15.457037 18.513849,12.487734 14.371094,13.9375 13.205363,12.145485 11.545278,11.014394 9.6992188,10.759766 Z"
     id="path2" />
  <path
     style="color:#000000;fill:#000000;-inkscape-stroke:none"
     d="m 13,1 c -0.597222,0 -1.20646,0.2472865 -1.589844,0.6699219 -0.383384,0.4226354 -0.545656,0.9337502 -0.613281,1.4316406 -0.13525,0.9957808 0.07203,2.0574751 0.400391,3.0917969 a 1.0001,1.0001 0 0 0 0.002,0.00391 C 12.672641,10.76041 9.9168361,15.540139 4.8847656,16.925781 a 1.0001,1.0001 0 0 0 -0.00391,0 C 3.9155328,17.194728 3.1234886,17.320391 2.3710938,17.699219 1.9948963,17.888633 1.6132089,18.176757 1.3574219,18.591797 1.1016348,19.006837 1,19.498334 1,20 c 0,0.759166 0.3581023,1.475892 0.8730469,1.916016 0.5149446,0.440123 1.1257158,0.662388 1.7558594,0.808593 C 4.8891933,23.017019 6.3097668,23 7.5097656,23 10.94623,23 13.873884,21.468634 15.878906,19.080078 17.883928,16.691522 19,13.465381 19,10 19,8.5126682 18.528274,6.4585032 17.601562,4.6132812 17.138207,3.6906703 16.558168,2.8269951 15.806641,2.1542969 15.055114,1.4815987 14.089678,1 13,1 Z m 0,2 c 0.52032,0 0.98481,0.2059024 1.472656,0.6425781 0.487847,0.4366757 0.957654,1.1042533 1.341797,1.8691406 C 16.58274,7.0414934 17,8.9873343 17,10 17,13.034612 16.01513,15.808482 14.347656,17.794922 12.680182,19.781362 10.363295,21 7.5097656,21 6.3097668,21 4.9747889,20.98298 4.0800781,20.775391 3.6327227,20.671596 3.3170079,20.51886 3.1738281,20.396484 3.0306484,20.274109 3,20.240833 3,20 c 0,-0.248333 0.039772,-0.325665 0.060547,-0.359375 0.020775,-0.03371 0.050885,-0.07371 0.2109375,-0.154297 C 3.5913205,19.325292 4.3726573,19.144139 5.4160156,18.853516 11.423934,17.199161 14.928137,11.238877 13.101563,5.5820312 12.831489,4.7285261 12.714723,3.8465177 12.779297,3.3710938 12.811672,3.1327349 12.88026,3.0250986 12.890625,3.0136719 12.90099,3.0022452 12.847222,3 13,3 Z"
     id="path4" />
</svg>
