<?xml version="1.0" encoding="UTF-8" standalone="no"?>
<svg
   width="24"
   height="24"
   viewBox="0 0 24 24"
   fill="none"
   stroke="currentColor"
   stroke-width="2"
   stroke-linecap="round"
   stroke-linejoin="round"
   version="1.1"
   id="svg8"
   xmlns="http://www.w3.org/2000/svg"
   xmlns:svg="http://www.w3.org/2000/svg">
  <defs
     id="defs12" />
  <path
     style="color:#000000;fill:#000000;-inkscape-stroke:none"
     d="M 3,2 A 1,1 0 0 0 2,3 v 18 a 1.0001,1.0001 0 0 0 1,1 h 18 a 1,1 0 0 0 1,-1 1,1 0 0 0 -1,-1 H 4 V 3 A 1,1 0 0 0 3,2 Z"
     id="path2" />
  <path
     style="color:#000000;fill:#000000;-inkscape-stroke:none"
     d="M 8,4 C 6.9092983,4 6,4.9092983 6,6 v 2 c 0,1.0907017 0.9092983,2 2,2 h 10 c 1.090702,0 2,-0.9092983 2,-2 V 6 C 20,4.9092983 19.090702,4 18,4 Z M 8,6 H 18 V 8 H 8 Z"
     id="rect4" />
  <path
     style="color:#000000;fill:#000000;-inkscape-stroke:none"
     d="m 8,12 c -1.0907017,0 -2,0.909298 -2,2 v 2 c 0,1.090702 0.9092983,2 2,2 h 5 c 1.090702,0 2,-0.909298 2,-2 v -2 c 0,-1.090702 -0.909298,-2 -2,-2 z m 0,2 h 5 v 2 H 8 Z"
     id="rect6" />
</svg>
