<?xml version="1.0" encoding="UTF-8" standalone="no"?>
<svg
   width="24"
   height="24"
   viewBox="0 0 24 24"
   fill="none"
   stroke="currentColor"
   stroke-width="2"
   stroke-linecap="round"
   stroke-linejoin="round"
   version="1.1"
   id="svg12"
   xmlns="http://www.w3.org/2000/svg"
   xmlns:svg="http://www.w3.org/2000/svg">
  <defs
     id="defs16" />
  <path
     style="color:#000000;fill:#000000;-inkscape-stroke:none"
     d="M 5.5,2 C 4.1256778,2 3,3.1256778 3,4.5 V 17 c 0,1.645008 1.354992,3 3,3 h 12 c 1.645008,0 3,-1.354992 3,-3 v -5 a 1,1 0 0 0 -1,-1 1,1 0 0 0 -1,1 v 5 c 0,0.564129 -0.435871,1 -1,1 H 6 C 5.4358712,18 5,17.564129 5,17 V 4.5 C 5,4.2535105 5.2305265,4.0480181 5.4746094,4.0253906 5.5780509,4.0476916 5.680868,4.083868 5.7519531,4.1640625 a 1.0001,1.0001 0 0 0 0.041016,0.042969 l 2.5000001,2.5 a 1,1 0 0 0 1.4140625,0 1,1 0 0 0 0,-1.4140625 L 7.2480469,2.8359375 C 6.820862,2.3540101 6.2238841,2.0564977 5.5820312,2.0039063 A 1.0001,1.0001 0 0 0 5.5,2 Z"
     id="path2" />
  <path
     style="color:#000000;fill:#000000;-inkscape-stroke:none"
     d="M 10,4 A 1,1 0 0 0 9.2929688,4.2929687 l -2.0000001,2 a 1,1 0 0 0 0,1.4140625 1,1 0 0 0 1.4140626,0 l 1.9999997,-2 a 1,1 0 0 0 0,-1.4140625 A 1,1 0 0 0 10,4 Z"
     id="line4" />
  <path
     style="color:#000000;fill:#000000;-inkscape-stroke:none"
     d="m 2,11 a 1,1 0 0 0 -1,1 1,1 0 0 0 1,1 h 20 a 1,1 0 0 0 1,-1 1,1 0 0 0 -1,-1 z"
     id="line6" />
  <path
     style="color:#000000;fill:#000000;-inkscape-stroke:none"
     d="m 7,18 a 1,1 0 0 0 -1,1 v 2 a 1,1 0 0 0 1,1 1,1 0 0 0 1,-1 V 19 A 1,1 0 0 0 7,18 Z"
     id="line8" />
  <path
     style="color:#000000;fill:#000000;-inkscape-stroke:none"
     d="m 17,18 a 1,1 0 0 0 -1,1 v 2 a 1,1 0 0 0 1,1 1,1 0 0 0 1,-1 v -2 a 1,1 0 0 0 -1,-1 z"
     id="line10" />
</svg>
