<?xml version="1.0" encoding="UTF-8" standalone="no"?>
<svg
   width="24"
   height="24"
   viewBox="0 0 24 24"
   fill="none"
   stroke="currentColor"
   stroke-width="2"
   stroke-linecap="round"
   stroke-linejoin="round"
   version="1.1"
   id="svg10"
   xmlns="http://www.w3.org/2000/svg"
   xmlns:svg="http://www.w3.org/2000/svg">
  <defs
     id="defs14" />
  <path
     style="color:#000000;fill:#000000;-inkscape-stroke:none"
     d="m 15,6 a 1,1 0 0 0 -1,1 1,1 0 0 0 1,1 h 1 c 0.564129,0 1,0.4358712 1,1 v 6 c 0,0.564129 -0.435871,1 -1,1 h -2 a 1,1 0 0 0 -1,1 1,1 0 0 0 1,1 h 2 c 1.645008,0 3,-1.354992 3,-3 V 9 C 19,7.354992 17.645008,6 16,6 Z"
     id="path2" />
  <path
     style="color:#000000;fill:#000000;-inkscape-stroke:none"
     d="M 4,6 C 2.354992,6 1,7.354992 1,9 v 6 c 0,1.645008 1.354992,3 3,3 H 5 A 1,1 0 0 0 6,17 1,1 0 0 0 5,16 H 4 C 3.4358712,16 3,15.564129 3,15 V 9 C 3,8.4358712 3.4358712,8 4,8 H 6 A 1,1 0 0 0 7,7 1,1 0 0 0 6,6 Z"
     id="path4" />
  <path
     style="color:#000000;fill:#000000;-inkscape-stroke:none"
     d="m 11.513672,6.1425781 a 1,1 0 0 0 -1.371094,0.34375 L 7.1425781,11.486328 A 1.0001,1.0001 0 0 0 8,13 h 2.234375 l -2.0917969,3.486328 a 1,1 0 0 0 0.34375,1.371094 1,1 0 0 0 1.3710938,-0.34375 l 3.0000001,-5 A 1.0001,1.0001 0 0 0 12,11 H 9.765625 l 2.091797,-3.4863281 a 1,1 0 0 0 -0.34375,-1.3710938 z"
     id="path6" />
  <path
     style="color:#000000;fill:#000000;-inkscape-stroke:none"
     d="m 22,10 a 1,1 0 0 0 -1,1 v 2 a 1,1 0 0 0 1,1 1,1 0 0 0 1,-1 v -2 a 1,1 0 0 0 -1,-1 z"
     id="line8" />
</svg>
