<?xml version="1.0" encoding="UTF-8" standalone="no"?>
<svg
   width="24"
   height="24"
   viewBox="0 0 24 24"
   fill="none"
   stroke="currentColor"
   stroke-width="2"
   stroke-linecap="round"
   stroke-linejoin="round"
   version="1.1"
   id="svg8"
   xmlns="http://www.w3.org/2000/svg"
   xmlns:svg="http://www.w3.org/2000/svg">
  <defs
     id="defs12" />
  <path
     style="color:#000000;fill:#000000;-inkscape-stroke:none"
     d="m 4.5,2 a 1,1 0 0 0 -1,1 1,1 0 0 0 1,1 h 15 a 1,1 0 0 0 1,-1 1,1 0 0 0 -1,-1 z"
     id="path2" />
  <path
     style="color:#000000;fill:#000000;-inkscape-stroke:none"
     d="M 6,2 A 1,1 0 0 0 5,3 v 16 c 0,1.645008 1.354992,3 3,3 h 8 c 1.645008,0 3,-1.354992 3,-3 V 3 A 1,1 0 0 0 18,2 1,1 0 0 0 17,3 v 16 c 0,0.564129 -0.435871,1 -1,1 H 8 C 7.4358712,20 7,19.564129 7,19 V 3 A 1,1 0 0 0 6,2 Z"
     id="path4" />
  <path
     style="color:#000000;fill:#000000;-inkscape-stroke:none"
     d="m 6,13 a 1,1 0 0 0 -1,1 1,1 0 0 0 1,1 h 12 a 1,1 0 0 0 1,-1 1,1 0 0 0 -1,-1 z"
     id="path6" />
</svg>
