<?xml version="1.0" encoding="UTF-8" standalone="no"?>
<svg
   width="24"
   height="24"
   viewBox="0 0 24 24"
   fill="none"
   stroke="currentColor"
   stroke-width="2"
   stroke-linecap="round"
   stroke-linejoin="round"
   version="1.1"
   id="svg6"
   xmlns="http://www.w3.org/2000/svg"
   xmlns:svg="http://www.w3.org/2000/svg">
  <defs
     id="defs10" />
  <path
     style="color:#000000;fill:#000000;-inkscape-stroke:none"
     d="M 16.824219,1.0449219 C 13.649995,0.66889639 10.132903,2.4420895 9.1933594,6.3652344 8.9994842,7.1738133 8.7237826,7.8621549 8.2929688,8.2929688 7.8617867,8.7241508 7.1745474,8.9995284 6.3652344,9.1933594 2.4420895,10.132903 0.66889639,13.649995 1.0449219,16.824219 1.4209474,19.998442 3.9659203,23.003086 8,23 16.27243,23 23,16.27243 23,8 23.003086,3.9659203 19.998442,1.4209474 16.824219,1.0449219 Z m -0.236328,1.984375 C 18.918323,3.305365 21.002356,4.9203724 21,8 21,15.191555 15.191555,21 8,21 4.9203724,21.002356 3.305365,18.918323 3.0292969,16.587891 2.7532288,14.257458 3.8351385,11.853969 6.8300781,11.136719 7.7827633,10.90855 8.8582146,10.555848 9.7070313,9.7070313 10.556216,8.8578463 10.908594,7.7834506 11.136719,6.8320312 a 1.0001,1.0001 0 0 0 0,-0.00195 c 0.71725,-2.9949396 3.120739,-4.0768493 5.451172,-3.8007812 z"
     id="path2" />
  <path
     style="color:#000000;fill:#000000;-inkscape-stroke:none"
     d="M 11.025391,4.4257812 A 1,1 0 0 0 9.7070313,4.9335937 1,1 0 0 0 10.214844,6.2539062 c 1.954474,0.8680881 2.414392,3.3509467 0.902344,4.8632818 -1.5120487,1.512334 -3.9948235,1.051966 -4.8632818,-0.902344 A 1,1 0 0 0 4.9355469,9.7070313 1,1 0 0 0 4.4277344,11.025391 c 1.4116437,3.176652 5.6457356,3.964104 8.1035156,1.505859 2.45778,-2.458245 1.67106,-6.6944268 -1.505859,-8.1054688 z"
     id="path4" />
</svg>
