<?xml version="1.0" encoding="UTF-8" standalone="no"?>
<svg
   width="24"
   height="24"
   viewBox="0 0 24 24"
   fill="none"
   stroke="currentColor"
   stroke-width="2"
   stroke-linecap="round"
   stroke-linejoin="round"
   version="1.1"
   id="svg10"
   xmlns="http://www.w3.org/2000/svg"
   xmlns:svg="http://www.w3.org/2000/svg">
  <defs
     id="defs14" />
  <path
     style="color:#000000;fill:#000000;-inkscape-stroke:none"
     d="M 9,8 A 1,1 0 0 0 8.2929688,8.2929688 C 7.8617867,8.7241508 7.1745474,8.9995284 6.3652344,9.1933594 2.4420895,10.132903 0.66889639,13.649995 1.0449219,16.824219 1.4209474,19.998442 3.9659203,23.003086 8,23 c 3.978954,0.0045 7.797035,-1.577751 10.607422,-4.394531 a 1,1 0 0 0 -0.002,-1.414063 1,1 0 0 0 -1.414063,0.002 C 14.755825,19.634481 11.450302,21.004343 8.0019531,21 A 1.0001,1.0001 0 0 0 8,21 C 4.9203724,21.002356 3.305365,18.918323 3.0292969,16.587891 2.7532288,14.257458 3.8351385,11.853969 6.8300781,11.136719 7.7827633,10.90855 8.8582146,10.555848 9.7070313,9.7070313 a 1,1 0 0 0 0,-1.4140625 A 1,1 0 0 0 9,8 Z"
     id="path2" />
  <path
     style="color:#000000;fill:#000000;-inkscape-stroke:none"
     d="M 15.570313,1.0058594 C 13.360208,1.1297711 11.161369,2.284401 9.875,4.609375 A 1,1 0 0 0 10.265625,5.96875 1,1 0 0 0 11.625,5.5761719 C 12.910422,3.2529092 15.19692,2.6257341 17.25,3.15625 19.30308,3.6867659 21.001002,5.3448431 21,8 c 0,2.242326 -0.566336,4.345379 -1.5625,6.183594 a 1,1 0 0 0 0.402344,1.355469 1,1 0 0 0 1.355468,-0.402344 C 22.345147,13.014937 23,10.579669 23,8 23.001336,4.457183 20.574307,1.9499993 17.751953,1.2207031 17.046365,1.0383791 16.307014,0.96455546 15.570313,1.0058594 Z"
     id="path4" />
  <path
     style="color:#000000;fill:#000000;-inkscape-stroke:none"
     d="M 11.025391,4.4277344 A 1,1 0 0 0 9.7070313,4.9355469 1,1 0 0 0 10.212891,6.2539062 c 0.682764,0.3034671 1.228117,0.8502905 1.53125,1.5332032 a 1,1 0 0 0 1.320312,0.5078125 1,1 0 0 0 0.507813,-1.3203125 C 13.068349,5.8393581 12.160395,4.9322079 11.025391,4.4277344 Z M 5.7011719,9.6875 a 1,1 0 0 0 -0.765625,0.017578 1,1 0 0 0 -0.5097657,1.3203129 c 1.40867,3.181605 5.6498938,3.971049 8.1093748,1.509765 a 1,1 0 0 0 0,-1.414062 1,1 0 0 0 -1.414062,0 C 9.6078883,12.635409 7.1225492,12.172339 6.2558594,10.214844 A 1,1 0 0 0 5.7011719,9.6875 Z"
     id="path6" />
  <path
     style="color:#000000;fill:#000000;-inkscape-stroke:none"
     d="m 2,1 a 1,1 0 0 0 -0.7070313,0.2929687 1,1 0 0 0 0,1.4140626 L 21.292969,22.707031 a 1,1 0 0 0 1.414062,0 1,1 0 0 0 0,-1.414062 L 2.7070313,1.2929687 A 1,1 0 0 0 2,1 Z"
     id="line8" />
</svg>
