<?xml version="1.0" encoding="UTF-8" standalone="no"?>
<svg
   width="24"
   height="24"
   viewBox="0 0 24 24"
   fill="none"
   stroke="currentColor"
   stroke-width="2"
   stroke-linecap="round"
   stroke-linejoin="round"
   version="1.1"
   id="svg10"
   xmlns="http://www.w3.org/2000/svg"
   xmlns:svg="http://www.w3.org/2000/svg">
  <defs
     id="defs14" />
  <path
     style="color:#000000;fill:#000000;-inkscape-stroke:none"
     d="M 4,9 C 2.354992,9 1,10.354992 1,12 v 8 a 1,1 0 0 0 1,1 1,1 0 0 0 1,-1 v -8 c 0,-0.564129 0.4358712,-1 1,-1 h 16 c 0.564129,0 1,0.435871 1,1 v 8 a 1,1 0 0 0 1,1 1,1 0 0 0 1,-1 V 12 C 23,10.354992 21.645008,9 20,9 Z"
     id="path2" />
  <path
     style="color:#000000;fill:#000000;-inkscape-stroke:none"
     d="M 6,3 C 4.354992,3 3,4.354992 3,6 v 4 a 1,1 0 0 0 1,1 1,1 0 0 0 1,-1 V 6 C 5,5.4358712 5.4358712,5 6,5 h 12 c 0.564129,0 1,0.4358712 1,1 v 4 a 1,1 0 0 0 1,1 1,1 0 0 0 1,-1 V 6 C 21,4.354992 19.645008,3 18,3 Z"
     id="path4" />
  <path
     style="color:#000000;fill:#000000;-inkscape-stroke:none"
     d="m 12,3 a 1,1 0 0 0 -1,1 v 6 a 1,1 0 0 0 1,1 1,1 0 0 0 1,-1 V 4 A 1,1 0 0 0 12,3 Z"
     id="path6" />
  <path
     style="color:#000000;fill:#000000;-inkscape-stroke:none"
     d="m 2,17 a 1,1 0 0 0 -1,1 1,1 0 0 0 1,1 h 20 a 1,1 0 0 0 1,-1 1,1 0 0 0 -1,-1 z"
     id="path8" />
</svg>
