<?xml version="1.0" encoding="UTF-8" standalone="no"?>
<svg
   width="24"
   height="24"
   viewBox="0 0 24 24"
   fill="none"
   stroke="currentColor"
   stroke-width="2"
   stroke-linecap="round"
   stroke-linejoin="round"
   version="1.1"
   id="svg8"
   xmlns="http://www.w3.org/2000/svg"
   xmlns:svg="http://www.w3.org/2000/svg">
  <defs
     id="defs12" />
  <path
     style="color:#000000;fill:#000000;-inkscape-stroke:none"
     d="M 5,9 C 3.354992,9 2,10.354992 2,12 v 8 a 1,1 0 0 0 1,1 1,1 0 0 0 1,-1 v -8 c 0,-0.564129 0.4358712,-1 1,-1 h 14 c 0.564129,0 1,0.435871 1,1 v 8 a 1,1 0 0 0 1,1 1,1 0 0 0 1,-1 V 12 C 22,10.354992 20.645008,9 19,9 Z"
     id="path2" />
  <path
     style="color:#000000;fill:#000000;-inkscape-stroke:none"
     d="M 7,3 C 5.354992,3 4,4.354992 4,6 v 4 a 1,1 0 0 0 1,1 1,1 0 0 0 1,-1 V 6 C 6,5.4358712 6.4358712,5 7,5 h 10 c 0.564129,0 1,0.4358712 1,1 v 4 a 1,1 0 0 0 1,1 1,1 0 0 0 1,-1 V 6 C 20,4.354992 18.645008,3 17,3 Z"
     id="path4" />
  <path
     style="color:#000000;fill:#000000;-inkscape-stroke:none"
     d="m 3,17 a 1,1 0 0 0 -1,1 1,1 0 0 0 1,1 h 18 a 1,1 0 0 0 1,-1 1,1 0 0 0 -1,-1 z"
     id="path6" />
</svg>
