<?xml version="1.0" encoding="UTF-8" standalone="no"?>
<svg
   width="24"
   height="24"
   viewBox="0 0 24 24"
   fill="none"
   stroke="currentColor"
   stroke-width="2"
   stroke-linecap="round"
   stroke-linejoin="round"
   version="1.1"
   id="svg10"
   xmlns="http://www.w3.org/2000/svg"
   xmlns:svg="http://www.w3.org/2000/svg">
  <defs
     id="defs14" />
  <path
     style="color:#000000;fill:#000000;-inkscape-stroke:none"
     d="M 2,3 A 1,1 0 0 0 1,4 v 16 a 1,1 0 0 0 1,1 1,1 0 0 0 1,-1 V 4 A 1,1 0 0 0 2,3 Z"
     id="path2" />
  <path
     style="color:#000000;fill:#000000;-inkscape-stroke:none"
     d="M 2,7 A 1,1 0 0 0 1,8 1,1 0 0 0 2,9 h 18 c 0.564129,0 1,0.4358712 1,1 v 10 a 1,1 0 0 0 1,1 1,1 0 0 0 1,-1 V 10 C 23,8.354992 21.645008,7 20,7 Z"
     id="path4" />
  <path
     style="color:#000000;fill:#000000;-inkscape-stroke:none"
     d="m 2,16 a 1,1 0 0 0 -1,1 1,1 0 0 0 1,1 h 20 a 1,1 0 0 0 1,-1 1,1 0 0 0 -1,-1 z"
     id="path6" />
  <path
     style="color:#000000;fill:#000000;-inkscape-stroke:none"
     d="M 6,7 A 1,1 0 0 0 5,8 v 9 a 1,1 0 0 0 1,1 1,1 0 0 0 1,-1 V 8 A 1,1 0 0 0 6,7 Z"
     id="path8" />
</svg>
