<?xml version="1.0" encoding="UTF-8" standalone="no"?>
<svg
   width="24"
   height="24"
   viewBox="0 0 24 24"
   fill="none"
   stroke="currentColor"
   stroke-width="2"
   stroke-linecap="round"
   stroke-linejoin="round"
   version="1.1"
   id="svg8"
   xmlns="http://www.w3.org/2000/svg"
   xmlns:svg="http://www.w3.org/2000/svg">
  <defs
     id="defs12" />
  <path
     style="color:#000000;fill:#000000;-inkscape-stroke:none"
     d="M 12.5,5 C 10.57885,5 9,6.5788499 9,8.5 9,10.42115 10.57885,12 12.5,12 14.42115,12 16,10.42115 16,8.5 16,6.5788499 14.42115,5 12.5,5 Z m 0,2 C 13.340271,7 14,7.6597291 14,8.5 14,9.3402709 13.340271,10 12.5,10 11.659729,10 11,9.3402709 11,8.5 11,7.6597291 11.659729,7 12.5,7 Z"
     id="circle2" />
  <path
     style="color:#000000;fill:#000000;-inkscape-stroke:none"
     d="M 12.5,1 C 9.2048924,0.99802723 6.2874036,3.1574015 5.3242187,6.3085937 l 0.011719,-0.041016 C 4.7673764,7.8853929 4.5572304,8.884835 4.2539062,9.6113281 3.9505821,10.337821 3.5679847,10.903726 2.4277344,11.939453 l 0.039063,-0.0332 C 1.0544403,13.064137 0.7126582,14.884896 1.234375,16.345703 1.7560918,17.80651 3.1736778,18.998784 5,19 9.2863311,19 13.821254,17.135502 17.007812,14.492188 19.838129,12.363106 20.553654,8.9441659 19.615234,6.1289062 18.675781,3.3105456 16.047628,1 12.5,1 Z m 0,2 c 2.698945,0 4.518581,1.6670712 5.216797,3.7617187 0.698216,2.0946476 0.243141,4.5193043 -1.916016,6.1386723 a 1.0001,1.0001 0 0 0 -0.04101,0.03125 C 12.947836,15.274916 8.6999963,17 5,17 4.0094421,16.99934 3.3878,16.424121 3.1191406,15.671875 2.8504813,14.919629 2.9683432,14.081138 3.734375,13.453125 a 1.0001,1.0001 0 0 0 0.037109,-0.0332 C 5.0312317,12.275651 5.6879342,11.366865 6.0996094,10.380859 6.5112845,9.3948542 6.6912184,8.4438227 7.2226562,6.9316406 a 1.0001,1.0001 0 0 0 0.013672,-0.039063 C 7.9448118,4.574676 10.076239,2.9985489 12.5,3 Z"
     id="path4" />
  <path
     style="color:#000000;fill:#000000;-inkscape-stroke:none"
     d="M 18.826172,5.0546875 A 1,1 0 0 0 18.0625,5.1015625 1,1 0 0 0 17.601562,6.4375 l 2.142579,4.402344 C 19.912375,11.376017 20.001703,11.934006 20,12.496094 A 1.0001,1.0001 0 0 0 20,12.5 c 0.0013,1.731877 -0.812916,3.362332 -2.199219,4.400391 a 1.0001,1.0001 0 0 0 -0.04102,0.03125 C 14.948312,19.274518 10.701508,20.999415 7.0019531,21 6.2428495,20.998962 5.5539097,20.571749 5.2148437,19.892578 L 3.2949219,16.052734 A 1,1 0 0 0 1.953125,15.605469 1,1 0 0 0 1.5058594,16.947266 l 1.9199219,3.839843 C 4.1010923,22.139802 5.4861546,22.997932 6.9980469,23 A 1.0001,1.0001 0 0 0 7,23 c 4.285417,0 8.819405,-1.863442 12.005859,-4.505859 C 20.890354,17.079709 22.000589,14.860336 22,12.503906 v -0.002 c 0.0022,-0.78288 -0.11816,-1.561206 -0.357422,-2.30664 A 1.0001,1.0001 0 0 0 21.589844,10.0625 l -2.191407,-4.5 A 1,1 0 0 0 18.826172,5.0546875 Z"
     id="path6" />
</svg>
