<?xml version="1.0" encoding="UTF-8" standalone="no"?>
<svg
   width="24"
   height="24"
   viewBox="0 0 24 24"
   fill="none"
   stroke="currentColor"
   stroke-width="2"
   stroke-linecap="round"
   stroke-linejoin="round"
   version="1.1"
   id="svg12"
   xmlns="http://www.w3.org/2000/svg"
   xmlns:svg="http://www.w3.org/2000/svg">
  <defs
     id="defs16" />
  <path
     style="color:#000000;fill:#000000;-inkscape-stroke:none"
     d="m 17,10 a 1,1 0 0 0 -1,1 1,1 0 0 0 1,1 h 1 c 0.749999,0 1.185226,0.245245 1.501953,0.601563 C 19.81868,12.95788 20,13.472223 20,14 20,14.527777 19.81868,15.04212 19.501953,15.398438 19.185226,15.754755 18.749999,16 18,16 h -1 a 1,1 0 0 0 -1,1 1,1 0 0 0 1,1 h 1 c 1.249998,0 2.314775,-0.504756 2.998047,-1.273438 C 21.681319,15.957881 22,14.972221 22,14 22,13.027779 21.681319,12.042119 20.998047,11.273438 20.314775,10.504756 19.249998,10 18,10 Z"
     id="path2" />
  <path
     style="color:#000000;fill:#000000;-inkscape-stroke:none"
     d="m 9,11 a 1,1 0 0 0 -1,1 v 6 a 1,1 0 0 0 1,1 1,1 0 0 0 1,-1 V 12 A 1,1 0 0 0 9,11 Z"
     id="path4" />
  <path
     style="color:#000000;fill:#000000;-inkscape-stroke:none"
     d="m 13,11 a 1,1 0 0 0 -1,1 v 6 a 1,1 0 0 0 1,1 1,1 0 0 0 1,-1 v -6 a 1,1 0 0 0 -1,-1 z"
     id="path6" />
  <path
     style="color:#000000;fill:#000000;-inkscape-stroke:none"
     d="M 11,1 C 9.8994883,1 9.0969564,1.5768368 8.6132813,1.9902344 8.3714437,2.1969331 8.1855773,2.3648524 8.0722656,2.4433594 7.9589539,2.5218663 7.9636828,2.5 8,2.5 7.4284235,2.5 6.7073492,2 5.5,2 4.416668,2 3.4768917,2.4422563 2.8769531,3.1171875 2.2770145,3.7921187 2,4.6527787 2,5.5 2,6.3472213 2.2770145,7.2078813 2.8769531,7.8828125 3.4768917,8.5577437 4.416668,9 5.5,9 6.7073492,9 7.333334,8.5 8,8.5 8.333333,8.5 8.5537853,8.5778173 9.0117188,8.7109375 9.4696522,8.8440577 10.113163,9 11,9 11.886837,9 12.530348,8.8440577 12.988281,8.7109375 13.446215,8.5778173 13.666667,8.5 14,8.5 14.666666,8.5 15.292651,9 16.5,9 17.583332,9 18.523108,8.5577437 19.123047,7.8828125 19.722985,7.2078813 20,6.3472213 20,5.5 20,4.6527787 19.722985,3.7921187 19.123047,3.1171875 18.523108,2.4422563 17.583332,2 16.5,2 15.292651,2 14.666666,2.5 14,2.5 14,2.5 13.837703,2.4064273 13.367188,1.9960937 12.896672,1.5857602 12.100512,1 11,1 Z m 0,2 c 0.459487,0 0.663251,0.1642406 1.052734,0.5039063 C 12.442218,3.8435719 13.000001,4.5 14,4.5 15.333332,4.5 16.147351,4 16.5,4 17.083332,4 17.39356,4.1827447 17.626953,4.4453125 17.860347,4.7078803 18,5.0972225 18,5.5 18,5.9027775 17.860347,6.2921197 17.626953,6.5546875 17.39356,6.8172553 17.083332,7 16.5,7 16.147351,7 15.333332,6.5 14,6.5 13.333334,6.5 12.833706,6.672183 12.431641,6.7890625 12.029575,6.905942 11.673162,7 11,7 10.326838,7 9.970425,6.905942 9.5683594,6.7890625 9.1662937,6.672183 8.666666,6.5 8,6.5 6.666668,6.5 5.8526492,7 5.5,7 4.9166677,7 4.6064404,6.8172553 4.3730469,6.5546875 4.1396534,6.2921197 4,5.9027775 4,5.5 4,5.0972225 4.1396534,4.7078803 4.3730469,4.4453125 4.6064404,4.1827447 4.9166677,4 5.5,4 5.8526492,4 6.7115783,4.5 8,4.5 8.5013167,4.5 8.9183121,4.2906334 9.2109375,4.0878906 9.5035629,3.8851479 9.7171505,3.6780665 9.9140625,3.5097656 10.307887,3.1731639 10.540513,3 11,3 Z"
     id="path8" />
  <path
     style="color:#000000;fill:#000000;-inkscape-stroke:none"
     d="M 5,7 A 1,1 0 0 0 4,8 v 12 c 0,1.645008 1.354992,3 3,3 h 8 c 1.645008,0 3,-1.354992 3,-3 V 8 A 1,1 0 0 0 17,7 1,1 0 0 0 16,8 v 12 c 0,0.564129 -0.435871,1 -1,1 H 7 C 6.4358712,21 6,20.564129 6,20 V 8 A 1,1 0 0 0 5,7 Z"
     id="path10" />
</svg>
