<?xml version="1.0" encoding="UTF-8" standalone="no"?>
<svg
   width="24"
   height="24"
   viewBox="0 0 24 24"
   fill="none"
   stroke="currentColor"
   stroke-width="2"
   stroke-linecap="round"
   stroke-linejoin="round"
   version="1.1"
   id="svg6"
   xmlns="http://www.w3.org/2000/svg"
   xmlns:svg="http://www.w3.org/2000/svg">
  <defs
     id="defs10" />
  <path
     style="color:#000000;fill:#000000;-inkscape-stroke:none"
     d="M 12,1 C 8.1458563,1 5,4.1458534 5,8 5,11.357139 4.2876458,13.428053 3.6230469,14.646484 2.9584479,15.864916 2.4453125,16.167969 2.4453125,16.167969 A 1.0001,1.0001 0 0 0 3,18 h 18 a 1.0001,1.0001 0 0 0 0.554687,-1.832031 c 0,0 -0.513135,-0.303053 -1.177734,-1.521485 C 19.712354,13.428053 19,11.357139 19,8 19,4.1458534 15.854144,1 12,1 Z m 0,2 c 2.773266,0 5,2.2267318 5,5 0,3.642854 0.787647,6.07195 1.623047,7.603516 0.148631,0.272491 0.172361,0.176073 0.324219,0.396484 H 5.0527344 C 5.2045925,15.779589 5.2283216,15.876007 5.3769531,15.603516 6.2123527,14.07195 7,11.642854 7,8 7,5.2267318 9.2267335,3 12,3 Z"
     id="path2" />
  <path
     style="color:#000000;fill:#000000;-inkscape-stroke:none"
     d="m 13.421875,20.039062 a 1,1 0 0 0 -0.597656,0.478516 c -0.382598,0.695882 -1.26584,0.695882 -1.648438,0 A 1,1 0 0 0 9.8183594,20.123047 1,1 0 0 0 9.4238281,21.482422 c 1.0913639,1.985007 4.0609799,1.985007 5.1523439,0 a 1,1 0 0 0 -0.394531,-1.359375 1,1 0 0 0 -0.759766,-0.08398 z"
     id="path4" />
</svg>
