<?xml version="1.0" encoding="UTF-8" standalone="no"?>
<svg
   width="24"
   height="24"
   viewBox="0 0 24 24"
   fill="none"
   stroke="currentColor"
   stroke-width="2"
   stroke-linecap="round"
   stroke-linejoin="round"
   version="1.1"
   id="svg10"
   xmlns="http://www.w3.org/2000/svg"
   xmlns:svg="http://www.w3.org/2000/svg">
  <defs
     id="defs14" />
  <path
     style="color:#000000;fill:#000000;-inkscape-stroke:none"
     d="M 12,1 C 8.1545493,1 5,4.1545493 5,8 5,11.357139 4.2876458,13.428053 3.6230469,14.646484 2.9584479,15.864916 2.4453125,16.167969 2.4453125,16.167969 A 1.0001,1.0001 0 0 0 3,18 h 18 a 1.0001,1.0001 0 0 0 0.554687,-1.832031 c 0,0 -0.648818,-0.39334 -1.359375,-1.814453 A 1,1 0 0 0 18.853516,13.90625 1,1 0 0 0 18.40625,15.248047 C 18.576954,15.589455 18.745837,15.729086 18.925781,16 H 5.0527344 C 5.2045925,15.779589 5.2283216,15.876007 5.3769531,15.603516 6.2123527,14.07195 7,11.642854 7,8 7,5.2454573 9.2454573,3 12,3 c 0.866666,0 1.562896,0.1566868 2.314453,0.5742188 A 1,1 0 0 0 15.673828,3.1855469 1,1 0 0 0 15.285156,1.8261719 C 14.236715,1.2437048 13.133332,1 12,1 Z"
     id="path2" />
  <path
     style="color:#000000;fill:#000000;-inkscape-stroke:none"
     d="m 13.421875,20.039062 a 1,1 0 0 0 -0.597656,0.478516 c -0.382598,0.695882 -1.26584,0.695882 -1.648438,0 A 1,1 0 0 0 9.8183594,20.123047 1,1 0 0 0 9.4238281,21.482422 c 1.0913639,1.985007 4.0609799,1.985007 5.1523439,0 a 1,1 0 0 0 -0.394531,-1.359375 1,1 0 0 0 -0.759766,-0.08398 z"
     id="path4" />
  <path
     style="color:#000000;fill:#000000;-inkscape-stroke:none"
     d="m 15,7 a 1,1 0 0 0 -1,1 1,1 0 0 0 1,1 h 6 A 1,1 0 0 0 22,8 1,1 0 0 0 21,7 Z"
     id="path6" />
  <path
     style="color:#000000;fill:#000000;-inkscape-stroke:none"
     d="m 18,4 a 1,1 0 0 0 -1,1 v 6 a 1,1 0 0 0 1,1 1,1 0 0 0 1,-1 V 5 A 1,1 0 0 0 18,4 Z"
     id="path8" />
</svg>
