<?xml version="1.0" encoding="UTF-8" standalone="no"?>
<svg
   width="24"
   height="24"
   viewBox="0 0 24 24"
   fill="none"
   stroke="currentColor"
   stroke-width="2"
   stroke-linecap="round"
   stroke-linejoin="round"
   version="1.1"
   id="svg10"
   xmlns="http://www.w3.org/2000/svg"
   xmlns:svg="http://www.w3.org/2000/svg">
  <defs
     id="defs14" />
  <path
     style="color:#000000;fill:#000000;-inkscape-stroke:none"
     d="M 11.785156,1.0214844 C 10.552955,1.0473869 9.3013385,1.4060992 8.1503906,2.1640625 A 1,1 0 0 0 7.8652344,3.5507813 1,1 0 0 0 9.25,3.8359375 c 3.36684,-2.2172514 7.742622,0.1346685 7.75,4.1660156 0.0018,1.7629587 0.21341,3.5210729 0.628906,5.2343749 a 1,1 0 0 0 1.207031,0.736328 1,1 0 0 0 0.736329,-1.208984 C 19.193894,11.203453 19.001507,9.6054423 19,8 a 1.0001,1.0001 0 0 0 0,-0.00195 C 18.992433,3.8637214 15.481759,0.94377668 11.785156,1.0214844 Z"
     id="path2" />
  <path
     style="color:#000000;fill:#000000;-inkscape-stroke:none"
     d="M 6.6523437,5.3652344 A 1,1 0 0 0 5.3652344,5.9472656 C 5.1166133,6.6066515 4.9920921,7.3070631 5,8.0117188 V 8 c 0,3.357139 -0.7123542,5.428053 -1.3769531,6.646484 -0.664599,1.218432 -1.1777344,1.521485 -1.1777344,1.521485 A 1.0001,1.0001 0 0 0 3,18 h 14 a 1,1 0 0 0 1,-1 1,1 0 0 0 -1,-1 H 5.0527344 C 5.2045925,15.779589 5.2283216,15.876007 5.3769531,15.603516 6.2123527,14.07195 7,11.642854 7,8 a 1.0001,1.0001 0 0 0 0,-0.011719 c -0.00512,-0.456115 0.075399,-0.909125 0.2363281,-1.3359375 A 1,1 0 0 0 6.6523437,5.3652344 Z"
     id="path4" />
  <path
     style="color:#000000;fill:#000000;-inkscape-stroke:none"
     d="m 13.421875,20.039062 a 1,1 0 0 0 -0.597656,0.478516 c -0.382598,0.695882 -1.26584,0.695882 -1.648438,0 A 1,1 0 0 0 9.8183594,20.123047 1,1 0 0 0 9.4238281,21.482422 c 1.0913639,1.985007 4.0609799,1.985007 5.1523439,0 a 1,1 0 0 0 -0.394531,-1.359375 1,1 0 0 0 -0.759766,-0.08398 z"
     id="path6" />
  <path
     style="color:#000000;fill:#000000;-inkscape-stroke:none"
     d="m 2,1 a 1,1 0 0 0 -0.7070313,0.2929687 1,1 0 0 0 0,1.4140626 L 21.292969,22.707031 a 1,1 0 0 0 1.414062,0 1,1 0 0 0 0,-1.414062 L 2.7070313,1.2929687 A 1,1 0 0 0 2,1 Z"
     id="path8" />
</svg>
