<?xml version="1.0" encoding="UTF-8" standalone="no"?>
<svg
   width="24"
   height="24"
   viewBox="0 0 24 24"
   fill="none"
   stroke="currentColor"
   stroke-width="2"
   stroke-linecap="round"
   stroke-linejoin="round"
   version="1.1"
   id="svg8"
   xmlns="http://www.w3.org/2000/svg"
   xmlns:svg="http://www.w3.org/2000/svg">
  <defs
     id="defs12" />
  <path
     style="color:#000000;fill:#000000;-inkscape-stroke:none"
     d="M 12,1 C 8.1545493,1 5,4.1545493 5,8 5,11.357139 4.2876458,13.428053 3.6230469,14.646484 2.9584479,15.864916 2.4453125,16.167969 2.4453125,16.167969 A 1.0001,1.0001 0 0 0 3,18 h 18 a 1.0001,1.0001 0 0 0 0.599609,-1.800781 c 0,0 -0.594567,-0.416083 -1.316406,-1.769531 a 1,1 0 0 0 -1.353516,-0.41211 1,1 0 0 0 -0.412109,1.353516 C 18.745046,15.797595 18.781122,15.687992 19.005859,16 H 5.0527344 C 5.2045925,15.779589 5.2283216,15.876007 5.3769531,15.603516 6.2123527,14.07195 7,11.642854 7,8 7,5.2454573 9.2454573,3 12,3 c 0.604761,0 1.078853,0.07967 1.583984,0.2480469 A 1,1 0 0 0 14.849609,2.6171875 1,1 0 0 0 14.216797,1.3515625 C 13.521929,1.11994 12.795237,1 12,1 Z"
     id="path2" />
  <path
     style="color:#000000;fill:#000000;-inkscape-stroke:none"
     d="m 13.421875,20.039062 a 1,1 0 0 0 -0.597656,0.478516 c -0.382598,0.695882 -1.26584,0.695882 -1.648438,0 A 1,1 0 0 0 9.8183594,20.123047 1,1 0 0 0 9.4238281,21.482422 c 1.0913639,1.985007 4.0609799,1.985007 5.1523439,0 a 1,1 0 0 0 -0.394531,-1.359375 1,1 0 0 0 -0.759766,-0.08398 z"
     id="path4" />
  <path
     style="color:#000000;fill:#000000;-inkscape-stroke:none"
     d="m 18,4 c -2.197292,0 -4,1.8027078 -4,4 0,2.197292 1.802708,4 4,4 2.197292,0 4,-1.802708 4,-4 0,-2.1972922 -1.802708,-4 -4,-4 z m 0,2 c 1.116413,0 2,0.883587 2,2 0,1.116413 -0.883587,2 -2,2 -1.116413,0 -2,-0.883587 -2,-2 0,-1.116413 0.883587,-2 2,-2 z"
     id="circle6" />
</svg>
