<?xml version="1.0" encoding="UTF-8" standalone="no"?>
<svg
   width="24"
   height="24"
   viewBox="0 0 24 24"
   fill="none"
   stroke="currentColor"
   stroke-width="2"
   stroke-linecap="round"
   stroke-linejoin="round"
   version="1.1"
   id="svg10"
   xmlns="http://www.w3.org/2000/svg"
   xmlns:svg="http://www.w3.org/2000/svg">
  <defs
     id="defs14" />
  <path
     style="color:#000000;fill:#000000;-inkscape-stroke:none"
     d="M 18.5,13 C 16.026566,13 14,15.026566 14,17.5 14,19.973434 16.026566,22 18.5,22 20.973434,22 23,19.973434 23,17.5 23,15.026566 20.973434,13 18.5,13 Z m 0,2 C 19.892555,15 21,16.107445 21,17.5 21,18.892555 19.892555,20 18.5,20 17.107445,20 16,18.892555 16,17.5 16,16.107445 17.107445,15 18.5,15 Z"
     id="circle2" />
  <path
     style="color:#000000;fill:#000000;-inkscape-stroke:none"
     d="M 5.5,13 C 3.0265657,13 1,15.026566 1,17.5 1,19.973434 3.0265657,22 5.5,22 7.9734343,22 10,19.973434 10,17.5 10,15.026566 7.9734343,13 5.5,13 Z m 0,2 C 6.8925551,15 8,16.107445 8,17.5 8,18.892555 6.8925551,20 5.5,20 4.1074449,20 3,18.892555 3,17.5 3,16.107445 4.1074449,15 5.5,15 Z"
     id="circle4" />
  <path
     style="color:#000000;fill:#000000;-inkscape-stroke:none"
     d="m 15,3 c -1.092724,0 -2,0.9072762 -2,2 0,1.0927238 0.907276,2 2,2 1.092724,0 2,-0.9072762 2,-2 0,-1.0927238 -0.907276,-2 -2,-2 z"
     id="circle6" />
  <path
     style="color:#000000;fill:#000000;-inkscape-stroke:none"
     d="M 13.167969,7.0136719 A 1.0001,1.0001 0 0 0 12.400391,7.1992187 L 8.4003906,10.199219 A 1.0001,1.0001 0 0 0 8.2929688,11.707031 L 11,14.414063 V 17.5 a 1,1 0 0 0 1,1 1,1 0 0 0 1,-1 V 14 a 1.0001,1.0001 0 0 0 -0.292969,-0.707031 l -2.183593,-2.183594 2.230468,-1.6757812 1.414063,2.1210942 A 1.0001,1.0001 0 0 0 15,12 h 2 a 1,1 0 0 0 1,-1 1,1 0 0 0 -1,-1 H 15.535156 L 13.832031,7.4453125 A 1.0001,1.0001 0 0 0 13.167969,7.0136719 Z"
     id="path8" />
</svg>
