<?xml version="1.0" encoding="UTF-8" standalone="no"?>
<svg
   width="24"
   height="24"
   viewBox="0 0 24 24"
   fill="none"
   stroke="currentColor"
   stroke-width="2"
   stroke-linecap="round"
   stroke-linejoin="round"
   version="1.1"
   id="svg14"
   xmlns="http://www.w3.org/2000/svg"
   xmlns:svg="http://www.w3.org/2000/svg">
  <defs
     id="defs18" />
  <path
     style="color:#000000;fill:#000000;-inkscape-stroke:none"
     d="m 16,13 c -1.644701,0 -3,1.355299 -3,3 v 2 c 0,1.644701 1.355299,3 3,3 1.644701,0 3,-1.355299 3,-3 v -2 c 0,-1.644701 -1.355299,-3 -3,-3 z m 0,2 c 0.571297,0 1,0.428703 1,1 v 2 c 0,0.571297 -0.428703,1 -1,1 -0.571297,0 -1,-0.428703 -1,-1 v -2 c 0,-0.571297 0.428703,-1 1,-1 z"
     id="rect2" />
  <path
     style="color:#000000;fill:#000000;-inkscape-stroke:none"
     d="M 8,3 C 6.3552989,3 5,4.3552989 5,6 v 2 c 0,1.6447011 1.3552989,3 3,3 1.6447011,0 3,-1.3552989 3,-3 V 6 C 11,4.3552989 9.6447011,3 8,3 Z M 8,5 C 8.5712967,5 9,5.4287033 9,6 V 8 C 9,8.5712967 8.5712967,9 8,9 7.4287033,9 7,8.5712967 7,8 V 6 C 7,5.4287033 7.4287033,5 8,5 Z"
     id="rect4" />
  <path
     style="color:#000000;fill:#000000;-inkscape-stroke:none"
     d="m 6,19 a 1,1 0 0 0 -1,1 1,1 0 0 0 1,1 h 4 a 1,1 0 0 0 1,-1 1,1 0 0 0 -1,-1 z"
     id="path6" />
  <path
     style="color:#000000;fill:#000000;-inkscape-stroke:none"
     d="m 14,9 a 1,1 0 0 0 -1,1 1,1 0 0 0 1,1 h 4 a 1,1 0 0 0 1,-1 1,1 0 0 0 -1,-1 z"
     id="path8" />
  <path
     style="color:#000000;fill:#000000;-inkscape-stroke:none"
     d="m 6,13 a 1,1 0 0 0 -1,1 1,1 0 0 0 1,1 h 1 v 5 a 1,1 0 0 0 1,1 1,1 0 0 0 1,-1 V 14 A 1.0001,1.0001 0 0 0 8,13 Z"
     id="path10" />
  <path
     style="color:#000000;fill:#000000;-inkscape-stroke:none"
     d="m 14,3 a 1,1 0 0 0 -1,1 1,1 0 0 0 1,1 h 1 v 5 a 1,1 0 0 0 1,1 1,1 0 0 0 1,-1 V 4 A 1.0001,1.0001 0 0 0 16,3 Z"
     id="path12" />
</svg>
