<?xml version="1.0" encoding="UTF-8" standalone="no"?>
<svg
   width="24"
   height="24"
   viewBox="0 0 24 24"
   fill="none"
   stroke="currentColor"
   stroke-width="2"
   stroke-linecap="round"
   stroke-linejoin="round"
   version="1.1"
   id="svg22"
   xmlns="http://www.w3.org/2000/svg"
   xmlns:svg="http://www.w3.org/2000/svg">
  <defs
     id="defs26" />
  <path
     style="color:#000000;fill:#000000;-inkscape-stroke:none"
     d="m 12,8.9003906 c -1.645008,0 -3,1.3549924 -3,3.0000004 0,1.645008 1.354992,3 3,3 1.645008,0 3,-1.354992 3,-3 0,-1.645008 -1.354992,-3.0000004 -3,-3.0000004 z m 0,2.0000004 c 0.564129,0 1,0.435871 1,1 0,0.564128 -0.435871,1 -1,1 -0.564129,0 -1,-0.435872 -1,-1 0,-0.564129 0.435871,-1 1,-1 z"
     id="circle2" />
  <path
     style="color:#000000;fill:#000000;-inkscape-stroke:none"
     d="M 7.0390625,2.4589844 A 1,1 0 0 0 5.7597656,3.0605469 C 5.0711971,4.9732371 5.3690382,6.9749722 6.3261719,8.6425781 4.4103072,8.6737586 2.5395261,9.4222487 1.2382812,10.953125 a 1,1 0 0 0 0.1132813,1.408203 1,1 0 0 0 1.4101563,-0.113281 C 4.1747091,10.585705 6.475439,10.089898 8.4824219,11.009766 A 1.0001,1.0001 0 0 0 9.4628906,9.2734375 C 7.6194871,8.0165714 6.8903148,5.8224762 7.640625,3.7382813 A 1,1 0 0 0 7.0390625,2.4589844 Z"
     id="path4" />
  <path
     style="color:#000000;fill:#000000;-inkscape-stroke:none"
     d="M 8.6367188,9.1347656 A 1,1 0 0 0 8.03125,9.6035156 1,1 0 0 0 8.4042969,10.96875 l 1.4003906,0.798828 A 1,1 0 0 0 11.167969,11.396484 1,1 0 0 0 10.796875,10.03125 L 9.3964844,9.2324219 A 1,1 0 0 0 8.6367188,9.1347656 Z"
     id="path6" />
  <path
     style="color:#000000;fill:#000000;-inkscape-stroke:none"
     d="m 16.960937,2.4589844 a 1,1 0 0 0 -0.601562,1.2792969 c 0.75031,2.0841949 0.02114,4.2782901 -1.822266,5.5351562 a 1.0001,1.0001 0 0 0 1.009766,1.7207035 c 2.002475,-1.0012378 4.255043,-0.520655 5.675781,1.234375 a 1,1 0 0 0 1.40625,0.148437 1,1 0 0 0 0.148438,-1.40625 C 21.490818,9.3814651 19.619079,8.6091237 17.703125,8.5859375 18.633469,6.9287983 18.921147,4.9519702 18.240234,3.0605469 A 1,1 0 0 0 16.960937,2.4589844 Z"
     id="path8" />
  <path
     style="color:#000000;fill:#000000;-inkscape-stroke:none"
     d="m 15.363281,9.1347656 a 1,1 0 0 0 -0.759765,0.097656 L 13.203125,10.03125 a 1,1 0 0 0 -0.371094,1.365234 1,1 0 0 0 1.363282,0.371094 l 1.40039,-0.798828 a 1,1 0 0 0 0.373047,-1.3652344 1,1 0 0 0 -0.605469,-0.46875 z"
     id="path10" />
  <path
     style="color:#000000;fill:#000000;-inkscape-stroke:none"
     d="m 12.019531,14.501953 a 1.0001,1.0001 0 0 0 -1.015625,0.921875 c -0.166163,2.160121 -1.7277561,3.959769 -3.8554685,4.287109 A 1,1 0 0 0 6.3125,20.851562 1,1 0 0 0 7.4511719,21.6875 c 1.9737628,-0.303656 3.5326621,-1.532531 4.5078121,-3.144531 0.97505,1.679188 2.595792,2.939316 4.589844,3.246093 A 1,1 0 0 0 17.6875,20.951172 1,1 0 0 0 16.851562,19.8125 C 14.720041,19.484574 13.082491,17.690153 13,15.462891 a 1.0001,1.0001 0 0 0 -0.980469,-0.960938 z"
     id="path12" />
  <path
     style="color:#000000;fill:#000000;-inkscape-stroke:none"
     d="m 12,12.900391 a 1,1 0 0 0 -1,1 V 15.5 a 1,1 0 0 0 1,1 1,1 0 0 0 1,-1 v -1.599609 a 1,1 0 0 0 -1,-1 z"
     id="path14" />
  <path
     style="color:#000000;fill:#000000;-inkscape-stroke:none"
     d="M 10.304688,4.4199219 A 1,1 0 0 0 9.5195313,5.5957031 1,1 0 0 0 10.695313,6.3808594 c 0.874283,-0.1748568 1.735091,-0.1748568 2.609375,0 A 1,1 0 0 0 14.480469,5.5957031 1,1 0 0 0 13.695313,4.4199219 c -1.125715,-0.2251429 -2.264911,-0.2251429 -3.390625,0 z"
     id="path16" />
  <path
     style="color:#000000;fill:#000000;-inkscape-stroke:none"
     d="m 18.816406,12.951172 a 1,1 0 0 0 -1.265625,0.632812 c -0.257836,0.773508 -0.6925,1.544063 -1.257812,2.109375 a 1,1 0 0 0 0,1.414063 1,1 0 0 0 1.414062,0 c 0.834686,-0.834686 1.400024,-1.864135 1.742188,-2.890625 a 1,1 0 0 0 -0.632813,-1.265625 z"
     id="path18" />
  <path
     style="color:#000000;fill:#000000;-inkscape-stroke:none"
     d="m 5.1835937,12.951172 a 1,1 0 0 0 -0.6328125,1.265625 c 0.3421634,1.02649 0.9075014,2.055939 1.7421875,2.890625 a 1,1 0 0 0 1.4140625,0 1,1 0 0 0 0,-1.414063 C 7.1417188,15.128047 6.7070548,14.357492 6.4492187,13.583984 a 1,1 0 0 0 -1.265625,-0.632812 z"
     id="path20" />
</svg>
