<?xml version="1.0" encoding="UTF-8" standalone="no"?>
<svg
   width="24"
   height="24"
   viewBox="0 0 24 24"
   fill="none"
   stroke="currentColor"
   stroke-width="2"
   stroke-linecap="round"
   stroke-linejoin="round"
   version="1.1"
   id="svg14"
   xmlns="http://www.w3.org/2000/svg"
   xmlns:svg="http://www.w3.org/2000/svg">
  <defs
     id="defs18" />
  <path
     style="color:#000000;fill:#000000;-inkscape-stroke:none"
     d="m 16,6 a 1,1 0 0 0 -1,1 1,1 0 0 0 1,1 h 0.0098 a 1,1 0 0 0 1,-1 1,1 0 0 0 -1,-1 z"
     id="path2" />
  <path
     style="color:#000000;fill:#000000;-inkscape-stroke:none"
     d="M 14.5,2.2148438 C 13.507949,2.5218124 12.58412,3.1473915 11.900391,4.1269531 L 1.1816406,19.425781 a 1,1 0 0 0 0.2441406,1.392578 1,1 0 0 0 1.3925782,-0.24414 L 3.921875,19 H 12 c 4.958713,0 9,-4.041287 9,-9 V 7.0019531 7 C 21.0054,4.6118656 19.414039,2.8255153 17.505859,2.2226563 16.551498,1.9211409 15.492051,1.9078751 14.5,2.2148438 Z m 0.609375,1.8769531 c 0.584855,-0.175404 1.208377,-0.1482 1.794922,0.037109 C 18.077386,4.499525 19.004041,5.4681906 19,6.9980469 A 1.0001,1.0001 0 0 0 19,7 v 3 c 0,3.877834 -3.122166,7 -7,7 H 5.3222656 L 13.539063,5.2734375 a 1.0001,1.0001 0 0 0 0,-0.00195 c 0.437814,-0.627246 0.985457,-1.0042836 1.570312,-1.1796875 z"
     id="path4" />
  <path
     style="color:#000000;fill:#000000;-inkscape-stroke:none"
     d="M 20.242187,6.0292969 A 1,1 0 0 0 19.029297,6.7578125 1,1 0 0 0 19.140625,7.5 a 1,1 0 0 0 -0.111328,0.7421875 1,1 0 0 0 1.21289,0.7285156 l 2,-0.5 a 1.0001,1.0001 0 0 0 0,-1.9414062 z"
     id="path6" />
  <path
     style="color:#000000;fill:#000000;-inkscape-stroke:none"
     d="m 10,17 a 1,1 0 0 0 -1,1 v 3 a 1,1 0 0 0 1,1 1,1 0 0 0 1,-1 v -3 a 1,1 0 0 0 -1,-1 z"
     id="path8" />
  <path
     style="color:#000000;fill:#000000;-inkscape-stroke:none"
     d="m 14,16.75 a 1,1 0 0 0 -1,1 V 21 a 1,1 0 0 0 1,1 1,1 0 0 0 1,-1 v -3.25 a 1,1 0 0 0 -1,-1 z"
     id="path10" />
  <path
     style="color:#000000;fill:#000000;-inkscape-stroke:none"
     d="M 11.480469,6.6210937 A 1,1 0 0 0 10.072266,6.75 1,1 0 0 0 10.199219,8.1582031 c 1.835755,1.5292513 2.171703,3.6924349 1.501953,5.5429689 C 11.031422,15.551706 9.3892688,16.999881 7,17 a 1,1 0 0 0 -1,1 1,1 0 0 0 1,1 c 3.22288,-1.61e-4 5.65682,-2.06081 6.582031,-4.617187 0.925211,-2.556378 0.374684,-5.6989155 -2.101562,-7.7617193 z"
     id="path12" />
</svg>
