<?xml version="1.0" encoding="UTF-8" standalone="no"?>
<svg
   width="24"
   height="24"
   viewBox="0 0 24 24"
   fill="none"
   stroke="currentColor"
   stroke-width="2"
   stroke-linecap="round"
   stroke-linejoin="round"
   version="1.1"
   id="svg4"
   xmlns="http://www.w3.org/2000/svg"
   xmlns:svg="http://www.w3.org/2000/svg">
  <defs
     id="defs8" />
  <path
     style="color:#000000;fill:#000000;-inkscape-stroke:none"
     d="M 10.779297,1.6523437 A 1,1 0 0 0 9.6210938,2.4628906 L 9.4472656,3.4492188 8.4628906,3.2753906 a 1,1 0 0 0 -1.1582031,0.8105469 1,1 0 0 0 0.8125,1.1582031 L 9.0996094,5.4179687 8.0585938,11.328125 7.0175781,17.236328 6.0332031,17.0625 A 1,1 0 0 0 4.875,17.873047 1,1 0 0 0 5.6855469,19.03125 l 0.984375,0.173828 -0.1738282,0.984375 a 1,1 0 0 0 0.8105469,1.160156 1,1 0 0 0 1.1582032,-0.8125 l 0.1738281,-0.984375 1.9707031,0.347657 -0.173828,0.984375 a 1,1 0 0 0 0.8125,1.158203 1,1 0 0 0 1.158203,-0.810547 L 12.611328,20.0625 c 1.033832,-0.0137 1.992337,-0.229552 2.708985,-0.757813 0.952807,-0.70234 1.53906,-1.741726 1.732421,-2.83789 0.193362,-1.096164 -0.0012,-2.273824 -0.65625,-3.259766 -0.129174,-0.194434 -0.354949,-0.327616 -0.519531,-0.501953 0.214226,-0.107468 0.472311,-0.154516 0.660156,-0.292969 0.952845,-0.702301 1.539135,-1.741697 1.732422,-2.8378902 0.193287,-1.0961933 -0.003,-2.2738797 -0.658203,-3.2597657 C 17.118234,5.5725156 16.291954,5.0420988 15.324219,4.6757812 L 15.53125,3.5058594 A 1,1 0 0 0 14.720703,2.3476563 1,1 0 0 0 13.560547,3.1582031 l -0.173828,0.984375 -1.970703,-0.3476562 0.173828,-0.984375 A 1,1 0 0 0 10.779297,1.6523437 Z m 0.289062,4.1113282 2.949219,0.5195312 0.0039,0.00195 a 1,1 0 0 0 0.0039,0.00195 c 1.001485,0.1765054 1.573818,0.6110594 1.921875,1.1347656 0.348057,0.5237062 0.464103,1.1775074 0.353515,1.8046875 -0.110588,0.6271801 -0.445049,1.2011775 -0.951172,1.5742185 -0.506122,0.373041 -1.190199,0.586852 -2.191406,0.410157 h -0.002 l -2.955078,-0.521485 z m -1.2148434,6.8964841 2.9550784,0.519532 h 0.002 c 0.999907,0.176942 1.572194,0.611364 1.919922,1.134765 0.347977,0.523776 0.464154,1.177479 0.353515,1.804688 -0.110638,0.627209 -0.44498,1.203044 -0.951171,1.576171 -0.506192,0.373128 -1.190183,0.584699 -2.191407,0.408204 L 8.9863281,17.582031 Z"
     id="path2" />
</svg>
