<?xml version="1.0" encoding="UTF-8" standalone="no"?>
<svg
   width="24"
   height="24"
   viewBox="0 0 24 24"
   fill="none"
   stroke="currentColor"
   stroke-width="2"
   stroke-linecap="round"
   stroke-linejoin="round"
   version="1.1"
   id="svg8"
   xmlns="http://www.w3.org/2000/svg"
   xmlns:svg="http://www.w3.org/2000/svg">
  <defs
     id="defs12" />
  <path
     style="color:#000000;fill:#000000;-inkscape-stroke:none"
     d="M 11.617188,1.0761719 A 1.0001,1.0001 0 0 0 11,2 V 9.5859375 L 7.7070312,6.2929687 a 1,1 0 0 0 -1.4140625,0 1,1 0 0 0 0,1.4140625 L 10.585938,12 6.2929687,16.292969 a 1,1 0 0 0 0,1.414062 1,1 0 0 0 1.4140625,0 L 11,14.414063 V 22 a 1.0001,1.0001 0 0 0 1.707031,0.707031 l 5,-5 a 1.0001,1.0001 0 0 0 0,-1.414062 L 13.414063,12 17.707031,7.7070312 a 1.0001,1.0001 0 0 0 0,-1.4140625 l -5,-5 A 1.0001,1.0001 0 0 0 11.617188,1.0761719 Z M 13,4.4140625 15.585938,7 13,9.5859375 Z M 13,14.414063 15.585938,17 13,19.585937 Z"
     id="path2" />
  <path
     style="color:#000000;fill:#000000;-inkscape-stroke:none"
     d="m 18,11 a 1,1 0 0 0 -1,1 1,1 0 0 0 1,1 h 3 a 1,1 0 0 0 1,-1 1,1 0 0 0 -1,-1 z"
     id="line4" />
  <path
     style="color:#000000;fill:#000000;-inkscape-stroke:none"
     d="m 3,11 a 1,1 0 0 0 -1,1 1,1 0 0 0 1,1 H 6 A 1,1 0 0 0 7,12 1,1 0 0 0 6,11 Z"
     id="line6" />
</svg>
