<?xml version="1.0" encoding="UTF-8" standalone="no"?>
<svg
   width="24"
   height="24"
   viewBox="0 0 24 24"
   fill="none"
   stroke="currentColor"
   stroke-width="2"
   stroke-linecap="round"
   stroke-linejoin="round"
   version="1.1"
   id="svg8"
   xmlns="http://www.w3.org/2000/svg"
   xmlns:svg="http://www.w3.org/2000/svg">
  <defs
     id="defs12" />
  <path
     style="color:#000000;fill:#000000;-inkscape-stroke:none"
     d="m 12.382813,11.076172 a 1.0001,1.0001 0 0 0 -1.089844,0.216797 l -5.0000003,5 a 1,1 0 0 0 0,1.414062 1,1 0 0 0 1.4140625,0 L 11,14.414063 V 22 a 1.0001,1.0001 0 0 0 1.707031,0.707031 l 5,-5 a 1,1 0 0 0 0,-1.414062 1,1 0 0 0 -1.414062,0 L 13,19.585937 V 12 a 1.0001,1.0001 0 0 0 -0.617187,-0.923828 z"
     id="path2" />
  <path
     style="color:#000000;fill:#000000;-inkscape-stroke:none"
     d="m 2,1 a 1,1 0 0 0 -0.7070313,0.2929687 1,1 0 0 0 0,1.4140626 L 21.292969,22.707031 a 1,1 0 0 0 1.414062,0 1,1 0 0 0 0,-1.414062 L 2.7070313,1.2929687 A 1,1 0 0 0 2,1 Z"
     id="path4" />
  <path
     style="color:#000000;fill:#000000;-inkscape-stroke:none"
     d="M 11.617188,1.0761719 A 1.0001,1.0001 0 0 0 11,2 v 4.5 a 1,1 0 0 0 1,1 1,1 0 0 0 1,-1 V 4.4140625 L 15.585938,7 13.792969,8.7929688 a 1,1 0 0 0 0,1.4140622 1,1 0 0 0 1.414062,0 l 2.5,-2.4999998 a 1.0001,1.0001 0 0 0 0,-1.4140625 l -5,-5 A 1.0001,1.0001 0 0 0 11.617188,1.0761719 Z"
     id="path6" />
</svg>
