<?xml version="1.0" encoding="UTF-8" standalone="no"?>
<svg
   width="24"
   height="24"
   viewBox="0 0 24 24"
   fill="none"
   stroke="currentColor"
   stroke-width="2"
   stroke-linecap="round"
   stroke-linejoin="round"
   version="1.1"
   id="svg6"
   xmlns="http://www.w3.org/2000/svg"
   xmlns:svg="http://www.w3.org/2000/svg">
  <defs
     id="defs10" />
  <path
     style="color:#000000;fill:#000000;-inkscape-stroke:none"
     d="M 6,3 A 1.0001,1.0001 0 0 0 5,4 v 8 a 1,1 0 0 0 1,1 1,1 0 0 0 1,-1 V 5 h 7 c 1.083332,0 1.76856,0.370245 2.251953,0.9140625 C 16.735346,6.45788 17,7.2222229 17,8 17,8.7777771 16.735346,9.54212 16.251953,10.085938 15.76856,10.629755 15.083332,11 14,11 a 1,1 0 0 0 -1,1 1,1 0 0 0 1,1 c 1.583331,0 2.898109,-0.629757 3.748047,-1.585937 C 18.597985,10.457882 19,9.2222209 19,8 19,6.7777791 18.597985,5.5421185 17.748047,4.5859375 16.898109,3.6297565 15.583331,3 14,3 Z"
     id="path2" />
  <path
     style="color:#000000;fill:#000000;-inkscape-stroke:none"
     d="m 6,11 a 1.0001,1.0001 0 0 0 -1,1 v 8 a 1.0001,1.0001 0 0 0 1,1 h 9 c 1.583331,0 2.898109,-0.629757 3.748047,-1.585938 C 19.597985,18.457882 20,17.222221 20,16 20,14.777779 19.597985,13.542118 18.748047,12.585938 17.898109,11.629757 16.583331,11 15,11 Z m 1,2 h 8 c 1.083332,0 1.76856,0.370245 2.251953,0.914063 C 17.735346,14.45788 18,15.222223 18,16 18,16.777777 17.735346,17.54212 17.251953,18.085937 16.76856,18.629755 16.083332,19 15,19 H 7 Z"
     id="path4" />
</svg>
