<?xml version="1.0" encoding="UTF-8" standalone="no"?>
<svg
   width="24"
   height="24"
   viewBox="0 0 24 24"
   fill="none"
   stroke="currentColor"
   stroke-width="2"
   stroke-linecap="round"
   stroke-linejoin="round"
   version="1.1"
   id="svg8"
   xmlns="http://www.w3.org/2000/svg"
   xmlns:svg="http://www.w3.org/2000/svg">
  <defs
     id="defs12" />
  <path
     style="color:#000000;fill:#000000;-inkscape-stroke:none"
     d="M 11,3 C 5.4890026,3 1,7.4890026 1,13 1,18.510997 5.4890026,23 11,23 16.510997,23 21,18.510997 21,13 21,7.4890026 16.510997,3 11,3 Z m 0,2 c 4.430118,0 8,3.5698818 8,8 0,4.430118 -3.569882,8 -8,8 C 6.5698818,21 3,17.430118 3,13 3,8.5698818 6.5698818,5 11,5 Z"
     id="circle2" />
  <path
     style="color:#000000;fill:#000000;-inkscape-stroke:none"
     d="m 18,1.0039062 c -0.872178,0 -1.745215,0.3284837 -2.40625,0.9863282 a 1.0001,1.0001 0 0 0 0,0.00195 l -1.800781,1.8007813 a 1,1 0 0 0 0,1.4140624 1,1 0 0 0 1.414062,0 l 1.798828,-1.7988281 0.002,-0.00195 c 0.55777,-0.5530242 1.426606,-0.5530242 1.984375,0 l 1.601563,1.6015625 c 0.557508,0.5555758 0.557508,1.4287992 0,1.984375 l -1.800781,1.8007813 a 1,1 0 0 0 0,1.4140622 1,1 0 0 0 1.414062,0 l 1.798828,-1.7988279 0.002,-0.00195 c 1.322211,-1.3198101 1.322211,-3.4926899 0,-4.8125 l -0.002,-0.00195 -1.599609,-1.5996094 a 1.0001,1.0001 0 0 0 0,-0.00195 C 19.745215,1.3323899 18.872178,1.0039062 18,1.0039062 Z"
     id="path4" />
  <path
     style="color:#000000;fill:#000000;-inkscape-stroke:none"
     d="m 21.292969,1.2929687 -1.5,1.5000001 a 1,1 0 0 0 0,1.4140624 1,1 0 0 0 1.414062,0 l 1.5,-1.4999999 a 1,1 0 0 0 0,-1.4140626 1,1 0 0 0 -1.414062,0 z"
     id="path6" />
</svg>
