<?xml version="1.0" encoding="UTF-8" standalone="no"?>
<svg
   width="24"
   height="24"
   viewBox="0 0 24 24"
   fill="none"
   stroke="currentColor"
   stroke-width="2"
   stroke-linecap="round"
   stroke-linejoin="round"
   version="1.1"
   id="svg4"
   xmlns="http://www.w3.org/2000/svg"
   xmlns:svg="http://www.w3.org/2000/svg">
  <defs
     id="defs8" />
  <path
     style="color:#000000;fill:#000000;-inkscape-stroke:none"
     d="M 16.5,1 C 15.652779,1 14.792119,1.2770145 14.117188,1.8769531 13.442256,2.4768917 13,3.416668 13,4.5 c 0,0.6930652 0.218232,1.1740931 0.28125,1.4882812 0.06302,0.3141882 0.07719,0.2392139 0.01172,0.3046875 L 6.2929687,13.292969 c -0.065474,0.06547 0.0095,0.0513 -0.3046875,-0.01172 C 5.6740931,13.218232 5.1930652,13 4.5,13 3.416668,13 2.4768917,13.442256 1.8769531,14.117188 1.2770145,14.792119 1,15.652779 1,16.5 c 0,0.847221 0.2770145,1.707881 0.8769531,2.382812 0.5163463,0.58089 1.3124877,0.930697 2.2070313,1.033204 0.1025069,0.894543 0.4523133,1.690685 1.0332031,2.207031 C 5.7921187,22.722985 6.6527787,23 7.5,23 8.3472213,23 9.2078813,22.722985 9.8828125,22.123047 10.557744,21.523108 11,20.583332 11,19.5 c 0,-0.693065 -0.218232,-1.174093 -0.28125,-1.488281 -0.06302,-0.314188 -0.07719,-0.239214 -0.01172,-0.304688 l 7,-7 c 0.06547,-0.06547 -0.0095,-0.0513 0.304688,0.01172 C 18.325907,10.781768 18.806935,11 19.5,11 20.583332,11 21.523108,10.557744 22.123047,9.8828125 22.722985,9.2078813 23,8.3472213 23,7.5 23,6.6527787 22.722985,5.7921187 22.123047,5.1171875 21.606701,4.5362977 20.810559,4.1864913 19.916016,4.0839844 19.813509,3.1894408 19.463702,2.3932994 18.882812,1.8769531 18.207881,1.2770145 17.347221,1 16.5,1 Z m 0,2 c 0.402777,0 0.79212,0.1396534 1.054687,0.3730469 C 17.817255,3.6064404 18,3.9166677 18,4.5 18,5.3165817 18.683418,6 19.5,6 20.083332,6 20.39356,6.1827447 20.626953,6.4453125 20.860347,6.7078803 21,7.0972225 21,7.5 21,7.9027775 20.860347,8.2921197 20.626953,8.5546875 20.39356,8.8172553 20.083332,9 19.5,9 19.383066,9 18.964561,8.8697946 18.40625,8.7578125 17.847939,8.6458304 16.927494,8.6584431 16.292969,9.2929688 L 9.2929688,16.292969 C 8.6584431,16.927494 8.6458304,17.847939 8.7578125,18.40625 8.8697946,18.964561 9,19.383066 9,19.5 9,20.083332 8.8172553,20.39356 8.5546875,20.626953 8.2921197,20.860347 7.9027775,21 7.5,21 7.0972225,21 6.7078803,20.860347 6.4453125,20.626953 6.1827447,20.39356 6,20.083332 6,19.5 6,18.696191 5.3038087,18 4.5,18 3.9166677,18 3.6064404,17.817255 3.3730469,17.554687 3.1396534,17.29212 3,16.902777 3,16.5 3,16.097223 3.1396534,15.70788 3.3730469,15.445313 3.6064404,15.182745 3.9166677,15 4.5,15 c 0.116934,0 0.535439,0.130205 1.09375,0.242188 0.558311,0.111982 1.4787556,0.09937 2.1132812,-0.535157 L 14.707031,7.7070312 C 15.341557,7.0725056 15.35417,6.152061 15.242188,5.59375 15.130205,5.035439 15,4.616934 15,4.5 15,3.9166677 15.182745,3.6064404 15.445313,3.3730469 15.70788,3.1396534 16.097223,3 16.5,3 Z"
     id="path2" />
</svg>
