<?xml version="1.0" encoding="UTF-8" standalone="no"?>
<svg
   width="24"
   height="24"
   viewBox="0 0 24 24"
   fill="none"
   stroke="currentColor"
   stroke-width="2"
   stroke-linecap="round"
   stroke-linejoin="round"
   version="1.1"
   id="svg8"
   xmlns="http://www.w3.org/2000/svg"
   xmlns:svg="http://www.w3.org/2000/svg">
  <defs
     id="defs12" />
  <path
     style="color:#000000;fill:#000000;-inkscape-stroke:none"
     d="M 6.5,1 C 4.5788499,1 3,2.5788499 3,4.5 v 15 c 0,0.847221 0.2770145,1.707881 0.8769531,2.382812 C 4.4768917,22.557744 5.416668,23 6.5,23 H 20 a 1.0001,1.0001 0 0 0 1,-1 V 17 2 A 1.0001,1.0001 0 0 0 20,1 Z m 0,2 H 19 V 16 H 6.5 C 5.954536,16 5.4474597,16.113136 5,16.310547 V 4.5 C 5,3.6597291 5.6597291,3 6.5,3 Z m 0,15 H 19 v 3 H 6.5 C 5.9166677,21 5.6064404,20.817255 5.3730469,20.554687 5.1396534,20.29212 5,19.902777 5,19.5 5,19.097223 5.1396534,18.70788 5.3730469,18.445312 5.6064404,18.182745 5.9166677,18 6.5,18 Z"
     id="path2" />
  <path
     style="color:#000000;fill:#000000;-inkscape-stroke:none"
     d="m 12,6 a 1,1 0 0 0 -1,1 v 6 a 1,1 0 0 0 1,1 1,1 0 0 0 1,-1 V 7 A 1,1 0 0 0 12,6 Z"
     id="path4" />
  <path
     style="color:#000000;fill:#000000;-inkscape-stroke:none"
     d="m 9,9 a 1,1 0 0 0 -0.7070312,0.2929688 1,1 0 0 0 0,1.4140622 l 3.0000002,3 a 1.0001,1.0001 0 0 0 1.414062,0 l 3,-3 a 1,1 0 0 0 0,-1.4140622 1,1 0 0 0 -1.414062,0 L 12,11.585938 9.7070313,9.2929688 A 1,1 0 0 0 9,9 Z"
     id="path6" />
</svg>
