<?xml version="1.0" encoding="UTF-8" standalone="no"?>
<svg
   width="24"
   height="24"
   viewBox="0 0 24 24"
   fill="none"
   stroke="currentColor"
   stroke-width="2"
   stroke-linecap="round"
   stroke-linejoin="round"
   version="1.1"
   id="svg6"
   xmlns="http://www.w3.org/2000/svg"
   xmlns:svg="http://www.w3.org/2000/svg">
  <defs
     id="defs10" />
  <path
     style="color:#000000;fill:#000000;-inkscape-stroke:none"
     d="M 2,2 A 1.0001,1.0001 0 0 0 1,3 v 15 a 1.0001,1.0001 0 0 0 1,1 h 7 c 1.116413,0 2,0.883587 2,2 a 1.0001,1.0001 0 0 0 2,0 V 7 C 13,4.2504236 10.749576,2 8,2 Z m 1,2 h 5 c 1.6686972,0 3,1.3313028 3,3 V 17.619141 C 10.40187,17.261655 9.7426437,17 9,17 H 3 Z"
     id="path2" />
  <path
     style="color:#000000;fill:#000000;-inkscape-stroke:none"
     d="m 16,2 c -2.749576,0 -5,2.2504236 -5,5 v 14 a 1.0001,1.0001 0 0 0 2,0 c 0,-1.116413 0.883587,-2 2,-2 h 7 a 1.0001,1.0001 0 0 0 1,-1 V 3 A 1.0001,1.0001 0 0 0 22,2 Z m 0,2 h 5 v 13 h -6 c -0.742644,0 -1.40187,0.261655 -2,0.619141 V 7 c 0,-1.6686972 1.331303,-3 3,-3 z"
     id="path4" />
</svg>
