<?xml version="1.0" encoding="UTF-8" standalone="no"?>
<svg
   width="24"
   height="24"
   viewBox="0 0 24 24"
   fill="none"
   stroke="currentColor"
   stroke-width="2"
   stroke-linecap="round"
   stroke-linejoin="round"
   version="1.1"
   id="svg12"
   xmlns="http://www.w3.org/2000/svg"
   xmlns:svg="http://www.w3.org/2000/svg">
  <defs
     id="defs16" />
  <path
     style="color:#000000;fill:#000000;-inkscape-stroke:none"
     d="M 6.5,1 C 4.5788499,1 3,2.5788499 3,4.5 v 15 a 1,1 0 0 0 1,1 1,1 0 0 0 1,-1 V 4.5 C 5,3.6597291 5.6597291,3 6.5,3 H 14 A 1,1 0 0 0 15,2 1,1 0 0 0 14,1 Z"
     id="path2" />
  <path
     style="color:#000000;fill:#000000;-inkscape-stroke:none"
     d="m 20,7 a 1,1 0 0 0 -1,1 v 8 H 6.5 C 5.416668,16 4.4768917,16.442256 3.8769531,17.117187 3.2770145,17.792119 3,18.652779 3,19.5 3,20.347221 3.2770145,21.207881 3.8769531,21.882812 4.4768917,22.557744 5.416668,23 6.5,23 H 20 a 1.0001,1.0001 0 0 0 1,-1 V 17 8 A 1,1 0 0 0 20,7 Z M 6.5,18 H 19 v 3 H 6.5 C 5.9166677,21 5.6064404,20.817255 5.3730469,20.554687 5.1396534,20.29212 5,19.902777 5,19.5 5,19.097223 5.1396534,18.70788 5.3730469,18.445312 5.6064404,18.182745 5.9166677,18 6.5,18 Z"
     id="path4" />
  <path
     style="color:#000000;fill:#000000;-inkscape-stroke:none"
     d="m 14,5 c -1.645008,0 -3,1.354992 -3,3 0,1.645008 1.354992,3 3,3 1.645008,0 3,-1.354992 3,-3 0,-1.645008 -1.354992,-3 -3,-3 z m 0,2 c 0.564129,0 1,0.4358712 1,1 0,0.5641288 -0.435871,1 -1,1 -0.564129,0 -1,-0.4358712 -1,-1 0,-0.5641288 0.435871,-1 1,-1 z"
     id="circle6" />
  <path
     style="color:#000000;fill:#000000;-inkscape-stroke:none"
     d="m 19.292969,1.2929687 -4.5,4.5 a 1,1 0 0 0 0,1.4140625 1,1 0 0 0 1.414062,0 l 4.5,-4.4999999 a 1,1 0 0 0 0,-1.4140626 1,1 0 0 0 -1.414062,0 z"
     id="path8" />
  <path
     style="color:#000000;fill:#000000;-inkscape-stroke:none"
     d="m 18.292969,2.2929688 a 1,1 0 0 0 0,1.4140625 l 1,0.9999999 a 1,1 0 0 0 1.414062,0 1,1 0 0 0 0,-1.4140624 l -1,-1 a 1,1 0 0 0 -1.414062,0 z"
     id="path10" />
</svg>
