<?xml version="1.0" encoding="UTF-8" standalone="no"?>
<svg
   width="24"
   height="24"
   viewBox="0 0 24 24"
   fill="none"
   stroke="currentColor"
   stroke-width="2"
   stroke-linecap="round"
   stroke-linejoin="round"
   version="1.1"
   id="svg6"
   xmlns="http://www.w3.org/2000/svg"
   xmlns:svg="http://www.w3.org/2000/svg">
  <defs
     id="defs10" />
  <path
     style="color:#000000;fill:#000000;-inkscape-stroke:none"
     d="M 6.5,1 C 4.5788499,1 3,2.5788499 3,4.5 v 15 c 0,0.847221 0.2770145,1.707881 0.8769531,2.382812 C 4.4768917,22.557744 5.416668,23 6.5,23 H 20 a 1.0001,1.0001 0 0 0 1,-1 V 17 2 A 1.0001,1.0001 0 0 0 20,1 Z m 0,2 H 19 V 16 H 6.5 C 5.954536,16 5.4474597,16.113136 5,16.310547 V 4.5 C 5,3.6597291 5.6597291,3 6.5,3 Z m 0,15 H 19 v 3 H 6.5 C 5.9166677,21 5.6064404,20.817255 5.3730469,20.554687 5.1396534,20.29212 5,19.902777 5,19.5 5,19.097223 5.1396534,18.70788 5.3730469,18.445312 5.6064404,18.182745 5.9166677,18 6.5,18 Z"
     id="path2" />
  <path
     style="color:#000000;fill:#000000;-inkscape-stroke:none"
     d="M 10,1 A 1,1 0 0 0 9,2 v 8 a 1.0001,1.0001 0 0 0 1.707031,0.707031 L 13,8.4140625 15.292969,10.707031 A 1.0001,1.0001 0 0 0 17,10 V 2 A 1,1 0 0 0 16,1 1,1 0 0 0 15,2 V 7.5859375 L 13.707031,6.2929687 a 1.0001,1.0001 0 0 0 -1.414062,0 L 11,7.5859375 V 2 A 1,1 0 0 0 10,1 Z"
     id="polyline4" />
</svg>
