<?xml version="1.0" encoding="UTF-8" standalone="no"?>
<svg
   width="24"
   height="24"
   viewBox="0 0 24 24"
   fill="none"
   stroke="currentColor"
   stroke-width="2"
   stroke-linecap="round"
   stroke-linejoin="round"
   version="1.1"
   id="svg6"
   xmlns="http://www.w3.org/2000/svg"
   xmlns:svg="http://www.w3.org/2000/svg">
  <defs
     id="defs10" />
  <path
     style="color:#000000;fill:#000000;-inkscape-stroke:none"
     d="M 7,2 C 5.354992,2 4,3.354992 4,5 v 16 a 1.0001,1.0001 0 0 0 1.4960937,0.869141 L 12,18.152344 18.503906,21.869141 A 1.0001,1.0001 0 0 0 20,21 V 5 C 20,3.354992 18.645008,2 17,2 Z m 0,2 h 10 c 0.564129,0 1,0.4358712 1,1 v 14.275391 l -5.503906,-3.144532 a 1.0001,1.0001 0 0 0 -0.992188,0 L 6,19.275391 V 5 C 6,4.4358712 6.4358712,4 7,4 Z"
     id="path2" />
  <path
     style="color:#000000;fill:#000000;-inkscape-stroke:none"
     d="m 9,9 a 1,1 0 0 0 -1,1 1,1 0 0 0 1,1 h 6 a 1,1 0 0 0 1,-1 1,1 0 0 0 -1,-1 z"
     id="line4" />
</svg>
