<?xml version="1.0" encoding="UTF-8" standalone="no"?>
<svg
   width="24"
   height="24"
   viewBox="0 0 24 24"
   fill="none"
   stroke="currentColor"
   stroke-width="2"
   stroke-linecap="round"
   stroke-linejoin="round"
   version="1.1"
   id="svg8"
   xmlns="http://www.w3.org/2000/svg"
   xmlns:svg="http://www.w3.org/2000/svg">
  <defs
     id="defs12" />
  <path
     style="color:#000000;fill:#000000;-inkscape-stroke:none"
     d="M 4,1 C 2.354992,1 1,2.354992 1,4 v 12 a 1,1 0 0 0 1,1 1,1 0 0 0 1,-1 V 4 C 3,3.4358712 3.4358712,3 4,3 H 15 A 1,1 0 0 0 16,2 1,1 0 0 0 15,1 Z"
     id="path2" />
  <path
     style="color:#000000;fill:#000000;-inkscape-stroke:none"
     d="M 4,13 C 3.0833344,13 2.2685585,13.379756 1.7519531,13.960938 1.2353477,14.542119 1,15.277779 1,16 1,16.722221 1.2353477,17.457881 1.7519531,18.039062 2.2685585,18.620244 3.0833344,19 4,19 H 5 A 1,1 0 0 0 6,18 1,1 0 0 0 5,17 H 4 C 3.5833341,17 3.3981072,16.879755 3.2480469,16.710937 3.0979866,16.54212 3,16.277778 3,16 3,15.722222 3.0979866,15.45788 3.2480469,15.289063 3.3981072,15.120245 3.5833341,15 4,15 H 5 A 1,1 0 0 0 6,14 1,1 0 0 0 5,13 Z"
     id="path4" />
  <path
     style="color:#000000;fill:#000000;-inkscape-stroke:none"
     d="M 11,5 C 9.354992,5 8,6.354992 8,8 v 12 c 0,0.722221 0.2353477,1.457881 0.7519531,2.039062 C 9.2685585,22.620244 10.083334,23 11,23 h 11 a 1.0001,1.0001 0 0 0 1,-1 V 18 6 A 1.0001,1.0001 0 0 0 22,5 Z m 0,2 H 21 V 17 H 11 c -0.359886,0 -0.683522,0.09886 -1,0.205078 V 8 c 0,-0.5641288 0.435871,-1 1,-1 z m 0,12 h 10 v 2 H 11 C 10.583334,21 10.398107,20.879755 10.248047,20.710937 10.097987,20.54212 10,20.277778 10,20 10,19.722222 10.097987,19.45788 10.248047,19.289062 10.398107,19.120245 10.583334,19 11,19 Z"
     id="path6" />
</svg>
