<?xml version="1.0" encoding="UTF-8" standalone="no"?>
<svg
   width="24"
   height="24"
   viewBox="0 0 24 24"
   fill="none"
   stroke="currentColor"
   stroke-width="2"
   stroke-linecap="round"
   stroke-linejoin="round"
   version="1.1"
   id="svg24"
   xmlns="http://www.w3.org/2000/svg"
   xmlns:svg="http://www.w3.org/2000/svg">
  <defs
     id="defs28" />
  <path
     style="color:#000000;fill:#000000;-inkscape-stroke:none"
     d="m 18,21 a 1,1 0 0 0 -1,1 1,1 0 0 0 1,1 h 2 a 1,1 0 0 0 1,-1 1,1 0 0 0 -1,-1 z"
     id="path2" />
  <path
     style="color:#000000;fill:#000000;-inkscape-stroke:none"
     d="m 20,14 a 1,1 0 0 0 -1,1 v 1 h -1 a 1,1 0 0 0 -1,1 1,1 0 0 0 1,1 h 2 a 1.0001,1.0001 0 0 0 1,-1 v -2 a 1,1 0 0 0 -1,-1 z"
     id="path4" />
  <path
     style="color:#000000;fill:#000000;-inkscape-stroke:none"
     d="m 4,14 a 1,1 0 0 0 -1,1 v 4.5 a 1,1 0 0 0 1,1 1,1 0 0 0 1,-1 V 15 A 1,1 0 0 0 4,14 Z"
     id="path6" />
  <path
     style="color:#000000;fill:#000000;-inkscape-stroke:none"
     d="m 20,7 a 1,1 0 0 0 -1,1 v 3 a 1,1 0 0 0 1,1 1,1 0 0 0 1,-1 V 8 A 1,1 0 0 0 20,7 Z"
     id="path8" />
  <path
     style="color:#000000;fill:#000000;-inkscape-stroke:none"
     d="m 18,1 a 1,1 0 0 0 -1,1 1,1 0 0 0 1,1 h 1 v 1 a 1,1 0 0 0 1,1 1,1 0 0 0 1,-1 V 2 A 1.0001,1.0001 0 0 0 20,1 Z"
     id="path10" />
  <path
     style="color:#000000;fill:#000000;-inkscape-stroke:none"
     d="M 4,8 A 1,1 0 0 0 3,9 v 2 a 1,1 0 0 0 1,1 1,1 0 0 0 1,-1 V 9 A 1,1 0 0 0 4,8 Z"
     id="path12" />
  <path
     style="color:#000000;fill:#000000;-inkscape-stroke:none"
     d="m 12,1 a 1,1 0 0 0 -1,1 1,1 0 0 0 1,1 h 2 A 1,1 0 0 0 15,2 1,1 0 0 0 14,1 Z"
     id="path14" />
  <path
     style="color:#000000;fill:#000000;-inkscape-stroke:none"
     d="m 12,21 a 1,1 0 0 0 -1,1 1,1 0 0 0 1,1 h 2 a 1,1 0 0 0 1,-1 1,1 0 0 0 -1,-1 z"
     id="path16" />
  <path
     style="color:#000000;fill:#000000;-inkscape-stroke:none"
     d="m 12,16 a 1,1 0 0 0 -1,1 1,1 0 0 0 1,1 h 2 a 1,1 0 0 0 1,-1 1,1 0 0 0 -1,-1 z"
     id="path18" />
  <path
     style="color:#000000;fill:#000000;-inkscape-stroke:none"
     d="M 6.5,16 C 5.416668,16 4.4768917,16.442256 3.8769531,17.117187 3.2770145,17.792119 3,18.652779 3,19.5 3,20.347221 3.2770145,21.207881 3.8769531,21.882812 4.4768917,22.557744 5.416668,23 6.5,23 H 8 A 1,1 0 0 0 9,22 1,1 0 0 0 8,21 H 6.5 C 5.9166677,21 5.6064404,20.817255 5.3730469,20.554687 5.1396534,20.29212 5,19.902777 5,19.5 5,19.097223 5.1396534,18.70788 5.3730469,18.445312 5.6064404,18.182745 5.9166677,18 6.5,18 H 8 A 1,1 0 0 0 9,17 1,1 0 0 0 8,16 Z"
     id="path20" />
  <path
     style="color:#000000;fill:#000000;-inkscape-stroke:none"
     d="M 6.5,1 C 4.5788499,1 3,2.5788499 3,4.5 V 5 A 1,1 0 0 0 4,6 1,1 0 0 0 5,5 V 4.5 C 5,3.6597291 5.6597291,3 6.5,3 H 8 A 1,1 0 0 0 9,2 1,1 0 0 0 8,1 Z"
     id="path22" />
</svg>
