<?xml version="1.0" encoding="UTF-8" standalone="no"?>
<svg
   width="24"
   height="24"
   viewBox="0 0 24 24"
   fill="none"
   stroke="currentColor"
   stroke-width="2"
   stroke-linecap="round"
   stroke-linejoin="round"
   version="1.1"
   id="svg8"
   xmlns="http://www.w3.org/2000/svg"
   xmlns:svg="http://www.w3.org/2000/svg">
  <defs
     id="defs12" />
  <path
     style="color:#000000;fill:#000000;-inkscape-stroke:none"
     d="M 2,2 A 1.0001,1.0001 0 0 0 1,3 v 15 a 1.0001,1.0001 0 0 0 1,1 h 7 c 1.190195,0 2,0.809805 2,2 h 2 V 7 C 13,4.2545482 10.745452,2 8,2 Z m 1,2 h 5 c 1.6545438,0 3,1.3454562 3,3 V 17.613281 C 10.402874,17.258805 9.7450565,17 9,17 H 3 Z"
     id="path2" />
  <path
     style="color:#000000;fill:#000000;-inkscape-stroke:none"
     d="M 21.292969,9.2929688 18,12.585938 16.707031,11.292969 a 1,1 0 0 0 -1.414062,0 1,1 0 0 0 0,1.414062 l 2,2 a 1.0001,1.0001 0 0 0 1.414062,0 l 4,-4 a 1,1 0 0 0 0,-1.4140622 1,1 0 0 0 -1.414062,0 z"
     id="path4" />
  <path
     style="color:#000000;fill:#000000;-inkscape-stroke:none"
     d="m 16,2 c -2.745452,0 -5,2.2545482 -5,5 v 14 a 1.0001,1.0001 0 0 0 2,0 c 0,-1.190195 0.809805,-2 2,-2 h 7 a 1.0001,1.0001 0 0 0 1,-1 v -2.300781 a 1,1 0 0 0 -1,-1 1,1 0 0 0 -1,1 V 17 h -6 c -0.745057,0 -1.402874,0.258805 -2,0.613281 V 7 c 0,-1.6545438 1.345456,-3 3,-3 h 5 v 2 a 1,1 0 0 0 1,1 1,1 0 0 0 1,-1 V 3 A 1.0001,1.0001 0 0 0 22,2 Z"
     id="path6" />
</svg>
