<?xml version="1.0" encoding="UTF-8" standalone="no"?>
<svg
   width="24"
   height="24"
   viewBox="0 0 24 24"
   fill="none"
   stroke="currentColor"
   stroke-width="2"
   stroke-linecap="round"
   stroke-linejoin="round"
   version="1.1"
   id="svg10"
   xmlns="http://www.w3.org/2000/svg"
   xmlns:svg="http://www.w3.org/2000/svg">
  <defs
     id="defs14" />
  <path
     style="color:#000000;fill:#000000;-inkscape-stroke:none"
     d="M 6.5,1 C 4.5788499,1 3,2.5788499 3,4.5 v 15 a 1,1 0 0 0 1,1 1,1 0 0 0 1,-1 V 4.5 C 5,3.6597291 5.6597291,3 6.5,3 H 10 A 1,1 0 0 0 11,2 1,1 0 0 0 10,1 Z"
     id="path2" />
  <path
     style="color:#000000;fill:#000000;-inkscape-stroke:none"
     d="m 20,14 a 1,1 0 0 0 -1,1 v 1 H 6.5 C 5.416668,16 4.4768917,16.442256 3.8769531,17.117187 3.2770145,17.792119 3,18.652779 3,19.5 3,20.347221 3.2770145,21.207881 3.8769531,21.882812 4.4768917,22.557744 5.416668,23 6.5,23 H 20 a 1.0001,1.0001 0 0 0 1,-1 V 17 15 A 1,1 0 0 0 20,14 Z M 6.5,18 H 19 v 3 H 6.5 C 5.9166677,21 5.6064404,20.817255 5.3730469,20.554687 5.1396534,20.29212 5,19.902777 5,19.5 5,19.097223 5.1396534,18.70788 5.3730469,18.445312 5.6064404,18.182745 5.9166677,18 6.5,18 Z"
     id="path4" />
  <path
     style="color:#000000;fill:#000000;-inkscape-stroke:none"
     d="m 13,5 c -1.090702,0 -2,0.9092983 -2,2 v 3 c 0,1.090702 0.909298,2 2,2 h 6 c 1.090702,0 2,-0.909298 2,-2 V 7 C 21,5.9092983 20.090702,5 19,5 Z m 0,2 h 6 v 3 h -6 z"
     id="rect6" />
  <path
     style="color:#000000;fill:#000000;-inkscape-stroke:none"
     d="M 16,1 C 15.277779,1 14.542119,1.2353477 13.960938,1.7519531 13.379756,2.2685585 13,3.0833344 13,4 v 2 a 1,1 0 0 0 1,1 1,1 0 0 0 1,-1 V 4 C 15,3.5833341 15.120245,3.3981072 15.289063,3.2480469 15.45788,3.0979866 15.722222,3 16,3 16.277778,3 16.54212,3.0979866 16.710937,3.2480469 16.879755,3.3981072 17,3.5833341 17,4 v 2 a 1,1 0 0 0 1,1 1,1 0 0 0 1,-1 V 4 C 19,3.0833344 18.620244,2.2685585 18.039062,1.7519531 17.457881,1.2353477 16.722221,1 16,1 Z"
     id="path8" />
</svg>
