<?xml version="1.0" encoding="UTF-8" standalone="no"?>
<svg
   width="24"
   height="24"
   viewBox="0 0 24 24"
   fill="none"
   stroke="currentColor"
   stroke-width="2"
   stroke-linecap="round"
   stroke-linejoin="round"
   version="1.1"
   id="svg26"
   xmlns="http://www.w3.org/2000/svg"
   xmlns:svg="http://www.w3.org/2000/svg">
  <defs
     id="defs30" />
  <path
     style="color:#000000;fill:#000000;-inkscape-stroke:none"
     d="M 5,2 C 3.354992,2 2,3.354992 2,5 A 1,1 0 0 0 3,6 1,1 0 0 0 4,5 C 4,4.4358712 4.4358712,4 5,4 A 1,1 0 0 0 6,3 1,1 0 0 0 5,2 Z"
     id="path2" />
  <path
     style="color:#000000;fill:#000000;-inkscape-stroke:none"
     d="m 19,2 a 1,1 0 0 0 -1,1 1,1 0 0 0 1,1 c 0.564129,0 1,0.4358712 1,1 a 1,1 0 0 0 1,1 1,1 0 0 0 1,-1 C 22,3.354992 20.645008,2 19,2 Z"
     id="path4" />
  <path
     style="color:#000000;fill:#000000;-inkscape-stroke:none"
     d="m 21,18 a 1,1 0 0 0 -1,1 c 0,0.564129 -0.435871,1 -1,1 a 1,1 0 0 0 -1,1 1,1 0 0 0 1,1 c 1.645008,0 3,-1.354992 3,-3 a 1,1 0 0 0 -1,-1 z"
     id="path6" />
  <path
     style="color:#000000;fill:#000000;-inkscape-stroke:none"
     d="m 3,18 a 1,1 0 0 0 -1,1 c 0,1.645008 1.354992,3 3,3 A 1,1 0 0 0 6,21 1,1 0 0 0 5,20 C 4.4358712,20 4,19.564129 4,19 A 1,1 0 0 0 3,18 Z"
     id="path8" />
  <path
     style="color:#000000;fill:#000000;-inkscape-stroke:none"
     d="M 9,2 A 1,1 0 0 0 8,3 1,1 0 0 0 9,4 h 1 A 1,1 0 0 0 11,3 1,1 0 0 0 10,2 Z"
     id="path10" />
  <path
     style="color:#000000;fill:#000000;-inkscape-stroke:none"
     d="m 9,20 a 1,1 0 0 0 -1,1 1,1 0 0 0 1,1 h 1 a 1,1 0 0 0 1,-1 1,1 0 0 0 -1,-1 z"
     id="path12" />
  <path
     style="color:#000000;fill:#000000;-inkscape-stroke:none"
     d="m 14,2 a 1,1 0 0 0 -1,1 1,1 0 0 0 1,1 h 1 A 1,1 0 0 0 16,3 1,1 0 0 0 15,2 Z"
     id="path14" />
  <path
     style="color:#000000;fill:#000000;-inkscape-stroke:none"
     d="m 14,20 a 1,1 0 0 0 -1,1 1,1 0 0 0 1,1 h 1 a 1,1 0 0 0 1,-1 1,1 0 0 0 -1,-1 z"
     id="path16" />
  <path
     style="color:#000000;fill:#000000;-inkscape-stroke:none"
     d="M 3,8 A 1,1 0 0 0 2,9 v 1 a 1,1 0 0 0 1,1 1,1 0 0 0 1,-1 V 9 A 1,1 0 0 0 3,8 Z"
     id="path18" />
  <path
     style="color:#000000;fill:#000000;-inkscape-stroke:none"
     d="m 21,8 a 1,1 0 0 0 -1,1 v 1 a 1,1 0 0 0 1,1 1,1 0 0 0 1,-1 V 9 A 1,1 0 0 0 21,8 Z"
     id="path20" />
  <path
     style="color:#000000;fill:#000000;-inkscape-stroke:none"
     d="m 3,13 a 1,1 0 0 0 -1,1 v 1 a 1,1 0 0 0 1,1 1,1 0 0 0 1,-1 V 14 A 1,1 0 0 0 3,13 Z"
     id="path22" />
  <path
     style="color:#000000;fill:#000000;-inkscape-stroke:none"
     d="m 21,13 a 1,1 0 0 0 -1,1 v 1 a 1,1 0 0 0 1,1 1,1 0 0 0 1,-1 v -1 a 1,1 0 0 0 -1,-1 z"
     id="path24" />
</svg>
