<?xml version="1.0" encoding="UTF-8" standalone="no"?>
<svg
   width="24"
   height="24"
   viewBox="0 0 24 24"
   fill="none"
   stroke="currentColor"
   stroke-width="2"
   stroke-linecap="round"
   stroke-linejoin="round"
   version="1.1"
   id="svg26"
   xmlns="http://www.w3.org/2000/svg"
   xmlns:svg="http://www.w3.org/2000/svg">
  <defs
     id="defs30" />
  <path
     style="color:#000000;fill:#000000;-inkscape-stroke:none"
     d="M 6.484375,9.6425781 2.4550781,12.0625 C 1.5555768,12.602917 1.0022998,13.577597 1,14.626953 a 1.0001,1.0001 0 0 0 0,0.0039 v 3.238282 a 1.0001,1.0001 0 0 0 0,0.0039 c 0.0023,1.049356 0.5555768,2.024036 1.4550781,2.564453 l 3,1.800781 v -0.002 c 0.9491806,0.570268 2.1406632,0.570268 3.0898438,0 v 0.002 L 12.513672,19.857422 A 1.0001,1.0001 0 0 0 13,19 V 13.5 A 1.0001,1.0001 0 0 0 12.513672,12.642578 L 7.5136719,9.6425781 a 1.0001,1.0001 0 0 0 -1.0292969,0 z M 7,11.666016 l 4,2.40039 v 4.367188 l -3.484375,2.08789 a 1.0001,1.0001 0 0 0 0,0.002 c -0.3185481,0.191384 -0.7127019,0.191384 -1.03125,0 l -3,-1.800781 C 3.183394,18.541828 3.0013974,18.220162 3,17.869141 v -3.236328 -0.002 c 0.0014,-0.351021 0.183394,-0.672687 0.484375,-0.853515 z"
     id="path2" />
  <path
     style="color:#000000;fill:#000000;-inkscape-stroke:none"
     d="m 2.0175781,12.679688 a 1,1 0 0 0 -0.6152344,0.455078 1,1 0 0 0 0.3417969,1.373047 L 6.484375,17.357422 A 1,1 0 0 0 7.8574219,17.015625 1,1 0 0 0 7.515625,15.642578 L 2.7753906,12.792969 A 1,1 0 0 0 2.0175781,12.679688 Z"
     id="path4" />
  <path
     style="color:#000000;fill:#000000;-inkscape-stroke:none"
     d="m 11.486328,12.642578 -4.9999999,3 a 1,1 0 0 0 -0.34375,1.371094 1,1 0 0 0 1.3710938,0.34375 l 5.0000001,-3 a 1,1 0 0 0 0.34375,-1.371094 1,1 0 0 0 -1.371094,-0.34375 z"
     id="path6" />
  <path
     style="color:#000000;fill:#000000;-inkscape-stroke:none"
     d="m 7,15.5 a 1,1 0 0 0 -1,1 v 5.169922 a 1,1 0 0 0 1,1 1,1 0 0 0 1,-1 V 16.5 a 1,1 0 0 0 -1,-1 z"
     id="path8" />
  <path
     style="color:#000000;fill:#000000;-inkscape-stroke:none"
     d="m 16.486328,9.6425781 -5,2.9999999 A 1.0001,1.0001 0 0 0 11,13.5 V 19 a 1.0001,1.0001 0 0 0 0.486328,0.857422 l 3.96875,2.380859 v -0.002 c 0.949181,0.570268 2.140663,0.570268 3.089844,0 v 0.002 l 3,-1.800781 C 22.444423,19.897083 22.9977,18.922403 23,17.873047 a 1.0001,1.0001 0 0 0 0,-0.0039 v -3.238282 a 1.0001,1.0001 0 0 0 0,-0.0039 C 22.9977,13.577597 22.444423,12.602917 21.544922,12.0625 L 17.515625,9.6425781 a 1.0001,1.0001 0 0 0 -1.029297,0 z M 17,11.666016 20.515625,13.777344 C 20.817127,13.958485 20.999229,14.281081 21,14.632813 v 3.236328 c -0.0014,0.351021 -0.183394,0.672687 -0.484375,0.853515 l -3,1.800781 c -0.318548,0.191384 -0.712702,0.191384 -1.03125,0 a 1.0001,1.0001 0 0 0 0,-0.002 L 13,18.433594 v -4.367188 z"
     id="path10" />
  <path
     style="color:#000000;fill:#000000;-inkscape-stroke:none"
     d="m 12.513672,12.642578 a 1,1 0 0 0 -1.371094,0.34375 1,1 0 0 0 0.34375,1.371094 l 5,3 a 1,1 0 0 0 1.371094,-0.34375 1,1 0 0 0 -0.34375,-1.371094 z"
     id="path12" />
  <path
     style="color:#000000;fill:#000000;-inkscape-stroke:none"
     d="m 21.224609,12.792969 -4.740234,2.849609 a 1,1 0 0 0 -0.341797,1.373047 1,1 0 0 0 1.373047,0.341797 l 4.740234,-2.849609 a 1,1 0 0 0 0.341797,-1.373047 1,1 0 0 0 -1.373047,-0.341797 z"
     id="path14" />
  <path
     style="color:#000000;fill:#000000;-inkscape-stroke:none"
     d="m 17,15.5 a 1,1 0 0 0 -1,1 v 5.169922 a 1,1 0 0 0 1,1 1,1 0 0 0 1,-1 V 16.5 a 1,1 0 0 0 -1,-1 z"
     id="path16" />
  <path
     style="color:#000000;fill:#000000;-inkscape-stroke:none"
     d="m 12,1.3359375 c -0.535204,0 -1.070332,0.1426004 -1.544922,0.4277344 v -0.00195 L 7.4550781,3.5625 C 6.5555768,4.1029171 6.0022998,5.0775972 6,6.1269531 a 1.0001,1.0001 0 0 0 0,0.00391 V 10.5 a 1.0001,1.0001 0 0 0 0.4863281,0.857422 l 4.9999999,3 a 1.0001,1.0001 0 0 0 1.027344,0 l 5,-3 A 1.0001,1.0001 0 0 0 18,10.5 V 6.1308594 a 1.0001,1.0001 0 0 0 0,-0.00391 C 17.9977,5.0775972 17.444423,4.1029171 16.544922,3.5625 l -3,-1.8007813 v 0.00195 C 13.070332,1.4785379 12.535204,1.3359375 12,1.3359375 Z m -0.515625,2.140625 c 0.318548,-0.1913838 0.712702,-0.1913838 1.03125,0 l 3,1.8007812 C 15.816606,5.4581721 15.998603,5.7798382 16,6.1308594 V 9.9335938 L 12,12.333984 8,9.9335938 v -3.8007813 -0.00195 c 0.0014,-0.3510212 0.183394,-0.6726873 0.484375,-0.8535157 z"
     id="path18" />
  <path
     style="color:#000000;fill:#000000;-inkscape-stroke:none"
     d="M 7.0175781,4.1796875 A 1,1 0 0 0 6.4023437,4.6347656 1,1 0 0 0 6.7441406,6.0078125 L 11.484375,8.8574219 A 1,1 0 0 0 12.857422,8.515625 1,1 0 0 0 12.515625,7.1425781 L 7.7753906,4.2929687 A 1,1 0 0 0 7.0175781,4.1796875 Z"
     id="path20" />
  <path
     style="color:#000000;fill:#000000;-inkscape-stroke:none"
     d="M 16.224609,4.2929687 11.484375,7.1425781 A 1,1 0 0 0 11.142578,8.515625 1,1 0 0 0 12.515625,8.8574219 L 17.255859,6.0078125 A 1,1 0 0 0 17.597656,4.6347656 1,1 0 0 0 16.224609,4.2929687 Z"
     id="path22" />
  <path
     style="color:#000000;fill:#000000;-inkscape-stroke:none"
     d="m 12,7 a 1,1 0 0 0 -1,1 v 5.5 a 1,1 0 0 0 1,1 1,1 0 0 0 1,-1 V 8 A 1,1 0 0 0 12,7 Z"
     id="path24" />
</svg>
