<?xml version="1.0" encoding="UTF-8" standalone="no"?>
<svg
   width="24"
   height="24"
   viewBox="0 0 24 24"
   fill="none"
   stroke="currentColor"
   stroke-width="2"
   stroke-linecap="round"
   stroke-linejoin="round"
   version="1.1"
   id="svg6"
   xmlns="http://www.w3.org/2000/svg"
   xmlns:svg="http://www.w3.org/2000/svg">
  <defs
     id="defs10" />
  <path
     style="color:#000000;fill:#000000;-inkscape-stroke:none"
     d="m 16,2 a 1,1 0 0 0 -1,1 1,1 0 0 0 1,1 h 2 v 16 h -2 a 1,1 0 0 0 -1,1 1,1 0 0 0 1,1 h 3 a 1.0001,1.0001 0 0 0 1,-1 V 3 A 1.0001,1.0001 0 0 0 19,2 Z"
     id="path2" />
  <path
     style="color:#000000;fill:#000000;-inkscape-stroke:none"
     d="M 5,2 A 1.0001,1.0001 0 0 0 4,3 v 18 a 1.0001,1.0001 0 0 0 1,1 H 8 A 1,1 0 0 0 9,21 1,1 0 0 0 8,20 H 6 V 4 H 8 A 1,1 0 0 0 9,3 1,1 0 0 0 8,2 Z"
     id="path4" />
</svg>
