<?xml version="1.0" encoding="UTF-8" standalone="no"?>
<svg
   width="24"
   height="24"
   viewBox="0 0 24 24"
   fill="none"
   stroke="currentColor"
   stroke-width="2"
   stroke-linecap="round"
   stroke-linejoin="round"
   version="1.1"
   id="svg6"
   xmlns="http://www.w3.org/2000/svg"
   xmlns:svg="http://www.w3.org/2000/svg">
  <defs
     id="defs10" />
  <path
     style="color:#000000;fill:#000000;-inkscape-stroke:none"
     d="M 7,2 C 5.354992,2 4,3.354992 4,5 v 5 c 0,0.564129 -0.4358712,1 -1,1 a 1.0001,1.0001 0 0 0 0,2 c 0.5641288,0 1,0.435871 1,1 v 5 c 0,1.645453 1.3545471,3 3,3 H 8 A 1,1 0 0 0 9,21 1,1 0 0 0 8,20 H 7 C 6.4454551,20 6,19.554545 6,19 V 14 C 6,13.223017 5.6583748,12.535361 5.1660156,12 5.6583748,11.464639 6,10.776983 6,10 V 5 C 6,4.4358712 6.4358712,4 7,4 H 8 A 1,1 0 0 0 9,3 1,1 0 0 0 8,2 Z"
     id="path2" />
  <path
     style="color:#000000;fill:#000000;-inkscape-stroke:none"
     d="m 16,2 a 1,1 0 0 0 -1,1 1,1 0 0 0 1,1 h 1 c 0.564129,0 1,0.4358712 1,1 v 5 c 0,0.776983 0.341625,1.464639 0.833984,2 C 18.341683,12.535315 18,13.222807 18,14 v 5 c 0,0.564129 -0.435871,1 -1,1 h -1 a 1,1 0 0 0 -1,1 1,1 0 0 0 1,1 h 1 c 1.645008,0 3,-1.354992 3,-3 v -5 c 0,-0.554545 0.445455,-1 1,-1 a 1.0001,1.0001 0 0 0 0,-2 c -0.564129,0 -1,-0.435871 -1,-1 V 5 C 20,3.354992 18.645008,2 17,2 Z"
     id="path4" />
</svg>
