<?xml version="1.0" encoding="UTF-8" standalone="no"?>
<svg
   width="24"
   height="24"
   viewBox="0 0 24 24"
   fill="none"
   stroke="currentColor"
   stroke-width="2"
   stroke-linecap="round"
   stroke-linejoin="round"
   version="1.1"
   id="svg6"
   xmlns="http://www.w3.org/2000/svg"
   xmlns:svg="http://www.w3.org/2000/svg">
  <defs
     id="defs10" />
  <path
     style="color:#000000;fill:#000000;-inkscape-stroke:none"
     d="M 9.5,1 C 8.0760547,0.99926244 6.9628289,1.963808 6.4238281,3.234375 5.0134043,3.7068524 4.0950276,4.9940698 4.0722656,6.4609375 2.330749,7.3086123 1.6551511,9.3804016 2.5390625,11.089844 c -0.9811747,0.842877 -1.60547977,1.970062 -1.5332031,3.15625 0.077149,1.266148 0.8991344,2.402498 2.1132812,3.099609 -0.064217,1.883675 1.3685572,3.425435 3.234375,3.527344 0.633222,1.448491 2.0880046,2.228694 3.4550782,2.107422 C 11.407958,22.83859 12.995678,21.506935 13,19.501953 A 1.0001,1.0001 0 0 0 13,19.5 V 4.5 C 13,2.5795133 11.422203,1.0010898 9.5019531,1 Z m -0.00195,2 A 1.0001,1.0001 0 0 0 9.5,3 C 10.340271,3 11,3.6597291 11,4.5 v 15 c -0.0032,1.037316 -0.624353,1.422385 -1.3671875,1.488281 -0.7434112,0.06595 -1.4242467,-0.204048 -1.609375,-1.226562 A 1.0001,1.0001 0 0 0 6.8222656,18.964844 C 5.6825571,19.218559 4.7480912,18.243966 5.046875,17.115234 A 1.0001,1.0001 0 0 0 4.3867187,15.908203 C 3.475063,15.615364 3.0493907,14.903535 3.0019531,14.125 2.9545155,13.346465 3.2888462,12.588859 4.1582031,12.1875 A 1.0001,1.0001 0 0 0 4.4433594,10.568359 C 3.53545,9.6714283 3.9777838,8.2484678 5.234375,8.0253906 A 1.0001,1.0001 0 0 0 6.0371094,6.8222656 C 5.8501108,5.9814682 6.3779985,5.1820526 7.2246094,5.0234375 A 1.0001,1.0001 0 0 0 8.0234375,4.2246094 C 8.1575763,3.508039 8.76903,2.9992173 9.4980469,3 Z"
     id="path2" />
  <path
     style="color:#000000;fill:#000000;-inkscape-stroke:none"
     d="M 14.498047,1 C 12.577797,1.0010898 11,2.5795133 11,4.5 v 15 a 1.0001,1.0001 0 0 0 0,0.002 c 0.0043,2.004982 1.592042,3.336637 3.191406,3.478516 1.367074,0.121272 2.821856,-0.658931 3.455078,-2.107422 1.865818,-0.101909 3.298593,-1.643669 3.234375,-3.527344 1.214147,-0.697111 2.036133,-1.833461 2.113282,-3.099609 0.07228,-1.186188 -0.552029,-2.313373 -1.533204,-3.15625 C 22.344849,9.3804016 21.669251,7.3086123 19.927734,6.4609375 19.904972,4.9940698 18.986596,3.7068524 17.576172,3.234375 17.037171,1.963808 15.923945,0.99926244 14.5,1 Z M 14.5,3 a 1.0001,1.0001 0 0 0 0.002,0 c 0.729017,-7.827e-4 1.340471,0.508039 1.47461,1.2246094 a 1.0001,1.0001 0 0 0 0.798828,0.7988281 c 0.846611,0.1586151 1.374498,0.9580307 1.1875,1.7988281 a 1.0001,1.0001 0 0 0 0.802734,1.203125 c 1.256591,0.2230772 1.698925,1.6460377 0.791016,2.5429684 a 1.0001,1.0001 0 0 0 0.285156,1.619141 c 0.869357,0.401359 1.203687,1.158965 1.15625,1.9375 -0.04744,0.778535 -0.47311,1.490364 -1.384766,1.783203 a 1.0001,1.0001 0 0 0 -0.660156,1.207031 c 0.298784,1.128732 -0.635682,2.103325 -1.775391,1.84961 a 1.0001,1.0001 0 0 0 -1.201171,0.796875 c -0.185129,1.022514 -0.865964,1.29251 -1.609375,1.226562 C 13.624353,20.922385 13.003199,20.537316 13,19.5 V 4.5 C 13,3.6597291 13.659729,3 14.5,3 Z"
     id="path4" />
</svg>
