<?xml version="1.0" encoding="UTF-8" standalone="no"?>
<svg
   width="24"
   height="24"
   viewBox="0 0 24 24"
   fill="none"
   stroke="currentColor"
   stroke-width="2"
   stroke-linecap="round"
   stroke-linejoin="round"
   version="1.1"
   id="svg20"
   xmlns="http://www.w3.org/2000/svg"
   xmlns:svg="http://www.w3.org/2000/svg">
  <defs
     id="defs24" />
  <path
     style="color:#000000;fill:#000000;-inkscape-stroke:none"
     d="M 9.8242188,1 C 8.396319,0.86757382 6.8644155,1.7160577 6.28125,3.2929688 4.9514776,3.8063354 4.0942298,5.045485 4.0722656,6.4609375 2.330749,7.3086123 1.6551511,9.3804016 2.5390625,11.089844 c -0.9811747,0.842877 -1.60547977,1.970062 -1.5332031,3.15625 0.077149,1.266148 0.8991344,2.402498 2.1132812,3.099609 -0.066043,1.937227 1.454787,3.521465 3.3925781,3.535156 0.601898,1.250238 1.7170975,2.100695 2.9531251,2.113282 1.2890432,0.01313 2.4927282,-0.858996 3.0859372,-2.199219 A 1.0001,1.0001 0 0 0 12.851563,20.3125 c 0.01295,-0.05202 0.0673,-0.06964 0.07813,-0.123047 l -0.02734,0.01758 A 1.0001,1.0001 0 0 0 13,20 V 4.5058594 C 13.011929,2.4938021 11.426986,1.1486437 9.8242188,1 Z M 9.6386719,2.9921875 C 10.384358,3.0613439 11.006193,3.4496169 11,4.4941406 A 1.0001,1.0001 0 0 0 11,4.5 v 15.271484 a 1.0001,1.0001 0 0 0 -0.0293,0.01953 c -0.182096,0.898603 -0.799314,1.210121 -1.486328,1.203125 -0.6870144,-0.007 -1.2971791,-0.330297 -1.4609375,-1.232422 A 1.0001,1.0001 0 0 0 6.8222656,18.964844 C 5.6825571,19.218559 4.7480912,18.243966 5.046875,17.115234 A 1.0001,1.0001 0 0 0 4.3867187,15.908203 C 3.475063,15.615364 3.0493907,14.903535 3.0019531,14.125 2.9545155,13.346465 3.2888462,12.588859 4.1582031,12.1875 A 1.0001,1.0001 0 0 0 4.4433594,10.568359 C 3.53545,9.6714283 3.9777838,8.2484678 5.234375,8.0253906 A 1.0001,1.0001 0 0 0 6.0371094,6.8222656 C 5.8501108,5.9814682 6.3779985,5.1820526 7.2246094,5.0234375 A 1.0001,1.0001 0 0 0 8.0234375,4.21875 C 8.2094405,3.1909022 8.8929859,2.9230311 9.6386719,2.9921875 Z"
     id="path2" />
  <path
     style="color:#000000;fill:#000000;-inkscape-stroke:none"
     d="m 18,2 c -1.645453,0 -3,1.3545471 -3,3 v 3 a 1,1 0 0 0 1,1 1,1 0 0 0 1,-1 V 5 C 17,4.4454551 17.445455,4 18,4 A 1,1 0 0 0 19,3 1,1 0 0 0 18,2 Z"
     id="path4" />
  <path
     style="color:#000000;fill:#000000;-inkscape-stroke:none"
     d="m 12,12 a 1,1 0 0 0 -1,1 1,1 0 0 0 1,1 h 4 a 1,1 0 0 0 1,-1 1,1 0 0 0 -1,-1 z"
     id="path6" />
  <path
     style="color:#000000;fill:#000000;-inkscape-stroke:none"
     d="m 12,17 a 1,1 0 0 0 -1,1 1,1 0 0 0 1,1 h 6 c 0.564129,0 1,0.435871 1,1 v 1 a 1,1 0 0 0 1,1 1,1 0 0 0 1,-1 v -1 c 0,-1.645008 -1.354992,-3 -3,-3 z"
     id="path8" />
  <path
     style="color:#000000;fill:#000000;-inkscape-stroke:none"
     d="m 12,7 a 1,1 0 0 0 -1,1 1,1 0 0 0 1,1 h 8 A 1,1 0 0 0 21,8 1,1 0 0 0 20,7 Z"
     id="path10" />
  <path
     style="color:#000000;fill:#000000;-inkscape-stroke:none"
     d="M 20,6.5 C 19.652778,6.5 19.292119,6.6103474 18.992187,6.8769531 18.692256,7.1435589 18.5,7.5833337 18.5,8 c 0,0.4166663 0.192256,0.8564411 0.492187,1.1230469 C 19.292119,9.3896526 19.652778,9.5 20,9.5 20.347222,9.5 20.707881,9.3896526 21.007812,9.1230469 21.307744,8.8564411 21.5,8.4166663 21.5,8 21.5,7.5833337 21.307744,7.1435589 21.007812,6.8769531 20.707881,6.6103474 20.347222,6.5 20,6.5 Z m 0,1 c 0.09722,0 0.207881,0.027014 0.320312,0.1269531 C 20.432744,7.7268925 20.5,7.9166666 20.5,8 c 0,0.083333 -0.06726,0.2731075 -0.179688,0.3730469 C 20.207881,8.4729862 20.097222,8.5 20,8.5 19.902778,8.5 19.792119,8.4729862 19.679687,8.3730469 19.567256,8.2731075 19.5,8.0833334 19.5,8 19.5,7.9166666 19.567256,7.7268925 19.679687,7.6269531 19.792119,7.5270138 19.902778,7.5 20,7.5 Z"
     id="path12" />
  <path
     style="color:#000000;fill:#000000;-inkscape-stroke:none"
     d="m 16,11.5 c -0.347222,0 -0.707881,0.110347 -1.007812,0.376953 C 14.692256,12.143559 14.5,12.583334 14.5,13 c 0,0.416666 0.192256,0.856441 0.492188,1.123047 C 15.292119,14.389653 15.652778,14.5 16,14.5 c 0.347222,0 0.707881,-0.110347 1.007812,-0.376953 C 17.307744,13.856441 17.5,13.416666 17.5,13 17.5,12.583334 17.307744,12.143559 17.007812,11.876953 16.707881,11.610347 16.347222,11.5 16,11.5 Z m 0,1 c 0.09722,0 0.207881,0.02701 0.320312,0.126953 C 16.432744,12.726892 16.5,12.916667 16.5,13 c 0,0.08333 -0.06726,0.273108 -0.179688,0.373047 C 16.207881,13.472986 16.097222,13.5 16,13.5 c -0.09722,0 -0.207881,-0.02701 -0.320312,-0.126953 C 15.567256,13.273108 15.5,13.083333 15.5,13 c 0,-0.08333 0.06726,-0.273108 0.179688,-0.373047 C 15.792119,12.527014 15.902778,12.5 16,12.5 Z"
     id="path14" />
  <path
     style="color:#000000;fill:#000000;-inkscape-stroke:none"
     d="m 20,19.5 c -0.347222,0 -0.707881,0.110347 -1.007813,0.376953 C 18.692256,20.143559 18.5,20.583334 18.5,21 c 0,0.416666 0.192256,0.856441 0.492187,1.123047 C 19.292119,22.389653 19.652778,22.5 20,22.5 c 0.347222,0 0.707881,-0.110347 1.007812,-0.376953 C 21.307744,21.856441 21.5,21.416666 21.5,21 21.5,20.583334 21.307744,20.143559 21.007812,19.876953 20.707881,19.610347 20.347222,19.5 20,19.5 Z m 0,1 c 0.09722,0 0.207881,0.02701 0.320312,0.126953 C 20.432744,20.726892 20.5,20.916667 20.5,21 c 0,0.08333 -0.06726,0.273108 -0.179688,0.373047 C 20.207881,21.472986 20.097222,21.5 20,21.5 c -0.09722,0 -0.207881,-0.02701 -0.320313,-0.126953 C 19.567256,21.273108 19.5,21.083333 19.5,21 c 0,-0.08333 0.06726,-0.273108 0.179687,-0.373047 C 19.792119,20.527014 19.902778,20.5 20,20.5 Z"
     id="path16" />
  <path
     style="color:#000000;fill:#000000;-inkscape-stroke:none"
     d="M 18,1.5 C 17.652778,1.5 17.292119,1.6103474 16.992187,1.8769531 16.692256,2.1435589 16.5,2.5833337 16.5,3 c 0,0.4166663 0.192256,0.8564411 0.492187,1.1230469 C 17.292119,4.3896526 17.652778,4.5 18,4.5 18.347222,4.5 18.707881,4.3896526 19.007812,4.1230469 19.307744,3.8564411 19.5,3.4166663 19.5,3 19.5,2.5833337 19.307744,2.1435589 19.007812,1.8769531 18.707881,1.6103474 18.347222,1.5 18,1.5 Z m 0,1 c 0.09722,0 0.207881,0.027014 0.320312,0.1269531 C 18.432744,2.7268925 18.5,2.9166666 18.5,3 c 0,0.083333 -0.06726,0.2731075 -0.179688,0.3730469 C 18.207881,3.4729862 18.097222,3.5 18,3.5 17.902778,3.5 17.792119,3.4729862 17.679687,3.3730469 17.567256,3.2731075 17.5,3.0833334 17.5,3 17.5,2.9166666 17.567256,2.7268925 17.679687,2.6269531 17.792119,2.5270138 17.902778,2.5 18,2.5 Z"
     id="path18" />
</svg>
