<?xml version="1.0" encoding="UTF-8" standalone="no"?>
<svg
   width="24"
   height="24"
   viewBox="0 0 24 24"
   fill="none"
   stroke="currentColor"
   stroke-width="2"
   stroke-linecap="round"
   stroke-linejoin="round"
   version="1.1"
   id="svg18"
   xmlns="http://www.w3.org/2000/svg"
   xmlns:svg="http://www.w3.org/2000/svg">
  <defs
     id="defs22" />
  <path
     style="color:#000000;fill:#000000;-inkscape-stroke:none"
     d="M 9.8242188,1 C 8.396319,0.86757382 6.8644155,1.7160577 6.28125,3.2929688 4.9514776,3.8063354 4.0942298,5.045485 4.0722656,6.4609375 2.330749,7.3086123 1.6551511,9.3804016 2.5390625,11.089844 c -0.9811747,0.842877 -1.60547977,1.970062 -1.5332031,3.15625 0.077149,1.266148 0.8991344,2.402498 2.1132812,3.099609 -0.065907,1.933238 1.4483941,3.512693 3.3808594,3.533203 0.566346,1.20004 1.6239337,2.120557 3,2.121094 0.808856,0 1.663902,-0.240541 2.353516,-0.830078 0.06059,-0.0518 0.08964,-0.141891 0.146484,-0.199219 0.05685,0.05733 0.08589,0.147418 0.146484,0.199219 C 12.836098,22.759459 13.691144,23 14.5,23 c 1.376066,-5.37e-4 2.433654,-0.921054 3,-2.121094 1.932465,-0.02051 3.446766,-1.599965 3.380859,-3.533203 1.214147,-0.697111 2.036133,-1.833461 2.113282,-3.099609 0.07228,-1.186188 -0.552029,-2.313373 -1.533204,-3.15625 C 22.344849,9.3804016 21.669251,7.3086123 19.927734,6.4609375 19.90577,5.045485 19.048522,3.8063354 17.71875,3.2929688 17.135584,1.7160577 15.603681,0.86757382 14.175781,1 13.380729,1.0737347 12.593775,1.4489608 12,2.046875 11.406225,1.4489608 10.619271,1.0737347 9.8242188,1 Z M 9.6386719,2.9921875 C 10.384358,3.0613439 11.006193,3.4496169 11,4.4941406 a 1,1 0 0 0 0.002,0.00195 A 1,1 0 0 0 11,4.5 c 9e-6,0.00206 -1.2e-5,0.00379 0,0.00586 V 5 a 1,1 0 0 0 1,1 1,1 0 0 0 1,-1 V 4.5058594 c 1.2e-5,-0.00207 -9e-6,-0.00379 0,-0.00586 a 1,1 0 0 0 0,-0.00391 1,1 0 0 0 0,-0.00195 c -0.0062,-1.0445237 0.615642,-1.4327967 1.361328,-1.5019531 0.745686,-0.069156 1.429231,0.1987147 1.615235,1.2265625 a 1.0001,1.0001 0 0 0 0.798828,0.8046875 c 0.846611,0.1586151 1.374498,0.9580307 1.1875,1.7988281 a 1.0001,1.0001 0 0 0 0.802734,1.203125 c 1.256591,0.2230772 1.698925,1.6460377 0.791016,2.5429684 a 1.0001,1.0001 0 0 0 0.285156,1.619141 c 0.869357,0.401359 1.203687,1.158965 1.15625,1.9375 -0.04744,0.778535 -0.47311,1.490364 -1.384766,1.783203 a 1.0001,1.0001 0 0 0 -0.660156,1.207031 c 0.298784,1.128732 -0.635682,2.103325 -1.775391,1.84961 a 1.0001,1.0001 0 0 0 -1.201171,0.798828 C 15.847565,20.485173 15.232943,20.999714 14.5,21 14.098857,21 13.703198,20.870852 13.445313,20.650391 13.187427,20.429929 13,20.135681 13,19.5 V 19 a 1,1 0 0 0 -1,-1 1,1 0 0 0 -1,1 v 0.5 c 0,0.635681 -0.187427,0.929929 -0.445312,1.150391 C 10.296802,20.870852 9.9011428,21 9.5,21 8.7670575,20.999714 8.1524353,20.485173 8.0234375,19.763672 A 1.0001,1.0001 0 0 0 6.8222656,18.964844 C 5.6825571,19.218559 4.7480912,18.243966 5.046875,17.115234 A 1.0001,1.0001 0 0 0 4.3867187,15.908203 C 3.475063,15.615364 3.0493907,14.903535 3.0019531,14.125 2.9545155,13.346465 3.2888462,12.588859 4.1582031,12.1875 A 1.0001,1.0001 0 0 0 4.4433594,10.568359 C 3.53545,9.6714283 3.9777838,8.2484678 5.234375,8.0253906 A 1.0001,1.0001 0 0 0 6.0371094,6.8222656 C 5.8501108,5.9814682 6.3779985,5.1820526 7.2246094,5.0234375 A 1.0001,1.0001 0 0 0 8.0234375,4.21875 C 8.2094405,3.1909022 8.8929859,2.9230311 9.6386719,2.9921875 Z"
     id="path2" />
  <path
     style="color:#000000;fill:#000000;-inkscape-stroke:none"
     d="m 12,9 c -1.645008,0 -3,1.354992 -3,3 0,1.645008 1.354992,3 3,3 1.645008,0 3,-1.354992 3,-3 0,-1.645008 -1.354992,-3 -3,-3 z m 0,2 c 0.564129,0 1,0.435871 1,1 0,0.564129 -0.435871,1 -1,1 -0.564129,0 -1,-0.435871 -1,-1 0,-0.564129 0.435871,-1 1,-1 z"
     id="circle4" />
  <path
     style="color:#000000;fill:#000000;-inkscape-stroke:none"
     d="m 12,8 a 1,1 0 0 0 -1,1 v 1 a 1,1 0 0 0 1,1 1,1 0 0 0 1,-1 V 9 A 1,1 0 0 0 12,8 Z"
     id="path6" />
  <path
     style="color:#000000;fill:#000000;-inkscape-stroke:none"
     d="m 12,13 a 1,1 0 0 0 -1,1 v 1 a 1,1 0 0 0 1,1 1,1 0 0 0 1,-1 v -1 a 1,1 0 0 0 -1,-1 z"
     id="path8" />
  <path
     style="color:#000000;fill:#000000;-inkscape-stroke:none"
     d="m 14.861328,9.5351563 a 1,1 0 0 0 -0.759765,0.097656 l -0.869141,0.5000005 a 1,1 0 0 0 -0.369141,1.365234 1,1 0 0 0 1.365235,0.369141 l 0.86914,-0.5 a 1,1 0 0 0 0.369141,-1.365235 1,1 0 0 0 -0.605469,-0.4667967 z"
     id="path10" />
  <path
     style="color:#000000;fill:#000000;-inkscape-stroke:none"
     d="m 10.53125,12.035156 a 1,1 0 0 0 -0.7597656,0.09766 l -0.8691406,0.5 a 1,1 0 0 0 -0.3691407,1.365234 1,1 0 0 0 1.3652344,0.369141 l 0.8691405,-0.5 a 1,1 0 0 0 0.369141,-1.365235 1,1 0 0 0 -0.605469,-0.466797 z"
     id="path12" />
  <path
     style="color:#000000;fill:#000000;-inkscape-stroke:none"
     d="m 13.46875,12.035156 a 1,1 0 0 0 -0.605469,0.466797 1,1 0 0 0 0.369141,1.365235 l 0.869141,0.5 a 1,1 0 0 0 1.365234,-0.369141 1,1 0 0 0 -0.369141,-1.365234 l -0.86914,-0.5 a 1,1 0 0 0 -0.759766,-0.09766 z"
     id="path14" />
  <path
     style="color:#000000;fill:#000000;-inkscape-stroke:none"
     d="m 9.1386719,9.5351563 a 1,1 0 0 0 -0.6054688,0.4667967 1,1 0 0 0 0.3691407,1.365235 l 0.8691406,0.5 A 1,1 0 0 0 11.136719,11.498047 1,1 0 0 0 10.767578,10.132813 L 9.8984375,9.6328125 A 1,1 0 0 0 9.1386719,9.5351563 Z"
     id="path16" />
</svg>
