<?xml version="1.0" encoding="UTF-8" standalone="no"?>
<svg
   width="24"
   height="24"
   viewBox="0 0 24 24"
   fill="none"
   stroke="currentColor"
   stroke-width="2"
   stroke-linecap="round"
   stroke-linejoin="round"
   version="1.1"
   id="svg6"
   xmlns="http://www.w3.org/2000/svg"
   xmlns:svg="http://www.w3.org/2000/svg">
  <defs
     id="defs10" />
  <path
     style="color:#000000;fill:#000000;-inkscape-stroke:none"
     d="M 4,6 C 2.3552989,6 1,7.3552989 1,9 v 10 c 0,1.644701 1.3552989,3 3,3 h 16 c 1.644701,0 3,-1.355299 3,-3 V 9 C 23,7.3552989 21.644701,6 20,6 Z m 0,2 h 16 c 0.571297,0 1,0.4287033 1,1 v 10 c 0,0.571297 -0.428703,1 -1,1 H 4 C 3.4287033,20 3,19.571297 3,19 V 9 C 3,8.4287033 3.4287033,8 4,8 Z"
     id="rect2" />
  <path
     style="color:#000000;fill:#000000;-inkscape-stroke:none"
     d="M 10,2 C 8.354992,2 7,3.354992 7,5 v 16 a 1,1 0 0 0 1,1 1,1 0 0 0 1,-1 V 5 C 9,4.4358712 9.4358712,4 10,4 h 4 c 0.564129,0 1,0.4358712 1,1 v 16 a 1,1 0 0 0 1,1 1,1 0 0 0 1,-1 V 5 C 17,3.354992 15.645008,2 14,2 Z"
     id="path4" />
</svg>
