<?xml version="1.0" encoding="UTF-8" standalone="no"?>
<svg
   width="24"
   height="24"
   viewBox="0 0 24 24"
   fill="none"
   stroke="currentColor"
   stroke-width="2"
   stroke-linecap="round"
   stroke-linejoin="round"
   version="1.1"
   id="svg6"
   xmlns="http://www.w3.org/2000/svg"
   xmlns:svg="http://www.w3.org/2000/svg">
  <defs
     id="defs10" />
  <path
     style="color:#000000;fill:#000000;-inkscape-stroke:none"
     d="m 19.335937,1.9238281 c -0.99939,-0.052657 -2.077403,0.3469473 -2.923828,1.2207032 L 8.3535156,11.193359 a 1,1 0 0 0 -0.00195,1.414063 1,1 0 0 0 1.4160156,0 L 17.835937,4.546875 a 1.0001,1.0001 0 0 0 0.01172,-0.011719 c 0.496735,-0.5127742 0.941446,-0.6384897 1.382813,-0.6152343 0.441366,0.023255 0.902686,0.2444834 1.253906,0.5957031 0.35122,0.3512197 0.572448,0.8125398 0.595703,1.2539062 0.02325,0.4413665 -0.10246,0.886078 -0.615234,1.3828125 a 1.0001,1.0001 0 0 0 -0.01367,0.011719 l -8.058594,8.0800785 a 1,1 0 0 0 0.002,1.414062 1,1 0 0 0 1.414063,-0.002 l 8.046875,-8.0683594 c 0.873756,-0.8464245 1.27336,-1.9244373 1.220703,-2.9238281 -0.05266,-0.9993908 -0.510612,-1.8953779 -1.177735,-2.5625 -0.667122,-0.6671221 -1.563109,-1.1250771 -2.5625,-1.1777344 z"
     id="path2" />
  <path
     style="color:#000000;fill:#000000;-inkscape-stroke:none"
     d="m 7.0703125,13.939453 c -2.2021665,0 -4,1.816557 -4,4.021484 0,0.01922 0.027501,-0.0138 -0.068359,0.07617 -0.09586,0.08998 -0.3106049,0.222954 -0.5605468,0.345703 -0.249942,0.12275 -0.5074828,0.214873 -0.8222657,0.423829 -0.1573914,0.104478 -0.3899098,0.231744 -0.5449219,0.652343 -0.15477848,0.419966 0.068381,1.004786 0.2890625,1.226563 C 2.5521755,21.894498 4.1576795,23 6.0703125,23 8.8151061,23 11.069232,20.737691 11.070313,17.962891 v -0.002 c 0.0062,-2.20192 -1.7939387,-4.01418 -3.9960943,-4.021484 a 1.0001,1.0001 0 0 0 -0.00391,0 z m -0.00195,2 c 1.1210046,0.0048 2.0056845,0.896296 2.0019531,2.017578 a 1.0001,1.0001 0 0 0 0,0.0039 c 0,1.704285 -1.3454562,3.039063 -3,3.039063 -0.7992687,0 -1.628221,-0.453928 -2.4082031,-1.041016 0.234322,-0.128913 0.4670413,-0.235797 0.7089843,-0.46289 0.3572645,-0.335336 0.6992188,-0.889374 0.6992188,-1.535157 0,-1.134401 0.8811516,-2.020444 1.9980469,-2.021484 z"
     id="path4" />
</svg>
