<?xml version="1.0" encoding="UTF-8" standalone="no"?>
<svg
   width="24"
   height="24"
   viewBox="0 0 24 24"
   fill="none"
   stroke="currentColor"
   stroke-width="2"
   stroke-linecap="round"
   stroke-linejoin="round"
   version="1.1"
   id="svg20"
   xmlns="http://www.w3.org/2000/svg"
   xmlns:svg="http://www.w3.org/2000/svg">
  <defs
     id="defs24" />
  <path
     style="color:#000000;fill:#000000;-inkscape-stroke:none"
     d="M 12,5 C 9.2473,5 7,7.2473 7,10 v 6 c 0,2.7527 2.2473,5 5,5 2.7527,0 5,-2.2473 5,-5 V 10 C 17,7.2473 14.7527,5 12,5 Z m 0,2 c 1.679296,0 3,1.3207044 3,3 v 6 c 0,1.679296 -1.320704,3 -3,3 -1.679296,0 -3,-1.320704 -3,-3 V 10 C 9,8.3207044 10.320704,7 12,7 Z"
     id="rect2" />
  <path
     style="color:#000000;fill:#000000;-inkscape-stroke:none"
     d="m 19.195312,6.0195312 a 1,1 0 0 0 -0.75,0.1484375 l -2.999999,2.0000001 a 1,1 0 0 0 -0.277344,1.3867187 1,1 0 0 0 1.386718,0.2773438 l 3,-2.0000001 A 1,1 0 0 0 19.832031,6.4453125 1,1 0 0 0 19.195312,6.0195312 Z"
     id="path4" />
  <path
     style="color:#000000;fill:#000000;-inkscape-stroke:none"
     d="M 4.8046875,6.0195312 A 1,1 0 0 0 4.1679687,6.4453125 1,1 0 0 0 4.4453125,7.8320312 l 3,2.0000001 A 1,1 0 0 0 8.8320313,9.5546875 1,1 0 0 0 8.5546875,8.1679688 l -3,-2.0000001 a 1,1 0 0 0 -0.75,-0.1484375 z"
     id="path6" />
  <path
     style="color:#000000;fill:#000000;-inkscape-stroke:none"
     d="m 15.804688,16.019531 a 1,1 0 0 0 -0.636719,0.425781 1,1 0 0 0 0.277344,1.386719 l 2.999999,2 a 1,1 0 0 0 1.386719,-0.277344 1,1 0 0 0 -0.277344,-1.386718 l -3,-2 a 1,1 0 0 0 -0.749999,-0.148438 z"
     id="path8" />
  <path
     style="color:#000000;fill:#000000;-inkscape-stroke:none"
     d="m 8.1953125,16.019531 a 1,1 0 0 0 -0.75,0.148438 l -3,2 a 1,1 0 0 0 -0.2773438,1.386718 1,1 0 0 0 1.3867188,0.277344 l 3,-2 A 1,1 0 0 0 8.8320313,16.445312 1,1 0 0 0 8.1953125,16.019531 Z"
     id="path10" />
  <path
     style="color:#000000;fill:#000000;-inkscape-stroke:none"
     d="m 16,12 a 1,1 0 0 0 -1,1 1,1 0 0 0 1,1 h 4 a 1,1 0 0 0 1,-1 1,1 0 0 0 -1,-1 z"
     id="path12" />
  <path
     style="color:#000000;fill:#000000;-inkscape-stroke:none"
     d="m 4,12 a 1,1 0 0 0 -1,1 1,1 0 0 0 1,1 H 8 A 1,1 0 0 0 9,13 1,1 0 0 0 8,12 Z"
     id="path14" />
  <path
     style="color:#000000;fill:#000000;-inkscape-stroke:none"
     d="M 10.316406,3.0507813 A 1,1 0 0 0 9.5527344,3.1054688 1,1 0 0 0 9.1054688,4.4472656 l 1.0000002,2 a 1,1 0 0 0 1.341797,0.4472656 1,1 0 0 0 0.447265,-1.3417968 l -1,-2 A 1,1 0 0 0 10.316406,3.0507813 Z"
     id="path16" />
  <path
     style="color:#000000;fill:#000000;-inkscape-stroke:none"
     d="m 13.683594,3.0507813 a 1,1 0 0 0 -0.578125,0.5019531 l -1,2 a 1,1 0 0 0 0.447265,1.3417968 1,1 0 0 0 1.341797,-0.4472656 l 1,-2 A 1,1 0 0 0 14.447266,3.1054688 1,1 0 0 0 13.683594,3.0507813 Z"
     id="path18" />
</svg>
