<?xml version="1.0" encoding="UTF-8" standalone="no"?>
<svg
   width="24"
   height="24"
   viewBox="0 0 24 24"
   fill="none"
   stroke="currentColor"
   stroke-width="2"
   stroke-linecap="round"
   stroke-linejoin="round"
   version="1.1"
   id="svg10"
   xmlns="http://www.w3.org/2000/svg"
   xmlns:svg="http://www.w3.org/2000/svg">
  <defs
     id="defs14" />
  <path
     style="color:#000000;fill:#000000;-inkscape-stroke:none"
     d="M 4,4 C 2.354992,4 1,5.354992 1,7 v 10 a 1.0001,1.0001 0 0 0 1,1 H 4 A 1,1 0 0 0 5,17 1,1 0 0 0 4,16 H 3 V 7 C 3,6.4358712 3.4358712,6 4,6 h 13.660156 c 0.922295,-5.28e-5 1.715028,0.6190984 1.939453,1.5136719 l 1.070313,4.2695311 c 0.200016,0.798398 0.200134,1.633893 0,2.433594 L 20.220703,16 H 19 a 1,1 0 0 0 -1,1 1,1 0 0 0 1,1 h 2 a 1.0001,1.0001 0 0 0 0.96875,-0.755859 l 0.640625,-2.539063 a 1.0001,1.0001 0 0 0 0,-0.002 c 0.279866,-1.118297 0.279983,-2.28865 0,-3.40625 L 21.539062,7.0273437 C 21.093958,5.2531277 19.489353,3.9998952 17.660156,4 Z"
     id="path2" />
  <path
     style="color:#000000;fill:#000000;-inkscape-stroke:none"
     d="m 9,16 a 1,1 0 0 0 -1,1 1,1 0 0 0 1,1 h 5 a 1,1 0 0 0 1,-1 1,1 0 0 0 -1,-1 z"
     id="path4" />
  <path
     style="color:#000000;fill:#000000;-inkscape-stroke:none"
     d="M 6.5,14 C 4.5788499,14 3,15.57885 3,17.5 3,19.42115 4.5788499,21 6.5,21 8.4211501,21 10,19.42115 10,17.5 10,15.57885 8.4211501,14 6.5,14 Z m 0,2 C 7.3402709,16 8,16.659729 8,17.5 8,18.340271 7.3402709,19 6.5,19 5.6597291,19 5,18.340271 5,17.5 5,16.659729 5.6597291,16 6.5,16 Z"
     id="circle6" />
  <path
     style="color:#000000;fill:#000000;-inkscape-stroke:none"
     d="M 16.5,14 C 14.57885,14 13,15.57885 13,17.5 13,19.42115 14.57885,21 16.5,21 18.42115,21 20,19.42115 20,17.5 20,15.57885 18.42115,14 16.5,14 Z m 0,2 C 17.340271,16 18,16.659729 18,17.5 18,18.340271 17.340271,19 16.5,19 15.659729,19 15,18.340271 15,17.5 15,16.659729 15.659729,16 16.5,16 Z"
     id="circle8" />
</svg>
