<?xml version="1.0" encoding="UTF-8" standalone="no"?>
<svg
   width="24"
   height="24"
   viewBox="0 0 24 24"
   fill="none"
   stroke="currentColor"
   stroke-width="2"
   stroke-linecap="round"
   stroke-linejoin="round"
   version="1.1"
   id="svg20"
   xmlns="http://www.w3.org/2000/svg"
   xmlns:svg="http://www.w3.org/2000/svg">
  <defs
     id="defs24" />
  <path
     style="color:#000000;fill:#000000;-inkscape-stroke:none"
     d="m 6,10 c -1.645008,0 -3,1.354992 -3,3 v 8 a 1,1 0 0 0 1,1 1,1 0 0 0 1,-1 v -8 c 0,-0.564129 0.4358712,-1 1,-1 h 12 c 0.564129,0 1,0.435871 1,1 v 8 a 1,1 0 0 0 1,1 1,1 0 0 0 1,-1 v -8 c 0,-1.645008 -1.354992,-3 -3,-3 z"
     id="path2" />
  <path
     style="color:#000000;fill:#000000;-inkscape-stroke:none"
     d="m 6,14 c -0.9722212,0 -1.7226358,0.346859 -2.1875,0.71875 -0.4648642,0.371891 -0.7070312,0.833984 -0.7070312,0.833984 a 1,1 0 0 0 0.4472656,1.341797 1,1 0 0 0 1.3417968,-0.447265 c 0,0 0.00783,-0.03791 0.1679688,-0.166016 C 5.2226352,16.153142 5.4722227,16 6,16 6.3055552,16 6.7500006,16.281251 7.375,16.78125 7.9999994,17.28125 8.8055568,18 10,18 11.194443,18 12.000001,17.28125 12.625,16.78125 13.249999,16.28125 13.694445,16 14,16 c 0.305555,0 0.750001,0.281251 1.375,0.78125 C 15.999999,17.28125 16.805557,18 18,18 c 0.972221,0 1.722636,-0.346859 2.1875,-0.71875 0.464864,-0.371891 0.707031,-0.833984 0.707031,-0.833984 a 1,1 0 0 0 -0.447265,-1.341797 1,1 0 0 0 -1.341797,0.447265 c 0,0 -0.0078,0.03791 -0.167969,0.166016 C 18.777365,15.846858 18.527777,16 18,16 17.694445,16 17.249999,15.71875 16.625,15.21875 16.000001,14.718751 15.194443,14 14,14 12.805557,14 11.999999,14.718751 11.375,15.21875 10.750001,15.71875 10.305555,16 10,16 9.6944448,16 9.2499994,15.71875 8.625,15.21875 8.0000006,14.718751 7.1944432,14 6,14 Z"
     id="path4" />
  <path
     style="color:#000000;fill:#000000;-inkscape-stroke:none"
     d="m 2,20 a 1,1 0 0 0 -1,1 1,1 0 0 0 1,1 h 20 a 1,1 0 0 0 1,-1 1,1 0 0 0 -1,-1 z"
     id="path6" />
  <path
     style="color:#000000;fill:#000000;-inkscape-stroke:none"
     d="M 7,7 A 1,1 0 0 0 6,8 v 2 a 1,1 0 0 0 1,1 1,1 0 0 0 1,-1 V 8 A 1,1 0 0 0 7,7 Z"
     id="path8" />
  <path
     style="color:#000000;fill:#000000;-inkscape-stroke:none"
     d="m 12,7 a 1,1 0 0 0 -1,1 v 2 a 1,1 0 0 0 1,1 1,1 0 0 0 1,-1 V 8 A 1,1 0 0 0 12,7 Z"
     id="path10" />
  <path
     style="color:#000000;fill:#000000;-inkscape-stroke:none"
     d="m 17,7 a 1,1 0 0 0 -1,1 v 2 a 1,1 0 0 0 1,1 1,1 0 0 0 1,-1 V 8 A 1,1 0 0 0 17,7 Z"
     id="path12" />
  <path
     style="color:#000000;fill:#000000;-inkscape-stroke:none"
     d="M 7,3 A 1,1 0 0 0 6,4 1,1 0 0 0 7,5 h 0.00977 a 1,1 0 0 0 1,-1 1,1 0 0 0 -1,-1 z"
     id="path14" />
  <path
     style="color:#000000;fill:#000000;-inkscape-stroke:none"
     d="m 12,3 a 1,1 0 0 0 -1,1 1,1 0 0 0 1,1 h 0.0098 a 1,1 0 0 0 1,-1 1,1 0 0 0 -1,-1 z"
     id="path16" />
  <path
     style="color:#000000;fill:#000000;-inkscape-stroke:none"
     d="m 17,3 a 1,1 0 0 0 -1,1 1,1 0 0 0 1,1 h 0.0098 a 1,1 0 0 0 1,-1 1,1 0 0 0 -1,-1 z"
     id="path18" />
</svg>
