<?xml version="1.0" encoding="UTF-8" standalone="no"?>
<svg
   width="24"
   height="24"
   viewBox="0 0 24 24"
   fill="none"
   stroke="currentColor"
   stroke-width="2"
   stroke-linecap="round"
   stroke-linejoin="round"
   version="1.1"
   id="svg10"
   xmlns="http://www.w3.org/2000/svg"
   xmlns:svg="http://www.w3.org/2000/svg">
  <defs
     id="defs14" />
  <path
     style="color:#000000;fill:#000000;-inkscape-stroke:none"
     d="M 9,4 C 7.354992,4 6,5.354992 6,7 6,8.645008 7.354992,10 9,10 10.645008,10 12,8.645008 12,7 12,5.354992 10.645008,4 9,4 Z M 9,6 C 9.5641288,6 10,6.4358712 10,7 10,7.5641288 9.5641288,8 9,8 8.4358712,8 8,7.5641288 8,7 8,6.4358712 8.4358712,6 9,6 Z"
     id="circle2" />
  <path
     style="color:#000000;fill:#000000;-inkscape-stroke:none"
     d="m 14.447266,2.1054688 a 1.0001,1.0001 0 0 0 -1.033203,0.083984 L 9.8144531,4.7890625 A 1,1 0 0 0 9.5898438,6.1855469 1,1 0 0 0 10.986328,6.4101562 L 14.035156,4.2089844 C 15.679953,5.127952 17.174674,6.3713273 18.232422,7.640625 19.398462,9.0398733 20,10.5 20,11 v 9 H 4 V 11.503906 L 7.7929687,8.7050781 A 1,1 0 0 0 8.0039063,7.3066406 1,1 0 0 0 6.6054687,7.0957031 L 2.40625,10.195313 A 1.0001,1.0001 0 0 0 2,11 v 9 c 0,0.522222 0.1913292,1.05461 0.5683594,1.431641 C 2.9453895,21.808671 3.4777783,22 4,22 h 16 c 0.522222,0 1.05461,-0.191329 1.431641,-0.568359 C 21.808671,21.05461 22,20.522222 22,20 V 11 C 22,9.5000015 21.101535,7.9601237 19.767578,6.359375 18.433621,4.7586263 16.596335,3.1800033 14.447266,2.1054688 Z"
     id="path4" />
  <path
     style="color:#000000;fill:#000000;-inkscape-stroke:none"
     d="m 3,12 a 1,1 0 0 0 -1,1 1,1 0 0 0 1,1 h 13 a 1,1 0 0 0 1,-1 1,1 0 0 0 -1,-1 z"
     id="path6" />
  <path
     style="color:#000000;fill:#000000;-inkscape-stroke:none"
     d="m 3,16 a 1,1 0 0 0 -1,1 1,1 0 0 0 1,1 h 13 a 1,1 0 0 0 1,-1 1,1 0 0 0 -1,-1 z"
     id="path8" />
</svg>
