<?xml version="1.0" encoding="UTF-8" standalone="no"?>
<svg
   width="24"
   height="24"
   viewBox="0 0 24 24"
   fill="none"
   stroke="currentColor"
   stroke-width="2"
   stroke-linecap="round"
   stroke-linejoin="round"
   version="1.1"
   id="svg12"
   xmlns="http://www.w3.org/2000/svg"
   xmlns:svg="http://www.w3.org/2000/svg">
  <defs
     id="defs16" />
  <path
     style="color:#000000;fill:#000000;-inkscape-stroke:none"
     d="M 5,3 C 3.354992,3 2,4.354992 2,6 v 14 c 0,1.645453 1.3545471,3 3,3 h 7 a 1,1 0 0 0 1,-1 1,1 0 0 0 -1,-1 H 5 C 4.4454551,21 4,20.554545 4,20 V 6 C 4,5.4358712 4.4358712,5 5,5 h 14 c 0.564129,0 1,0.4358712 1,1 v 4 a 1,1 0 0 0 1,1 1,1 0 0 0 1,-1 V 6 C 22,4.354992 20.645008,3 19,3 Z"
     id="path2" />
  <path
     style="color:#000000;fill:#000000;-inkscape-stroke:none"
     d="m 16,1 a 1,1 0 0 0 -1,1 v 4 a 1,1 0 0 0 1,1 1,1 0 0 0 1,-1 V 2 A 1,1 0 0 0 16,1 Z"
     id="path4" />
  <path
     style="color:#000000;fill:#000000;-inkscape-stroke:none"
     d="M 8,1 A 1,1 0 0 0 7,2 V 6 A 1,1 0 0 0 8,7 1,1 0 0 0 9,6 V 2 A 1,1 0 0 0 8,1 Z"
     id="path6" />
  <path
     style="color:#000000;fill:#000000;-inkscape-stroke:none"
     d="m 3,9 a 1,1 0 0 0 -1,1 1,1 0 0 0 1,1 h 18 a 1,1 0 0 0 1,-1 1,1 0 0 0 -1,-1 z"
     id="path8" />
  <path
     style="color:#000000;fill:#000000;-inkscape-stroke:none"
     d="m 20.236328,13.058594 c -0.650157,-0.127578 -1.33777,-0.06482 -1.974609,0.199219 -0.262017,0.105716 -0.472138,0.293398 -0.697266,0.458984 l 0.283203,0.275391 0.0098,0.01172 c -0.111993,-0.112361 -0.278222,-0.120652 -0.402344,-0.214843 -0.101085,0.08053 -0.230877,0.121502 -0.322266,0.21289 L 17.384766,13.75 C 16.434073,13.064041 15.231384,12.801223 14.125,13.255859 13.693404,13.429402 13.316018,13.690561 13.005859,14 c -1.338297,1.32421 -1.324845,3.623441 0.19336,5.154297 a 1.0001,1.0001 0 0 0 0.0078,0.0059 l 3.589844,3.550781 a 1.0001,1.0001 0 0 0 1.404297,0.002 l 3.601562,-3.550782 a 1.0001,1.0001 0 0 0 0.0078,-0.0078 c 1.511886,-1.524486 1.513296,-3.803814 0.199219,-5.128906 a 1.0001,1.0001 0 0 0 -0.01367,-0.03516 c -0.490779,-0.48836 -1.107062,-0.803563 -1.759766,-0.93164 z m -5.353515,2.044922 c 0.537694,-0.222437 1.147813,-0.09963 1.558593,0.3125 a 1.0001,1.0001 0 0 0 0.01172,0.01172 l 0.349609,0.339844 a 1.0001,1.0001 0 0 0 1.404297,-0.0098 l 0.339844,-0.339844 c 0.137769,-0.137769 0.29291,-0.23982 0.464844,-0.308594 a 1.0001,1.0001 0 0 0 0.01367,-0.0059 c 0.535222,-0.223392 1.142618,-0.103003 1.554687,0.304687 a 1.0001,1.0001 0 0 0 0.0059,0.01172 c 0.564195,0.558255 0.684525,1.439002 -0.195312,2.326172 l -2.888672,2.847656 -2.884765,-2.851563 c -0.877443,-0.887764 -0.763974,-1.767321 -0.203125,-2.322265 a 1.0001,1.0001 0 0 0 0.0039,-0.002 c 0.148016,-0.148017 0.288305,-0.242666 0.453125,-0.308594 a 1.0001,1.0001 0 0 0 0.01172,-0.0059 z"
     id="path10" />
</svg>
