<?xml version="1.0" encoding="UTF-8" standalone="no"?>
<svg
   width="24"
   height="24"
   viewBox="0 0 24 24"
   fill="none"
   stroke="currentColor"
   stroke-width="2"
   stroke-linecap="round"
   stroke-linejoin="round"
   version="1.1"
   id="svg14"
   xmlns="http://www.w3.org/2000/svg"
   xmlns:svg="http://www.w3.org/2000/svg">
  <defs
     id="defs18" />
  <path
     style="color:#000000;fill:#000000;-inkscape-stroke:none"
     d="M 5,3 C 3.354992,3 2,4.354992 2,6 v 14 c 0,1.645453 1.3545471,3 3,3 h 7.5 a 1,1 0 0 0 1,-1 1,1 0 0 0 -1,-1 H 5 C 4.4454551,21 4,20.554545 4,20 V 6 C 4,5.4358712 4.4358712,5 5,5 h 14 c 0.564129,0 1,0.4358712 1,1 v 6 a 1,1 0 0 0 1,1 1,1 0 0 0 1,-1 V 6 C 22,4.354992 20.645008,3 19,3 Z"
     id="path2" />
  <path
     style="color:#000000;fill:#000000;-inkscape-stroke:none"
     d="m 16,1 a 1,1 0 0 0 -1,1 v 4 a 1,1 0 0 0 1,1 1,1 0 0 0 1,-1 V 2 A 1,1 0 0 0 16,1 Z"
     id="path4" />
  <path
     style="color:#000000;fill:#000000;-inkscape-stroke:none"
     d="M 8,1 A 1,1 0 0 0 7,2 V 6 A 1,1 0 0 0 8,7 1,1 0 0 0 9,6 V 2 A 1,1 0 0 0 8,1 Z"
     id="path6" />
  <path
     style="color:#000000;fill:#000000;-inkscape-stroke:none"
     d="m 3,9 a 1,1 0 0 0 -1,1 1,1 0 0 0 1,1 h 18 a 1,1 0 0 0 1,-1 1,1 0 0 0 -1,-1 z"
     id="path8" />
  <path
     style="color:#000000;fill:#000000;-inkscape-stroke:none"
     d="m 18,14 c -1.249998,0 -2.314775,0.504756 -2.998047,1.273438 C 14.318681,16.042119 14,17.027779 14,18 c 0,0.972221 0.318681,1.957881 1.001953,2.726562 C 15.685225,21.495244 16.750002,22 18,22 19.249998,22 20.314775,21.495244 20.998047,20.726562 21.681319,19.957881 22,18.972221 22,18 22,17.027779 21.681319,16.042119 20.998047,15.273438 20.314775,14.504756 19.249998,14 18,14 Z m 0,2 c 0.749999,0 1.185226,0.245245 1.501953,0.601562 C 19.81868,16.95788 20,17.472223 20,18 20,18.527777 19.81868,19.04212 19.501953,19.398437 19.185226,19.754755 18.749999,20 18,20 17.250001,20 16.814774,19.754755 16.498047,19.398437 16.18132,19.04212 16,18.527777 16,18 16,17.472223 16.18132,16.95788 16.498047,16.601562 16.814774,16.245245 17.250001,16 18,16 Z"
     id="path10" />
  <path
     style="color:#000000;fill:#000000;-inkscape-stroke:none"
     d="m 19.792969,19.792969 a 1,1 0 0 0 0,1.414062 l 1.5,1.5 a 1,1 0 0 0 1.414062,0 1,1 0 0 0 0,-1.414062 l -1.5,-1.5 a 1,1 0 0 0 -1.414062,0 z"
     id="path12" />
</svg>
