<?xml version="1.0" encoding="UTF-8" standalone="no"?>
<svg
   width="24"
   height="24"
   viewBox="0 0 24 24"
   fill="none"
   stroke="currentColor"
   stroke-width="2"
   stroke-linecap="round"
   stroke-linejoin="round"
   version="1.1"
   id="svg14"
   xmlns="http://www.w3.org/2000/svg"
   xmlns:svg="http://www.w3.org/2000/svg">
  <defs
     id="defs18" />
  <path
     style="color:#000000;fill:#000000;-inkscape-stroke:none"
     d="M 5,3 C 3.354992,3 2,4.354992 2,6 v 14 c 0,1.645008 1.354992,3 3,3 h 3.5 a 1,1 0 0 0 1,-1 1,1 0 0 0 -1,-1 H 5 C 4.4358712,21 4,20.564129 4,20 V 6 C 4,5.4358712 4.4358712,5 5,5 h 14 c 0.564129,0 1,0.4358712 1,1 v 1.5 a 1,1 0 0 0 1,1 1,1 0 0 0 1,-1 V 6 C 22,4.354992 20.645008,3 19,3 Z"
     id="path2" />
  <path
     style="color:#000000;fill:#000000;-inkscape-stroke:none"
     d="m 16,1 a 1,1 0 0 0 -1,1 v 4 a 1,1 0 0 0 1,1 1,1 0 0 0 1,-1 V 2 A 1,1 0 0 0 16,1 Z"
     id="path4" />
  <path
     style="color:#000000;fill:#000000;-inkscape-stroke:none"
     d="M 8,1 A 1,1 0 0 0 7,2 V 6 A 1,1 0 0 0 8,7 1,1 0 0 0 9,6 V 2 A 1,1 0 0 0 8,1 Z"
     id="path6" />
  <path
     style="color:#000000;fill:#000000;-inkscape-stroke:none"
     d="m 3,9 a 1,1 0 0 0 -1,1 1,1 0 0 0 1,1 H 8 A 1,1 0 0 0 9,10 1,1 0 0 0 8,9 Z"
     id="path8" />
  <path
     style="color:#000000;fill:#000000;-inkscape-stroke:none"
     d="m 16,13 a 1,1 0 0 0 -1,1 v 2.25 a 1.0001,1.0001 0 0 0 0.359375,0.767578 l 1.5,1.25 a 1,1 0 0 0 1.408203,-0.126953 1,1 0 0 0 -0.126953,-1.408203 L 17,15.78125 V 14 a 1,1 0 0 0 -1,-1 z"
     id="path10" />
  <path
     style="color:#000000;fill:#000000;-inkscape-stroke:none"
     d="m 16,9 c -3.854144,0 -7,3.145853 -7,7 0,3.854147 3.145856,7 7,7 3.854144,0 7,-3.145853 7,-7 0,-3.854147 -3.145856,-7 -7,-7 z m 0,2 c 2.773266,0 5,2.226732 5,5 0,2.773268 -2.226734,5 -5,5 -2.773266,0 -5,-2.226732 -5,-5 0,-2.773268 2.226734,-5 5,-5 z"
     id="path12" />
</svg>
