<?xml version="1.0" encoding="UTF-8" standalone="no"?>
<svg
   width="24"
   height="24"
   viewBox="0 0 24 24"
   fill="none"
   stroke="currentColor"
   stroke-width="2"
   stroke-linecap="round"
   stroke-linejoin="round"
   version="1.1"
   id="svg14"
   xmlns="http://www.w3.org/2000/svg"
   xmlns:svg="http://www.w3.org/2000/svg">
  <defs
     id="defs18" />
  <path
     style="color:#000000;fill:#000000;-inkscape-stroke:none"
     d="M 4.5351562,3.2460938 A 1,1 0 0 0 3.7695313,3.2675781 C 2.6967427,3.7498141 2.0024541,4.8218578 2,5.9980469 A 1.0001,1.0001 0 0 0 2,6 v 14 c 0,1.645008 1.354992,3 3,3 h 14 a 1.0001,1.0001 0 0 0 0.002,0 c 1.176189,-0.0025 2.248233,-0.696743 2.730469,-1.769531 a 1,1 0 0 0 -0.501953,-1.322266 1,1 0 0 0 -1.322266,0.501953 C 19.746087,20.770802 19.393454,20.999175 18.998047,21 H 5 C 4.4358712,21 4,20.564129 4,20 V 6.0019531 6 C 4.0015107,5.6053204 4.2297426,5.2536683 4.5898437,5.0917969 A 1,1 0 0 0 5.0917969,3.7695313 1,1 0 0 0 4.5351562,3.2460938 Z"
     id="path2" />
  <path
     style="color:#000000;fill:#000000;-inkscape-stroke:none"
     d="m 9.5,3 a 1,1 0 0 0 -1,1 1,1 0 0 0 1,1 H 19 c 0.564129,0 1,0.4358712 1,1 v 9.5 a 1,1 0 0 0 1,1 1,1 0 0 0 1,-1 V 6 C 22,4.354992 20.645008,3 19,3 Z"
     id="path4" />
  <path
     style="color:#000000;fill:#000000;-inkscape-stroke:none"
     d="m 16,1 a 1,1 0 0 0 -1,1 v 4 a 1,1 0 0 0 1,1 1,1 0 0 0 1,-1 V 2 A 1,1 0 0 0 16,1 Z"
     id="path6" />
  <path
     style="color:#000000;fill:#000000;-inkscape-stroke:none"
     d="m 3,9 a 1,1 0 0 0 -1,1 1,1 0 0 0 1,1 h 7 a 1,1 0 0 0 1,-1 1,1 0 0 0 -1,-1 z"
     id="path8" />
  <path
     style="color:#000000;fill:#000000;-inkscape-stroke:none"
     d="m 15.5,9 a 1,1 0 0 0 -1,1 1,1 0 0 0 1,1 H 21 a 1,1 0 0 0 1,-1 1,1 0 0 0 -1,-1 z"
     id="path10" />
  <path
     style="color:#000000;fill:#000000;-inkscape-stroke:none"
     d="m 2,1 a 1,1 0 0 0 -0.7070313,0.2929687 1,1 0 0 0 0,1.4140626 L 21.292969,22.707031 a 1,1 0 0 0 1.414062,0 1,1 0 0 0 0,-1.414062 L 2.7070313,1.2929687 A 1,1 0 0 0 2,1 Z"
     id="line12" />
</svg>
