<?xml version="1.0" encoding="UTF-8" standalone="no"?>
<svg
   width="24"
   height="24"
   viewBox="0 0 24 24"
   fill="none"
   stroke="currentColor"
   stroke-width="2"
   stroke-linecap="round"
   stroke-linejoin="round"
   version="1.1"
   id="svg10"
   xmlns="http://www.w3.org/2000/svg"
   xmlns:svg="http://www.w3.org/2000/svg">
  <defs
     id="defs14" />
  <path
     style="color:#000000;fill:#000000;-inkscape-stroke:none"
     d="m 2,1 a 1,1 0 0 0 -0.7070313,0.2929687 1,1 0 0 0 0,1.4140626 L 21.292969,22.707031 a 1,1 0 0 0 1.414062,0 1,1 0 0 0 0,-1.414062 L 2.7070313,1.2929687 A 1,1 0 0 0 2,1 Z"
     id="line2" />
  <path
     style="color:#000000;fill:#000000;-inkscape-stroke:none"
     d="M 4,6 C 2.354992,6 1,7.354992 1,9 v 9 c 0,1.645008 1.354992,3 3,3 h 16 a 1,1 0 0 0 1,-1 1,1 0 0 0 -1,-1 H 4 C 3.4358712,19 3,18.564129 3,18 V 9 C 3,8.4358712 3.4358712,8 4,8 H 7 A 1,1 0 0 0 8,7 1,1 0 0 0 7,6 Z"
     id="path4" />
  <path
     style="color:#000000;fill:#000000;-inkscape-stroke:none"
     d="m 9.5,3 a 1,1 0 0 0 -1,1 1,1 0 0 0 1,1 h 4.53125 l 2.201172,2.640625 A 1.0001,1.0001 0 0 0 17,8 h 3 c 0.564129,0 1,0.4358712 1,1 v 7.5 a 1,1 0 0 0 1,1 1,1 0 0 0 1,-1 V 9 C 23,7.354992 21.645008,6 20,6 H 17.46875 L 15.267578,3.359375 A 1.0001,1.0001 0 0 0 14.5,3 Z"
     id="path6" />
  <path
     style="color:#000000;fill:#000000;-inkscape-stroke:none"
     d="m 9.1933594,10.154297 c -0.9302232,0.879869 -1.3569336,2.003566 -1.3066407,3.048828 0.050293,1.045262 0.5277858,1.98677 1.2265626,2.685547 0.6987767,0.698777 1.6383317,1.176269 2.6835937,1.226562 1.045262,0.05029 2.170912,-0.376417 3.050781,-1.30664 a 1,1 0 0 0 -0.03906,-1.414063 1,1 0 0 0 -1.414063,0.03906 c -0.533233,0.56375 -1.018252,0.706773 -1.5,0.683594 -0.481748,-0.02318 -0.985497,-0.260889 -1.367187,-0.642579 -0.38169,-0.38169 -0.6213521,-0.885439 -0.6445315,-1.367187 -0.023179,-0.481748 0.1198435,-0.966767 0.6835935,-1.5 a 1,1 0 0 0 0.04102,-1.414063 1,1 0 0 0 -1.4140626,-0.03906 z"
     id="path8" />
</svg>
