<?xml version="1.0" encoding="UTF-8" standalone="no"?>
<svg
   width="24"
   height="24"
   viewBox="0 0 24 24"
   fill="none"
   stroke="currentColor"
   stroke-width="2"
   stroke-linecap="round"
   stroke-linejoin="round"
   version="1.1"
   id="svg6"
   xmlns="http://www.w3.org/2000/svg"
   xmlns:svg="http://www.w3.org/2000/svg">
  <defs
     id="defs10" />
  <path
     style="color:#000000;fill:#000000;-inkscape-stroke:none"
     d="M 9.5,3 A 1.0001,1.0001 0 0 0 8.7324219,3.359375 L 6.53125,6 H 4 C 2.354992,6 1,7.354992 1,9 v 9 c 0,1.645008 1.354992,3 3,3 h 16 c 1.645008,0 3,-1.354992 3,-3 V 9 C 23,7.354992 21.645008,6 20,6 H 17.46875 L 15.267578,3.359375 A 1.0001,1.0001 0 0 0 14.5,3 Z m 0.46875,2 h 4.0625 l 2.201172,2.640625 A 1.0001,1.0001 0 0 0 17,8 h 3 c 0.564129,0 1,0.4358712 1,1 v 9 c 0,0.564129 -0.435871,1 -1,1 H 4 C 3.4358712,19 3,18.564129 3,18 V 9 C 3,8.4358712 3.4358712,8 4,8 H 7 A 1.0001,1.0001 0 0 0 7.7675781,7.640625 Z"
     id="path2" />
  <path
     style="color:#000000;fill:#000000;-inkscape-stroke:none"
     d="m 12,9 c -2.1972922,0 -4,1.802708 -4,4 0,2.197292 1.8027078,4 4,4 2.197292,0 4,-1.802708 4,-4 0,-2.197292 -1.802708,-4 -4,-4 z m 0,2 c 1.116413,0 2,0.883587 2,2 0,1.116413 -0.883587,2 -2,2 -1.116413,0 -2,-0.883587 -2,-2 0,-1.116413 0.883587,-2 2,-2 z"
     id="circle4" />
</svg>
