<?xml version="1.0" encoding="UTF-8" standalone="no"?>
<svg
   width="24"
   height="24"
   viewBox="0 0 24 24"
   fill="none"
   stroke="currentColor"
   stroke-width="2"
   stroke-linecap="round"
   stroke-linejoin="round"
   version="1.1"
   id="svg12"
   xmlns="http://www.w3.org/2000/svg"
   xmlns:svg="http://www.w3.org/2000/svg">
  <defs
     id="defs16" />
  <path
     style="color:#000000;fill:#000000;-inkscape-stroke:none"
     d="M 13.287109,4.9296875 C 11.76243,4.8459547 10.127323,5.4312217 8.7851563,6.8007812 L 6.8007812,8.7851563 C 5.4312217,10.127323 4.8459547,11.76243 4.9296875,13.287109 c 0.083733,1.52468 0.7895161,2.91647 1.828125,3.955078 1.0386089,1.038609 2.4303984,1.744393 3.9550785,1.828125 1.524679,0.08373 3.159786,-0.501534 4.501953,-1.871093 l 1.984375,-1.984375 C 18.568778,13.872677 19.154045,12.23757 19.070312,10.712891 18.98658,9.1882109 18.280796,7.7964214 17.242187,6.7578125 16.203579,5.7192036 14.811789,5.0134203 13.287109,4.9296875 Z m -0.109375,1.9980469 c 0.969305,0.053233 1.927097,0.5208465 2.650391,1.2441406 0.723294,0.7232941 1.190908,1.6810859 1.244141,2.650391 0.05323,0.969304 -0.260216,1.971848 -1.271485,2.96289 a 1.0001,1.0001 0 0 0 -0.0078,0.0078 l -2,2 a 1.0001,1.0001 0 0 0 -0.0078,0.0078 C 12.794114,16.81205 11.79157,17.125498 10.822266,17.072266 9.8529609,17.019033 8.8951691,16.551419 8.171875,15.828125 7.4485809,15.104831 6.9809669,14.147039 6.9277344,13.177734 6.8745018,12.20843 7.1879497,11.205886 8.1992188,10.214844 a 1.0001,1.0001 0 0 0 0.00781,-0.0078 L 10.207031,8.2070313 a 1.0001,1.0001 0 0 0 0.0078,-0.00781 c 0.991042,-1.0112691 1.993586,-1.324717 2.96289,-1.2714844 z"
     id="path2" />
  <path
     style="color:#000000;fill:#000000;-inkscape-stroke:none"
     d="m 14,5.5 a 1,1 0 0 0 -1,1 v 10 a 1,1 0 0 0 1,1 1,1 0 0 0 1,-1 v -10 a 1,1 0 0 0 -1,-1 z"
     id="path4" />
  <path
     style="color:#000000;fill:#000000;-inkscape-stroke:none"
     d="m 10,6.5 a 1,1 0 0 0 -1,1 v 10 a 1,1 0 0 0 1,1 1,1 0 0 0 1,-1 v -10 a 1,1 0 0 0 -1,-1 z"
     id="path6" />
  <path
     style="color:#000000;fill:#000000;-inkscape-stroke:none"
     d="m 16.558594,1.1015625 a 1.0001,1.0001 0 0 0 -0.539063,0.703125 l -1,5 a 1,1 0 0 0 0.785157,1.1757812 1,1 0 0 0 0.646484,-0.4316406 1,1 0 0 0 -0.431641,0.6464844 1,1 0 0 0 1.175781,0.7851563 l 5,-1.0000001 A 1.0001,1.0001 0 0 0 22.896484,6.5546875 L 22.214844,5.1855469 A 1.0001,1.0001 0 0 0 22.201172,5.15625 C 22.06882,4.9095939 22,4.6158534 22,4.3007812 V 3 A 1.0001,1.0001 0 0 0 21,2 h -1.292969 c -0.308067,-0.00188 -0.611512,-0.074433 -0.886719,-0.2128906 a 1.0001,1.0001 0 0 0 -0.0059,-0.00195 L 17.445312,1.1035156 a 1.0001,1.0001 0 0 0 -0.886718,-0.00195 z m 1.166015,2.375 0.195313,0.097656 c 0.0011,5.766e-4 0.0028,-5.755e-4 0.0039,0 l 0.002,0.00195 C 18.474645,3.851237 19.079384,3.9962557 19.693359,4 a 1.0001,1.0001 0 0 0 0.0059,0 H 20 v 0.3007812 c 0,0.604927 0.131806,1.2293914 0.439453,1.8027344 l 0.08398,0.171875 -3.5,0.7011719 z"
     id="path8" />
  <path
     style="color:#000000;fill:#000000;-inkscape-stroke:none"
     d="m 6.8046875,15.019531 -5,1 a 1.0001,1.0001 0 0 0 -0.7011719,1.425781 l 0.6816406,1.369141 a 1.0001,1.0001 0 0 0 0.00195,0.0059 C 1.9255671,19.095519 1.9981213,19.398964 2,19.707031 V 21 a 1.0001,1.0001 0 0 0 1,1 h 1.2929687 c 0.3080672,0.0019 0.6115128,0.07443 0.8867188,0.212891 a 1.0001,1.0001 0 0 0 0.00586,0.002 l 1.3691406,0.68164 a 1.0001,1.0001 0 0 0 1.4257812,-0.701172 l 1.0000001,-5 a 1,1 0 0 0 -0.7851563,-1.175781 1,1 0 0 0 -0.2148438,0.142578 1,1 0 0 0 0,-0.357421 1,1 0 0 0 -1.1757812,-0.785157 z m 0.171875,2.003906 -0.7011719,3.5 -0.1953125,-0.09766 C 5.5297377,20.148902 4.9226948,20.003757 4.3066406,20 a 1.0001,1.0001 0 0 0 -0.00586,0 H 4 v -0.300781 a 1.0001,1.0001 0 0 0 0,-0.0059 C 3.9962557,19.079384 3.851237,18.474645 3.5761719,17.925781 l -0.00195,-0.002 -0.097656,-0.199219 z"
     id="path10" />
</svg>
