<?xml version="1.0" encoding="UTF-8" standalone="no"?>
<svg
   width="24"
   height="24"
   viewBox="0 0 24 24"
   fill="none"
   stroke="currentColor"
   stroke-width="2"
   stroke-linecap="round"
   stroke-linejoin="round"
   version="1.1"
   id="svg16"
   xmlns="http://www.w3.org/2000/svg"
   xmlns:svg="http://www.w3.org/2000/svg">
  <defs
     id="defs20" />
  <path
     style="color:#000000;fill:#000000;-inkscape-stroke:none"
     d="M 9,4 A 1,1 0 0 0 8,5 v 4 a 1,1 0 0 0 1,1 1,1 0 0 0 1,-1 V 5 A 1,1 0 0 0 9,4 Z"
     id="path2" />
  <path
     style="color:#000000;fill:#000000;-inkscape-stroke:none"
     d="M 8,8 C 6.9092983,8 6,8.9092983 6,10 v 4 c 0,1.090702 0.9092983,2 2,2 h 2 c 1.090702,0 2,-0.909298 2,-2 V 10 C 12,8.9092983 11.090702,8 10,8 Z m 0,2 h 2 v 4 H 8 Z"
     id="rect4" />
  <path
     style="color:#000000;fill:#000000;-inkscape-stroke:none"
     d="m 9,14 a 1,1 0 0 0 -1,1 v 2 a 1,1 0 0 0 1,1 1,1 0 0 0 1,-1 V 15 A 1,1 0 0 0 9,14 Z"
     id="path6" />
  <path
     style="color:#000000;fill:#000000;-inkscape-stroke:none"
     d="m 17,2 a 1,1 0 0 0 -1,1 v 2 a 1,1 0 0 0 1,1 1,1 0 0 0 1,-1 V 3 A 1,1 0 0 0 17,2 Z"
     id="path8" />
  <path
     style="color:#000000;fill:#000000;-inkscape-stroke:none"
     d="m 16,4 c -1.090702,0 -2,0.9092983 -2,2 v 6 c 0,1.090702 0.909298,2 2,2 h 2 c 1.090702,0 2,-0.909298 2,-2 V 6 C 20,4.9092983 19.090702,4 18,4 Z m 0,2 h 2 v 6 h -2 z"
     id="rect10" />
  <path
     style="color:#000000;fill:#000000;-inkscape-stroke:none"
     d="m 17,12 a 1,1 0 0 0 -1,1 v 3 a 1,1 0 0 0 1,1 1,1 0 0 0 1,-1 v -3 a 1,1 0 0 0 -1,-1 z"
     id="path12" />
  <path
     style="color:#000000;fill:#000000;-inkscape-stroke:none"
     d="M 3,2 A 1,1 0 0 0 2,3 v 18 a 1.0001,1.0001 0 0 0 1,1 h 18 a 1,1 0 0 0 1,-1 1,1 0 0 0 -1,-1 H 4 V 3 A 1,1 0 0 0 3,2 Z"
     id="path14" />
</svg>
