<?xml version="1.0" encoding="UTF-8" standalone="no"?>
<svg
   width="24"
   height="24"
   viewBox="0 0 24 24"
   fill="none"
   stroke="currentColor"
   stroke-width="2"
   stroke-linecap="round"
   stroke-linejoin="round"
   version="1.1"
   id="svg18"
   xmlns="http://www.w3.org/2000/svg"
   xmlns:svg="http://www.w3.org/2000/svg">
  <defs
     id="defs22" />
  <path
     style="color:#000000;fill:#000000;-inkscape-stroke:none"
     d="M 8.5,7.5 A 1,1 0 0 0 7.7929687,7.7929687 l -1,1.0000001 a 1.0001,1.0001 0 0 0 -0.00781,0.00781 C 5.4674996,10.14533 4.9153082,11.76222 5.0097656,13.267578 c 0.094457,1.505358 0.7925943,2.878532 1.8183594,3.904297 1.0257651,1.025765 2.3989387,1.723902 3.904297,1.818359 1.505358,0.09446 3.122248,-0.457734 4.466797,-1.77539 a 1.0001,1.0001 0 0 0 0.0078,-0.0078 l 1,-1 a 1,1 0 0 0 0,-1.414062 1,1 0 0 0 -1.414062,0 l -0.992188,0.992187 c -0.988663,0.968889 -1.984196,1.26917 -2.943359,1.208985 C 9.8982586,16.933956 8.954754,16.470379 8.2421875,15.757813 7.529621,15.045246 7.0660445,14.101741 7.0058594,13.142578 6.9456743,12.183415 7.2459548,11.187882 8.2148438,10.199219 L 9.2070313,9.2070313 a 1,1 0 0 0 0,-1.4140626 A 1,1 0 0 0 8.5,7.5 Z"
     id="path2" />
  <path
     style="color:#000000;fill:#000000;-inkscape-stroke:none"
     d="m 11.609375,5.2148437 a 1,1 0 0 0 -0.738281,1.2070313 1,1 0 0 0 1.205078,0.7382812 c 1.33784,-0.3219806 2.744176,0.07348 3.716797,1.0468751 0.973394,0.9726206 1.368855,2.3789567 1.046875,3.7167967 a 1,1 0 0 0 0.738281,1.205078 1,1 0 0 0 1.207031,-0.738281 c 0.4843,-2.01228 -0.114017,-4.1347123 -1.578125,-5.5976563 -1.462944,-1.4641081 -3.585376,-2.0624244 -5.597656,-1.578125 z"
     id="path4" />
  <path
     style="color:#000000;fill:#000000;-inkscape-stroke:none"
     d="m 14,13 a 1,1 0 0 0 -1,1 v 2.5 a 1,1 0 0 0 1,1 1,1 0 0 0 1,-1 V 14 a 1,1 0 0 0 -1,-1 z"
     id="path6" />
  <path
     style="color:#000000;fill:#000000;-inkscape-stroke:none"
     d="m 14,5.5 a 1,1 0 0 0 -1,1 v 1.84375 a 1,1 0 0 0 1,1 1,1 0 0 0 1,-1 V 6.5 a 1,1 0 0 0 -1,-1 z"
     id="path8" />
  <path
     style="color:#000000;fill:#000000;-inkscape-stroke:none"
     d="m 10,9 a 1,1 0 0 0 -1,1 v 7.5 a 1,1 0 0 0 1,1 1,1 0 0 0 1,-1 V 10 A 1,1 0 0 0 10,9 Z"
     id="path10" />
  <path
     style="color:#000000;fill:#000000;-inkscape-stroke:none"
     d="m 16.560547,1.1015625 a 1.0001,1.0001 0 0 0 -0.541016,0.703125 l -1,5 a 1,1 0 0 0 0.785157,1.1757812 1,1 0 0 0 0.646484,-0.4316406 1,1 0 0 0 -0.431641,0.6464844 1,1 0 0 0 1.175781,0.7851563 l 5,-1.0000001 A 1.0001,1.0001 0 0 0 22.894531,6.5527344 L 22.210937,5.1855469 C 22.072357,4.9085305 22.000422,4.6026968 22,4.2929687 V 3 A 1.0001,1.0001 0 0 0 21,2 h -1.291016 -0.002 C 19.397303,1.9995776 19.091469,1.9276434 18.814453,1.7890625 L 17.447266,1.1054687 a 1.0001,1.0001 0 0 0 -0.886719,-0.00391 z m 1.162109,2.3789063 0.197266,0.097656 C 18.475029,3.8558241 19.086338,3.9997508 19.707031,4 H 20 v 0.2929687 c 2.49e-4,0.6206934 0.144176,1.2320027 0.421875,1.7871094 l 0.09766,0.1972656 -3.496094,0.6992188 z"
     id="path12" />
  <path
     style="color:#000000;fill:#000000;-inkscape-stroke:none"
     d="m 6.8046875,15.019531 -5,1 a 1.0001,1.0001 0 0 0 -0.6992188,1.427735 l 0.6835938,1.367187 C 1.9279306,19.092044 1.9998754,19.398596 2,19.708984 V 21 a 1.0001,1.0001 0 0 0 1,1 h 1.2929687 c 0.3097281,4.22e-4 0.6155618,0.07236 0.8925782,0.210937 l 1.3671875,0.683594 a 1.0001,1.0001 0 0 0 1.4277343,-0.699219 l 1.0000001,-5 a 1,1 0 0 0 -0.7851563,-1.175781 1,1 0 0 0 -0.2148438,0.142578 1,1 0 0 0 0,-0.357421 1,1 0 0 0 -1.1757812,-0.785157 z m 0.171875,2.003906 -0.6992188,3.496094 -0.1972656,-0.09766 C 5.5249714,20.144176 4.9136621,20.000249 4.2929687,20 H 4 V 19.707031 C 3.9997508,19.086338 3.8558241,18.475029 3.578125,17.919922 l -0.097656,-0.197266 z"
     id="path14" />
  <path
     style="color:#000000;fill:#000000;-inkscape-stroke:none"
     d="m 2,1 a 1,1 0 0 0 -0.7070313,0.2929687 1,1 0 0 0 0,1.4140626 L 21.292969,22.707031 a 1,1 0 0 0 1.414062,0 1,1 0 0 0 0,-1.414062 L 2.7070313,1.2929687 A 1,1 0 0 0 2,1 Z"
     id="line16" />
</svg>
