<?xml version="1.0" encoding="UTF-8" standalone="no"?>
<svg
   width="24"
   height="24"
   viewBox="0 0 24 24"
   fill="none"
   stroke="currentColor"
   stroke-width="2"
   stroke-linecap="round"
   stroke-linejoin="round"
   version="1.1"
   id="svg12"
   xmlns="http://www.w3.org/2000/svg"
   xmlns:svg="http://www.w3.org/2000/svg">
  <defs
     id="defs16" />
  <path
     style="color:#000000;fill:#000000;-inkscape-stroke:none"
     d="M 16.867187,1.0527344 C 14.158714,0.72076478 11.378786,1.9949997 9.9335938,4.5 L 1.3476562,18.476562 a 1.0001,1.0001 0 0 0 -0.015625,0.02734 c -0.45736747,0.800393 -0.53274852,1.698867 -0.2832031,2.439453 0.2495455,0.740586 0.7738547,1.315529 1.4042969,1.675782 0.6304422,0.360252 1.3915144,0.520371 2.15625,0.359375 0.7647356,-0.160997 1.5016169,-0.682029 1.9589844,-1.482422 L 15.125,7.5214844 a 1.0001,1.0001 0 0 0 0.01563,-0.027344 c 0.207862,-0.3655959 0.405439,-0.4674784 0.626953,-0.5136719 0.221514,-0.046193 0.500131,0.00282 0.742188,0.1425782 0.242056,0.1397555 0.423393,0.3573303 0.49414,0.5722656 0.07075,0.2149353 0.08183,0.4360219 -0.130859,0.7988281 -0.466119,0.7950919 -0.548853,1.6937514 -0.304688,2.4355474 0.244165,0.741795 0.764781,1.317217 1.392578,1.679687 0.627798,0.36247 1.385891,0.526613 2.150391,0.367188 0.764501,-0.159426 1.501501,-0.681217 1.957031,-1.482422 C 23.990787,8.1549327 22.83814,3.8594439 19.5,1.9335937 18.665001,1.4518633 17.770012,1.1633909 16.867187,1.0527344 Z M 16.613281,3.0292969 C 17.25831,3.1102023 17.899061,3.3193198 18.5,3.6660156 20.903758,5.0527989 21.720768,8.0962409 20.333984,10.5 a 1.0001,1.0001 0 0 0 -0.0039,0.0059 c -0.207862,0.365596 -0.405439,0.467479 -0.626953,0.513672 -0.221514,0.04619 -0.500131,-0.0028 -0.742188,-0.142578 -0.242056,-0.139755 -0.42144,-0.35733 -0.492187,-0.572265 -0.07075,-0.214936 -0.08183,-0.4360224 0.130859,-0.7988286 0.46612,-0.7950919 0.548853,-1.6937513 0.304688,-2.4355469 C 18.660132,6.3285169 18.137563,5.7530948 17.509766,5.390625 16.881968,5.0281552 16.123875,4.8640122 15.359375,5.0234375 c -0.763266,0.1591679 -1.499376,0.6795052 -1.955078,1.4785156 -7.37e-4,0.00129 -0.0012,0.00261 -0.002,0.00391 L 4.8476562,20.478516 a 1.0001,1.0001 0 0 0 -0.015625,0.02539 c -0.2092981,0.366272 -0.409919,0.470242 -0.6347656,0.517578 -0.2248466,0.04734 -0.5073962,-8.78e-4 -0.7519531,-0.140625 -0.2445569,-0.139746 -0.426629,-0.356472 -0.5,-0.574218 -0.073198,-0.217234 -0.084718,-0.443846 0.1230469,-0.808594 4.905e-4,-8.61e-4 -4.93e-4,-0.0011 0,-0.002 L 11.652344,5.5234375 A 1.0001,1.0001 0 0 0 11.666016,5.5 c 1.040088,-1.8028193 3.012178,-2.7134195 4.947265,-2.4707031 z"
     id="path2" />
  <path
     style="color:#000000;fill:#000000;-inkscape-stroke:none"
     d="m 15.271484,1.1367187 a 1,1 0 0 0 -0.761718,0.091797 1,1 0 0 0 -0.38086,1.3613282 l 2.75,4.9003906 a 1,1 0 0 0 1.361328,0.3808593 1,1 0 0 0 0.38086,-1.3613281 l -2.75,-4.8984375 a 1,1 0 0 0 -0.59961,-0.4746094 z"
     id="path4" />
  <path
     style="color:#000000;fill:#000000;-inkscape-stroke:none"
     d="M 11.216797,3.8515625 A 1,1 0 0 0 10.453125,3.90625 1,1 0 0 0 10.005859,5.2480469 l 2.09961,4.1992187 a 1,1 0 0 0 1.341797,0.4472657 1,1 0 0 0 0.447265,-1.3417969 L 11.794922,4.3535156 A 1,1 0 0 0 11.216797,3.8515625 Z"
     id="path6" />
  <path
     style="color:#000000;fill:#000000;-inkscape-stroke:none"
     d="m 8.2519531,8.7636719 a 1,1 0 0 0 -0.765625,0.025391 1,1 0 0 0 -0.4960937,1.3242185 l 2,4.400391 a 1,1 0 0 0 1.3242186,0.496094 1,1 0 0 0 0.496094,-1.324219 L 8.8105469,9.2871094 A 1,1 0 0 0 8.2519531,8.7636719 Z"
     id="path8" />
  <path
     style="color:#000000;fill:#000000;-inkscape-stroke:none"
     d="m 5.2167969,13.751953 a 1,1 0 0 0 -0.7636719,0.05274 1,1 0 0 0 -0.4472656,1.341796 l 2.0996093,4.201172 a 1,1 0 0 0 1.3417969,0.447266 1,1 0 0 0 0.4472656,-1.341797 L 5.7949219,14.251953 a 1,1 0 0 0 -0.578125,-0.5 z"
     id="path10" />
</svg>
