<?xml version="1.0" encoding="UTF-8" standalone="no"?>
<svg
   width="24"
   height="24"
   viewBox="0 0 24 24"
   fill="none"
   stroke="currentColor"
   stroke-width="2"
   stroke-linecap="round"
   stroke-linejoin="round"
   version="1.1"
   id="svg8"
   xmlns="http://www.w3.org/2000/svg"
   xmlns:svg="http://www.w3.org/2000/svg">
  <defs
     id="defs12" />
  <path
     style="color:#000000;fill:#000000;-inkscape-stroke:none"
     d="M 5.2460937,6 C 4.1077732,5.992078 3.0591041,6.6337993 2.546875,7.6503906 a 1.0001,1.0001 0 0 0 -0.00391,0.00977 L 1.7460937,9.28125 C 1.256276,10.254936 1.001158,11.328022 1,12.417969 a 1.0001,1.0001 0 0 0 0,0.002 V 16 a 1.0001,1.0001 0 0 0 1,1 H 4 A 1,1 0 0 0 5,16 1,1 0 0 0 4,15 H 3 v -2.578125 -0.002 C 3.001126,11.642 3.1836001,10.874647 3.5332031,10.179688 a 1.0001,1.0001 0 0 0 0.00391,-0.0098 L 4.3339844,8.5507813 C 4.5060167,8.2093587 4.8501165,7.9973394 5.2324219,8 a 1.0001,1.0001 0 0 0 0.00781,0 H 12.5 l 2.699219,3.599609 a 1.0001,1.0001 0 0 0 0.636719,0.386719 l 5.160156,0.859375 a 1.0001,1.0001 0 0 0 0.0039,0.002 1.0001,1.0001 0 0 0 0,0.002 V 15 h -2 a 1,1 0 0 0 -1,1 1,1 0 0 0 1,1 h 3 a 1.0001,1.0001 0 0 0 1,-1 v -3.146484 c 0.0028,-0.97619 -0.716069,-1.824282 -1.679688,-1.980469 L 16.560547,10.080078 14.099609,6.8007812 C 13.722427,6.2978717 13.128637,6 12.5,6 Z M 9,15 a 1,1 0 0 0 -1,1 1,1 0 0 0 1,1 h 5 a 1,1 0 0 0 1,-1 1,1 0 0 0 -1,-1 z"
     id="path2" />
  <path
     style="color:#000000;fill:#000000;-inkscape-stroke:none"
     d="M 6.5,13 C 4.5788499,13 3,14.57885 3,16.5 3,18.42115 4.5788499,20 6.5,20 8.4211501,20 10,18.42115 10,16.5 10,14.57885 8.4211501,13 6.5,13 Z m 0,2 C 7.3402709,15 8,15.659729 8,16.5 8,17.340271 7.3402709,18 6.5,18 5.6597291,18 5,17.340271 5,16.5 5,15.659729 5.6597291,15 6.5,15 Z"
     id="circle4" />
  <path
     style="color:#000000;fill:#000000;-inkscape-stroke:none"
     d="M 16.5,13 C 14.57885,13 13,14.57885 13,16.5 13,18.42115 14.57885,20 16.5,20 18.42115,20 20,18.42115 20,16.5 20,14.57885 18.42115,13 16.5,13 Z m 0,2 C 17.340271,15 18,15.659729 18,16.5 18,17.340271 17.340271,18 16.5,18 15.659729,18 15,17.340271 15,16.5 15,15.659729 15.659729,15 16.5,15 Z"
     id="circle6" />
</svg>
