<?xml version="1.0" encoding="UTF-8" standalone="no"?>
<svg
   width="24"
   height="24"
   viewBox="0 0 24 24"
   fill="none"
   stroke="currentColor"
   stroke-width="2"
   stroke-linecap="round"
   stroke-linejoin="round"
   version="1.1"
   id="svg8"
   xmlns="http://www.w3.org/2000/svg"
   xmlns:svg="http://www.w3.org/2000/svg">
  <defs
     id="defs12" />
  <path
     style="color:#000000;fill:#000000;-inkscape-stroke:none"
     d="M 12.082031,6.5820312 C 10.679576,6.498428 9.1721743,7.0250826 7.9335937,8.2617188 a 1.0001,1.0001 0 0 0 0,0.00195 C 6.2374341,9.9598316 4.7126731,13.151274 3.4628906,16.011719 2.2131082,18.872163 1.328125,21.365234 1.328125,21.365234 a 1.0001,1.0001 0 0 0 1.2753906,1.277344 c 0,0 2.4977578,-0.884337 5.359375,-2.132812 2.8616174,-1.248476 6.0516554,-2.770406 7.7441404,-4.462891 0.104767,-0.104602 0.131882,-0.231604 0.226563,-0.339844 a 1,1 0 0 0 0.113281,0 1,1 0 0 0 0.259766,-0.560547 c 0.718415,-1.038913 1.149101,-2.155776 1.085937,-3.24414 C 17.311178,10.499759 16.664901,9.2210853 15.712891,8.2675781 14.76088,7.3140709 13.484486,6.6656345 12.082031,6.5820312 Z m -0.11914,1.9960938 c 0.851709,0.050772 1.695996,0.4645244 2.333984,1.1035156 0.637988,0.6389914 1.050175,1.4841494 1.099609,2.3359374 0.02615,0.450566 -0.05814,0.908534 -0.253906,1.371094 l -1.554687,-1.556641 a 1,1 0 0 0 -1.414063,0 1,1 0 0 0 0,1.416016 l 1.681641,1.681641 C 12.511435,16.073422 9.744127,17.54929 7.1621094,18.675781 5.5063756,19.39815 5.0302858,19.545126 4.0585937,19.912109 4.4257225,18.94123 4.5721639,18.466715 5.2949219,16.8125 5.7590048,15.750329 6.3103136,14.673231 6.8515625,13.630859 l 1.0839844,1.078125 a 1,1 0 0 0 1.4140625,-0.0039 1,1 0 0 0 -0.00391,-1.414062 L 7.8828125,11.835938 C 8.394884,10.99244 8.9198613,10.105529 9.3476563,9.6777344 10.231955,8.7954414 11.111611,8.5273785 11.962891,8.578125 Z"
     id="path2" />
  <path
     style="color:#000000;fill:#000000;-inkscape-stroke:none"
     d="m 18.5,6 c -1.226503,0 -2.214533,0.640743 -2.962891,1.1992187 -0.748357,0.5584758 -1.269531,1.1191407 -1.269531,1.1191407 a 1.0001,1.0001 0 0 0 -0.09961,1.2363281 c 0,0 1.547594,2.4453125 4.332031,2.4453125 2.784437,0 4.332031,-2.4453125 4.332031,-2.4453125 a 1.0001,1.0001 0 0 0 0,-1.109375 C 22.832031,8.4453125 21.284437,6 18.5,6 Z m 0,2 c 1.000291,0 1.675209,0.5413266 2.130859,1 C 20.175209,9.4586734 19.500291,10 18.5,10 17.565284,10 16.900951,9.5142116 16.431641,9.0664063 16.570515,8.9459501 16.554268,8.9337319 16.732422,8.8007813 17.324063,8.359258 18.086504,8 18.5,8 Z"
     id="path4" />
  <path
     style="color:#000000;fill:#000000;-inkscape-stroke:none"
     d="M 14.445313,1.1679687 C 14.445313,1.1679687 12,2.7155635 12,5.5 c 0,2.7844365 2.445312,4.3320313 2.445313,4.3320313 a 1.0001,1.0001 0 0 0 1.232421,-0.095703 c 0,0 0.563431,-0.5165842 1.123047,-1.2636718 C 17.360397,7.7255686 18,6.7316052 18,5.5 18,2.7155635 15.554688,1.1679688 15.554688,1.1679687 a 1.0001,1.0001 0 0 0 -1.109375,0 z M 15,3.3691406 C 15.458673,3.8247915 16,4.4997093 16,5.5 16,5.9283931 15.639602,6.6855265 15.199219,7.2734375 15.067454,7.4493429 15.056958,7.4333341 14.9375,7.5703125 14.488994,7.1014617 14,6.4377115 14,5.5 14,4.4997093 14.541327,3.8247915 15,3.3691406 Z"
     id="path6" />
</svg>
