<?xml version="1.0" encoding="UTF-8" standalone="no"?>
<svg
   width="24"
   height="24"
   viewBox="0 0 24 24"
   fill="none"
   stroke="currentColor"
   stroke-width="2"
   stroke-linecap="round"
   stroke-linejoin="round"
   version="1.1"
   id="svg8"
   xmlns="http://www.w3.org/2000/svg"
   xmlns:svg="http://www.w3.org/2000/svg">
  <defs
     id="defs12" />
  <path
     style="color:#000000;fill:#000000;-inkscape-stroke:none"
     d="M 7,6 A 1.0001,1.0001 0 0 0 6.1054687,6.5527344 L 2.1054688,14.552734 a 1,1 0 0 0 0.4472656,1.341797 1,1 0 0 0 1.3417969,-0.447265 L 7,9.2363281 10.105469,15.447266 a 1,1 0 0 0 1.341797,0.447265 1,1 0 0 0 0.447265,-1.341797 L 7.8945312,6.5527344 A 1.0001,1.0001 0 0 0 7,6 Z"
     id="path2" />
  <path
     style="color:#000000;fill:#000000;-inkscape-stroke:none"
     d="m 4,12 a 1,1 0 0 0 -1,1 1,1 0 0 0 1,1 h 6 a 1,1 0 0 0 1,-1 1,1 0 0 0 -1,-1 z"
     id="path4" />
  <path
     style="color:#000000;fill:#000000;-inkscape-stroke:none"
     d="m 15,6 a 1.0001,1.0001 0 0 0 -1,1 v 4 4 a 1.0001,1.0001 0 0 0 1,1 h 4.5 c 0.916666,0 1.731441,-0.379756 2.248047,-0.960937 C 22.264652,14.457881 22.5,13.722221 22.5,13 22.5,12.277779 22.264652,11.542119 21.748047,10.960938 21.649185,10.849718 21.494288,10.788558 21.375,10.693359 21.726139,10.171114 22,9.5998371 22,9 22,8.2777786 21.764652,7.5421188 21.248047,6.9609375 20.731441,6.3797562 19.916666,6 19,6 Z m 1,2 h 3 c 0.416666,0 0.601893,0.1202446 0.751953,0.2890625 C 19.902013,8.4578804 20,8.7222224 20,9 20,9.2777776 19.902013,9.5421196 19.751953,9.7109375 19.601893,9.8797554 19.416666,10 19,10 h -3 z m 0,4 h 3 0.5 c 0.416666,0 0.601893,0.120245 0.751953,0.289063 C 20.402013,12.45788 20.5,12.722222 20.5,13 c 0,0.277778 -0.09799,0.54212 -0.248047,0.710938 C 20.101893,13.879755 19.916666,14 19.5,14 H 16 Z"
     id="path6" />
</svg>
