<?xml version="1.0" encoding="UTF-8" standalone="no"?>
<svg
   width="24"
   height="24"
   viewBox="0 0 24 24"
   fill="none"
   stroke="currentColor"
   stroke-width="2"
   stroke-linecap="round"
   stroke-linejoin="round"
   version="1.1"
   id="svg12"
   xmlns="http://www.w3.org/2000/svg"
   xmlns:svg="http://www.w3.org/2000/svg">
  <defs
     id="defs16" />
  <path
     style="color:#000000;fill:#000000;-inkscape-stroke:none"
     d="M 4,3 C 2.3552989,3 1,4.3552989 1,6 v 12 c 0,1.644701 1.3552989,3 3,3 h 16 c 1.644701,0 3,-1.355299 3,-3 V 6 C 23,4.3552989 21.644701,3 20,3 Z m 0,2 h 16 c 0.571297,0 1,0.4287033 1,1 v 12 c 0,0.571297 -0.428703,1 -1,1 H 4 C 3.4287033,19 3,18.571297 3,18 V 6 C 3,5.4287033 3.4287033,5 4,5 Z"
     id="rect2" />
  <path
     style="color:#000000;fill:#000000;-inkscape-stroke:none"
     d="m 8,7 c -1.645008,0 -3,1.354992 -3,3 0,1.645008 1.354992,3 3,3 1.645008,0 3,-1.354992 3,-3 C 11,8.354992 9.645008,7 8,7 Z M 8,9 C 8.5641288,9 9,9.4358712 9,10 9,10.564129 8.5641288,11 8,11 7.4358712,11 7,10.564129 7,10 7,9.4358712 7.4358712,9 8,9 Z"
     id="circle4" />
  <path
     style="color:#000000;fill:#000000;-inkscape-stroke:none"
     d="m 8,11 a 1,1 0 0 0 -1,1 1,1 0 0 0 1,1 h 8 a 1,1 0 0 0 1,-1 1,1 0 0 0 -1,-1 z"
     id="path6" />
  <path
     style="color:#000000;fill:#000000;-inkscape-stroke:none"
     d="m 16,7 c -1.645008,0 -3,1.354992 -3,3 0,1.645008 1.354992,3 3,3 1.645008,0 3,-1.354992 3,-3 0,-1.645008 -1.354992,-3 -3,-3 z m 0,2 c 0.564129,0 1,0.4358712 1,1 0,0.564129 -0.435871,1 -1,1 -0.564129,0 -1,-0.435871 -1,-1 0,-0.5641288 0.435871,-1 1,-1 z"
     id="circle8" />
  <path
     style="color:#000000;fill:#000000;-inkscape-stroke:none"
     d="m 8.1230469,15 c -1.1409542,-0.02644 -2.1529109,0.770479 -2.3984375,1.884766 -2.043e-4,9.27e-4 -0.00175,0.001 -0.00195,0.002 L 5.0273437,19.765625 A 1,1 0 0 0 5.765625,20.972656 1,1 0 0 0 6.9726562,20.234375 L 7.671875,17.333984 a 1.0001,1.0001 0 0 0 0.00586,-0.01953 C 7.7200321,17.121396 7.8785881,16.995421 8.0761719,17 a 1.0001,1.0001 0 0 0 0.023437,0 h 7.8007816 a 1.0001,1.0001 0 0 0 0.04101,0 c 0.187079,-0.0078 0.343951,0.104466 0.398438,0.283203 l 0.685547,2.943359 a 1,1 0 0 0 1.201171,0.748047 1,1 0 0 0 0.748047,-1.201172 l -0.701172,-3 a 1.0001,1.0001 0 0 0 -0.01563,-0.05859 C 17.94618,15.666165 16.952439,14.954676 15.859375,15 Z"
     id="path10" />
</svg>
