<?xml version="1.0" encoding="UTF-8" standalone="no"?>
<svg
   width="24"
   height="24"
   viewBox="0 0 24 24"
   fill="none"
   stroke="currentColor"
   stroke-width="2"
   stroke-linecap="round"
   stroke-linejoin="round"
   version="1.1"
   id="svg20"
   xmlns="http://www.w3.org/2000/svg"
   xmlns:svg="http://www.w3.org/2000/svg">
  <defs
     id="defs24" />
  <path
     style="color:#000000;fill:#000000;-inkscape-stroke:none"
     d="m 2,10 a 1.0001,1.0001 0 0 0 -1,1 v 9 c 0,1.645008 1.354992,3 3,3 h 16 c 1.645008,0 3,-1.354992 3,-3 v -9 a 1.0001,1.0001 0 0 0 -1,-1 z m 1,2 h 18 v 8 c 0,0.564129 -0.435871,1 -1,1 H 4 C 3.4358712,21 3,20.564129 3,20 Z"
     id="path2" />
  <path
     style="color:#000000;fill:#000000;-inkscape-stroke:none"
     d="M 6,3 A 1.0001,1.0001 0 0 0 5,4 v 7 a 1,1 0 0 0 1,1 1,1 0 0 0 1,-1 V 5 h 10 v 6 a 1,1 0 0 0 1,1 1,1 0 0 0 1,-1 V 4 A 1.0001,1.0001 0 0 0 18,3 Z"
     id="path4" />
  <path
     style="color:#000000;fill:#000000;-inkscape-stroke:none"
     d="m 12,14 c -2.1972922,0 -4,1.802708 -4,4 v 4 a 1,1 0 0 0 1,1 1,1 0 0 0 1,-1 v -4 c 0,-1.116413 0.883587,-2 2,-2 1.116413,0 2,0.883587 2,2 v 4 a 1,1 0 0 0 1,1 1,1 0 0 0 1,-1 v -4 c 0,-2.197292 -1.802708,-4 -4,-4 z"
     id="path6" />
  <path
     style="color:#000000;fill:#000000;-inkscape-stroke:none"
     d="m 22,8 a 1,1 0 0 0 -1,1 v 2 a 1,1 0 0 0 1,1 1,1 0 0 0 1,-1 V 9 A 1,1 0 0 0 22,8 Z"
     id="path8" />
  <path
     style="color:#000000;fill:#000000;-inkscape-stroke:none"
     d="M 2,8 A 1,1 0 0 0 1,9 v 2 a 1,1 0 0 0 1,1 1,1 0 0 0 1,-1 V 9 A 1,1 0 0 0 2,8 Z"
     id="path10" />
  <path
     style="color:#000000;fill:#000000;-inkscape-stroke:none"
     d="M 6,1 A 1,1 0 0 0 5,2 V 4 A 1,1 0 0 0 6,5 1,1 0 0 0 7,4 V 2 A 1,1 0 0 0 6,1 Z"
     id="path12" />
  <path
     style="color:#000000;fill:#000000;-inkscape-stroke:none"
     d="m 18,1 a 1,1 0 0 0 -1,1 v 2 a 1,1 0 0 0 1,1 1,1 0 0 0 1,-1 V 2 A 1,1 0 0 0 18,1 Z"
     id="path14" />
  <path
     style="color:#000000;fill:#000000;-inkscape-stroke:none"
     d="M 10,1 A 1,1 0 0 0 9,2 v 2 a 1,1 0 0 0 1,1 1,1 0 0 0 1,-1 V 2 A 1,1 0 0 0 10,1 Z"
     id="path16" />
  <path
     style="color:#000000;fill:#000000;-inkscape-stroke:none"
     d="m 14,1 a 1,1 0 0 0 -1,1 v 2 a 1,1 0 0 0 1,1 1,1 0 0 0 1,-1 V 2 A 1,1 0 0 0 14,1 Z"
     id="path18" />
</svg>
