<?xml version="1.0" encoding="UTF-8" standalone="no"?>
<svg
   width="24"
   height="24"
   viewBox="0 0 24 24"
   fill="none"
   stroke="currentColor"
   stroke-width="2"
   stroke-linecap="round"
   stroke-linejoin="round"
   version="1.1"
   id="svg10"
   xmlns="http://www.w3.org/2000/svg"
   xmlns:svg="http://www.w3.org/2000/svg">
  <defs
     id="defs14" />
  <path
     style="color:#000000;fill:#000000;-inkscape-stroke:none"
     d="M 4,3 C 2.354992,3 1,4.354992 1,6 V 8 A 1,1 0 0 0 2,9 1,1 0 0 0 3,8 V 6 C 3,5.4358712 3.4358712,5 4,5 h 16 c 0.564129,0 1,0.4358712 1,1 v 12 c 0,0.564129 -0.435871,1 -1,1 h -6 a 1,1 0 0 0 -1,1 1,1 0 0 0 1,1 h 6 c 1.645008,0 3,-1.354992 3,-3 V 6 C 23,4.354992 21.645008,3 20,3 Z"
     id="path2" />
  <path
     style="color:#000000;fill:#000000;-inkscape-stroke:none"
     d="m 2.1054688,11.005859 a 1,1 0 0 0 -1.0996094,0.888672 1,1 0 0 0 0.8886718,1.09961 c 3.7559626,0.398582 6.7127453,3.355365 7.1113282,7.111328 a 1,1 0 0 0 1.0996096,0.888672 1,1 0 0 0 0.888672,-1.09961 C 10.497294,15.212599 6.7874006,11.502706 2.1054688,11.005859 Z"
     id="path4" />
  <path
     style="color:#000000;fill:#000000;-inkscape-stroke:none"
     d="m 2.1835938,15.017578 a 1,1 0 0 0 -1.1660157,0.798828 1,1 0 0 0 0.7988281,1.166016 c 1.6286593,0.303327 2.8978446,1.572513 3.2011719,3.201172 a 1,1 0 0 0 1.1660156,0.798828 1,1 0 0 0 0.7988282,-1.166016 C 6.5288858,17.38123 4.6187704,15.471114 2.1835938,15.017578 Z"
     id="path6" />
  <path
     style="color:#000000;fill:#000000;-inkscape-stroke:none"
     d="m 2,19 a 1,1 0 0 0 -1,1 1,1 0 0 0 1,1 h 0.00977 a 1,1 0 0 0 1,-1 1,1 0 0 0 -1,-1 z"
     id="line8" />
</svg>
