<?xml version="1.0" encoding="UTF-8" standalone="no"?>
<svg
   width="24"
   height="24"
   viewBox="0 0 24 24"
   fill="none"
   stroke="currentColor"
   stroke-width="2"
   stroke-linecap="round"
   stroke-linejoin="round"
   version="1.1"
   id="svg10"
   xmlns="http://www.w3.org/2000/svg"
   xmlns:svg="http://www.w3.org/2000/svg">
  <defs
     id="defs14" />
  <path
     style="color:#000000;fill:#000000;-inkscape-stroke:none"
     d="M 4.9082031,1.8007812 C 4.2726046,1.7672734 3.670031,1.844674 3.1152344,2.0761719 2.6017868,2.2904162 2.3163192,2.7466858 2.1796875,3.1347656 2.0430558,3.5228454 2.0030074,3.9080011 1.9921875,4.3125 1.9705476,5.1214979 2.0884624,6.0184349 2.2441406,6.8925781 2.5215763,8.4503967 2.8659081,9.6116291 2.953125,9.9140625 2.4840545,10.914363 2,12.072018 2,13.439453 2,16.014041 3.171076,18.220054 5.0058594,19.707031 6.8406427,21.194008 9.3137954,22 12,22 14.692911,22 17.165087,21.163984 18.996094,19.666016 20.8271,18.168047 22,15.970646 22,13.439453 22,12.148146 21.571936,10.972828 21.044922,9.9082031 21.128123,9.6084393 21.460245,8.4432368 21.720703,6.8828125 21.866658,6.0083861 21.974438,5.1099317 21.943359,4.3007812 21.92782,3.896206 21.885054,3.5115977 21.744141,3.125 21.603227,2.7384023 21.314451,2.2881687 20.802734,2.0761719 19.694178,1.6143568 18.404956,1.7768174 17.050781,2.2109375 15.868014,2.590108 14.691869,3.2852528 13.707031,4.2226562 13.143241,4.1113514 12.575291,4 12,4 a 1.0001,1.0001 0 0 0 -0.002,0 C 11.425212,4.001671 10.858492,4.0963168 10.294922,4.1953125 9.2997999,3.2520034 8.1003752,2.5631144 6.8984375,2.1914063 6.2113437,1.9789174 5.5438016,1.8342891 4.9082031,1.8007812 Z m -0.859375,2.1347657 c 0.3565162,-0.097866 1.2497674,-0.1443807 2.2597656,0.1679687 1.08331,0.3350216 2.2166325,0.972274 2.9453126,1.7910156 A 1.0001,1.0001 0 0 0 10.224609,6.2050781 C 10.807432,6.0710237 11.401967,6.0018894 12,6 h 0.002 c 0.579848,1.732e-4 1.176353,0.078064 1.744141,0.2265625 a 1.0001,1.0001 0 0 0 1,-0.3007813 c 0.735277,-0.8261542 1.853417,-1.4699001 2.916015,-1.8105468 0.994403,-0.3187847 1.870524,-0.2780239 2.220703,-0.1796875 0.025,0.1033339 0.05415,0.2240801 0.0625,0.4414062 0.02142,0.5577232 -0.06322,1.3727094 -0.197265,2.1757813 -0.26809,1.6061438 -0.710938,3.1738281 -0.710938,3.1738281 a 1.0001,1.0001 0 0 0 0.08008,0.7441405 C 19.643086,11.457916 20,12.478343 20,13.439453 20,15.368255 19.156959,16.952112 17.730469,18.119141 16.303978,19.28617 14.277084,20 12,20 9.7162095,20 7.6883384,19.305364 6.265625,18.152344 4.8429116,16.999324 4,15.42486 4,13.439453 4,12.456121 4.4123222,11.448776 4.9003906,10.433594 a 1.0001,1.0001 0 0 0 0.058594,-0.7167971 c 0,0 -0.4599509,-1.5671179 -0.7460938,-3.1738282 C 4.0698192,5.7396136 3.9772649,4.9231101 3.9921875,4.3652344 3.9978484,4.153605 4.0257918,4.0393191 4.0488281,3.9355469 Z"
     id="path2" />
  <path
     style="color:#000000;fill:#000000;-inkscape-stroke:none"
     d="m 8,13 a 1,1 0 0 0 -1,1 v 0.5 a 1,1 0 0 0 1,1 1,1 0 0 0 1,-1 V 14 A 1,1 0 0 0 8,13 Z"
     id="path4" />
  <path
     style="color:#000000;fill:#000000;-inkscape-stroke:none"
     d="m 16,13 a 1,1 0 0 0 -1,1 v 0.5 a 1,1 0 0 0 1,1 1,1 0 0 0 1,-1 V 14 a 1,1 0 0 0 -1,-1 z"
     id="path6" />
  <path
     style="color:#000000;fill:#000000;-inkscape-stroke:none"
     d="m 11.25,15.25 a 1.0001,1.0001 0 0 0 -0.707031,1.707031 l 0.75,0.75 a 1.0001,1.0001 0 0 0 1.414062,0 l 0.75,-0.75 A 1.0001,1.0001 0 0 0 12.75,15.25 Z"
     id="path8" />
</svg>
