<?xml version="1.0" encoding="UTF-8" standalone="no"?>
<svg
   width="24"
   height="24"
   viewBox="0 0 24 24"
   fill="none"
   stroke="currentColor"
   stroke-width="2"
   stroke-linecap="round"
   stroke-linejoin="round"
   version="1.1"
   id="svg6"
   xmlns="http://www.w3.org/2000/svg"
   xmlns:svg="http://www.w3.org/2000/svg">
  <defs
     id="defs10" />
  <path
     style="color:#000000;fill:#000000;-inkscape-stroke:none"
     d="M 12,1 C 5.9365993,1 1,5.9365993 1,12 1,18.063401 5.9365993,23 12,23 18.063401,23 23,18.063401 23,12 23,5.9365993 18.063401,1 12,1 Z m 0,2 c 4.982588,0 9,4.0174118 9,9 0,4.982588 -4.017412,9 -9,9 C 7.0174118,21 3,16.982588 3,12 3,7.0174118 7.0174118,3 12,3 Z"
     id="path2" />
  <path
     style="color:#000000;fill:#000000;-inkscape-stroke:none"
     d="M 15,9 A 1,1 0 0 0 14.292969,9.2929688 L 11,12.585938 9.7070313,11.292969 a 1,1 0 0 0 -1.4140625,0 1,1 0 0 0 0,1.414062 l 2.0000002,2 a 1.0001,1.0001 0 0 0 1.414062,0 l 4,-4 a 1,1 0 0 0 0,-1.4140622 A 1,1 0 0 0 15,9 Z"
     id="path4" />
</svg>
