<?xml version="1.0" encoding="UTF-8" standalone="no"?>
<svg
   width="24"
   height="24"
   viewBox="0 0 24 24"
   fill="none"
   stroke="currentColor"
   stroke-width="2"
   stroke-linecap="round"
   stroke-linejoin="round"
   version="1.1"
   id="svg6"
   xmlns="http://www.w3.org/2000/svg"
   xmlns:svg="http://www.w3.org/2000/svg">
  <defs
     id="defs10" />
  <path
     style="color:#000000;fill:#000000;-inkscape-stroke:none"
     d="M 17.292969,5.2929687 7,15.585938 2.7070313,11.292969 a 1,1 0 0 0 -1.4140626,0 1,1 0 0 0 0,1.414062 l 5,5 a 1.0001,1.0001 0 0 0 1.4140625,0 L 18.707031,6.7070312 a 1,1 0 0 0 0,-1.4140625 1,1 0 0 0 -1.414062,0 z"
     id="path2" />
  <path
     style="color:#000000;fill:#000000;-inkscape-stroke:none"
     d="M 21.292969,9.2929688 14.5,16.085937 13.707031,15.292969 a 1,1 0 0 0 -1.414062,0 1,1 0 0 0 0,1.414062 l 1.5,1.5 a 1.0001,1.0001 0 0 0 1.414062,0 l 7.5,-7.5 a 1,1 0 0 0 0,-1.4140622 1,1 0 0 0 -1.414062,0 z"
     id="path4" />
</svg>
