<?xml version="1.0" encoding="UTF-8" standalone="no"?>
<svg
   width="24"
   height="24"
   viewBox="0 0 24 24"
   fill="none"
   stroke="currentColor"
   stroke-width="2"
   stroke-linecap="round"
   stroke-linejoin="round"
   version="1.1"
   id="svg6"
   xmlns="http://www.w3.org/2000/svg"
   xmlns:svg="http://www.w3.org/2000/svg">
  <defs
     id="defs10" />
  <path
     style="color:#000000;fill:#000000;-inkscape-stroke:none"
     d="M 12.794922,0.9921875 C 9.1702047,0.70068157 5.8193748,2.295503 3.6386719,4.8476562 0.73106793,8.2505272 -0.17161206,13.441219 2.7734375,17.980469 c 2.9450496,4.53925 8.0533045,5.830965 12.3457035,4.5625 C 19.411539,21.274503 22.996905,17.412846 23,12 v -0.919922 a 1,1 0 0 0 -1,-1 1,1 0 0 0 -1,1 V 12 c -0.0026,4.545037 -2.901562,7.577194 -6.447266,8.625 C 11.007031,21.672806 6.9237882,20.70366 4.4511719,16.892578 1.9785556,13.081497 2.756399,8.9574 5.1582031,6.1464844 7.5600072,3.3355687 11.510544,1.923608 15.662109,3.7734375 A 1,1 0 0 0 16.984375,3.2675781 1,1 0 0 0 16.476562,1.9472656 C 15.240501,1.3965087 14.003161,1.0893561 12.794922,0.9921875 Z"
     id="path2" />
  <path
     style="color:#000000;fill:#000000;-inkscape-stroke:none"
     d="M 22,3 A 1,1 0 0 0 21.292969,3.2929688 L 12,12.595703 9.7070313,10.302734 a 1,1 0 0 0 -1.4140625,0 1,1 0 0 0 0,1.414063 l 3.0000002,3 a 1.0001,1.0001 0 0 0 1.414062,0 l 10,-10.0097658 a 1,1 0 0 0 0,-1.4140624 A 1,1 0 0 0 22,3 Z"
     id="polyline4" />
</svg>
