<?xml version="1.0" encoding="UTF-8" standalone="no"?>
<svg
   width="24"
   height="24"
   viewBox="0 0 24 24"
   fill="none"
   stroke="currentColor"
   stroke-width="2"
   stroke-linecap="round"
   stroke-linejoin="round"
   version="1.1"
   id="svg6"
   xmlns="http://www.w3.org/2000/svg"
   xmlns:svg="http://www.w3.org/2000/svg">
  <defs
     id="defs10" />
  <path
     style="color:#000000;fill:#000000;-inkscape-stroke:none"
     d="M 21.292969,3.2929688 12,12.585938 9.7070313,10.292969 a 1,1 0 0 0 -1.4140625,0 1,1 0 0 0 0,1.414062 l 3.0000002,3 a 1.0001,1.0001 0 0 0 1.414062,0 l 10,-9.9999998 a 1,1 0 0 0 0,-1.4140624 1,1 0 0 0 -1.414062,0 z"
     id="polyline2" />
  <path
     style="color:#000000;fill:#000000;-inkscape-stroke:none"
     d="M 5,2 C 3.354992,2 2,3.354992 2,5 v 14 c 0,1.645008 1.354992,3 3,3 h 14 c 1.645008,0 3,-1.354992 3,-3 v -7 a 1,1 0 0 0 -1,-1 1,1 0 0 0 -1,1 v 7 c 0,0.564129 -0.435871,1 -1,1 H 5 C 4.4358712,20 4,19.564129 4,19 V 5 C 4,4.4358712 4.4358712,4 5,4 H 16 A 1,1 0 0 0 17,3 1,1 0 0 0 16,2 Z"
     id="path4" />
</svg>
