<?xml version="1.0" encoding="UTF-8" standalone="no"?>
<svg
   width="24"
   height="24"
   viewBox="0 0 24 24"
   fill="none"
   stroke="currentColor"
   stroke-width="2"
   stroke-linecap="round"
   stroke-linejoin="round"
   version="1.1"
   id="svg6"
   xmlns="http://www.w3.org/2000/svg"
   xmlns:svg="http://www.w3.org/2000/svg">
  <defs
     id="defs10" />
  <path
     style="color:#000000;fill:#000000;-inkscape-stroke:none"
     d="m 12,1.9980469 c -1.540015,0 -3.0800803,0.5849364 -4.2480469,1.7558594 A 1.0001,1.0001 0 0 0 7.75,3.7558594 C 7.3801974,4.1283161 7.1332019,4.5942769 6.8710937,5.046875 5.6424424,5.0268716 4.5171023,5.3285863 3.6992188,5.9902344 2.7255991,6.7778693 2.1290541,7.8999393 1.9179687,9.078125 c -0.2110853,1.178186 -0.04,2.437009 0.5996094,3.513672 C 3.0281441,13.451239 3.9246379,14.086455 5,14.505859 V 21 a 1.0001,1.0001 0 0 0 1,1 h 12 a 1.0001,1.0001 0 0 0 1,-1 v -6.494141 c 1.075362,-0.419404 1.971856,-1.05462 2.482422,-1.914062 0.639609,-1.076663 0.810695,-2.335486 0.599609,-3.513672 C 21.870946,7.8999393 21.274401,6.7778693 20.300781,5.9902344 19.482898,5.3285863 18.357558,5.0268716 17.128906,5.046875 16.866798,4.5942769 16.619803,4.1283161 16.25,3.7558594 a 1.0001,1.0001 0 0 0 -0.002,-0.00195 C 15.08008,2.5829833 13.540015,1.9980469 12,1.9980469 Z m 0,1.9863281 c 1.023163,0 2.046361,0.3939817 2.832031,1.1816406 0.354177,0.3571939 0.640925,0.7759958 0.84375,1.2363281 a 1.0001,1.0001 0 0 0 1.056641,0.5878907 c 1.030805,-0.1484615 1.75423,0.1046408 2.310547,0.5546875 0.556316,0.4500466 0.936676,1.1388688 1.070312,1.8847656 0.133636,0.7458965 0.01586,1.5254305 -0.349609,2.1406255 -0.365467,0.615194 -0.954426,1.103619 -1.972656,1.322265 A 1.0001,1.0001 0 0 0 17,13.869141 V 20 H 7 V 13.869141 A 1.0001,1.0001 0 0 0 6.2089844,12.892578 C 5.1907541,12.673932 4.6017945,12.185507 4.2363281,11.570313 3.8708617,10.955118 3.7530829,10.175584 3.8867188,9.4296875 4.0203546,8.6837907 4.4007148,7.9949685 4.9570312,7.5449219 5.5133477,7.0948752 6.2367734,6.8417729 7.2675781,6.9902344 A 1.0001,1.0001 0 0 0 8.3242188,6.4023437 C 8.5274123,5.9411766 8.8148539,5.5216789 9.1699219,5.1640625 9.9553278,4.3777407 10.977705,3.984375 12,3.984375 Z"
     id="path2" />
  <path
     style="color:#000000;fill:#000000;-inkscape-stroke:none"
     d="m 6,16 a 1,1 0 0 0 -1,1 1,1 0 0 0 1,1 h 12 a 1,1 0 0 0 1,-1 1,1 0 0 0 -1,-1 z"
     id="line4" />
</svg>
