<?xml version="1.0" encoding="UTF-8" standalone="no"?>
<svg
   width="24"
   height="24"
   viewBox="0 0 24 24"
   fill="none"
   stroke="currentColor"
   stroke-width="2"
   stroke-linecap="round"
   stroke-linejoin="round"
   version="1.1"
   id="svg10"
   xmlns="http://www.w3.org/2000/svg"
   xmlns:svg="http://www.w3.org/2000/svg">
  <defs
     id="defs14" />
  <path
     style="color:#000000;fill:#000000;-inkscape-stroke:none"
     d="M 5.2089844,12.271484 C 4.3971637,12.232734 3.6182825,12.455735 2.9902344,12.894531 1.734138,13.772124 1,15.318069 1,17 c 0,3.301862 2.6981405,6 6,6 3.30186,0 6,-2.698138 6,-6 0,-1.681931 -0.734138,-3.227876 -1.990234,-4.105469 C 9.9160591,12.130395 8.3856886,12.18781 7,12.974609 6.4100268,12.63962 5.8108985,12.300215 5.2089844,12.271484 Z m -0.089844,1.929688 c 0.3600532,0.0175 0.7654487,0.187749 1.2558594,0.580078 a 1.0001,1.0001 0 0 0 1.25,0 C 8.6058215,13.996593 9.2463326,14.10275 9.8652344,14.535156 10.484136,14.967562 11,15.921933 11,17 11,19.220984 9.2209823,21 7,21 4.7790177,21 3,19.220984 3,17 3,15.921933 3.5158638,14.967562 4.1347656,14.535156 4.4442165,14.318953 4.7590875,14.183672 5.1191406,14.201172 Z"
     id="path2" />
  <path
     style="color:#000000;fill:#000000;-inkscape-stroke:none"
     d="m 15.208984,12.271484 c -0.81182,-0.03875 -1.590701,0.184251 -2.21875,0.623047 C 11.734138,13.772124 11,15.318069 11,17 c 0,3.301862 2.69814,6 6,6 3.30186,0 6,-2.698138 6,-6 0,-1.681931 -0.734138,-3.227876 -1.990234,-4.105469 C 19.916059,12.130395 18.385689,12.18781 17,12.974609 16.410027,12.63962 15.810899,12.300215 15.208984,12.271484 Z m -0.08984,1.929688 c 0.360053,0.0175 0.765448,0.187749 1.255859,0.580078 a 1.0001,1.0001 0 0 0 1.25,0 c 0.980821,-0.784657 1.621333,-0.6785 2.240234,-0.246094 C 20.484136,14.967562 21,15.921933 21,17 c 0,2.220984 -1.779018,4 -4,4 -2.220982,0 -4,-1.779016 -4,-4 0,-1.078067 0.515864,-2.032438 1.134766,-2.464844 0.309451,-0.216203 0.624321,-0.351484 0.984375,-0.333984 z"
     id="path4" />
  <path
     style="color:#000000;fill:#000000;-inkscape-stroke:none"
     d="m 11.804688,1.0195312 a 1.0001,1.0001 0 0 0 -0.78125,0.7675782 C 10.304838,5.0764731 9.1380559,10.720168 6.3300781,13.257813 a 1,1 0 0 0 -0.072266,1.412109 1,1 0 0 0 1.4121094,0.07227 C 10.565071,12.125764 11.620415,8.0340572 12.345703,4.7441406 12.972207,5.8538642 13.565836,6.7802272 14.185547,8.1738281 15.197764,10.450093 15.97699,12.869056 16,14.019531 A 1,1 0 0 0 17.019531,15 1,1 0 0 0 18,13.980469 C 17.96301,12.130947 17.071453,9.7400585 16.013672,7.3613281 14.955891,4.9825977 13.722394,2.7210799 12.820313,1.4277344 A 1.0001,1.0001 0 0 0 11.804688,1.0195312 Z"
     id="path6" />
  <path
     style="color:#000000;fill:#000000;-inkscape-stroke:none"
     d="m 12,1 a 1.0001,1.0001 0 0 0 -0.853516,1.5214844 c 1.468578,2.3979923 2.967302,4.2588793 4.730469,5.5390625 C 17.640121,9.34073 19.673961,10 22,10 A 1.0001,1.0001 0 0 0 23,9 C 23,7.2212679 21.711276,5.4341081 19.773437,3.8515625 17.835599,2.2690169 15.127618,1 12,1 Z m 2.234375,2.4335938 c 1.634526,0.402884 3.144777,1.0450703 4.273437,1.9667968 C 19.48106,6.1951981 20.083218,7.0433968 20.488281,7.78125 19.235099,7.5735475 18.089474,7.1955702 17.050781,6.4414062 16.083434,5.7390444 15.157368,4.6727373 14.234375,3.4335938 Z"
     id="path8" />
</svg>
