<?xml version="1.0" encoding="UTF-8" standalone="no"?>
<svg
   width="24"
   height="24"
   viewBox="0 0 24 24"
   fill="none"
   stroke="currentColor"
   stroke-width="2"
   stroke-linecap="round"
   stroke-linejoin="round"
   version="1.1"
   id="svg6"
   xmlns="http://www.w3.org/2000/svg"
   xmlns:svg="http://www.w3.org/2000/svg">
  <defs
     id="defs10" />
  <path
     style="color:#000000;fill:#000000;-inkscape-stroke:none"
     d="m 19.292969,6.2929687 -5,5.0000003 a 1.0001,1.0001 0 0 0 0,1.414062 l 5,5 a 1,1 0 0 0 1.414062,0 1,1 0 0 0 0,-1.414062 L 16.414062,12 20.707031,7.7070312 a 1,1 0 0 0 0,-1.4140625 1,1 0 0 0 -1.414062,0 z"
     id="path2" />
  <path
     style="color:#000000;fill:#000000;-inkscape-stroke:none"
     d="m 4,6 a 1,1 0 0 0 -0.7070312,0.2929687 1,1 0 0 0 0,1.4140625 L 7.5859375,12 3.2929688,16.292969 a 1,1 0 0 0 0,1.414062 1,1 0 0 0 1.4140624,0 l 5.0000001,-5 a 1.0001,1.0001 0 0 0 0,-1.414062 L 4.7070312,6.2929687 A 1,1 0 0 0 4,6 Z"
     id="path4" />
</svg>
