<?xml version="1.0" encoding="UTF-8" standalone="no"?>
<svg
   width="24"
   height="24"
   viewBox="0 0 24 24"
   fill="none"
   stroke="currentColor"
   stroke-width="2"
   stroke-linecap="round"
   stroke-linejoin="round"
   version="1.1"
   id="svg6"
   xmlns="http://www.w3.org/2000/svg"
   xmlns:svg="http://www.w3.org/2000/svg">
  <defs
     id="defs10" />
  <path
     style="color:#000000;fill:#000000;-inkscape-stroke:none"
     d="m 7,14 a 1,1 0 0 0 -0.7070313,0.292969 1,1 0 0 0 0,1.414062 l 5.0000003,5 a 1.0001,1.0001 0 0 0 1.414062,0 l 5,-5 a 1,1 0 0 0 0,-1.414062 1,1 0 0 0 -1.414062,0 L 12,18.585937 7.7070312,14.292969 A 1,1 0 0 0 7,14 Z"
     id="path2" />
  <path
     style="color:#000000;fill:#000000;-inkscape-stroke:none"
     d="m 11.292969,3.2929688 -5.0000003,5 a 1,1 0 0 0 0,1.4140625 1,1 0 0 0 1.4140625,0 L 12,5.4140625 16.292969,9.7070313 a 1,1 0 0 0 1.414062,0 1,1 0 0 0 0,-1.4140625 l -5,-5 a 1.0001,1.0001 0 0 0 -1.414062,0 z"
     id="path4" />
</svg>
