<?xml version="1.0" encoding="UTF-8" standalone="no"?>
<svg
   width="24"
   height="24"
   viewBox="0 0 24 24"
   fill="none"
   stroke="currentColor"
   stroke-width="2"
   stroke-linecap="round"
   stroke-linejoin="round"
   version="1.1"
   id="svg6"
   xmlns="http://www.w3.org/2000/svg"
   xmlns:svg="http://www.w3.org/2000/svg">
  <defs
     id="defs10" />
  <path
     style="color:#000000;fill:#000000;-inkscape-stroke:none"
     d="M 11.292969,5.2929687 6.2929687,10.292969 a 1,1 0 0 0 0,1.414062 1,1 0 0 0 1.4140625,0 L 12,7.4140625 16.292969,11.707031 a 1,1 0 0 0 1.414062,0 1,1 0 0 0 0,-1.414062 l -5,-5.0000003 a 1.0001,1.0001 0 0 0 -1.414062,0 z"
     id="polyline2" />
  <path
     style="color:#000000;fill:#000000;-inkscape-stroke:none"
     d="m 11.292969,12.292969 -5.0000003,5 a 1,1 0 0 0 0,1.414062 1,1 0 0 0 1.4140625,0 L 12,14.414063 l 4.292969,4.292968 a 1,1 0 0 0 1.414062,0 1,1 0 0 0 0,-1.414062 l -5,-5 a 1.0001,1.0001 0 0 0 -1.414062,0 z"
     id="polyline4" />
</svg>
