<?xml version="1.0" encoding="UTF-8" standalone="no"?>
<svg
   width="24"
   height="24"
   viewBox="0 0 24 24"
   fill="none"
   stroke="currentColor"
   stroke-width="2"
   stroke-linecap="round"
   stroke-linejoin="round"
   version="1.1"
   id="svg6"
   xmlns="http://www.w3.org/2000/svg"
   xmlns:svg="http://www.w3.org/2000/svg">
  <defs
     id="defs10" />
  <path
     style="color:#000000;fill:#000000;-inkscape-stroke:none"
     d="m 7,12 a 1,1 0 0 0 -0.7070313,0.292969 1,1 0 0 0 0,1.414062 l 5.0000003,5 a 1.0001,1.0001 0 0 0 1.414062,0 l 5,-5 a 1,1 0 0 0 0,-1.414062 1,1 0 0 0 -1.414062,0 L 12,16.585937 7.7070312,12.292969 A 1,1 0 0 0 7,12 Z"
     id="polyline2" />
  <path
     style="color:#000000;fill:#000000;-inkscape-stroke:none"
     d="m 7,5 a 1,1 0 0 0 -0.7070313,0.2929687 1,1 0 0 0 0,1.4140625 l 5.0000003,4.9999998 a 1.0001,1.0001 0 0 0 1.414062,0 l 5,-4.9999998 a 1,1 0 0 0 0,-1.4140625 1,1 0 0 0 -1.414062,0 L 12,9.5859375 7.7070312,5.2929687 A 1,1 0 0 0 7,5 Z"
     id="polyline4" />
</svg>
