<?xml version="1.0" encoding="UTF-8" standalone="no"?>
<svg
   width="24"
   height="24"
   viewBox="0 0 24 24"
   fill="none"
   stroke="currentColor"
   stroke-width="2"
   stroke-linecap="round"
   stroke-linejoin="round"
   version="1.1"
   id="svg6"
   xmlns="http://www.w3.org/2000/svg"
   xmlns:svg="http://www.w3.org/2000/svg">
  <defs
     id="defs10" />
  <path
     style="color:#000000;fill:#000000;-inkscape-stroke:none"
     d="M 11,6 A 1,1 0 0 0 10.292969,6.2929687 L 5.2929687,11.292969 a 1.0001,1.0001 0 0 0 0,1.414062 l 5.0000003,5 a 1,1 0 0 0 1.414062,0 1,1 0 0 0 0,-1.414062 L 7.4140625,12 11.707031,7.7070312 a 1,1 0 0 0 0,-1.4140625 A 1,1 0 0 0 11,6 Z"
     id="polyline2" />
  <path
     style="color:#000000;fill:#000000;-inkscape-stroke:none"
     d="m 17.292969,6.2929687 -5,5.0000003 a 1.0001,1.0001 0 0 0 0,1.414062 l 5,5 a 1,1 0 0 0 1.414062,0 1,1 0 0 0 0,-1.414062 L 14.414063,12 18.707031,7.7070312 a 1,1 0 0 0 0,-1.4140625 1,1 0 0 0 -1.414062,0 z"
     id="polyline4" />
</svg>
