<?xml version="1.0" encoding="UTF-8" standalone="no"?>
<svg
   width="24"
   height="24"
   viewBox="0 0 24 24"
   fill="none"
   stroke="currentColor"
   stroke-width="2"
   stroke-linecap="round"
   stroke-linejoin="round"
   version="1.1"
   id="svg12"
   xmlns="http://www.w3.org/2000/svg"
   xmlns:svg="http://www.w3.org/2000/svg">
  <defs
     id="defs16" />
  <path
     style="color:#000000;fill:#000000;-inkscape-stroke:none"
     d="M 12,1 C 5.9367185,1 1,5.9367185 1,12 1,18.063282 5.9367185,23 12,23 18.063282,23 23,18.063282 23,12 23,5.9367185 18.063282,1 12,1 Z m 0,2 c 4.982402,0 9,4.0175976 9,9 0,4.982402 -4.017598,9 -9,9 C 7.0175976,21 3,16.982402 3,12 3,7.0175976 7.0175976,3 12,3 Z"
     id="circle2" />
  <path
     style="color:#000000;fill:#000000;-inkscape-stroke:none"
     d="m 12,7 c -2.7495764,0 -5,2.2504236 -5,5 0,2.749576 2.2504236,5 5,5 2.749576,0 5,-2.250424 5,-5 0,-2.7495764 -2.250424,-5 -5,-5 z m 0,2 c 1.668697,0 3,1.331303 3,3 0,1.668697 -1.331303,3 -3,3 -1.668697,0 -3,-1.331303 -3,-3 0,-1.668697 1.331303,-3 3,-3 z"
     id="circle4" />
  <path
     style="color:#000000;fill:#000000;-inkscape-stroke:none"
     d="m 12,7 a 1,1 0 0 0 -1,1 1,1 0 0 0 1,1 h 9.169922 a 1,1 0 0 0 1,-1 1,1 0 0 0 -1,-1 z"
     id="line6" />
  <path
     style="color:#000000;fill:#000000;-inkscape-stroke:none"
     d="M 4.2089844,5.09375 A 1,1 0 0 0 3.4492188,5.1933594 1,1 0 0 0 3.0839844,6.5605469 L 7.6738281,14.5 A 1,1 0 0 0 9.0410156,14.865234 1,1 0 0 0 9.40625,13.5 L 4.8164062,5.5585937 A 1,1 0 0 0 4.2089844,5.09375 Z"
     id="line8" />
  <path
     style="color:#000000;fill:#000000;-inkscape-stroke:none"
     d="M 15.201172,13.033203 A 1,1 0 0 0 14.59375,13.5 l -4.580078,7.939453 a 1,1 0 0 0 0.367187,1.367188 1,1 0 0 0 1.365235,-0.367188 L 16.326172,14.5 a 1,1 0 0 0 -0.367188,-1.367187 1,1 0 0 0 -0.757812,-0.09961 z"
     id="line10" />
</svg>
