<?xml version="1.0" encoding="UTF-8" standalone="no"?>
<svg
   width="24"
   height="24"
   viewBox="0 0 24 24"
   fill="none"
   stroke="currentColor"
   stroke-width="2"
   stroke-linecap="round"
   stroke-linejoin="round"
   version="1.1"
   id="svg12"
   xmlns="http://www.w3.org/2000/svg"
   xmlns:svg="http://www.w3.org/2000/svg">
  <defs
     id="defs16" />
  <path
     style="color:#000000;fill:#000000;-inkscape-stroke:none"
     d="m 6.3164062,6.0507812 a 1,1 0 0 0 -0.7636718,0.054687 l -4,2.0000001 A 1.0001,1.0001 0 0 0 1,9 v 11 c 0,1.645008 1.354992,3 3,3 h 16 c 1.645008,0 3,-1.354992 3,-3 V 9 A 1.0001,1.0001 0 0 0 22.447266,8.1054688 l -4,-2.0000001 a 1,1 0 0 0 -1.341797,0.4472657 1,1 0 0 0 0.447265,1.3417968 L 21,9.6171875 V 20 c 0,0.564129 -0.435871,1 -1,1 H 4 C 3.4358712,21 3,20.564129 3,20 V 9.6171875 L 6.4472656,7.8945312 A 1,1 0 0 0 6.8945312,6.5527344 1,1 0 0 0 6.3164062,6.0507812 Z"
     id="path2" />
  <path
     style="color:#000000;fill:#000000;-inkscape-stroke:none"
     d="m 12,15 c -1.645008,0 -3,1.354992 -3,3 v 4 a 1,1 0 0 0 1,1 1,1 0 0 0 1,-1 v -4 c 0,-0.564129 0.435871,-1 1,-1 0.564129,0 1,0.435871 1,1 v 4 a 1,1 0 0 0 1,1 1,1 0 0 0 1,-1 v -4 c 0,-1.645008 -1.354992,-3 -3,-3 z"
     id="path4" />
  <path
     style="color:#000000;fill:#000000;-inkscape-stroke:none"
     d="m 11.552734,1.1054687 -5.9999996,3 A 1.0001,1.0001 0 0 0 5,5 v 17 a 1,1 0 0 0 1,1 1,1 0 0 0 1,-1 V 5.6171875 l 5,-2.5 5,2.5 V 22 a 1,1 0 0 0 1,1 1,1 0 0 0 1,-1 V 5 A 1.0001,1.0001 0 0 0 18.447266,4.1054687 l -6,-3 a 1.0001,1.0001 0 0 0 -0.894532,0 z"
     id="path6" />
  <path
     style="color:#000000;fill:#000000;-inkscape-stroke:none"
     d="m 12,6 a 1,1 0 0 0 -1,1 v 5 a 1,1 0 0 0 1,1 1,1 0 0 0 1,-1 V 7 A 1,1 0 0 0 12,6 Z"
     id="path8" />
  <path
     style="color:#000000;fill:#000000;-inkscape-stroke:none"
     d="m 10,8 a 1,1 0 0 0 -1,1 1,1 0 0 0 1,1 h 4 A 1,1 0 0 0 15,9 1,1 0 0 0 14,8 Z"
     id="path10" />
</svg>
