<?xml version="1.0" encoding="UTF-8" standalone="no"?>
<svg
   width="24"
   height="24"
   viewBox="0 0 24 24"
   fill="none"
   stroke="currentColor"
   stroke-width="2"
   stroke-linecap="round"
   stroke-linejoin="round"
   version="1.1"
   id="svg18"
   xmlns="http://www.w3.org/2000/svg"
   xmlns:svg="http://www.w3.org/2000/svg">
  <defs
     id="defs22" />
  <path
     style="color:#000000;fill:#000000;-inkscape-stroke:none"
     d="M 9.9082031,1.1992187 A 1,1 0 0 0 9.1191406,2.3710938 1,1 0 0 0 10.291016,3.1621094 c 1.128495,-0.2199902 2.289473,-0.2199902 3.417968,0 A 1,1 0 0 0 14.880859,2.3710938 1,1 0 0 0 14.091797,1.1992187 c -1.381214,-0.26925537 -2.80238,-0.26925537 -4.1835939,0 z"
     id="path2" />
  <path
     style="color:#000000;fill:#000000;-inkscape-stroke:none"
     d="m 18.160156,2.8808594 a 1,1 0 0 0 -1.388672,0.2695312 1,1 0 0 0 0.267578,1.3886719 c 0.955519,0.646074 1.777398,1.4698255 2.419922,2.4277344 a 1,1 0 0 0 1.388672,0.2734375 1,1 0 0 0 0.273438,-1.3867188 C 20.335003,4.6815693 19.329178,3.6712937 18.160156,2.8808594 Z"
     id="path4" />
  <path
     style="color:#000000;fill:#000000;-inkscape-stroke:none"
     d="m 21.628906,9.1191406 a 1,1 0 0 0 -0.791015,1.1718754 c 0.21999,1.128495 0.21999,2.289473 0,3.417968 a 1,1 0 0 0 0.791015,1.171875 1,1 0 0 0 1.171875,-0.789062 c 0.269256,-1.381214 0.269256,-2.80238 0,-4.1835939 A 1,1 0 0 0 21.628906,9.1191406 Z"
     id="path6" />
  <path
     style="color:#000000;fill:#000000;-inkscape-stroke:none"
     d="m 20.849609,16.771484 a 1,1 0 0 0 -1.388672,0.267578 c -0.646074,0.955519 -1.469825,1.777398 -2.427734,2.419922 a 1,1 0 0 0 -0.273437,1.388672 1,1 0 0 0 1.386718,0.273438 c 1.171947,-0.786091 2.182222,-1.791916 2.972657,-2.960938 a 1,1 0 0 0 -0.269532,-1.388672 z"
     id="path8" />
  <path
     style="color:#000000;fill:#000000;-inkscape-stroke:none"
     d="m 10.291016,20.837891 a 1,1 0 0 0 -1.1718754,0.791015 1,1 0 0 0 0.7890625,1.171875 c 1.3811139,0.268955 2.8024799,0.268955 4.1835939,0 a 1,1 0 0 0 0.789062,-1.171875 1,1 0 0 0 -1.171875,-0.791015 c -1.128644,0.219789 -2.289324,0.219789 -3.417968,0 z"
     id="path10" />
  <path
     style="color:#000000;fill:#000000;-inkscape-stroke:none"
     d="m 3.9042969,16.609375 a 1,1 0 0 0 -0.7519531,0.150391 1,1 0 0 0 -0.2734375,1.386718 c 0.7860912,1.171947 1.791916,2.182222 2.9609374,2.972657 A 1,1 0 0 0 7.2285156,20.849609 1,1 0 0 0 6.9609375,19.460937 C 6.0054193,18.814863 5.1835397,17.991112 4.5410156,17.033203 A 1,1 0 0 0 3.9042969,16.609375 Z"
     id="path12" />
  <path
     style="color:#000000;fill:#000000;-inkscape-stroke:none"
     d="M 2.3710938,9.1191406 A 1,1 0 0 0 1.1992187,9.9082031 c -0.26925537,1.3812139 -0.26925537,2.8023799 0,4.1835939 a 1,1 0 0 0 1.1718751,0.789062 1,1 0 0 0 0.7910156,-1.171875 c -0.2199902,-1.128495 -0.2199902,-2.289473 0,-3.417968 A 1,1 0 0 0 2.3710938,9.1191406 Z"
     id="path14" />
  <path
     style="color:#000000;fill:#000000;-inkscape-stroke:none"
     d="m 6.6035156,2.7285156 a 1,1 0 0 0 -0.75,0.1503907 C 4.6815693,3.6649975 3.6712937,4.6708223 2.8808594,5.8398437 A 1,1 0 0 0 3.1503906,7.2285156 1,1 0 0 0 4.5390625,6.9609375 C 5.1851365,6.0054193 6.008888,5.1835397 6.9667969,4.5410156 A 1,1 0 0 0 7.2402344,3.1523438 1,1 0 0 0 6.6035156,2.7285156 Z"
     id="path16" />
</svg>
