<?xml version="1.0" encoding="UTF-8" standalone="no"?>
<svg
   width="24"
   height="24"
   viewBox="0 0 24 24"
   fill="none"
   stroke="currentColor"
   stroke-width="2"
   stroke-linecap="round"
   stroke-linejoin="round"
   version="1.1"
   id="svg8"
   xmlns="http://www.w3.org/2000/svg"
   xmlns:svg="http://www.w3.org/2000/svg">
  <defs
     id="defs12" />
  <path
     style="color:#000000;fill:#000000;-inkscape-stroke:none"
     d="m 2,1 a 1,1 0 0 0 -0.7070313,0.2929687 1,1 0 0 0 0,1.4140626 L 21.292969,22.707031 a 1,1 0 0 0 1.414062,0 1,1 0 0 0 0,-1.414062 L 2.7070313,1.2929687 A 1,1 0 0 0 2,1 Z"
     id="path2" />
  <path
     style="color:#000000;fill:#000000;-inkscape-stroke:none"
     d="M 11.292969,1.0097656 C 10.205155,1.0838734 9.0937826,1.3252733 7.9863281,1.7578125 a 1,1 0 0 0 -0.5683594,1.296875 1,1 0 0 0 1.2949219,0.5664063 c 3.6906044,-1.4414417 7.2747904,-0.3461767 9.6406254,2.0214843 2.365834,2.3676611 3.459915,5.9530879 2.015625,9.6425779 a 1,1 0 0 0 0.566406,1.296875 1,1 0 0 0 1.294922,-0.568359 C 23.964044,11.585191 22.643051,7.1062079 19.769531,4.2304687 17.614391,2.0736644 14.55641,0.78744243 11.292969,1.0097656 Z"
     id="path4" />
  <path
     style="color:#000000;fill:#000000;-inkscape-stroke:none"
     d="M 4.9199219,3.9199219 A 1,1 0 0 0 4.2128906,4.2128906 c -4.2923231,4.292323 -4.29231986,11.2818984 0,15.5742184 4.2923199,4.29232 11.2818954,4.292323 15.5742184,0 a 1,1 0 0 0 0,-1.414062 1,1 0 0 0 -1.414062,0 c -3.528027,3.528026 -9.2180696,3.528024 -12.7460939,0 -3.5280242,-3.528024 -3.5280266,-9.2180674 0,-12.7460939 a 1,1 0 0 0 0,-1.4140625 1,1 0 0 0 -0.7070312,-0.2929687 z"
     id="path6" />
</svg>
