<?xml version="1.0" encoding="UTF-8" standalone="no"?>
<svg
   width="24"
   height="24"
   viewBox="0 0 24 24"
   fill="none"
   stroke="currentColor"
   stroke-width="2"
   stroke-linecap="round"
   stroke-linejoin="round"
   version="1.1"
   id="svg10"
   xmlns="http://www.w3.org/2000/svg"
   xmlns:svg="http://www.w3.org/2000/svg">
  <defs
     id="defs14" />
  <path
     style="color:#000000;fill:#000000;-inkscape-stroke:none"
     d="M 5.5019531,1.0175781 C 4.9386105,1.0315742 4.379651,1.2659012 3.9804688,1.7167969 a 1.0001,1.0001 0 0 0 -0.023437,0.027344 C -0.28496155,6.9056844 0.08440039,14.467213 4.8085937,19.191406 9.5327871,23.9156 17.094316,24.284962 22.255859,20.042969 a 1.0001,1.0001 0 0 0 0.01758,-0.01563 c 0.919213,-0.792145 0.954654,-2.244945 0.07617,-3.082032 L 7.0546875,1.640625 C 6.6336069,1.2101085 6.0652957,1.003582 5.5019531,1.0175781 Z M 5.625,3.0390625 a 1.0001,1.0001 0 0 0 0.00781,0.00781 L 20.953125,18.376953 a 1.0001,1.0001 0 0 0 0.01758,0.01758 c 0.04425,0.04216 0.03937,0.07385 -0.0039,0.113281 C 16.587494,22.093319 10.226419,21.781107 6.2226562,17.777344 2.2216785,13.776366 1.9087398,7.4219811 5.4863281,3.0429688 5.5319197,2.9967469 5.5768085,2.9897911 5.625,3.0390625 Z"
     id="path2" />
  <path
     style="color:#000000;fill:#000000;-inkscape-stroke:none"
     d="M 9.0390625,3.6152344 A 1,1 0 0 0 7.625,3.6503906 C 4.2675577,7.1779652 4.3348795,12.76629 7.7753906,16.212891 c 3.4405114,3.4466 9.0289934,3.523074 12.5625004,0.171875 a 1,1 0 0 0 0.03711,-1.41211 1,1 0 0 0 -1.414063,-0.03906 C 16.198558,17.553451 11.881085,17.495221 9.1914063,14.800781 6.5017271,12.106342 6.4494804,7.7870391 9.0742188,5.0292969 A 1,1 0 0 0 9.0390625,3.6152344 Z"
     id="path4" />
  <path
     style="color:#000000;fill:#000000;-inkscape-stroke:none"
     d="M 14,9 A 1,1 0 0 0 13.292969,9.2929688 L 7.7929687,14.792969 a 1,1 0 0 0 0,1.414062 1,1 0 0 0 1.4140626,0 l 5.4999997,-5.5 a 1,1 0 0 0 0,-1.4140622 A 1,1 0 0 0 14,9 Z"
     id="path6" />
  <path
     style="color:#000000;fill:#000000;-inkscape-stroke:none"
     d="m 6.1503906,9 a 1,1 0 0 0 -1,1 1,1 0 0 0 1,1 H 13 v 6.849609 a 1,1 0 0 0 1,1 1,1 0 0 0 1,-1 V 10 A 1.0001,1.0001 0 0 0 14,9 Z"
     id="path8" />
</svg>
