<?xml version="1.0" encoding="UTF-8" standalone="no"?>
<svg
   width="24"
   height="24"
   viewBox="0 0 24 24"
   fill="none"
   stroke="currentColor"
   stroke-width="2"
   stroke-linecap="round"
   stroke-linejoin="round"
   version="1.1"
   id="svg10"
   xmlns="http://www.w3.org/2000/svg"
   xmlns:svg="http://www.w3.org/2000/svg">
  <defs
     id="defs14" />
  <path
     style="color:#000000;fill:#000000;-inkscape-stroke:none"
     d="m 4,10 a 1.0001,1.0001 0 0 0 -1,1 v 8 c 0,1.645008 1.354992,3 3,3 h 12 c 1.645008,0 3,-1.354992 3,-3 v -8 a 1.0001,1.0001 0 0 0 -1,-1 z m 1,2 h 14 v 7 c 0,0.564129 -0.435871,1 -1,1 H 6 C 5.4358712,20 5,19.564129 5,19 Z"
     id="path2" />
  <path
     style="color:#000000;fill:#000000;-inkscape-stroke:none"
     d="m 15.634766,1.1738281 -11.4765629,3.5 c -1.5763693,0.479519 -2.4773824,2.174768 -1.9941406,3.75 l 0.8789063,2.8691409 -0.041016,-0.279297 a 1.0001,1.0001 0 0 0 1.2910156,0.953125 L 19.59375,7.2753906 A 1.0001,1.0001 0 0 0 20.257812,6.0292969 L 19.386719,3.1601563 a 1.0001,1.0001 0 0 0 -0.002,-0.00586 C 18.899242,1.5851589 17.208476,0.69212888 15.638672,1.1738281 Z m 0.585937,1.9121094 a 1.0001,1.0001 0 0 0 0.0039,0 c 0.53869,-0.1661214 1.083367,0.1216242 1.25,0.6601563 L 18.054687,5.65625 4.6660156,9.7597656 4.0761719,7.8359375 c -0.1657467,-0.5402874 0.123385,-1.0855302 0.6640625,-1.25 a 1.0001,1.0001 0 0 0 0.00195,0 z"
     id="path4" />
  <path
     style="color:#000000;fill:#000000;-inkscape-stroke:none"
     d="m 6.7070312,3.9960938 a 1,1 0 0 0 -0.734375,0.2148437 1,1 0 0 0 -0.1523437,1.40625 L 9.2011719,9.8164063 A 1,1 0 0 0 10.607422,9.96875 1,1 0 0 0 10.759766,8.5625 L 7.3789062,4.3632812 A 1,1 0 0 0 6.7070312,3.9960938 Z"
     id="path6" />
  <path
     style="color:#000000;fill:#000000;-inkscape-stroke:none"
     d="m 11.232422,2.6015625 a 1,1 0 0 0 -0.152344,1.40625 l 3.38086,4.1992188 a 1,1 0 0 0 1.40625,0.1523437 1,1 0 0 0 0.152343,-1.40625 L 12.638672,2.7539063 a 1,1 0 0 0 -1.40625,-0.1523438 z"
     id="path8" />
</svg>
