<?xml version="1.0" encoding="UTF-8" standalone="no"?>
<svg
   width="24"
   height="24"
   viewBox="0 0 24 24"
   fill="none"
   stroke="currentColor"
   stroke-width="2"
   stroke-linecap="round"
   stroke-linejoin="round"
   version="1.1"
   id="svg8"
   xmlns="http://www.w3.org/2000/svg"
   xmlns:svg="http://www.w3.org/2000/svg">
  <defs
     id="defs12" />
  <path
     style="color:#000000;fill:#000000;-inkscape-stroke:none"
     d="M 9,1 C 7.9072762,1 7,1.9072762 7,3 V 5 C 7,5.5222217 7.1913292,6.0546105 7.5683594,6.4316406 7.9453895,6.8086708 8.4777783,7 9,7 h 6 C 15.522222,7 16.05461,6.8086708 16.431641,6.4316406 16.808671,6.0546105 17,5.5222217 17,5 V 3 C 17,2.4777783 16.808671,1.9453895 16.431641,1.5683594 16.05461,1.1913292 15.522222,1 15,1 Z m 0,2 h 6 V 5 H 9 Z"
     id="path2" />
  <path
     style="color:#000000;fill:#000000;-inkscape-stroke:none"
     d="M 6,3 C 4.354992,3 3,4.354992 3,6 v 14 c 0,1.645008 1.354992,3 3,3 h 12 c 1.645008,0 3,-1.354992 3,-3 a 1,1 0 0 0 -1,-1 1,1 0 0 0 -1,1 c 0,0.564129 -0.435871,1 -1,1 H 6 C 5.4358712,21 5,20.564129 5,20 V 6 C 5,5.4358712 5.4358712,5 6,5 H 8 A 1,1 0 0 0 9,4 1,1 0 0 0 8,3 Z m 10,0 a 1,1 0 0 0 -1,1 1,1 0 0 0 1,1 h 2 c 0.564129,0 1,0.4358712 1,1 v 2 a 1,1 0 0 0 1,1 1,1 0 0 0 1,-1 V 6 C 21,4.354992 19.645008,3 18,3 Z m -5,10 a 1,1 0 0 0 -1,1 1,1 0 0 0 1,1 h 10 a 1,1 0 0 0 1,-1 1,1 0 0 0 -1,-1 z"
     id="path4" />
  <path
     style="color:#000000;fill:#000000;-inkscape-stroke:none"
     d="m 16.292969,9.2929688 a 1,1 0 0 0 0,1.4140622 L 19.585937,14 16.292969,17.292969 a 1,1 0 0 0 0,1.414062 1,1 0 0 0 1.414062,0 l 4,-4 a 1.0001,1.0001 0 0 0 0,-1.414062 l -4,-4.0000002 a 1,1 0 0 0 -1.414062,0 z"
     id="path6" />
</svg>
