<?xml version="1.0" encoding="UTF-8" standalone="no"?>
<svg
   width="24"
   height="24"
   viewBox="0 0 24 24"
   fill="none"
   stroke="currentColor"
   stroke-width="2"
   stroke-linecap="round"
   stroke-linejoin="round"
   version="1.1"
   id="svg10"
   xmlns="http://www.w3.org/2000/svg"
   xmlns:svg="http://www.w3.org/2000/svg">
  <defs
     id="defs14" />
  <path
     style="color:#000000;fill:#000000;-inkscape-stroke:none"
     d="M 9,1 C 7.9092983,1 7,1.9092983 7,3 v 2 c 0,1.0907017 0.9092983,2 2,2 h 6 c 1.090702,0 2,-0.9092983 2,-2 V 3 C 17,1.9092983 16.090702,1 15,1 Z m 0,2 h 6 V 5 H 9 Z"
     id="rect2" />
  <path
     style="color:#000000;fill:#000000;-inkscape-stroke:none"
     d="m 12.056641,10.962891 c -0.801323,-0.04714 -1.671974,0.267677 -2.3437504,0.939453 a 1.0001,1.0001 0 0 0 0,0.002 L 4.2832031,17.34375 a 1.0001,1.0001 0 0 0 -0.2636719,0.462891 l -0.9902343,3.951171 a 1.0001,1.0001 0 0 0 1.2167968,1.210938 l 3.9492188,-1 A 1.0001,1.0001 0 0 0 8.65625,21.708984 l 5.439453,-5.419922 a 1.0001,1.0001 0 0 0 0.002,-0.002 c 0.671776,-0.671776 0.98659,-1.542427 0.939453,-2.34375 -0.04714,-0.801322 -0.411069,-1.512631 -0.939453,-2.041015 -0.528384,-0.528384 -1.239693,-0.892317 -2.041015,-0.939453 z m -0.117188,1.996093 c 0.250551,0.01474 0.530026,0.143307 0.744141,0.357422 0.214115,0.214115 0.342683,0.49359 0.357422,0.744141 0.01474,0.250551 -0.0392,0.494277 -0.357422,0.8125 l -5.2441409,5.224609 -2.0625,0.523438 0.515625,-2.060547 5.2343749,-5.244141 c 0.318223,-0.318222 0.561949,-0.37216 0.8125,-0.357422 z"
     id="path4" />
  <path
     style="color:#000000;fill:#000000;-inkscape-stroke:none"
     d="m 16,3 a 1,1 0 0 0 -1,1 1,1 0 0 0 1,1 h 2 c 0.564129,0 1,0.4358712 1,1 v 14 c 0,0.564129 -0.435871,1 -1,1 h -5.5 a 1,1 0 0 0 -1,1 1,1 0 0 0 1,1 H 18 c 1.645008,0 3,-1.354992 3,-3 V 6 C 21,4.354992 19.645008,3 18,3 Z"
     id="path6" />
  <path
     style="color:#000000;fill:#000000;-inkscape-stroke:none"
     d="M 6,3 C 4.354992,3 3,4.354992 3,6 v 7.5 a 1,1 0 0 0 1,1 1,1 0 0 0 1,-1 V 6 C 5,5.4358712 5.4358712,5 6,5 H 8 A 1,1 0 0 0 9,4 1,1 0 0 0 8,3 Z"
     id="path8" />
</svg>
