<?xml version="1.0" encoding="UTF-8" standalone="no"?>
<svg
   width="24"
   height="24"
   viewBox="0 0 24 24"
   fill="none"
   stroke="currentColor"
   stroke-width="2"
   stroke-linecap="round"
   stroke-linejoin="round"
   version="1.1"
   id="svg12"
   xmlns="http://www.w3.org/2000/svg"
   xmlns:svg="http://www.w3.org/2000/svg">
  <defs
     id="defs16" />
  <path
     style="color:#000000;fill:#000000;-inkscape-stroke:none"
     d="M 9,1 C 7.9092983,1 7,1.9092983 7,3 v 2 c 0,1.0907017 0.9092983,2 2,2 h 6 c 1.090702,0 2,-0.9092983 2,-2 V 3 C 17,1.9092983 16.090702,1 15,1 Z m 0,2 h 6 V 5 H 9 Z"
     id="rect2" />
  <path
     style="color:#000000;fill:#000000;-inkscape-stroke:none"
     d="M 6,3 C 4.354992,3 3,4.354992 3,6 v 14 c 0,1.645008 1.354992,3 3,3 h 12 c 1.645008,0 3,-1.354992 3,-3 v -0.5 a 1,1 0 0 0 -1,-1 1,1 0 0 0 -1,1 V 20 c 0,0.564129 -0.435871,1 -1,1 H 6 C 5.4358712,21 5,20.564129 5,20 V 6 C 5,5.4358712 5.4358712,5 6,5 H 8 A 1,1 0 0 0 9,4 1,1 0 0 0 8,3 Z"
     id="path4" />
  <path
     style="color:#000000;fill:#000000;-inkscape-stroke:none"
     d="m 16,3 a 1,1 0 0 0 -1,1 1,1 0 0 0 1,1 h 2 c 0.357782,0.001 0.684338,0.19006 0.863281,0.5 A 1,1 0 0 0 20.230469,5.8652344 1,1 0 0 0 20.595703,4.5 C 20.061153,3.5741305 19.071054,3.0010966 18.001953,3 A 1.0001,1.0001 0 0 0 18,3 Z"
     id="path6" />
  <path
     style="color:#000000;fill:#000000;-inkscape-stroke:none"
     d="m 20.056641,7.9628906 c -0.801323,-0.047137 -1.671974,0.2676772 -2.34375,0.9394532 a 1.0001,1.0001 0 0 0 0,0.00195 L 13.28125,13.34375 a 1.0001,1.0001 0 0 0 -0.261719,0.462891 l -0.990234,3.951171 a 1.0001,1.0001 0 0 0 1.216797,1.210938 l 3.949218,-1 a 1.0001,1.0001 0 0 0 0.460938,-0.259766 l 4.439453,-4.419921 a 1.0001,1.0001 0 0 0 0.002,-0.002 c 0.671776,-0.671776 0.98659,-1.542427 0.939453,-2.34375 C 22.989973,10.142037 22.62604,9.430728 22.097656,8.9023438 21.569272,8.3739595 20.857963,8.0100274 20.056641,7.9628906 Z m -0.117188,1.9960938 c 0.250551,0.014738 0.530026,0.1433066 0.744141,0.3574216 0.214115,0.214115 0.342683,0.49359 0.357422,0.744141 0.01471,0.250046 -0.0409,0.493266 -0.357422,0.810547 l -4.244141,4.226562 -2.0625,0.523438 0.515625,-2.060547 4.234375,-4.244141 c 0.318223,-0.3182225 0.561949,-0.37216 0.8125,-0.3574216 z"
     id="path8" />
  <path
     style="color:#000000;fill:#000000;-inkscape-stroke:none"
     d="m 8,17 a 1,1 0 0 0 -1,1 1,1 0 0 0 1,1 h 1 a 1,1 0 0 0 1,-1 1,1 0 0 0 -1,-1 z"
     id="path10" />
</svg>
