<?xml version="1.0" encoding="UTF-8" standalone="no"?>
<svg
   width="24"
   height="24"
   viewBox="0 0 24 24"
   fill="none"
   stroke="currentColor"
   stroke-width="2"
   stroke-linecap="round"
   stroke-linejoin="round"
   version="1.1"
   id="svg22"
   xmlns="http://www.w3.org/2000/svg"
   xmlns:svg="http://www.w3.org/2000/svg">
  <defs
     id="defs26" />
  <path
     style="color:#000000;fill:#000000;-inkscape-stroke:none"
     d="M 8.4335938,2.0117188 C 7.2394125,2.0901479 6.0391822,2.4398833 4.9238281,3.0976563 0.46241189,5.7287479 -0.34631398,11.910312 3.2871094,15.601563 a 1,1 0 0 0 1.4140625,0.01172 1,1 0 0 0 0.011719,-1.414062 C 1.9583113,11.400799 2.559108,6.8169543 5.9414062,4.8222656 9.3237045,2.8275769 13.626177,4.5204014 14.742188,8.2851563 A 1.0001,1.0001 0 0 0 15.699219,9 h 1.787109 c 1.762459,0.02376 2.88512,1.115148 3.300781,2.478516 0.415661,1.363368 0.09396,2.895444 -1.355468,3.898437 a 1,1 0 0 0 -0.253907,1.392578 1,1 0 0 0 1.390625,0.251953 c 2.15319,-1.489993 2.772635,-4.026382 2.132813,-6.125 C 22.061349,8.7978669 20.131889,7.0352962 17.513672,7 A 1.0001,1.0001 0 0 0 17.5,7 H 16.248047 C 14.901917,3.7680693 11.748103,1.7940349 8.4335938,2.0117188 Z"
     id="path2" />
  <path
     style="color:#000000;fill:#000000;-inkscape-stroke:none"
     d="m 12,13 c -2.1972922,0 -4,1.802708 -4,4 0,2.197292 1.8027078,4 4,4 2.197292,0 4,-1.802708 4,-4 0,-2.197292 -1.802708,-4 -4,-4 z m 0,2 c 1.116413,0 2,0.883587 2,2 0,1.116413 -0.883587,2 -2,2 -1.116413,0 -2,-0.883587 -2,-2 0,-1.116413 0.883587,-2 2,-2 z"
     id="circle4" />
  <path
     style="color:#000000;fill:#000000;-inkscape-stroke:none"
     d="m 12,12 a 1,1 0 0 0 -1,1 v 1 a 1,1 0 0 0 1,1 1,1 0 0 0 1,-1 v -1 a 1,1 0 0 0 -1,-1 z"
     id="path6" />
  <path
     style="color:#000000;fill:#000000;-inkscape-stroke:none"
     d="m 12,19 a 1,1 0 0 0 -1,1 v 1 a 1,1 0 0 0 1,1 1,1 0 0 0 1,-1 v -1 a 1,1 0 0 0 -1,-1 z"
     id="path8" />
  <path
     style="color:#000000;fill:#000000;-inkscape-stroke:none"
     d="m 15,16 a 1,1 0 0 0 -1,1 1,1 0 0 0 1,1 h 1 a 1,1 0 0 0 1,-1 1,1 0 0 0 -1,-1 z"
     id="path10" />
  <path
     style="color:#000000;fill:#000000;-inkscape-stroke:none"
     d="m 8,16 a 1,1 0 0 0 -1,1 1,1 0 0 0 1,1 h 1 a 1,1 0 0 0 1,-1 1,1 0 0 0 -1,-1 z"
     id="path12" />
  <path
     style="color:#000000;fill:#000000;-inkscape-stroke:none"
     d="m 15,13 a 1,1 0 0 0 -0.707031,0.292969 l -0.88086,0.880859 a 1,1 0 0 0 0,1.414063 1,1 0 0 0 1.414063,0 l 0.880859,-0.88086 a 1,1 0 0 0 0,-1.414062 A 1,1 0 0 0 15,13 Z"
     id="path14" />
  <path
     style="color:#000000;fill:#000000;-inkscape-stroke:none"
     d="m 9.1738281,18.412109 -0.8808593,0.88086 a 1,1 0 0 0 0,1.414062 1,1 0 0 0 1.4140625,0 l 0.8808597,-0.880859 a 1,1 0 0 0 0,-1.414063 1,1 0 0 0 -1.4140629,0 z"
     id="path16" />
  <path
     style="color:#000000;fill:#000000;-inkscape-stroke:none"
     d="m 13.412109,18.412109 a 1,1 0 0 0 0,1.414063 l 0.88086,0.880859 a 1,1 0 0 0 1.414062,0 1,1 0 0 0 0,-1.414062 l -0.880859,-0.88086 a 1,1 0 0 0 -1.414063,0 z"
     id="path18" />
  <path
     style="color:#000000;fill:#000000;-inkscape-stroke:none"
     d="m 9,13 a 1,1 0 0 0 -0.7070312,0.292969 1,1 0 0 0 0,1.414062 l 0.8808593,0.88086 a 1,1 0 0 0 1.4140629,0 1,1 0 0 0 0,-1.414063 L 9.7070313,13.292969 A 1,1 0 0 0 9,13 Z"
     id="path20" />
</svg>
