<?xml version="1.0" encoding="UTF-8" standalone="no"?>
<svg
   width="24"
   height="24"
   viewBox="0 0 24 24"
   fill="none"
   stroke="currentColor"
   stroke-width="2"
   stroke-linecap="round"
   stroke-linejoin="round"
   version="1.1"
   id="svg10"
   xmlns="http://www.w3.org/2000/svg"
   xmlns:svg="http://www.w3.org/2000/svg">
  <defs
     id="defs14" />
  <path
     style="color:#000000;fill:#000000;-inkscape-stroke:none"
     d="M 8.4453125,2.0253906 C 7.2526823,2.1039808 6.0553734,2.4530761 4.9414062,3.109375 0.48553755,5.7345704 -0.33233447,11.90166 3.2851563,15.597656 a 1,1 0 0 0 1.4140624,0.01563 1,1 0 0 0 0.015625,-1.414062 C 1.9724884,11.397349 2.5791175,6.8240977 5.9570312,4.8339844 9.334945,2.8438711 13.630292,4.5284475 14.751953,8.2851563 A 1.0001,1.0001 0 0 0 15.710938,9 H 17.5 c 1.793051,-2.044e-4 2.930887,1.103932 3.349609,2.484375 0.418722,1.380443 0.08672,2.929846 -1.404297,3.925781 a 1,1 0 0 0 -0.277343,1.386719 1,1 0 0 0 1.386718,0.277344 c 2.209836,-1.476071 2.852845,-4.047244 2.208985,-6.169922 C 22.119812,8.7816184 20.157472,6.9996971 17.5,7 H 16.255859 C 14.905372,3.7760811 11.754971,1.8072957 8.4453125,2.0253906 Z"
     id="path2" />
  <path
     style="color:#000000;fill:#000000;-inkscape-stroke:none"
     d="m 16,13 a 1,1 0 0 0 -1,1 v 6 a 1,1 0 0 0 1,1 1,1 0 0 0 1,-1 v -6 a 1,1 0 0 0 -1,-1 z"
     id="path4" />
  <path
     style="color:#000000;fill:#000000;-inkscape-stroke:none"
     d="m 8,13 a 1,1 0 0 0 -1,1 v 6 a 1,1 0 0 0 1,1 1,1 0 0 0 1,-1 V 14 A 1,1 0 0 0 8,13 Z"
     id="path6" />
  <path
     style="color:#000000;fill:#000000;-inkscape-stroke:none"
     d="m 12,15 a 1,1 0 0 0 -1,1 v 6 a 1,1 0 0 0 1,1 1,1 0 0 0 1,-1 v -6 a 1,1 0 0 0 -1,-1 z"
     id="path8" />
</svg>
