<?xml version="1.0" encoding="UTF-8" standalone="no"?>
<svg
   width="24"
   height="24"
   viewBox="0 0 24 24"
   fill="none"
   stroke="currentColor"
   stroke-width="2"
   stroke-linecap="round"
   stroke-linejoin="round"
   version="1.1"
   id="svg14"
   xmlns="http://www.w3.org/2000/svg"
   xmlns:svg="http://www.w3.org/2000/svg">
  <defs
     id="defs18" />
  <path
     style="color:#000000;fill:#000000;-inkscape-stroke:none"
     d="m 12,1 a 1,1 0 0 0 -1,1 v 2 a 1,1 0 0 0 1,1 1,1 0 0 0 1,-1 V 2 A 1,1 0 0 0 12,1 Z"
     id="path2" />
  <path
     style="color:#000000;fill:#000000;-inkscape-stroke:none"
     d="m 4.9296875,3.9296875 a 1,1 0 0 0 -0.7070313,0.2929687 1,1 0 0 0 0,1.4140625 L 5.6328125,7.046875 a 1,1 0 0 0 1.4140625,0 1,1 0 0 0 0,-1.4140625 L 5.6367187,4.2226562 A 1,1 0 0 0 4.9296875,3.9296875 Z"
     id="path4" />
  <path
     style="color:#000000;fill:#000000;-inkscape-stroke:none"
     d="m 20,11 a 1,1 0 0 0 -1,1 1,1 0 0 0 1,1 h 2 a 1,1 0 0 0 1,-1 1,1 0 0 0 -1,-1 z"
     id="path6" />
  <path
     style="color:#000000;fill:#000000;-inkscape-stroke:none"
     d="m 18.363281,4.2226562 -1.410156,1.4101563 a 1,1 0 0 0 0,1.4140625 1,1 0 0 0 1.414062,0 l 1.410157,-1.4101563 a 1,1 0 0 0 0,-1.4140625 1,1 0 0 0 -1.414063,0 z"
     id="path8" />
  <path
     style="color:#000000;fill:#000000;-inkscape-stroke:none"
     d="M 12.296875,7.0214844 C 11.381257,6.952719 10.426625,7.140574 9.5273438,7.6523437 a 1,1 0 0 0 -0.375,1.3652344 1,1 0 0 0 1.3652342,0.3730469 c 2.25319,-1.2822623 4.865631,0.5378237 4.44336,3.095703 a 1,1 0 0 0 0.822265,1.150391 1,1 0 0 0 1.150391,-0.824219 C 17.439198,9.749838 15.043728,7.2277805 12.296875,7.0214844 Z"
     id="path10" />
  <path
     style="color:#000000;fill:#000000;-inkscape-stroke:none"
     d="M 8.4257813,11.220703 C 6.3135921,10.699986 3.9315993,11.272731 2.3535156,13.205078 -0.8026518,17.069773 2.0100095,22.998982 7,23 h 6 c 1.249998,0 2.314775,-0.504756 2.998047,-1.273438 C 16.681319,20.957881 17,19.972221 17,19 17,18.027779 16.681319,17.042119 15.998047,16.273437 15.314775,15.504756 14.249998,15 13,15 H 12.587891 C 11.879209,13.025752 10.285398,11.679154 8.4257813,11.220703 Z m -0.4550782,1.84961 c 1.3961827,0.344181 2.6050769,1.442964 2.9492189,3.128906 A 1.0001,1.0001 0 0 0 11.900391,17 H 13 c 0.749999,0 1.185226,0.245245 1.501953,0.601562 C 14.81868,17.95788 15,18.472223 15,19 15,19.527777 14.81868,20.04212 14.501953,20.398437 14.185226,20.754755 13.749999,21 13,21 H 7 c -3.4414148,-7.02e-4 -5.2742853,-3.864037 -3.0976562,-6.529297 1.0883145,-1.33263 2.6721766,-1.744572 4.0683593,-1.40039 z"
     id="path12" />
</svg>
