<?xml version="1.0" encoding="UTF-8" standalone="no"?>
<svg
   width="24"
   height="24"
   viewBox="0 0 24 24"
   fill="none"
   stroke="currentColor"
   stroke-width="2"
   stroke-linecap="round"
   stroke-linejoin="round"
   version="1.1"
   id="svg8"
   xmlns="http://www.w3.org/2000/svg"
   xmlns:svg="http://www.w3.org/2000/svg">
  <defs
     id="defs12" />
  <path
     style="color:#000000;fill:#000000;-inkscape-stroke:none"
     d="m 2,1 a 1,1 0 0 0 -0.7070313,0.2929687 1,1 0 0 0 0,1.4140626 L 21.292969,22.707031 a 1,1 0 0 0 1.414062,0 1,1 0 0 0 0,-1.414062 L 2.7070313,1.2929687 A 1,1 0 0 0 2,1 Z"
     id="path2" />
  <path
     style="color:#000000;fill:#000000;-inkscape-stroke:none"
     d="M 6.0859375,4.8300781 A 1,1 0 0 0 5.3222656,4.8945312 C 1.6660306,6.7849997 0.42786004,10.619914 1.2246094,13.892578 2.0213587,17.165242 4.8839434,20.001742 9,20 h 8.5 c 0.541184,3.91e-4 1.079683,-0.07953 1.597656,-0.236328 a 1,1 0 0 0 0.666016,-1.246094 1,1 0 0 0 -1.246094,-0.667969 C 18.187955,17.949388 17.844394,18.000249 17.5,18 H 9 C 5.7791768,18.001363 3.7753095,15.914586 3.1679688,13.419922 2.560628,10.925257 3.3811757,8.1492175 6.2421875,6.6699219 A 1,1 0 0 0 6.6699219,5.3222656 1,1 0 0 0 6.0859375,4.8300781 Z"
     id="path4" />
  <path
     style="color:#000000;fill:#000000;-inkscape-stroke:none"
     d="M 10.142578,4.0800781 A 1,1 0 0 0 9.0097656,4.9257812 1,1 0 0 0 9.8574219,6.0605469 C 12.175305,6.3963821 14.081685,8.0429815 14.751953,10.287109 A 1.0001,1.0001 0 0 0 15.710938,11 H 17.5 c 2.638916,-5.11e-4 4.30957,2.69073 3.136719,5.054687 a 1,1 0 0 0 0.451172,1.341797 1,1 0 0 0 1.339843,-0.451172 C 24.223342,13.326151 21.540116,8.9992179 17.5,9 H 16.337891 C 15.270104,6.4002571 12.961758,4.4885456 10.142578,4.0800781 Z"
     id="path6" />
</svg>
