<?xml version="1.0" encoding="UTF-8" standalone="no"?>
<svg
   width="24"
   height="24"
   viewBox="0 0 24 24"
   fill="none"
   stroke="currentColor"
   stroke-width="2"
   stroke-linecap="round"
   stroke-linejoin="round"
   version="1.1"
   id="svg6"
   xmlns="http://www.w3.org/2000/svg"
   xmlns:svg="http://www.w3.org/2000/svg">
  <defs
     id="defs10" />
  <path
     style="color:#000000;fill:#000000;-inkscape-stroke:none"
     d="M 8.2636719,6.0644531 C 6.1319776,6.2412711 4.0489162,7.2591032 2.5878906,9.21875 -1.3081775,14.444475 2.4814585,21.998327 9,22 h 8.5 c 1.749998,0 3.189775,-0.692257 4.123047,-1.742188 C 22.556318,19.207882 23,17.847221 23,16.5 23,15.152779 22.556318,13.792118 21.623047,12.742188 20.689775,11.692257 19.249998,11 17.5,11 H 16.335937 C 14.94382,7.5967637 11.576273,5.7896823 8.2636719,6.0644531 Z m 1.7929691,1.9863282 c 2.088048,0.3700992 3.981252,1.8393462 4.695312,4.2343747 A 1.0001,1.0001 0 0 0 15.710938,13 H 17.5 c 1.249998,0 2.060227,0.432745 2.626953,1.070313 C 20.69368,14.70788 21,15.597223 21,16.5 21,17.402777 20.69368,18.29212 20.126953,18.929687 19.560227,19.567255 18.749998,20 17.5,20 H 9 C 4.0015828,19.998717 1.203947,14.421087 4.1914062,10.414063 5.6851359,8.4105504 7.9685918,7.680682 10.056641,8.0507813 Z"
     id="path2" />
  <path
     style="color:#000000;fill:#000000;-inkscape-stroke:none"
     d="M 11.197266,2.0097656 C 8.4514715,2.1380498 5.720179,4.0172622 5.1074219,7.3183594 A 1,1 0 0 0 5.9082031,8.4824219 1,1 0 0 0 7.0742187,7.6816406 C 7.5228022,5.2649939 9.3486058,4.0985624 11.291016,4.0078125 c 1.942409,-0.09075 3.869065,0.9013299 4.541015,3.265625 A 1.0001,1.0001 0 0 0 16.792969,8 H 19 c 1.116413,0 2,0.883587 2,2 a 1,1 0 0 0 1,1 1,1 0 0 0 1,-1 C 23,7.8027078 21.197292,6 19,6 H 17.402344 C 16.267424,3.3017378 13.707367,1.8924931 11.197266,2.0097656 Z"
     id="path4" />
</svg>
