<?xml version="1.0" encoding="UTF-8" standalone="no"?>
<svg
   width="24"
   height="24"
   viewBox="0 0 24 24"
   fill="none"
   stroke="currentColor"
   stroke-width="2"
   stroke-linecap="round"
   stroke-linejoin="round"
   version="1.1"
   id="svg6"
   xmlns="http://www.w3.org/2000/svg"
   xmlns:svg="http://www.w3.org/2000/svg">
  <defs
     id="defs10" />
  <path
     style="color:#000000;fill:#000000;-inkscape-stroke:none"
     d="M 7.4179687,2.1660156 C 6.1349907,2.4174752 4.8867926,2.9934449 3.7949219,3.9296875 -0.57256121,7.6746581 0.37316803,14.760681 5.5703125,17.228516 A 1,1 0 0 0 6.9042969,16.755859 1,1 0 0 0 6.4296875,15.421875 C 2.4725146,13.542834 1.7722066,8.2987274 5.0976562,5.4472656 8.4231059,2.5958039 13.498667,4.0876229 14.751953,8.2851563 A 1.0001,1.0001 0 0 0 15.710938,9 H 17.5 a 1.0001,1.0001 0 0 0 0.002,0 c 1.176069,-0.00205 1.972325,0.3990636 2.544922,1 0.572597,0.600936 0.906837,1.438947 0.955078,2.304688 0.04824,0.86574 -0.191071,1.737605 -0.693359,2.398437 -0.502288,0.660832 -1.248953,1.146768 -2.417969,1.275391 a 1,1 0 0 0 -0.884766,1.103515 1,1 0 0 0 1.103516,0.884766 c 1.656379,-0.182245 2.970982,-0.973246 3.792969,-2.054688 C 22.72433,14.830668 23.072497,13.49439 23,12.193359 22.927503,10.892329 22.431187,9.6045171 21.494141,8.6210938 20.557094,7.6376704 19.164419,6.9970924 17.498047,7 H 16.349609 C 14.859796,3.3593142 11.025572,1.4589369 7.4179687,2.1660156 Z"
     id="path2" />
  <path
     style="color:#000000;fill:#000000;-inkscape-stroke:none"
     d="m 13.513672,11.142578 a 1,1 0 0 0 -1.371094,0.34375 l -2.9999999,5 A 1.0001,1.0001 0 0 0 10,18 h 2.234375 l -2.091797,3.486328 a 1,1 0 0 0 0.34375,1.371094 1,1 0 0 0 1.371094,-0.34375 l 3,-5 A 1.0001,1.0001 0 0 0 14,16 h -2.234375 l 2.091797,-3.486328 a 1,1 0 0 0 -0.34375,-1.371094 z"
     id="path4" />
</svg>
