<?xml version="1.0" encoding="UTF-8" standalone="no"?>
<svg
   width="24"
   height="24"
   viewBox="0 0 24 24"
   fill="none"
   stroke="currentColor"
   stroke-width="2"
   stroke-linecap="round"
   stroke-linejoin="round"
   version="1.1"
   id="svg18"
   xmlns="http://www.w3.org/2000/svg"
   xmlns:svg="http://www.w3.org/2000/svg">
  <defs
     id="defs22" />
  <path
     style="color:#000000;fill:#000000;-inkscape-stroke:none"
     d="m 12,1 a 1,1 0 0 0 -1,1 v 2 a 1,1 0 0 0 1,1 1,1 0 0 0 1,-1 V 2 A 1,1 0 0 0 12,1 Z"
     id="path2" />
  <path
     style="color:#000000;fill:#000000;-inkscape-stroke:none"
     d="m 4.9296875,3.9296875 a 1,1 0 0 0 -0.7070313,0.2929687 1,1 0 0 0 0,1.4140625 L 5.6328125,7.046875 a 1,1 0 0 0 1.4140625,0 1,1 0 0 0 0,-1.4140625 L 5.6367187,4.2226562 A 1,1 0 0 0 4.9296875,3.9296875 Z"
     id="path4" />
  <path
     style="color:#000000;fill:#000000;-inkscape-stroke:none"
     d="m 20,11 a 1,1 0 0 0 -1,1 1,1 0 0 0 1,1 h 2 a 1,1 0 0 0 1,-1 1,1 0 0 0 -1,-1 z"
     id="path6" />
  <path
     style="color:#000000;fill:#000000;-inkscape-stroke:none"
     d="m 18.363281,4.2226562 -1.410156,1.4101563 a 1,1 0 0 0 0,1.4140625 1,1 0 0 0 1.414062,0 l 1.410157,-1.4101563 a 1,1 0 0 0 0,-1.4140625 1,1 0 0 0 -1.414063,0 z"
     id="path8" />
  <path
     style="color:#000000;fill:#000000;-inkscape-stroke:none"
     d="M 12.296875,7.0214844 C 11.381257,6.952719 10.426625,7.140574 9.5273438,7.6523437 a 1,1 0 0 0 -0.375,1.3652344 1,1 0 0 0 1.3652342,0.3730469 c 2.25319,-1.2822623 4.865631,0.5378237 4.44336,3.095703 a 1,1 0 0 0 0.822265,1.150391 1,1 0 0 0 1.150391,-0.824219 C 17.439198,9.749838 15.043728,7.2277805 12.296875,7.0214844 Z"
     id="path10" />
  <path
     style="color:#000000;fill:#000000;-inkscape-stroke:none"
     d="m 7.2070312,11.009766 c -0.8852294,-0.03448 -1.7947605,0.127956 -2.6660156,0.519531 -3.4850205,1.566301 -4.63286682,6.012574 -2.3417968,9.070312 a 1,1 0 0 0 1.4003906,0.201172 1,1 0 0 0 0.2011719,-1.40039 C 2.2508868,17.33185 3.0037343,14.413108 5.3613281,13.353516 7.7189219,12.293923 10.402,13.668823 10.919922,16.201172 A 1.0001,1.0001 0 0 0 11.900391,17 H 13 a 1.0001,1.0001 0 0 0 0.002,0 c 0.967484,-0.0014 1.590928,0.553074 1.871094,1.287109 0.280166,0.734035 0.183327,1.563463 -0.539063,2.207032 a 1,1 0 0 0 -0.08008,1.410156 1,1 0 0 0 1.41211,0.08203 C 17.003735,20.79457 17.287281,19.002363 16.742187,17.574219 16.197094,16.146074 14.789631,14.997367 12.998047,15 H 12.511719 C 11.656902,12.683032 9.5760929,11.102049 7.2070312,11.009766 Z"
     id="path12" />
  <path
     style="color:#000000;fill:#000000;-inkscape-stroke:none"
     d="m 11,19 a 1,1 0 0 0 -1,1 v 2 a 1,1 0 0 0 1,1 1,1 0 0 0 1,-1 v -2 a 1,1 0 0 0 -1,-1 z"
     id="path14" />
  <path
     style="color:#000000;fill:#000000;-inkscape-stroke:none"
     d="m 7,18 a 1,1 0 0 0 -1,1 v 2 a 1,1 0 0 0 1,1 1,1 0 0 0 1,-1 V 19 A 1,1 0 0 0 7,18 Z"
     id="path16" />
</svg>
