<?xml version="1.0" encoding="UTF-8" standalone="no"?>
<svg
   width="24"
   height="24"
   viewBox="0 0 24 24"
   fill="none"
   stroke="currentColor"
   stroke-width="2"
   stroke-linecap="round"
   stroke-linejoin="round"
   version="1.1"
   id="svg4"
   xmlns="http://www.w3.org/2000/svg"
   xmlns:svg="http://www.w3.org/2000/svg">
  <defs
     id="defs8" />
  <path
     style="color:#000000;fill:#000000;-inkscape-stroke:none"
     d="M 8.2636719,4.0644531 C 6.1319776,4.2412711 4.0489162,5.2591032 2.5878906,7.21875 -1.3081775,12.444475 2.4814585,19.998327 9,20 h 8.5 c 1.749998,0 3.189775,-0.692257 4.123047,-1.742188 C 22.556318,17.207882 23,15.847221 23,14.5 23,13.152779 22.556318,11.792118 21.623047,10.742188 20.689775,9.6922566 19.249998,9 17.5,9 H 16.335937 C 14.94382,5.5967637 11.576273,3.7896823 8.2636719,4.0644531 Z m 1.7929691,1.9863281 c 2.088048,0.3700993 3.981252,1.8393463 4.695312,4.2343748 A 1.0001,1.0001 0 0 0 15.710938,11 H 17.5 c 1.249998,0 2.060227,0.432745 2.626953,1.070313 C 20.69368,12.70788 21,13.597223 21,14.5 21,15.402777 20.69368,16.29212 20.126953,16.929687 19.560227,17.567255 18.749998,18 17.5,18 H 9 C 4.0015828,17.998717 1.203947,12.421087 4.1914062,8.4140625 5.6851359,6.4105504 7.9685918,5.680682 10.056641,6.0507812 Z"
     id="path2" />
</svg>
