<?xml version="1.0" encoding="UTF-8" standalone="no"?>
<svg
   width="24"
   height="24"
   viewBox="0 0 24 24"
   fill="none"
   stroke="currentColor"
   stroke-width="2"
   stroke-linecap="round"
   stroke-linejoin="round"
   version="1.1"
   id="svg6"
   xmlns="http://www.w3.org/2000/svg"
   xmlns:svg="http://www.w3.org/2000/svg">
  <defs
     id="defs10" />
  <path
     style="color:#000000;fill:#000000;-inkscape-stroke:none"
     d="M 8.4257813,11.220703 C 6.3135921,10.699986 3.9315993,11.272731 2.3535156,13.205078 -0.8026518,17.069773 2.0100095,22.998982 7,23 h 6 c 1.249998,0 2.314775,-0.504756 2.998047,-1.273438 C 16.681319,20.957881 17,19.972221 17,19 17,18.027779 16.681319,17.042119 15.998047,16.273437 15.314775,15.504756 14.249998,15 13,15 H 12.587891 C 11.879209,13.025752 10.285398,11.679154 8.4257813,11.220703 Z m -0.4550782,1.84961 c 1.3961827,0.344181 2.6050769,1.442964 2.9492189,3.128906 A 1.0001,1.0001 0 0 0 11.900391,17 H 13 c 0.749999,0 1.185226,0.245245 1.501953,0.601562 C 14.81868,17.95788 15,18.472223 15,19 15,19.527777 14.81868,20.04212 14.501953,20.398437 14.185226,20.754755 13.749999,21 13,21 H 7 c -3.4414148,-7.02e-4 -5.2742853,-3.864037 -3.0976562,-6.529297 1.0883145,-1.33263 2.6721766,-1.744572 4.0683593,-1.40039 z"
     id="path2" />
  <path
     style="color:#000000;fill:#000000;-inkscape-stroke:none"
     d="M 15.998047,3 C 12.596099,3.0091192 9.6802624,5.4796046 9.1132813,8.8339844 A 1,1 0 0 0 9.9335938,9.9863281 1,1 0 0 0 11.085938,9.1660156 c 0.285474,-1.6889262 1.412595,-3.0159966 2.888671,-3.6835937 -0.191937,0.5874712 -0.319222,1.1845525 -0.285156,1.7636718 0.0787,1.3378845 0.696382,2.5538037 1.603516,3.4609373 0.907134,0.907134 2.123053,1.524816 3.460937,1.603516 0.558615,0.03286 1.133818,-0.0982 1.701172,-0.275391 C 20.030609,12.967736 19.418312,13.79989 18.5,14.330078 A 1,1 0 0 0 18.134766,15.697266 1,1 0 0 0 19.5,16.0625 C 21.664722,14.812697 23.000353,12.499606 23,10 A 1.0001,1.0001 0 0 0 21.292969,9.2929688 C 20.469747,10.116191 19.658207,10.360754 18.871094,10.314453 18.083981,10.268152 17.299896,9.8858334 16.707031,9.2929688 16.114167,8.7001041 15.731848,7.9160192 15.685547,7.1289062 c -0.0463,-0.7871129 0.198262,-1.598653 1.021484,-2.421875 A 1.0001,1.0001 0 0 0 15.998047,3 Z"
     id="path4" />
</svg>
