<?xml version="1.0" encoding="UTF-8" standalone="no"?>
<svg
   width="24"
   height="24"
   viewBox="0 0 24 24"
   fill="none"
   stroke="currentColor"
   stroke-width="2"
   stroke-linecap="round"
   stroke-linejoin="round"
   version="1.1"
   id="svg10"
   xmlns="http://www.w3.org/2000/svg"
   xmlns:svg="http://www.w3.org/2000/svg">
  <defs
     id="defs14" />
  <path
     style="color:#000000;fill:#000000;-inkscape-stroke:none"
     d="M 16,3 C 12.591122,3.0004372 9.6667492,5.4729452 9.0976563,8.8339844 A 1,1 0 0 0 9.9160156,9.9863281 1,1 0 0 0 11.068359,9.1660156 c 0.289571,-1.7101915 1.437885,-3.0526692 2.941407,-3.7109375 -0.191968,0.5936153 -0.314655,1.197197 -0.277344,1.78125 0.08476,1.3268678 0.699591,2.531622 1.599609,3.4316409 0.900019,0.900018 2.104773,1.514846 3.431641,1.599609 0.55461,0.03543 1.126802,-0.0927 1.691406,-0.263672 -0.431907,0.95912 -1.050526,1.80526 -1.955078,2.328125 A 1,1 0 0 0 18.134766,15.697266 1,1 0 0 0 19.5,16.0625 C 21.593722,14.852249 23,12.58216 23,10 A 1.0001,1.0001 0 0 0 21.302734,9.2832031 C 20.48109,10.083735 19.672613,10.32144 18.890625,10.271484 18.108637,10.221529 17.333227,9.8410395 16.746094,9.2539063 16.15896,8.666773 15.778471,7.8913628 15.728516,7.109375 15.67856,6.3273872 15.916265,5.5189103 16.716797,4.6972656 A 1.0001,1.0001 0 0 0 16,3 Z"
     id="path2" />
  <path
     style="color:#000000;fill:#000000;-inkscape-stroke:none"
     d="m 7.2070312,11.009766 c -0.8852294,-0.03448 -1.7947605,0.127956 -2.6660156,0.519531 -3.4850205,1.566301 -4.63286682,6.012574 -2.3417968,9.070312 a 1,1 0 0 0 1.4003906,0.201172 1,1 0 0 0 0.2011719,-1.40039 C 2.2508868,17.33185 3.0037343,14.413108 5.3613281,13.353516 7.7189219,12.293923 10.402,13.668823 10.919922,16.201172 A 1.0001,1.0001 0 0 0 11.900391,17 H 13 a 1.0001,1.0001 0 0 0 0.002,0 c 0.967484,-0.0014 1.590928,0.553074 1.871094,1.287109 0.280166,0.734035 0.183327,1.563463 -0.539063,2.207032 a 1,1 0 0 0 -0.08008,1.410156 1,1 0 0 0 1.41211,0.08203 C 17.003735,20.79457 17.287281,19.002363 16.742187,17.574219 16.197094,16.146074 14.789631,14.997367 12.998047,15 H 12.511719 C 11.656902,12.683032 9.5760929,11.102049 7.2070312,11.009766 Z"
     id="path4" />
  <path
     style="color:#000000;fill:#000000;-inkscape-stroke:none"
     d="m 11,19 a 1,1 0 0 0 -1,1 v 2 a 1,1 0 0 0 1,1 1,1 0 0 0 1,-1 v -2 a 1,1 0 0 0 -1,-1 z"
     id="path6" />
  <path
     style="color:#000000;fill:#000000;-inkscape-stroke:none"
     d="m 7,18 a 1,1 0 0 0 -1,1 v 2 a 1,1 0 0 0 1,1 1,1 0 0 0 1,-1 V 19 A 1,1 0 0 0 7,18 Z"
     id="path8" />
</svg>
