<?xml version="1.0" encoding="UTF-8" standalone="no"?>
<svg
   width="24"
   height="24"
   viewBox="0 0 24 24"
   fill="none"
   stroke="currentColor"
   stroke-width="2"
   stroke-linecap="round"
   stroke-linejoin="round"
   version="1.1"
   id="svg12"
   xmlns="http://www.w3.org/2000/svg"
   xmlns:svg="http://www.w3.org/2000/svg">
  <defs
     id="defs16" />
  <path
     style="color:#000000;fill:#000000;-inkscape-stroke:none"
     d="m 9.6796875,1.9941406 c -0.9495028,0 -1.8987883,0.3591146 -2.6171875,1.078125 a 1.0001,1.0001 0 0 0 -0.00977,0.011719 C 5.6376309,4.5399082 5.6379759,7.014884 7.2851562,8.6992188 a 1.0001,1.0001 0 0 0 0.00781,0.00781 l 4.0000003,3.9999997 a 1.0001,1.0001 0 0 0 1.414062,0 l 4,-3.9999997 a 1.0001,1.0001 0 0 0 0.0078,-0.00781 c 1.645983,-1.6831108 1.646489,-4.1740347 0.1875,-5.609375 -1.323445,-1.314461 -3.394331,-1.3608321 -4.837891,-0.25 l 0.232422,0.2324218 C 12.211162,2.9864795 12.09776,2.9544571 12.005859,2.8789063 11.903611,2.960819 11.778387,2.997418 11.683594,3.0917969 l 0.01758,-0.017578 0.246094,-0.234375 C 11.279162,2.312209 10.493071,1.9941406 9.6796875,1.9941406 Z m 0,1.9882813 c 0.4331955,0 0.8669245,0.1674194 1.2031255,0.5039062 l 0.40039,0.4003906 a 1.0001,1.0001 0 0 0 1.396485,0.017578 l 0.398437,-0.3789063 a 1.0001,1.0001 0 0 0 0.01758,-0.017578 c 0.671563,-0.6686256 1.726875,-0.6686256 2.398438,0 a 1.0001,1.0001 0 0 0 0.0059,0.00586 c 0.677821,0.6651517 0.797973,1.7514468 -0.214844,2.7871093 L 12,10.585938 8.7148438,7.3007812 C 7.7042886,6.2674316 7.8233964,5.1668376 8.484375,4.4824219 c 0.3352376,-0.3320055 0.7650115,-0.5 1.1953125,-0.5 z"
     id="path2" />
  <path
     style="color:#000000;fill:#000000;-inkscape-stroke:none"
     d="M 5.7988281,6.0253906 C 4.7869692,6.0021858 3.806992,6.368692 3.0898438,7.0976562 c -1.314461,1.3234445 -1.3608321,3.3943308 -0.25,4.8378908 l 0.2324218,-0.232422 c -0.085786,0.08571 -0.1178085,0.199115 -0.1933593,0.291016 0.081913,0.102248 0.1185117,0.227472 0.2128906,0.322265 l -0.017578,-0.01758 -0.234375,-0.246094 C 1.6962748,13.500749 1.737321,15.60369 3.0722656,16.9375 a 1.0001,1.0001 0 0 0 0.011719,0.0098 c 1.4559238,1.415103 3.9308996,1.414758 5.6152344,-0.232422 a 1,1 0 0 0 0.015625,-1.414063 1,1 0 0 0 -1.4140626,-0.01563 c -1.0333496,1.010555 -2.1339436,0.891448 -2.8183593,0.230469 -0.6662441,-0.67273 -0.6668192,-1.728282 0.00391,-2.398437 l 0.4003906,-0.400391 a 1.0001,1.0001 0 0 0 0.017578,-1.396484 L 4.5253906,10.921875 a 1.0001,1.0001 0 0 0 -0.017578,-0.01758 c -0.6686256,-0.671563 -0.6686256,-1.7268752 0,-2.3984376 A 1.0001,1.0001 0 0 0 4.5136719,8.5 C 5.1788236,7.8221787 6.2651187,7.7020267 7.3007812,8.7148438 A 1,1 0 0 0 8.7148438,8.6992188 1,1 0 0 0 8.6992188,7.2851562 C 7.8570514,6.4615661 6.8121599,6.0486292 5.7988281,6.0253906 Z"
     id="path4" />
  <path
     style="color:#000000;fill:#000000;-inkscape-stroke:none"
     d="m 18.195312,6.0214844 c -1.011506,0.029025 -2.052363,0.4400817 -2.894531,1.2636718 a 1,1 0 0 0 -0.01563,1.4140626 1,1 0 0 0 1.414063,0.015625 c 1.033349,-1.0105552 2.133943,-0.8914474 2.818359,-0.2304688 0.666244,0.6727301 0.666819,1.728282 -0.0039,2.398438 l -0.400391,0.40039 a 1.0001,1.0001 0 0 0 -0.01758,1.396485 l 0.378906,0.398437 a 1.0001,1.0001 0 0 0 0.01758,0.01758 c 0.668626,0.671563 0.668626,1.726875 0,2.398438 a 1.0001,1.0001 0 0 0 -0.0059,0.0059 c -0.665152,0.677821 -1.751447,0.797973 -2.787109,-0.214844 a 1,1 0 0 0 -1.414063,0.01563 1,1 0 0 0 0.01563,1.414063 c 1.683111,1.645983 4.174035,1.646489 5.609375,0.1875 1.314461,-1.323445 1.360832,-3.394331 0.25,-4.837891 l -0.232422,0.232422 c 0.08579,-0.08571 0.117809,-0.199115 0.19336,-0.291016 -0.08191,-0.102248 -0.118512,-0.227472 -0.212891,-0.322265 l 0.01758,0.01758 0.234375,0.246094 C 22.303725,10.499251 22.262679,8.3963098 20.927734,7.0625 a 1.0001,1.0001 0 0 0 -0.01172,-0.00977 C 20.188054,6.3451826 19.206819,5.9924591 18.195312,6.0214844 Z"
     id="path6" />
  <path
     style="color:#000000;fill:#000000;-inkscape-stroke:none"
     d="m 11.3125,11.302734 -4,4 a 1.0001,1.0001 0 0 0 -0.00781,0.0078 c -1.6335642,1.670411 -1.6389867,4.132045 -0.2128906,5.572265 a 1.0001,1.0001 0 0 0 0.00195,0.02539 c 0.00731,0.0073 0.01803,0.0084 0.025391,0.01563 0.071722,0.07023 0.1662246,0.09698 0.2421875,0.160156 l -0.00781,0.0098 0.019531,0.0098 a 1.0001,1.0001 0 0 0 0.017578,0 c 1.3259923,1.081082 3.195422,1.095092 4.544922,0.05664 l -0.232422,-0.232422 c 0.08571,0.08579 0.199115,0.117809 0.291016,0.19336 0.102248,-0.08191 0.227472,-0.118512 0.322265,-0.212891 l -0.01758,0.01758 -0.246094,0.234375 c 1.448015,1.143569 3.550956,1.102523 4.884766,-0.232422 1.444682,-1.444682 1.444055,-3.932852 -0.203125,-5.617187 a 1.0001,1.0001 0 0 0 -0.0078,-0.0078 l -3.999999,-4 a 1.0001,1.0001 0 0 0 -1.414063,0 z m 0.707031,2.121094 3.285157,3.285156 c 1.012817,1.035663 0.894065,2.129372 0.21875,2.804688 -0.672402,0.672973 -1.733849,0.672973 -2.40625,0 l -0.400391,-0.400391 a 1.0001,1.0001 0 0 0 -1.396484,-0.01758 l -0.398438,0.378906 a 1.0001,1.0001 0 0 0 -0.01758,0.01758 c -0.667719,0.664799 -1.7126993,0.663048 -2.3847657,0.0059 a 1.0001,1.0001 0 0 0 0,-0.002 C 7.84171,18.830942 7.721558,17.744647 8.734375,16.708984 Z"
     id="path8" />
  <path
     style="color:#000000;fill:#000000;-inkscape-stroke:none"
     d="m 7,16 a 1,1 0 0 0 -0.7070313,0.292969 l -5,5 a 1,1 0 0 0 0,1.414062 1,1 0 0 0 1.4140626,0 l 4.9999999,-5 a 1,1 0 0 0 0,-1.414062 A 1,1 0 0 0 7,16 Z"
     id="path10" />
</svg>
