<?xml version="1.0" encoding="UTF-8" standalone="no"?>
<svg
   width="24"
   height="24"
   viewBox="0 0 24 24"
   fill="none"
   stroke="currentColor"
   stroke-width="2"
   stroke-linecap="round"
   stroke-linejoin="round"
   version="1.1"
   id="svg6"
   xmlns="http://www.w3.org/2000/svg"
   xmlns:svg="http://www.w3.org/2000/svg">
  <defs
     id="defs10" />
  <path
     style="color:#000000;fill:#000000;-inkscape-stroke:none"
     d="m 12,1.0097656 c -3.9855239,0 -6.8138825,3.6007261 -6.28125,7.4121094 -3.9628625,1.1915249 -6.00800612,5.801353 -3.7578125,9.470703 2.2238379,3.626372 7.1599167,3.914919 10.0371095,1.037109 2.873281,2.889294 7.818174,2.606643 10.046875,-1.023437 C 24.299636,14.233799 22.249971,9.6172555 18.28125,8.4296875 18.819123,4.6153556 15.988281,1.0097656 12,1.0097656 Z m 0,2 c 3.026664,0 5.167783,2.8541514 4.320312,5.7597657 a 1.0001,1.0001 0 0 0 -0.04102,0.28125 v 0.00977 a 1.0001,1.0001 0 0 0 0.859375,0.9902341 c 3.243136,0.461463 4.915088,4.016988 3.201172,6.808594 -1.713916,2.791606 -5.642458,2.909869 -7.521485,0.226562 a 1.0001,1.0001 0 0 0 -1.636718,-0.002 C 9.2982693,19.759409 5.3764183,19.634826 3.6660156,16.845703 1.955613,14.056581 3.6227719,10.504611 6.8613281,10.039063 A 1.0001,1.0001 0 0 0 7.6796875,8.7695313 C 6.8322167,5.863917 8.9733363,3.0097656 12,3.0097656 Z m 6.253906,6.0214844 0.02344,0.027344 -0.03711,0.2714843 c 0.02959,-0.1014385 -0.01073,-0.1973906 0.01367,-0.2988281 z"
     id="path2" />
  <path
     style="color:#000000;fill:#000000;-inkscape-stroke:none"
     d="m 12,16.660156 a 1,1 0 0 0 -1,1 V 22 a 1,1 0 0 0 1,1 1,1 0 0 0 1,-1 v -4.339844 a 1,1 0 0 0 -1,-1 z"
     id="path4" />
</svg>
