<?xml version="1.0" encoding="UTF-8" standalone="no"?>
<svg
   width="24"
   height="24"
   viewBox="0 0 24 24"
   fill="none"
   stroke="currentColor"
   stroke-width="2"
   stroke-linecap="round"
   stroke-linejoin="round"
   version="1.1"
   id="svg14"
   xmlns="http://www.w3.org/2000/svg"
   xmlns:svg="http://www.w3.org/2000/svg">
  <defs
     id="defs18" />
  <path
     style="color:#000000;fill:#000000;-inkscape-stroke:none"
     d="m 12,1.0019531 c -0.516868,0 -1.033662,0.1343148 -1.496094,0.4003906 l -6.9999997,4 A 1.0001,1.0001 0 0 0 3.5,5.4042969 C 2.5741305,5.9388472 2.0010966,6.9289458 2,7.9980469 A 1.0001,1.0001 0 0 0 2,8 v 8 a 1.0001,1.0001 0 0 0 0,0.002 c 0.0011,1.069101 0.5741305,2.0592 1.5,2.59375 a 1.0001,1.0001 0 0 0 0.00391,0.002 l 6.9999997,4 c 0.926141,0.532887 2.070557,0.532406 2.996094,-0.002 l 6.996094,-3.998047 a 1.0001,1.0001 0 0 0 0.0039,-0.002 c 0.92587,-0.53455 1.498903,-1.524649 1.5,-2.59375 A 1.0001,1.0001 0 0 0 22,16 V 8 a 1.0001,1.0001 0 0 0 0,-0.00195 c -0.0011,-1.0691011 -0.57413,-2.0591997 -1.5,-2.59375 a 1.0001,1.0001 0 0 0 -0.0039,-0.00195 L 13.5,1.4042969 C 13.036593,1.1367487 12.518296,1.0019531 12,1.0019531 Z m -0.5,2.1347657 c 0.310789,-0.1794342 0.689211,-0.1794342 1,0 a 1.0001,1.0001 0 0 0 0.0039,0.00195 L 19.5,7.1367187 C 19.80994,7.3156624 19.998995,7.6422183 20,8 v 7.998047 c -3.68e-4,0.358494 -0.189535,0.685987 -0.5,0.865234 l -6.996094,3.998047 a 1.0001,1.0001 0 0 0 -0.0039,0.002 c -0.310789,0.179434 -0.689211,0.179434 -1,0 a 1.0001,1.0001 0 0 0 -0.0039,-0.002 L 4.5,16.863281 C 4.19006,16.684338 4.0010048,16.357782 4,16 V 8.0019531 8 c 0.001,-0.3577817 0.19006,-0.6843376 0.5,-0.8632813 L 11.496094,3.1386719 A 1.0001,1.0001 0 0 0 11.5,3.1367188 Z"
     id="path2" />
  <path
     style="color:#000000;fill:#000000;-inkscape-stroke:none"
     d="M 8,3.34375 A 1,1 0 0 0 6.6347656,3.7089844 1,1 0 0 0 7,5.0761719 l 4.5,2.5996093 a 1.0001,1.0001 0 0 0 1,0 L 17,5.0761719 A 1,1 0 0 0 17.365234,3.7089844 1,1 0 0 0 16,3.34375 l -4,2.3105469 z"
     id="polyline4" />
  <path
     style="color:#000000;fill:#000000;-inkscape-stroke:none"
     d="M 2.7421875,11.033203 A 1,1 0 0 0 2.1347656,11.5 1,1 0 0 0 2.5,12.865234 l 4,2.3125 v 4.611328 a 1,1 0 0 0 1,1 1,1 0 0 0 1,-1 V 14.599609 A 1.0001,1.0001 0 0 0 8,13.734375 L 3.5,11.134766 A 1,1 0 0 0 2.7421875,11.033203 Z"
     id="polyline6" />
  <path
     style="color:#000000;fill:#000000;-inkscape-stroke:none"
     d="M 20.5,11.134766 16,13.734375 a 1.0001,1.0001 0 0 0 -0.5,0.865234 v 5.189453 a 1,1 0 0 0 1,1 1,1 0 0 0 1,-1 v -4.611328 l 4,-2.3125 A 1,1 0 0 0 21.865234,11.5 1,1 0 0 0 20.5,11.134766 Z"
     id="polyline8" />
  <path
     style="color:#000000;fill:#000000;-inkscape-stroke:none"
     d="M 3.0117188,5.9941406 A 1,1 0 0 0 2.4042969,6.4589844 1,1 0 0 0 2.7695313,7.8261719 L 11.5,12.875 a 1.0001,1.0001 0 0 0 1,0 L 21.230469,7.8261719 A 1,1 0 0 0 21.595703,6.4589844 1,1 0 0 0 20.228516,6.09375 L 12,10.855469 3.7714844,6.09375 A 1,1 0 0 0 3.0117188,5.9941406 Z"
     id="polyline10" />
  <path
     style="color:#000000;fill:#000000;-inkscape-stroke:none"
     d="m 12,11 a 1,1 0 0 0 -1,1 v 10.080078 a 1,1 0 0 0 1,1 1,1 0 0 0 1,-1 V 12 a 1,1 0 0 0 -1,-1 z"
     id="line12" />
</svg>
