<?xml version="1.0" encoding="UTF-8" standalone="no"?>
<svg
   width="24"
   height="24"
   viewBox="0 0 24 24"
   fill="none"
   stroke="currentColor"
   stroke-width="2"
   stroke-linecap="round"
   stroke-linejoin="round"
   version="1.1"
   id="svg12"
   xmlns="http://www.w3.org/2000/svg"
   xmlns:svg="http://www.w3.org/2000/svg">
  <defs
     id="defs16" />
  <path
     style="color:#000000;fill:#000000;-inkscape-stroke:none"
     d="m 11.455078,1.1621094 -9.9999999,6.5 A 1.0001,1.0001 0 0 0 1,8.5 v 7 a 1.0001,1.0001 0 0 0 0.4550781,0.837891 l 9.9999999,6.5 a 1.0001,1.0001 0 0 0 1.089844,0 l 10,-6.5 A 1.0001,1.0001 0 0 0 23,15.5 v -7 A 1.0001,1.0001 0 0 0 22.544922,7.6621094 l -10,-6.5 a 1.0001,1.0001 0 0 0 -1.089844,0 z M 12,3.1914063 21,9.0429688 v 5.9140622 l -9,5.84961 -9,-5.84961 V 9.0429688 Z"
     id="polygon2" />
  <path
     style="color:#000000;fill:#000000;-inkscape-stroke:none"
     d="m 12,14.5 a 1,1 0 0 0 -1,1 V 22 a 1,1 0 0 0 1,1 1,1 0 0 0 1,-1 v -6.5 a 1,1 0 0 0 -1,-1 z"
     id="line4" />
  <path
     style="color:#000000;fill:#000000;-inkscape-stroke:none"
     d="M 22.173828,7.515625 A 1,1 0 0 0 21.425781,7.6816406 L 12,14.279297 2.5742188,7.6816406 A 1,1 0 0 0 1.1816406,7.9257812 1,1 0 0 0 1.4257812,9.3183594 l 9.9999998,6.9999996 a 1.0001,1.0001 0 0 0 1.148438,0 l 10,-6.9999996 A 1,1 0 0 0 22.818359,7.9257812 1,1 0 0 0 22.173828,7.515625 Z"
     id="polyline6" />
  <path
     style="color:#000000;fill:#000000;-inkscape-stroke:none"
     d="M 11.425781,7.6816406 1.4257812,14.681641 a 1,1 0 0 0 -0.2441406,1.392578 1,1 0 0 0 1.3925782,0.24414 L 12,9.7207031 21.425781,16.318359 a 1,1 0 0 0 1.392578,-0.24414 1,1 0 0 0 -0.24414,-1.392578 l -10,-7.0000004 a 1.0001,1.0001 0 0 0 -1.148438,0 z"
     id="polyline8" />
  <path
     style="color:#000000;fill:#000000;-inkscape-stroke:none"
     d="m 12,1 a 1,1 0 0 0 -1,1 v 6.5 a 1,1 0 0 0 1,1 1,1 0 0 0 1,-1 V 2 A 1,1 0 0 0 12,1 Z"
     id="line10" />
</svg>
