<?xml version="1.0" encoding="UTF-8" standalone="no"?>
<svg
   width="24"
   height="24"
   viewBox="0 0 24 24"
   fill="none"
   stroke="currentColor"
   stroke-width="2"
   stroke-linecap="round"
   stroke-linejoin="round"
   version="1.1"
   id="svg6"
   xmlns="http://www.w3.org/2000/svg"
   xmlns:svg="http://www.w3.org/2000/svg">
  <defs
     id="defs10" />
  <path
     style="color:#000000;fill:#000000;-inkscape-stroke:none"
     d="m 15.292969,5.2929687 a 1,1 0 0 0 0,1.4140625 L 20.585937,12 15.292969,17.292969 a 1,1 0 0 0 0,1.414062 1,1 0 0 0 1.414062,0 l 6,-6 a 1.0001,1.0001 0 0 0 0,-1.414062 l -6,-6.0000003 a 1,1 0 0 0 -1.414062,0 z"
     id="polyline2" />
  <path
     style="color:#000000;fill:#000000;-inkscape-stroke:none"
     d="M 8,5 A 1,1 0 0 0 7.2929687,5.2929687 l -6,6.0000003 a 1.0001,1.0001 0 0 0 0,1.414062 l 6,6 a 1,1 0 0 0 1.4140626,0 1,1 0 0 0 0,-1.414062 L 3.4140625,12 8.7070313,6.7070312 a 1,1 0 0 0 0,-1.4140625 A 1,1 0 0 0 8,5 Z"
     id="polyline4" />
</svg>
