<?xml version="1.0" encoding="UTF-8" standalone="no"?>
<svg
   width="24"
   height="24"
   viewBox="0 0 24 24"
   fill="none"
   stroke="currentColor"
   stroke-width="2"
   stroke-linecap="round"
   stroke-linejoin="round"
   version="1.1"
   id="svg12"
   xmlns="http://www.w3.org/2000/svg"
   xmlns:svg="http://www.w3.org/2000/svg">
  <defs
     id="defs16" />
  <path
     style="color:#000000;fill:#000000;-inkscape-stroke:none"
     d="m 17,7 a 1,1 0 0 0 -1,1 1,1 0 0 0 1,1 h 1 c 1.083332,0 1.76856,0.370245 2.251953,0.9140625 C 20.735346,10.45788 21,11.222223 21,12 21,12.777777 20.735346,13.54212 20.251953,14.085938 19.76856,14.629755 19.083332,15 18,15 h -1 a 1,1 0 0 0 -1,1 1,1 0 0 0 1,1 h 1 c 1.583331,0 2.898109,-0.629757 3.748047,-1.585937 C 22.597985,14.457882 23,13.222221 23,12 23,10.777779 22.597985,9.5421185 21.748047,8.5859375 20.898109,7.6297565 19.583331,7 18,7 Z"
     id="path2" />
  <path
     style="color:#000000;fill:#000000;-inkscape-stroke:none"
     d="M 3,7 A 1.0001,1.0001 0 0 0 2,8 v 9 c 0,2.749576 2.2504236,5 5,5 h 6 c 2.749576,0 5,-2.250424 5,-5 V 8 A 1.0001,1.0001 0 0 0 17,7 Z m 1,2 h 12 v 8 c 0,1.668697 -1.331303,3 -3,3 H 7 C 5.3313028,20 4,18.668697 4,17 Z"
     id="path4" />
  <path
     style="color:#000000;fill:#000000;-inkscape-stroke:none"
     d="M 6,1 A 1,1 0 0 0 5,2 V 4 A 1,1 0 0 0 6,5 1,1 0 0 0 7,4 V 2 A 1,1 0 0 0 6,1 Z"
     id="line6" />
  <path
     style="color:#000000;fill:#000000;-inkscape-stroke:none"
     d="M 10,1 A 1,1 0 0 0 9,2 v 2 a 1,1 0 0 0 1,1 1,1 0 0 0 1,-1 V 2 A 1,1 0 0 0 10,1 Z"
     id="line8" />
  <path
     style="color:#000000;fill:#000000;-inkscape-stroke:none"
     d="m 14,1 a 1,1 0 0 0 -1,1 v 2 a 1,1 0 0 0 1,1 1,1 0 0 0 1,-1 V 2 A 1,1 0 0 0 14,1 Z"
     id="line10" />
</svg>
