<?xml version="1.0" encoding="UTF-8" standalone="no"?>
<svg
   width="24"
   height="24"
   viewBox="0 0 24 24"
   fill="none"
   stroke="currentColor"
   stroke-width="2"
   stroke-linecap="round"
   stroke-linejoin="round"
   version="1.1"
   id="svg30"
   xmlns="http://www.w3.org/2000/svg"
   xmlns:svg="http://www.w3.org/2000/svg">
  <defs
     id="defs34" />
  <path
     style="color:#000000;fill:#000000;-inkscape-stroke:none"
     d="m 12,3 c -4.9587158,0 -9,4.0412879 -9,9 0,4.958712 4.0412842,9 9,9 4.958716,0 9,-4.041288 9,-9 0,-4.9587121 -4.041284,-9 -9,-9 z m 0,2 c 3.877837,0 7,3.1221651 7,7 0,3.877835 -3.122163,7 -7,7 C 8.1221627,19 5,15.877835 5,12 5,8.1221651 8.1221627,5 12,5 Z"
     id="path2" />
  <path
     style="color:#000000;fill:#000000;-inkscape-stroke:none"
     d="M 12,9 C 11.083334,9 10.268559,9.3797562 9.7519531,9.9609375 9.2353477,10.542119 9,11.277779 9,12 9,12.722221 9.2353477,13.457881 9.7519531,14.039063 10.268559,14.620244 11.083334,15 12,15 12.916666,15 13.731441,14.620244 14.248047,14.039063 14.764652,13.457881 15,12.722221 15,12 15,11.277779 14.764652,10.542119 14.248047,9.9609375 13.731441,9.3797562 12.916666,9 12,9 Z m 0,2 c 0.416666,0 0.601893,0.120245 0.751953,0.289063 C 12.902013,11.45788 13,11.722222 13,12 c 0,0.277778 -0.09799,0.54212 -0.248047,0.710938 C 12.601893,12.879755 12.416666,13 12,13 11.583334,13 11.398107,12.879755 11.248047,12.710938 11.097987,12.54212 11,12.277778 11,12 11,11.722222 11.097987,11.45788 11.248047,11.289063 11.398107,11.120245 11.583334,11 12,11 Z"
     id="path4" />
  <path
     style="color:#000000;fill:#000000;-inkscape-stroke:none"
     d="m 12,1 a 1,1 0 0 0 -1,1 v 2 a 1,1 0 0 0 1,1 1,1 0 0 0 1,-1 V 2 A 1,1 0 0 0 12,1 Z"
     id="path6" />
  <path
     style="color:#000000;fill:#000000;-inkscape-stroke:none"
     d="m 12,19 a 1,1 0 0 0 -1,1 v 2 a 1,1 0 0 0 1,1 1,1 0 0 0 1,-1 v -2 a 1,1 0 0 0 -1,-1 z"
     id="path8" />
  <path
     style="color:#000000;fill:#000000;-inkscape-stroke:none"
     d="M 16.257812,17.964844 A 1,1 0 0 0 15.5,18.064453 1,1 0 0 0 15.134766,19.429687 l 1,1.730469 A 1,1 0 0 0 17.5,21.525391 1,1 0 0 0 17.865234,20.160156 l -1,-1.730469 a 1,1 0 0 0 -0.607422,-0.464843 z"
     id="path10" />
  <path
     style="color:#000000;fill:#000000;-inkscape-stroke:none"
     d="M 7.2597656,2.375 A 1,1 0 0 0 6.5,2.4746094 1,1 0 0 0 6.1347656,3.8398438 L 10.134766,10.769531 A 1,1 0 0 0 11.5,11.136719 1,1 0 0 0 11.865234,9.7695313 L 7.8652344,2.8398438 A 1,1 0 0 0 7.2597656,2.375 Z"
     id="path12" />
  <path
     style="color:#000000;fill:#000000;-inkscape-stroke:none"
     d="M 18.671875,15.033203 A 1,1 0 0 0 18.064453,15.5 a 1,1 0 0 0 0.365234,1.365234 l 1.730469,1 A 1,1 0 0 0 21.525391,17.5 1,1 0 0 0 21.160156,16.134766 l -1.730469,-1 a 1,1 0 0 0 -0.757812,-0.101563 z"
     id="path14" />
  <path
     style="color:#000000;fill:#000000;-inkscape-stroke:none"
     d="M 3.0820313,6.0332031 A 1,1 0 0 0 2.4746094,6.5 1,1 0 0 0 2.8398438,7.8652344 l 1.7304687,1 A 1,1 0 0 0 5.9355469,8.5 1,1 0 0 0 5.5703125,7.1347656 l -1.7304687,-1 A 1,1 0 0 0 3.0820313,6.0332031 Z"
     id="path16" />
  <path
     style="color:#000000;fill:#000000;-inkscape-stroke:none"
     d="m 14,11 a 1,1 0 0 0 -1,1 1,1 0 0 0 1,1 h 8 a 1,1 0 0 0 1,-1 1,1 0 0 0 -1,-1 z"
     id="path18" />
  <path
     style="color:#000000;fill:#000000;-inkscape-stroke:none"
     d="m 2,11 a 1,1 0 0 0 -1,1 1,1 0 0 0 1,1 H 4 A 1,1 0 0 0 5,12 1,1 0 0 0 4,11 Z"
     id="path20" />
  <path
     style="color:#000000;fill:#000000;-inkscape-stroke:none"
     d="m 20.917969,6.0332031 a 1,1 0 0 0 -0.757813,0.1015625 l -1.730469,1 A 1,1 0 0 0 18.064453,8.5 1,1 0 0 0 19.429687,8.8652344 l 1.730469,-1 A 1,1 0 0 0 21.525391,6.5 1,1 0 0 0 20.917969,6.0332031 Z"
     id="path22" />
  <path
     style="color:#000000;fill:#000000;-inkscape-stroke:none"
     d="m 5.328125,15.033203 a 1,1 0 0 0 -0.7578125,0.101563 l -1.7304687,1 A 1,1 0 0 0 2.4746094,17.5 1,1 0 0 0 3.8398438,17.865234 l 1.7304687,-1 A 1,1 0 0 0 5.9355469,15.5 1,1 0 0 0 5.328125,15.033203 Z"
     id="path24" />
  <path
     style="color:#000000;fill:#000000;-inkscape-stroke:none"
     d="m 16.742187,2.3730469 a 1,1 0 0 0 -0.607421,0.4667969 l -1,1.7304687 A 1,1 0 0 0 15.5,5.9355469 1,1 0 0 0 16.865234,5.5703125 l 1,-1.7304687 A 1,1 0 0 0 17.5,2.4746094 1,1 0 0 0 16.742187,2.3730469 Z"
     id="path26" />
  <path
     style="color:#000000;fill:#000000;-inkscape-stroke:none"
     d="m 11.5,12.863281 a 1,1 0 0 0 -1.365234,0.367188 L 6.1347656,20.160156 A 1,1 0 0 0 6.5,21.525391 1,1 0 0 0 7.8652344,21.160156 L 11.865234,14.230469 A 1,1 0 0 0 11.5,12.863281 Z"
     id="path28" />
</svg>
