<?xml version="1.0" encoding="UTF-8" standalone="no"?>
<svg
   width="24"
   height="24"
   viewBox="0 0 24 24"
   fill="none"
   stroke="currentColor"
   stroke-width="2"
   stroke-linecap="round"
   stroke-linejoin="round"
   version="1.1"
   id="svg10"
   xmlns="http://www.w3.org/2000/svg"
   xmlns:svg="http://www.w3.org/2000/svg">
  <defs
     id="defs14" />
  <path
     style="color:#000000;fill:#000000;-inkscape-stroke:none"
     d="M 8,1 C 4.1458552,1 1,4.1458552 1,8 c 0,3.854145 3.1458552,7 7,7 3.854145,0 7,-3.145855 7,-7 C 15,4.1458552 11.854145,1 8,1 Z m 0,2 c 2.773266,0 5,2.2267344 5,5 0,2.773266 -2.226734,5 -5,5 C 5.2267344,13 3,10.773266 3,8 3,5.2267344 5.2267344,3 8,3 Z"
     id="circle2" />
  <path
     style="color:#000000;fill:#000000;-inkscape-stroke:none"
     d="m 18.439453,9.4335938 a 1,1 0 0 0 -1.287109,0.5878902 1,1 0 0 0 0.58789,1.285157 c 3.463793,1.291363 4.395941,5.654613 1.761719,8.248046 -2.634221,2.593434 -6.981591,1.59485 -8.21875,-1.888671 a 1,1 0 0 0 -1.277344,-0.607422 1,1 0 0 0 -0.6074215,1.27539 C 11.099,23.122333 17.283359,24.545341 20.904297,20.980469 24.525235,17.415597 23.200684,11.208665 18.439453,9.4335938 Z"
     id="path4" />
  <path
     style="color:#000000;fill:#000000;-inkscape-stroke:none"
     d="M 7,5 A 1,1 0 0 0 6,6 1,1 0 0 0 7,7 v 3 a 1,1 0 0 0 1,1 1,1 0 0 0 1,-1 V 6 A 1.0001,1.0001 0 0 0 8,5 Z"
     id="path6" />
  <path
     style="color:#000000;fill:#000000;-inkscape-stroke:none"
     d="m 16.716797,12.880859 a 1,1 0 0 0 -0.708985,0.28711 1,1 0 0 0 -0.0098,1.414062 l 0.002,0.0039 -2.117187,2.117187 a 1,1 0 0 0 0,1.414062 1,1 0 0 0 1.414062,0 l 2.820312,-2.820312 a 1.0001,1.0001 0 0 0 0.0059,-1.408203 l -0.701172,-0.710938 a 1,1 0 0 0 -0.705078,-0.296875 z"
     id="path8" />
</svg>
