<?xml version="1.0" encoding="UTF-8" standalone="no"?>
<svg
   width="24"
   height="24"
   viewBox="0 0 24 24"
   fill="none"
   stroke="currentColor"
   stroke-width="2"
   stroke-linecap="round"
   stroke-linejoin="round"
   version="1.1"
   id="svg14"
   xmlns="http://www.w3.org/2000/svg"
   xmlns:svg="http://www.w3.org/2000/svg">
  <defs
     id="defs18" />
  <path
     style="color:#000000;fill:#000000;-inkscape-stroke:none"
     d="M 4,1 C 2.3552989,1 1,2.3552989 1,4 v 4 c 0,1.6447011 1.3552989,3 3,3 h 4 c 1.6447011,0 3,-1.3552989 3,-3 V 4 C 11,2.3552989 9.6447011,1 8,1 Z M 4,3 H 8 C 8.5712967,3 9,3.4287033 9,4 V 8 C 9,8.5712967 8.5712967,9 8,9 H 4 C 3.4287033,9 3,8.5712967 3,8 V 4 C 3,3.4287033 3.4287033,3 4,3 Z"
     id="rect2" />
  <path
     style="color:#000000;fill:#000000;-inkscape-stroke:none"
     d="m 14,1 a 1,1 0 0 0 -1,1 1,1 0 0 0 1,1 c 0.554545,0 1,0.4454551 1,1 v 4 c 0,0.5545449 -0.445455,1 -1,1 a 1,1 0 0 0 -1,1 1,1 0 0 0 1,1 c 1.645453,0 3,-1.3545471 3,-3 V 4 C 17,2.3545471 15.645453,1 14,1 Z"
     id="path4" />
  <path
     style="color:#000000;fill:#000000;-inkscape-stroke:none"
     d="m 20,1 a 1,1 0 0 0 -1,1 1,1 0 0 0 1,1 c 0.554545,0 1,0.4454551 1,1 v 4 c 0,0.5545449 -0.445455,1 -1,1 a 1,1 0 0 0 -1,1 1,1 0 0 0 1,1 c 1.645453,0 3,-1.3545471 3,-3 V 4 C 23,2.3545471 21.645453,1 20,1 Z"
     id="path6" />
  <path
     style="color:#000000;fill:#000000;-inkscape-stroke:none"
     d="m 2,13 a 1,1 0 0 0 -1,1 v 1 c 0,2.209802 1.7901983,4 4,4 h 5 a 1,1 0 0 0 1,-1 1,1 0 0 0 -1,-1 H 5 C 3.8098051,17 3,16.190195 3,15 V 14 A 1,1 0 0 0 2,13 Z"
     id="path8" />
  <path
     style="color:#000000;fill:#000000;-inkscape-stroke:none"
     d="m 7,14 a 1,1 0 0 0 -0.7070313,0.292969 1,1 0 0 0 0,1.414062 L 8.5859375,18 6.2929687,20.292969 a 1,1 0 0 0 0,1.414062 1,1 0 0 0 1.4140625,0 l 2.9999998,-3 a 1.0001,1.0001 0 0 0 0,-1.414062 l -2.9999998,-3 A 1,1 0 0 0 7,14 Z"
     id="polyline10" />
  <path
     style="color:#000000;fill:#000000;-inkscape-stroke:none"
     d="m 16,13 c -1.644701,0 -3,1.355299 -3,3 v 4 c 0,1.644701 1.355299,3 3,3 h 4 c 1.644701,0 3,-1.355299 3,-3 v -4 c 0,-1.644701 -1.355299,-3 -3,-3 z m 0,2 h 4 c 0.571297,0 1,0.428703 1,1 v 4 c 0,0.571297 -0.428703,1 -1,1 h -4 c -0.571297,0 -1,-0.428703 -1,-1 v -4 c 0,-0.571297 0.428703,-1 1,-1 z"
     id="rect12" />
</svg>
