<?xml version="1.0" encoding="UTF-8" standalone="no"?>
<svg
   width="24"
   height="24"
   viewBox="0 0 24 24"
   fill="none"
   stroke="currentColor"
   stroke-width="2"
   stroke-linecap="round"
   stroke-linejoin="round"
   version="1.1"
   id="svg4"
   xmlns="http://www.w3.org/2000/svg"
   xmlns:svg="http://www.w3.org/2000/svg">
  <defs
     id="defs8" />
  <path
     style="color:#000000;fill:#000000;-inkscape-stroke:none"
     d="M 5.2949219,2.0625 C 4.5314659,2.1970364 3.7868055,2.5569445 3.171875,3.171875 1.942014,4.401736 1.7329243,6.1507119 2.3046875,7.53125 2.8764507,8.9117881 4.2605666,10 6,10 h 2 v 4 H 6 C 4.2605666,14 2.8764507,15.088212 2.3046875,16.46875 1.7329243,17.849288 1.942014,19.598264 3.171875,20.828125 4.401736,22.057986 6.1507119,22.267076 7.53125,21.695312 8.9117881,21.123549 10,19.739433 10,18 v -2 h 4 v 2 c 0,1.739433 1.088212,3.123549 2.46875,3.695312 1.380538,0.571764 3.129514,0.362674 4.359375,-0.867187 1.229861,-1.229861 1.438951,-2.978837 0.867187,-4.359375 C 21.123549,15.088212 19.739433,14 18,14 h -2 v -4 h 2 C 19.739433,10 21.123549,8.9117881 21.695312,7.53125 22.267076,6.1507119 22.057986,4.401736 20.828125,3.171875 19.598264,1.942014 17.849288,1.7329243 16.46875,2.3046875 15.088212,2.8764507 14,4.2605666 14,6 V 8 H 10 V 6 C 10,4.2605666 8.9117881,2.8764507 7.53125,2.3046875 6.840981,2.0188059 6.0583779,1.9279636 5.2949219,2.0625 Z M 5.6582031,4.0117187 C 6.0321418,3.9491736 6.4118166,4.0058106 6.765625,4.1523437 7.4732419,4.4454101 8,5.0665356 8,6 V 8 H 6 C 5.0665356,8 4.4454101,7.4732419 4.1523437,6.765625 3.8592774,6.0580081 3.9260035,5.2458715 4.5859375,4.5859375 4.9159045,4.2559705 5.2842644,4.0742639 5.6582031,4.0117187 Z m 12.6835939,0 c 0.373939,0.062545 0.742298,0.2442518 1.072265,0.5742188 0.659935,0.659934 0.726661,1.4720706 0.433594,2.1796875 C 19.55459,7.4732419 18.933464,8 18,8 H 16 V 6 c 0,-0.9334644 0.526758,-1.5545899 1.234375,-1.8476563 0.353808,-0.1465331 0.733483,-0.2031701 1.107422,-0.140625 z M 10,10 h 4 v 4 h -4 z m -4,6 h 2 v 2 C 8,18.933464 7.4732419,19.55459 6.765625,19.847656 6.0580081,20.140723 5.2458715,20.073997 4.5859375,19.414062 3.9260035,18.754128 3.8592774,17.941992 4.1523437,17.234375 4.4454101,16.526758 5.0665356,16 6,16 Z m 10,0 h 2 c 0.933464,0 1.55459,0.526758 1.847656,1.234375 0.293067,0.707617 0.226341,1.519753 -0.433594,2.179687 -0.659934,0.659935 -1.47207,0.726661 -2.179687,0.433594 C 16.526758,19.55459 16,18.933464 16,18 Z"
     id="path2" />
</svg>
