<?xml version="1.0" encoding="UTF-8" standalone="no"?>
<svg
   width="24"
   height="24"
   viewBox="0 0 24 24"
   fill="none"
   stroke="currentColor"
   stroke-width="2"
   stroke-linecap="round"
   stroke-linejoin="round"
   version="1.1"
   id="svg6"
   xmlns="http://www.w3.org/2000/svg"
   xmlns:svg="http://www.w3.org/2000/svg">
  <defs
     id="defs10" />
  <path
     style="color:#000000;fill:#000000;-inkscape-stroke:none"
     d="M 12,1 C 5.9367185,1 1,5.9367185 1,12 1,18.063282 5.9367185,23 12,23 18.063282,23 23,18.063282 23,12 23,5.9367185 18.063282,1 12,1 Z m 0,2 c 4.982402,0 9,4.0175976 9,9 0,4.982402 -4.017598,9 -9,9 C 7.0175976,21 3,16.982402 3,12 3,7.0175976 7.0175976,3 12,3 Z"
     id="circle2" />
  <path
     style="color:#000000;fill:#000000;-inkscape-stroke:none"
     d="M 15.923828,6.8105469 9.5644531,8.9316406 A 1.0001,1.0001 0 0 0 8.9316406,9.5644531 L 6.8105469,15.923828 a 1.0001,1.0001 0 0 0 1.265625,1.265625 l 6.3593751,-2.121094 a 1.0001,1.0001 0 0 0 0.632812,-0.632812 l 2.121094,-6.3593751 a 1.0001,1.0001 0 0 0 -1.265625,-1.265625 z m -1.265625,2.53125 -1.328125,3.9882811 -3.9882811,1.328125 1.3281251,-3.988281 z"
     id="polygon4" />
</svg>
