<?xml version="1.0" encoding="UTF-8" standalone="no"?>
<svg
   width="24"
   height="24"
   viewBox="0 0 24 24"
   fill="none"
   stroke="currentColor"
   stroke-width="2"
   stroke-linecap="round"
   stroke-linejoin="round"
   version="1.1"
   id="svg10"
   xmlns="http://www.w3.org/2000/svg"
   xmlns:svg="http://www.w3.org/2000/svg">
  <defs
     id="defs14" />
  <path
     style="color:#000000;fill:#000000;-inkscape-stroke:none"
     d="m 4.7929687,7.7929687 -3.5,3.5000003 a 1.0001,1.0001 0 0 0 0,1.414062 l 3.5,3.5 a 1.0001,1.0001 0 0 0 1.4140625,0 l 3.5000001,-3.5 a 1.0001,1.0001 0 0 0 0,-1.414062 L 6.2070312,7.7929687 a 1.0001,1.0001 0 0 0 -1.4140625,0 z M 5.5,9.9140625 7.5859375,12 5.5,14.085938 3.4140625,12 Z"
     id="path2" />
  <path
     style="color:#000000;fill:#000000;-inkscape-stroke:none"
     d="m 11.292969,1.2929687 -3.5000003,3.5 a 1.0001,1.0001 0 0 0 0,1.4140625 l 3.5000003,3.5000001 a 1.0001,1.0001 0 0 0 1.414062,0 l 3.5,-3.5000001 a 1.0001,1.0001 0 0 0 0,-1.4140625 l -3.5,-3.5 a 1.0001,1.0001 0 0 0 -1.414062,0 z M 12,3.4140625 14.085938,5.5 12,7.5859375 9.9140625,5.5 Z"
     id="path4" />
  <path
     style="color:#000000;fill:#000000;-inkscape-stroke:none"
     d="m 17.792969,7.7929687 -3.5,3.5000003 a 1.0001,1.0001 0 0 0 0,1.414062 l 3.5,3.5 a 1.0001,1.0001 0 0 0 1.414062,0 l 3.5,-3.5 a 1.0001,1.0001 0 0 0 0,-1.414062 l -3.5,-3.5000003 a 1.0001,1.0001 0 0 0 -1.414062,0 z M 18.5,9.9140625 20.585937,12 18.5,14.085938 16.414062,12 Z"
     id="path6" />
  <path
     style="color:#000000;fill:#000000;-inkscape-stroke:none"
     d="m 11.292969,14.292969 -3.5000003,3.5 a 1.0001,1.0001 0 0 0 0,1.414062 l 3.5000003,3.5 a 1.0001,1.0001 0 0 0 1.414062,0 l 3.5,-3.5 a 1.0001,1.0001 0 0 0 0,-1.414062 l -3.5,-3.5 a 1.0001,1.0001 0 0 0 -1.414062,0 z M 12,16.414062 14.085938,18.5 12,20.585937 9.9140625,18.5 Z"
     id="path8" />
</svg>
