<?xml version="1.0" encoding="UTF-8" standalone="no"?>
<svg
   width="24"
   height="24"
   viewBox="0 0 24 24"
   fill="none"
   stroke="currentColor"
   stroke-width="2"
   stroke-linecap="round"
   stroke-linejoin="round"
   version="1.1"
   id="svg10"
   xmlns="http://www.w3.org/2000/svg"
   xmlns:svg="http://www.w3.org/2000/svg">
  <defs
     id="defs14" />
  <path
     style="color:#000000;fill:#000000;-inkscape-stroke:none"
     d="m 4,15 c -1.645008,0 -3,1.354992 -3,3 v 2 a 1.0001,1.0001 0 0 0 1,1 h 20 a 1.0001,1.0001 0 0 0 1,-1 v -2 c 0,-1.645008 -1.354992,-3 -3,-3 z m 0,2 h 16 c 0.564129,0 1,0.435871 1,1 v 1 H 3 v -1 c 0,-0.564129 0.4358712,-1 1,-1 z"
     id="path2" />
  <path
     style="color:#000000;fill:#000000;-inkscape-stroke:none"
     d="M 12,7 C 7.0412879,7 3,11.041284 3,16 a 1,1 0 0 0 1,1 1,1 0 0 0 1,-1 c 0,-3.877837 3.1221651,-7 7,-7 3.877835,0 7,3.122163 7,7 a 1,1 0 0 0 1,1 1,1 0 0 0 1,-1 C 21,11.041284 16.958712,7 12,7 Z"
     id="path4" />
  <path
     style="color:#000000;fill:#000000;-inkscape-stroke:none"
     d="m 12,3 a 1,1 0 0 0 -1,1 v 4 a 1,1 0 0 0 1,1 1,1 0 0 0 1,-1 V 4 A 1,1 0 0 0 12,3 Z"
     id="path6" />
  <path
     style="color:#000000;fill:#000000;-inkscape-stroke:none"
     d="m 10,3 a 1,1 0 0 0 -1,1 1,1 0 0 0 1,1 h 4 A 1,1 0 0 0 15,4 1,1 0 0 0 14,3 Z"
     id="path8" />
</svg>
