<?xml version="1.0" encoding="UTF-8" standalone="no"?>
<svg
   width="24"
   height="24"
   viewBox="0 0 24 24"
   fill="none"
   stroke="currentColor"
   stroke-width="2"
   stroke-linecap="round"
   stroke-linejoin="round"
   version="1.1"
   id="svg18"
   xmlns="http://www.w3.org/2000/svg"
   xmlns:svg="http://www.w3.org/2000/svg">
  <defs
     id="defs22" />
  <path
     style="color:#000000;fill:#000000;-inkscape-stroke:none"
     d="M 3,5 C 1.9092983,5 1,5.9092983 1,7 v 6 c 0,1.090702 0.9092983,2 2,2 h 18 c 1.090702,0 2,-0.909298 2,-2 V 7 C 23,5.9092983 22.090702,5 21,5 Z m 0,2 h 18 v 6 H 3 Z"
     id="rect2" />
  <path
     style="color:#000000;fill:#000000;-inkscape-stroke:none"
     d="m 17,13 a 1,1 0 0 0 -1,1 v 7 a 1,1 0 0 0 1,1 1,1 0 0 0 1,-1 v -7 a 1,1 0 0 0 -1,-1 z"
     id="path4" />
  <path
     style="color:#000000;fill:#000000;-inkscape-stroke:none"
     d="m 7,13 a 1,1 0 0 0 -1,1 v 7 a 1,1 0 0 0 1,1 1,1 0 0 0 1,-1 V 14 A 1,1 0 0 0 7,13 Z"
     id="path6" />
  <path
     style="color:#000000;fill:#000000;-inkscape-stroke:none"
     d="m 17,2 a 1,1 0 0 0 -1,1 v 3 a 1,1 0 0 0 1,1 1,1 0 0 0 1,-1 V 3 A 1,1 0 0 0 17,2 Z"
     id="path8" />
  <path
     style="color:#000000;fill:#000000;-inkscape-stroke:none"
     d="M 7,2 A 1,1 0 0 0 6,3 V 6 A 1,1 0 0 0 7,7 1,1 0 0 0 8,6 V 3 A 1,1 0 0 0 7,2 Z"
     id="path10" />
  <path
     style="color:#000000;fill:#000000;-inkscape-stroke:none"
     d="M 2.3007813,5.3007812 A 1,1 0 0 0 1.59375,5.59375 a 1,1 0 0 0 0,1.4140625 l 7.6992188,7.6992185 a 1,1 0 0 0 1.4140622,0 1,1 0 0 0 0,-1.414062 L 3.0078125,5.59375 A 1,1 0 0 0 2.3007813,5.3007812 Z"
     id="path12" />
  <path
     style="color:#000000;fill:#000000;-inkscape-stroke:none"
     d="m 14,5 a 1,1 0 0 0 -0.707031,0.2929687 1,1 0 0 0 0,1.4140625 l 7.699218,7.6992188 a 1,1 0 0 0 1.414063,0 1,1 0 0 0 0,-1.414062 L 14.707031,5.2929687 A 1,1 0 0 0 14,5 Z"
     id="path14" />
  <path
     style="color:#000000;fill:#000000;-inkscape-stroke:none"
     d="m 8,5 a 1,1 0 0 0 -0.7070313,0.2929687 1,1 0 0 0 0,1.4140625 l 8.0000003,7.9999998 a 1,1 0 0 0 1.414062,0 1,1 0 0 0 0,-1.414062 L 8.7070313,5.2929687 A 1,1 0 0 0 8,5 Z"
     id="path16" />
</svg>
