<?xml version="1.0" encoding="UTF-8" standalone="no"?>
<svg
   width="24"
   height="24"
   viewBox="0 0 24 24"
   fill="none"
   stroke="currentColor"
   stroke-width="2"
   stroke-linecap="round"
   stroke-linejoin="round"
   version="1.1"
   id="svg12"
   xmlns="http://www.w3.org/2000/svg"
   xmlns:svg="http://www.w3.org/2000/svg">
  <defs
     id="defs16" />
  <path
     style="color:#000000;fill:#000000;-inkscape-stroke:none"
     d="m 14.050781,1.0761719 c -0.464045,0 -0.929609,0.1169867 -1.345703,0.3535156 a 1.0001,1.0001 0 0 0 -0.0078,0.00586 l -10.3007816,6 0.1328125,-0.064453 C 1.5597234,7.7589231 1,8.6547754 1,9.6992188 v 6.6015622 c 0,0.516666 0.1661135,0.923357 0.3730469,1.302735 0.2069334,0.379377 0.4555056,0.718094 0.8261719,0.996093 a 1.0001,1.0001 0 0 0 0.074219,0.05078 l 6.3007813,3.90039 a 1.0001,1.0001 0 0 0 0.03125,0.01953 c 0.8321881,0.473058 1.8572652,0.473058 2.6894532,0 a 1.0001,1.0001 0 0 0 0.0078,-0.0059 l 10.300782,-6 a 1.0001,1.0001 0 0 0 0.01172,-0.0078 C 22.05859,16.290627 22.364521,15.927739 22.597656,15.533203 22.830791,15.138667 23,14.715885 23,14.199219 V 7.6992187 C 23,6.6547754 22.456781,5.8923901 21.800781,5.4003906 a 1.0001,1.0001 0 0 0 -0.07422,-0.050781 L 15.425781,1.4492187 a 1.0001,1.0001 0 0 0 -0.03125,-0.019531 C 14.978437,1.1931586 14.514827,1.0761719 14.050781,1.0761719 Z m -0.357422,2.09375 c 0.221331,-0.1258156 0.489358,-0.1251262 0.710938,0 l 6.199219,3.8378906 C 20.748312,7.1216056 21,7.545347 21,7.6992187 v 6.5000003 c 0,-0.01667 -0.03118,0.160943 -0.123047,0.316406 -0.09187,0.155463 -0.234372,0.292186 -0.291016,0.326172 l -10.279296,5.988281 c -0.221331,0.125816 -0.4893575,0.125126 -0.7109379,0 H 9.59375 L 3.3925781,16.990234 C 3.357653,16.961376 3.2174156,16.812332 3.1269531,16.646484 3.0338868,16.475863 3,16.284115 3,16.300781 V 9.6992188 C 3,9.5436634 3.2410588,9.2406858 3.2714844,9.2285156 a 1.0001,1.0001 0 0 0 0.1328125,-0.064453 z"
     id="path2" />
  <path
     style="color:#000000;fill:#000000;-inkscape-stroke:none"
     d="M 2.6269531,8.25 A 1,1 0 0 0 1.25,8.5722656 1,1 0 0 0 1.5722656,9.9492188 L 9,14.556641 v 7.34375 a 1,1 0 0 0 1,1 1,1 0 0 0 1,-1 V 14 a 1.0001,1.0001 0 0 0 -0.472656,-0.849609 z"
     id="path4" />
  <path
     style="color:#000000;fill:#000000;-inkscape-stroke:none"
     d="M 21.398437,6.234375 9.4980469,13.134766 a 1,1 0 0 0 -0.3632813,1.367187 1,1 0 0 0 1.3671874,0.363281 L 22.402344,7.9648437 A 1,1 0 0 0 22.765625,6.5976562 1,1 0 0 0 21.398437,6.234375 Z"
     id="path6" />
  <path
     style="color:#000000;fill:#000000;-inkscape-stroke:none"
     d="m 14,10.699219 a 1,1 0 0 0 -1,1 v 8.101562 a 1,1 0 0 0 1,1 1,1 0 0 0 1,-1 v -8.101562 a 1,1 0 0 0 -1,-1 z"
     id="path8" />
  <path
     style="color:#000000;fill:#000000;-inkscape-stroke:none"
     d="m 18,8.4003906 a 1,1 0 0 0 -1,1 V 17.5 a 1,1 0 0 0 1,1 1,1 0 0 0 1,-1 V 9.4003906 a 1,1 0 0 0 -1,-1 z"
     id="path10" />
</svg>
