<?xml version="1.0" encoding="UTF-8" standalone="no"?>
<svg
   width="24"
   height="24"
   viewBox="0 0 24 24"
   fill="none"
   stroke="currentColor"
   stroke-width="2"
   stroke-linecap="round"
   stroke-linejoin="round"
   version="1.1"
   id="svg12"
   xmlns="http://www.w3.org/2000/svg"
   xmlns:svg="http://www.w3.org/2000/svg">
  <defs
     id="defs16" />
  <path
     style="color:#000000;fill:#000000;-inkscape-stroke:none"
     d="M 12,13 C 10.777779,13 9.5421185,13.402015 8.5859375,14.251953 7.6297565,15.101891 7,16.416669 7,18 a 1,1 0 0 0 1,1 1,1 0 0 0 1,-1 C 9,16.916668 9.370245,16.23144 9.9140625,15.748047 10.45788,15.264654 11.222223,15 12,15 c 0.777777,0 1.54212,0.264654 2.085938,0.748047 C 14.629755,16.23144 15,16.916668 15,18 a 1,1 0 0 0 1,1 1,1 0 0 0 1,-1 C 17,16.416669 16.370243,15.101891 15.414063,14.251953 14.457882,13.402015 13.222221,13 12,13 Z"
     id="path2" />
  <path
     style="color:#000000;fill:#000000;-inkscape-stroke:none"
     d="m 12,7 c -2.1972922,0 -4,1.8027078 -4,4 0,2.197292 1.8027078,4 4,4 2.197292,0 4,-1.802708 4,-4 0,-2.1972922 -1.802708,-4 -4,-4 z m 0,2 c 1.116413,0 2,0.883587 2,2 0,1.116413 -0.883587,2 -2,2 -1.116413,0 -2,-0.883587 -2,-2 0,-1.116413 0.883587,-2 2,-2 z"
     id="circle4" />
  <path
     style="color:#000000;fill:#000000;-inkscape-stroke:none"
     d="M 5,3 C 3.3552989,3 2,4.3552989 2,6 v 14 c 0,1.644701 1.3552989,3 3,3 h 14 c 1.644701,0 3,-1.355299 3,-3 V 6 C 22,4.3552989 20.644701,3 19,3 Z m 0,2 h 14 c 0.571297,0 1,0.4287033 1,1 v 14 c 0,0.571297 -0.428703,1 -1,1 H 5 C 4.4287033,21 4,20.571297 4,20 V 6 C 4,5.4287033 4.4287033,5 5,5 Z"
     id="rect6" />
  <path
     style="color:#000000;fill:#000000;-inkscape-stroke:none"
     d="M 8,1 A 1,1 0 0 0 7,2 V 4 A 1,1 0 0 0 8,5 1,1 0 0 0 9,4 V 2 A 1,1 0 0 0 8,1 Z"
     id="line8" />
  <path
     style="color:#000000;fill:#000000;-inkscape-stroke:none"
     d="m 16,1 a 1,1 0 0 0 -1,1 v 2 a 1,1 0 0 0 1,1 1,1 0 0 0 1,-1 V 2 A 1,1 0 0 0 16,1 Z"
     id="line10" />
</svg>
