<?xml version="1.0" encoding="UTF-8" standalone="no"?>
<svg
   width="24"
   height="24"
   viewBox="0 0 24 24"
   fill="none"
   stroke="currentColor"
   stroke-width="2"
   stroke-linecap="round"
   stroke-linejoin="round"
   version="1.1"
   id="svg14"
   xmlns="http://www.w3.org/2000/svg"
   xmlns:svg="http://www.w3.org/2000/svg">
  <defs
     id="defs18" />
  <path
     style="color:#000000;fill:#000000;-inkscape-stroke:none"
     d="M 12,1 C 7.1421859,1 3.4186216,3.9742967 1.8378906,7.7910156 0.25715964,11.607735 0.78803438,16.342722 4.2226562,19.777344 7.6572781,23.211966 12.392265,23.74284 16.208984,22.162109 20.025703,20.581378 23,16.857814 23,12 a 1.0001,1.0001 0 0 0 -1.294922,-0.955078 c -2.35657,0.725625 -4.475625,-1.3934298 -3.75,-3.7500001 a 1.0001,1.0001 0 0 0 -1.25,-1.25 c -2.35657,0.7256255 -4.475625,-1.3934297 -3.75,-3.75 a 1,1 0 0 0 0.02734,-0.25 A 1,1 0 0 0 13,2 1,1 0 0 0 12.990234,1.9550781 1,1 0 0 0 12.951172,1.7578125 1,1 0 0 0 12.898438,1.5800781 1,1 0 0 0 12.791016,1.4199219 1,1 0 0 0 12.664063,1.265625 1,1 0 0 0 12.513672,1.1640625 1,1 0 0 0 12.333984,1.0664062 1,1 0 0 0 12.294922,1.0449219 1,1 0 0 0 12.275391,1.0546875 1,1 0 0 0 12,1 Z m -0.980469,2.1484375 c 0.01473,2.753797 2.232943,4.9130833 5.003906,4.828125 -0.08496,2.7709635 2.074329,4.9891805 4.828125,5.0039065 -0.370588,3.523647 -2.5371,6.144889 -5.408203,7.333984 C 12.299562,21.616487 8.5014137,21.227976 5.6367187,18.363281 2.7720238,15.498586 2.3835127,11.700438 3.6855469,8.5566406 4.8746418,5.6855378 7.4958841,3.5190257 11.019531,3.1484375 Z"
     id="path2" />
  <path
     style="color:#000000;fill:#000000;-inkscape-stroke:none"
     d="m 8.5,7.5 a 1,1 0 0 0 -1,1 v 0.00977 a 1,1 0 0 0 1,1 1,1 0 0 0 1,-1 V 8.5 a 1,1 0 0 0 -1,-1 z"
     id="path4" />
  <path
     style="color:#000000;fill:#000000;-inkscape-stroke:none"
     d="m 16,14.5 a 1,1 0 0 0 -1,1 v 0.0098 a 1,1 0 0 0 1,1 1,1 0 0 0 1,-1 V 15.5 a 1,1 0 0 0 -1,-1 z"
     id="path6" />
  <path
     style="color:#000000;fill:#000000;-inkscape-stroke:none"
     d="m 12,11 a 1,1 0 0 0 -1,1 v 0.0098 a 1,1 0 0 0 1,1 1,1 0 0 0 1,-1 V 12 a 1,1 0 0 0 -1,-1 z"
     id="path8" />
  <path
     style="color:#000000;fill:#000000;-inkscape-stroke:none"
     d="m 11,16 a 1,1 0 0 0 -1,1 v 0.0098 a 1,1 0 0 0 1,1 1,1 0 0 0 1,-1 V 17 a 1,1 0 0 0 -1,-1 z"
     id="path10" />
  <path
     style="color:#000000;fill:#000000;-inkscape-stroke:none"
     d="m 7,13 a 1,1 0 0 0 -1,1 v 0.0098 a 1,1 0 0 0 1,1 1,1 0 0 0 1,-1 V 14 A 1,1 0 0 0 7,13 Z"
     id="path12" />
</svg>
