<?xml version="1.0" encoding="UTF-8" standalone="no"?>
<svg
   width="24"
   height="24"
   viewBox="0 0 24 24"
   fill="none"
   stroke="currentColor"
   stroke-width="2"
   stroke-linecap="round"
   stroke-linejoin="round"
   version="1.1"
   id="svg6"
   xmlns="http://www.w3.org/2000/svg"
   xmlns:svg="http://www.w3.org/2000/svg">
  <defs
     id="defs10" />
  <path
     style="color:#000000;fill:#000000;-inkscape-stroke:none"
     d="M 12,1 C 5.9367185,1 1,5.9367185 1,12 1,18.063282 5.9367185,23 12,23 18.063282,23 23,18.063282 23,12 23,5.9367185 18.063282,1 12,1 Z m 0,2 c 4.982402,0 9,4.0175976 9,9 0,4.982402 -4.017598,9 -9,9 C 7.0175976,21 3,16.982402 3,12 3,7.0175976 7.0175976,3 12,3 Z"
     id="circle2" />
  <path
     style="color:#000000;fill:#000000;-inkscape-stroke:none"
     d="M 13.103516,7.1191406 C 12.134717,6.9034745 11.12891,6.9833165 10.232422,7.3222656 8.4394448,8.0001639 7,9.7447835 7,12 c 0,2.255216 1.4394448,3.999836 3.232422,4.677734 1.792977,0.677899 4.025558,0.320415 5.517578,-1.371093 A 1,1 0 0 0 15.662109,13.896484 1,1 0 0 0 14.25,13.984375 C 13.303761,15.05713 12.03666,15.221479 10.939453,14.806641 9.8422459,14.391803 9,13.430097 9,12 9,10.569903 9.8422459,9.6081973 10.939453,9.1933594 12.03666,8.7785214 13.303761,8.9428696 14.25,10.015625 a 1,1 0 0 0 1.412109,0.08789 A 1,1 0 0 0 15.75,8.6933594 C 15.00399,7.847605 14.072314,7.3348067 13.103516,7.1191406 Z"
     id="path4" />
</svg>
