<?xml version="1.0" encoding="UTF-8" standalone="no"?>
<svg
   width="24"
   height="24"
   viewBox="0 0 24 24"
   fill="none"
   stroke="currentColor"
   stroke-width="2"
   stroke-linecap="round"
   stroke-linejoin="round"
   version="1.1"
   id="svg6"
   xmlns="http://www.w3.org/2000/svg"
   xmlns:svg="http://www.w3.org/2000/svg">
  <defs
     id="defs10" />
  <path
     style="color:#000000;fill:#000000;-inkscape-stroke:none"
     d="M 12,1 C 5.9367185,1 1,5.9367185 1,12 1,18.063282 5.9367185,23 12,23 18.063282,23 23,18.063282 23,12 23,5.9367185 18.063282,1 12,1 Z m 0,2 c 4.982402,0 9,4.0175976 9,9 0,4.982402 -4.017598,9 -9,9 C 7.0175976,21 3,16.982402 3,12 3,7.0175976 7.0175976,3 12,3 Z"
     id="circle2" />
  <path
     style="color:#000000;fill:#000000;-inkscape-stroke:none"
     d="M 10.896484,7.1191406 C 9.9279956,7.3337588 8.9966353,7.8433097 8.25,8.6875 A 1,1 0 0 0 8.3378906,10.099609 1,1 0 0 0 9.75,10.011719 c 0.946932,-1.0706575 2.212272,-1.2317453 3.308594,-0.8164065 1.096322,0.4153388 1.9375,1.3757015 1.9375,2.8046875 0,1.428986 -0.841178,2.389349 -1.9375,2.804688 C 11.962272,15.220026 10.696932,15.058939 9.75,13.988281 A 1,1 0 0 0 8.3378906,13.900391 1,1 0 0 0 8.25,15.3125 c 1.4932707,1.688381 3.725967,2.042029 5.517578,1.363281 1.791611,-0.678747 3.228516,-2.422079 3.228516,-4.675781 0,-2.2537024 -1.436905,-3.997034 -3.228516,-4.6757813 C 12.871773,6.9848451 11.864973,6.9045224 10.896484,7.1191406 Z"
     id="path4" />
</svg>
