<?xml version="1.0" encoding="UTF-8" standalone="no"?>
<svg
   width="24"
   height="24"
   viewBox="0 0 24 24"
   fill="none"
   stroke="currentColor"
   stroke-width="2"
   stroke-linecap="round"
   stroke-linejoin="round"
   version="1.1"
   id="svg8"
   xmlns="http://www.w3.org/2000/svg"
   xmlns:svg="http://www.w3.org/2000/svg">
  <defs
     id="defs12" />
  <path
     style="color:#000000;fill:#000000;-inkscape-stroke:none"
     d="M 17.292969,12.292969 14,15.585938 12.707031,14.292969 a 1,1 0 0 0 -1.414062,0 1,1 0 0 0 0,1.414062 l 2,2 a 1.0001,1.0001 0 0 0 1.414062,0 l 4,-4 a 1,1 0 0 0 0,-1.414062 1,1 0 0 0 -1.414062,0 z"
     id="path2" />
  <path
     style="color:#000000;fill:#000000;-inkscape-stroke:none"
     d="M 10,7 C 8.3552989,7 7,8.3552989 7,10 v 10 c 0,1.644701 1.3552989,3 3,3 h 10 c 1.644701,0 3,-1.355299 3,-3 V 10 C 23,8.3552989 21.644701,7 20,7 Z m 0,2 h 10 c 0.571297,0 1,0.4287033 1,1 v 10 c 0,0.571297 -0.428703,1 -1,1 H 10 C 9.4287033,21 9,20.571297 9,20 V 10 C 9,9.4287033 9.4287033,9 10,9 Z"
     id="rect4" />
  <path
     style="color:#000000;fill:#000000;-inkscape-stroke:none"
     d="M 4,1 C 2.3545471,1 1,2.3545471 1,4 v 10 c 0,1.645453 1.3545471,3 3,3 A 1,1 0 0 0 5,16 1,1 0 0 0 4,15 C 3.4454551,15 3,14.554545 3,14 V 4 C 3,3.4454551 3.4454551,3 4,3 h 10 c 0.554545,0 1,0.4454551 1,1 a 1,1 0 0 0 1,1 1,1 0 0 0 1,-1 C 17,2.3545471 15.645453,1 14,1 Z"
     id="path6" />
</svg>
