<?xml version="1.0" encoding="UTF-8" standalone="no"?>
<svg
   width="24"
   height="24"
   viewBox="0 0 24 24"
   fill="none"
   stroke="currentColor"
   stroke-width="2"
   stroke-linecap="round"
   stroke-linejoin="round"
   version="1.1"
   id="svg6"
   xmlns="http://www.w3.org/2000/svg"
   xmlns:svg="http://www.w3.org/2000/svg">
  <defs
     id="defs10" />
  <path
     style="color:#000000;fill:#000000;-inkscape-stroke:none"
     d="m 15,9 a 1,1 0 0 0 -0.707031,0.2929688 1,1 0 0 0 0,1.4140622 L 18.585937,15 14.292969,19.292969 a 1,1 0 0 0 0,1.414062 1,1 0 0 0 1.414062,0 l 5,-5 a 1.0001,1.0001 0 0 0 0,-1.414062 l -5,-5.0000002 A 1,1 0 0 0 15,9 Z"
     id="polyline2" />
  <path
     style="color:#000000;fill:#000000;-inkscape-stroke:none"
     d="M 4,3 A 1,1 0 0 0 3,4 v 7 c 0,2.749576 2.2504236,5 5,5 h 12 a 1,1 0 0 0 1,-1 1,1 0 0 0 -1,-1 H 8 C 6.3313028,14 5,12.668697 5,11 V 4 A 1,1 0 0 0 4,3 Z"
     id="path4" />
</svg>
