<?xml version="1.0" encoding="UTF-8" standalone="no"?>
<svg
   width="24"
   height="24"
   viewBox="0 0 24 24"
   fill="none"
   stroke="currentColor"
   stroke-width="2"
   stroke-linecap="round"
   stroke-linejoin="round"
   version="1.1"
   id="svg6"
   xmlns="http://www.w3.org/2000/svg"
   xmlns:svg="http://www.w3.org/2000/svg">
  <defs
     id="defs10" />
  <path
     style="color:#000000;fill:#000000;-inkscape-stroke:none"
     d="m 15,3 a 1,1 0 0 0 -0.707031,0.2929688 1,1 0 0 0 0,1.4140624 L 18.585937,9 14.292969,13.292969 a 1,1 0 0 0 0,1.414062 1,1 0 0 0 1.414062,0 l 5,-4.9999997 a 1.0001,1.0001 0 0 0 0,-1.4140625 l -5,-5 A 1,1 0 0 0 15,3 Z"
     id="polyline2" />
  <path
     style="color:#000000;fill:#000000;-inkscape-stroke:none"
     d="M 8,8 C 5.2504236,8 3,10.250424 3,13 v 7 a 1,1 0 0 0 1,1 1,1 0 0 0 1,-1 V 13 C 5,11.331303 6.3313028,10 8,10 H 20 A 1,1 0 0 0 21,9 1,1 0 0 0 20,8 Z"
     id="path4" />
</svg>
