<?xml version="1.0" encoding="UTF-8" standalone="no"?>
<svg
   width="24"
   height="24"
   viewBox="0 0 24 24"
   fill="none"
   stroke="currentColor"
   stroke-width="2"
   stroke-linecap="round"
   stroke-linejoin="round"
   version="1.1"
   id="svg6"
   xmlns="http://www.w3.org/2000/svg"
   xmlns:svg="http://www.w3.org/2000/svg">
  <defs
     id="defs10" />
  <path
     style="color:#000000;fill:#000000;-inkscape-stroke:none"
     d="m 14.292969,3.2929688 -5.0000002,5 a 1,1 0 0 0 0,1.4140625 1,1 0 0 0 1.4140622,0 L 15,5.4140625 19.292969,9.7070313 a 1,1 0 0 0 1.414062,0 1,1 0 0 0 0,-1.4140625 l -5,-5 a 1.0001,1.0001 0 0 0 -1.414062,0 z"
     id="polyline2" />
  <path
     style="color:#000000;fill:#000000;-inkscape-stroke:none"
     d="m 15,3 a 1,1 0 0 0 -1,1 v 12 c 0,1.668697 -1.331303,3 -3,3 H 4 a 1,1 0 0 0 -1,1 1,1 0 0 0 1,1 h 7 c 2.749576,0 5,-2.250424 5,-5 V 4 A 1,1 0 0 0 15,3 Z"
     id="path4" />
</svg>
