<?xml version="1.0" encoding="UTF-8" standalone="no"?>
<svg
   width="24"
   height="24"
   viewBox="0 0 24 24"
   fill="none"
   stroke="currentColor"
   stroke-width="2"
   stroke-linecap="round"
   stroke-linejoin="round"
   version="1.1"
   id="svg6"
   xmlns="http://www.w3.org/2000/svg"
   xmlns:svg="http://www.w3.org/2000/svg">
  <defs
     id="defs10" />
  <path
     style="color:#000000;fill:#000000;-inkscape-stroke:none"
     d="m 4,14 a 1,1 0 0 0 -0.7070312,0.292969 1,1 0 0 0 0,1.414062 l 5,5 a 1.0001,1.0001 0 0 0 1.4140625,0 l 4.9999997,-5 a 1,1 0 0 0 0,-1.414062 1,1 0 0 0 -1.414062,0 L 9,18.585937 4.7070312,14.292969 A 1,1 0 0 0 4,14 Z"
     id="polyline2" />
  <path
     style="color:#000000;fill:#000000;-inkscape-stroke:none"
     d="M 13,3 C 10.250424,3 8,5.2504236 8,8 v 12 a 1,1 0 0 0 1,1 1,1 0 0 0 1,-1 V 8 c 0,-1.6686972 1.331303,-3 3,-3 h 7 A 1,1 0 0 0 21,4 1,1 0 0 0 20,3 Z"
     id="path4" />
</svg>
