<?xml version="1.0" encoding="UTF-8" standalone="no"?>
<svg
   width="24"
   height="24"
   viewBox="0 0 24 24"
   fill="none"
   stroke="currentColor"
   stroke-width="2"
   stroke-linecap="round"
   stroke-linejoin="round"
   version="1.1"
   id="svg22"
   xmlns="http://www.w3.org/2000/svg"
   xmlns:svg="http://www.w3.org/2000/svg">
  <defs
     id="defs26" />
  <path
     style="color:#000000;fill:#000000;-inkscape-stroke:none"
     d="M 6,3 C 4.3552989,3 3,4.3552989 3,6 v 12 c 0,1.644701 1.3552989,3 3,3 h 12 c 1.644701,0 3,-1.355299 3,-3 V 6 C 21,4.3552989 19.644701,3 18,3 Z m 0,2 h 12 c 0.571297,0 1,0.4287033 1,1 v 12 c 0,0.571297 -0.428703,1 -1,1 H 6 C 5.4287033,19 5,18.571297 5,18 V 6 C 5,5.4287033 5.4287033,5 6,5 Z"
     id="rect2" />
  <path
     style="color:#000000;fill:#000000;-inkscape-stroke:none"
     d="M 9,8 A 1.0001,1.0001 0 0 0 8,9 v 6 a 1.0001,1.0001 0 0 0 1,1 h 6 a 1.0001,1.0001 0 0 0 1,-1 V 9 A 1.0001,1.0001 0 0 0 15,8 Z m 1,2 h 4 v 4 h -4 z"
     id="rect4" />
  <path
     style="color:#000000;fill:#000000;-inkscape-stroke:none"
     d="m 15,1 a 1,1 0 0 0 -1,1 v 2 a 1,1 0 0 0 1,1 1,1 0 0 0 1,-1 V 2 A 1,1 0 0 0 15,1 Z"
     id="path6" />
  <path
     style="color:#000000;fill:#000000;-inkscape-stroke:none"
     d="m 15,19 a 1,1 0 0 0 -1,1 v 2 a 1,1 0 0 0 1,1 1,1 0 0 0 1,-1 v -2 a 1,1 0 0 0 -1,-1 z"
     id="path8" />
  <path
     style="color:#000000;fill:#000000;-inkscape-stroke:none"
     d="m 2,14 a 1,1 0 0 0 -1,1 1,1 0 0 0 1,1 H 4 A 1,1 0 0 0 5,15 1,1 0 0 0 4,14 Z"
     id="path10" />
  <path
     style="color:#000000;fill:#000000;-inkscape-stroke:none"
     d="M 2,8 A 1,1 0 0 0 1,9 1,1 0 0 0 2,10 H 4 A 1,1 0 0 0 5,9 1,1 0 0 0 4,8 Z"
     id="path12" />
  <path
     style="color:#000000;fill:#000000;-inkscape-stroke:none"
     d="m 20,14 a 1,1 0 0 0 -1,1 1,1 0 0 0 1,1 h 2 a 1,1 0 0 0 1,-1 1,1 0 0 0 -1,-1 z"
     id="path14" />
  <path
     style="color:#000000;fill:#000000;-inkscape-stroke:none"
     d="m 20,8 a 1,1 0 0 0 -1,1 1,1 0 0 0 1,1 h 2 A 1,1 0 0 0 23,9 1,1 0 0 0 22,8 Z"
     id="path16" />
  <path
     style="color:#000000;fill:#000000;-inkscape-stroke:none"
     d="M 9,1 A 1,1 0 0 0 8,2 V 4 A 1,1 0 0 0 9,5 1,1 0 0 0 10,4 V 2 A 1,1 0 0 0 9,1 Z"
     id="path18" />
  <path
     style="color:#000000;fill:#000000;-inkscape-stroke:none"
     d="m 9,19 a 1,1 0 0 0 -1,1 v 2 a 1,1 0 0 0 1,1 1,1 0 0 0 1,-1 V 20 A 1,1 0 0 0 9,19 Z"
     id="path20" />
</svg>
