<?xml version="1.0" encoding="UTF-8" standalone="no"?>
<svg
   width="24"
   height="24"
   viewBox="0 0 24 24"
   fill="none"
   stroke="currentColor"
   stroke-width="2"
   stroke-linecap="round"
   stroke-linejoin="round"
   version="1.1"
   id="svg8"
   xmlns="http://www.w3.org/2000/svg"
   xmlns:svg="http://www.w3.org/2000/svg">
  <defs
     id="defs12" />
  <path
     style="color:#000000;fill:#000000;-inkscape-stroke:none"
     d="M 12,1 C 5.9367185,1 1,5.9367185 1,12 1,18.063282 5.9367185,23 12,23 18.063282,23 23,18.063282 23,12 23,5.9367185 18.063282,1 12,1 Z m 0,2 c 4.982402,0 9,4.0175976 9,9 0,4.982402 -4.017598,9 -9,9 C 7.0175976,21 3,16.982402 3,12 3,7.0175976 7.0175976,3 12,3 Z"
     id="circle2" />
  <path
     style="color:#000000;fill:#000000;-inkscape-stroke:none"
     d="m 7.7910156,8.1953125 c -0.8469582,0.2419881 -1.6103672,0.7755705 -2.125,1.5527344 a 1.0001,1.0001 0 0 0 -0.00195,0.00391 c -0.8919509,1.3601179 -0.8901333,3.1244929 -0.00195,4.4863279 1.0037155,1.607501 3.084429,2.202094 4.7832036,1.357422 a 1,1 0 0 0 0.449218,-1.341797 1,1 0 0 0 -1.3398435,-0.449218 c -0.7947947,0.395191 -1.7370796,0.126524 -2.203125,-0.628907 a 1.0001,1.0001 0 0 0 -0.015625,-0.02344 c -0.4592123,-0.700244 -0.4595231,-1.59983 -0.00195,-2.300781 1.069e-4,-1.64e-4 0.00185,1.63e-4 0.00195,0 0.4935769,-0.743912 1.4361279,-1.0142518 2.2480469,-0.642579 A 1,1 0 0 0 10.910156,9.7167969 1,1 0 0 0 10.416016,8.390625 C 9.5684861,8.0026503 8.6379739,7.9533244 7.7910156,8.1953125 Z"
     id="path4" />
  <path
     style="color:#000000;fill:#000000;-inkscape-stroke:none"
     d="m 14.791016,8.1953125 c -0.846959,0.2419881 -1.610368,0.7755705 -2.125,1.5527344 a 1.0001,1.0001 0 0 0 -0.002,0.00391 c -0.891951,1.3601179 -0.890134,3.1244929 -0.002,4.4863279 1.003716,1.607501 3.084429,2.202094 4.783203,1.357422 a 1,1 0 0 0 0.449219,-1.341797 1,1 0 0 0 -1.339844,-0.449218 c -0.794794,0.395191 -1.737079,0.126524 -2.203124,-0.628907 a 1.0001,1.0001 0 0 0 -0.01563,-0.02344 c -0.459213,-0.700244 -0.459524,-1.59983 -0.002,-2.300781 1.07e-4,-1.64e-4 0.0018,1.63e-4 0.002,0 0.493576,-0.743912 1.436127,-1.0142518 2.248046,-0.642579 A 1,1 0 0 0 17.910156,9.7167969 1,1 0 0 0 17.416016,8.390625 c -0.84753,-0.3879747 -1.778042,-0.4373006 -2.625,-0.1953125 z"
     id="path6" />
</svg>
