<?xml version="1.0" encoding="UTF-8" standalone="no"?>
<svg
   width="24"
   height="24"
   viewBox="0 0 24 24"
   fill="none"
   stroke="currentColor"
   stroke-width="2"
   stroke-linecap="round"
   stroke-linejoin="round"
   version="1.1"
   id="svg12"
   xmlns="http://www.w3.org/2000/svg"
   xmlns:svg="http://www.w3.org/2000/svg">
  <defs
     id="defs16" />
  <path
     style="color:#000000;fill:#000000;-inkscape-stroke:none"
     d="M 11.054688,8.6855469 C 10.664157,8.7156325 10.271349,8.8214726 9.9042969,9.0253906 L 4.1152344,12.236328 a 1.0001,1.0001 0 0 0 -0.00195,0 c -0.657027,0.36559 -1.148048,0.937821 -1.3691406,1.582031 -0.2210926,0.644211 -0.1912001,1.314203 -0.033203,1.941407 0.315994,1.254406 1.1248678,2.423255 2.1152344,3.410156 0.9903665,0.986901 2.1615331,1.790822 3.4121094,2.109375 0.6252881,0.159276 1.2927021,0.192909 1.9355467,-0.02148 0.642845,-0.214393 1.217346,-0.699341 1.580078,-1.351562 a 1.0001,1.0001 0 0 0 0,-0.002 l 3.21875,-5.806641 C 15.386643,13.357847 15.410217,12.51357 15.203125,11.792969 14.996033,11.072368 14.582837,10.440608 14.0625,9.9257813 13.542163,9.4109545 12.90824,9.0061921 12.191406,8.8027344 11.832989,8.7010055 11.445218,8.6554612 11.054688,8.6855469 Z m 0.591796,2.0410161 c 0.324728,0.09217 0.703854,0.318421 1.009766,0.621093 0.305912,0.302673 0.533029,0.676071 0.625,0.996094 0.09197,0.320023 0.07133,0.552154 -0.05469,0.777344 a 1.0001,1.0001 0 0 0 -0.002,0.0039 l -3.21875,5.808594 C 9.8485925,19.216372 9.7194592,19.301816 9.5410156,19.361328 9.3625721,19.42084 9.091039,19.433145 8.7324219,19.341797 8.0151876,19.1591 7.0322098,18.547003 6.2363281,17.753906 5.4404465,16.960809 4.8297087,15.983326 4.6503906,15.271484 4.5607316,14.915564 4.5747257,14.649383 4.6367187,14.46875 4.6987118,14.288117 4.7904655,14.148785 5.0859375,13.984375 L 10.875,10.775391 a 1.0001,1.0001 0 0 0 0,-0.002 c 0.210894,-0.117164 0.446757,-0.139042 0.771484,-0.04687 z"
     id="path2" />
  <path
     style="color:#000000;fill:#000000;-inkscape-stroke:none"
     d="M 4.5,5 C 3.5475351,5 2.6377816,5.1213831 1.9355469,5.7617187 1.2333121,6.4020544 1,7.3683345 1,8.5 a 1.0001,1.0001 0 0 0 0.00195,0.046875 c 0.09471,2.026234 0.8923644,3.956983 2.2578125,5.457031 a 1,1 0 0 0 1.4140625,0.06641 1,1 0 0 0 0.066406,-1.414063 C 3.6944482,11.507375 3.0829683,10.031434 3.0039063,8.4804688 3.0087793,7.6431586 3.1647907,7.3462561 3.2832031,7.2382812 3.4034675,7.1286177 3.7424666,7 4.5,7 H 8 c 0.1999998,0 0.2078839,0.019817 0.2734375,0.078125 0.065554,0.058308 0.1808861,0.2199738 0.3007813,0.5117187 a 1.0001,1.0001 0 0 0 0.00977,0.019531 l 1,2.2910156 a 1,1 0 0 0 1.3164066,0.5156254 1,1 0 0 0 0.515625,-1.3164066 l -0.990235,-2.2695313 -0.0039,-0.00586 C 10.242118,6.3879839 10.009078,5.9464591 9.6015625,5.5839844 9.1921166,5.219793 8.5999994,5 8,5 Z"
     id="path4" />
  <path
     style="color:#000000;fill:#000000;-inkscape-stroke:none"
     d="M 6,1 C 4.6383347,1 3.5869903,1.87859 3.1015625,2.8769531 2.6161347,3.8753163 2.5,4.9939263 2.5,6 a 1,1 0 0 0 1,1 1,1 0 0 0 1,-1 C 4.5,5.1760755 4.633866,4.2960884 4.8984375,3.7519531 5.163009,3.2078178 5.3616673,3 6,3 6.377708,3 6.5038408,3.0772815 6.6015625,3.1621094 6.6992842,3.2469372 6.7987172,3.4020816 6.875,3.6816406 7.0275656,4.2407588 7,5.1733879 7,6 A 1,1 0 0 0 8,7 1,1 0 0 0 9,6 C 9,5.2766136 9.0921215,4.2096302 8.8046875,3.15625 8.6609705,2.6295599 8.3993871,2.0753279 7.9121094,1.6523437 7.4248317,1.2293596 6.7422909,1 6,1 Z"
     id="path6" />
  <path
     style="color:#000000;fill:#000000;-inkscape-stroke:none"
     d="m 14.900391,12.583984 a 1,1 0 0 0 -1.316407,0.515625 1,1 0 0 0 0.515625,1.316407 l 2.291016,1 a 1.0001,1.0001 0 0 0 0.01953,0.0098 c 0.291745,0.119895 0.453411,0.235228 0.511719,0.300782 C 16.980183,15.792116 17,15.8 17,16 v 3.5 c 0,0.757533 -0.128618,1.096532 -0.238281,1.216797 -0.107975,0.118412 -0.404878,0.274424 -1.242188,0.279297 -1.550965,-0.07906 -3.026906,-0.690542 -4.175781,-1.736328 a 1,1 0 0 0 -1.4140625,0.06641 1,1 0 0 0 0.066406,1.414062 c 1.5000482,1.365449 3.4307972,2.163103 5.4570312,2.257813 A 1.0001,1.0001 0 0 0 15.5,23 c 1.131666,0 2.097946,-0.233312 2.738281,-0.935547 C 18.878617,21.362218 19,20.452465 19,19.5 V 16 c 0,-0.599999 -0.219793,-1.192117 -0.583984,-1.601562 -0.362475,-0.407516 -0.804,-0.640556 -1.240235,-0.820313 z"
     id="path8" />
  <path
     style="color:#000000;fill:#000000;-inkscape-stroke:none"
     d="m 18,15 a 1,1 0 0 0 -1,1 1,1 0 0 0 1,1 c 0.826612,0 1.759241,-0.02757 2.318359,0.125 0.279559,0.07628 0.434704,0.175716 0.519532,0.273437 C 20.922718,17.496159 21,17.622292 21,18 21,18.638333 20.792182,18.836991 20.248047,19.101562 19.703912,19.366134 18.823924,19.5 18,19.5 a 1,1 0 0 0 -1,1 1,1 0 0 0 1,1 c 1.006074,0 2.124684,-0.116135 3.123047,-0.601563 C 22.12141,20.41301 23,19.361665 23,18 23,17.257709 22.77064,16.575168 22.347656,16.087891 21.924672,15.600613 21.37044,15.339029 20.84375,15.195313 19.79037,14.907879 18.723386,15 18,15 Z"
     id="path10" />
</svg>
