<?xml version="1.0" encoding="UTF-8" standalone="no"?>
<svg
   width="24"
   height="24"
   viewBox="0 0 24 24"
   fill="none"
   stroke="currentColor"
   stroke-width="2"
   stroke-linecap="round"
   stroke-linejoin="round"
   version="1.1"
   id="svg6"
   xmlns="http://www.w3.org/2000/svg"
   xmlns:svg="http://www.w3.org/2000/svg">
  <defs
     id="defs10" />
  <path
     style="color:#000000;fill:#000000;-inkscape-stroke:none"
     d="M 6,1 A 1,1 0 0 0 5,2 v 14 c 0,1.645008 1.354992,3 3,3 h 14 a 1,1 0 0 0 1,-1 1,1 0 0 0 -1,-1 H 8 C 7.4358712,17 7,16.564129 7,16 V 2 A 1,1 0 0 0 6,1 Z"
     id="path2" />
  <path
     style="color:#000000;fill:#000000;-inkscape-stroke:none"
     d="M 2,5 A 1,1 0 0 0 1,6 1,1 0 0 0 2,7 h 14 c 0.564129,0 1,0.4358712 1,1 v 14 a 1,1 0 0 0 1,1 1,1 0 0 0 1,-1 V 8 C 19,6.354992 17.645008,5 16,5 Z"
     id="path4" />
</svg>
