<?xml version="1.0" encoding="UTF-8" standalone="no"?>
<svg
   width="24"
   height="24"
   viewBox="0 0 24 24"
   fill="none"
   stroke="currentColor"
   stroke-width="2"
   stroke-linecap="round"
   stroke-linejoin="round"
   version="1.1"
   id="svg4"
   xmlns="http://www.w3.org/2000/svg"
   xmlns:svg="http://www.w3.org/2000/svg">
  <defs
     id="defs8" />
  <path
     style="color:#000000;fill:#000000;-inkscape-stroke:none"
     d="M 11,1 C 9.354992,1 8,2.354992 8,4 V 8 H 4 C 2.354992,8 1,9.354992 1,11 v 2 c 0,1.645453 1.3545471,3 3,3 h 4 v 4 c 0,1.645453 1.3545471,3 3,3 h 2 c 1.645008,0 3,-1.354992 3,-3 v -4 h 4 c 1.645008,0 3,-1.354992 3,-3 V 11 C 23,9.354992 21.645008,8 20,8 H 16 V 4 C 16,2.354992 14.645008,1 13,1 Z m 0,2 h 2 c 0.564129,0 1,0.4358712 1,1 v 5 a 1.0001,1.0001 0 0 0 1,1 h 5 c 0.564129,0 1,0.435871 1,1 v 2 c 0,0.564129 -0.435871,1 -1,1 h -5 a 1.0001,1.0001 0 0 0 -1,1 v 5 c 0,0.564129 -0.435871,1 -1,1 h -2 c -0.554545,0 -1,-0.445455 -1,-1 V 15 A 1.0001,1.0001 0 0 0 9,14 H 4 C 3.4454551,14 3,13.554545 3,13 V 11 C 3,10.435871 3.4358712,10 4,10 H 9 A 1.0001,1.0001 0 0 0 10,9 V 4 c 0,-0.5641288 0.435871,-1 1,-1 z"
     id="path2" />
</svg>
