<?xml version="1.0" encoding="UTF-8" standalone="no"?>
<svg
   width="24"
   height="24"
   viewBox="0 0 24 24"
   fill="none"
   stroke="currentColor"
   stroke-width="2"
   stroke-linecap="round"
   stroke-linejoin="round"
   version="1.1"
   id="svg4"
   xmlns="http://www.w3.org/2000/svg"
   xmlns:svg="http://www.w3.org/2000/svg">
  <defs
     id="defs8" />
  <path
     style="color:#000000;fill:#000000;-inkscape-stroke:none"
     d="M 12,3 A 1.0001,1.0001 0 0 0 11.130859,3.5039063 L 7.8359375,9.2714844 2.7597656,3.3496094 A 1.0001,1.0001 0 0 0 1.0292969,4.2421875 l 3,11.9999995 A 1.0001,1.0001 0 0 0 5,17 h 14 a 1.0001,1.0001 0 0 0 0.970703,-0.757813 l 3,-11.9999995 A 1.0001,1.0001 0 0 0 21.240234,3.3496094 L 16.164062,9.2714844 12.869141,3.5039063 A 1.0001,1.0001 0 0 0 12,3 Z m 0,3.0175781 3.130859,5.4785159 a 1.0001,1.0001 0 0 0 1.628907,0.154297 L 20.001953,7.8671875 18.21875,15 H 5.78125 L 3.9980469,7.8671875 7.2402344,11.650391 A 1.0001,1.0001 0 0 0 8.8691406,11.496094 Z M 5,19 a 1,1 0 0 0 -1,1 1,1 0 0 0 1,1 h 14 a 1,1 0 0 0 1,-1 1,1 0 0 0 -1,-1 z"
     id="path2" />
</svg>
