<?xml version="1.0" encoding="UTF-8" standalone="no"?>
<svg
   width="24"
   height="24"
   viewBox="0 0 24 24"
   fill="none"
   stroke="currentColor"
   stroke-width="2"
   stroke-linecap="round"
   stroke-linejoin="round"
   version="1.1"
   id="svg10"
   xmlns="http://www.w3.org/2000/svg"
   xmlns:svg="http://www.w3.org/2000/svg">
  <defs
     id="defs14" />
  <path
     style="color:#000000;fill:#000000;-inkscape-stroke:none"
     d="M 5.859375,7.0097656 A 1,1 0 0 0 5.0097656,8.140625 l 1.75,12.28125 c 0.2104577,1.482486 1.5025467,2.592863 3,2.578125 h 4.5195314 c 1.49806,0.01474 2.790334,-1.09669 3,-2.580078 a 1.0001,1.0001 0 0 0 0.002,-0.002 L 18.990234,8.1386719 A 1,1 0 0 0 18.138672,7.0097656 1,1 0 0 0 17.009766,7.8613281 L 15.298828,20.142578 C 15.22633,20.645766 14.809492,21.005007 14.300781,21 a 1.0001,1.0001 0 0 0 -0.01172,0 H 9.75 a 1.0001,1.0001 0 0 0 -0.00977,0 c -0.509666,0.005 -0.928668,-0.354701 -1,-0.859375 a 1.0001,1.0001 0 0 0 0,-0.002 l -1.75,-12.279297 A 1,1 0 0 0 5.859375,7.0097656 Z"
     id="path2" />
  <path
     style="color:#000000;fill:#000000;-inkscape-stroke:none"
     d="M 5,7 A 1,1 0 0 0 4,8 1,1 0 0 0 5,9 H 19 A 1,1 0 0 0 20,8 1,1 0 0 0 19,7 Z"
     id="path4" />
  <path
     style="color:#000000;fill:#000000;-inkscape-stroke:none"
     d="m 9.5,13.498047 c -0.9816617,0 -1.9636463,0.193369 -2.8867188,0.580078 a 1,1 0 0 0 -0.5351562,1.308594 1,1 0 0 0 1.3085937,0.535156 c 1.3525083,-0.566615 2.8740543,-0.566615 4.2265623,0 1.846145,0.773418 3.927293,0.773418 5.773438,0 a 1,1 0 0 0 0.535156,-1.308594 1,1 0 0 0 -1.308594,-0.535156 c -1.352508,0.566615 -2.874054,0.566615 -4.226562,0 C 11.463646,13.691416 10.481662,13.498047 9.5,13.498047 Z"
     id="path6" />
  <path
     style="color:#000000;fill:#000000;-inkscape-stroke:none"
     d="m 13,1 a 1.0001,1.0001 0 0 0 -0.986328,0.8359375 l -1,6 a 1,1 0 0 0 0.822266,1.1503906 1,1 0 0 0 1.15039,-0.8222656 L 13.847656,3 H 15 A 1,1 0 0 0 16,2 1,1 0 0 0 15,1 Z"
     id="path8" />
</svg>
