<?xml version="1.0" encoding="UTF-8" standalone="no"?>
<svg
   width="24"
   height="24"
   viewBox="0 0 24 24"
   fill="none"
   stroke="currentColor"
   stroke-width="2"
   stroke-linecap="round"
   stroke-linejoin="round"
   version="1.1"
   id="svg12"
   xmlns="http://www.w3.org/2000/svg"
   xmlns:svg="http://www.w3.org/2000/svg">
  <defs
     id="defs16" />
  <path
     style="color:#000000;fill:#000000;-inkscape-stroke:none"
     d="m 12,3 c -4.9587132,0 -9,4.0412868 -9,9 0,4.958713 4.0412868,9 9,9 4.958713,0 9,-4.041287 9,-9 0,-4.9587132 -4.041287,-9 -9,-9 z m 0,2 c 3.877834,0 7,3.122166 7,7 0,3.877834 -3.122166,7 -7,7 C 8.122166,19 5,15.877834 5,12 5,8.122166 8.122166,5 12,5 Z"
     id="circle2" />
  <path
     style="color:#000000;fill:#000000;-inkscape-stroke:none"
     d="m 3,2 a 1,1 0 0 0 -0.7070312,0.2929688 1,1 0 0 0 0,1.4140625 l 2.9999999,2.9999999 a 1,1 0 0 0 1.4140625,0 1,1 0 0 0 0,-1.4140625 L 3.7070313,2.2929688 A 1,1 0 0 0 3,2 Z"
     id="line4" />
  <path
     style="color:#000000;fill:#000000;-inkscape-stroke:none"
     d="m 20.292969,2.2929688 -3,2.9999999 a 1,1 0 0 0 0,1.4140625 1,1 0 0 0 1.414062,0 l 3,-2.9999999 a 1,1 0 0 0 0,-1.4140625 1,1 0 0 0 -1.414062,0 z"
     id="line6" />
  <path
     style="color:#000000;fill:#000000;-inkscape-stroke:none"
     d="m 6,17 a 1,1 0 0 0 -0.7070313,0.292969 l -2.9999999,3 a 1,1 0 0 0 0,1.414062 1,1 0 0 0 1.4140625,0 l 2.9999999,-3 a 1,1 0 0 0 0,-1.414062 A 1,1 0 0 0 6,17 Z"
     id="line8" />
  <path
     style="color:#000000;fill:#000000;-inkscape-stroke:none"
     d="m 17.292969,17.292969 a 1,1 0 0 0 0,1.414062 l 3,3 a 1,1 0 0 0 1.414062,0 1,1 0 0 0 0,-1.414062 l -3,-3 a 1,1 0 0 0 -1.414062,0 z"
     id="line10" />
</svg>
