<?xml version="1.0" encoding="UTF-8" standalone="no"?>
<svg
   width="24"
   height="24"
   viewBox="0 0 24 24"
   fill="none"
   stroke="currentColor"
   stroke-width="2"
   stroke-linecap="round"
   stroke-linejoin="round"
   version="1.1"
   id="svg8"
   xmlns="http://www.w3.org/2000/svg"
   xmlns:svg="http://www.w3.org/2000/svg">
  <defs
     id="defs12" />
  <path
     style="color:#000000;fill:#000000;-inkscape-stroke:none"
     d="M 12,1 C 9.4246478,1 7.0937546,1.3385401 5.3203125,1.9296875 4.4335915,2.2252612 3.6824184,2.5783345 3.0878906,3.046875 2.4933628,3.5154155 2,4.1804572 2,5 2,5.8195428 2.4933628,6.4845845 3.0878906,6.953125 3.6824184,7.4216655 4.4335915,7.7747388 5.3203125,8.0703125 7.0937546,8.6614599 9.4246478,9 12,9 14.575352,9 16.906245,8.6614599 18.679687,8.0703125 19.566409,7.7747388 20.317582,7.4216655 20.912109,6.953125 21.506637,6.4845845 22,5.8195428 22,5 22,4.1804572 21.506637,3.5154155 20.912109,3.046875 20.317582,2.5783345 19.566409,2.2252612 18.679687,1.9296875 16.906245,1.3385401 14.575352,1 12,1 Z m 0,2 c 2.395206,0 4.562961,0.333487 6.046875,0.828125 0.741957,0.247319 1.310632,0.5397737 1.626953,0.7890625 C 19.990149,4.8664763 20,4.9911165 20,5 c 0,0.00888 -0.0099,0.1335237 -0.326172,0.3828125 C 19.357507,5.6321013 18.788832,5.924556 18.046875,6.171875 16.562961,6.666513 14.395206,7 12,7 9.6047944,7 7.437039,6.666513 5.953125,6.171875 5.211168,5.924556 4.6424927,5.6321013 4.3261719,5.3828125 4.009851,5.1335237 4,5.0088835 4,5 4,4.9911165 4.009851,4.8664763 4.3261719,4.6171875 4.6424927,4.3678987 5.211168,4.075444 5.953125,3.828125 7.437039,3.333487 9.6047944,3 12,3 Z"
     id="ellipse2" />
  <path
     style="color:#000000;fill:#000000;-inkscape-stroke:none"
     d="M 3,4 A 1,1 0 0 0 2,5 v 14 c 0,0.874999 0.523619,1.616489 1.1679688,2.107422 0.6443497,0.490933 1.4450344,0.830068 2.3613281,1.101562 C 7.3618842,22.751973 9.6759283,23 12,23 c 2.324072,0 4.638116,-0.248027 6.470703,-0.791016 0.916294,-0.271494 1.716978,-0.610629 2.361328,-1.101562 C 21.476381,20.616489 22,19.874999 22,19 V 5 A 1,1 0 0 0 21,4 1,1 0 0 0 20,5 v 14 c 0,0.124999 -0.03888,0.258512 -0.378906,0.517578 -0.340024,0.259066 -0.945592,0.544933 -1.716797,0.773438 C 16.361888,20.748026 14.175924,21 12,21 9.8240762,21 7.6381124,20.748026 6.0957031,20.291016 5.3244985,20.062511 4.7189305,19.776644 4.3789062,19.517578 4.038882,19.258512 4,19.124999 4,19 V 5 A 1,1 0 0 0 3,4 Z"
     id="path4" />
  <path
     style="color:#000000;fill:#000000;-inkscape-stroke:none"
     d="m 3,11 a 1,1 0 0 0 -1,1 c 0,0.874999 0.523619,1.616489 1.1679688,2.107422 0.6443497,0.490933 1.4450344,0.830068 2.3613281,1.101562 C 7.3618842,15.751973 9.6759283,16 12,16 c 2.324072,0 4.638116,-0.248027 6.470703,-0.791016 0.916294,-0.271494 1.716978,-0.610629 2.361328,-1.101562 C 21.476381,13.616489 22,12.874999 22,12 a 1,1 0 0 0 -1,-1 1,1 0 0 0 -1,1 c 0,0.124999 -0.03888,0.258512 -0.378906,0.517578 -0.340024,0.259066 -0.945592,0.544933 -1.716797,0.773438 C 16.361888,13.748026 14.175924,14 12,14 9.8240762,14 7.6381124,13.748026 6.0957031,13.291016 5.3244985,13.062511 4.7189305,12.776644 4.3789062,12.517578 4.038882,12.258512 4,12.124999 4,12 A 1,1 0 0 0 3,11 Z"
     id="path6" />
</svg>
