<?xml version="1.0" encoding="UTF-8" standalone="no"?>
<svg
   width="24"
   height="24"
   viewBox="0 0 24 24"
   fill="none"
   stroke="currentColor"
   stroke-width="2"
   stroke-linecap="round"
   stroke-linejoin="round"
   version="1.1"
   id="svg14"
   xmlns="http://www.w3.org/2000/svg"
   xmlns:svg="http://www.w3.org/2000/svg">
  <defs
     id="defs18" />
  <path
     style="color:#000000;fill:#000000;-inkscape-stroke:none"
     d="M 12,1 C 9.4246478,1 7.0937546,1.3385401 5.3203125,1.9296875 4.4335915,2.2252612 3.6824184,2.5783345 3.0878906,3.046875 2.4933628,3.5154155 2,4.1804572 2,5 2,5.8195428 2.4933628,6.4845845 3.0878906,6.953125 3.6824184,7.4216655 4.4335915,7.7747388 5.3203125,8.0703125 7.0937546,8.6614599 9.4246478,9 12,9 14.575352,9 16.906245,8.6614599 18.679687,8.0703125 19.566409,7.7747388 20.317582,7.4216655 20.912109,6.953125 21.506637,6.4845845 22,5.8195428 22,5 22,4.1804572 21.506637,3.5154155 20.912109,3.046875 20.317582,2.5783345 19.566409,2.2252612 18.679687,1.9296875 16.906245,1.3385401 14.575352,1 12,1 Z m 0,2 c 2.395206,0 4.562961,0.333487 6.046875,0.828125 0.741957,0.247319 1.310632,0.5397737 1.626953,0.7890625 C 19.990149,4.8664763 20,4.9911165 20,5 c 0,0.00888 -0.0099,0.1335237 -0.326172,0.3828125 C 19.357507,5.6321013 18.788832,5.924556 18.046875,6.171875 16.562961,6.666513 14.395206,7 12,7 9.6047944,7 7.437039,6.666513 5.953125,6.171875 5.211168,5.924556 4.6424927,5.6321013 4.3261719,5.3828125 4.009851,5.1335237 4,5.0088835 4,5 4,4.9911165 4.009851,4.8664763 4.3261719,4.6171875 4.6424927,4.3678987 5.211168,4.075444 5.953125,3.828125 7.437039,3.333487 9.6047944,3 12,3 Z"
     id="ellipse2" />
  <path
     style="color:#000000;fill:#000000;-inkscape-stroke:none"
     d="M 3,4 A 1,1 0 0 0 2,5 v 14 c 0,0.707142 0.376592,1.304703 0.8457031,1.746094 0.4691112,0.441391 1.0618869,0.785849 1.7597656,1.085937 1.3957576,0.600176 3.2314819,1.009354 5.3203126,1.166016 A 1,1 0 0 0 10.998047,22.074219 1,1 0 0 0 10.074219,21.001953 C 8.1630534,20.858616 6.4987712,20.468964 5.3945312,19.994141 4.8424113,19.756729 4.4351851,19.494546 4.2167969,19.289062 3.9984087,19.083579 4,18.992857 4,19 V 5 A 1,1 0 0 0 3,4 Z"
     id="path4" />
  <path
     style="color:#000000;fill:#000000;-inkscape-stroke:none"
     d="m 3,11 a 1,1 0 0 0 -1,1 c 0,1.155554 0.8267443,1.985703 1.8515625,2.615234 1.0248182,0.629532 2.381294,1.103914 3.984375,1.371094 A 1,1 0 0 0 8.9863281,15.164063 1,1 0 0 0 8.1640625,14.013672 C 6.7671465,13.780853 5.6236175,13.355624 4.8984375,12.910156 4.1732575,12.464689 4,12.044444 4,12 A 1,1 0 0 0 3,11 Z"
     id="path6" />
  <path
     style="color:#000000;fill:#000000;-inkscape-stroke:none"
     d="m 21,4 a 1,1 0 0 0 -1,1 v 4 a 1,1 0 0 0 1,1 1,1 0 0 0 1,-1 V 5 A 1,1 0 0 0 21,4 Z"
     id="path8" />
  <path
     style="color:#000000;fill:#000000;-inkscape-stroke:none"
     d="m 17.5,11.5 c -1.600675,0 -3.065671,0.651608 -4.117187,1.703125 l -2.089844,2.089844 a 1,1 0 0 0 0,1.414062 1,1 0 0 0 1.414062,0 l 2.089844,-2.089843 C 15.485356,13.928706 16.440678,13.5 17.5,13.5 c 1.944839,0 3.5,1.555161 3.5,3.5 0,1.978187 -1.206613,3.285668 -2.734375,3.794922 -1.527762,0.509254 -3.277932,0.188018 -4.464844,-1.394531 a 1,1 0 0 0 -1.40039,-0.201172 1,1 0 0 0 -0.201172,1.40039 c 1.696121,2.261496 4.44579,2.842289 6.697265,2.091797 C 21.147959,21.940915 23,19.826869 23,17 23,13.974282 20.525718,11.5 17.5,11.5 Z"
     id="path10" />
  <path
     style="color:#000000;fill:#000000;-inkscape-stroke:none"
     d="m 12,11 a 1,1 0 0 0 -1,1 v 4 a 1.0001,1.0001 0 0 0 1,1 h 4 a 1,1 0 0 0 1,-1 1,1 0 0 0 -1,-1 h -3 v -3 a 1,1 0 0 0 -1,-1 z"
     id="path12" />
</svg>
