<?xml version="1.0" encoding="UTF-8" standalone="no"?>
<svg
   width="24"
   height="24"
   viewBox="0 0 24 24"
   fill="none"
   stroke="currentColor"
   stroke-width="2"
   stroke-linecap="round"
   stroke-linejoin="round"
   version="1.1"
   id="svg8"
   xmlns="http://www.w3.org/2000/svg"
   xmlns:svg="http://www.w3.org/2000/svg">
  <defs
     id="defs12" />
  <path
     style="color:#000000;fill:#000000;-inkscape-stroke:none"
     d="M 9,4 A 1.0001,1.0001 0 0 0 8.2929688,4.2929687 L 1.2929687,11.292969 a 1.0001,1.0001 0 0 0 0,1.414062 l 7.0000001,7 A 1.0001,1.0001 0 0 0 9,20 h 11 c 1.645008,0 3,-1.354992 3,-3 V 7 C 23,5.354992 21.645008,4 20,4 Z M 9.4140625,6 H 20 c 0.564129,0 1,0.4358712 1,1 v 10 c 0,0.564129 -0.435871,1 -1,1 H 9.4140625 l -6,-6 z"
     id="path2" />
  <path
     style="color:#000000;fill:#000000;-inkscape-stroke:none"
     d="m 17.292969,8.2929688 -6,6.0000002 a 1,1 0 0 0 0,1.414062 1,1 0 0 0 1.414062,0 l 6,-5.9999997 a 1,1 0 0 0 0,-1.4140625 1,1 0 0 0 -1.414062,0 z"
     id="line4" />
  <path
     style="color:#000000;fill:#000000;-inkscape-stroke:none"
     d="m 12,8 a 1,1 0 0 0 -0.707031,0.2929688 1,1 0 0 0 0,1.4140625 l 6,5.9999997 a 1,1 0 0 0 1.414062,0 1,1 0 0 0 0,-1.414062 l -6,-6.0000002 A 1,1 0 0 0 12,8 Z"
     id="line6" />
</svg>
