<?xml version="1.0" encoding="UTF-8" standalone="no"?>
<svg
   width="24"
   height="24"
   viewBox="0 0 24 24"
   fill="none"
   stroke="currentColor"
   stroke-width="2"
   stroke-linecap="round"
   stroke-linejoin="round"
   version="1.1"
   id="svg8"
   xmlns="http://www.w3.org/2000/svg"
   xmlns:svg="http://www.w3.org/2000/svg">
  <defs
     id="defs12" />
  <path
     style="color:#000000;fill:#000000;-inkscape-stroke:none"
     d="M 12,1 C 10.354992,1 9,2.354992 9,4 9,5.645008 10.354992,7 12,7 13.645008,7 15,5.645008 15,4 15,2.354992 13.645008,1 12,1 Z m 0,2 c 0.564129,0 1,0.4358712 1,1 0,0.5641288 -0.435871,1 -1,1 -0.564129,0 -1,-0.4358712 -1,-1 0,-0.5641288 0.435871,-1 1,-1 z"
     id="circle2" />
  <path
     style="color:#000000;fill:#000000;-inkscape-stroke:none"
     d="M 10.03125,2.2148438 C 4.8550424,3.0959004 1,7.6238149 1,13 1,13.916666 1.3797562,14.731441 1.9609375,15.248047 2.5421188,15.764652 3.2777786,16 4,16 4.7222214,16 5.4578812,15.764652 6.0390625,15.248047 6.6202438,14.731441 7,13.916666 7,13 V 12 C 7,11.583334 7.1202446,11.398107 7.2890625,11.248047 7.4578804,11.097987 7.7222224,11 8,11 8.2777776,11 8.5421196,11.097987 8.7109375,11.248047 8.8797554,11.398107 9,11.583334 9,12 v 4 c 0,0.916666 0.3797562,1.731441 0.9609375,2.248047 C 10.542119,18.764652 11.277779,19 12,19 12.722221,19 13.457881,18.764652 14.039063,18.248047 14.620244,17.731441 15,16.916666 15,16 v -4 c 0,-0.416666 0.120245,-0.601893 0.289063,-0.751953 C 15.45788,11.097987 15.722222,11 16,11 c 0.277778,0 0.54212,0.09799 0.710937,0.248047 C 16.879755,11.398107 17,11.583334 17,12 v 1 c 0,0.916666 0.379756,1.731441 0.960937,2.248047 C 18.542119,15.764652 19.277779,16 20,16 20.722221,16 21.457881,15.764652 22.039062,15.248047 22.620244,14.731441 23,13.916666 23,13 23,7.6238149 19.144958,3.0959004 13.96875,2.2148438 A 1,1 0 0 0 12.814453,3.03125 1,1 0 0 0 13.632813,4.1855469 C 17.856595,4.9044887 21,8.5761949 21,13 21,13.416666 20.879755,13.601893 20.710937,13.751953 20.54212,13.902013 20.277778,14 20,14 19.722222,14 19.45788,13.902013 19.289062,13.751953 19.120245,13.601893 19,13.416666 19,13 V 12 C 19,11.083334 18.620244,10.268559 18.039062,9.7519531 17.457881,9.2353477 16.722221,9 16,9 15.277779,9 14.542119,9.2353477 13.960938,9.7519531 13.379756,10.268559 13,11.083334 13,12 v 4 c 0,0.416666 -0.120245,0.601893 -0.289062,0.751953 C 12.54212,16.902013 12.277778,17 12,17 11.722222,17 11.45788,16.902013 11.289063,16.751953 11.120245,16.601893 11,16.416666 11,16 V 12 C 11,11.083334 10.620244,10.268559 10.039063,9.7519531 9.4578812,9.2353477 8.7222214,9 8,9 7.2777786,9 6.5421188,9.2353477 5.9609375,9.7519531 5.3797562,10.268559 5,11.083334 5,12 v 1 C 5,13.416666 4.8797554,13.601893 4.7109375,13.751953 4.5421196,13.902013 4.2777776,14 4,14 3.7222224,14 3.4578804,13.902013 3.2890625,13.751953 3.1202446,13.601893 3,13.416666 3,13 3,8.5761949 6.1434045,4.9044887 10.367188,4.1855469 A 1,1 0 0 0 11.185547,3.03125 1,1 0 0 0 10.03125,2.2148438 Z"
     id="path4" />
  <path
     style="color:#000000;fill:#000000;-inkscape-stroke:none"
     d="m 2.9902344,13.822266 a 1,1 0 0 0 -0.7675781,1.1875 C 3.3347404,20.196516 7.7021985,22.914063 12,22.914062 c 4.297801,10e-7 8.66526,-2.717546 9.777344,-7.904296 a 1,1 0 0 0 -0.767578,-1.1875 1,1 0 0 0 -1.1875,0.767578 C 18.900842,18.887355 15.485436,20.914062 12,20.914062 c -3.4854358,0 -6.900842,-2.026707 -7.8222656,-6.324218 a 1,1 0 0 0 -1.1875,-0.767578 z"
     id="path6" />
</svg>
