<?xml version="1.0" encoding="UTF-8" standalone="no"?>
<svg
   width="24"
   height="24"
   viewBox="0 0 24 24"
   fill="none"
   stroke="currentColor"
   stroke-width="2"
   stroke-linecap="round"
   stroke-linejoin="round"
   version="1.1"
   id="svg4"
   xmlns="http://www.w3.org/2000/svg"
   xmlns:svg="http://www.w3.org/2000/svg">
  <defs
     id="defs8" />
  <path
     style="color:#000000;fill:#000000;-inkscape-stroke:none"
     d="m 11.994141,1.0097656 c -0.875341,0 -1.750324,0.3316771 -2.4121097,0.9941407 L 1.9921875,9.59375 c -1.32293774,1.323762 -1.32231067,3.501311 0.00195,4.824219 l 7.5878907,7.58789 c 1.3229077,1.324264 3.5004567,1.324891 4.8242187,0.002 l 0.002,-0.002 7.587891,-7.58789 c 1.324264,-1.322908 1.324891,-3.500457 0.002,-4.824219 l -0.002,-0.00195 -7.587891,-7.5878906 C 13.746418,1.3414427 12.869481,1.0097656 11.994141,1.0097656 Z m 0,1.9863282 c 0.358976,0 0.71847,0.1400587 0.998047,0.4199218 a 1.0001,1.0001 0 0 0 0,0.00195 l 7.589843,7.5898442 a 1.0001,1.0001 0 0 0 0.002,0 c 0.559727,0.559153 0.559727,1.434987 0,1.99414 a 1.0001,1.0001 0 0 0 -0.002,0 l -7.589843,7.591797 c -0.559154,0.559726 -1.434988,0.559726 -1.994141,0 L 3.40625,13.001953 c -0.5597263,-0.559153 -0.5597263,-1.434987 0,-1.99414 l 7.591797,-7.5898442 a 1.0001,1.0001 0 0 0 0,-0.00195 c 0.279576,-0.2798631 0.637117,-0.4199218 0.996094,-0.4199218 z"
     id="path2" />
</svg>
