<?xml version="1.0" encoding="UTF-8" standalone="no"?>
<svg
   width="24"
   height="24"
   viewBox="0 0 24 24"
   fill="none"
   stroke="currentColor"
   stroke-width="2"
   stroke-linecap="round"
   stroke-linejoin="round"
   version="1.1"
   id="svg14"
   xmlns="http://www.w3.org/2000/svg"
   xmlns:svg="http://www.w3.org/2000/svg">
  <defs
     id="defs18" />
  <path
     style="color:#000000;fill:#000000;-inkscape-stroke:none"
     d="M 4,9 C 2.3552989,9 1,10.355299 1,12 v 8 c 0,1.644701 1.3552989,3 3,3 h 8 c 1.644701,0 3,-1.355299 3,-3 V 12 C 15,10.355299 13.644701,9 12,9 Z m 0,2 h 8 c 0.571297,0 1,0.428703 1,1 v 8 c 0,0.571297 -0.428703,1 -1,1 H 4 C 3.4287033,21 3,20.571297 3,20 v -8 c 0,-0.571297 0.4287033,-1 1,-1 z"
     id="rect2" />
  <path
     style="color:#000000;fill:#000000;-inkscape-stroke:none"
     d="m 14.919922,1.0078125 c -0.778182,0 -1.556644,0.2771141 -2.169922,0.8300781 a 1.0001,1.0001 0 0 0 -0.03711,0.035156 L 9.2929688,5.2929687 a 1,1 0 0 0 0,1.4140625 1,1 0 0 0 1.4140622,0 L 14.09375,3.3203125 c 0.477574,-0.4275177 1.177361,-0.4267841 1.654297,0.00195 4.89e-4,4.399e-4 0.0015,-4.407e-4 0.002,0 l 4.929687,4.8515625 c 0.426909,0.4768939 0.426909,1.1754499 0,1.6523438 -0.001,0.00117 -9e-4,0.00274 -0.002,0.00391 l -3.464843,3.4628909 a 1,1 0 0 0 0,1.414062 1,1 0 0 0 1.414062,0 l 3.5,-3.5 a 1.0001,1.0001 0 0 0 0.03516,-0.03711 c 1.105928,-1.2265558 1.105928,-3.1132882 0,-4.3398439 a 1.0001,1.0001 0 0 0 -0.04102,-0.042969 l -5,-4.9199219 a 1.0001,1.0001 0 0 0 -0.03125,-0.029297 C 16.476566,1.2849266 15.698103,1.0078125 14.919922,1.0078125 Z"
     id="path4" />
  <path
     style="color:#000000;fill:#000000;-inkscape-stroke:none"
     d="m 6,17 a 1,1 0 0 0 -1,1 1,1 0 0 0 1,1 h 0.00977 a 1,1 0 0 0 1,-1 1,1 0 0 0 -1,-1 z"
     id="path6" />
  <path
     style="color:#000000;fill:#000000;-inkscape-stroke:none"
     d="m 10,13 a 1,1 0 0 0 -1,1 1,1 0 0 0 1,1 h 0.0098 a 1,1 0 0 0 1,-1 1,1 0 0 0 -1,-1 z"
     id="path8" />
  <path
     style="color:#000000;fill:#000000;-inkscape-stroke:none"
     d="m 15,5 a 1,1 0 0 0 -1,1 1,1 0 0 0 1,1 h 0.0098 a 1,1 0 0 0 1,-1 1,1 0 0 0 -1,-1 z"
     id="path10" />
  <path
     style="color:#000000;fill:#000000;-inkscape-stroke:none"
     d="m 18,8 a 1,1 0 0 0 -1,1 1,1 0 0 0 1,1 h 0.0098 a 1,1 0 0 0 1,-1 1,1 0 0 0 -1,-1 z"
     id="path12" />
</svg>
