<?xml version="1.0" encoding="UTF-8" standalone="no"?>
<svg
   width="24"
   height="24"
   viewBox="0 0 24 24"
   fill="none"
   stroke="currentColor"
   stroke-width="2"
   stroke-linecap="round"
   stroke-linejoin="round"
   version="1.1"
   id="svg24"
   xmlns="http://www.w3.org/2000/svg"
   xmlns:svg="http://www.w3.org/2000/svg">
  <defs
     id="defs28" />
  <path
     style="color:#000000;fill:#000000;-inkscape-stroke:none"
     d="m 15.669922,1.2558594 a 1,1 0 0 0 -1.414063,0.074219 c -1.449871,1.6109678 -2.276426,3.274832 -2.720703,4.9082031 a 1,1 0 0 0 0.703125,1.2265625 1,1 0 0 0 1.226563,-0.703125 c 0.371722,-1.3666258 1.02917,-2.7027676 2.279297,-4.0917968 A 1,1 0 0 0 15.669922,1.2558594 Z M 11.761719,16.535156 a 1,1 0 0 0 -1.226563,0.703125 c -0.371722,1.366626 -1.0291703,2.702768 -2.2792966,4.091797 a 1,1 0 0 0 0.074219,1.414063 1,1 0 0 0 1.4140625,-0.07422 C 11.194012,21.058954 12.020567,19.39509 12.464844,17.761719 a 1,1 0 0 0 -0.703125,-1.226563 z"
     id="path2" />
  <path
     style="color:#000000;fill:#000000;-inkscape-stroke:none"
     d="m 21.330078,8.2558594 c -1.389029,1.2501263 -2.725171,1.9075746 -4.091797,2.2792966 a 1,1 0 0 0 -0.703125,1.226563 1,1 0 0 0 1.226563,0.703125 c 1.633371,-0.444277 3.297235,-1.270832 4.908203,-2.7207034 a 1,1 0 0 0 0.07422,-1.4140625 1,1 0 0 0 -1.414063,-0.074219 z M 12,11 c -3.3329967,0 -7.0904641,0.03402 -10.6699219,3.255859 a 1,1 0 0 0 -0.074219,1.414063 1,1 0 0 0 1.4140625,0.07422 C 5.7564575,12.965981 8.6670033,13 12,13 a 1,1 0 0 0 1,-1 1,1 0 0 0 -1,-1 z"
     id="path4" />
  <path
     style="color:#000000;fill:#000000;-inkscape-stroke:none"
     d="m 14.5,2.5 a 1,1 0 0 0 -0.707031,0.2929688 1,1 0 0 0 0,1.4140624 l 2.5,2.5 a 1,1 0 0 0 1.414062,0 1,1 0 0 0 0,-1.4140625 l -2.5,-2.4999999 A 1,1 0 0 0 14.5,2.5 Z"
     id="path6" />
  <path
     style="color:#000000;fill:#000000;-inkscape-stroke:none"
     d="m 12.5,5.5 a 1,1 0 0 0 -0.707031,0.2929687 1,1 0 0 0 0,1.4140625 l 1.5,1.5000001 a 1,1 0 0 0 1.414062,0 1,1 0 0 0 0,-1.4140626 l -1.5,-1.5 A 1,1 0 0 0 12.5,5.5 Z"
     id="path8" />
  <path
     style="color:#000000;fill:#000000;-inkscape-stroke:none"
     d="m 7,17 a 1,1 0 0 0 -0.7070313,0.292969 1,1 0 0 0 0,1.414062 l 2.5000001,2.5 a 1,1 0 0 0 1.4140622,0 1,1 0 0 0 0,-1.414062 l -2.4999998,-2.5 A 1,1 0 0 0 7,17 Z"
     id="path10" />
  <path
     style="color:#000000;fill:#000000;-inkscape-stroke:none"
     d="m 3.5,13.5 a 1,1 0 0 0 -0.7070312,0.292969 1,1 0 0 0 0,1.414062 l 0.5,0.5 a 1,1 0 0 0 1.4140624,0 1,1 0 0 0 0,-1.414062 l -0.5,-0.5 A 1,1 0 0 0 3.5,13.5 Z"
     id="path12" />
  <path
     style="color:#000000;fill:#000000;-inkscape-stroke:none"
     d="m 19.292969,8.2929688 a 1,1 0 0 0 0,1.4140625 l 0.5,0.4999997 a 1,1 0 0 0 1.414062,0 1,1 0 0 0 0,-1.4140622 l -0.5,-0.5 a 1,1 0 0 0 -1.414062,0 z"
     id="path14" />
  <path
     style="color:#000000;fill:#000000;-inkscape-stroke:none"
     d="m 6.5,11.5 a 1,1 0 0 0 -0.7070313,0.292969 1,1 0 0 0 0,1.414062 l 1,1 a 1,1 0 0 0 1.4140626,0 1,1 0 0 0 0,-1.414062 l -1.0000001,-1 A 1,1 0 0 0 6.5,11.5 Z"
     id="path16" />
  <path
     style="color:#000000;fill:#000000;-inkscape-stroke:none"
     d="m 15.792969,9.7929688 a 1,1 0 0 0 0,1.4140622 l 1,1 a 1,1 0 0 0 1.414062,0 1,1 0 0 0 0,-1.414062 l -1,-1.0000002 a 1,1 0 0 0 -1.414062,0 z"
     id="path18" />
  <path
     style="color:#000000;fill:#000000;-inkscape-stroke:none"
     d="m 10,15 a 1,1 0 0 0 -0.7070312,0.292969 1,1 0 0 0 0,1.414062 l 1.5000002,1.5 a 1,1 0 0 0 1.414062,0 1,1 0 0 0 0,-1.414062 l -1.5,-1.5 A 1,1 0 0 0 10,15 Z"
     id="path20" />
  <path
     style="color:#000000;fill:#000000;-inkscape-stroke:none"
     d="m 2,1 a 1,1 0 0 0 -0.7070313,0.2929687 1,1 0 0 0 0,1.4140626 L 21.292969,22.707031 a 1,1 0 0 0 1.414062,0 1,1 0 0 0 0,-1.414062 L 2.7070313,1.2929687 A 1,1 0 0 0 2,1 Z"
     id="line22" />
</svg>
