<?xml version="1.0" encoding="UTF-8" standalone="no"?>
<svg
   width="24"
   height="24"
   viewBox="0 0 24 24"
   fill="none"
   stroke="currentColor"
   stroke-width="2"
   stroke-linecap="round"
   stroke-linejoin="round"
   version="1.1"
   id="svg24"
   xmlns="http://www.w3.org/2000/svg"
   xmlns:svg="http://www.w3.org/2000/svg">
  <defs
     id="defs28" />
  <path
     style="color:#000000;fill:#000000;-inkscape-stroke:none"
     d="M 22.052734,8.0019531 A 1,1 0 0 0 21.330078,8.2558594 C 18.242963,11.034124 15.333247,11 12,11 8.6667533,11 4.9099561,11.03413 1.3300781,14.255859 a 1,1 0 0 0 -0.074219,1.414063 1,1 0 0 0 1.4140625,0.07422 C 5.7570372,12.965876 8.6667533,13 12,13 c 3.333247,0 7.090044,-0.03413 10.669922,-3.2558594 a 1,1 0 0 0 0.07422,-1.4140625 1,1 0 0 0 -0.691407,-0.328125 z"
     id="path2" />
  <path
     style="color:#000000;fill:#000000;-inkscape-stroke:none"
     d="m 11.949219,15.017578 a 1,1 0 0 0 -1.132813,0.845703 c -0.268827,1.858539 -0.8953827,3.618362 -2.5605466,5.46875 a 1,1 0 0 0 0.076172,1.41211 1,1 0 0 0 1.4121093,-0.07617 c 1.9308324,-2.145608 2.7435624,-4.380121 3.0527344,-6.517578 a 1,1 0 0 0 -0.847656,-1.132813 z"
     id="path4" />
  <path
     style="color:#000000;fill:#000000;-inkscape-stroke:none"
     d="m 15.667969,1.2558594 a 1,1 0 0 0 -1.41211,0.076172 c -1.930832,2.1456081 -2.743562,4.3801211 -3.052734,6.5175782 a 1,1 0 0 0 0.847656,1.1328125 1,1 0 0 0 1.132813,-0.8457031 c 0.268827,-1.8585389 0.895383,-3.6183621 2.560547,-5.46875 a 1,1 0 0 0 -0.07617,-1.4121094 z"
     id="path6" />
  <path
     style="color:#000000;fill:#000000;-inkscape-stroke:none"
     d="m 14.5,2.5 a 1,1 0 0 0 -0.707031,0.2929688 1,1 0 0 0 0,1.4140624 l 2.5,2.5 a 1,1 0 0 0 1.414062,0 1,1 0 0 0 0,-1.4140625 l -2.5,-2.4999999 A 1,1 0 0 0 14.5,2.5 Z"
     id="path8" />
  <path
     style="color:#000000;fill:#000000;-inkscape-stroke:none"
     d="m 13,6 a 1,1 0 0 0 -0.707031,0.2929687 1,1 0 0 0 0,1.4140625 l 1,1.0000001 a 1,1 0 0 0 1.414062,0 1,1 0 0 0 0,-1.4140626 l -1,-1 A 1,1 0 0 0 13,6 Z"
     id="path10" />
  <path
     style="color:#000000;fill:#000000;-inkscape-stroke:none"
     d="m 7,17 a 1,1 0 0 0 -0.7070313,0.292969 1,1 0 0 0 0,1.414062 l 2.5000001,2.5 a 1,1 0 0 0 1.4140622,0 1,1 0 0 0 0,-1.414062 l -2.4999998,-2.5 A 1,1 0 0 0 7,17 Z"
     id="path12" />
  <path
     style="color:#000000;fill:#000000;-inkscape-stroke:none"
     d="m 3.5,13.5 a 1,1 0 0 0 -0.7070312,0.292969 1,1 0 0 0 0,1.414062 l 0.5,0.5 a 1,1 0 0 0 1.4140624,0 1,1 0 0 0 0,-1.414062 l -0.5,-0.5 A 1,1 0 0 0 3.5,13.5 Z"
     id="path14" />
  <path
     style="color:#000000;fill:#000000;-inkscape-stroke:none"
     d="m 19.292969,8.2929688 a 1,1 0 0 0 0,1.4140625 l 0.5,0.4999997 a 1,1 0 0 0 1.414062,0 1,1 0 0 0 0,-1.4140622 l -0.5,-0.5 a 1,1 0 0 0 -1.414062,0 z"
     id="path16" />
  <path
     style="color:#000000;fill:#000000;-inkscape-stroke:none"
     d="m 6.5,11.5 a 1,1 0 0 0 -0.7070313,0.292969 1,1 0 0 0 0,1.414062 l 1,1 a 1,1 0 0 0 1.4140626,0 1,1 0 0 0 0,-1.414062 l -1.0000001,-1 A 1,1 0 0 0 6.5,11.5 Z"
     id="path18" />
  <path
     style="color:#000000;fill:#000000;-inkscape-stroke:none"
     d="m 15.792969,9.7929688 a 1,1 0 0 0 0,1.4140622 l 1,1 a 1,1 0 0 0 1.414062,0 1,1 0 0 0 0,-1.414062 l -1,-1.0000002 a 1,1 0 0 0 -1.414062,0 z"
     id="path20" />
  <path
     style="color:#000000;fill:#000000;-inkscape-stroke:none"
     d="m 10,15 a 1,1 0 0 0 -0.7070312,0.292969 1,1 0 0 0 0,1.414062 l 1.5000002,1.5 a 1,1 0 0 0 1.414062,0 1,1 0 0 0 0,-1.414062 l -1.5,-1.5 A 1,1 0 0 0 10,15 Z"
     id="path22" />
</svg>
