<?xml version="1.0" encoding="UTF-8" standalone="no"?>
<svg
   width="24"
   height="24"
   viewBox="0 0 24 24"
   fill="none"
   stroke="currentColor"
   stroke-width="2"
   stroke-linecap="round"
   stroke-linejoin="round"
   version="1.1"
   id="svg14"
   xmlns="http://www.w3.org/2000/svg"
   xmlns:svg="http://www.w3.org/2000/svg">
  <defs
     id="defs18" />
  <path
     style="color:#000000;fill:#000000;-inkscape-stroke:none"
     d="M 6.3359375,2.0136719 C 4.3213687,2.3490765 3.1951739,4.2157585 2.4785156,5.9140625 2.1201865,6.7632145 1.8666808,7.612274 1.7050781,8.3339844 1.5434754,9.0556947 1.441722,9.5490996 1.5058594,10.113281 c 0.060464,0.531324 0.3358561,0.882971 0.6445312,1.171875 0.3086752,0.288904 0.6863323,0.515774 1.1269532,0.683594 0.8812416,0.33564 2.0312121,0.416421 3.2285156,-0.03125 1.5721039,-0.588448 2.4839398,-1.864228 2.9335937,-3.09375 A 1,1 0 0 0 8.84375,7.5605469 1,1 0 0 0 7.5605469,8.15625 C 7.2422015,9.0267255 6.754581,9.706949 5.8046875,10.0625 5.0719866,10.335797 4.4337642,10.268537 3.9902344,10.099609 3.7682309,10.015055 3.6001838,9.9015333 3.5175781,9.8242188 3.4349724,9.7469042 3.473677,9.7068947 3.4941406,9.8867188 3.501778,9.9539009 3.5195405,9.3820227 3.65625,8.7714844 3.7929595,8.1609461 4.0173923,7.4092527 4.3203125,6.6914062 4.9261529,5.2557134 5.8556342,4.120923 6.6640625,3.9863281 7.3983014,3.8637641 8.0250446,4.0241349 8.4296875,4.2851562 8.8343304,4.5461776 9,4.8550528 9,5.171875 a 1,1 0 0 0 1,1 1,1 0 0 0 1,-1 C 11,4.0986986 10.378278,3.1612434 9.5136719,2.6035156 8.6490661,2.0457878 7.5246967,1.8152363 6.3359375,2.0136719 Z"
     id="path2" />
  <path
     style="color:#000000;fill:#000000;-inkscape-stroke:none"
     d="M 17.931641,2.0136719 C 16.742881,1.8152363 15.618512,2.0457878 14.753906,2.6035156 13.8893,3.1612434 13.267578,4.0986986 13.267578,5.171875 a 1,1 0 0 0 1,1 1,1 0 0 0 1,-1 c 0,-0.3168222 0.16567,-0.6256974 0.570313,-0.8867188 0.404643,-0.2610213 1.029433,-0.4213921 1.763671,-0.2988281 a 1.0001,1.0001 0 0 0 0.002,0 c 0.808428,0.1345949 1.737909,1.2693853 2.34375,2.7050781 0.30292,0.7178465 0.527353,1.4695399 0.664062,2.0800782 0.13671,0.6105383 0.154472,1.1824165 0.162109,1.1152344 0.02046,-0.1798241 0.05917,-0.1398146 -0.02344,-0.0625 -0.08261,0.077314 -0.250653,0.1908362 -0.472656,0.2753902 -0.444007,0.16911 -1.082712,0.237219 -1.816407,-0.03711 C 17.528112,9.7133378 17.149089,9.0819503 16.810547,8.15625 A 1,1 0 0 0 15.529297,7.5605469 1,1 0 0 0 14.933594,8.84375 c 0.429457,1.174298 1.236999,2.498913 2.826172,3.09375 a 1.0001,1.0001 0 0 0 0.002,0 c 1.197303,0.447671 2.345321,0.36689 3.226562,0.03125 0.440621,-0.16782 0.820231,-0.39469 1.128906,-0.683594 0.308676,-0.288904 0.582115,-0.640551 0.642579,-1.171875 C 22.823903,9.5490996 22.724103,9.0556947 22.5625,8.3339844 22.400897,7.612274 22.147392,6.7632145 21.789062,5.9140625 21.072404,4.2157585 19.946209,2.3490765 17.931641,2.0136719 Z"
     id="path4" />
  <path
     style="color:#000000;fill:#000000;-inkscape-stroke:none"
     d="m 8,13 a 1,1 0 0 0 -1,1 v 0.5 a 1,1 0 0 0 1,1 1,1 0 0 0 1,-1 V 14 A 1,1 0 0 0 8,13 Z"
     id="path6" />
  <path
     style="color:#000000;fill:#000000;-inkscape-stroke:none"
     d="m 16,13 a 1,1 0 0 0 -1,1 v 0.5 a 1,1 0 0 0 1,1 1,1 0 0 0 1,-1 V 14 a 1,1 0 0 0 -1,-1 z"
     id="path8" />
  <path
     style="color:#000000;fill:#000000;-inkscape-stroke:none"
     d="m 11.25,15.25 a 1.0001,1.0001 0 0 0 -0.707031,1.707031 l 0.75,0.75 a 1.0001,1.0001 0 0 0 1.414062,0 l 0.75,-0.75 A 1.0001,1.0001 0 0 0 12.75,15.25 Z"
     id="path10" />
  <path
     style="color:#000000;fill:#000000;-inkscape-stroke:none"
     d="m 12,4 c -0.647605,-0.00264 -1.294219,0.058747 -1.929687,0.1835937 A 1,1 0 0 0 9.2832031,5.3574219 1,1 0 0 0 10.457031,6.1464844 C 10.963841,6.0469141 11.4796,5.9976907 11.996094,6 A 1.0001,1.0001 0 0 0 12,6 c 0.687692,0 1.309464,0.094268 1.875,0.2636719 A 1,1 0 0 0 15.119141,5.59375 1,1 0 0 0 14.447266,4.3476562 C 13.691986,4.1214152 12.874682,4.0003794 12.003906,4 Z m -7.3300781,6.279297 a 1,1 0 0 0 -1.21875,0.716797 C 3.1500247,12.158966 2.9989207,13.355407 3,14.556641 3,16.928832 4.0743115,18.88547 5.7421875,20.140625 7.4100635,21.39578 9.6195824,22 12,22 14.380418,22 16.589936,21.39578 18.257812,20.140625 19.925689,18.88547 21,16.928832 21,14.556641 c 0,-1.16279 -0.176064,-2.392582 -0.535156,-3.595703 a 1,1 0 0 0 -1.244141,-0.671875 1,1 0 0 0 -0.671875,1.24414 C 18.851735,12.54808 19,13.597432 19,14.556641 19,16.356445 18.282309,17.619126 17.054687,18.542969 15.827066,19.466811 14.037578,20 12,20 9.962422,20 8.1729336,19.466811 6.9453125,18.542969 5.7176914,17.619126 5,16.356445 5,14.556641 a 1.0001,1.0001 0 0 0 0,-0.002 c -9.268e-4,-1.031475 0.130083,-2.058106 0.3886719,-3.056641 a 1,1 0 0 0 -0.71875,-1.21875 z"
     id="path12" />
</svg>
