<?xml version="1.0" encoding="UTF-8" standalone="no"?>
<svg
   width="24"
   height="24"
   viewBox="0 0 24 24"
   fill="none"
   stroke="currentColor"
   stroke-width="2"
   stroke-linecap="round"
   stroke-linejoin="round"
   version="1.1"
   id="svg6"
   xmlns="http://www.w3.org/2000/svg"
   xmlns:svg="http://www.w3.org/2000/svg">
  <defs
     id="defs10" />
  <path
     style="color:#000000;fill:#000000;-inkscape-stroke:none"
     d="m 12,1 a 1,1 0 0 0 -1,1 v 20 a 1,1 0 0 0 1,1 1,1 0 0 0 1,-1 V 2 A 1,1 0 0 0 12,1 Z"
     id="line2" />
  <path
     style="color:#000000;fill:#000000;-inkscape-stroke:none"
     d="M 9.5,4 C 8.0833351,4 6.8935582,4.5672565 6.1269531,5.4296875 5.3603481,6.2921185 5,7.402779 5,8.5 5,9.597221 5.3603481,10.707881 6.1269531,11.570313 6.8935582,12.432744 8.0833351,13 9.5,13 h 5 c 0.916665,0 1.476893,0.307745 1.876953,0.757813 C 16.777013,14.20788 17,14.847223 17,15.5 17,16.152777 16.777013,16.79212 16.376953,17.242187 15.976893,17.692255 15.416665,18 14.5,18 H 6 a 1,1 0 0 0 -1,1 1,1 0 0 0 1,1 h 8.5 c 1.416665,0 2.606442,-0.567256 3.373047,-1.429688 C 18.639652,17.707881 19,16.597221 19,15.5 19,14.402779 18.639652,13.292119 17.873047,12.429688 17.106442,11.567256 15.916665,11 14.5,11 h -5 C 8.5833349,11 8.0231068,10.692255 7.6230469,10.242188 7.2229869,9.7921199 7,9.1527772 7,8.5 7,7.8472228 7.2229869,7.2078801 7.6230469,6.7578125 8.0231068,6.3077449 8.5833349,6 9.5,6 H 17 A 1,1 0 0 0 18,5 1,1 0 0 0 17,4 Z"
     id="path4" />
</svg>
