<?xml version="1.0" encoding="UTF-8" standalone="no"?>
<svg
   width="24"
   height="24"
   viewBox="0 0 24 24"
   fill="none"
   stroke="currentColor"
   stroke-width="2"
   stroke-linecap="round"
   stroke-linejoin="round"
   version="1.1"
   id="svg6"
   xmlns="http://www.w3.org/2000/svg"
   xmlns:svg="http://www.w3.org/2000/svg">
  <defs
     id="defs10" />
  <path
     style="color:#000000;fill:#000000;-inkscape-stroke:none"
     d="M 11.863281,0.95507813 C 8.1067997,0.95388038 4.8184821,2.942128 2.8730469,5.8007812 0.27913324,9.6123189 -8.3453046e-4,15.07489 3.7402344,19.291016 c 3.7410689,4.216125 9.1979316,4.586839 13.2910156,2.464843 4.093084,-2.121996 6.935204,-6.79547 5.642578,-12.2851559 A 1.0001,1.0001 0 0 0 21.144531,8.8671875 C 21.143244,8.868046 20.749138,8.9927789 20.513672,8.9980469 19.560228,8.9752399 18.888895,8.1348718 19.080078,7.1992187 A 1.0001,1.0001 0 0 0 18.099609,6 H 18 a 1.0001,1.0001 0 0 0 -0.0098,0 C 16.440287,6.0163125 15.509518,4.441615 16.271484,3.0917969 A 1.0001,1.0001 0 0 0 15.744141,1.6601562 C 14.419917,1.1760059 13.115442,0.95547737 11.863281,0.95507813 Z M 11.832031,2.9375 c 0.760733,0.00385 1.573903,0.2262074 2.384766,0.4453125 -0.332045,2.0071421 0.910221,3.9135904 2.927734,4.3847656 C 17.291392,9.4954673 18.653532,10.9639 20.480469,11 a 1,1 0 0 0 0.0059,-0.0059 A 1,1 0 0 0 20.5,11 c 0.09405,0 0.195775,-0.07314 0.291016,-0.07813 0.541275,4.134696 -1.550656,7.436396 -4.679688,9.058594 C 12.725764,21.735662 8.3863447,21.514862 5.2363281,17.964844 2.0863115,14.414825 2.3818077,10.078466 4.5273437,6.9257812 6.1364958,4.5612678 8.7462092,2.9218793 11.832031,2.9375 Z"
     id="path2" />
  <path
     style="color:#000000;fill:#000000;-inkscape-stroke:none"
     d="m 12,8 c -2.1972922,0 -4,1.8027078 -4,4 0,2.197292 1.8027078,4 4,4 2.197292,0 4,-1.802708 4,-4 0,-2.1972922 -1.802708,-4 -4,-4 z m 0,2 c 1.116413,0 2,0.883587 2,2 0,1.116413 -0.883587,2 -2,2 -1.116413,0 -2,-0.883587 -2,-2 0,-1.116413 0.883587,-2 2,-2 z"
     id="circle4" />
</svg>
