<?xml version="1.0" encoding="UTF-8" standalone="no"?>
<svg
   width="24"
   height="24"
   viewBox="0 0 24 24"
   fill="none"
   stroke="currentColor"
   stroke-width="2"
   stroke-linecap="round"
   stroke-linejoin="round"
   version="1.1"
   id="svg8"
   xmlns="http://www.w3.org/2000/svg"
   xmlns:svg="http://www.w3.org/2000/svg">
  <defs
     id="defs12" />
  <path
     style="color:#000000;fill:#000000;-inkscape-stroke:none"
     d="M 8,3 C 6.354992,3 5,4.354992 5,6 v 14 a 1,1 0 0 0 1,1 1,1 0 0 0 1,-1 V 6 C 7,5.4358712 7.4358712,5 8,5 h 8 c 0.564129,0 1,0.4358712 1,1 v 14 a 1,1 0 0 0 1,1 1,1 0 0 0 1,-1 V 6 C 19,4.354992 17.645008,3 16,3 Z"
     id="path2" />
  <path
     style="color:#000000;fill:#000000;-inkscape-stroke:none"
     d="m 2,19 a 1,1 0 0 0 -1,1 1,1 0 0 0 1,1 h 20 a 1,1 0 0 0 1,-1 1,1 0 0 0 -1,-1 z"
     id="path4" />
  <path
     style="color:#000000;fill:#000000;-inkscape-stroke:none"
     d="m 14,11 a 1,1 0 0 0 -1,1 v 0.0098 a 1,1 0 0 0 1,1 1,1 0 0 0 1,-1 V 12 a 1,1 0 0 0 -1,-1 z"
     id="path6" />
</svg>
