<?xml version="1.0" encoding="UTF-8" standalone="no"?>
<svg
   width="24"
   height="24"
   viewBox="0 0 24 24"
   fill="none"
   stroke="currentColor"
   stroke-width="2"
   stroke-linecap="round"
   stroke-linejoin="round"
   version="1.1"
   id="svg12"
   xmlns="http://www.w3.org/2000/svg"
   xmlns:svg="http://www.w3.org/2000/svg">
  <defs
     id="defs16" />
  <path
     style="color:#000000;fill:#000000;-inkscape-stroke:none"
     d="m 13,3 a 1,1 0 0 0 -1,1 1,1 0 0 0 1,1 h 3 c 0.564129,0 1,0.4358712 1,1 v 14 a 1,1 0 0 0 1,1 1,1 0 0 0 1,-1 V 6 C 19,4.354992 17.645008,3 16,3 Z"
     id="path2" />
  <path
     style="color:#000000;fill:#000000;-inkscape-stroke:none"
     d="m 2,19 a 1,1 0 0 0 -1,1 1,1 0 0 0 1,1 H 5 A 1,1 0 0 0 6,20 1,1 0 0 0 5,19 Z"
     id="path4" />
  <path
     style="color:#000000;fill:#000000;-inkscape-stroke:none"
     d="m 13,19 a 1,1 0 0 0 -1,1 1,1 0 0 0 1,1 h 9 a 1,1 0 0 0 1,-1 1,1 0 0 0 -1,-1 z"
     id="path6" />
  <path
     style="color:#000000;fill:#000000;-inkscape-stroke:none"
     d="m 10,11 a 1,1 0 0 0 -1,1 v 0.0098 a 1,1 0 0 0 1,1 1,1 0 0 0 1,-1 V 12 a 1,1 0 0 0 -1,-1 z"
     id="path8" />
  <path
     style="color:#000000;fill:#000000;-inkscape-stroke:none"
     d="m 11.642578,1.6386719 c -0.43698,-0.1002338 -0.901807,-0.1031434 -1.36914,0.013672 L 6.2734375,2.6523438 C 4.9430401,2.9848912 4.0002076,4.1911704 4,5.5625 V 20 a 1.0001,1.0001 0 0 0 0.7578125,0.970703 l 6.7578125,1.6875 a 1.0001,1.0001 0 0 0 0,0.002 C 12.754139,22.969058 13.999647,21.995205 14,20.71875 V 4.5625 4.5605469 C 13.999059,3.115411 12.953517,1.9393731 11.642578,1.6386719 Z m -0.884765,1.953125 C 11.411984,3.4282794 11.999561,3.8882018 12,4.5625 v 16.15625 l -6,-1.5 V 5.5625 C 6.0000702,5.0985319 6.3076932,4.7043091 6.7578125,4.5917969 Z"
     id="path10" />
</svg>
