<?xml version="1.0" encoding="UTF-8" standalone="no"?>
<svg
   width="24"
   height="24"
   viewBox="0 0 24 24"
   fill="none"
   stroke="currentColor"
   stroke-width="2"
   stroke-linecap="round"
   stroke-linejoin="round"
   version="1.1"
   id="svg10"
   xmlns="http://www.w3.org/2000/svg"
   xmlns:svg="http://www.w3.org/2000/svg">
  <defs
     id="defs14" />
  <path
     style="color:#000000;fill:#000000;-inkscape-stroke:none"
     d="M 12,1 C 5.9367185,1 1,5.9367185 1,12 1,18.063282 5.9367185,23 12,23 18.063282,23 23,18.063282 23,12 23,5.9367185 18.063282,1 12,1 Z m 0,2 c 4.982402,0 9,4.0175976 9,9 0,4.982402 -4.017598,9 -9,9 C 7.0175976,21 3,16.982402 3,12 3,7.0175976 7.0175976,3 12,3 Z"
     id="circle2" />
  <path
     style="color:#000000;fill:#000000;-inkscape-stroke:none"
     d="M 19.113281,4.0898437 A 1,1 0 0 0 18.410156,4.3945312 C 14.734789,8.2014976 9.8531957,9.4467192 2.1855469,9.9414063 a 1,1 0 0 0 -0.9335938,1.0624997 1,1 0 0 0 1.0625,0.933594 C 10.146789,11.432188 15.704985,10.078182 19.849609,5.7851562 a 1,1 0 0 0 -0.02539,-1.4140625 1,1 0 0 0 -0.710938,-0.28125 z"
     id="path4" />
  <path
     style="color:#000000;fill:#000000;-inkscape-stroke:none"
     d="M 16.929687,11.501953 C 12.099881,11.87341 7.8968218,14.385337 4.5878906,18.537109 a 1,1 0 0 0 0.1582031,1.404297 1,1 0 0 0 1.40625,-0.158203 C 10.220427,14.67891 15.258872,12.48032 21.541016,13.818359 a 1,1 0 0 0 1.1875,-0.769531 1,1 0 0 0 -0.769532,-1.1875 c -1.73946,-0.370489 -3.419361,-0.483194 -5.029297,-0.359375 z"
     id="path6" />
  <path
     style="color:#000000;fill:#000000;-inkscape-stroke:none"
     d="m 7.9707031,1.9414062 a 1,1 0 0 0 -0.21875,1.3964844 C 12.085153,9.2873635 13.602224,12.464563 15.587891,20.705078 a 1,1 0 0 0 1.207031,0.736328 1,1 0 0 0 0.736328,-1.205078 C 15.51692,11.87686 13.775932,8.2126245 9.3691406,2.1621094 A 1,1 0 0 0 7.9707031,1.9414062 Z"
     id="path8" />
</svg>
