<?xml version="1.0" encoding="UTF-8" standalone="no"?>
<svg
   width="24"
   height="24"
   viewBox="0 0 24 24"
   fill="none"
   stroke="currentColor"
   stroke-width="2"
   stroke-linecap="round"
   stroke-linejoin="round"
   version="1.1"
   id="svg4"
   xmlns="http://www.w3.org/2000/svg"
   xmlns:svg="http://www.w3.org/2000/svg">
  <defs
     id="defs8" />
  <path
     style="color:#000000;fill:#000000;-inkscape-stroke:none"
     d="M 12,2 A 1.0001,1.0001 0 0 0 11.019531,2.8046875 C 10.570824,5.0482257 9.1845424,7.2711161 7.375,8.71875 5.2004177,10.458416 4,12.666669 4,15 c 0,4.406429 3.593571,8 8,8 4.406429,0 8,-3.593571 8,-8 C 20,12.666669 18.799582,10.458416 16.625,8.71875 14.815458,7.2711161 13.429176,5.0482257 12.980469,2.8046875 A 1.0001,1.0001 0 0 0 12,2 Z m 0,3.6542969 C 12.803135,7.4249975 13.871616,9.0785431 15.375,10.28125 17.200414,11.741581 18,13.333335 18,15 18,18.32555 15.32555,21 12,21 8.6744502,21 6,18.32555 6,15 6,13.333335 6.7995863,11.741581 8.625,10.28125 10.128384,9.0785431 11.196865,7.4249975 12,5.6542969 Z"
     id="path2" />
</svg>
