<?xml version="1.0" encoding="UTF-8" standalone="no"?>
<svg
   width="24"
   height="24"
   viewBox="0 0 24 24"
   fill="none"
   stroke="currentColor"
   stroke-width="2"
   stroke-linecap="round"
   stroke-linejoin="round"
   version="1.1"
   id="svg6"
   xmlns="http://www.w3.org/2000/svg"
   xmlns:svg="http://www.w3.org/2000/svg">
  <defs
     id="defs10" />
  <path
     style="color:#000000;fill:#000000;-inkscape-stroke:none"
     d="M 7,4.3007812 A 1.0001,1.0001 0 0 0 6.0195312,5.1035156 C 5.7791241,6.3055515 5.0399603,7.5160787 4.0859375,8.2792969 2.7504514,9.3476857 2,10.775364 2,12.25 c 0,2.760538 2.2454573,5.050781 5,5.050781 2.7545427,0 5,-2.290243 5,-5.050781 C 12,10.762415 11.234639,9.3560951 9.921875,8.2851563 8.9664546,7.5057343 8.2198355,6.3003495 7.9804687,5.1035156 A 1.0001,1.0001 0 0 0 7,4.3007812 Z M 7.0039062,7.9375 C 7.4510479,8.6560155 8.0094603,9.3047468 8.6582031,9.8339844 9.6254372,10.623044 10,11.417587 10,12.25 10,13.929458 8.6454529,15.300781 7,15.300781 5.3545471,15.300781 4,13.929458 4,12.25 4,11.424639 4.3694727,10.613406 5.3339844,9.8417969 5.9947016,9.3132231 6.5568562,8.6605697 7.0039062,7.9375 Z"
     id="path2" />
  <path
     style="color:#000000;fill:#000000;-inkscape-stroke:none"
     d="m 14.003906,2.0195313 a 1.0001,1.0001 0 0 0 -0.982422,0.796875 c -0.240572,1.1533666 -0.683526,2.255197 -1.308593,3.2539062 a 1,1 0 0 0 0.316406,1.3769531 1,1 0 0 0 1.378906,-0.3164062 C 13.689557,6.6813236 13.777456,6.1470462 13.996094,5.6660156 14.799137,7.4401685 15.869181,9.096126 17.375,10.300781 19.200414,11.761112 20,13.352866 20,15.019531 a 1.0001,1.0001 0 0 0 0,0.0039 c 0.01121,2.710821 -1.584597,4.671463 -3.677734,5.544921 -2.093138,0.873459 -4.606383,0.627594 -6.525391,-1.287109 a 1,1 0 0 0 -1.4140625,0.002 1,1 0 0 0 0,1.414063 C 10.873067,23.181933 14.327772,23.568295 17.09375,22.414062 19.859195,21.260052 22.013704,18.534368 22,15.017578 21.999347,12.68495 20.798991,10.477474 18.625,8.7382813 16.815458,7.2906473 15.429176,5.0677569 14.980469,2.8242188 A 1.0001,1.0001 0 0 0 14.003906,2.0195313 Z"
     id="path4" />
</svg>
