<?xml version="1.0" encoding="UTF-8" standalone="no"?>
<svg
   width="24"
   height="24"
   viewBox="0 0 24 24"
   fill="none"
   stroke="currentColor"
   stroke-width="2"
   stroke-linecap="round"
   stroke-linejoin="round"
   version="1.1"
   id="svg6"
   xmlns="http://www.w3.org/2000/svg"
   xmlns:svg="http://www.w3.org/2000/svg">
  <defs
     id="defs10" />
  <path
     style="color:#000000;fill:#000000;-inkscape-stroke:none"
     d="M 15.753906,1.34375 C 13.803775,1.5880522 11.827893,2.5596643 10.214844,4.171875 8.6001861,5.7810218 7.627811,7.7594265 7.3847656,9.7109375 7.1417924,11.66187 7.6548579,13.627086 9.046875,15.007813 c 4.129e-4,4.09e-4 -4.131e-4,0.0015 0,0.002 1.708422,1.724822 4.297824,2.079284 6.695313,1.347656 a 1.0001,1.0001 0 0 0 0.646484,-1.298828 c -0.342515,-0.940238 -0.01881,-2.434319 1.128906,-3.582031 1.146005,-1.146005 2.651045,-1.468945 3.589844,-1.126954 A 1.0001,1.0001 0 0 0 22.408203,9.6972656 C 23.128167,7.2898865 22.77255,4.7080972 21.056641,2.9921875 19.671119,1.6066657 17.704851,1.0993459 15.753906,1.34375 Z m 0.25,1.984375 c 1.461552,-0.1830955 2.744196,0.1836491 3.638672,1.078125 0.962314,0.9623139 1.195836,2.4419359 0.900391,4.0371094 -1.54948,-0.1001353 -3.168863,0.3485501 -4.439453,1.6191406 -1.26963,1.269629 -1.721222,2.886271 -1.621094,4.433594 -1.587097,0.300278 -3.067856,0.06683 -4.019531,-0.898438 a 1.0001,1.0001 0 0 0 -0.0098,-0.0078 C 9.5560804,12.700634 9.1871864,11.418017 9.3691406,9.9570313 9.5510949,8.4960457 10.309661,6.8987409 11.625,5.5878906 a 1.0001,1.0001 0 0 0 0.002,0 C 12.943532,4.271312 14.542355,3.5112205 16.003906,3.328125 Z"
     id="path2" />
  <path
     style="color:#000000;fill:#000000;-inkscape-stroke:none"
     d="M 8.4199219,11.769531 A 1,1 0 0 0 7.7128906,12.0625 l -1.8105469,1.810547 c -1.2181527,-0.38173 -2.5513018,-0.265802 -3.4882812,0.669922 -1.82850858,1.810615 -0.9320334,4.811985 1.34375,5.646484 0.6079553,1.837865 2.6082397,2.935918 4.4882813,2.222656 1.7876472,-0.678208 2.5589902,-2.653546 1.9824222,-4.376953 l 1.728515,-1.728515 a 1,1 0 0 0 0,-1.414063 1,1 0 0 0 -1.414062,0 L 8.3828125,17.052734 A 1.0001,1.0001 0 0 0 8.2558594,18.3125 c 0.5433695,0.820825 0.2016162,1.881295 -0.71875,2.230469 -0.9203663,0.349174 -1.8797566,-0.218675 -2.0175782,-1.19336 A 1.0001,1.0001 0 0 0 4.6660156,18.5 C 3.3768053,18.323244 2.8956571,16.876511 3.8222656,15.962891 a 1.0001,1.0001 0 0 0 0.00391,-0.0059 c 0.5073406,-0.50666 1.285648,-0.585307 1.8847656,-0.191406 a 1.0001,1.0001 0 0 0 1.2558594,-0.128906 l 2.1601562,-2.160156 a 1,1 0 0 0 0,-1.414063 1,1 0 0 0 -0.7070312,-0.292969 z"
     id="path4" />
</svg>
