<?xml version="1.0" encoding="UTF-8" standalone="no"?>
<svg
   width="24"
   height="24"
   viewBox="0 0 24 24"
   fill="none"
   stroke="currentColor"
   stroke-width="2"
   stroke-linecap="round"
   stroke-linejoin="round"
   version="1.1"
   id="svg16"
   xmlns="http://www.w3.org/2000/svg"
   xmlns:svg="http://www.w3.org/2000/svg">
  <defs
     id="defs20" />
  <path
     style="color:#000000;fill:#000000;-inkscape-stroke:none"
     d="m 6.5,5.5 a 1,1 0 0 0 -0.7070313,0.2929687 1,1 0 0 0 0,1.4140625 L 16.792969,18.207031 a 1,1 0 0 0 1.414062,0 1,1 0 0 0 0,-1.414062 L 7.2070312,5.7929687 A 1,1 0 0 0 6.5,5.5 Z"
     id="path2" />
  <path
     style="color:#000000;fill:#000000;-inkscape-stroke:none"
     d="m 19.292969,19.292969 a 1,1 0 0 0 0,1.414062 l 1,1 a 1,1 0 0 0 1.414062,0 1,1 0 0 0 0,-1.414062 l -1,-1 a 1,1 0 0 0 -1.414062,0 z"
     id="path4" />
  <path
     style="color:#000000;fill:#000000;-inkscape-stroke:none"
     d="m 3,2 a 1,1 0 0 0 -0.7070312,0.2929688 1,1 0 0 0 0,1.4140625 l 1,0.9999999 a 1,1 0 0 0 1.4140624,0 1,1 0 0 0 0,-1.4140624 l -0.9999999,-1 A 1,1 0 0 0 3,2 Z"
     id="path6" />
  <path
     style="color:#000000;fill:#000000;-inkscape-stroke:none"
     d="m 21.292969,17.292969 -4,4 a 1,1 0 0 0 0,1.414062 1,1 0 0 0 1.414062,0 l 4,-4 a 1,1 0 0 0 0,-1.414062 1,1 0 0 0 -1.414062,0 z"
     id="path8" />
  <path
     style="color:#000000;fill:#000000;-inkscape-stroke:none"
     d="M 6,1 A 1,1 0 0 0 5.2929687,1.2929687 l -4,4 a 1,1 0 0 0 0,1.4140625 1,1 0 0 0 1.4140626,0 L 6.7070312,2.7070313 a 1,1 0 0 0 0,-1.4140626 A 1,1 0 0 0 6,1 Z"
     id="path10" />
  <path
     style="color:#000000;fill:#000000;-inkscape-stroke:none"
     d="M 10,2 A 1,1 0 0 0 9.2929688,2.2929688 l -7,7 a 1,1 0 0 0 0,1.4140622 1,1 0 0 0 1.4140625,0 L 10.707031,3.7070313 a 1,1 0 0 0 0,-1.4140625 A 1,1 0 0 0 10,2 Z"
     id="path12" />
  <path
     style="color:#000000;fill:#000000;-inkscape-stroke:none"
     d="m 20.292969,13.292969 -7,7 a 1,1 0 0 0 0,1.414062 1,1 0 0 0 1.414062,0 l 7,-7 a 1,1 0 0 0 0,-1.414062 1,1 0 0 0 -1.414062,0 z"
     id="path14" />
</svg>
