<?xml version="1.0" encoding="UTF-8" standalone="no"?>
<svg
   width="24"
   height="24"
   viewBox="0 0 24 24"
   fill="none"
   stroke="currentColor"
   stroke-width="2"
   stroke-linecap="round"
   stroke-linejoin="round"
   version="1.1"
   id="svg12"
   xmlns="http://www.w3.org/2000/svg"
   xmlns:svg="http://www.w3.org/2000/svg">
  <defs
     id="defs16" />
  <path
     style="color:#000000;fill:#000000;-inkscape-stroke:none"
     d="m 15.126953,14.042969 a 1,1 0 0 0 -0.730469,0.230469 C 13.228908,15.253368 12,16.539344 12,18.5 12,19.416665 11.692255,19.976893 11.242188,20.376953 10.79212,20.777013 10.152777,21 9.5,21 8.8472228,21 8.2078801,20.777013 7.7578125,20.376953 7.3077449,19.976893 7,19.416665 7,18.5 a 1,1 0 0 0 -1,-1 1,1 0 0 0 -1,1 c 0,1.416665 0.5672565,2.606442 1.4296875,3.373047 C 7.2921185,22.639652 8.402779,23 9.5,23 10.597221,23 11.707881,22.639652 12.570313,21.873047 13.432744,21.106442 14,19.916665 14,18.5 c 0,-1.179341 0.611173,-1.793292 1.683594,-2.693359 a 1,1 0 0 0 0.123047,-1.410157 1,1 0 0 0 -0.679688,-0.353515 z"
     id="path2" />
  <path
     style="color:#000000;fill:#000000;-inkscape-stroke:none"
     d="M 6.6855469,5.4140625 A 1,1 0 0 0 5.4140625,6.0351562 C 5.1502009,6.8037964 5,7.6344453 5,8.5 a 1,1 0 0 0 1,1 1,1 0 0 0 1,-1 C 7,7.8655562 7.1105026,7.2569054 7.3066406,6.6855469 A 1,1 0 0 0 6.6855469,5.4140625 Z"
     id="path4" />
  <path
     style="color:#000000;fill:#000000;-inkscape-stroke:none"
     d="M 12.150391,1.0097656 C 10.815557,1.0593712 9.4627247,1.4749777 8.2304688,2.328125 A 1,1 0 0 0 7.9785156,3.71875 1,1 0 0 0 9.3691406,3.9726563 C 13.066462,1.4128312 18.004045,4.0030151 18,8.5 c 0,1.4500394 -0.365173,2.390235 -0.916016,3.195313 a 1,1 0 0 0 0.261719,1.390625 1,1 0 0 0 1.388672,-0.261719 C 19.483531,11.729298 20,10.309957 20,8.5 20.004044,4.0036883 16.154891,0.86094902 12.150391,1.0097656 Z"
     id="path6" />
  <path
     style="color:#000000;fill:#000000;-inkscape-stroke:none"
     d="m 12.5,5 a 1,1 0 0 0 -1,1 1,1 0 0 0 1,1 C 13.340271,7 14,7.6597291 14,8.5 a 1,1 0 0 0 1,1 1,1 0 0 0 1,-1 C 16,6.5788499 14.42115,5 12.5,5 Z m -1.035156,5.884766 a 1,1 0 0 0 -0.556641,0.52539 C 10.746087,11.770802 10.393454,11.999175 9.9980469,12 A 1,1 0 0 0 9,13.001953 1,1 0 0 0 10.001953,14 c 1.176189,-0.0025 2.248233,-0.696743 2.730469,-1.769531 a 1,1 0 0 0 -0.501953,-1.322266 1,1 0 0 0 -0.765625,-0.02344 z"
     id="path8" />
  <path
     style="color:#000000;fill:#000000;-inkscape-stroke:none"
     d="m 2,1 a 1,1 0 0 0 -0.7070313,0.2929687 1,1 0 0 0 0,1.4140626 L 21.292969,22.707031 a 1,1 0 0 0 1.414062,0 1,1 0 0 0 0,-1.414062 L 2.7070313,1.2929687 A 1,1 0 0 0 2,1 Z"
     id="line10" />
</svg>
