<?xml version="1.0" encoding="UTF-8" standalone="no"?>
<svg
   width="24"
   height="24"
   viewBox="0 0 24 24"
   fill="none"
   stroke="currentColor"
   stroke-width="2"
   stroke-linecap="round"
   stroke-linejoin="round"
   version="1.1"
   id="svg6"
   xmlns="http://www.w3.org/2000/svg"
   xmlns:svg="http://www.w3.org/2000/svg">
  <defs
     id="defs10" />
  <path
     style="color:#000000;fill:#000000;-inkscape-stroke:none"
     d="M 12.5,1 C 8.3697142,1 5,4.3697111 5,8.5 a 1,1 0 0 0 1,1 1,1 0 0 0 1,-1 C 7,5.4505895 9.4505914,3 12.5,3 15.549409,3 18,5.4505895 18,8.5 c 0,2.666664 -1.191002,3.774402 -2.640625,4.982422 -0.724812,0.60401 -1.517056,1.185589 -2.181641,1.960937 C 12.51315,16.218708 12,17.250001 12,18.5 12,19.416665 11.692255,19.976893 11.242188,20.376953 10.79212,20.777013 10.152777,21 9.5,21 8.8472228,21 8.2078801,20.777013 7.7578125,20.376953 7.3077449,19.976893 7,19.416665 7,18.5 a 1,1 0 0 0 -1,-1 1,1 0 0 0 -1,1 c 0,1.416665 0.5672565,2.606442 1.4296875,3.373047 C 7.2921185,22.639652 8.402779,23 9.5,23 10.597221,23 11.707881,22.639652 12.570313,21.873047 13.432744,21.106442 14,19.916665 14,18.5 14,17.750001 14.236851,17.281291 14.697266,16.744141 15.15768,16.20699 15.865438,15.663567 16.640625,15.017578 18.190999,13.7256 20,11.83333 20,8.5 20,4.3697111 16.630286,1 12.5,1 Z"
     id="path2" />
  <path
     style="color:#000000;fill:#000000;-inkscape-stroke:none"
     d="M 12.5,5 C 11.652779,5 10.792119,5.2770145 10.117188,5.8769531 9.4422563,6.4768917 9,7.416668 9,8.5 v 1 a 1.0001,1.0001 0 0 0 1,1 c 0.416666,0 0.601893,0.120245 0.751953,0.289063 C 10.902013,10.95788 11,11.222222 11,11.5 c 0,0.277778 -0.09799,0.54212 -0.248047,0.710938 C 10.601893,12.379755 10.416666,12.5 10,12.5 a 1,1 0 0 0 -1,1 1,1 0 0 0 1,1 c 0.916666,0 1.731441,-0.379756 2.248047,-0.960937 C 12.764652,12.957881 13,12.222221 13,11.5 13,10.777779 12.764652,10.042119 12.248047,9.4609375 11.934263,9.1079301 11.489623,8.8694127 11,8.7050781 V 8.5 C 11,7.9166677 11.182745,7.6064404 11.445313,7.3730469 11.70788,7.1396534 12.097223,7 12.5,7 12.902777,7 13.29212,7.1396534 13.554688,7.3730469 13.817255,7.6064404 14,7.9166677 14,8.5 a 1,1 0 0 0 1,1 1,1 0 0 0 1,-1 C 16,7.416668 15.557744,6.4768917 14.882813,5.8769531 14.207881,5.2770145 13.347221,5 12.5,5 Z"
     id="path4" />
</svg>
