<?xml version="1.0" encoding="UTF-8" standalone="no"?>
<svg
   width="24"
   height="24"
   viewBox="0 0 24 24"
   fill="none"
   stroke="currentColor"
   stroke-width="2"
   stroke-linecap="round"
   stroke-linejoin="round"
   version="1.1"
   id="svg6"
   xmlns="http://www.w3.org/2000/svg"
   xmlns:svg="http://www.w3.org/2000/svg">
  <defs
     id="defs10" />
  <path
     style="color:#000000;fill:#000000;-inkscape-stroke:none"
     d="m 12,19 a 1,1 0 0 0 -1,1 1,1 0 0 0 1,1 h 9 a 1,1 0 0 0 1,-1 1,1 0 0 0 -1,-1 z"
     id="path2" />
  <path
     style="color:#000000;fill:#000000;-inkscape-stroke:none"
     d="M 18.152344,1.8457031 C 17.345709,1.7982538 16.469745,2.1161929 15.792969,2.7929688 L 3.2929688,15.292969 a 1.0001,1.0001 0 0 0 -0.2636719,0.464844 l -1,3.999999 a 1.0001,1.0001 0 0 0 1.2128906,1.212891 l 4,-1 A 1.0001,1.0001 0 0 0 7.7070312,19.707031 L 20.207031,7.2070312 C 20.883807,6.5302554 21.201746,5.6542914 21.154297,4.8476562 21.106848,4.0410211 20.739165,3.325103 20.207031,2.7929688 19.674897,2.2608345 18.958979,1.8931524 18.152344,1.8457031 Z m -0.117188,1.9960938 c 0.255864,0.015051 0.539948,0.1473693 0.757813,0.3652343 0.217865,0.2178651 0.350183,0.5019489 0.365234,0.7578125 0.01505,0.2558637 -0.04201,0.5049024 -0.365234,0.828125 L 6.4882812,18.097656 4.375,18.625 4.9023437,16.511719 17.207031,4.2070312 C 17.530254,3.8838086 17.779293,3.826746 18.035156,3.8417969 Z"
     id="path4" />
</svg>
