<?xml version="1.0" encoding="UTF-8" standalone="no"?>
<svg
   width="24"
   height="24"
   viewBox="0 0 24 24"
   fill="none"
   stroke="currentColor"
   stroke-width="2"
   stroke-linecap="round"
   stroke-linejoin="round"
   version="1.1"
   id="svg4"
   xmlns="http://www.w3.org/2000/svg"
   xmlns:svg="http://www.w3.org/2000/svg">
  <defs
     id="defs8" />
  <path
     style="color:#000000;fill:#000000;-inkscape-stroke:none"
     d="M 19.183594,1.1269531 C 18.199876,1.0690871 17.136411,1.4495264 16.292969,2.2929688 L 2.7929688,15.792969 a 1.0001,1.0001 0 0 0 -0.2578125,0.443359 l -1.5000001,5.5 a 1.0001,1.0001 0 0 0 1.2285157,1.228516 l 5.5,-1.5 A 1.0001,1.0001 0 0 0 8.2070313,21.207031 L 21.707031,7.7070312 C 22.550474,6.8635889 22.930913,5.8001245 22.873047,4.8164062 22.815181,3.832688 22.364165,2.9501029 21.707031,2.2929688 21.049897,1.6358346 20.167312,1.1848191 19.183594,1.1269531 Z m -0.117188,1.9960938 c 0.432947,0.025467 0.883698,0.2411195 1.226563,0.5839844 0.342865,0.3428648 0.558517,0.7936157 0.583984,1.2265624 0.02547,0.4329468 -0.09409,0.8694859 -0.583984,1.359375 L 6.9804687,19.605469 3.4257813,20.574219 4.3945312,17.019531 17.707031,3.7070313 C 18.19692,3.2171421 18.63346,3.0975793 19.066406,3.1230469 Z"
     id="path2" />
</svg>
