<?xml version="1.0" encoding="UTF-8" standalone="no"?>
<svg
   width="24"
   height="24"
   viewBox="0 0 24 24"
   fill="none"
   stroke="currentColor"
   stroke-width="2"
   stroke-linecap="round"
   stroke-linejoin="round"
   version="1.1"
   id="svg6"
   xmlns="http://www.w3.org/2000/svg"
   xmlns:svg="http://www.w3.org/2000/svg">
  <defs
     id="defs10" />
  <path
     style="color:#000000;fill:#000000;-inkscape-stroke:none"
     d="M 4,3 C 2.354992,3 1,4.354992 1,6 v 14 c 0,1.645008 1.354992,3 3,3 h 14 c 1.645008,0 3,-1.354992 3,-3 v -7 a 1,1 0 0 0 -1,-1 1,1 0 0 0 -1,1 v 7 c 0,0.564129 -0.435871,1 -1,1 H 4 C 3.4358712,21 3,20.564129 3,20 V 6 C 3,5.4358712 3.4358712,5 4,5 h 7 A 1,1 0 0 0 12,4 1,1 0 0 0 11,3 Z"
     id="path2" />
  <path
     style="color:#000000;fill:#000000;-inkscape-stroke:none"
     d="M 20.152344,0.84570313 C 19.345709,0.79825383 18.469745,1.1161929 17.792969,1.7929687 L 8.2929688,11.292969 a 1.0001,1.0001 0 0 0 -0.2636719,0.464844 l -1,4 a 1.0001,1.0001 0 0 0 1.2128906,1.21289 l 4.0000005,-1 a 1.0001,1.0001 0 0 0 0.464843,-0.263672 l 9.5,-9.4999998 C 22.883807,5.5302554 23.201746,4.6542914 23.154297,3.8476563 23.106848,3.0410211 22.739165,2.325103 22.207031,1.7929687 21.674897,1.2608345 20.958979,0.89315242 20.152344,0.84570313 Z M 20.035156,2.8417969 c 0.255864,0.015051 0.539948,0.1473693 0.757813,0.3652344 0.217865,0.217865 0.350183,0.5019488 0.365234,0.7578125 0.01505,0.2558636 -0.04201,0.5049023 -0.365234,0.8281249 L 11.488281,14.097656 9.375,14.625 9.9023438,12.511719 19.207031,3.2070313 C 19.530254,2.8838086 19.779293,2.826746 20.035156,2.8417969 Z"
     id="path4" />
</svg>
