<?xml version="1.0" encoding="UTF-8" standalone="no"?>
<svg
   width="24"
   height="24"
   viewBox="0 0 24 24"
   fill="none"
   stroke="currentColor"
   stroke-width="2"
   stroke-linecap="round"
   stroke-linejoin="round"
   version="1.1"
   id="svg6"
   xmlns="http://www.w3.org/2000/svg"
   xmlns:svg="http://www.w3.org/2000/svg">
  <defs
     id="defs10" />
  <path
     style="color:#000000;fill:#000000;-inkscape-stroke:none"
     d="M 11.5,8 C 9.0265657,8 7,10.026566 7,12.5 7,14.973434 9.0265657,17 11.5,17 13.973434,17 16,14.973434 16,12.5 16,10.026566 13.973434,8 11.5,8 Z m 0,2 C 12.892555,10 14,11.107445 14,12.5 14,13.892555 12.892555,15 11.5,15 10.107445,15 9,13.892555 9,12.5 9,11.107445 10.107445,10 11.5,10 Z"
     id="circle2" />
  <path
     style="color:#000000;fill:#000000;-inkscape-stroke:none"
     d="M 9.5,1 C 7.2916689,1 5.394652,1.702794 4.0625,2.9609375 2.730348,4.219081 2,6.0119068 2,8 c 0,1.333332 0.5,2.222224 0.5,3.5 0,0.749999 -0.2021578,0.935888 -0.6074219,1.611328 C 1.4873141,13.786768 1,14.833335 1,16.5 1,18.583331 2.0877042,20.292836 3.6054688,21.376953 5.1232333,22.461071 7.0595257,23 9,23 10.988093,23 12.223646,22.17756 13.015625,21.517578 13.807604,20.857596 14.083334,20.5 15,20.5 c 2.398146,0 4.418368,-0.532326 5.853516,-1.816406 C 22.288664,17.399514 23,15.435183 23,13 23,10.805836 22.227403,9.3709449 21.134766,8.4765625 20.042129,7.5821801 18.822897,7.1155389 17.599609,6.1992187 16.46478,5.3491594 15.904966,4.2132508 14.861328,3.0742188 13.81769,1.9351867 12.199997,1 9.5,1 Z m 0,2 c 2.299998,0 3.097859,0.5648153 3.886719,1.4257812 0.78886,0.860966 1.478504,2.2250614 3.013672,3.375 1.44671,1.0836779 2.726935,1.6170402 3.466796,2.2226568 C 20.607049,10.629054 21,11.194168 21,13 21,15.064813 20.461334,16.350488 19.521484,17.191406 18.581635,18.032324 17.10185,18.5 15,18.5 c -1.583332,0 -2.557605,0.892405 -3.265625,1.482422 C 11.026355,20.572439 10.511903,21 9,21 7.4404777,21 5.876764,20.538927 4.7695312,19.748047 3.6622985,18.957166 3,17.916665 3,16.5 3,15.166668 3.2626867,14.713231 3.6074219,14.138672 3.9521571,13.564113 4.5,12.749999 4.5,11.5 4.5,9.7777795 4,8.666666 4,8 4,6.4880968 4.5196542,5.2809169 5.4375,4.4140625 6.3553458,3.5472081 7.7083351,3 9.5,3 Z"
     id="path4" />
</svg>
