<?xml version="1.0" encoding="UTF-8" standalone="no"?>
<svg
   width="24"
   height="24"
   viewBox="0 0 24 24"
   fill="none"
   stroke="currentColor"
   stroke-width="2"
   stroke-linecap="round"
   stroke-linejoin="round"
   version="1.1"
   id="svg8"
   xmlns="http://www.w3.org/2000/svg"
   xmlns:svg="http://www.w3.org/2000/svg">
  <defs
     id="defs12" />
  <path
     style="color:#000000;fill:#000000;-inkscape-stroke:none"
     d="M 6.1484375,5.4316406 A 1,1 0 0 0 5.5371094,5.890625 C 4.4308916,7.7659682 3.6706258,9.9074452 3.5039063,11.916016 3.3058394,14.287465 3.6229968,16.958121 4.9140625,19.150391 6.2051282,21.34266 8.5825785,22.972636 11.992188,23 a 1.0001,1.0001 0 0 0 0.01563,0 c 3.564117,-0.02846 5.992305,-1.814145 7.248046,-4.152344 a 1,1 0 0 0 -0.408203,-1.353515 1,1 0 0 0 -1.353515,0.408203 c -0.975034,1.815519 -2.551433,3.069107 -5.492188,3.095703 C 9.1863113,20.973424 7.6297686,19.820995 6.6367187,18.134766 5.6427868,16.447039 5.324161,14.142531 5.4960937,12.083984 a 1.0001,1.0001 0 0 0 0,-0.002 C 5.6296853,10.469136 6.2923223,8.5463323 7.2597656,6.90625 A 1,1 0 0 0 6.90625,5.5371094 1,1 0 0 0 6.1484375,5.4316406 Z"
     id="path2" />
  <path
     style="color:#000000;fill:#000000;-inkscape-stroke:none"
     d="M 11.988281,1 C 10.641948,1.0155346 9.399641,1.6336698 8.3183594,2.5253906 A 1,1 0 0 0 8.1816406,3.9335938 1,1 0 0 0 9.5898438,4.0683594 C 10.432626,3.3733261 11.268754,3.0156001 12,3.0039063 c 1.249683,0.020339 2.850745,1.1598802 4.130859,2.9628906 1.283693,1.8080507 2.212745,4.1827061 2.373047,6.1152341 a 1.0001,1.0001 0 0 0 0,0.002 c 0.04863,0.579272 0.05813,1.161594 0.0293,1.742188 a 1,1 0 0 0 0.949219,1.046875 1,1 0 0 0 1.048828,-0.949219 c 0.03322,-0.668786 0.02078,-1.33859 -0.03516,-2.005859 v -0.002 C 20.296021,9.5090544 19.250149,6.9050119 17.761719,4.8085937 16.272914,2.7116483 14.310518,1.025902 12.011719,1 a 1.0001,1.0001 0 0 0 -0.02344,0 z"
     id="path4" />
  <path
     style="color:#000000;fill:#000000;-inkscape-stroke:none"
     d="m 2,1 a 1,1 0 0 0 -0.7070313,0.2929687 1,1 0 0 0 0,1.4140626 L 21.292969,22.707031 a 1,1 0 0 0 1.414062,0 1,1 0 0 0 0,-1.414062 L 2.7070313,1.2929687 A 1,1 0 0 0 2,1 Z"
     id="line6" />
</svg>
