<?xml version="1.0" encoding="UTF-8" standalone="no"?>
<svg
   width="24"
   height="24"
   viewBox="0 0 24 24"
   fill="none"
   stroke="currentColor"
   stroke-width="2"
   stroke-linecap="round"
   stroke-linejoin="round"
   version="1.1"
   id="svg4"
   xmlns="http://www.w3.org/2000/svg"
   xmlns:svg="http://www.w3.org/2000/svg">
  <defs
     id="defs8" />
  <path
     style="color:#000000;fill:#000000;-inkscape-stroke:none"
     d="M 11.988281,1 C 9.689482,1.025902 7.7270856,2.7116483 6.2382812,4.8085937 4.7498512,6.9050119 3.7039795,9.5090544 3.5039063,11.916016 3.3058394,14.287465 3.6229968,16.958121 4.9140625,19.150391 6.2051282,21.34266 8.5825785,22.972636 11.992188,23 a 1.0001,1.0001 0 0 0 0.01563,0 c 3.409608,-0.02736 5.787059,-1.65734 7.078124,-3.849609 1.290724,-2.191689 1.607899,-4.861443 1.410157,-7.232422 C 20.296396,9.5105012 19.250523,6.9055392 17.761719,4.8085937 16.272914,2.7116483 14.310518,1.025902 12.011719,1 a 1.0001,1.0001 0 0 0 -0.02344,0 z M 12,3.0039063 c 1.249683,0.020339 2.850745,1.1598802 4.130859,2.9628906 1.283693,1.8080507 2.212745,4.1827061 2.373047,6.1152341 a 1.0001,1.0001 0 0 0 0,0.002 c 0.171933,2.058547 -0.146693,4.363055 -1.140625,6.050782 C 16.370504,19.820532 14.814179,20.972812 12,20.998047 9.1858211,20.972812 7.6294964,19.820532 6.6367187,18.134766 5.6427868,16.447039 5.324161,14.142531 5.4960937,12.083984 a 1.0001,1.0001 0 0 0 0,-0.002 C 5.6563956,10.149503 6.5854478,7.7748476 7.8691406,5.9667969 9.1492549,4.1637865 10.750317,3.0242452 12,3.0039063 Z"
     id="path2" />
</svg>
