<?xml version="1.0" encoding="UTF-8" standalone="no"?>
<svg
   width="24"
   height="24"
   viewBox="0 0 24 24"
   fill="none"
   stroke="currentColor"
   stroke-width="2"
   stroke-linecap="round"
   stroke-linejoin="round"
   version="1.1"
   id="svg8"
   xmlns="http://www.w3.org/2000/svg"
   xmlns:svg="http://www.w3.org/2000/svg">
  <defs
     id="defs12" />
  <path
     style="color:#000000;fill:#000000;-inkscape-stroke:none"
     d="m 14.048828,1.9746094 c -0.884706,-0.0024 -1.778302,0.3408021 -2.455078,1.0175781 l -9.5625,9.5644535 c -1.41065834,1.269592 -1.39261454,3.496057 -0.039063,4.849609 l 4.3007812,4.300781 a 1,1 0 0 0 1.4140625,0 1,1 0 0 0 0,-1.414062 L 3.40625,15.992188 C 2.759804,15.345742 2.779801,14.573374 3.3691406,14.042969 A 1.0001,1.0001 0 0 0 3.40625,14.007813 L 13.007813,4.40625 c 0.646445,-0.646446 1.418813,-0.626449 1.949218,-0.037109 a 1.0001,1.0001 0 0 0 0.03516,0.037109 l 5.601562,5.601563 c 0.646446,0.646445 0.626449,1.418813 0.03711,1.949218 a 1.0001,1.0001 0 0 0 -0.03711,0.03516 l -8.300781,8.300781 a 1,1 0 0 0 0,1.414062 1,1 0 0 0 1.414062,0 l 8.261719,-8.263672 c 1.410658,-1.269592 1.392615,-3.496057 0.03906,-4.849609 L 16.443359,3.03125 C 15.808563,2.3259208 14.933534,1.9770066 14.048828,1.9746094 Z"
     id="path2" />
  <path
     style="color:#000000;fill:#000000;-inkscape-stroke:none"
     d="m 7,20 a 1,1 0 0 0 -1,1 1,1 0 0 0 1,1 h 15 a 1,1 0 0 0 1,-1 1,1 0 0 0 -1,-1 z"
     id="path4" />
  <path
     style="color:#000000;fill:#000000;-inkscape-stroke:none"
     d="m 5,10 a 1,1 0 0 0 -0.7070313,0.292969 1,1 0 0 0 0,1.414062 l 9.0000003,9 a 1,1 0 0 0 1.414062,0 1,1 0 0 0 0,-1.414062 l -8.9999998,-9 A 1,1 0 0 0 5,10 Z"
     id="path6" />
</svg>
