<?xml version="1.0" encoding="UTF-8" standalone="no"?>
<svg
   width="24"
   height="24"
   viewBox="0 0 24 24"
   fill="none"
   stroke="currentColor"
   stroke-width="2"
   stroke-linecap="round"
   stroke-linejoin="round"
   version="1.1"
   id="svg8"
   xmlns="http://www.w3.org/2000/svg"
   xmlns:svg="http://www.w3.org/2000/svg">
  <defs
     id="defs12" />
  <path
     style="color:#000000;fill:#000000;-inkscape-stroke:none"
     d="m 4,9 a 1,1 0 0 0 -1,1 1,1 0 0 0 1,1 h 12 a 1,1 0 0 0 1,-1 1,1 0 0 0 -1,-1 z"
     id="path2" />
  <path
     style="color:#000000;fill:#000000;-inkscape-stroke:none"
     d="m 4,13 a 1,1 0 0 0 -1,1 1,1 0 0 0 1,1 h 9 a 1,1 0 0 0 1,-1 1,1 0 0 0 -1,-1 z"
     id="path4" />
  <path
     style="color:#000000;fill:#000000;-inkscape-stroke:none"
     d="M 13.787109,3 C 8.8862533,3.0616435 4.9440852,7.1059887 5.0019531,12.005859 5.0053489,16.93329 8.9447404,21 13.800781,21 c 2.266665,0 4.294782,-0.907525 5.84961,-2.240234 a 1,1 0 0 0 0.109375,-1.410157 1,1 0 0 0 -1.410157,-0.109375 C 17.104439,18.307523 15.534113,19 13.800781,19 10.058925,19 7,15.869693 7,12 a 1.0001,1.0001 0 0 0 0,-0.01367 C 6.9513216,8.1649252 9.9877289,5.0502005 13.808594,5 c 1.670764,-0.00355 3.28263,0.6168375 4.519531,1.7402344 A 1,1 0 0 0 19.740234,6.671875 1,1 0 0 0 19.671875,5.2597656 C 18.064359,3.799763 15.968435,2.993488 13.796875,3 a 1.0001,1.0001 0 0 0 -0.0098,0 z"
     id="path6" />
</svg>
