<?xml version="1.0" encoding="UTF-8" standalone="no"?>
<svg
   width="24"
   height="24"
   viewBox="0 0 24 24"
   fill="none"
   stroke="currentColor"
   stroke-width="2"
   stroke-linecap="round"
   stroke-linejoin="round"
   version="1.1"
   id="svg10"
   xmlns="http://www.w3.org/2000/svg"
   xmlns:svg="http://www.w3.org/2000/svg">
  <defs
     id="defs14" />
  <path
     style="color:#000000;fill:#000000;-inkscape-stroke:none"
     d="m 15,14 a 1,1 0 0 0 -0.707031,0.292969 1,1 0 0 0 0,1.414062 L 18.585937,20 h -2.386718 a 1,1 0 0 0 -1,1 1,1 0 0 0 1,1 H 21 A 1,1 0 0 0 21.707031,21.707031 1,1 0 0 0 22,21 v -4.800781 a 1,1 0 0 0 -1,-1 1,1 0 0 0 -1,1 v 2.386718 L 15.707031,14.292969 A 1,1 0 0 0 15,14 Z"
     id="path2" />
  <path
     style="color:#000000;fill:#000000;-inkscape-stroke:none"
     d="M 9,14 A 1,1 0 0 0 8.2929688,14.292969 L 4,18.585937 v -2.386718 a 1,1 0 0 0 -1,-1 1,1 0 0 0 -1,1 V 21 A 1,1 0 0 0 2.2929688,21.707031 1,1 0 0 0 3,22 H 7.8007812 A 1,1 0 0 0 8.8007813,21 1,1 0 0 0 7.8007812,20 H 5.4140625 l 4.2929688,-4.292969 a 1,1 0 0 0 0,-1.414062 A 1,1 0 0 0 9,14 Z"
     id="path4" />
  <path
     style="color:#000000;fill:#000000;-inkscape-stroke:none"
     d="m 16.199219,2 a 1,1 0 0 0 -1,1 1,1 0 0 0 1,1 h 2.386718 l -4.292968,4.2929688 a 1,1 0 0 0 0,1.4140625 1,1 0 0 0 1.414062,0 L 20,5.4140625 v 2.3867187 a 1,1 0 0 0 1,1.0000001 1,1 0 0 0 1,-1.0000001 V 3 A 1,1 0 0 0 21.707031,2.2929688 1,1 0 0 0 21.382812,2.0761719 1,1 0 0 0 21,2 Z"
     id="path6" />
  <path
     style="color:#000000;fill:#000000;-inkscape-stroke:none"
     d="M 3,2 A 1,1 0 0 0 2,3 V 7.8007812 A 1,1 0 0 0 3,8.8007813 1,1 0 0 0 4,7.8007812 V 5.4140625 l 4.2929688,4.2929688 a 1,1 0 0 0 1.4140625,0 1,1 0 0 0 0,-1.4140625 L 5.4140625,4 H 7.8007812 A 1,1 0 0 0 8.8007813,3 1,1 0 0 0 7.8007812,2 Z"
     id="path8" />
</svg>
