<?xml version="1.0" encoding="UTF-8" standalone="no"?>
<svg
   width="24"
   height="24"
   viewBox="0 0 24 24"
   fill="none"
   stroke="currentColor"
   stroke-width="2"
   stroke-linecap="round"
   stroke-linejoin="round"
   version="1.1"
   id="svg10"
   xmlns="http://www.w3.org/2000/svg"
   xmlns:svg="http://www.w3.org/2000/svg">
  <defs
     id="defs14" />
  <path
     style="color:#000000;fill:#000000;-inkscape-stroke:none"
     d="M 9.9160156,8.8808594 A 1,1 0 0 0 9.1992188,9.1484375 c -0.9428287,0.8785365 -1.379567,2.0063985 -1.3320313,3.0566405 0.047536,1.050242 0.5286437,1.995441 1.2304688,2.697266 0.701825,0.701825 1.6470237,1.182933 2.6972657,1.230468 1.050242,0.04754 2.178104,-0.389202 3.056641,-1.332031 a 1,1 0 0 0 -0.05078,-1.412109 1,1 0 0 0 -1.412109,0.04883 c -0.533883,0.572952 -1.020639,0.719139 -1.503906,0.697266 -0.483268,-0.02187 -0.989033,-0.26247 -1.373047,-0.646485 C 10.127704,13.104267 9.8871079,12.598502 9.8652344,12.115234 9.8433608,11.631967 9.9895478,11.145211 10.5625,10.611328 A 1,1 0 0 0 10.611328,9.1992188 1,1 0 0 0 9.9160156,8.8808594 Z"
     id="path2" />
  <path
     style="color:#000000;fill:#000000;-inkscape-stroke:none"
     d="m 11.998047,4 c -0.465273,8.693e-4 -0.930874,0.030368 -1.392578,0.087891 A 1,1 0 0 0 9.7382813,5.203125 1,1 0 0 0 10.853516,6.0722656 C 11.233786,6.0248883 11.616791,6.0007952 12,6 c 5.9561,0 8.511667,5.340032 8.822266,6.013672 -0.37044,0.712482 -0.767564,1.412739 -1.271485,2.039062 a 1,1 0 0 0 0.152344,1.40625 1,1 0 0 0 1.40625,-0.152343 c 0.712534,-0.885609 1.31582,-1.852962 1.796875,-2.882813 a 1.0001,1.0001 0 0 0 0.01367,-0.818359 C 22.919922,11.605469 19.666659,4 12,4 a 1.0001,1.0001 0 0 0 -0.002,0 z"
     id="path4" />
  <path
     style="color:#000000;fill:#000000;-inkscape-stroke:none"
     d="m 6.796875,5.6269531 a 1,1 0 0 0 -0.75,0.15625 C 3.9111405,7.2379443 2.2016903,9.2367943 1.0957031,11.572266 a 1.0001,1.0001 0 0 0 -0.015625,0.822265 C 1.0800781,12.394531 4.333341,20 12,20 c 2.111845,0.0053 4.178622,-0.612363 5.941406,-1.775391 a 1,1 0 0 0 0.283203,-1.384765 1,1 0 0 0 -1.384765,-0.285157 C 15.404747,17.501517 13.721246,18.00461 12.001953,18 A 1.0001,1.0001 0 0 0 12,18 C 6.0532273,18 3.5014449,12.68423 3.1835938,11.996094 4.1369219,10.18098 5.4749573,8.5927213 7.1738281,7.4355469 A 1,1 0 0 0 7.4355469,6.046875 1,1 0 0 0 6.796875,5.6269531 Z"
     id="path6" />
  <path
     style="color:#000000;fill:#000000;-inkscape-stroke:none"
     d="m 2,1 a 1,1 0 0 0 -0.7070313,0.2929687 1,1 0 0 0 0,1.4140626 L 21.292969,22.707031 a 1,1 0 0 0 1.414062,0 1,1 0 0 0 0,-1.414062 L 2.7070313,1.2929687 A 1,1 0 0 0 2,1 Z"
     id="line8" />
</svg>
