<?xml version="1.0" encoding="UTF-8" standalone="no"?>
<svg
   width="24"
   height="24"
   viewBox="0 0 24 24"
   fill="none"
   stroke="currentColor"
   stroke-width="2"
   stroke-linecap="round"
   stroke-linejoin="round"
   version="1.1"
   id="svg6"
   xmlns="http://www.w3.org/2000/svg"
   xmlns:svg="http://www.w3.org/2000/svg">
  <defs
     id="defs10" />
  <path
     style="color:#000000;fill:#000000;-inkscape-stroke:none"
     d="M 12,4 C 4.333341,4 1.0800781,11.605469 1.0800781,11.605469 a 1.0001,1.0001 0 0 0 0,0.789062 C 1.0800781,12.394531 4.333341,20 12,20 c 7.666659,0 10.919922,-7.605469 10.919922,-7.605469 a 1.0001,1.0001 0 0 0 0,-0.789062 C 22.919922,11.605469 19.666659,4 12,4 Z m 0,2 c 5.942323,0 8.491197,5.304985 8.8125,6 C 20.491197,12.695015 17.942323,18 12,18 6.0576765,18 3.5088032,12.695015 3.1875,12 3.5088032,11.304985 6.0576765,6 12,6 Z"
     id="path2" />
  <path
     style="color:#000000;fill:#000000;-inkscape-stroke:none"
     d="m 12,8 c -2.1972922,0 -4,1.8027078 -4,4 0,2.197292 1.8027078,4 4,4 2.197292,0 4,-1.802708 4,-4 0,-2.1972922 -1.802708,-4 -4,-4 z m 0,2 c 1.116413,0 2,0.883587 2,2 0,1.116413 -0.883587,2 -2,2 -1.116413,0 -2,-0.883587 -2,-2 0,-1.116413 0.883587,-2 2,-2 z"
     id="circle4" />
</svg>
