<?xml version="1.0" encoding="UTF-8" standalone="no"?>
<svg
   width="24"
   height="24"
   viewBox="0 0 24 24"
   fill="none"
   stroke="currentColor"
   stroke-width="2"
   stroke-linecap="round"
   stroke-linejoin="round"
   version="1.1"
   id="svg4"
   xmlns="http://www.w3.org/2000/svg"
   xmlns:svg="http://www.w3.org/2000/svg">
  <defs
     id="defs8" />
  <path
     style="color:#000000;fill:#000000;-inkscape-stroke:none"
     d="M 15,1 C 11.698139,1 9,3.6981394 9,7 V 9 H 7 a 1.0001,1.0001 0 0 0 -1,1 v 4 a 1.0001,1.0001 0 0 0 1,1 h 2 v 7 a 1.0001,1.0001 0 0 0 1,1 h 4 a 1.0001,1.0001 0 0 0 1,-1 v -7 h 2 a 1.0001,1.0001 0 0 0 0.970703,-0.757812 l 1,-4 A 1.0001,1.0001 0 0 0 18,9 H 15 V 7 h 3 A 1.0001,1.0001 0 0 0 19,6 V 2 A 1.0001,1.0001 0 0 0 18,1 Z m 0,2 h 2 v 2 h -2 c -1.092724,0 -2,0.9072762 -2,2 v 3 a 1.0001,1.0001 0 0 0 1,1 h 2.71875 l -0.5,2 H 14 a 1.0001,1.0001 0 0 0 -1,1 v 7 H 11 V 14 A 1.0001,1.0001 0 0 0 10,13 H 8 v -2 h 2 a 1.0001,1.0001 0 0 0 1,-1 V 7 c 0,-2.2209814 1.779019,-4 4,-4 z"
     id="path2" />
</svg>
