<?xml version="1.0" encoding="UTF-8" standalone="no"?>
<svg
   width="24"
   height="24"
   viewBox="0 0 24 24"
   fill="none"
   stroke="currentColor"
   stroke-width="2"
   stroke-linecap="round"
   stroke-linejoin="round"
   version="1.1"
   id="svg10"
   xmlns="http://www.w3.org/2000/svg"
   xmlns:svg="http://www.w3.org/2000/svg">
  <defs
     id="defs14" />
  <path
     style="color:#000000;fill:#000000;-inkscape-stroke:none"
     d="M 4,1 C 2.354992,1 1,2.354992 1,4 v 16 c 0,1.645008 1.354992,3 3,3 h 16 c 1.645008,0 3,-1.354992 3,-3 V 8 A 1.0001,1.0001 0 0 0 21.417969,7.1855469 L 16,11.054688 V 8 A 1.0001,1.0001 0 0 0 14.417969,7.1855469 L 9,11.054688 V 4 C 9,2.354992 7.645008,1 6,1 Z m 0,2 h 2 c 0.5641288,0 1,0.4358712 1,1 v 9 a 1.0001,1.0001 0 0 0 1.5820313,0.814453 L 14,9.9453125 V 13 a 1.0001,1.0001 0 0 0 1.582031,0.814453 L 21,9.9453125 V 20 c 0,0.564129 -0.435871,1 -1,1 H 4 C 3.4358712,21 3,20.564129 3,20 V 4 C 3,3.4358712 3.4358712,3 4,3 Z"
     id="path2" />
  <path
     style="color:#000000;fill:#000000;-inkscape-stroke:none"
     d="m 17,17 a 1,1 0 0 0 -1,1 1,1 0 0 0 1,1 h 1 a 1,1 0 0 0 1,-1 1,1 0 0 0 -1,-1 z"
     id="path4" />
  <path
     style="color:#000000;fill:#000000;-inkscape-stroke:none"
     d="m 12,17 a 1,1 0 0 0 -1,1 1,1 0 0 0 1,1 h 1 a 1,1 0 0 0 1,-1 1,1 0 0 0 -1,-1 z"
     id="path6" />
  <path
     style="color:#000000;fill:#000000;-inkscape-stroke:none"
     d="m 7,17 a 1,1 0 0 0 -1,1 1,1 0 0 0 1,1 H 8 A 1,1 0 0 0 9,18 1,1 0 0 0 8,17 Z"
     id="path8" />
</svg>
