<?xml version="1.0" encoding="UTF-8" standalone="no"?>
<svg
   width="24"
   height="24"
   viewBox="0 0 24 24"
   fill="none"
   stroke="currentColor"
   stroke-width="2"
   stroke-linecap="round"
   stroke-linejoin="round"
   version="1.1"
   id="svg6"
   xmlns="http://www.w3.org/2000/svg"
   xmlns:svg="http://www.w3.org/2000/svg">
  <defs
     id="defs10" />
  <path
     style="color:#000000;fill:#000000;-inkscape-stroke:none"
     d="M 12.734375,1 C 10.646286,1.0856628 8.7807508,2.1057556 7.5527344,3.6171875 6.2931046,5.1675288 5.7020486,7.269273 6.1054687,9.3847656 L 2.46875,8.4101563 A 1.0001,1.0001 0 0 0 1.2421875,9.1191406 c -0.78209971,2.9196134 0.3597575,5.6907694 2.375,7.3281254 1.5503413,1.259629 3.6520855,1.850685 5.7675781,1.447265 L 8.4101563,21.53125 a 1.0001,1.0001 0 0 0 0.7089843,1.226562 c 2.9196134,0.7821 5.6907694,-0.359757 7.3281254,-2.375 1.259629,-1.550341 1.850685,-3.652085 1.447265,-5.767578 l 3.636719,0.97461 a 1.0001,1.0001 0 0 0 1.226562,-0.708985 c 0.7821,-2.919613 -0.359757,-5.6907693 -2.375,-7.3281246 C 18.832471,6.2931046 16.730727,5.7020486 14.615234,6.1054687 L 15.589844,2.46875 A 1.0001,1.0001 0 0 0 14.880859,1.2421875 C 14.150956,1.0466626 13.430405,0.97144573 12.734375,1 Z m 0.585938,2.2050781 -1.113282,4.15625 A 1.0001,1.0001 0 0 0 13.625,8.5136719 c 1.993811,-1.0075601 4.035174,-0.5951795 5.496094,0.5917969 1.206312,0.9801112 1.767411,2.5152662 1.673828,4.2148442 l -4.15625,-1.113282 A 1.0001,1.0001 0 0 0 15.486328,13.625 c 1.00756,1.993811 0.59518,4.035174 -0.591797,5.496094 -0.980111,1.206312 -2.515266,1.767411 -4.214843,1.673828 l 1.113281,-4.15625 A 1.0001,1.0001 0 0 0 10.375,15.486328 C 8.3811889,16.493888 6.3398264,16.081508 4.8789062,14.894531 3.6725936,13.91442 3.1114951,12.379265 3.2050781,10.679688 l 4.15625,1.113281 A 1.0001,1.0001 0 0 0 8.5136719,10.375 C 7.5061118,8.3811889 7.9184924,6.3398264 9.1054688,4.8789062 10.08558,3.6725936 11.620735,3.1114951 13.320313,3.2050781 Z"
     id="path2" />
  <path
     style="color:#000000;fill:#000000;-inkscape-stroke:none"
     d="m 12,11 a 1,1 0 0 0 -1,1 v 0.0098 a 1,1 0 0 0 1,1 1,1 0 0 0 1,-1 V 12 a 1,1 0 0 0 -1,-1 z"
     id="path4" />
</svg>
