<?xml version="1.0" encoding="UTF-8" standalone="no"?>
<svg
   width="24"
   height="24"
   viewBox="0 0 24 24"
   fill="none"
   stroke="currentColor"
   stroke-width="2"
   stroke-linecap="round"
   stroke-linejoin="round"
   version="1.1"
   id="svg6"
   xmlns="http://www.w3.org/2000/svg"
   xmlns:svg="http://www.w3.org/2000/svg">
  <defs
     id="defs10" />
  <path
     style="color:#000000;fill:#000000;-inkscape-stroke:none"
     d="M 12.560547,4.1015625 A 1.0001,1.0001 0 0 0 12,5 v 14 a 1.0001,1.0001 0 0 0 1.613281,0.789062 l 9,-6.999999 a 1.0001,1.0001 0 0 0 0,-1.578125 l -9,-7.0000005 A 1.0001,1.0001 0 0 0 12.560547,4.1015625 Z M 14,7.0429687 20.373047,12 14,16.957031 Z"
     id="polygon2" />
  <path
     style="color:#000000;fill:#000000;-inkscape-stroke:none"
     d="M 1.5605469,4.1015625 A 1.0001,1.0001 0 0 0 1,5 v 14 a 1.0001,1.0001 0 0 0 1.6132813,0.789062 l 8.9999997,-6.999999 a 1.0001,1.0001 0 0 0 0,-1.578125 L 2.6132813,4.2109375 A 1.0001,1.0001 0 0 0 1.5605469,4.1015625 Z M 3,7.0429687 9.3730469,12 3,16.957031 Z"
     id="polygon4" />
</svg>
