<?xml version="1.0" encoding="UTF-8" standalone="no"?>
<svg
   width="24"
   height="24"
   viewBox="0 0 24 24"
   fill="none"
   stroke="currentColor"
   stroke-width="2"
   stroke-linecap="round"
   stroke-linejoin="round"
   version="1.1"
   id="svg8"
   xmlns="http://www.w3.org/2000/svg"
   xmlns:svg="http://www.w3.org/2000/svg">
  <defs
     id="defs12" />
  <path
     style="color:#000000;fill:#000000;-inkscape-stroke:none"
     d="M 16.318359,0.89453125 C 14.539538,0.78989431 12.634743,1.4511942 11.042969,3.0429688 l -6.7500003,6.75 A 1.0001,1.0001 0 0 0 4,10.5 V 19 a 1.0001,1.0001 0 0 0 1,1 h 8.5 a 1.0001,1.0001 0 0 0 0.708984,-0.292969 l 6.738282,-6.759765 C 22.53904,11.355491 23.20034,9.4506964 23.095703,7.671875 22.991066,5.8930536 22.165649,4.2613523 20.947266,3.0429688 19.728882,1.8245852 18.097181,0.99916819 16.318359,0.89453125 Z M 16.201172,2.890625 c 1.22805,0.072239 2.427917,0.6622919 3.332031,1.5664062 0.904114,0.9041144 1.494168,2.1039814 1.566406,3.3320313 0.07224,1.2280499 -0.328184,2.5059195 -1.566406,3.7441405 a 1.0001,1.0001 0 0 0 -0.002,0 L 13.083984,18 H 6 V 10.914063 L 12.457031,4.4570312 C 13.695253,3.2188099 14.973122,2.8183865 16.201172,2.890625 Z"
     id="path2" />
  <path
     style="color:#000000;fill:#000000;-inkscape-stroke:none"
     d="M 15.292969,7.2929687 1.2929687,21.292969 a 1,1 0 0 0 0,1.414062 1,1 0 0 0 1.4140626,0 L 16.707031,8.7070313 a 1,1 0 0 0 0,-1.4140626 1,1 0 0 0 -1.414062,0 z"
     id="line4" />
  <path
     style="color:#000000;fill:#000000;-inkscape-stroke:none"
     d="m 9,14 a 1,1 0 0 0 -1,1 1,1 0 0 0 1,1 h 8.5 a 1,1 0 0 0 1,-1 1,1 0 0 0 -1,-1 z"
     id="line6" />
</svg>
