<?xml version="1.0" encoding="UTF-8" standalone="no"?>
<svg
   width="24"
   height="24"
   viewBox="0 0 24 24"
   fill="none"
   stroke="currentColor"
   stroke-width="2"
   stroke-linecap="round"
   stroke-linejoin="round"
   version="1.1"
   id="svg20"
   xmlns="http://www.w3.org/2000/svg"
   xmlns:svg="http://www.w3.org/2000/svg">
  <defs
     id="defs24" />
  <path
     style="color:#000000;fill:#000000;-inkscape-stroke:none"
     d="m 12,9 c -1.645008,0 -3,1.354992 -3,3 0,1.645008 1.354992,3 3,3 1.645008,0 3,-1.354992 3,-3 0,-1.645008 -1.354992,-3 -3,-3 z m 0,2 c 0.564129,0 1,0.435871 1,1 0,0.564129 -0.435871,1 -1,1 -0.564129,0 -1,-0.435871 -1,-1 0,-0.564129 0.435871,-1 1,-1 z"
     id="circle2" />
  <path
     style="color:#000000;fill:#000000;-inkscape-stroke:none"
     d="m 12,1 a 1,1 0 0 0 -1,1 v 4 a 1,1 0 0 0 1,1 1,1 0 0 0 1,-1 V 2 A 1,1 0 0 0 12,1 Z"
     id="path4" />
  <path
     style="color:#000000;fill:#000000;-inkscape-stroke:none"
     d="m 7.0625,14.035156 a 1,1 0 0 0 -0.7578125,0.0957 l -3.5,2 a 1,1 0 0 0 -0.3730469,1.365235 1,1 0 0 0 1.3652344,0.373047 l 3.5,-2 A 1,1 0 0 0 7.6679687,14.503906 1,1 0 0 0 7.0625,14.035156 Z"
     id="path6" />
  <path
     style="color:#000000;fill:#000000;-inkscape-stroke:none"
     d="m 20.203125,6.1308594 -3.5,2 a 1,1 0 0 0 -0.371094,1.3652344 1,1 0 0 0 1.363281,0.3730468 l 3.5,-2 A 1,1 0 0 0 21.568359,6.5039062 1,1 0 0 0 20.203125,6.1308594 Z"
     id="path8" />
  <path
     style="color:#000000;fill:#000000;-inkscape-stroke:none"
     d="m 3.0371094,6.0351562 a 1,1 0 0 0 -0.6054688,0.46875 1,1 0 0 0 0.3730469,1.3652344 l 3.5,2 A 1,1 0 0 0 7.6679687,9.4960938 1,1 0 0 0 7.296875,8.1308594 l -3.5,-2 A 1,1 0 0 0 3.0371094,6.0351562 Z"
     id="path10" />
  <path
     style="color:#000000;fill:#000000;-inkscape-stroke:none"
     d="m 17.695312,14.130859 a 1,1 0 0 0 -1.363281,0.373047 1,1 0 0 0 0.371094,1.365235 l 3.5,2 a 1,1 0 0 0 1.365234,-0.373047 1,1 0 0 0 -0.373047,-1.365235 z"
     id="path12" />
  <path
     style="color:#000000;fill:#000000;-inkscape-stroke:none"
     d="m 12,13 a 1.0001,1.0001 0 0 0 -0.935547,0.648438 l -2.9999999,7.999999 a 1,1 0 0 0 0.5839844,1.28711 1,1 0 0 0 1.2871094,-0.583985 L 12,16.845703 l 2.064453,5.505859 a 1,1 0 0 0 1.28711,0.583985 1,1 0 0 0 0.583984,-1.28711 l -3,-7.999999 A 1.0001,1.0001 0 0 0 12,13 Z"
     id="path14" />
  <path
     style="color:#000000;fill:#000000;-inkscape-stroke:none"
     d="m 8,21 a 1,1 0 0 0 -1,1 1,1 0 0 0 1,1 h 8 a 1,1 0 0 0 1,-1 1,1 0 0 0 -1,-1 z"
     id="path16" />
  <path
     style="color:#000000;fill:#000000;-inkscape-stroke:none"
     d="m 12,1.9921875 c -4.5422101,0 -7.9722051,2.8466693 -9.3417969,6.4316406 -1.3695917,3.5849709 -0.710278,7.9929009 2.6757813,11.0214839 a 1,1 0 0 0 1.4121093,-0.07813 1,1 0 0 0 -0.080078,-1.412109 C 3.8933692,15.475148 3.4226094,12.028413 4.5273437,9.1367188 5.6320781,6.2450243 8.2808205,3.9921875 12,3.9921875 c 3.719179,0 6.367922,2.2528368 7.472656,5.1445313 1.104735,2.8916942 0.633975,6.3384292 -2.138672,8.8183592 a 1,1 0 0 0 -0.08008,1.412109 1,1 0 0 0 1.41211,0.07813 C 22.052075,16.416729 22.711389,12.008799 21.341797,8.4238281 19.972205,4.8388568 16.54221,1.9921875 12,1.9921875 Z"
     id="path18" />
</svg>
