<?xml version="1.0" encoding="UTF-8" standalone="no"?>
<svg
   width="24"
   height="24"
   viewBox="0 0 24 24"
   fill="none"
   stroke="currentColor"
   stroke-width="2"
   stroke-linecap="round"
   stroke-linejoin="round"
   version="1.1"
   id="svg12"
   xmlns="http://www.w3.org/2000/svg"
   xmlns:svg="http://www.w3.org/2000/svg">
  <defs
     id="defs16" />
  <path
     style="color:#000000;fill:#000000;-inkscape-stroke:none"
     d="M 8.5,1 C 6.0265657,1 4,3.0265657 4,5.5 4,7.9734343 6.0265657,10 8.5,10 H 12 A 1.0001,1.0001 0 0 0 13,9 V 2 A 1.0001,1.0001 0 0 0 12,1 Z m 0,2 H 11 V 8 H 8.5 C 7.1074449,8 6,6.8925551 6,5.5 6,4.1074449 7.1074449,3 8.5,3 Z"
     id="path2" />
  <path
     style="color:#000000;fill:#000000;-inkscape-stroke:none"
     d="m 12,1 a 1.0001,1.0001 0 0 0 -1,1 v 7 a 1.0001,1.0001 0 0 0 1,1 h 3.5 C 16.916665,10 18.106442,9.4327435 18.873047,8.5703125 19.639652,7.7078815 20,6.597221 20,5.5 20,4.402779 19.639652,3.2921185 18.873047,2.4296875 18.106442,1.5672565 16.916665,1 15.5,1 Z m 1,2 h 2.5 c 0.916665,0 1.476893,0.3077449 1.876953,0.7578125 C 17.777013,4.2078801 18,4.8472228 18,5.5 18,6.1527772 17.777013,6.7921199 17.376953,7.2421875 16.976893,7.6922551 16.416665,8 15.5,8 H 13 Z"
     id="path4" />
  <path
     style="color:#000000;fill:#000000;-inkscape-stroke:none"
     d="M 15.5,8 C 14.402779,8 13.292119,8.3603481 12.429688,9.1269531 11.567256,9.8935582 11,11.083335 11,12.5 c 0,1.416665 0.567256,2.606442 1.429688,3.373047 C 13.292119,16.639652 14.402779,17 15.5,17 16.597221,17 17.707881,16.639652 18.570312,15.873047 19.432744,15.106442 20,13.916665 20,12.5 20,11.083335 19.432744,9.8935582 18.570312,9.1269531 17.707881,8.3603481 16.597221,8 15.5,8 Z m 0,2 c 0.652777,0 1.29212,0.222987 1.742187,0.623047 C 17.692255,11.023107 18,11.583335 18,12.5 18,13.416665 17.692255,13.976893 17.242187,14.376953 16.79212,14.777013 16.152777,15 15.5,15 14.847223,15 14.20788,14.777013 13.757813,14.376953 13.307745,13.976893 13,13.416665 13,12.5 13,11.583335 13.307745,11.023107 13.757813,10.623047 14.20788,10.222987 14.847223,10 15.5,10 Z"
     id="path6" />
  <path
     style="color:#000000;fill:#000000;-inkscape-stroke:none"
     d="M 8.5,15 C 6.0265657,15 4,17.026566 4,19.5 4,20.916665 4.5672565,22.106442 5.4296875,22.873047 6.2921185,23.639652 7.402779,24 8.5,24 9.597221,24 10.707881,23.639652 11.570313,22.873047 12.432744,22.106442 13,20.916665 13,19.5 V 16 a 1.0001,1.0001 0 0 0 -1,-1 z m 0,2 H 11 v 2.5 c 0,0.916665 -0.307745,1.476893 -0.757812,1.876953 C 9.7921199,21.777013 9.1527772,22 8.5,22 7.8472228,22 7.2078801,21.777013 6.7578125,21.376953 6.3077449,20.976893 6,20.416665 6,19.5 6,18.107445 7.1074449,17 8.5,17 Z"
     id="path8" />
  <path
     style="color:#000000;fill:#000000;-inkscape-stroke:none"
     d="M 8.5,8 C 6.0265657,8 4,10.026566 4,12.5 4,14.973434 6.0265657,17 8.5,17 H 12 a 1.0001,1.0001 0 0 0 1,-1 V 9 A 1.0001,1.0001 0 0 0 12,8 Z m 0,2 H 11 v 5 H 8.5 C 7.1074449,15 6,13.892555 6,12.5 6,11.107445 7.1074449,10 8.5,10 Z"
     id="path10" />
</svg>
