<?xml version="1.0" encoding="UTF-8" standalone="no"?>
<svg
   width="24"
   height="24"
   viewBox="0 0 24 24"
   fill="none"
   stroke="currentColor"
   stroke-width="2"
   stroke-linecap="round"
   stroke-linejoin="round"
   version="1.1"
   id="svg10"
   xmlns="http://www.w3.org/2000/svg"
   xmlns:svg="http://www.w3.org/2000/svg">
  <defs
     id="defs14" />
  <path
     style="color:#000000;fill:#000000;-inkscape-stroke:none"
     d="M 6,1 C 4.354992,1 3,2.354992 3,4 V 7 A 1,1 0 0 0 4,8 1,1 0 0 0 5,7 V 4 C 5,3.4358712 5.4358712,3 6,3 h 8.085938 L 19,7.9140625 V 20 c 0,0.564129 -0.435871,1 -1,1 H 4 a 1,1 0 0 0 -1,1 1,1 0 0 0 1,1 h 14 c 1.645008,0 3,-1.354992 3,-3 V 7.5 A 1.0001,1.0001 0 0 0 20.707031,6.7929687 l -5.5,-5.5 A 1.0001,1.0001 0 0 0 14.5,1 Z"
     id="path2" />
  <path
     style="color:#000000;fill:#000000;-inkscape-stroke:none"
     d="m 14,1 a 1,1 0 0 0 -1,1 v 6 a 1.0001,1.0001 0 0 0 1,1 h 6 A 1,1 0 0 0 21,8 1,1 0 0 0 20,7 H 15 V 2 A 1,1 0 0 0 14,1 Z"
     id="polyline4" />
  <path
     style="color:#000000;fill:#000000;-inkscape-stroke:none"
     d="M 5,10 C 3.7500016,10 2.685225,10.504756 2.0019531,11.273438 1.3186813,12.042119 1,13.027779 1,14 1,14.972221 1.3186813,15.957881 2.0019531,16.726562 2.685225,17.495244 3.7500016,18 5,18 6.2499984,18 7.314775,17.495244 7.9980469,16.726562 8.6813187,15.957881 9,14.972221 9,14 9,13.027779 8.6813187,12.042119 7.9980469,11.273438 7.314775,10.504756 6.2499984,10 5,10 Z m 0,2 c 0.7499987,0 1.1852264,0.245245 1.5019531,0.601563 C 6.8186799,12.95788 7,13.472223 7,14 7,14.527777 6.8186799,15.04212 6.5019531,15.398438 6.1852264,15.754755 5.7499987,16 5,16 4.2500013,16 3.8147736,15.754755 3.4980469,15.398438 3.1813201,15.04212 3,14.527777 3,14 3,13.472223 3.1813201,12.95788 3.4980469,12.601563 3.8147736,12.245245 4.2500013,12 5,12 Z"
     id="path6" />
  <path
     style="color:#000000;fill:#000000;-inkscape-stroke:none"
     d="m 7.5,15.5 a 1,1 0 0 0 -0.7070313,0.292969 1,1 0 0 0 0,1.414062 l 1.5000001,1.5 a 1,1 0 0 0 1.4140625,0 1,1 0 0 0 0,-1.414062 l -1.5,-1.5 A 1,1 0 0 0 7.5,15.5 Z"
     id="path8" />
</svg>
