<?xml version="1.0" encoding="UTF-8" standalone="no"?>
<svg
   width="24"
   height="24"
   viewBox="0 0 24 24"
   fill="none"
   stroke="currentColor"
   stroke-width="2"
   stroke-linecap="round"
   stroke-linejoin="round"
   version="1.1"
   id="svg8"
   xmlns="http://www.w3.org/2000/svg"
   xmlns:svg="http://www.w3.org/2000/svg">
  <defs
     id="defs12" />
  <path
     style="color:#000000;fill:#000000;-inkscape-stroke:none"
     d="M 6,1 C 4.354992,1 3,2.354992 3,4 v 16 c 0,1.645008 1.354992,3 3,3 h 12 c 1.645008,0 3,-1.354992 3,-3 V 7.5 A 1.0001,1.0001 0 0 0 20.707031,6.7929687 l -5.5,-5.5 A 1.0001,1.0001 0 0 0 14.5,1 Z m 0,2 h 8.085938 L 19,7.9140625 V 20 c 0,0.564129 -0.435871,1 -1,1 H 6 C 5.4358712,21 5,20.564129 5,20 V 4 C 5,3.4358712 5.4358712,3 6,3 Z"
     id="path2" />
  <path
     style="color:#000000;fill:#000000;-inkscape-stroke:none"
     d="M 12.421875,8.0566406 C 11.75263,7.9536799 11.053352,8.0788795 10.433594,8.4277344 9.7545948,8.7782678 9.3612853,9.3418826 9.1054688,9.8535156 a 1,1 0 0 0 0.4472656,1.3417974 1,1 0 0 0 1.3417966,-0.447266 c 0.140372,-0.280743 0.351268,-0.501806 0.453125,-0.552734 a 1.0001,1.0001 0 0 0 0.05274,-0.0293 c 0.440772,-0.2548269 0.974712,-0.158092 1.328125,0.203125 C 12.912059,10.626481 13,10.789466 13,11 c 0,0.137179 -0.181966,0.40398 -0.558594,0.658203 -0.376627,0.254224 -0.771484,0.398438 -0.771484,0.398438 a 1,1 0 0 0 -0.613281,1.273437 1,1 0 0 0 1.273437,0.613281 c 0,0 0.605144,-0.206177 1.228516,-0.626953 C 14.181965,12.89563 15,12.162819 15,11 15,10.233334 14.664781,9.5849422 14.300781,9.0996094 a 1.0001,1.0001 0 0 0 -0.0625,-0.074219 c -0.489242,-0.5344025 -1.136006,-0.864073 -1.816406,-0.96875 z"
     id="path4" />
  <path
     style="color:#000000;fill:#000000;-inkscape-stroke:none"
     d="m 12,16 a 1,1 0 0 0 -1,1 1,1 0 0 0 1,1 h 0.0098 a 1,1 0 0 0 1,-1 1,1 0 0 0 -1,-1 z"
     id="path6" />
</svg>
