<?xml version="1.0" encoding="UTF-8" standalone="no"?>
<svg
   width="24"
   height="24"
   viewBox="0 0 24 24"
   fill="none"
   stroke="currentColor"
   stroke-width="2"
   stroke-linecap="round"
   stroke-linejoin="round"
   version="1.1"
   id="svg8"
   xmlns="http://www.w3.org/2000/svg"
   xmlns:svg="http://www.w3.org/2000/svg">
  <defs
     id="defs12" />
  <path
     style="color:#000000;fill:#000000;-inkscape-stroke:none"
     d="M 6,1 C 4.354992,1 3,2.354992 3,4 v 9.5 a 1,1 0 0 0 1,1 1,1 0 0 0 1,-1 V 4 C 5,3.4358712 5.4358712,3 6,3 h 8.085938 L 19,7.9140625 V 20 c 0,0.564129 -0.435871,1 -1,1 h -5.5 a 1,1 0 0 0 -1,1 1,1 0 0 0 1,1 H 18 c 1.645008,0 3,-1.354992 3,-3 V 7.5 A 1.0001,1.0001 0 0 0 20.707031,6.7929687 l -5.5,-5.5 A 1.0001,1.0001 0 0 0 14.5,1 Z"
     id="path2" />
  <path
     style="color:#000000;fill:#000000;-inkscape-stroke:none"
     d="m 14,1 a 1,1 0 0 0 -1,1 v 6 a 1.0001,1.0001 0 0 0 1,1 h 6 A 1,1 0 0 0 21,8 1,1 0 0 0 20,7 H 15 V 2 A 1,1 0 0 0 14,1 Z"
     id="polyline4" />
  <path
     style="color:#000000;fill:#000000;-inkscape-stroke:none"
     d="m 12.056641,10.962891 c -0.801323,-0.04714 -1.671974,0.267677 -2.3437504,0.939453 a 1.0001,1.0001 0 0 0 0,0.002 L 4.2832031,17.34375 a 1.0001,1.0001 0 0 0 -0.2636719,0.462891 l -0.9902343,3.951171 a 1.0001,1.0001 0 0 0 1.2167968,1.210938 l 3.9492188,-1 A 1.0001,1.0001 0 0 0 8.65625,21.708984 l 5.439453,-5.419922 a 1.0001,1.0001 0 0 0 0.002,-0.002 c 0.671776,-0.671776 0.98659,-1.542427 0.939453,-2.34375 -0.04714,-0.801322 -0.411069,-1.512631 -0.939453,-2.041015 -0.528384,-0.528384 -1.239693,-0.892317 -2.041015,-0.939453 z m -0.117188,1.996093 c 0.250551,0.01474 0.530026,0.143307 0.744141,0.357422 0.214115,0.214115 0.342683,0.49359 0.357422,0.744141 0.01474,0.250551 -0.0392,0.494277 -0.357422,0.8125 l -5.2441409,5.224609 -2.0625,0.523438 0.515625,-2.060547 5.2343749,-5.244141 c 0.318223,-0.318222 0.561949,-0.37216 0.8125,-0.357422 z"
     id="path6" />
</svg>
