<?xml version="1.0" encoding="UTF-8" standalone="no"?>
<svg
   width="24"
   height="24"
   viewBox="0 0 24 24"
   fill="none"
   stroke="currentColor"
   stroke-width="2"
   stroke-linecap="round"
   stroke-linejoin="round"
   version="1.1"
   id="svg8"
   xmlns="http://www.w3.org/2000/svg"
   xmlns:svg="http://www.w3.org/2000/svg">
  <defs
     id="defs12" />
  <path
     style="color:#000000;fill:#000000;-inkscape-stroke:none"
     d="M 6,1 C 4.354992,1 3,2.354992 3,4 V 6 A 1,1 0 0 0 4,7 1,1 0 0 0 5,6 V 4 C 5,3.4358712 5.4358712,3 6,3 h 8.085938 L 19,7.9140625 V 20 c 0,0.564129 -0.435871,1 -1,1 H 4 a 1,1 0 0 0 -1,1 1,1 0 0 0 1,1 h 14 c 1.645008,0 3,-1.354992 3,-3 V 7.5 A 1.0001,1.0001 0 0 0 20.707031,6.7929687 l -5.5,-5.5 A 1.0001,1.0001 0 0 0 14.5,1 Z"
     id="path2" />
  <path
     style="color:#000000;fill:#000000;-inkscape-stroke:none"
     d="m 14,1 a 1,1 0 0 0 -1,1 v 6 a 1.0001,1.0001 0 0 0 1,1 h 6 A 1,1 0 0 0 21,8 1,1 0 0 0 20,7 H 15 V 2 A 1,1 0 0 0 14,1 Z"
     id="polyline4" />
  <path
     style="color:#000000;fill:#000000;-inkscape-stroke:none"
     d="M 9.2304688,9.0546875 C 8.576315,8.9268078 7.8859164,8.9892903 7.2460937,9.2578125 6.9952917,9.3618246 6.7881795,9.5556471 6.5664062,9.7207031 l 0.28125,0.2714844 0.00977,0.011719 C 6.7469238,9.8930447 6.5832569,9.8841918 6.4609375,9.7910156 6.3546284,9.8768541 6.2231202,9.918993 6.1269531,10.019531 L 6.1523437,9.9921875 6.3964844,9.7558594 C 5.4445061,9.0632783 4.2355957,8.7994923 3.125,9.2558594 2.6934044,9.4294018 2.3160185,9.6905611 2.0058594,10 0.66756158,11.32421 0.68101449,13.623441 2.1992188,15.154297 a 1.0001,1.0001 0 0 0 0.00781,0.0059 l 3.5898437,3.550781 a 1.0001,1.0001 0 0 0 1.4042969,0.002 l 3.6015621,-3.550782 a 1.0001,1.0001 0 0 0 0.0078,-0.0078 c 1.513091,-1.5257 1.514497,-3.808194 0.197266,-5.132813 a 1.0001,1.0001 0 0 0 -0.01172,-0.029296 C 10.504028,9.5008588 9.8858969,9.1828163 9.2304688,9.0546875 Z M 8.0175781,11.101563 c 0.5369068,-0.226078 1.1492969,-0.103583 1.5625,0.30664 a 1.0001,1.0001 0 0 0 0.00586,0.01172 c 0.5641945,0.558255 0.6845245,1.439002 -0.1953125,2.326172 L 6.5019531,16.59375 3.6171875,13.742188 C 2.7397454,12.854423 2.8532143,11.974866 3.4140625,11.419922 a 1.0001,1.0001 0 0 0 0.00391,-0.002 c 0.1480164,-0.148017 0.2883056,-0.242666 0.453125,-0.308594 a 1.0001,1.0001 0 0 0 0.011719,-0.0059 c 0.5376941,-0.222437 1.1478134,-0.09963 1.5585937,0.3125 a 1.0001,1.0001 0 0 0 0.011719,0.01172 l 0.3496094,0.339844 a 1.0001,1.0001 0 0 0 1.3945312,0 L 7.546875,11.427734 a 1.0001,1.0001 0 0 0 0.025391,-0.02734 c 0.1176471,-0.122995 0.273281,-0.228114 0.4394532,-0.296875 a 1.0001,1.0001 0 0 0 0.00586,-0.002 z"
     id="path6" />
</svg>
