<?xml version="1.0" encoding="UTF-8" standalone="no"?>
<svg
   width="24"
   height="24"
   viewBox="0 0 24 24"
   fill="none"
   stroke="currentColor"
   stroke-width="2"
   stroke-linecap="round"
   stroke-linejoin="round"
   version="1.1"
   id="svg24"
   xmlns="http://www.w3.org/2000/svg"
   xmlns:svg="http://www.w3.org/2000/svg">
  <defs
     id="defs28" />
  <path
     style="color:#000000;fill:#000000;-inkscape-stroke:none"
     d="M 6,1 C 4.354992,1 3,2.354992 3,4 V 6 A 1,1 0 0 0 4,7 1,1 0 0 0 5,6 V 4 C 5,3.4358712 5.4358712,3 6,3 h 8.085938 L 19,7.9140625 V 20 c 0,0.564129 -0.435871,1 -1,1 H 4 a 1,1 0 0 0 -1,1 1,1 0 0 0 1,1 h 14 c 1.645008,0 3,-1.354992 3,-3 V 7.5 A 1.0001,1.0001 0 0 0 20.707031,6.7929687 l -5.5,-5.5 A 1.0001,1.0001 0 0 0 14.5,1 Z"
     id="path2" />
  <path
     style="color:#000000;fill:#000000;-inkscape-stroke:none"
     d="m 14,1 a 1,1 0 0 0 -1,1 v 6 a 1.0001,1.0001 0 0 0 1,1 h 6 A 1,1 0 0 0 21,8 1,1 0 0 0 20,7 H 15 V 2 A 1,1 0 0 0 14,1 Z"
     id="polyline4" />
  <path
     style="color:#000000;fill:#000000;-inkscape-stroke:none"
     d="m 6,10 c -2.1972922,0 -4,1.802708 -4,4 0,2.197292 1.8027078,4 4,4 2.1972922,0 4,-1.802708 4,-4 0,-2.197292 -1.8027078,-4 -4,-4 z m 0,2 c 1.116413,0 2,0.883587 2,2 0,1.116413 -0.883587,2 -2,2 -1.116413,0 -2,-0.883587 -2,-2 0,-1.116413 0.883587,-2 2,-2 z"
     id="circle6" />
  <path
     style="color:#000000;fill:#000000;-inkscape-stroke:none"
     d="m 6,9 a 1,1 0 0 0 -1,1 v 1 a 1,1 0 0 0 1,1 1,1 0 0 0 1,-1 V 10 A 1,1 0 0 0 6,9 Z"
     id="path8" />
  <path
     style="color:#000000;fill:#000000;-inkscape-stroke:none"
     d="m 6,16 a 1,1 0 0 0 -1,1 v 1 a 1,1 0 0 0 1,1 1,1 0 0 0 1,-1 V 17 A 1,1 0 0 0 6,16 Z"
     id="path10" />
  <path
     style="color:#000000;fill:#000000;-inkscape-stroke:none"
     d="m 9,13 a 1,1 0 0 0 -1,1 1,1 0 0 0 1,1 h 1 a 1,1 0 0 0 1,-1 1,1 0 0 0 -1,-1 z"
     id="path12" />
  <path
     style="color:#000000;fill:#000000;-inkscape-stroke:none"
     d="m 2,13 a 1,1 0 0 0 -1,1 1,1 0 0 0 1,1 H 3 A 1,1 0 0 0 4,14 1,1 0 0 0 3,13 Z"
     id="path14" />
  <path
     style="color:#000000;fill:#000000;-inkscape-stroke:none"
     d="m 9,10 a 1,1 0 0 0 -0.7070312,0.292969 l -0.8808594,0.880859 a 1,1 0 0 0 0,1.414063 1,1 0 0 0 1.4140625,0 l 0.8808594,-0.88086 a 1,1 0 0 0 0,-1.414062 A 1,1 0 0 0 9,10 Z"
     id="path16" />
  <path
     style="color:#000000;fill:#000000;-inkscape-stroke:none"
     d="m 3.8808594,15.119141 a 1,1 0 0 0 -0.7070313,0.292968 l -0.8808593,0.88086 a 1,1 0 0 0 0,1.414062 1,1 0 0 0 1.4140625,0 l 0.8808593,-0.880859 a 1,1 0 0 0 0,-1.414063 1,1 0 0 0 -0.7070312,-0.292968 z"
     id="path18" />
  <path
     style="color:#000000;fill:#000000;-inkscape-stroke:none"
     d="m 7.4121094,15.412109 a 1,1 0 0 0 0,1.414063 l 0.8808594,0.880859 a 1,1 0 0 0 1.4140625,0 1,1 0 0 0 0,-1.414062 l -0.8808594,-0.88086 a 1,1 0 0 0 -1.4140625,0 z"
     id="path20" />
  <path
     style="color:#000000;fill:#000000;-inkscape-stroke:none"
     d="m 3,10 a 1,1 0 0 0 -0.7070312,0.292969 1,1 0 0 0 0,1.414062 l 0.8808593,0.88086 a 1,1 0 0 0 1.4140625,0 1,1 0 0 0 0,-1.414063 L 3.7070313,10.292969 A 1,1 0 0 0 3,10 Z"
     id="path22" />
</svg>
