<?xml version="1.0" encoding="UTF-8" standalone="no"?>
<svg
   width="24"
   height="24"
   viewBox="0 0 24 24"
   fill="none"
   stroke="currentColor"
   stroke-width="2"
   stroke-linecap="round"
   stroke-linejoin="round"
   version="1.1"
   id="svg20"
   xmlns="http://www.w3.org/2000/svg"
   xmlns:svg="http://www.w3.org/2000/svg">
  <defs
     id="defs24" />
  <path
     style="color:#000000;fill:#000000;-inkscape-stroke:none"
     d="M 6,1 C 4.354992,1 3,2.354992 3,4 v 16 c 0,1.645008 1.354992,3 3,3 h 12 c 1.645008,0 3,-1.354992 3,-3 V 7.5 A 1.0001,1.0001 0 0 0 20.707031,6.7929687 l -5.5,-5.5 A 1.0001,1.0001 0 0 0 14.5,1 Z m 0,2 h 8.085938 L 19,7.9140625 V 20 c 0,0.564129 -0.435871,1 -1,1 H 6 C 5.4358712,21 5,20.564129 5,20 V 4 C 5,3.4358712 5.4358712,3 6,3 Z"
     id="path2" />
  <path
     style="color:#000000;fill:#000000;-inkscape-stroke:none"
     d="m 14,1 a 1,1 0 0 0 -1,1 v 6 a 1.0001,1.0001 0 0 0 1,1 h 6 A 1,1 0 0 0 21,8 1,1 0 0 0 20,7 H 15 V 2 A 1,1 0 0 0 14,1 Z"
     id="polyline4" />
  <path
     style="color:#000000;fill:#000000;-inkscape-stroke:none"
     d="m 12,12 c -1.645008,0 -3,1.354992 -3,3 0,1.645008 1.354992,3 3,3 1.645008,0 3,-1.354992 3,-3 0,-1.645008 -1.354992,-3 -3,-3 z m 0,2 c 0.564129,0 1,0.435871 1,1 0,0.564129 -0.435871,1 -1,1 -0.564129,0 -1,-0.435871 -1,-1 0,-0.564129 0.435871,-1 1,-1 z"
     id="circle6" />
  <path
     style="color:#000000;fill:#000000;-inkscape-stroke:none"
     d="m 12,11 a 1,1 0 0 0 -1,1 v 1 a 1,1 0 0 0 1,1 1,1 0 0 0 1,-1 v -1 a 1,1 0 0 0 -1,-1 z"
     id="path8" />
  <path
     style="color:#000000;fill:#000000;-inkscape-stroke:none"
     d="m 12,16 a 1,1 0 0 0 -1,1 v 1 a 1,1 0 0 0 1,1 1,1 0 0 0 1,-1 v -1 a 1,1 0 0 0 -1,-1 z"
     id="path10" />
  <path
     style="color:#000000;fill:#000000;-inkscape-stroke:none"
     d="m 14.861328,12.535156 a 1,1 0 0 0 -0.759765,0.09766 l -0.869141,0.5 a 1,1 0 0 0 -0.369141,1.365234 1,1 0 0 0 1.365235,0.369141 l 0.86914,-0.5 a 1,1 0 0 0 0.369141,-1.365235 1,1 0 0 0 -0.605469,-0.466797 z"
     id="path12" />
  <path
     style="color:#000000;fill:#000000;-inkscape-stroke:none"
     d="m 10.53125,15.035156 a 1,1 0 0 0 -0.7597656,0.09766 l -0.8691406,0.5 a 1,1 0 0 0 -0.3691407,1.365234 1,1 0 0 0 1.3652344,0.36914 l 0.8691405,-0.5 a 1,1 0 0 0 0.369141,-1.365234 1,1 0 0 0 -0.605469,-0.466797 z"
     id="path14" />
  <path
     style="color:#000000;fill:#000000;-inkscape-stroke:none"
     d="m 13.46875,15.035156 a 1,1 0 0 0 -0.605469,0.466797 1,1 0 0 0 0.369141,1.365234 l 0.869141,0.5 a 1,1 0 0 0 1.365234,-0.36914 1,1 0 0 0 -0.369141,-1.365234 l -0.86914,-0.5 a 1,1 0 0 0 -0.759766,-0.09766 z"
     id="path16" />
  <path
     style="color:#000000;fill:#000000;-inkscape-stroke:none"
     d="m 9.1386719,12.535156 a 1,1 0 0 0 -0.6054688,0.466797 1,1 0 0 0 0.3691407,1.365235 l 0.8691406,0.5 a 1,1 0 0 0 1.3652346,-0.369141 1,1 0 0 0 -0.369141,-1.365234 l -0.8691405,-0.5 a 1,1 0 0 0 -0.7597656,-0.09766 z"
     id="path18" />
</svg>
