<?xml version="1.0" encoding="UTF-8" standalone="no"?>
<svg
   width="24"
   height="24"
   viewBox="0 0 24 24"
   fill="none"
   stroke="currentColor"
   stroke-width="2"
   stroke-linecap="round"
   stroke-linejoin="round"
   version="1.1"
   id="svg10"
   xmlns="http://www.w3.org/2000/svg"
   xmlns:svg="http://www.w3.org/2000/svg">
  <defs
     id="defs14" />
  <path
     style="color:#000000;fill:#000000;-inkscape-stroke:none"
     d="m 16,1 a 1,1 0 0 0 -1,1 v 5 a 1.0001,1.0001 0 0 0 1,1 h 5 A 1,1 0 0 0 22,7 1,1 0 0 0 21,6 H 17 V 2 A 1,1 0 0 0 16,1 Z"
     id="path2" />
  <path
     style="color:#000000;fill:#000000;-inkscape-stroke:none"
     d="M 12.5,1 C 11.116668,1 10,2.1166681 10,3.5 v 9 c 0,1.383332 1.116668,2.5 2.5,2.5 h 7 C 20.883332,15 22,13.883332 22,12.5 V 6 A 1.0001,1.0001 0 0 0 21.707031,5.2929687 l -4,-4 A 1.0001,1.0001 0 0 0 17,1 Z m 0,2 h 4.085937 L 20,6.4140625 V 12.5 c 0,0.216666 -0.283334,0.5 -0.5,0.5 h -7 C 12.283334,13 12,12.716666 12,12.5 v -9 C 12,3.2833335 12.283334,3 12.5,3 Z"
     id="path4" />
  <path
     style="color:#000000;fill:#000000;-inkscape-stroke:none"
     d="M 7,7 A 1,1 0 0 0 6,8 v 8.800781 c 0,0.744444 0.3755086,1.188009 0.6933594,1.50586 C 7.0112102,18.624491 7.454775,19 8.1992188,19 H 15 a 1,1 0 0 0 1,-1 1,1 0 0 0 -1,-1 H 8.1992188 c 0.1444443,0 -0.00965,-0.02527 -0.091797,-0.107422 C 8.0252731,16.810429 8,16.656337 8,16.800781 V 8 A 1,1 0 0 0 7,7 Z"
     id="path6" />
  <path
     style="color:#000000;fill:#000000;-inkscape-stroke:none"
     d="m 3,11 a 1,1 0 0 0 -1,1 v 8.800781 c 0,0.744444 0.3755086,1.188009 0.6933594,1.50586 C 3.0112102,22.624491 3.454775,23 4.1992187,23 H 11 a 1,1 0 0 0 1,-1 1,1 0 0 0 -1,-1 H 4.1992187 c 0.1444444,0 -0.00965,-0.02527 -0.091797,-0.107422 C 4.0252731,20.810429 4,20.656337 4,20.800781 V 12 A 1,1 0 0 0 3,11 Z"
     id="path8" />
</svg>
