<?xml version="1.0" encoding="UTF-8" standalone="no"?>
<svg
   width="24"
   height="24"
   viewBox="0 0 24 24"
   fill="none"
   stroke="currentColor"
   stroke-width="2"
   stroke-linecap="round"
   stroke-linejoin="round"
   version="1.1"
   id="svg10"
   xmlns="http://www.w3.org/2000/svg"
   xmlns:svg="http://www.w3.org/2000/svg">
  <defs
     id="defs14" />
  <path
     style="color:#000000;fill:#000000;-inkscape-stroke:none"
     d="M 6,1 C 4.354992,1 3,2.354992 3,4 V 7 A 1,1 0 0 0 4,8 1,1 0 0 0 5,7 V 4 C 5,3.4358712 5.4358712,3 6,3 h 8.085938 L 19,7.9140625 V 20 c 0,0.564129 -0.435871,1 -1,1 h -2 a 1,1 0 0 0 -1,1 1,1 0 0 0 1,1 h 2 c 1.645008,0 3,-1.354992 3,-3 V 7.5 A 1.0001,1.0001 0 0 0 20.707031,6.7929687 l -5.5,-5.5 A 1.0001,1.0001 0 0 0 14.5,1 Z"
     id="path2" />
  <path
     style="color:#000000;fill:#000000;-inkscape-stroke:none"
     d="m 14,1 a 1,1 0 0 0 -1,1 v 6 a 1.0001,1.0001 0 0 0 1,1 h 6 A 1,1 0 0 0 21,8 1,1 0 0 0 20,7 H 15 V 2 A 1,1 0 0 0 14,1 Z"
     id="polyline4" />
  <path
     style="color:#000000;fill:#000000;-inkscape-stroke:none"
     d="m 4.1035156,10.712891 a 1,1 0 0 0 -0.7246093,0.246093 c -2.94154143,2.590084 -3.09801629,7.156889 -0.3417969,9.94336 2.7562193,2.78647 7.3232756,2.680672 9.9453126,-0.232422 a 1,1 0 0 0 -0.07422,-1.414063 1,1 0 0 0 -1.412109,0.07422 C 9.6245713,21.409347 6.4262817,21.484983 4.4589844,19.496094 2.491687,17.507204 2.6015982,14.309652 4.7011719,12.460938 a 1,1 0 0 0 0.089844,-1.41211 1,1 0 0 0 -0.6875,-0.335937 z"
     id="path6" />
  <path
     style="color:#000000;fill:#000000;-inkscape-stroke:none"
     d="M 8,9.1699219 A 1.0001,1.0001 0 0 0 7,10.169922 V 16 a 1.0001,1.0001 0 0 0 1,1 h 5.830078 a 1.0001,1.0001 0 0 0 1,-1 C 14.830078,12.239744 11.760256,9.1699219 8,9.1699219 Z M 9,11.371094 C 10.844533,11.769309 12.230691,13.155467 12.628906,15 H 9 Z"
     id="path8" />
</svg>
