<?xml version="1.0" encoding="UTF-8" standalone="no"?>
<svg
   width="24"
   height="24"
   viewBox="0 0 24 24"
   fill="none"
   stroke="currentColor"
   stroke-width="2"
   stroke-linecap="round"
   stroke-linejoin="round"
   version="1.1"
   id="svg10"
   xmlns="http://www.w3.org/2000/svg"
   xmlns:svg="http://www.w3.org/2000/svg">
  <defs
     id="defs14" />
  <path
     style="color:#000000;fill:#000000;-inkscape-stroke:none"
     d="M 6,1 C 4.354992,1 3,2.354992 3,4 V 8 A 1,1 0 0 0 4,9 1,1 0 0 0 5,8 V 4 C 5,3.4358712 5.4358712,3 6,3 h 8.085938 L 19,7.9140625 V 20 c 0,0.564129 -0.435871,1 -1,1 H 4 a 1,1 0 0 0 -1,1 1,1 0 0 0 1,1 h 14 c 1.645008,0 3,-1.354992 3,-3 V 7.5 A 1.0001,1.0001 0 0 0 20.707031,6.7929687 l -5.5,-5.5 A 1.0001,1.0001 0 0 0 14.5,1 Z"
     id="path2" />
  <path
     style="color:#000000;fill:#000000;-inkscape-stroke:none"
     d="m 14,1 a 1,1 0 0 0 -1,1 v 6 a 1.0001,1.0001 0 0 0 1,1 h 6 A 1,1 0 0 0 21,8 1,1 0 0 0 20,7 H 15 V 2 A 1,1 0 0 0 14,1 Z"
     id="polyline4" />
  <path
     style="color:#000000;fill:#000000;-inkscape-stroke:none"
     d="m 14.484375,11.125 a 1.0001,1.0001 0 0 0 -1.013672,0.02734 l -3.9999999,2.5 A 1,1 0 0 0 9.1464844,15 1,1 0 0 0 9.4707031,16.347656 l 3.9999999,2.5 A 1.0001,1.0001 0 0 0 15,18 V 12 A 1.0001,1.0001 0 0 0 14.484375,11.125 Z M 13,13.802734 v 2.394532 L 11.085938,15 Z"
     id="path6" />
  <path
     style="color:#000000;fill:#000000;-inkscape-stroke:none"
     d="m 3,11 c -1.0907017,0 -2,0.909298 -2,2 v 4 c 0,1.090702 0.9092983,2 2,2 h 6 c 1.090702,0 2,-0.909298 2,-2 v -4 c 0,-1.090702 -0.909298,-2 -2,-2 z m 0,2 h 6 v 4 H 3 Z"
     id="rect8" />
</svg>
