<?xml version="1.0" encoding="UTF-8" standalone="no"?>
<svg
   width="24"
   height="24"
   viewBox="0 0 24 24"
   fill="none"
   stroke="currentColor"
   stroke-width="2"
   stroke-linecap="round"
   stroke-linejoin="round"
   version="1.1"
   id="svg14"
   xmlns="http://www.w3.org/2000/svg"
   xmlns:svg="http://www.w3.org/2000/svg">
  <defs
     id="defs18" />
  <path
     style="color:#000000;fill:#000000;-inkscape-stroke:none"
     d="M 6,1 C 4.354992,1 3,2.354992 3,4 v 16 c 0,1.645453 1.3545471,3 3,3 h 4.5 a 1,1 0 0 0 1,-1 1,1 0 0 0 -1,-1 H 6 C 5.4454551,21 5,20.554545 5,20 V 4 C 5,3.4358712 5.4358712,3 6,3 h 8.085938 L 19,7.9140625 V 10 a 1,1 0 0 0 1,1 1,1 0 0 0 1,-1 V 7.5 A 1.0001,1.0001 0 0 0 20.707031,6.7929687 l -5.5,-5.5 A 1.0001,1.0001 0 0 0 14.5,1 Z"
     id="path2" />
  <path
     style="color:#000000;fill:#000000;-inkscape-stroke:none"
     d="m 14,1 a 1,1 0 0 0 -1,1 v 6 a 1.0001,1.0001 0 0 0 1,1 h 6 A 1,1 0 0 0 21,8 1,1 0 0 0 20,7 H 15 V 2 A 1,1 0 0 0 14,1 Z"
     id="polyline4" />
  <path
     style="color:#000000;fill:#000000;-inkscape-stroke:none"
     d="m 14,19 a 1,1 0 0 0 -1,1 c 0,1.645008 1.354992,3 3,3 a 1,1 0 0 0 1,-1 1,1 0 0 0 -1,-1 c -0.564129,0 -1,-0.435871 -1,-1 a 1,1 0 0 0 -1,-1 z"
     id="path6" />
  <path
     style="color:#000000;fill:#000000;-inkscape-stroke:none"
     d="m 22,19 a 1,1 0 0 0 -1,1 c 0,0.564129 -0.435871,1 -1,1 a 1,1 0 0 0 -1,1 1,1 0 0 0 1,1 c 1.645008,0 3,-1.354992 3,-3 a 1,1 0 0 0 -1,-1 z"
     id="path8" />
  <path
     style="color:#000000;fill:#000000;-inkscape-stroke:none"
     d="m 20,13 a 1,1 0 0 0 -1,1 1,1 0 0 0 1,1 c 0.564129,0 1,0.435871 1,1 a 1,1 0 0 0 1,1 1,1 0 0 0 1,-1 c 0,-1.645008 -1.354992,-3 -3,-3 z"
     id="path10" />
  <path
     style="color:#000000;fill:#000000;-inkscape-stroke:none"
     d="m 16,13 c -1.645008,0 -3,1.354992 -3,3 a 1,1 0 0 0 1,1 1,1 0 0 0 1,-1 c 0,-0.564129 0.435871,-1 1,-1 a 1,1 0 0 0 1,-1 1,1 0 0 0 -1,-1 z"
     id="path12" />
</svg>
