<?xml version="1.0" encoding="UTF-8" standalone="no"?>
<svg
   width="24"
   height="24"
   viewBox="0 0 24 24"
   fill="none"
   stroke="currentColor"
   stroke-width="2"
   stroke-linecap="round"
   stroke-linejoin="round"
   version="1.1"
   id="svg10"
   xmlns="http://www.w3.org/2000/svg"
   xmlns:svg="http://www.w3.org/2000/svg">
  <defs
     id="defs14" />
  <path
     style="color:#000000;fill:#000000;-inkscape-stroke:none"
     d="M 6,1 C 4.354992,1 3,2.354992 3,4 V 7 A 1,1 0 0 0 4,8 1,1 0 0 0 5,7 V 4 C 5,3.4358712 5.4358712,3 6,3 h 8.085938 L 19,7.9140625 V 20 c 0,0.564129 -0.435871,1 -1,1 H 4 a 1,1 0 0 0 -1,1 1,1 0 0 0 1,1 h 14 c 1.645008,0 3,-1.354992 3,-3 V 7.5 A 1.0001,1.0001 0 0 0 20.707031,6.7929687 l -5.5,-5.5 A 1.0001,1.0001 0 0 0 14.5,1 Z"
     id="path2" />
  <path
     style="color:#000000;fill:#000000;-inkscape-stroke:none"
     d="m 14,1 a 1,1 0 0 0 -1,1 v 6 a 1.0001,1.0001 0 0 0 1,1 h 6 A 1,1 0 0 0 21,8 1,1 0 0 0 20,7 H 15 V 2 A 1,1 0 0 0 14,1 Z"
     id="polyline4" />
  <path
     style="color:#000000;fill:#000000;-inkscape-stroke:none"
     d="M 7.4726562,9.1191406 A 1.0001,1.0001 0 0 0 6.4453125,9.1679688 L 3.6972656,11 H 2 a 1.0001,1.0001 0 0 0 -1,1 v 4 a 1.0001,1.0001 0 0 0 1,1 h 1.6972656 l 2.7480469,1.832031 A 1.0001,1.0001 0 0 0 8,18 V 10 A 1.0001,1.0001 0 0 0 7.4726562,9.1191406 Z M 6,11.869141 v 4.261718 L 4.5546875,15.167969 A 1.0001,1.0001 0 0 0 4,15 H 3 v -2 h 1 a 1.0001,1.0001 0 0 0 0.5546875,-0.167969 z"
     id="path6" />
  <path
     style="color:#000000;fill:#000000;-inkscape-stroke:none"
     d="M 10.375,10.21875 A 1,1 0 0 0 10.21875,11.625 C 10.701306,12.228195 11,13.08239 11,14 c 0,0.91761 -0.298694,1.771805 -0.78125,2.375 A 1,1 0 0 0 10.375,17.78125 1,1 0 0 0 11.78125,17.625 C 12.578693,16.628197 13,15.342388 13,14 13,12.657612 12.578693,11.371803 11.78125,10.375 A 1,1 0 0 0 10.375,10.21875 Z"
     id="path8" />
</svg>
