<?xml version="1.0" encoding="UTF-8" standalone="no"?>
<svg
   width="24"
   height="24"
   viewBox="0 0 24 24"
   fill="none"
   stroke="currentColor"
   stroke-width="2"
   stroke-linecap="round"
   stroke-linejoin="round"
   version="1.1"
   id="svg8"
   xmlns="http://www.w3.org/2000/svg"
   xmlns:svg="http://www.w3.org/2000/svg">
  <defs
     id="defs12" />
  <path
     style="color:#000000;fill:#000000;-inkscape-stroke:none"
     d="M 6,1 C 4.354992,1 3,2.354992 3,4 v 16 c 0,1.645008 1.354992,3 3,3 h 12 c 1.645008,0 3,-1.354992 3,-3 v -0.5 a 1,1 0 0 0 -1,-1 1,1 0 0 0 -1,1 V 20 c 0,0.564129 -0.435871,1 -1,1 H 6 C 5.4358712,21 5,20.564129 5,20 V 4 C 5,3.4358712 5.4358712,3 6,3 h 8.085938 l 3.207031,3.2070312 a 1,1 0 0 0 1.414062,0 1,1 0 0 0 0,-1.4140625 l -3.5,-3.5 A 1.0001,1.0001 0 0 0 14.5,1 Z"
     id="path2" />
  <path
     style="color:#000000;fill:#000000;-inkscape-stroke:none"
     d="m 8,17 a 1,1 0 0 0 -1,1 1,1 0 0 0 1,1 h 1 a 1,1 0 0 0 1,-1 1,1 0 0 0 -1,-1 z"
     id="path4" />
  <path
     style="color:#000000;fill:#000000;-inkscape-stroke:none"
     d="m 20.056641,7.9628906 c -0.801323,-0.047137 -1.671974,0.2676772 -2.34375,0.9394532 a 1.0001,1.0001 0 0 0 0,0.00195 L 13.28125,13.34375 a 1.0001,1.0001 0 0 0 -0.261719,0.462891 l -0.990234,3.951171 a 1.0001,1.0001 0 0 0 1.216797,1.210938 l 3.949218,-1 a 1.0001,1.0001 0 0 0 0.460938,-0.259766 l 4.439453,-4.419921 a 1.0001,1.0001 0 0 0 0.002,-0.002 c 0.671776,-0.671776 0.98659,-1.542427 0.939453,-2.34375 C 22.989973,10.142037 22.62604,9.430728 22.097656,8.9023438 21.569272,8.3739595 20.857963,8.0100274 20.056641,7.9628906 Z m -0.117188,1.9960938 c 0.250551,0.014738 0.530026,0.1433066 0.744141,0.3574216 0.214115,0.214115 0.342683,0.49359 0.357422,0.744141 0.01471,0.250046 -0.0409,0.493266 -0.357422,0.810547 l -4.244141,4.226562 -2.0625,0.523438 0.515625,-2.060547 4.234375,-4.244141 c 0.318223,-0.3182225 0.561949,-0.37216 0.8125,-0.3574216 z"
     id="path6" />
</svg>
