<?xml version="1.0" encoding="UTF-8" standalone="no"?>
<svg
   width="24"
   height="24"
   viewBox="0 0 24 24"
   fill="none"
   stroke="currentColor"
   stroke-width="2"
   stroke-linecap="round"
   stroke-linejoin="round"
   version="1.1"
   id="svg10"
   xmlns="http://www.w3.org/2000/svg"
   xmlns:svg="http://www.w3.org/2000/svg">
  <defs
     id="defs14" />
  <path
     style="color:#000000;fill:#000000;-inkscape-stroke:none"
     d="M 6,1 C 4.354992,1 3,2.354992 3,4 V 8 A 1,1 0 0 0 4,9 1,1 0 0 0 5,8 V 4 C 5,3.4358712 5.4358712,3 6,3 h 8.085938 L 19,7.9140625 V 20 c 0,0.564129 -0.435871,1 -1,1 H 4 a 1,1 0 0 0 -1,1 1,1 0 0 0 1,1 h 14 c 1.645008,0 3,-1.354992 3,-3 V 7.5 A 1.0001,1.0001 0 0 0 20.707031,6.7929687 l -5.5,-5.5 A 1.0001,1.0001 0 0 0 14.5,1 Z"
     id="path2" />
  <path
     style="color:#000000;fill:#000000;-inkscape-stroke:none"
     d="m 14,1 a 1,1 0 0 0 -1,1 v 6 a 1.0001,1.0001 0 0 0 1,1 h 6 A 1,1 0 0 0 21,8 1,1 0 0 0 20,7 H 15 V 2 A 1,1 0 0 0 14,1 Z"
     id="polyline4" />
  <path
     style="color:#000000;fill:#000000;-inkscape-stroke:none"
     d="m 4,11 c -1.0927238,0 -2,0.907276 -2,2 v 1 a 1.0001,1.0001 0 0 0 0,2 v 1 c 0,1.092724 0.9072762,2 2,2 A 1,1 0 0 0 5,18 1,1 0 0 0 4,17 V 16 C 4,15.612596 3.7779401,15.30862 3.5820313,15 3.7779401,14.69138 4,14.387404 4,14 V 13 A 1,1 0 0 0 5,12 1,1 0 0 0 4,11 Z"
     id="path6" />
  <path
     style="color:#000000;fill:#000000;-inkscape-stroke:none"
     d="m 8,11 a 1,1 0 0 0 -1,1 1,1 0 0 0 1,1 v 1 c 0,0.387404 0.2220599,0.69138 0.4179688,1 C 8.2220599,15.30862 8,15.612596 8,16 v 1 a 1,1 0 0 0 -1,1 1,1 0 0 0 1,1 c 1.0927238,0 2,-0.907276 2,-2 v -1 a 1.0001,1.0001 0 0 0 0,-2 V 13 C 10,11.907276 9.0927238,11 8,11 Z"
     id="path8" />
</svg>
