<?xml version="1.0" encoding="UTF-8" standalone="no"?>
<svg
   width="24"
   height="24"
   viewBox="0 0 24 24"
   fill="none"
   stroke="currentColor"
   stroke-width="2"
   stroke-linecap="round"
   stroke-linejoin="round"
   version="1.1"
   id="svg12"
   xmlns="http://www.w3.org/2000/svg"
   xmlns:svg="http://www.w3.org/2000/svg">
  <defs
     id="defs16" />
  <path
     style="color:#000000;fill:#000000;-inkscape-stroke:none"
     d="M 6,1 C 5.2333341,1 4.4693542,1.315802 3.8925781,1.8925781 3.315802,2.4693542 3,3.2333341 3,4 V 7 A 1,1 0 0 0 4,8 1,1 0 0 0 5,7 V 4 C 5,3.7666669 5.0834175,3.5298637 5.3066406,3.3066406 5.5298637,3.0834175 5.7666669,3 6,3 h 8.085938 L 19,7.9140625 V 20 c 0,0.233333 -0.08342,0.470136 -0.306641,0.693359 C 18.470136,20.916582 18.233333,21 18,21 h -0.5 a 1,1 0 0 0 -1,1 1,1 0 0 0 1,1 H 18 c 0.766666,0 1.530646,-0.315802 2.107422,-0.892578 C 20.684198,21.530646 21,20.766666 21,20 V 7.5 A 1.0001,1.0001 0 0 0 20.707031,6.7929687 l -5.5,-5.5 A 1.0001,1.0001 0 0 0 14.5,1 Z"
     id="path2" />
  <path
     style="color:#000000;fill:#000000;-inkscape-stroke:none"
     d="m 14,1 a 1,1 0 0 0 -1,1 v 6 a 1.0001,1.0001 0 0 0 1,1 h 6 A 1,1 0 0 0 21,8 1,1 0 0 0 20,7 H 15 V 2 A 1,1 0 0 0 14,1 Z"
     id="polyline4" />
  <path
     style="color:#000000;fill:#000000;-inkscape-stroke:none"
     d="M 12,16 C 11.277779,16 10.542119,16.235348 9.9609375,16.751953 9.3797562,17.268559 9,18.083334 9,19 v 1 c 0,0.916666 0.3797562,1.731441 0.9609375,2.248047 C 10.542119,22.764652 11.277779,23 12,23 12.722221,23 13.457881,22.764652 14.039063,22.248047 14.620244,21.731441 15,20.916666 15,20 V 19 C 15,18.083334 14.620244,17.268559 14.039063,16.751953 13.457881,16.235348 12.722221,16 12,16 Z m 0,2 c 0.277778,0 0.54212,0.09799 0.710938,0.248047 C 12.879755,18.398107 13,18.583334 13,19 v 1 c 0,0.416666 -0.120245,0.601893 -0.289062,0.751953 C 12.54212,20.902013 12.277778,21 12,21 11.722222,21 11.45788,20.902013 11.289063,20.751953 11.120245,20.601893 11,20.416666 11,20 v -1 c 0,-0.416666 0.120245,-0.601893 0.289063,-0.751953 C 11.45788,18.097987 11.722222,18 12,18 Z"
     id="path6" />
  <path
     style="color:#000000;fill:#000000;-inkscape-stroke:none"
     d="M 4,16 C 3.2777786,16 2.5421188,16.235348 1.9609375,16.751953 1.3797562,17.268559 1,18.083334 1,19 v 1 c 0,0.916666 0.3797562,1.731441 0.9609375,2.248047 C 2.5421188,22.764652 3.2777786,23 4,23 4.7222214,23 5.4578812,22.764652 6.0390625,22.248047 6.6202438,21.731441 7,20.916666 7,20 V 19 C 7,18.083334 6.6202438,17.268559 6.0390625,16.751953 5.4578812,16.235348 4.7222214,16 4,16 Z m 0,2 c 0.2777776,0 0.5421196,0.09799 0.7109375,0.248047 C 4.8797554,18.398107 5,18.583334 5,19 v 1 C 5,20.416666 4.8797554,20.601893 4.7109375,20.751953 4.5421196,20.902013 4.2777776,21 4,21 3.7222224,21 3.4578804,20.902013 3.2890625,20.751953 3.1202446,20.601893 3,20.416666 3,20 V 19 C 3,18.583334 3.1202446,18.398107 3.2890625,18.248047 3.4578804,18.097987 3.7222224,18 4,18 Z"
     id="path8" />
  <path
     style="color:#000000;fill:#000000;-inkscape-stroke:none"
     d="M 8,9 C 4.1458563,9 1,12.145853 1,16 v 3 a 1,1 0 0 0 1,1 1,1 0 0 0 1,-1 v -3 c 0,-2.773268 2.2267335,-5 5,-5 2.773266,0 5,2.226732 5,5 v 3 a 1,1 0 0 0 1,1 1,1 0 0 0 1,-1 V 16 C 15,12.145853 11.854144,9 8,9 Z"
     id="path10" />
</svg>
