<?xml version="1.0" encoding="UTF-8" standalone="no"?>
<svg
   width="24"
   height="24"
   viewBox="0 0 24 24"
   fill="none"
   stroke="currentColor"
   stroke-width="2"
   stroke-linecap="round"
   stroke-linejoin="round"
   version="1.1"
   id="svg14"
   xmlns="http://www.w3.org/2000/svg"
   xmlns:svg="http://www.w3.org/2000/svg">
  <defs
     id="defs18" />
  <path
     style="color:#000000;fill:#000000;-inkscape-stroke:none"
     d="M 6,1 C 4.354992,1 3,2.354992 3,4 V 8 A 1,1 0 0 0 4,9 1,1 0 0 0 5,8 V 4 C 5,3.4358712 5.4358712,3 6,3 h 8.085938 L 19,7.9140625 V 20 c 0,0.564129 -0.435871,1 -1,1 h -3.5 a 1,1 0 0 0 -1,1 1,1 0 0 0 1,1 H 18 c 1.645008,0 3,-1.354992 3,-3 V 7.5 A 1.0001,1.0001 0 0 0 20.707031,6.7929687 l -5.5,-5.5 A 1.0001,1.0001 0 0 0 14.5,1 Z"
     id="path2" />
  <path
     style="color:#000000;fill:#000000;-inkscape-stroke:none"
     d="m 14,1 a 1,1 0 0 0 -1,1 v 6 a 1.0001,1.0001 0 0 0 1,1 h 6 A 1,1 0 0 0 21,8 1,1 0 0 0 20,7 H 15 V 2 A 1,1 0 0 0 14,1 Z"
     id="polyline4" />
  <path
     style="color:#000000;fill:#000000;-inkscape-stroke:none"
     d="M 7,10 C 6.4613323,10 5.9227712,10.145846 5.4472656,10.4375 L 2.4550781,12.261719 C 1.5482311,12.805827 1,13.796783 1,14.859375 v 3.28125 c 0,1.062592 0.5482311,2.053548 1.4550781,2.597656 l 2.9882813,1.822266 c 0.9521396,0.58942 2.1611416,0.58942 3.1132812,0 L 11.544922,20.738281 C 12.451769,20.194173 13,19.203217 13,18.140625 v -3.28125 c 0,-1.062592 -0.548231,-2.053548 -1.455078,-2.597656 L 8.5527344,10.4375 C 8.0772288,10.145846 7.5386677,10 7,10 Z m -0.5078125,2.142578 c 0.3129165,-0.191929 0.7027085,-0.191929 1.015625,0 a 1.0001,1.0001 0 0 0 0.00195,0.002 l 3.0000004,1.830078 a 1.0001,1.0001 0 0 0 0.0059,0.002 C 10.808777,14.152454 11,14.481968 11,14.859375 v 3.28125 c 0,0.377407 -0.191223,0.706921 -0.484375,0.882812 a 1.0001,1.0001 0 0 0 -0.0059,0.002 l -3.0000004,1.830078 a 1.0001,1.0001 0 0 0 -0.00586,0.0039 c -0.3078591,0.190579 -0.6999533,0.190579 -1.0078125,0 a 1.0001,1.0001 0 0 0 -0.00586,-0.0039 l -3,-1.830078 a 1.0001,1.0001 0 0 0 -0.00586,-0.002 C 3.1912233,18.847546 3,18.518032 3,18.140625 v -3.28125 c 0,-0.377407 0.1912233,-0.706921 0.484375,-0.882812 a 1.0001,1.0001 0 0 0 0.00586,-0.002 l 3,-1.830078 a 1.0001,1.0001 0 0 0 0.00195,-0.002 z"
     id="path6" />
  <path
     style="color:#000000;fill:#000000;-inkscape-stroke:none"
     d="m 2.0175781,13.179688 a 1,1 0 0 0 -0.6152344,0.455078 1,1 0 0 0 0.3417969,1.373047 L 6.484375,17.857422 A 1,1 0 0 0 7.8574219,17.515625 1,1 0 0 0 7.515625,16.142578 L 2.7753906,13.292969 A 1,1 0 0 0 2.0175781,13.179688 Z"
     id="path8" />
  <path
     style="color:#000000;fill:#000000;-inkscape-stroke:none"
     d="m 11.982422,13.179688 a 1,1 0 0 0 -0.757813,0.113281 l -4.740234,2.849609 a 1,1 0 0 0 -0.3417969,1.373047 1,1 0 0 0 1.3730469,0.341797 l 4.740234,-2.849609 a 1,1 0 0 0 0.341797,-1.373047 1,1 0 0 0 -0.615234,-0.455078 z"
     id="path10" />
  <path
     style="color:#000000;fill:#000000;-inkscape-stroke:none"
     d="m 7,16 a 1,1 0 0 0 -1,1 v 5 a 1,1 0 0 0 1,1 1,1 0 0 0 1,-1 V 17 A 1,1 0 0 0 7,16 Z"
     id="path12" />
</svg>
