<?xml version="1.0" encoding="UTF-8" standalone="no"?>
<svg
   width="24"
   height="24"
   viewBox="0 0 24 24"
   fill="none"
   stroke="currentColor"
   stroke-width="2"
   stroke-linecap="round"
   stroke-linejoin="round"
   version="1.1"
   id="svg8"
   xmlns="http://www.w3.org/2000/svg"
   xmlns:svg="http://www.w3.org/2000/svg">
  <defs
     id="defs12" />
  <path
     style="color:#000000;fill:#000000;-inkscape-stroke:none"
     d="M 6,1 C 4.354992,1 3,2.354992 3,4 v 16 c 0,1.645008 1.354992,3 3,3 h 12 c 1.645008,0 3,-1.354992 3,-3 V 7.5 A 1.0001,1.0001 0 0 0 20.707031,6.7929687 l -5.5,-5.5 A 1.0001,1.0001 0 0 0 14.5,1 Z m 0,2 h 8.085938 L 19,7.9140625 V 20 c 0,0.564129 -0.435871,1 -1,1 H 6 C 5.4358712,21 5,20.564129 5,20 V 4 C 5,3.4358712 5.4358712,3 6,3 Z"
     id="path2" />
  <path
     style="color:#000000;fill:#000000;-inkscape-stroke:none"
     d="m 9,11 c -1.0907017,0 -2,0.909298 -2,2 v 4 c 0,1.090702 0.9092983,2 2,2 h 6 c 1.090702,0 2,-0.909298 2,-2 v -4 c 0,-1.090702 -0.909298,-2 -2,-2 z m 0,2 h 6 v 4 H 9 Z"
     id="rect4" />
  <path
     style="color:#000000;fill:#000000;-inkscape-stroke:none"
     d="M 12,6 C 11.027779,6 10.042119,6.3186813 9.2734375,7.0019531 8.5047564,7.685225 8,8.7500016 8,10 v 2 a 1,1 0 0 0 1,1 1,1 0 0 0 1,-1 V 10 C 10,9.2500013 10.245245,8.8147736 10.601563,8.4980469 10.95788,8.1813201 11.472223,8 12,8 12.527777,8 13.04212,8.1813201 13.398438,8.4980469 13.754755,8.8147736 14,9.2500013 14,10 v 2 a 1,1 0 0 0 1,1 1,1 0 0 0 1,-1 V 10 C 16,8.7500016 15.495244,7.685225 14.726563,7.0019531 13.957881,6.3186813 12.972221,6 12,6 Z"
     id="path6" />
</svg>
