<?xml version="1.0" encoding="UTF-8" standalone="no"?>
<svg
   width="24"
   height="24"
   viewBox="0 0 24 24"
   fill="none"
   stroke="currentColor"
   stroke-width="2"
   stroke-linecap="round"
   stroke-linejoin="round"
   version="1.1"
   id="svg10"
   xmlns="http://www.w3.org/2000/svg"
   xmlns:svg="http://www.w3.org/2000/svg">
  <defs
     id="defs14" />
  <path
     style="color:#000000;fill:#000000;-inkscape-stroke:none"
     d="M 6,1 C 4.354992,1 3,2.354992 3,4 v 16 c 0,1.645008 1.354992,3 3,3 h 12 c 1.645008,0 3,-1.354992 3,-3 V 7.5 A 1.0001,1.0001 0 0 0 20.707031,6.7929687 l -5.5,-5.5 A 1.0001,1.0001 0 0 0 14.5,1 Z m 0,2 h 8.085938 L 19,7.9140625 V 20 c 0,0.564129 -0.435871,1 -1,1 H 6 C 5.4358712,21 5,20.564129 5,20 V 4 C 5,3.4358712 5.4358712,3 6,3 Z"
     id="path2" />
  <path
     style="color:#000000;fill:#000000;-inkscape-stroke:none"
     d="m 14,1 a 1,1 0 0 0 -1,1 v 6 a 1.0001,1.0001 0 0 0 1,1 h 6 A 1,1 0 0 0 21,8 1,1 0 0 0 20,7 H 15 V 2 A 1,1 0 0 0 14,1 Z"
     id="polyline4" />
  <path
     style="color:#000000;fill:#000000;-inkscape-stroke:none"
     d="m 10,10 c -1.645008,0 -3,1.354992 -3,3 0,1.645008 1.354992,3 3,3 1.645008,0 3,-1.354992 3,-3 0,-1.645008 -1.354992,-3 -3,-3 z m 0,2 c 0.564129,0 1,0.435871 1,1 0,0.564129 -0.435871,1 -1,1 -0.5641288,0 -1,-0.435871 -1,-1 0,-0.564129 0.4358712,-1 1,-1 z"
     id="circle6" />
  <path
     style="color:#000000;fill:#000000;-inkscape-stroke:none"
     d="m 17.5,14.333984 c -0.767032,0 -1.534301,0.289701 -2.115234,0.867188 a 1.0001,1.0001 0 0 0 -0.002,0.002 l -6.0898442,6.089844 a 1,1 0 0 0 0,1.414062 1,1 0 0 0 1.4140622,0 l 6.087891,-6.08789 0.002,-0.002 c 0.397667,-0.393276 1.008583,-0.393276 1.40625,0 l 1.089844,1.089844 a 1,1 0 0 0 1.414062,0 1,1 0 0 0 0,-1.414062 l -1.089844,-1.089844 a 1.0001,1.0001 0 0 0 -0.002,-0.002 C 19.034301,14.623685 18.267032,14.333984 17.5,14.333984 Z"
     id="path8" />
</svg>
