<?xml version="1.0" encoding="UTF-8" standalone="no"?>
<svg
   width="24"
   height="24"
   viewBox="0 0 24 24"
   fill="none"
   stroke="currentColor"
   stroke-width="2"
   stroke-linecap="round"
   stroke-linejoin="round"
   version="1.1"
   id="svg8"
   xmlns="http://www.w3.org/2000/svg"
   xmlns:svg="http://www.w3.org/2000/svg">
  <defs
     id="defs12" />
  <path
     style="color:#000000;fill:#000000;-inkscape-stroke:none"
     d="M 8.5996094,1 C 7.8662768,1 7.2501031,1.3358344 6.7929687,1.7929687 6.3358344,2.2501031 6,2.8662768 6,3.5996094 V 16.400391 c 0,0.733332 0.3358344,1.349506 0.7929687,1.80664 C 7.2501031,18.664166 7.8662768,19 8.5996094,19 h 9.8007816 c 0.733332,0 1.349506,-0.335834 1.80664,-0.792969 C 20.664166,17.749897 21,17.133723 21,16.400391 V 6.5 A 1.0001,1.0001 0 0 0 20.707031,5.7929687 l -4.5,-4.5 A 1.0001,1.0001 0 0 0 15.5,1 Z m 0,2 H 15.085938 L 19,6.9140625 v 9.4863285 c 0,0.06667 -0.06417,0.249713 -0.207031,0.392578 C 18.650104,16.935834 18.467057,17 18.400391,17 H 8.5996094 C 8.5329428,17 8.3498963,16.935834 8.2070313,16.792969 8.0641662,16.650104 8,16.467057 8,16.400391 V 3.5996094 C 8,3.5329428 8.0641662,3.3498963 8.2070313,3.2070313 8.3498963,3.0641662 8.5329428,3 8.5996094,3 Z"
     id="path2" />
  <path
     style="color:#000000;fill:#000000;-inkscape-stroke:none"
     d="m 3,6.5996094 a 1,1 0 0 0 -1,1 V 20.400391 c 0,0.733332 0.3358344,1.349506 0.7929688,1.80664 C 3.2501031,22.664166 3.8662768,23 4.5996094,23 h 9.8007816 a 1,1 0 0 0 1,-1 1,1 0 0 0 -1,-1 H 4.5996094 C 4.5329428,21 4.3498963,20.935834 4.2070312,20.792969 4.0641662,20.650104 4,20.467057 4,20.400391 V 7.5996094 a 1,1 0 0 0 -1,-1 z"
     id="path4" />
  <path
     style="color:#000000;fill:#000000;-inkscape-stroke:none"
     d="m 15,1 a 1,1 0 0 0 -1,1 v 5 a 1.0001,1.0001 0 0 0 1,1 h 5 A 1,1 0 0 0 21,7 1,1 0 0 0 20,6 H 16 V 2 A 1,1 0 0 0 15,1 Z"
     id="path6" />
</svg>
