<?xml version="1.0" encoding="UTF-8" standalone="no"?>
<svg
   width="24"
   height="24"
   viewBox="0 0 24 24"
   fill="none"
   stroke="currentColor"
   stroke-width="2"
   stroke-linecap="round"
   stroke-linejoin="round"
   version="1.1"
   id="svg10"
   xmlns="http://www.w3.org/2000/svg"
   xmlns:svg="http://www.w3.org/2000/svg">
  <defs
     id="defs14" />
  <path
     style="color:#000000;fill:#000000;-inkscape-stroke:none"
     d="M 6,1 C 5.2333341,1 4.4693542,1.315802 3.8925781,1.8925781 3.315802,2.4693542 3,3.2333341 3,4 V 7 A 1,1 0 0 0 4,8 1,1 0 0 0 5,7 V 4 C 5,3.7666669 5.0834175,3.5298637 5.3066406,3.3066406 5.5298637,3.0834175 5.7666669,3 6,3 h 8.085938 L 19,7.9140625 V 20 c 0,0.233333 -0.08342,0.470136 -0.306641,0.693359 C 18.470136,20.916582 18.233333,21 18,21 h -2 a 1,1 0 0 0 -1,1 1,1 0 0 0 1,1 h 2 c 0.766666,0 1.530646,-0.315802 2.107422,-0.892578 C 20.684198,21.530646 21,20.766666 21,20 V 7.5 A 1.0001,1.0001 0 0 0 20.707031,6.7929687 l -5.5,-5.5 A 1.0001,1.0001 0 0 0 14.5,1 Z"
     id="path2" />
  <path
     style="color:#000000;fill:#000000;-inkscape-stroke:none"
     d="m 14,1 a 1,1 0 0 0 -1,1 v 6 a 1.0001,1.0001 0 0 0 1,1 h 6 A 1,1 0 0 0 21,8 1,1 0 0 0 20,7 H 15 V 2 A 1,1 0 0 0 14,1 Z"
     id="polyline4" />
  <path
     style="color:#000000;fill:#000000;-inkscape-stroke:none"
     d="m 8,9 c -3.8541448,0 -7,3.145855 -7,7 0,3.854145 3.1458552,7 7,7 3.854145,0 7,-3.145855 7,-7 0,-3.854145 -3.145855,-7 -7,-7 z m 0,2 c 2.773266,0 5,2.226734 5,5 0,2.773266 -2.226734,5 -5,5 -2.7732656,0 -5,-2.226734 -5,-5 0,-2.773266 2.2267344,-5 5,-5 z"
     id="circle6" />
  <path
     style="color:#000000;fill:#000000;-inkscape-stroke:none"
     d="m 8,13 a 1,1 0 0 0 -1,1 v 2.25 a 1.0001,1.0001 0 0 0 0.359375,0.767578 l 1.5,1.25 a 1,1 0 0 0 1.408203,-0.126953 1,1 0 0 0 -0.126953,-1.408203 L 9,15.78125 V 14 A 1,1 0 0 0 8,13 Z"
     id="path8" />
</svg>
