<?xml version="1.0" encoding="UTF-8" standalone="no"?>
<svg
   width="24"
   height="24"
   viewBox="0 0 24 24"
   fill="none"
   stroke="currentColor"
   stroke-width="2"
   stroke-linecap="round"
   stroke-linejoin="round"
   version="1.1"
   id="svg12"
   xmlns="http://www.w3.org/2000/svg"
   xmlns:svg="http://www.w3.org/2000/svg">
  <defs
     id="defs16" />
  <path
     style="color:#000000;fill:#000000;-inkscape-stroke:none"
     d="M 6,1 C 4.354992,1 3,2.354992 3,4 v 16 c 0,1.645008 1.354992,3 3,3 h 12 c 1.645008,0 3,-1.354992 3,-3 V 7.5 A 1.0001,1.0001 0 0 0 20.707031,6.7929687 l -5.5,-5.5 A 1.0001,1.0001 0 0 0 14.5,1 Z m 0,2 h 8.085938 L 19,7.9140625 V 20 c 0,0.564129 -0.435871,1 -1,1 H 6 C 5.4358712,21 5,20.564129 5,20 V 4 C 5,3.4358712 5.4358712,3 6,3 Z"
     id="path2" />
  <path
     style="color:#000000;fill:#000000;-inkscape-stroke:none"
     d="m 14,1 a 1,1 0 0 0 -1,1 v 6 a 1.0001,1.0001 0 0 0 1,1 h 6 A 1,1 0 0 0 21,8 1,1 0 0 0 20,7 H 15 V 2 A 1,1 0 0 0 14,1 Z"
     id="polyline4" />
  <path
     style="color:#000000;fill:#000000;-inkscape-stroke:none"
     d="M 10.875,12.71875 A 1,1 0 0 0 10.71875,14.125 C 10.878767,14.325021 11,14.654286 11,15 c 0,0.345714 -0.121233,0.674979 -0.28125,0.875 A 1,1 0 0 0 10.875,17.28125 1,1 0 0 0 12.28125,17.125 C 12.761232,16.525022 13,15.774285 13,15 13,14.225715 12.761232,13.474978 12.28125,12.875 A 1,1 0 0 0 10.875,12.71875 Z"
     id="path6" />
  <path
     style="color:#000000;fill:#000000;-inkscape-stroke:none"
     d="M 14.375,11.21875 A 1,1 0 0 0 14.21875,12.625 C 14.701306,13.228195 15,14.08239 15,15 c 0,0.91761 -0.298694,1.771805 -0.78125,2.375 A 1,1 0 0 0 14.375,18.78125 1,1 0 0 0 15.78125,18.625 C 16.578693,17.628197 17,16.342388 17,15 17,13.657612 16.578693,12.371803 15.78125,11.375 A 1,1 0 0 0 14.375,11.21875 Z"
     id="path8" />
  <path
     style="color:#000000;fill:#000000;-inkscape-stroke:none"
     d="m 8,14 a 1,1 0 0 0 -1,1 1,1 0 0 0 1,1 h 0.00977 a 1,1 0 0 0 1,-1 1,1 0 0 0 -1,-1 z"
     id="path10" />
</svg>
