<?xml version="1.0" encoding="UTF-8" standalone="no"?>
<svg
   width="24"
   height="24"
   viewBox="0 0 24 24"
   fill="none"
   stroke="currentColor"
   stroke-width="2"
   stroke-linecap="round"
   stroke-linejoin="round"
   version="1.1"
   id="svg18"
   xmlns="http://www.w3.org/2000/svg"
   xmlns:svg="http://www.w3.org/2000/svg">
  <defs
     id="defs22" />
  <path
     style="color:#000000;fill:#000000;-inkscape-stroke:none"
     d="M 4.1796875,1 C 2.4352664,1 1,2.4352664 1,4.1796875 V 19.820312 C 1,21.564734 2.4352664,23 4.1796875,23 H 19.820312 C 21.564734,23 23,21.564734 23,19.820312 V 4.1796875 C 23,2.4352664 21.564734,1 19.820312,1 Z m 0,2 H 19.820312 C 20.491329,3 21,3.5086709 21,4.1796875 V 19.820312 C 21,20.491329 20.491329,21 19.820312,21 H 4.1796875 C 3.5086709,21 3,20.491329 3,19.820312 V 4.1796875 C 3,3.5086709 3.5086709,3 4.1796875,3 Z"
     id="rect2" />
  <path
     style="color:#000000;fill:#000000;-inkscape-stroke:none"
     d="M 7,1 A 1,1 0 0 0 6,2 v 20 a 1,1 0 0 0 1,1 1,1 0 0 0 1,-1 V 2 A 1,1 0 0 0 7,1 Z"
     id="line4" />
  <path
     style="color:#000000;fill:#000000;-inkscape-stroke:none"
     d="m 17,1 a 1,1 0 0 0 -1,1 v 20 a 1,1 0 0 0 1,1 1,1 0 0 0 1,-1 V 2 A 1,1 0 0 0 17,1 Z"
     id="line6" />
  <path
     style="color:#000000;fill:#000000;-inkscape-stroke:none"
     d="m 2,11 a 1,1 0 0 0 -1,1 1,1 0 0 0 1,1 h 20 a 1,1 0 0 0 1,-1 1,1 0 0 0 -1,-1 z"
     id="line8" />
  <path
     style="color:#000000;fill:#000000;-inkscape-stroke:none"
     d="M 2,6 A 1,1 0 0 0 1,7 1,1 0 0 0 2,8 H 7 A 1,1 0 0 0 8,7 1,1 0 0 0 7,6 Z"
     id="line10" />
  <path
     style="color:#000000;fill:#000000;-inkscape-stroke:none"
     d="m 2,16 a 1,1 0 0 0 -1,1 1,1 0 0 0 1,1 H 7 A 1,1 0 0 0 8,17 1,1 0 0 0 7,16 Z"
     id="line12" />
  <path
     style="color:#000000;fill:#000000;-inkscape-stroke:none"
     d="m 17,16 a 1,1 0 0 0 -1,1 1,1 0 0 0 1,1 h 5 a 1,1 0 0 0 1,-1 1,1 0 0 0 -1,-1 z"
     id="line14" />
  <path
     style="color:#000000;fill:#000000;-inkscape-stroke:none"
     d="m 17,6 a 1,1 0 0 0 -1,1 1,1 0 0 0 1,1 h 5 A 1,1 0 0 0 23,7 1,1 0 0 0 22,6 Z"
     id="line16" />
</svg>
