<?xml version="1.0" encoding="UTF-8" standalone="no"?>
<svg
   width="24"
   height="24"
   viewBox="0 0 24 24"
   fill="none"
   stroke="currentColor"
   stroke-width="2"
   stroke-linecap="round"
   stroke-linejoin="round"
   version="1.1"
   id="svg8"
   xmlns="http://www.w3.org/2000/svg"
   xmlns:svg="http://www.w3.org/2000/svg">
  <defs
     id="defs12" />
  <path
     style="color:#000000;fill:#000000;-inkscape-stroke:none"
     d="M 2,2 A 1.0001,1.0001 0 0 0 1.2363281,3.6464844 L 9,12.826172 V 19 a 1.0001,1.0001 0 0 0 0.5527344,0.894531 l 3.9999996,2 A 1.0001,1.0001 0 0 0 15,21 v -8.171875 l 0.660156,-0.773437 a 1,1 0 0 0 -0.111328,-1.410157 1,1 0 0 0 -1.410156,0.111328 l -0.900391,1.054688 A 1.0001,1.0001 0 0 0 13,12.460938 v 6.921874 l -2,-1 V 12.460938 A 1.0001,1.0001 0 0 0 10.763672,11.814453 L 4.15625,4 h 8.857422 a 1,1 0 0 0 1,-1 1,1 0 0 0 -1,-1 z"
     id="path2" />
  <path
     style="color:#000000;fill:#000000;-inkscape-stroke:none"
     d="m 21.292969,2.2929688 -5,4.9999999 a 1,1 0 0 0 0,1.4140626 1,1 0 0 0 1.414062,0 l 5,-5 a 1,1 0 0 0 0,-1.4140625 1,1 0 0 0 -1.414062,0 z"
     id="path4" />
  <path
     style="color:#000000;fill:#000000;-inkscape-stroke:none"
     d="m 16.292969,2.2929688 a 1,1 0 0 0 0,1.4140625 l 5,5 a 1,1 0 0 0 1.414062,0 1,1 0 0 0 0,-1.4140626 l -5,-4.9999999 a 1,1 0 0 0 -1.414062,0 z"
     id="path6" />
</svg>
