<?xml version="1.0" encoding="UTF-8" standalone="no"?>
<svg
   width="24"
   height="24"
   viewBox="0 0 24 24"
   fill="none"
   stroke="currentColor"
   stroke-width="2"
   stroke-linecap="round"
   stroke-linejoin="round"
   version="1.1"
   id="svg4"
   xmlns="http://www.w3.org/2000/svg"
   xmlns:svg="http://www.w3.org/2000/svg">
  <defs
     id="defs8" />
  <path
     style="color:#000000;fill:#000000;-inkscape-stroke:none"
     d="M 2,2 A 1.0001,1.0001 0 0 0 1.2363281,3.6464844 L 9,12.826172 V 19 a 1.0001,1.0001 0 0 0 0.5527344,0.894531 l 3.9999996,2 A 1.0001,1.0001 0 0 0 15,21 V 12.826172 L 22.763672,3.6464844 A 1.0001,1.0001 0 0 0 22,2 Z m 2.15625,2 h 15.6875 l -6.607422,7.814453 A 1.0001,1.0001 0 0 0 13,12.460938 v 6.921874 l -2,-1 v -5.921874 a 1.0001,1.0001 0 0 0 -0.236328,-0.646485 z"
     id="polygon2" />
</svg>
