<?xml version="1.0" encoding="UTF-8" standalone="no"?>
<svg
   width="24"
   height="24"
   viewBox="0 0 24 24"
   fill="none"
   stroke="currentColor"
   stroke-width="2"
   stroke-linecap="round"
   stroke-linejoin="round"
   version="1.1"
   id="svg20"
   xmlns="http://www.w3.org/2000/svg"
   xmlns:svg="http://www.w3.org/2000/svg">
  <defs
     id="defs24" />
  <path
     style="color:#000000;fill:#000000;-inkscape-stroke:none"
     d="M 12,1 C 5.9545515,1 1,5.9545515 1,12 a 1,1 0 0 0 1,1 1,1 0 0 0 1,-1 c 0,-4.9545405 4.0454595,-9 9,-9 2.83369,0 5.499005,1.3326574 7.199219,3.5996094 a 1,1 0 0 0 1.40039,0.2011718 1,1 0 0 0 0.201172,-1.4003906 C 18.723911,2.6312308 15.46145,1 12,1 Z"
     id="path2" />
  <path
     style="color:#000000;fill:#000000;-inkscape-stroke:none"
     d="M 6.6699219,9.0566406 A 1,1 0 0 0 5.3964844,9.6699219 C 5.141046,10.401404 5,11.185715 5,12 5,14.888886 4.4875353,17.873332 4.0507812,19.183594 a 1,1 0 0 0 0.6328125,1.265625 1,1 0 0 0 1.265625,-0.632813 C 6.5124637,18.126671 7,15.111108 7,12 7,11.414286 7.0986419,10.858594 7.2832031,10.330078 A 1,1 0 0 0 6.6699219,9.0566406 Z"
     id="path4" />
  <path
     style="color:#000000;fill:#000000;-inkscape-stroke:none"
     d="m 17.886719,17.003906 a 1,1 0 0 0 -1.091797,0.898438 c -0.05715,0.587875 -0.372614,2.353304 -0.486328,2.921875 A 1,1 0 0 0 17.09375,22 1,1 0 0 0 18.271484,21.216797 c 0.126286,-0.631428 0.430827,-2.267017 0.513672,-3.119141 a 1,1 0 0 0 -0.898437,-1.09375 z"
     id="path6" />
  <path
     style="color:#000000;fill:#000000;-inkscape-stroke:none"
     d="m 12,9 c -1.645008,0 -3,1.354992 -3,3 0,0.95464 -0.09674,2.428967 -0.2539062,3.892578 a 1,1 0 0 0 0.8867187,1.101563 1,1 0 0 0 1.1015625,-0.886719 C 10.897208,14.591035 11,13.085358 11,12 c 0,-0.564129 0.435871,-1 1,-1 a 1,1 0 0 0 1,-1 1,1 0 0 0 -1,-1 z"
     id="path8" />
  <path
     style="color:#000000;fill:#000000;-inkscape-stroke:none"
     d="M 9.3945313,19.015625 A 1,1 0 0 0 8.234375,19.826172 c -0.099589,0.564337 -0.3187663,1.184872 -0.5371094,1.871094 a 1,1 0 0 0 0.6503907,1.255859 1,1 0 0 0 1.2558593,-0.650391 C 9.8051721,21.668957 10.064667,20.96949 10.205078,20.173828 A 1,1 0 0 0 9.3945313,19.015625 Z"
     id="path10" />
  <path
     style="color:#000000;fill:#000000;-inkscape-stroke:none"
     d="m 14,12.119141 a 1,1 0 0 0 -1,1 c 0,2.379997 -0.06434,6.351276 -0.927734,8.509765 a 1,1 0 0 0 0.55664,1.298828 1,1 0 0 0 1.298828,-0.55664 C 15.064337,19.529588 15,15.499138 15,13.119141 a 1,1 0 0 0 -1,-1 z"
     id="path12" />
  <path
     style="color:#000000;fill:#000000;-inkscape-stroke:none"
     d="m 2,15 a 1,1 0 0 0 -1,1 1,1 0 0 0 1,1 h 0.00977 a 1,1 0 0 0 1,-1 1,1 0 0 0 -1,-1 z"
     id="path14" />
  <path
     style="color:#000000;fill:#000000;-inkscape-stroke:none"
     d="m 21.601562,9.0195313 a 1,1 0 0 0 -0.78125,1.1796877 c 0.0027,0.01307 0.04363,0.361608 0.06445,0.779297 0.02083,0.417689 0.03484,0.94901 0.03906,1.521484 0.0084,1.144948 -0.02578,2.466793 -0.119141,3.400391 a 1,1 0 0 0 0.896485,1.09375 1,1 0 0 0 1.09375,-0.894532 c 0.10664,-1.0664 0.13771,-2.421685 0.128906,-3.615234 -0.0044,-0.596775 -0.01831,-1.150096 -0.04102,-1.605469 -0.02271,-0.455372 -0.04067,-0.7682 -0.103515,-1.0781247 a 1,1 0 0 0 -1.177735,-0.78125 z"
     id="path16" />
  <path
     style="color:#000000;fill:#000000;-inkscape-stroke:none"
     d="M 12.09375,5.0039062 C 10.892234,4.9777453 9.6566655,5.2657923 8.5,5.9335937 A 1,1 0 0 0 8.1347656,7.3007812 1,1 0 0 0 9.5,7.6660156 C 12.876293,5.716711 17.0025,8.1013931 17,12 c 0,0.47 1.43e-4,1.1601 -0.01953,1.976563 A 1,1 0 0 0 17.955078,15 1,1 0 0 0 18.980469,14.023438 C 19.000795,13.179902 19,12.47 19,12 19.00257,7.9931936 15.698299,5.0823892 12.09375,5.0039062 Z"
     id="path18" />
</svg>
