<?xml version="1.0" encoding="UTF-8" standalone="no"?>
<svg
   width="24"
   height="24"
   viewBox="0 0 24 24"
   fill="none"
   stroke="currentColor"
   stroke-width="2"
   stroke-linecap="round"
   stroke-linejoin="round"
   version="1.1"
   id="svg14"
   xmlns="http://www.w3.org/2000/svg"
   xmlns:svg="http://www.w3.org/2000/svg">
  <defs
     id="defs18" />
  <path
     style="color:#000000;fill:#000000;-inkscape-stroke:none"
     d="M 15,5 C 10.964349,5 6.6308646,7.7051422 5.5351562,11.738281 a 1.0001,1.0001 0 0 0 0,0.523438 C 6.6302801,16.304357 10.966221,19 15,19 c 4.033779,0 6.93992,-2.954785 7.964844,-6.738281 a 1.0001,1.0001 0 0 0 0,-0.523438 C 21.9397,7.964879 19.035651,5 15,5 Z m 0,2 c 2.99046,0 5.027837,2.0110131 5.929687,5 C 20.027869,14.997778 17.992495,17 15,17 12.012414,17 8.5360574,14.769959 7.6015625,12 8.5359999,9.2391804 12.014448,7 15,7 Z"
     id="path2" />
  <path
     style="color:#000000;fill:#000000;-inkscape-stroke:none"
     d="m 18,11 a 1,1 0 0 0 -1,1 v 0.5 a 1,1 0 0 0 1,1 1,1 0 0 0 1,-1 V 12 a 1,1 0 0 0 -1,-1 z"
     id="path4" />
  <path
     style="color:#000000;fill:#000000;-inkscape-stroke:none"
     d="m 16.607422,5.2753906 a 1,1 0 0 0 -1.402344,0.1875 c -2.944758,3.8557632 -2.944758,9.2184554 0,13.0742184 a 1,1 0 0 0 1.402344,0.1875 1,1 0 0 0 0.1875,-1.402343 c -2.403144,-3.146593 -2.403144,-7.4979389 0,-10.6445316 a 1,1 0 0 0 -0.1875,-1.4023438 z"
     id="path6" />
  <path
     style="color:#000000;fill:#000000;-inkscape-stroke:none"
     d="M 2.8925781,4.5136719 A 1.0001,1.0001 0 0 0 1.8984375,4.9453125 c -0.6991224,1.0486837 -0.92083846,2.4295776 -0.8886719,3.828125 0.026473,1.1509766 0.3117221,2.2661835 0.859375,3.2246095 -0.5529263,0.959062 -0.8406729,2.07571 -0.8671875,3.228516 -0.0321972,1.399879 0.1921826,2.783137 0.8984375,3.832031 a 1.0001,1.0001 0 0 0 0.9921875,0.427734 C 4.5193285,19.218057 5.8453415,18.464567 6.71875,17.359375 7.5921585,16.254183 8,14.842355 8,13.330078 a 1,1 0 0 0 -1,-1 1,1 0 0 0 -1,1 C 6,14.487799 5.6975276,15.424334 5.1484375,16.119141 4.7492793,16.624227 4.1434602,16.975843 3.4101563,17.234375 3.2107008,16.678585 2.9833576,16.08194 3.0019531,15.273438 3.0272558,14.17332 3.3538262,13.092335 3.7304688,12.636719 a 1.0001,1.0001 0 0 0 0.00195,-1.271485 C 3.3592315,10.910124 3.0331459,9.8280126 3.0078125,8.7265625 2.9892392,7.9190295 3.21706,7.3240936 3.4140625,6.7675781 4.1453105,7.0261556 4.7500084,7.376696 5.1484375,7.8808594 5.6975276,8.5756658 6,9.5122014 6,10.669922 a 1,1 0 0 0 1,1 1,1 0 0 0 1,-1 C 8,9.157645 7.5921585,7.7458168 6.71875,6.640625 5.8453415,5.5354332 4.5193285,4.781943 2.8925781,4.5136719 Z"
     id="path8" />
  <path
     style="color:#000000;fill:#000000;-inkscape-stroke:none"
     d="M 8,2 A 1.0001,1.0001 0 0 0 7.2734375,3.6855469 c 1.0690031,1.1329605 2.0054047,2.7103268 2.203125,3.7597656 a 1,1 0 0 0 1.1679685,0.796875 1,1 0 0 0 0.798828,-1.1679688 C 11.242079,6.0058867 10.680339,4.977714 10.013672,4 h 3.787109 a 1.0001,1.0001 0 0 0 0.002,0 c 0.496947,-0.00184 0.908241,0.3457979 0.990235,0.8359375 l 0.230469,1.3964844 a 1,1 0 0 0 1.148437,0.8242187 1,1 0 0 0 0.824219,-1.1484375 L 16.767578,4.5078125 a 1.0001,1.0001 0 0 0 -0.002,-0.00195 C 16.524224,3.0628127 15.259964,1.9945788 13.796875,2 Z"
     id="path10" />
  <path
     style="color:#000000;fill:#000000;-inkscape-stroke:none"
     d="m 10.984375,16.019531 a 1,1 0 0 0 -0.9941406,1.00586 C 9.9979456,18.244587 9.5564665,19.423499 8.75,20.337891 A 1.0001,1.0001 0 0 0 9.5,22 h 4.296875 c 1.463089,0.0054 2.727349,-1.062813 2.96875,-2.505859 a 1.0001,1.0001 0 0 0 0.002,-0.002 l 0.228516,-1.40039 a 1,1 0 0 0 -0.824219,-1.148438 1,1 0 0 0 -1.148437,0.824219 l -0.230469,1.396484 C 14.710975,19.654202 14.299681,20.001841 13.802734,20 a 1.0001,1.0001 0 0 0 -0.002,0 h -2.552734 c 0.443893,-0.937356 0.74885,-1.93299 0.742187,-2.986328 a 1,1 0 0 0 -1.005859,-0.994141 z"
     id="path12" />
</svg>
