<?xml version="1.0" encoding="UTF-8" standalone="no"?>
<svg
   width="24"
   height="24"
   viewBox="0 0 24 24"
   fill="none"
   stroke="currentColor"
   stroke-width="2"
   stroke-linecap="round"
   stroke-linejoin="round"
   version="1.1"
   id="svg8"
   xmlns="http://www.w3.org/2000/svg"
   xmlns:svg="http://www.w3.org/2000/svg">
  <defs
     id="defs12" />
  <path
     style="color:#000000;fill:#000000;-inkscape-stroke:none"
     d="m 14.990234,5 c -1.115246,0.010096 -2.219741,0.2098107 -3.267578,0.5917969 A 1,1 0 0 0 11.125,6.875 1,1 0 0 0 12.408203,7.4707031 C 13.241037,7.1670958 14.119471,7.0084638 15.005859,7 c 2.980723,0.00273 5.011772,2.0061609 5.916016,4.982422 -0.280076,0.926553 -0.648557,1.790965 -1.150391,2.496094 a 1,1 0 0 0 0.236328,1.394531 1,1 0 0 0 1.394532,-0.234375 c 0.703023,-0.98782 1.225578,-2.133941 1.5625,-3.376953 a 1.0001,1.0001 0 0 0 0,-0.523438 C 21.9397,7.964879 19.035651,5 15,5 a 1.0001,1.0001 0 0 0 -0.0098,0 z M 7.9355469,7.890625 C 6.8178213,8.9417532 5.9407341,10.246501 5.5351562,11.738281 a 1.0001,1.0001 0 0 0 0,0.523438 C 6.6302801,16.304357 10.966221,19 15,19 c 0.990436,0.0053 1.971727,-0.180101 2.892578,-0.544922 a 1,1 0 0 0 0.5625,-1.296875 1,1 0 0 0 -1.298828,-0.5625 C 16.471868,16.86684 15.74198,17.004477 15.005859,17 A 1.0001,1.0001 0 0 0 15,17 C 12.021468,17 8.5625452,14.781635 7.6152344,12.023438 7.9358065,11.052934 8.4836264,10.121633 9.3066406,9.3476563 A 1,1 0 0 0 9.3496094,7.9355469 1,1 0 0 0 7.9355469,7.890625 Z M 18,11 a 1,1 0 0 0 -1,1 V 12.470703 12.5 a 1,1 0 0 0 1,1 1,1 0 0 0 1,-1 V 12.470703 12 a 1,1 0 0 0 -1,-1 z"
     id="path2" />
  <path
     style="color:#000000;fill:#000000;-inkscape-stroke:none"
     d="M 2.8925781,4.5136719 A 1.0001,1.0001 0 0 0 1.8984375,4.9453125 c -0.6991224,1.0486837 -0.92083846,2.4295776 -0.8886719,3.828125 0.026473,1.1509766 0.3117221,2.2661835 0.859375,3.2246095 -0.5529263,0.959062 -0.8406729,2.07571 -0.8671875,3.228516 -0.0321972,1.399879 0.1921826,2.783137 0.8984375,3.832031 a 1.0001,1.0001 0 0 0 0.9921875,0.427734 C 4.5193285,19.218057 5.8453415,18.464567 6.71875,17.359375 7.5921585,16.254183 8,14.842355 8,13.330078 a 1,1 0 0 0 -1,-1 1,1 0 0 0 -1,1 C 6,14.487799 5.6975276,15.424334 5.1484375,16.119141 4.7492793,16.624227 4.1434602,16.975843 3.4101563,17.234375 3.2107008,16.678585 2.9833576,16.08194 3.0019531,15.273438 3.0272558,14.17332 3.3538262,13.092335 3.7304688,12.636719 a 1.0001,1.0001 0 0 0 0.00195,-1.271485 C 3.3592315,10.910124 3.0331459,9.8280126 3.0078125,8.7265625 2.9892392,7.9190295 3.21706,7.3240936 3.4140625,6.7675781 4.1453105,7.0261556 4.7500084,7.376696 5.1484375,7.8808594 5.6975276,8.5756658 6,9.5122014 6,10.669922 a 1,1 0 0 0 1,1 1,1 0 0 0 1,-1 C 8,9.157645 7.5921585,7.7458168 6.71875,6.640625 5.8453415,5.5354332 4.5193285,4.781943 2.8925781,4.5136719 Z M 15.867188,5.078125 a 1,1 0 0 0 -0.66211,0.3847656 C 14.472011,6.422634 13.905375,7.498852 13.529297,8.6464844 a 1,1 0 0 0 0.638672,1.2617187 1,1 0 0 0 1.261719,-0.6386718 C 15.735931,8.3350058 16.19798,7.4592604 16.794922,6.6777344 A 1,1 0 0 0 16.607422,5.2753906 1,1 0 0 0 15.867188,5.078125 Z m -1.832032,8.261719 a 1,1 0 0 0 -0.734375,1.208984 c 0.352399,1.446816 1.000454,2.804842 1.904297,3.988281 a 1,1 0 0 0 1.402344,0.1875 1,1 0 0 0 0.1875,-1.402343 C 16.058906,16.35857 15.531105,15.25434 15.244141,14.076172 a 1,1 0 0 0 -1.208985,-0.736328 z"
     id="path4" />
  <path
     style="color:#000000;fill:#000000;-inkscape-stroke:none"
     d="m 2,1 a 1,1 0 0 0 -0.7070313,0.2929687 1,1 0 0 0 0,1.4140626 L 15.796875,17.210937 a 1,1 0 0 0 -0.773437,0.556641 l -0.230469,1.396484 C 14.710975,19.654202 14.299681,20.001841 13.802734,20 a 1.0001,1.0001 0 0 0 -0.002,0 h -2.552734 c 0.443893,-0.937356 0.74885,-1.93299 0.742187,-2.986328 a 1,1 0 0 0 -1.005859,-0.994141 1,1 0 0 0 -0.9941406,1.00586 C 9.9979456,18.244587 9.5564665,19.423499 8.75,20.337891 A 1.0001,1.0001 0 0 0 9.5,22 h 4.296875 c 1.463089,0.0054 2.727349,-1.062813 2.96875,-2.505859 a 1.0001,1.0001 0 0 0 0.002,-0.002 l 0.183594,-1.126953 4.341797,4.341797 a 1,1 0 0 0 1.414062,0 1,1 0 0 0 0,-1.414062 L 2.7070313,1.2929687 A 1,1 0 0 0 2,1 Z m 6.5292969,1 a 1,1 0 0 0 -1,1 1,1 0 0 0 1,1 h 5.2714841 a 1.0001,1.0001 0 0 0 0.002,0 c 0.496947,-0.00184 0.908241,0.3457979 0.990235,0.8359375 l 0.230469,1.3964844 a 1,1 0 0 0 1.148437,0.8242187 1,1 0 0 0 0.824219,-1.1484375 L 16.767578,4.5078125 a 1.0001,1.0001 0 0 0 -0.002,-0.00195 C 16.524224,3.0628127 15.259964,1.9945788 13.796875,2 Z"
     id="path6" />
</svg>
