<?xml version="1.0" encoding="UTF-8" standalone="no"?>
<svg
   width="24"
   height="24"
   viewBox="0 0 24 24"
   fill="none"
   stroke="currentColor"
   stroke-width="2"
   stroke-linecap="round"
   stroke-linejoin="round"
   version="1.1"
   id="svg10"
   xmlns="http://www.w3.org/2000/svg"
   xmlns:svg="http://www.w3.org/2000/svg">
  <defs
     id="defs14" />
  <path
     style="color:#000000;fill:#000000;-inkscape-stroke:none"
     d="M 8,1 A 1,1 0 0 0 7,2 1,1 0 0 0 8,3 C 9.2777765,3 10.378908,3.4277349 11.628906,3.9277344 12.878905,4.4277339 14.277779,5 16,5 17.382433,5 18.259745,4.7565648 19,4.5097656 V 14 a 1,1 0 0 0 1,1 1,1 0 0 0 1,-1 V 3 A 1.0001,1.0001 0 0 0 19.292969,2.2929688 c 0,0 -0.04213,0.080523 -0.539063,0.2792968 C 18.256972,2.7710391 17.388887,3 16,3 14.722224,3 13.621093,2.5722651 12.371094,2.0722656 11.121095,1.5722661 9.7222205,1 8,1 Z"
     id="path2" />
  <path
     style="color:#000000;fill:#000000;-inkscape-stroke:none"
     d="M 4,3 A 1,1 0 0 0 3,4 v 18 a 1,1 0 0 0 1,1 1,1 0 0 0 1,-1 V 4 A 1,1 0 0 0 4,3 Z"
     id="path4" />
  <path
     style="color:#000000;fill:#000000;-inkscape-stroke:none"
     d="m 8,13 c -1.6111095,0 -2.7430288,0.27104 -3.4960938,0.572266 -0.7530649,0.301226 -1.2109375,0.720703 -1.2109374,0.720703 a 1,1 0 0 0 0,1.414062 1,1 0 0 0 1.4140624,0 c 0,0 0.042129,-0.08052 0.5390625,-0.279297 C 5.7430275,15.228961 6.6111125,15 8,15 c 1.2777765,0 2.378908,0.427735 3.628906,0.927734 C 12.878905,16.427734 14.277779,17 16,17 a 1,1 0 0 0 1,-1 1,1 0 0 0 -1,-1 C 14.722224,15 13.621093,14.572265 12.371094,14.072266 11.121095,13.572266 9.7222205,13 8,13 Z"
     id="path6" />
  <path
     style="color:#000000;fill:#000000;-inkscape-stroke:none"
     d="m 2,1 a 1,1 0 0 0 -0.7070313,0.2929687 1,1 0 0 0 0,1.4140626 L 21.292969,22.707031 a 1,1 0 0 0 1.414062,0 1,1 0 0 0 0,-1.414062 L 2.7070313,1.2929687 A 1,1 0 0 0 2,1 Z"
     id="line8" />
</svg>
