<?xml version="1.0" encoding="UTF-8" standalone="no"?>
<svg
   width="24"
   height="24"
   viewBox="0 0 24 24"
   fill="none"
   stroke="currentColor"
   stroke-width="2"
   stroke-linecap="round"
   stroke-linejoin="round"
   version="1.1"
   id="svg4"
   xmlns="http://www.w3.org/2000/svg"
   xmlns:svg="http://www.w3.org/2000/svg">
  <defs
     id="defs8" />
  <path
     style="color:#000000;fill:#000000;-inkscape-stroke:none"
     d="M 12.322266,2.0527344 A 1.0001,1.0001 0 0 0 11.341797,2.2480469 C 10.155117,3.2863918 9.2633456,4.3626856 8.8222656,5.5878906 8.3811856,6.8130957 8.4690619,8.1750456 9.1054688,9.4472656 9.6507858,10.5379 10,10.861547 10,12 10,12.840271 9.3402709,13.5 8.5,13.5 7.6597291,13.5 7,12.840271 7,12 A 1.0001,1.0001 0 0 0 5.2207031,11.373047 C 4.479963,12.295379 4,13.59664 4,15 c 0,4.406431 3.5935721,8 8,8 4.406428,0 8,-3.593569 8,-8 C 20,12.666669 18.799582,10.458416 16.625,8.71875 14.815458,7.2711161 13.429176,5.0482257 12.980469,2.8046875 A 1.0001,1.0001 0 0 0 12.322266,2.0527344 Z m -0.59961,2.9042968 C 12.501369,7.0058741 13.676857,8.9227355 15.375,10.28125 17.200414,11.741581 18,13.333335 18,15 18,18.325553 15.325551,21 12,21 8.6744493,21 6,18.325553 6,15 6,14.829027 6.123289,14.723536 6.1484375,14.550781 6.7732463,15.127012 7.5907453,15.5 8.5,15.5 10.42115,15.5 12,13.92115 12,12 12,10.378456 11.349213,9.4620982 10.894531,8.5527344 10.458939,7.6819565 10.434159,7.018168 10.705078,6.265625 10.846158,5.8737422 11.37602,5.3966879 11.722656,4.9570312 Z"
     id="path2" />
</svg>
