<?xml version="1.0" encoding="UTF-8" standalone="no"?>
<svg
   width="24"
   height="24"
   viewBox="0 0 24 24"
   fill="none"
   stroke="currentColor"
   stroke-width="2"
   stroke-linecap="round"
   stroke-linejoin="round"
   version="1.1"
   id="svg8"
   xmlns="http://www.w3.org/2000/svg"
   xmlns:svg="http://www.w3.org/2000/svg">
  <defs
     id="defs12" />
  <path
     style="color:#000000;fill:#000000;-inkscape-stroke:none"
     d="M 6,1 A 1.0001,1.0001 0 0 0 5,2 V 6 C 5,7.333332 5.7929693,8.2070317 6.2929687,8.7070313 6.7929683,9.2070308 7,9.333334 7,10 v 10 c 0,1.645008 1.354992,3 3,3 h 4 c 1.645008,0 3,-1.354992 3,-3 V 10 C 17,9.333334 17.207032,9.2070308 17.707031,8.7070313 18.207031,8.2070318 19,7.333332 19,6 V 2 A 1.0001,1.0001 0 0 0 18,1 Z M 7,3 H 17 V 6 C 17,6.666666 16.792968,6.7929693 16.292969,7.2929687 15.792969,7.7929683 15,8.666668 15,10 v 10 c 0,0.564129 -0.435871,1 -1,1 H 10 C 9.4358712,21 9,20.564129 9,20 V 10 C 9,8.666668 8.2070308,7.7929683 7.7070312,7.2929687 7.2070317,6.7929692 7,6.666666 7,6 Z"
     id="path2" />
  <path
     style="color:#000000;fill:#000000;-inkscape-stroke:none"
     d="M 6,5 A 1,1 0 0 0 5,6 1,1 0 0 0 6,7 H 18 A 1,1 0 0 0 19,6 1,1 0 0 0 18,5 Z"
     id="line4" />
  <path
     style="color:#000000;fill:#000000;-inkscape-stroke:none"
     d="m 12,11 a 1,1 0 0 0 -1,1 1,1 0 0 0 1,1 1,1 0 0 0 1,-1 1,1 0 0 0 -1,-1 z"
     id="line6" />
</svg>
