<?xml version="1.0" encoding="UTF-8" standalone="no"?>
<svg
   width="24"
   height="24"
   viewBox="0 0 24 24"
   fill="none"
   stroke="currentColor"
   stroke-width="2"
   stroke-linecap="round"
   stroke-linejoin="round"
   version="1.1"
   id="svg12"
   xmlns="http://www.w3.org/2000/svg"
   xmlns:svg="http://www.w3.org/2000/svg">
  <defs
     id="defs16" />
  <path
     style="color:#000000;fill:#000000;-inkscape-stroke:none"
     d="M 10,1 A 1,1 0 0 0 9,2 v 7.3105469 a 1,1 0 0 0 1,1.0000001 1,1 0 0 0 1,-1.0000001 V 2 A 1,1 0 0 0 10,1 Z"
     id="path2" />
  <path
     style="color:#000000;fill:#000000;-inkscape-stroke:none"
     d="M 14,0.99023438 A 1,1 0 0 0 13,1.9902344 v 7.3105469 a 1,1 0 0 0 1,0.9999997 1,1 0 0 0 1,-0.9999997 V 1.9902344 A 1,1 0 0 0 14,0.99023438 Z"
     id="path4" />
  <path
     style="color:#000000;fill:#000000;-inkscape-stroke:none"
     d="m 8.5,1 a 1,1 0 0 0 -1,1 1,1 0 0 0 1,1 h 7 a 1,1 0 0 0 1,-1 1,1 0 0 0 -1,-1 z"
     id="path6" />
  <path
     style="color:#000000;fill:#000000;-inkscape-stroke:none"
     d="m 9.6914063,8.3476563 c -3.9726536,1.28468 -5.621824,5.0070777 -5.0996094,8.3046877 0.5222145,3.29761 3.239797,6.330078 7.4082031,6.330078 4.168406,0 6.885989,-3.032468 7.408203,-6.330078 0.522215,-3.29761 -1.126956,-7.0200077 -5.099609,-8.3046877 a 1,1 0 0 0 -1.259766,0.6445312 1,1 0 0 0 0.642578,1.2597655 c 3.08252,0.996828 4.133812,3.614917 3.742188,6.087891 C 17.04197,18.812817 15.23141,20.982422 12,20.982422 c -3.2314097,0 -5.0419699,-2.169605 -5.4335938,-4.642578 C 6.1747824,13.86687 7.2260738,11.248781 10.308594,10.251953 A 1,1 0 0 0 10.951172,8.9921875 1,1 0 0 0 9.6914063,8.3476563 Z"
     id="path8" />
  <path
     style="color:#000000;fill:#000000;-inkscape-stroke:none"
     d="m 5.5195312,15 a 1,1 0 0 0 -1,1 1,1 0 0 0 1,1 H 18.480469 a 1,1 0 0 0 1,-1 1,1 0 0 0 -1,-1 z"
     id="path10" />
</svg>
