<?xml version="1.0" encoding="UTF-8" standalone="no"?>
<svg
   width="24"
   height="24"
   viewBox="0 0 24 24"
   fill="none"
   stroke="currentColor"
   stroke-width="2"
   stroke-linecap="round"
   stroke-linejoin="round"
   version="1.1"
   id="svg8"
   xmlns="http://www.w3.org/2000/svg"
   xmlns:svg="http://www.w3.org/2000/svg">
  <defs
     id="defs12" />
  <path
     style="color:#000000;fill:#000000;-inkscape-stroke:none"
     d="M 10,1 A 1,1 0 0 0 9,2 V 9.5273438 C 9.0001448,9.6828766 8.9640651,9.8374384 8.8945313,9.9765625 L 3.8261719,20.101562 C 3.174232,21.398629 4.1748637,23.010141 5.6269531,23 H 18.373047 c 1.452089,0.01014 2.452721,-1.601371 1.800781,-2.898438 v -0.002 L 15.105469,9.9765625 v -0.00195 C 15.036496,9.8359421 14.999856,9.6822356 15,9.5273438 V 2 A 1,1 0 0 0 14,1 1,1 0 0 0 13,2 v 7.5253906 c -4.34e-4,0.4664864 0.107855,0.9264784 0.316406,1.3437504 a 1.0001,1.0001 0 0 0 0,0.002 l 5.070313,10.126953 a 1.0001,1.0001 0 0 0 0,0.002 1.0001,1.0001 0 0 0 -0.0059,0 H 5.6191406 a 1.0001,1.0001 0 0 0 -0.00586,0 1.0001,1.0001 0 0 0 0,-0.002 L 10.683594,10.871094 a 1.0001,1.0001 0 0 0 0,-0.002 C 10.892145,10.451869 11.000434,9.991877 11,9.5253906 V 2 A 1,1 0 0 0 10,1 Z"
     id="path2" />
  <path
     style="color:#000000;fill:#000000;-inkscape-stroke:none"
     d="m 8.5,1 a 1,1 0 0 0 -1,1 1,1 0 0 0 1,1 h 7 a 1,1 0 0 0 1,-1 1,1 0 0 0 -1,-1 z"
     id="path4" />
  <path
     style="color:#000000;fill:#000000;-inkscape-stroke:none"
     d="m 7,15 a 1,1 0 0 0 -1,1 1,1 0 0 0 1,1 h 10 a 1,1 0 0 0 1,-1 1,1 0 0 0 -1,-1 z"
     id="path6" />
</svg>
