<?xml version="1.0" encoding="UTF-8" standalone="no"?>
<svg
   width="24"
   height="24"
   viewBox="0 0 24 24"
   fill="none"
   stroke="currentColor"
   stroke-width="2"
   stroke-linecap="round"
   stroke-linejoin="round"
   version="1.1"
   id="svg14"
   xmlns="http://www.w3.org/2000/svg"
   xmlns:svg="http://www.w3.org/2000/svg">
  <defs
     id="defs18" />
  <path
     style="color:#000000;fill:#000000;-inkscape-stroke:none"
     d="M 9.6835938,9.0507813 A 1,1 0 0 0 9.1054688,9.5527344 L 3.8261719,20.101562 C 3.174232,21.398629 4.1748637,23.010141 5.6269531,23 H 18.373047 c 1.452089,0.01014 2.452721,-1.601371 1.800781,-2.898438 v -0.002 l -1.271484,-2.539062 a 1,1 0 0 0 -1.341797,-0.447266 1,1 0 0 0 -0.447266,1.341797 l 1.271485,2.542969 a 1.0001,1.0001 0 0 0 0.002,0.002 1.0001,1.0001 0 0 0 -0.0059,0 H 5.6191406 a 1.0001,1.0001 0 0 0 -0.00586,0 1.0001,1.0001 0 0 0 0,-0.002 L 10.894531,10.447266 A 1,1 0 0 0 10.447266,9.1054688 1,1 0 0 0 9.6835938,9.0507813 Z"
     id="path2" />
  <path
     style="color:#000000;fill:#000000;-inkscape-stroke:none"
     d="M 10,1 A 1,1 0 0 0 9,2 v 2.34375 a 1,1 0 0 0 1,1 1,1 0 0 0 1,-1 V 2 A 1,1 0 0 0 10,1 Z"
     id="path4" />
  <path
     style="color:#000000;fill:#000000;-inkscape-stroke:none"
     d="m 14,1 a 1,1 0 0 0 -1,1 v 6.34375 a 1,1 0 0 0 1,1 1,1 0 0 0 1,-1 V 2 A 1,1 0 0 0 14,1 Z"
     id="path6" />
  <path
     style="color:#000000;fill:#000000;-inkscape-stroke:none"
     d="m 8.5,1 a 1,1 0 0 0 -1,1 1,1 0 0 0 1,1 h 7 a 1,1 0 0 0 1,-1 1,1 0 0 0 -1,-1 z"
     id="path8" />
  <path
     style="color:#000000;fill:#000000;-inkscape-stroke:none"
     d="m 7,15 a 1,1 0 0 0 -1,1 1,1 0 0 0 1,1 h 9 a 1,1 0 0 0 1,-1 1,1 0 0 0 -1,-1 z"
     id="path10" />
  <path
     style="color:#000000;fill:#000000;-inkscape-stroke:none"
     d="m 2,1 a 1,1 0 0 0 -0.7070313,0.2929687 1,1 0 0 0 0,1.4140626 L 21.292969,22.707031 a 1,1 0 0 0 1.414062,0 1,1 0 0 0 0,-1.414062 L 2.7070313,1.2929687 A 1,1 0 0 0 2,1 Z"
     id="line12" />
</svg>
