<?xml version="1.0" encoding="UTF-8" standalone="no"?>
<svg
   width="24"
   height="24"
   viewBox="0 0 24 24"
   fill="none"
   stroke="currentColor"
   stroke-width="2"
   stroke-linecap="round"
   stroke-linejoin="round"
   version="1.1"
   id="svg14"
   xmlns="http://www.w3.org/2000/svg"
   xmlns:svg="http://www.w3.org/2000/svg">
  <defs
     id="defs18" />
  <path
     style="color:#000000;fill:#000000;-inkscape-stroke:none"
     d="M 3,6 A 1,1 0 0 0 2.2929688,6.2929687 1,1 0 0 0 2,7 v 10 a 1.0001,1.0001 0 0 0 1.7070313,0.707031 l 5,-5 a 1.0001,1.0001 0 0 0 0,-1.414062 l -5,-5.0000003 A 1,1 0 0 0 3,6 Z M 4,9.4140625 6.5859375,12 4,14.585938 Z"
     id="path2" />
  <path
     style="color:#000000;fill:#000000;-inkscape-stroke:none"
     d="m 21,6 a 1,1 0 0 0 -0.707031,0.2929687 l -5,5.0000003 a 1.0001,1.0001 0 0 0 0,1.414062 l 5,5 A 1.0001,1.0001 0 0 0 22,17 V 7 A 1,1 0 0 0 21.966797,6.8339844 1,1 0 0 0 21.939453,6.6914062 1,1 0 0 0 21.707031,6.2929687 1,1 0 0 0 21,6 Z M 20,9.4140625 V 14.585938 L 17.414062,12 Z"
     id="path4" />
  <path
     style="color:#000000;fill:#000000;-inkscape-stroke:none"
     d="m 12,19 a 1,1 0 0 0 -1,1 v 2 a 1,1 0 0 0 1,1 1,1 0 0 0 1,-1 v -2 a 1,1 0 0 0 -1,-1 z"
     id="path6" />
  <path
     style="color:#000000;fill:#000000;-inkscape-stroke:none"
     d="m 12,13 a 1,1 0 0 0 -1,1 v 2 a 1,1 0 0 0 1,1 1,1 0 0 0 1,-1 v -2 a 1,1 0 0 0 -1,-1 z"
     id="path8" />
  <path
     style="color:#000000;fill:#000000;-inkscape-stroke:none"
     d="m 12,7 a 1,1 0 0 0 -1,1 v 2 a 1,1 0 0 0 1,1 1,1 0 0 0 1,-1 V 8 A 1,1 0 0 0 12,7 Z"
     id="path10" />
  <path
     style="color:#000000;fill:#000000;-inkscape-stroke:none"
     d="m 12,1 a 1,1 0 0 0 -1,1 v 2 a 1,1 0 0 0 1,1 1,1 0 0 0 1,-1 V 2 A 1,1 0 0 0 12,1 Z"
     id="path12" />
</svg>
