<?xml version="1.0" encoding="UTF-8" standalone="no"?>
<svg
   width="24"
   height="24"
   viewBox="0 0 24 24"
   fill="none"
   stroke="currentColor"
   stroke-width="2"
   stroke-linecap="round"
   stroke-linejoin="round"
   version="1.1"
   id="svg14"
   xmlns="http://www.w3.org/2000/svg"
   xmlns:svg="http://www.w3.org/2000/svg">
  <defs
     id="defs18" />
  <path
     style="color:#000000;fill:#000000;-inkscape-stroke:none"
     d="M 7,2 A 1.0001,1.0001 0 0 0 6.2929687,3.7070313 l 5.0000003,5 a 1.0001,1.0001 0 0 0 1.414062,0 l 5,-5 A 1,1 0 0 0 18,3 1,1 0 0 0 17.707031,2.2929688 1,1 0 0 0 17,2 Z M 9.4140625,4 H 14.585938 L 12,6.5859375 Z"
     id="path2" />
  <path
     style="color:#000000;fill:#000000;-inkscape-stroke:none"
     d="m 11.292969,15.292969 -5.0000003,5 A 1.0001,1.0001 0 0 0 7,22 H 17 A 1,1 0 0 0 17.707031,21.707031 1,1 0 0 0 18,21 1,1 0 0 0 17.707031,20.292969 l -5,-5 a 1.0001,1.0001 0 0 0 -1.414062,0 z M 12,17.414062 14.585938,20 H 9.4140625 Z"
     id="path4" />
  <path
     style="color:#000000;fill:#000000;-inkscape-stroke:none"
     d="m 2,11 a 1,1 0 0 0 -1,1 1,1 0 0 0 1,1 H 4 A 1,1 0 0 0 5,12 1,1 0 0 0 4,11 Z"
     id="path6" />
  <path
     style="color:#000000;fill:#000000;-inkscape-stroke:none"
     d="m 8,11 a 1,1 0 0 0 -1,1 1,1 0 0 0 1,1 h 2 a 1,1 0 0 0 1,-1 1,1 0 0 0 -1,-1 z"
     id="path8" />
  <path
     style="color:#000000;fill:#000000;-inkscape-stroke:none"
     d="m 14,11 a 1,1 0 0 0 -1,1 1,1 0 0 0 1,1 h 2 a 1,1 0 0 0 1,-1 1,1 0 0 0 -1,-1 z"
     id="path10" />
  <path
     style="color:#000000;fill:#000000;-inkscape-stroke:none"
     d="m 20,11 a 1,1 0 0 0 -1,1 1,1 0 0 0 1,1 h 2 a 1,1 0 0 0 1,-1 1,1 0 0 0 -1,-1 z"
     id="path12" />
</svg>
