<?xml version="1.0" encoding="UTF-8" standalone="no"?>
<svg
   width="24"
   height="24"
   viewBox="0 0 24 24"
   fill="none"
   stroke="currentColor"
   stroke-width="2"
   stroke-linecap="round"
   stroke-linejoin="round"
   version="1.1"
   id="svg12"
   xmlns="http://www.w3.org/2000/svg"
   xmlns:svg="http://www.w3.org/2000/svg">
  <defs
     id="defs16" />
  <path
     style="color:#000000;fill:#000000;-inkscape-stroke:none"
     d="M 8.2949219,1.0625 C 7.5314659,1.1970364 6.7868055,1.5569445 6.171875,2.171875 4.942014,3.401736 4.7329243,5.1507119 5.3046875,6.53125 5.5443114,7.1098286 5.9949402,7.5825867 6.4863281,8 5.9949402,8.4174133 5.5443114,8.8901714 5.3046875,9.46875 4.7329243,10.849288 4.942014,12.598264 6.171875,13.828125 7.401736,15.057986 9.1507119,15.267076 10.53125,14.695313 11.109829,14.455689 11.582587,14.00506 12,13.513672 c 0.417413,0.491388 0.890171,0.942017 1.46875,1.181641 1.380538,0.571763 3.129514,0.362673 4.359375,-0.867188 1.229861,-1.229861 1.438951,-2.978837 0.867187,-4.359375 C 18.455689,8.8901714 18.00506,8.4174133 17.513672,8 18.00506,7.5825867 18.455689,7.1098286 18.695312,6.53125 19.267076,5.1507119 19.057986,3.401736 17.828125,2.171875 16.598264,0.942014 14.849288,0.73292432 13.46875,1.3046875 12.890171,1.5443114 12.417413,1.9949402 12,2.4863281 11.582587,1.9949402 11.109829,1.5443114 10.53125,1.3046875 9.840981,1.0188059 9.0583779,0.92796355 8.2949219,1.0625 Z M 8.6582031,3.0117188 C 9.0321418,2.9491736 9.4118166,3.0058106 9.765625,3.1523438 10.473242,3.4454101 11,4.0665356 11,5 v 1 a 1,1 0 0 0 1,1 1,1 0 0 0 1,-1 V 5 c 0,-0.9334644 0.526758,-1.5545899 1.234375,-1.8476562 0.707617,-0.2930664 1.519753,-0.2263403 2.179687,0.4335937 0.659935,0.659934 0.726661,1.4720706 0.433594,2.1796875 C 16.55459,6.4732419 15.933464,7 15,7 h -1 a 1,1 0 0 0 -1,1 1,1 0 0 0 1,1 h 1 c 0.933464,0 1.55459,0.5267581 1.847656,1.234375 0.293067,0.707617 0.226341,1.519753 -0.433594,2.179688 -0.659934,0.659934 -1.47207,0.72666 -2.179687,0.433593 C 13.526758,12.55459 13,11.933464 13,11 v -1 a 1,1 0 0 0 -1,-1 1,1 0 0 0 -1,1 v 1 c 0,0.933464 -0.526758,1.55459 -1.234375,1.847656 C 9.0580081,13.140723 8.2458715,13.073997 7.5859375,12.414063 6.9260035,11.754128 6.8592774,10.941992 7.1523437,10.234375 7.4454101,9.5267581 8.0665356,9 9,9 h 1 A 1,1 0 0 0 11,8 1,1 0 0 0 10,7 H 9 C 8.0665356,7 7.4454101,6.4732419 7.1523437,5.765625 6.8592774,5.0580081 6.9260035,4.2458715 7.5859375,3.5859375 7.9159045,3.2559705 8.2842644,3.0742639 8.6582031,3.0117188 Z"
     id="path2" />
  <path
     style="color:#000000;fill:#000000;-inkscape-stroke:none"
     d="m 12,5 c -1.645008,0 -3,1.354992 -3,3 0,1.645008 1.354992,3 3,3 1.645008,0 3,-1.354992 3,-3 0,-1.645008 -1.354992,-3 -3,-3 z m 0,2 c 0.564129,0 1,0.4358712 1,1 0,0.5641288 -0.435871,1 -1,1 -0.564129,0 -1,-0.4358712 -1,-1 0,-0.5641288 0.435871,-1 1,-1 z"
     id="circle4" />
  <path
     style="color:#000000;fill:#000000;-inkscape-stroke:none"
     d="m 12,9 a 1,1 0 0 0 -1,1 v 12 a 1,1 0 0 0 1,1 1,1 0 0 0 1,-1 V 10 A 1,1 0 0 0 12,9 Z"
     id="path6" />
  <path
     style="color:#000000;fill:#000000;-inkscape-stroke:none"
     d="m 19,16 c -2.232299,0 -4.173703,0.428529 -5.636719,1.423828 C 11.900265,18.419127 11,20.053474 11,22 a 1.0001,1.0001 0 0 0 1,1 c 2.232299,0 4.173703,-0.428529 5.636719,-1.423828 C 19.099735,20.580873 20,18.946526 20,17 a 1.0001,1.0001 0 0 0 -1,-1 z m -1.244141,2.136719 c -0.219754,0.724942 -0.581272,1.336156 -1.24414,1.787109 -0.753075,0.512321 -1.921338,0.798788 -3.267578,0.939453 0.219754,-0.724942 0.581272,-1.336156 1.24414,-1.787109 0.753075,-0.512321 1.921338,-0.798788 3.267578,-0.939453 z"
     id="path8" />
  <path
     style="color:#000000;fill:#000000;-inkscape-stroke:none"
     d="m 5,16 a 1.0001,1.0001 0 0 0 -1,1 c 0,1.946526 0.9002654,3.580873 2.3632812,4.576172 C 7.8262971,22.571471 9.7677006,23 12,23 a 1.0001,1.0001 0 0 0 1,-1 C 13,20.053474 12.099735,18.419127 10.636719,17.423828 9.1737029,16.428529 7.2322994,16 5,16 Z m 1.2441406,2.136719 c 1.34624,0.140665 2.5145036,0.427132 3.2675782,0.939453 0.6628682,0.450953 1.0243862,1.062167 1.2441402,1.787109 C 9.4096194,20.722616 8.2413558,20.436149 7.4882812,19.923828 6.8254129,19.472875 6.4638953,18.861661 6.2441406,18.136719 Z"
     id="path10" />
</svg>
