<?xml version="1.0" encoding="UTF-8" standalone="no"?>
<svg
   width="24"
   height="24"
   viewBox="0 0 24 24"
   fill="none"
   stroke="currentColor"
   stroke-width="2"
   stroke-linecap="round"
   stroke-linejoin="round"
   version="1.1"
   id="svg14"
   xmlns="http://www.w3.org/2000/svg"
   xmlns:svg="http://www.w3.org/2000/svg">
  <defs
     id="defs18" />
  <path
     style="color:#000000;fill:#000000;-inkscape-stroke:none"
     d="M 6.5332031,2.0800781 C 5.4853985,2.263885 4.462483,2.7601732 3.6113281,3.6113281 1.9090184,5.3136379 1.6299982,7.7028919 2.4179688,9.6054688 2.809465,10.550747 3.4770143,11.389888 4.3398437,12 3.4770143,12.610112 2.809465,13.449253 2.4179688,14.394531 c -0.7879706,1.902577 -0.5089504,4.291831 1.1933593,5.994141 1.7023098,1.70231 4.0915638,1.98133 5.9941407,1.193359 C 10.550747,21.190535 11.389888,20.522986 12,19.660156 c 0.610112,0.86283 1.449253,1.530379 2.394531,1.921875 1.902577,0.787971 4.291831,0.508951 5.994141,-1.193359 1.70231,-1.70231 1.98133,-4.091564 1.193359,-5.994141 C 21.190535,13.449253 20.522986,12.610112 19.660156,12 20.522986,11.389888 21.190535,10.550747 21.582031,9.6054688 22.370002,7.7028919 22.090982,5.3136379 20.388672,3.6113281 18.686362,1.9090184 16.297108,1.6299982 14.394531,2.4179688 13.449253,2.809465 12.610112,3.4770143 12,4.3398437 11.389888,3.4770143 10.550747,2.809465 9.6054688,2.4179688 8.6541803,2.0239835 7.5810078,1.8962713 6.5332031,2.0800781 Z M 6.8964844,4.0292969 C 7.5547717,3.9174813 8.2250159,4.0109881 8.8398438,4.265625 10.069499,4.7748988 11,5.8983112 11,7.5 V 9 a 1,1 0 0 0 1,1 1,1 0 0 0 1,-1 V 7.5 c 0,-1.6016888 0.930501,-2.7251012 2.160156,-3.234375 1.229656,-0.5092738 2.682071,-0.3726172 3.814453,0.7597656 1.132383,1.1323828 1.26904,2.5847975 0.759766,3.8144532 C 19.225101,10.069499 18.101689,11 16.5,11 H 15 a 1,1 0 0 0 -1,1 1,1 0 0 0 1,1 h 1.5 c 1.601689,0 2.725101,0.930501 3.234375,2.160156 0.509274,1.229656 0.372617,2.682071 -0.759766,3.814453 -1.132382,1.132383 -2.584797,1.26904 -3.814453,0.759766 C 13.930501,19.225101 13,18.101689 13,16.5 V 15 a 1,1 0 0 0 -1,-1 1,1 0 0 0 -1,1 v 1.5 c 0,1.601689 -0.930501,2.725101 -2.1601562,3.234375 C 7.6101881,20.243649 6.1577734,20.106992 5.0253906,18.974609 3.8930078,17.842227 3.7563512,16.389812 4.265625,15.160156 4.7748988,13.930501 5.8983112,13 7.5,13 H 9 A 1,1 0 0 0 10,12 1,1 0 0 0 9,11 H 7.5 C 5.8983112,11 4.7748988,10.069499 4.265625,8.8398438 3.7563512,7.6101881 3.8930078,6.1577734 5.0253906,5.0253906 5.591582,4.4591992 6.238197,4.1411124 6.8964844,4.0292969 Z"
     id="path2" />
  <path
     style="color:#000000;fill:#000000;-inkscape-stroke:none"
     d="m 12,8 c -2.1972922,0 -4,1.8027078 -4,4 0,2.197292 1.8027078,4 4,4 2.197292,0 4,-1.802708 4,-4 0,-2.1972922 -1.802708,-4 -4,-4 z m 0,2 c 1.116413,0 2,0.883587 2,2 0,1.116413 -0.883587,2 -2,2 -1.116413,0 -2,-0.883587 -2,-2 0,-1.116413 0.883587,-2 2,-2 z"
     id="circle4" />
  <path
     style="color:#000000;fill:#000000;-inkscape-stroke:none"
     d="m 9.5,13.5 a 1,1 0 0 0 -0.7070312,0.292969 l -1.5000001,1.5 a 1,1 0 0 0 0,1.414062 1,1 0 0 0 1.4140626,0 l 1.4999997,-1.5 a 1,1 0 0 0 0,-1.414062 A 1,1 0 0 0 9.5,13.5 Z"
     id="path6" />
  <path
     style="color:#000000;fill:#000000;-inkscape-stroke:none"
     d="m 15.292969,7.2929687 -1.5,1.5000001 a 1,1 0 0 0 0,1.4140622 1,1 0 0 0 1.414062,0 l 1.5,-1.4999997 a 1,1 0 0 0 0,-1.4140626 1,1 0 0 0 -1.414062,0 z"
     id="path8" />
  <path
     style="color:#000000;fill:#000000;-inkscape-stroke:none"
     d="m 8,7 a 1,1 0 0 0 -0.7070313,0.2929687 1,1 0 0 0 0,1.4140626 l 1.5000001,1.4999997 a 1,1 0 0 0 1.4140622,0 1,1 0 0 0 0,-1.4140622 L 8.7070313,7.2929687 A 1,1 0 0 0 8,7 Z"
     id="path10" />
  <path
     style="color:#000000;fill:#000000;-inkscape-stroke:none"
     d="m 14.5,13.5 a 1,1 0 0 0 -0.707031,0.292969 1,1 0 0 0 0,1.414062 l 1.5,1.5 a 1,1 0 0 0 1.414062,0 1,1 0 0 0 0,-1.414062 l -1.5,-1.5 A 1,1 0 0 0 14.5,13.5 Z"
     id="path12" />
</svg>
