<?xml version="1.0" encoding="UTF-8" standalone="no"?>
<svg
   width="24"
   height="24"
   viewBox="0 0 24 24"
   fill="none"
   stroke="currentColor"
   stroke-width="2"
   stroke-linecap="round"
   stroke-linejoin="round"
   version="1.1"
   id="svg8"
   xmlns="http://www.w3.org/2000/svg"
   xmlns:svg="http://www.w3.org/2000/svg">
  <defs
     id="defs12" />
  <path
     style="color:#000000;fill:#000000;-inkscape-stroke:none"
     d="M 4,2 C 2.3545471,2 1,3.3545471 1,5 V 9 A 1,1 0 0 0 2,10 1,1 0 0 0 3,9 V 5 C 3,4.4454551 3.4454551,4 4,4 h 3.9257812 c 0.3356919,0.00174 0.6434965,0.168854 0.8281251,0.4492187 a 1.0001,1.0001 0 0 0 0.00977,0.015625 l 0.8105469,1.1855469 c 5.21e-4,7.913e-4 0.00143,0.00116 0.00195,0.00195 C 10.127682,6.488105 11.063017,6.994819 12.064453,7 a 1.0001,1.0001 0 0 0 0.0059,0 H 20 c 0.564129,0 1,0.4358712 1,1 v 10 c 0,0.564129 -0.435871,1 -1,1 H 2 a 1,1 0 0 0 -1,1 1,1 0 0 0 1,1 h 18 c 1.645008,0 3,-1.354992 3,-3 V 8 C 23,6.354992 21.645008,5 20,5 H 12.074219 C 11.738527,4.9982633 11.430722,4.831146 11.246094,4.5507812 a 1.0001,1.0001 0 0 0 -0.0098,-0.015625 l -0.810547,-1.1855468 -0.002,-0.00195 C 9.8723177,2.511895 8.9369826,2.005181 7.9355469,2 a 1.0001,1.0001 0 0 0 -0.00586,0 z"
     id="path2" />
  <path
     style="color:#000000;fill:#000000;-inkscape-stroke:none"
     d="m 8,9 a 1,1 0 0 0 -0.7070313,0.2929688 1,1 0 0 0 0,1.4140622 L 9.5859375,13 7.2929687,15.292969 a 1,1 0 0 0 0,1.414062 1,1 0 0 0 1.4140626,0 l 2.9999997,-3 a 1.0001,1.0001 0 0 0 0,-1.414062 L 8.7070313,9.2929688 A 1,1 0 0 0 8,9 Z"
     id="path4" />
  <path
     style="color:#000000;fill:#000000;-inkscape-stroke:none"
     d="m 4,12 c -1.645008,0 -3,1.354992 -3,3 v 1 a 1,1 0 0 0 1,1 1,1 0 0 0 1,-1 v -1 c 0,-0.564129 0.4358712,-1 1,-1 h 6 a 1,1 0 0 0 1,-1 1,1 0 0 0 -1,-1 z"
     id="path6" />
</svg>
