<?xml version="1.0" encoding="UTF-8" standalone="no"?>
<svg
   width="24"
   height="24"
   viewBox="0 0 24 24"
   fill="none"
   stroke="currentColor"
   stroke-width="2"
   stroke-linecap="round"
   stroke-linejoin="round"
   version="1.1"
   id="svg8"
   xmlns="http://www.w3.org/2000/svg"
   xmlns:svg="http://www.w3.org/2000/svg">
  <defs
     id="defs12" />
  <path
     style="color:#000000;fill:#000000;-inkscape-stroke:none"
     d="M 4,2 C 2.3545471,2 1,3.3545471 1,5 v 13 c 0,1.645008 1.354992,3 3,3 h 6 a 1,1 0 0 0 1,-1 1,1 0 0 0 -1,-1 H 4 C 3.4358712,19 3,18.564129 3,18 V 5 C 3,4.4454551 3.4454551,4 4,4 h 3.9257812 c 0.3356919,0.00174 0.6434965,0.168854 0.8281251,0.4492187 a 1.0001,1.0001 0 0 0 0.00977,0.015625 l 0.8105469,1.1855469 c 5.21e-4,7.913e-4 0.00143,0.00116 0.00195,0.00195 C 10.127682,6.488105 11.063017,6.994819 12.064453,7 a 1.0001,1.0001 0 0 0 0.0059,0 H 20 c 0.564129,0 1,0.4358712 1,1 v 2.5 a 1,1 0 0 0 1,1 1,1 0 0 0 1,-1 V 8 C 23,6.354992 21.645008,5 20,5 H 12.074219 C 11.738527,4.9982633 11.430722,4.831146 11.246094,4.5507812 a 1.0001,1.0001 0 0 0 -0.0098,-0.015625 l -0.810547,-1.1855468 -0.002,-0.00195 C 9.8723177,2.511895 8.9369826,2.005181 7.9355469,2 a 1.0001,1.0001 0 0 0 -0.00586,0 z"
     id="path2" />
  <path
     style="color:#000000;fill:#000000;-inkscape-stroke:none"
     d="m 15,16 c -1.090702,0 -2,0.909298 -2,2 v 3 c 0,1.090702 0.909298,2 2,2 h 6 c 1.090702,0 2,-0.909298 2,-2 v -3 c 0,-1.090702 -0.909298,-2 -2,-2 z m 0,2 h 6 v 3 h -6 z"
     id="rect4" />
  <path
     style="color:#000000;fill:#000000;-inkscape-stroke:none"
     d="m 18,12 c -0.722221,0 -1.457881,0.235348 -2.039062,0.751953 C 15.379756,13.268559 15,14.083334 15,15 v 2 a 1,1 0 0 0 1,1 1,1 0 0 0 1,-1 v -2 c 0,-0.416666 0.120245,-0.601893 0.289062,-0.751953 C 17.45788,14.097987 17.722222,14 18,14 c 0.277778,0 0.54212,0.09799 0.710937,0.248047 C 18.879755,14.398107 19,14.583334 19,15 v 2 a 1,1 0 0 0 1,1 1,1 0 0 0 1,-1 V 15 C 21,14.083334 20.620244,13.268559 20.039062,12.751953 19.457881,12.235348 18.722221,12 18,12 Z"
     id="path6" />
</svg>
