<?xml version="1.0" encoding="UTF-8" standalone="no"?>
<svg
   width="24"
   height="24"
   viewBox="0 0 24 24"
   fill="none"
   stroke="currentColor"
   stroke-width="2"
   stroke-linecap="round"
   stroke-linejoin="round"
   version="1.1"
   id="svg12"
   xmlns="http://www.w3.org/2000/svg"
   xmlns:svg="http://www.w3.org/2000/svg">
  <defs
     id="defs16" />
  <path
     style="color:#000000;fill:#000000;-inkscape-stroke:none"
     d="M 4,2 C 2.354992,2 1,3.354992 1,5 v 13 c 0,1.645008 1.354992,3 3,3 H 9 A 1,1 0 0 0 10,20 1,1 0 0 0 9,19 H 4 C 3.4358712,19 3,18.564129 3,18 V 5 C 3,4.4358712 3.4358712,4 4,4 h 3.9003906 a 1.0001,1.0001 0 0 0 0.00977,0 c 0.3410981,-0.00334 0.6561535,0.1643212 0.8437501,0.4492187 a 1.0001,1.0001 0 0 0 0.00781,0.00977 L 9.5644531,5.6503906 C 10.118675,6.4919656 11.062637,6.9998341 12.070313,7 H 20 c 0.564129,0 1,0.4358712 1,1 v 1 a 1,1 0 0 0 1,1 1,1 0 0 0 1,-1 V 8 C 23,6.354992 21.645008,5 20,5 H 12.070313 C 11.732817,4.9999444 11.419998,4.8326458 11.234375,4.5507812 a 1.0001,1.0001 0 0 0 -0.0059,-0.00977 L 10.425781,3.3496094 c -7.94e-4,-0.00121 -0.0031,-7.486e-4 -0.0039,-0.00195 C 9.8615388,2.4993607 8.9074166,1.9900312 7.890625,2 Z"
     id="path2" />
  <path
     style="color:#000000;fill:#000000;-inkscape-stroke:none"
     d="m 12,9 a 1,1 0 0 0 -1,1 v 4 a 1.0001,1.0001 0 0 0 1,1 h 4 a 1,1 0 0 0 1,-1 1,1 0 0 0 -1,-1 H 13 V 10 A 1,1 0 0 0 12,9 Z"
     id="path4" />
  <path
     style="color:#000000;fill:#000000;-inkscape-stroke:none"
     d="m 17,10 c -1.607691,0 -3.123708,0.709646 -4.207031,1.792969 l -1.5,1.5 a 1,1 0 0 0 0,1.414062 1,1 0 0 0 1.414062,0 l 1.5,-1.5 C 14.923707,12.490356 16.007693,12 17,12 c 0.992307,0 2.076293,0.490356 2.792969,1.207031 0.282148,0.282149 0.647598,0.834817 0.779297,1.164063 a 1,1 0 0 0 1.298828,0.55664 1,1 0 0 0 0.55664,-1.298828 C 22.159433,12.958153 21.724882,12.310819 21.207031,11.792969 20.123708,10.709646 18.607691,10 17,10 Z"
     id="path6" />
  <path
     style="color:#000000;fill:#000000;-inkscape-stroke:none"
     d="m 18,17 a 1,1 0 0 0 -1,1 1,1 0 0 0 1,1 h 3 v 3 a 1,1 0 0 0 1,1 1,1 0 0 0 1,-1 v -4 a 1.0001,1.0001 0 0 0 -1,-1 z"
     id="path8" />
  <path
     style="color:#000000;fill:#000000;-inkscape-stroke:none"
     d="m 12.128906,17.072266 a 1,1 0 0 0 -0.55664,1.298828 c 0.268301,0.670753 0.702852,1.318087 1.220703,1.835937 C 13.850103,21.264165 15.314287,22 17,22 c 1.685713,0 3.149897,-0.735835 4.207031,-1.792969 l 1.5,-1.5 a 1,1 0 0 0 0,-1.414062 1,1 0 0 0 -1.414062,0 l -1.5,1.5 C 19.050104,19.535833 18.114285,20 17,20 15.885715,20 14.949896,19.535833 14.207031,18.792969 13.924883,18.51082 13.559433,17.958152 13.427734,17.628906 a 1,1 0 0 0 -1.298828,-0.55664 z"
     id="path10" />
</svg>
