<?xml version="1.0" encoding="UTF-8" standalone="no"?>
<svg
   width="24"
   height="24"
   viewBox="0 0 24 24"
   fill="none"
   stroke="currentColor"
   stroke-width="2"
   stroke-linecap="round"
   stroke-linejoin="round"
   version="1.1"
   id="svg6"
   xmlns="http://www.w3.org/2000/svg"
   xmlns:svg="http://www.w3.org/2000/svg">
  <defs
     id="defs10" />
  <path
     style="color:#000000;fill:#000000;-inkscape-stroke:none"
     d="M 10.056641,8.9628906 C 9.255318,8.9157538 8.3846665,9.2305678 7.7128906,9.9023438 a 1.0001,1.0001 0 0 0 0,0.00195 L 2.2832031,15.34375 a 1.0001,1.0001 0 0 0 -0.2636718,0.462891 l -0.9902344,3.951171 a 1.0001,1.0001 0 0 0 1.2167969,1.210938 l 3.9492187,-1 A 1.0001,1.0001 0 0 0 6.65625,19.708984 l 5.439453,-5.419921 a 1.0001,1.0001 0 0 0 0.002,-0.002 c 0.671776,-0.671776 0.98659,-1.542427 0.939453,-2.34375 C 12.989973,11.142037 12.62604,10.430728 12.097656,9.9023438 11.569272,9.3739595 10.857963,9.0100274 10.056641,8.9628906 Z M 9.9394531,10.958984 c 0.2505509,0.01474 0.5300259,0.143307 0.7441409,0.357422 0.214115,0.214115 0.342683,0.49359 0.357422,0.744141 0.01474,0.250551 -0.0392,0.494277 -0.357422,0.8125 l -5.2441409,5.224609 -2.0625,0.523438 0.515625,-2.060547 5.234375,-5.244141 c 0.3182227,-0.318222 0.5619489,-0.37216 0.8125,-0.357422 z"
     id="path2" />
  <path
     style="color:#000000;fill:#000000;-inkscape-stroke:none"
     d="M 4,2 C 2.3545471,2 1,3.3545471 1,5 v 6.5 a 1,1 0 0 0 1,1 1,1 0 0 0 1,-1 V 5 C 3,4.4454551 3.4454551,4 4,4 h 3.9257812 c 0.3356919,0.00174 0.6434965,0.168854 0.8281251,0.4492187 a 1.0001,1.0001 0 0 0 0.00977,0.015625 l 0.8105469,1.1855469 c 5.21e-4,7.913e-4 0.00143,0.00116 0.00195,0.00195 C 10.127682,6.488105 11.063017,6.994819 12.064453,7 a 1.0001,1.0001 0 0 0 0.0059,0 H 20 c 0.564129,0 1,0.4358712 1,1 v 10 c 0,0.564129 -0.435871,1 -1,1 h -9.5 a 1,1 0 0 0 -1,1 1,1 0 0 0 1,1 H 20 c 1.645008,0 3,-1.354992 3,-3 V 8 C 23,6.354992 21.645008,5 20,5 H 12.074219 C 11.738527,4.9982633 11.430722,4.831146 11.246094,4.5507812 a 1.0001,1.0001 0 0 0 -0.0098,-0.015625 l -0.810547,-1.1855468 -0.002,-0.00195 C 9.8723177,2.511895 8.9369826,2.005181 7.9355469,2 a 1.0001,1.0001 0 0 0 -0.00586,0 z"
     id="path4" />
</svg>
