<?xml version="1.0" encoding="UTF-8" standalone="no"?>
<svg
   width="24"
   height="24"
   viewBox="0 0 24 24"
   fill="none"
   stroke="currentColor"
   stroke-width="2"
   stroke-linecap="round"
   stroke-linejoin="round"
   version="1.1"
   id="svg10"
   xmlns="http://www.w3.org/2000/svg"
   xmlns:svg="http://www.w3.org/2000/svg">
  <defs
     id="defs14" />
  <path
     style="color:#000000;fill:#000000;-inkscape-stroke:none"
     d="m 13,2 c -1.092724,0 -2,0.9072762 -2,2 v 5 c 0,1.092724 0.907276,2 2,2 h 7 c 1.092724,0 2,-0.907276 2,-2 V 6 C 22,4.9072762 21.092724,4 20,4 H 17.5 L 16.599609,2.8007813 C 16.222427,2.2978717 15.628637,2 15,2 Z m 0,2 h 2 l 0.900391,1.1992187 C 16.277573,5.7021283 16.871363,6 17.5,6 H 20 v 3 h -7 z"
     id="path2" />
  <path
     style="color:#000000;fill:#000000;-inkscape-stroke:none"
     d="m 13,13 c -1.092724,0 -2,0.907276 -2,2 v 5 c 0,1.092724 0.907276,2 2,2 h 7 c 1.092724,0 2,-0.907276 2,-2 v -3 c 0,-1.092724 -0.907276,-2 -2,-2 h -2.880859 a 1.0001,1.0001 0 0 0 -0.0059,0 l -0.435547,-0.888672 a 1.0001,1.0001 0 0 0 -0.0039,-0.01172 C 16.332664,13.422522 15.631211,12.994724 14.873047,13 Z m 0,2 h 1.880859 a 1.0001,1.0001 0 0 0 0.0059,0 l 0.435547,0.888672 a 1.0001,1.0001 0 0 0 0.0039,0.01172 C 15.667336,16.577478 16.368789,17.005276 17.126953,17 H 20 v 3 h -7 z"
     id="path4" />
  <path
     style="color:#000000;fill:#000000;-inkscape-stroke:none"
     d="M 3,2 A 1,1 0 0 0 2,3 V 5 C 2,6.6454529 3.3545471,8 5,8 H 8 A 1,1 0 0 0 9,7 1,1 0 0 0 8,6 H 5 C 4.4454551,6 4,5.5545449 4,5 V 3 A 1,1 0 0 0 3,2 Z"
     id="path6" />
  <path
     style="color:#000000;fill:#000000;-inkscape-stroke:none"
     d="M 3,2 A 1,1 0 0 0 2,3 v 13 c 0,1.645453 1.3545471,3 3,3 H 8 A 1,1 0 0 0 9,18 1,1 0 0 0 8,17 H 5 C 4.4454551,17 4,16.554545 4,16 V 3 A 1,1 0 0 0 3,2 Z"
     id="path8" />
</svg>
