<?xml version="1.0" encoding="UTF-8" standalone="no"?>
<svg
   width="24"
   height="24"
   viewBox="0 0 24 24"
   fill="none"
   stroke="currentColor"
   stroke-width="2"
   stroke-linecap="round"
   stroke-linejoin="round"
   version="1.1"
   id="svg6"
   xmlns="http://www.w3.org/2000/svg"
   xmlns:svg="http://www.w3.org/2000/svg">
  <defs
     id="defs10" />
  <path
     style="color:#000000;fill:#000000;-inkscape-stroke:none"
     d="M 4,2 C 2.3545471,2 1,3.3545471 1,5 v 13 c 0,1.645008 1.354992,3 3,3 h 14.449219 c 1.364919,0.0024 2.566975,-0.92842 2.908203,-2.25 l 1.550781,-6 C 23.302432,11.223169 22.389004,9.7529619 21,9.2382813 V 8 C 21,6.354992 19.645008,5 18,5 H 12.074219 C 11.738527,4.9982633 11.430722,4.831146 11.246094,4.5507812 a 1.0001,1.0001 0 0 0 -0.0098,-0.015625 l -0.810547,-1.1855468 -0.002,-0.00195 C 9.8723177,2.511895 8.9369826,2.005181 7.9355469,2 a 1.0001,1.0001 0 0 0 -0.00586,0 z m 0,2 h 3.9257812 c 0.3356919,0.00174 0.6434965,0.168854 0.8281251,0.4492187 a 1.0001,1.0001 0 0 0 0.00977,0.015625 l 0.8105469,1.1855469 c 5.21e-4,7.913e-4 0.00143,0.00116 0.00195,0.00195 C 10.127682,6.488105 11.063017,6.994819 12.064453,7 a 1.0001,1.0001 0 0 0 0.0059,0 H 18 c 0.564129,0 1,0.4358712 1,1 V 9 H 9.2421875 9.2402344 C 8.1080146,8.9985058 7.0661852,9.6391899 6.5566406,10.650391 a 1.0001,1.0001 0 0 0 -0.00195,0.002 l -1.4492188,2.90039 a 1,1 0 0 0 0.4472657,1.341797 1,1 0 0 0 1.3417968,-0.447265 L 8.34375,11.546875 v 0.0039 C 8.5149565,11.211019 8.8578214,10.99925 9.2382813,11 a 1.0001,1.0001 0 0 0 0.00195,0 H 20 a 1.0001,1.0001 0 0 0 0.002,0 c 0.67915,-0.0012 1.140492,0.592415 0.970703,1.25 l -1.550781,6 c -0.11542,0.447024 -0.509019,0.75081 -0.970703,0.75 a 1.0001,1.0001 0 0 0 -0.002,0 H 4 C 3.4358712,19 3,18.564129 3,18 V 5 C 3,4.4454551 3.4454551,4 4,4 Z"
     id="path2" />
  <path
     style="color:#000000;fill:#000000;-inkscape-stroke:none"
     d="m 14,13 c -1.092724,0 -2,0.907276 -2,2 0,1.092724 0.907276,2 2,2 1.092724,0 2,-0.907276 2,-2 0,-1.092724 -0.907276,-2 -2,-2 z"
     id="circle4" />
</svg>
