<?xml version="1.0" encoding="UTF-8" standalone="no"?>
<svg
   width="24"
   height="24"
   viewBox="0 0 24 24"
   fill="none"
   stroke="currentColor"
   stroke-width="2"
   stroke-linecap="round"
   stroke-linejoin="round"
   version="1.1"
   id="svg10"
   xmlns="http://www.w3.org/2000/svg"
   xmlns:svg="http://www.w3.org/2000/svg">
  <defs
     id="defs14" />
  <path
     style="color:#000000;fill:#000000;-inkscape-stroke:none"
     d="M 4,2 C 2.354992,2 1,3.354992 1,5 v 13 c 0,1.645008 1.354992,3 3,3 H 9 A 1,1 0 0 0 10,20 1,1 0 0 0 9,19 H 4 C 3.4358712,19 3,18.564129 3,18 V 5 C 3,4.4358712 3.4358712,4 4,4 h 3.9003906 a 1.0001,1.0001 0 0 0 0.00977,0 c 0.3410981,-0.00334 0.6561535,0.1643212 0.8437501,0.4492187 a 1.0001,1.0001 0 0 0 0.00781,0.00977 L 9.5644531,5.6503906 C 10.118675,6.4919656 11.062637,6.9998341 12.070313,7 H 20 c 0.564129,0 1,0.4358712 1,1 v 5 a 1,1 0 0 0 1,1 1,1 0 0 0 1,-1 V 8 C 23,6.354992 21.645008,5 20,5 H 12.070313 C 11.732817,4.9999444 11.419998,4.8326458 11.234375,4.5507812 a 1.0001,1.0001 0 0 0 -0.0059,-0.00977 L 10.425781,3.3496094 c -7.94e-4,-0.00121 -0.0031,-7.486e-4 -0.0039,-0.00195 C 9.8615388,2.4993607 8.9074166,1.9900312 7.890625,2 Z"
     id="path2" />
  <path
     style="color:#000000;fill:#000000;-inkscape-stroke:none"
     d="m 13,9 c -1.645008,0 -3,1.354992 -3,3 0,1.645008 1.354992,3 3,3 1.645008,0 3,-1.354992 3,-3 0,-1.645008 -1.354992,-3 -3,-3 z m 0,2 c 0.564129,0 1,0.435871 1,1 0,0.564129 -0.435871,1 -1,1 -0.564129,0 -1,-0.435871 -1,-1 0,-0.564129 0.435871,-1 1,-1 z"
     id="circle4" />
  <path
     style="color:#000000;fill:#000000;-inkscape-stroke:none"
     d="M 13,13.013672 A 1.0001,1.0001 0 0 0 12,14 v 8 a 1,1 0 0 0 1,1 1,1 0 0 0 1,-1 V 18.412109 C 15.063687,19.375384 16.445443,20 18,20 a 1,1 0 0 0 1,-1 1,1 0 0 0 -1,-1 c -2.276188,0 -4,-1.723812 -4,-4 a 1.0001,1.0001 0 0 0 -1,-0.986328 z"
     id="path6" />
  <path
     style="color:#000000;fill:#000000;-inkscape-stroke:none"
     d="m 20,16 c -1.645008,0 -3,1.354992 -3,3 0,1.645008 1.354992,3 3,3 1.645008,0 3,-1.354992 3,-3 0,-1.645008 -1.354992,-3 -3,-3 z m 0,2 c 0.564129,0 1,0.435871 1,1 0,0.564129 -0.435871,1 -1,1 -0.564129,0 -1,-0.435871 -1,-1 0,-0.564129 0.435871,-1 1,-1 z"
     id="circle8" />
</svg>
