<?xml version="1.0" encoding="UTF-8" standalone="no"?>
<svg
   width="24"
   height="24"
   viewBox="0 0 24 24"
   fill="none"
   stroke="currentColor"
   stroke-width="2"
   stroke-linecap="round"
   stroke-linejoin="round"
   version="1.1"
   id="svg6"
   xmlns="http://www.w3.org/2000/svg"
   xmlns:svg="http://www.w3.org/2000/svg">
  <defs
     id="defs10" />
  <path
     style="color:#000000;fill:#000000;-inkscape-stroke:none"
     d="M 4,2 C 2.3545471,2 1,3.3545471 1,5 v 13 c 0,1.645008 1.354992,3 3,3 h 7 a 1,1 0 0 0 1,-1 1,1 0 0 0 -1,-1 H 4 C 3.4358712,19 3,18.564129 3,18 V 5 C 3,4.4454551 3.4454551,4 4,4 h 3.9257812 c 0.3356919,0.00174 0.6434965,0.168854 0.8281251,0.4492187 a 1.0001,1.0001 0 0 0 0.00977,0.015625 l 0.8105469,1.1855469 c 5.21e-4,7.913e-4 0.00143,0.00116 0.00195,0.00195 C 10.127682,6.488105 11.063017,6.994819 12.064453,7 a 1.0001,1.0001 0 0 0 0.0059,0 H 20 c 0.564129,0 1,0.4358712 1,1 v 1.5 a 1,1 0 0 0 1,1 1,1 0 0 0 1,-1 V 8 C 23,6.354992 21.645008,5 20,5 H 12.074219 C 11.738527,4.9982633 11.430722,4.831146 11.246094,4.5507812 a 1.0001,1.0001 0 0 0 -0.0098,-0.015625 l -0.810547,-1.1855468 -0.002,-0.00195 C 9.8723177,2.511895 8.9369826,2.005181 7.9355469,2 a 1.0001,1.0001 0 0 0 -0.00586,0 z"
     id="path2" />
  <path
     style="color:#000000;fill:#000000;-inkscape-stroke:none"
     d="m 20.236328,12.058594 c -0.650157,-0.127578 -1.33777,-0.06482 -1.974609,0.199219 -0.262017,0.105716 -0.472138,0.293398 -0.697266,0.458984 l 0.283203,0.275391 0.0098,0.01172 c -0.111993,-0.112361 -0.278222,-0.120652 -0.402344,-0.214843 -0.101085,0.08053 -0.230877,0.121502 -0.322266,0.21289 L 17.384766,12.75 C 16.434073,12.064041 15.231384,11.801223 14.125,12.255859 13.693404,12.429402 13.316018,12.690561 13.005859,13 c -1.338297,1.32421 -1.324845,3.623441 0.19336,5.154297 a 1.0001,1.0001 0 0 0 0.0078,0.0059 l 3.589844,3.550781 a 1.0001,1.0001 0 0 0 1.404297,0.002 l 3.601562,-3.550782 a 1.0001,1.0001 0 0 0 0.0078,-0.0078 c 1.511886,-1.524486 1.513296,-3.803814 0.199219,-5.128906 a 1.0001,1.0001 0 0 0 -0.01367,-0.03516 c -0.490779,-0.48836 -1.107062,-0.803563 -1.759766,-0.93164 z m -5.353515,2.044922 c 0.537694,-0.222437 1.147813,-0.09963 1.558593,0.3125 a 1.0001,1.0001 0 0 0 0.01172,0.01172 l 0.349609,0.339844 a 1.0001,1.0001 0 0 0 1.404297,-0.0098 l 0.339844,-0.339844 c 0.137769,-0.137769 0.29291,-0.23982 0.464844,-0.308594 a 1.0001,1.0001 0 0 0 0.01367,-0.0059 c 0.535222,-0.223392 1.142618,-0.103003 1.554687,0.304687 a 1.0001,1.0001 0 0 0 0.0059,0.01172 c 0.564195,0.558255 0.684525,1.439002 -0.195312,2.326172 l -2.888672,2.847656 -2.884765,-2.851563 c -0.877443,-0.887764 -0.763974,-1.767321 -0.203125,-2.322265 a 1.0001,1.0001 0 0 0 0.0039,-0.002 c 0.148016,-0.148017 0.288305,-0.242666 0.453125,-0.308594 a 1.0001,1.0001 0 0 0 0.01172,-0.0059 z"
     id="path4" />
</svg>
