<?xml version="1.0" encoding="UTF-8" standalone="no"?>
<svg
   width="24"
   height="24"
   viewBox="0 0 24 24"
   fill="none"
   stroke="currentColor"
   stroke-width="2"
   stroke-linecap="round"
   stroke-linejoin="round"
   version="1.1"
   id="svg6"
   xmlns="http://www.w3.org/2000/svg"
   xmlns:svg="http://www.w3.org/2000/svg">
  <defs
     id="defs10" />
  <path
     style="color:#000000;fill:#000000;-inkscape-stroke:none"
     d="M 8,3 C 6.354992,3 5,4.354992 5,6 v 9 c 0,1.645453 1.3545471,3 3,3 h 12 c 1.645008,0 3,-1.354992 3,-3 V 9 C 23,7.354992 21.645008,6 20,6 H 16.074219 C 15.738527,5.9982633 15.430722,5.831146 15.246094,5.5507812 a 1.0001,1.0001 0 0 0 -0.0098,-0.015625 l -0.810547,-1.1855468 -0.002,-0.00195 C 13.872318,3.511895 12.936983,3.005181 11.935547,3 a 1.0001,1.0001 0 0 0 -0.0059,0 z m 0,2 h 3.925781 c 0.335692,0.00174 0.643497,0.168854 0.828125,0.4492187 a 1.0001,1.0001 0 0 0 0.0098,0.015625 l 0.810547,1.1855469 c 5.21e-4,7.913e-4 0.0014,0.00116 0.002,0.00195 C 14.127682,7.488105 15.063017,7.994819 16.064453,8 a 1.0001,1.0001 0 0 0 0.0059,0 H 20 c 0.564129,0 1,0.4358712 1,1 v 6 c 0,0.564129 -0.435871,1 -1,1 H 8 C 7.4454551,16 7,15.554545 7,15 V 6 C 7,5.4358712 7.4358712,5 8,5 Z"
     id="path2" />
  <path
     style="color:#000000;fill:#000000;-inkscape-stroke:none"
     d="M 2,7 A 1,1 0 0 0 1,8 v 11 c 0,1.645453 1.3545471,3 3,3 h 14 a 1,1 0 0 0 1,-1 1,1 0 0 0 -1,-1 H 4 C 3.4454551,20 3,19.554545 3,19 V 8 A 1,1 0 0 0 2,7 Z"
     id="path4" />
</svg>
