<?xml version="1.0" encoding="UTF-8" standalone="no"?>
<svg
   width="24"
   height="24"
   viewBox="0 0 24 24"
   fill="none"
   stroke="currentColor"
   stroke-width="2"
   stroke-linecap="round"
   stroke-linejoin="round"
   version="1.1"
   id="svg10"
   xmlns="http://www.w3.org/2000/svg"
   xmlns:svg="http://www.w3.org/2000/svg">
  <defs
     id="defs14" />
  <path
     style="color:#000000;fill:#000000;-inkscape-stroke:none"
     d="M 7.5,1 C 5.6317682,1 4.1659313,2.0771683 3.2910156,3.4394531 2.4161,4.8017379 2.0169241,6.4538264 2,7.9882812 1.9833332,9.3771832 2.2754992,10.4057 2.5332031,11.246094 2.7909071,12.086488 3,12.721091 3,13.619141 V 16 c 0,0.916666 0.3797562,1.731441 0.9609375,2.248047 C 4.5421188,18.764652 5.2777786,19 6,19 6.7222214,19 7.4578812,18.764652 8.0390625,18.248047 8.6202438,17.731441 9,16.916666 9,16 V 14.179688 C 9,12.890439 9.4408401,11.614324 9.9414063,10.208984 10.441972,8.8036449 11,7.2693605 11,5.5 11,4.5264716 10.840043,3.4967999 10.3125,2.6035156 9.7849566,1.7102313 8.7558544,1 7.5,1 Z m 0,2 C 8.1141438,3 8.3348879,3.1893794 8.5898438,3.6210938 8.8447996,4.0528081 9,4.7735301 9,5.5 9,6.8406364 8.5580266,8.1369048 8.0585938,9.5390625 7.5591609,10.94122 7,12.448939 7,14.179688 V 16 C 7,16.416666 6.8797554,16.601893 6.7109375,16.751953 6.5421196,16.902013 6.2777776,17 6,17 5.7222224,17 5.4578804,16.902013 5.2890625,16.751953 5.1202446,16.601893 5,16.416666 5,16 V 13.619141 C 5,12.397192 4.6951081,11.47476 4.4453125,10.660156 4.1955169,9.845552 3.9866669,9.1228143 4,8.0117188 4.0130758,6.8261763 4.3595265,5.4772441 4.9746094,4.5195312 5.5896922,3.5618184 6.3582348,3 7.5,3 Z"
     id="path2" />
  <path
     style="color:#000000;fill:#000000;-inkscape-stroke:none"
     d="M 16.5,5 C 15.244146,5 14.215043,5.7102313 13.6875,6.6035156 13.159957,7.4967999 13,8.5264716 13,9.5 c 0,1.769361 0.558028,3.303645 1.058594,4.708984 C 14.55916,15.614324 15,16.890439 15,18.179687 V 20 c 0,0.916666 0.379756,1.731441 0.960938,2.248047 C 16.542119,22.764652 17.277779,23 18,23 18.722221,23 19.457881,22.764652 20.039062,22.248047 20.620244,21.731441 21,20.916666 21,20 v -2.380859 c 0,-0.89805 0.209093,-1.532653 0.466797,-2.373047 C 21.724501,14.4057 22.016667,13.377183 22,11.988281 21.983076,10.453826 21.5839,8.8017379 20.708984,7.4394531 19.834069,6.0771683 18.368232,5 16.5,5 Z m 0,2 c 1.141765,0 1.910308,0.5618184 2.525391,1.5195313 0.615082,0.9577128 0.961533,2.3066447 0.974609,3.4921877 0.01333,1.111095 -0.195517,1.833833 -0.445313,2.648437 C 19.304892,15.47476 19,16.397192 19,17.619141 V 20 c 0,0.416666 -0.120245,0.601893 -0.289063,0.751953 C 18.54212,20.902013 18.277778,21 18,21 17.722222,21 17.45788,20.902013 17.289062,20.751953 17.120245,20.601893 17,20.416666 17,20 V 18.179687 C 17,16.448939 16.440839,14.94122 15.941406,13.539063 15.441973,12.136905 15,10.840636 15,9.5 15,8.7735301 15.1552,8.0528081 15.410156,7.6210937 15.665112,7.1893794 15.885856,7 16.5,7 Z"
     id="path4" />
  <path
     style="color:#000000;fill:#000000;-inkscape-stroke:none"
     d="m 16,16 a 1,1 0 0 0 -1,1 1,1 0 0 0 1,1 h 4 a 1,1 0 0 0 1,-1 1,1 0 0 0 -1,-1 z"
     id="path6" />
  <path
     style="color:#000000;fill:#000000;-inkscape-stroke:none"
     d="m 4,12 a 1,1 0 0 0 -1,1 1,1 0 0 0 1,1 H 8 A 1,1 0 0 0 9,13 1,1 0 0 0 8,12 Z"
     id="path8" />
</svg>
