<?xml version="1.0" encoding="UTF-8" standalone="no"?>
<svg
   width="24"
   height="24"
   viewBox="0 0 24 24"
   fill="none"
   stroke="currentColor"
   stroke-width="2"
   stroke-linecap="round"
   stroke-linejoin="round"
   version="1.1"
   id="svg6"
   xmlns="http://www.w3.org/2000/svg"
   xmlns:svg="http://www.w3.org/2000/svg">
  <defs
     id="defs10" />
  <path
     style="color:#000000;fill:#000000;-inkscape-stroke:none"
     d="m 15,6 a 1,1 0 0 0 -0.707031,0.2929687 1,1 0 0 0 0,1.4140625 L 18.585937,12 14.292969,16.292969 a 1,1 0 0 0 0,1.414062 1,1 0 0 0 1.414062,0 l 5,-5 a 1.0001,1.0001 0 0 0 0,-1.414062 l -5,-5.0000003 A 1,1 0 0 0 15,6 Z"
     id="polyline2" />
  <path
     style="color:#000000;fill:#000000;-inkscape-stroke:none"
     d="m 8,11 c -2.7495764,0 -5,2.250424 -5,5 v 2 a 1,1 0 0 0 1,1 1,1 0 0 0 1,-1 v -2 c 0,-1.668697 1.3313028,-3 3,-3 h 12 a 1,1 0 0 0 1,-1 1,1 0 0 0 -1,-1 z"
     id="path4" />
</svg>
