<?xml version="1.0" encoding="UTF-8" standalone="no"?>
<svg
   width="24"
   height="24"
   viewBox="0 0 24 24"
   fill="none"
   stroke="currentColor"
   stroke-width="2"
   stroke-linecap="round"
   stroke-linejoin="round"
   version="1.1"
   id="svg4"
   xmlns="http://www.w3.org/2000/svg"
   xmlns:svg="http://www.w3.org/2000/svg">
  <defs
     id="defs8" />
  <path
     style="color:#000000;fill:#000000;-inkscape-stroke:none"
     d="M 5,1 A 1.0001,1.0001 0 0 0 4.2929687,2.7070313 L 9.5859375,8 H 5 A 1.0001,1.0001 0 0 0 4,9 v 7 a 1,1 0 0 0 0.2929687,0.707031 l 7.0000003,7 A 1.0001,1.0001 0 0 0 13,23 v -6 h 6 a 1.0001,1.0001 0 0 0 0.707031,-1.707031 L 14.414063,10 H 19 A 1.0001,1.0001 0 0 0 20,9 V 2 A 1.0001,1.0001 0 0 0 19,1 Z M 7.4140625,3 H 18 V 8 H 12.414063 Z M 6,10 h 5.585938 l 4.999999,5 H 12 6 Z m 1.4140625,7 H 11 v 3.585937 z"
     id="path2" />
</svg>
