<?xml version="1.0" encoding="UTF-8" standalone="no"?>
<svg
   width="24"
   height="24"
   viewBox="0 0 24 24"
   fill="none"
   stroke="currentColor"
   stroke-width="2"
   stroke-linecap="round"
   stroke-linejoin="round"
   version="1.1"
   id="svg10"
   xmlns="http://www.w3.org/2000/svg"
   xmlns:svg="http://www.w3.org/2000/svg">
  <defs
     id="defs14" />
  <path
     style="color:#000000;fill:#000000;-inkscape-stroke:none"
     d="m 3,21 a 1,1 0 0 0 -1,1 1,1 0 0 0 1,1 h 12 a 1,1 0 0 0 1,-1 1,1 0 0 0 -1,-1 z"
     id="line2" />
  <path
     style="color:#000000;fill:#000000;-inkscape-stroke:none"
     d="M 4,8 A 1,1 0 0 0 3,9 1,1 0 0 0 4,10 H 14 A 1,1 0 0 0 15,9 1,1 0 0 0 14,8 Z"
     id="line4" />
  <path
     style="color:#000000;fill:#000000;-inkscape-stroke:none"
     d="M 6,1 C 4.354992,1 3,2.354992 3,4 v 18 a 1,1 0 0 0 1,1 1,1 0 0 0 1,-1 V 4 C 5,3.4358712 5.4358712,3 6,3 h 6 c 0.564129,0 1,0.4358712 1,1 v 18 a 1,1 0 0 0 1,1 1,1 0 0 0 1,-1 V 4 C 15,2.354992 13.645008,1 12,1 Z"
     id="path6" />
  <path
     style="color:#000000;fill:#000000;-inkscape-stroke:none"
     d="m 17.292969,4.2929687 a 1,1 0 0 0 0,1.4140625 l 3.410156,3.4101563 a 1.0001,1.0001 0 0 0 0.002,0.00195 C 20.894377,9.307316 21.000211,9.5631627 21,9.8300781 V 17 c 0,0.564129 -0.435871,1 -1,1 -0.564129,0 -1,-0.435871 -1,-1 v -2 c 0,-1.645008 -1.354992,-3 -3,-3 h -2 a 1,1 0 0 0 -1,1 1,1 0 0 0 1,1 h 2 c 0.564129,0 1,0.435871 1,1 v 2 c 0,1.645008 1.354992,3 3,3 1.645008,0 3,-1.354992 3,-3 V 9.8300781 C 23.000633,9.0317905 22.682791,8.2663688 22.117187,7.703125 l -0.002,-0.00195 -3.408203,-3.4082032 a 1,1 0 0 0 -1.414062,0 z"
     id="path8" />
</svg>
