<?xml version="1.0" encoding="UTF-8" standalone="no"?>
<svg
   width="24"
   height="24"
   viewBox="0 0 24 24"
   fill="none"
   stroke="currentColor"
   stroke-width="2"
   stroke-linecap="round"
   stroke-linejoin="round"
   version="1.1"
   id="svg8"
   xmlns="http://www.w3.org/2000/svg"
   xmlns:svg="http://www.w3.org/2000/svg">
  <defs
     id="defs12" />
  <path
     style="color:#000000;fill:#000000;-inkscape-stroke:none"
     d="M 5,2 C 3.3552989,2 2,3.3552989 2,5 v 14 c 0,1.644701 1.3552989,3 3,3 h 14 c 1.644701,0 3,-1.355299 3,-3 V 5 C 22,3.3552989 20.644701,2 19,2 Z m 0,2 h 14 c 0.571297,0 1,0.4287033 1,1 v 14 c 0,0.571297 -0.428703,1 -1,1 H 5 C 4.4287033,20 4,19.571297 4,19 V 5 C 4,4.4287033 4.4287033,4 5,4 Z"
     id="rect2" />
  <path
     style="color:#000000;fill:#000000;-inkscape-stroke:none"
     d="M 15.134766,6.0097656 C 13.823068,5.8308978 12.63089,6.1495691 11.859375,6.9394531 11.08786,7.7293371 10.800781,8.8333345 10.800781,10 v 4.199219 c 0,0.751851 -0.16256,1.162368 -0.376953,1.388672 C 10.209435,15.814194 9.8333325,16 9,16 a 1,1 0 0 0 -1,1 1,1 0 0 0 1,1 c 1.166666,0 2.189394,-0.313414 2.875,-1.037109 0.685606,-0.723696 0.925781,-1.715525 0.925781,-2.763672 V 10 c 0,-0.8333325 0.21175,-1.3789476 0.490235,-1.6640625 0.278484,-0.2851149 0.685918,-0.466835 1.574218,-0.3457031 a 1,1 0 0 0 1.125,-0.8554688 1,1 0 0 0 -0.855468,-1.125 z"
     id="path4" />
  <path
     style="color:#000000;fill:#000000;-inkscape-stroke:none"
     d="m 9,10.199219 a 1,1 0 0 0 -1,1 1,1 0 0 0 1,1 h 5.699219 a 1,1 0 0 0 1,-1 1,1 0 0 0 -1,-1 z"
     id="path6" />
</svg>
