<?xml version="1.0" encoding="UTF-8" standalone="no"?>
<svg
   width="24"
   height="24"
   viewBox="0 0 24 24"
   fill="none"
   stroke="currentColor"
   stroke-width="2"
   stroke-linecap="round"
   stroke-linejoin="round"
   version="1.1"
   id="svg8"
   xmlns="http://www.w3.org/2000/svg"
   xmlns:svg="http://www.w3.org/2000/svg">
  <defs
     id="defs12" />
  <path
     style="color:#000000;fill:#000000;-inkscape-stroke:none"
     d="M 3,1 A 1,1 0 0 0 2,2 1,1 0 0 0 3,3 H 21 A 1,1 0 0 0 22,2 1,1 0 0 0 21,1 Z"
     id="path2" />
  <path
     style="color:#000000;fill:#000000;-inkscape-stroke:none"
     d="M 5,5 C 3.3552989,5 2,6.3552989 2,8 v 8 c 0,1.644701 1.3552989,3 3,3 h 14 c 1.644701,0 3,-1.355299 3,-3 V 8 C 22,6.3552989 20.644701,5 19,5 Z m 0,2 h 14 c 0.571297,0 1,0.4287033 1,1 v 8 c 0,0.571297 -0.428703,1 -1,1 H 5 C 4.4287033,17 4,16.571297 4,16 V 8 C 4,7.4287033 4.4287033,7 5,7 Z"
     id="rect4" />
  <path
     style="color:#000000;fill:#000000;-inkscape-stroke:none"
     d="m 3,21 a 1,1 0 0 0 -1,1 1,1 0 0 0 1,1 h 18 a 1,1 0 0 0 1,-1 1,1 0 0 0 -1,-1 z"
     id="path6" />
</svg>
