<?xml version="1.0" encoding="UTF-8" standalone="no"?>
<svg
   width="24"
   height="24"
   viewBox="0 0 24 24"
   fill="none"
   stroke="currentColor"
   stroke-width="2"
   stroke-linecap="round"
   stroke-linejoin="round"
   version="1.1"
   id="svg8"
   xmlns="http://www.w3.org/2000/svg"
   xmlns:svg="http://www.w3.org/2000/svg">
  <defs
     id="defs12" />
  <path
     style="color:#000000;fill:#000000;-inkscape-stroke:none"
     d="M 2,2 A 1,1 0 0 0 1,3 v 18 a 1,1 0 0 0 1,1 1,1 0 0 0 1,-1 V 3 A 1,1 0 0 0 2,2 Z"
     id="path2" />
  <path
     style="color:#000000;fill:#000000;-inkscape-stroke:none"
     d="M 8,2 C 6.3552989,2 5,3.3552989 5,5 v 14 c 0,1.644701 1.3552989,3 3,3 h 8 c 1.644701,0 3,-1.355299 3,-3 V 5 C 19,3.3552989 17.644701,2 16,2 Z m 0,2 h 8 c 0.571297,0 1,0.4287033 1,1 v 14 c 0,0.571297 -0.428703,1 -1,1 H 8 C 7.4287033,20 7,19.571297 7,19 V 5 C 7,4.4287033 7.4287033,4 8,4 Z"
     id="rect4" />
  <path
     style="color:#000000;fill:#000000;-inkscape-stroke:none"
     d="m 22,2 a 1,1 0 0 0 -1,1 v 18 a 1,1 0 0 0 1,1 1,1 0 0 0 1,-1 V 3 A 1,1 0 0 0 22,2 Z"
     id="path6" />
</svg>
