<?xml version="1.0" encoding="UTF-8" standalone="no"?>
<svg
   width="24"
   height="24"
   viewBox="0 0 24 24"
   fill="none"
   stroke="currentColor"
   stroke-width="2"
   stroke-linecap="round"
   stroke-linejoin="round"
   version="1.1"
   id="svg8"
   xmlns="http://www.w3.org/2000/svg"
   xmlns:svg="http://www.w3.org/2000/svg">
  <defs
     id="defs12" />
  <path
     style="color:#000000;fill:#000000;-inkscape-stroke:none"
     d="M 7,1 A 1,1 0 0 0 6,2 1,1 0 0 0 7,3 H 17 A 1,1 0 0 0 18,2 1,1 0 0 0 17,1 Z"
     id="path2" />
  <path
     style="color:#000000;fill:#000000;-inkscape-stroke:none"
     d="M 5,5 A 1,1 0 0 0 4,6 1,1 0 0 0 5,7 H 19 A 1,1 0 0 0 20,6 1,1 0 0 0 19,5 Z"
     id="path4" />
  <path
     style="color:#000000;fill:#000000;-inkscape-stroke:none"
     d="M 5,9 C 3.3552989,9 2,10.355299 2,12 v 8 c 0,1.644701 1.3552989,3 3,3 h 14 c 1.644701,0 3,-1.355299 3,-3 V 12 C 22,10.355299 20.644701,9 19,9 Z m 0,2 h 14 c 0.571297,0 1,0.428703 1,1 v 8 c 0,0.571297 -0.428703,1 -1,1 H 5 C 4.4287033,21 4,20.571297 4,20 v -8 c 0,-0.571297 0.4287033,-1 1,-1 z"
     id="rect6" />
</svg>
