<?xml version="1.0" encoding="UTF-8" standalone="no"?>
<svg
   width="24"
   height="24"
   viewBox="0 0 24 24"
   fill="none"
   stroke="currentColor"
   stroke-width="2"
   stroke-linecap="round"
   stroke-linejoin="round"
   version="1.1"
   id="svg12"
   xmlns="http://www.w3.org/2000/svg"
   xmlns:svg="http://www.w3.org/2000/svg">
  <defs
     id="defs16" />
  <path
     style="color:#000000;fill:#000000;-inkscape-stroke:none"
     d="m 6,10 a 1,1 0 0 0 -1,1 1,1 0 0 0 1,1 h 4 a 1,1 0 0 0 1,-1 1,1 0 0 0 -1,-1 z"
     id="line2" />
  <path
     style="color:#000000;fill:#000000;-inkscape-stroke:none"
     d="M 8,8 A 1,1 0 0 0 7,9 v 4 a 1,1 0 0 0 1,1 1,1 0 0 0 1,-1 V 9 A 1,1 0 0 0 8,8 Z"
     id="line4" />
  <path
     style="color:#000000;fill:#000000;-inkscape-stroke:none"
     d="m 15,11 a 1,1 0 0 0 -1,1 1,1 0 0 0 1,1 h 0.0098 a 1,1 0 0 0 1,-1 1,1 0 0 0 -1,-1 z"
     id="line6" />
  <path
     style="color:#000000;fill:#000000;-inkscape-stroke:none"
     d="m 18,9 a 1,1 0 0 0 -1,1 1,1 0 0 0 1,1 h 0.0098 a 1,1 0 0 0 1,-1 1,1 0 0 0 -1,-1 z"
     id="line8" />
  <path
     style="color:#000000;fill:#000000;-inkscape-stroke:none"
     d="m 6.6796875,4 c -2.5534072,5.95e-4 -4.7099743,1.9466701 -4.9726563,4.4863281 -6.64e-5,6.422e-4 6.62e-5,0.00131 0,0.00195 -0.00666,0.059353 -0.011662,0.1025448 -0.013672,0.1171875 a 1.0001,1.0001 0 0 0 -0.00195,0.017578 C 1.6508076,8.9608681 1.4804467,10.394975 1.3183594,11.941406 1.1562721,13.487837 1,15.097604 1,16 c 0,2.197292 1.8027078,4 4,4 1.333332,0 2.2070317,-0.792969 2.7070312,-1.292969 L 9.1210938,17.292969 C 9.3088578,17.105148 9.5625464,17.000057 9.828125,17 h 4.34375 c 0.265579,5.7e-5 0.519267,0.105148 0.707031,0.292969 l 1.414063,1.414062 C 16.792968,19.207031 17.666668,20 19,20 c 2.197292,0 4,-1.802708 4,-4 0,-0.902812 -0.156271,-2.514234 -0.318359,-4.060547 C 22.519553,10.39314 22.349185,8.9608099 22.308594,8.6230469 a 1.0001,1.0001 0 0 0 -0.0039,-0.019531 c -0.0014,-0.00996 -0.0048,-0.054243 -0.01172,-0.1152343 v -0.00195 C 22.030881,5.9461821 19.874144,4.0006608 17.320312,4 Z m 0,2 H 17.320312 c 1.546286,4.001e-4 2.824315,1.1551779 2.982422,2.6933594 a 1.0001,1.0001 0 0 0 0.002,0.013672 c 0.0032,0.026896 0.0071,0.084976 0.01953,0.1738281 0.0417,0.347028 0.209929,1.7487096 0.36914,3.2675786 C 20.853521,13.676372 21,15.357813 21,16 c 0,1.116413 -0.883587,2 -2,2 -0.666666,0 -0.792969,-0.207032 -1.292969,-0.707031 L 16.292969,15.878906 C 15.730763,15.31653 14.967075,15.00017 14.171875,15 h -4.34375 c -0.7951996,1.7e-4 -1.5588876,0.31653 -2.1210938,0.878906 L 6.2929687,17.292969 C 5.7929692,17.792968 5.666666,18 5,18 3.883587,18 3,17.116413 3,16 3,15.358398 3.1464782,13.676504 3.3066406,12.148438 3.4659467,10.628541 3.6342151,9.2248229 3.6757813,8.8789063 l 0.00195,-0.017578 c 0.00928,-0.071722 0.014341,-0.1281926 0.017578,-0.15625 a 1.0001,1.0001 0 0 0 0.00195,-0.011719 C 3.8557327,7.1554817 5.133667,6.0003602 6.6796875,6 Z"
     id="path10" />
</svg>
