<?xml version="1.0" encoding="UTF-8" standalone="no"?>
<svg
   width="24"
   height="24"
   viewBox="0 0 24 24"
   fill="none"
   stroke="currentColor"
   stroke-width="2"
   stroke-linecap="round"
   stroke-linejoin="round"
   version="1.1"
   id="svg12"
   xmlns="http://www.w3.org/2000/svg"
   xmlns:svg="http://www.w3.org/2000/svg">
  <defs
     id="defs16" />
  <path
     style="color:#000000;fill:#000000;-inkscape-stroke:none"
     d="m 6,11 a 1,1 0 0 0 -1,1 1,1 0 0 0 1,1 h 4 a 1,1 0 0 0 1,-1 1,1 0 0 0 -1,-1 z"
     id="line2" />
  <path
     style="color:#000000;fill:#000000;-inkscape-stroke:none"
     d="m 8,9 a 1,1 0 0 0 -1,1 v 4 a 1,1 0 0 0 1,1 1,1 0 0 0 1,-1 V 10 A 1,1 0 0 0 8,9 Z"
     id="line4" />
  <path
     style="color:#000000;fill:#000000;-inkscape-stroke:none"
     d="m 15,12 a 1,1 0 0 0 -1,1 1,1 0 0 0 1,1 h 0.0098 a 1,1 0 0 0 1,-1 1,1 0 0 0 -1,-1 z"
     id="line6" />
  <path
     style="color:#000000;fill:#000000;-inkscape-stroke:none"
     d="m 18,10 a 1,1 0 0 0 -1,1 1,1 0 0 0 1,1 h 0.0098 a 1,1 0 0 0 1,-1 1,1 0 0 0 -1,-1 z"
     id="line8" />
  <path
     style="color:#000000;fill:#000000;-inkscape-stroke:none"
     d="M 4,5 C 2.3552989,5 1,6.3552989 1,8 v 8 c 0,1.644701 1.3552989,3 3,3 h 16 c 1.644701,0 3,-1.355299 3,-3 V 8 C 23,6.3552989 21.644701,5 20,5 Z m 0,2 h 16 c 0.571297,0 1,0.4287033 1,1 v 8 c 0,0.571297 -0.428703,1 -1,1 H 4 C 3.4287033,17 3,16.571297 3,16 V 8 C 3,7.4287033 3.4287033,7 4,7 Z"
     id="rect10" />
</svg>
