<?xml version="1.0" encoding="UTF-8" standalone="no"?>
<svg
   width="24"
   height="24"
   viewBox="0 0 24 24"
   fill="none"
   stroke="currentColor"
   stroke-width="2"
   stroke-linecap="round"
   stroke-linejoin="round"
   version="1.1"
   id="svg6"
   xmlns="http://www.w3.org/2000/svg"
   xmlns:svg="http://www.w3.org/2000/svg">
  <defs
     id="defs10" />
  <path
     style="color:#000000;fill:#000000;-inkscape-stroke:none"
     d="m 15.292969,9.2929688 -4,4.0000002 a 1,1 0 0 0 0,1.414062 1,1 0 0 0 1.414062,0 l 4,-4 a 1,1 0 0 0 0,-1.4140622 1,1 0 0 0 -1.414062,0 z"
     id="path2" />
  <path
     style="color:#000000;fill:#000000;-inkscape-stroke:none"
     d="M 12,3 C 3.5801575,3 -1.7357817,12.208244 2.4746094,19.5 A 1,1 0 0 0 3.8398438,19.865234 1,1 0 0 0 4.2050781,18.5 C 0.71644218,12.458214 5.023537,5 12,5 c 6.976463,0 11.283558,7.458214 7.794922,13.5 A 1,1 0 0 0 20.160156,19.865234 1,1 0 0 0 21.525391,19.5 C 25.735782,12.208244 20.419843,3 12,3 Z"
     id="path4" />
</svg>
