<?xml version="1.0" encoding="UTF-8" standalone="no"?>
<svg
   width="24"
   height="24"
   viewBox="0 0 24 24"
   fill="none"
   stroke="currentColor"
   stroke-width="2"
   stroke-linecap="round"
   stroke-linejoin="round"
   version="1.1"
   id="svg12"
   xmlns="http://www.w3.org/2000/svg"
   xmlns:svg="http://www.w3.org/2000/svg">
  <defs
     id="defs16" />
  <path
     style="color:#000000;fill:#000000;-inkscape-stroke:none"
     d="M 11,9 A 1,1 0 0 0 10.292969,9.2929688 L 2.7929688,16.792969 c -1.2118545,1.210345 -1.2118545,3.203717 0,4.414062 1.2105301,1.21053 3.2035323,1.21053 4.4140624,0 l 7.4999998,-7.5 a 1,1 0 0 0 0,-1.414062 1,1 0 0 0 -1.414062,0 l -7.5000003,7.5 c -0.4494681,0.449468 -1.1364693,0.449468 -1.5859375,0 -0.446458,-0.445902 -0.446458,-1.140036 0,-1.585938 l 7.4999998,-7.5 a 1,1 0 0 0 0,-1.4140622 A 1,1 0 0 0 11,9 Z"
     id="path2" />
  <path
     style="color:#000000;fill:#000000;-inkscape-stroke:none"
     d="m 21.292969,9.2929688 -6,6.0000002 a 1,1 0 0 0 0,1.414062 1,1 0 0 0 1.414062,0 l 6,-6 a 1,1 0 0 0 0,-1.4140622 1,1 0 0 0 -1.414062,0 z"
     id="path4" />
  <path
     style="color:#000000;fill:#000000;-inkscape-stroke:none"
     d="m 14,1 a 1,1 0 0 0 -0.707031,0.2929687 l -6.0000003,6 a 1,1 0 0 0 0,1.4140626 1,1 0 0 0 1.4140626,0 l 5.9999997,-6 a 1,1 0 0 0 0,-1.4140626 A 1,1 0 0 0 14,1 Z"
     id="path6" />
  <path
     style="color:#000000;fill:#000000;-inkscape-stroke:none"
     d="m 9,6 a 1,1 0 0 0 -0.7070312,0.2929687 1,1 0 0 0 0,1.4140625 l 8.0000002,7.9999998 a 1,1 0 0 0 1.414062,0 1,1 0 0 0 0,-1.414062 L 9.7070313,6.2929687 A 1,1 0 0 0 9,6 Z"
     id="path8" />
  <path
     style="color:#000000;fill:#000000;-inkscape-stroke:none"
     d="m 13,2 a 1,1 0 0 0 -0.707031,0.2929688 1,1 0 0 0 0,1.4140625 l 8,7.9999997 a 1,1 0 0 0 1.414062,0 1,1 0 0 0 0,-1.414062 l -8,-8.0000002 A 1,1 0 0 0 13,2 Z"
     id="path10" />
</svg>
