<?xml version="1.0" encoding="UTF-8" standalone="no"?>
<svg
   width="24"
   height="24"
   viewBox="0 0 24 24"
   fill="none"
   stroke="currentColor"
   stroke-width="2"
   stroke-linecap="round"
   stroke-linejoin="round"
   version="1.1"
   id="svg8"
   xmlns="http://www.w3.org/2000/svg"
   xmlns:svg="http://www.w3.org/2000/svg">
  <defs
     id="defs12" />
  <path
     style="color:#000000;fill:#000000;-inkscape-stroke:none"
     d="M 6,2 A 1.0001,1.0001 0 0 0 5.1679687,2.4453125 l -4,6 a 1.0001,1.0001 0 0 0 0.039063,1.1640625 l 9.9999998,13 a 1.0001,1.0001 0 0 0 1.585938,0 l 10,-13 a 1.0001,1.0001 0 0 0 0.03906,-1.1640625 l -4,-6 A 1.0001,1.0001 0 0 0 18,2 Z M 6.5351562,4 H 17.464844 L 20.769531,8.9589844 12,20.359375 3.2304688,8.9589844 Z"
     id="path2" />
  <path
     style="color:#000000;fill:#000000;-inkscape-stroke:none"
     d="m 10.683594,2.0507813 a 1,1 0 0 0 -0.578125,0.5019531 l -3.0000003,6 A 1.0001,1.0001 0 0 0 7.0449219,9.2949219 L 11.044922,22.294922 a 1.0001,1.0001 0 0 0 1.910156,0 l 4,-13.0000001 a 1.0001,1.0001 0 0 0 -0.06055,-0.7421875 l -3,-6 A 1,1 0 0 0 12.552734,2.1054688 1,1 0 0 0 12.105469,3.4472656 L 14.925781,9.0878906 12,18.599609 9.0742188,9.0878906 11.894531,3.4472656 A 1,1 0 0 0 11.447266,2.1054688 1,1 0 0 0 10.683594,2.0507813 Z"
     id="path4" />
  <path
     style="color:#000000;fill:#000000;-inkscape-stroke:none"
     d="M 2,8 A 1,1 0 0 0 1,9 1,1 0 0 0 2,10 H 22 A 1,1 0 0 0 23,9 1,1 0 0 0 22,8 Z"
     id="path6" />
</svg>
