<?xml version="1.0" encoding="UTF-8" standalone="no"?>
<svg
   width="24"
   height="24"
   viewBox="0 0 24 24"
   fill="none"
   stroke="currentColor"
   stroke-width="2"
   stroke-linecap="round"
   stroke-linejoin="round"
   version="1.1"
   id="svg8"
   xmlns="http://www.w3.org/2000/svg"
   xmlns:svg="http://www.w3.org/2000/svg">
  <defs
     id="defs12" />
  <path
     style="color:#000000;fill:#000000;-inkscape-stroke:none"
     d="m 9,9 a 1,1 0 0 0 -1,1 1,1 0 0 0 1,1 h 0.00977 A 1,1 0 0 0 10.009766,10 1,1 0 0 0 9.0097656,9 Z"
     id="path2" />
  <path
     style="color:#000000;fill:#000000;-inkscape-stroke:none"
     d="m 15,9 a 1,1 0 0 0 -1,1 1,1 0 0 0 1,1 h 0.0098 a 1,1 0 0 0 1,-1 1,1 0 0 0 -1,-1 z"
     id="path4" />
  <path
     style="color:#000000;fill:#000000;-inkscape-stroke:none"
     d="M 12,1 C 7.0412868,1 3,5.0412868 3,10 v 12 a 1.0001,1.0001 0 0 0 1.7070312,0.707031 L 7,20.414062 8.7929688,22.207031 a 1.0001,1.0001 0 0 0 1.4140622,0 L 12,20.414062 l 1.792969,1.792969 a 1.0001,1.0001 0 0 0 1.414062,0 L 17,20.414062 19.292969,22.707031 A 1.0001,1.0001 0 0 0 21,22 V 10 C 21,5.0412868 16.958713,1 12,1 Z m 0,2 c 3.877834,0 7,3.122166 7,7 v 9.585937 l -1.292969,-1.292968 a 1.0001,1.0001 0 0 0 -1.414062,0 L 14.5,20.085937 12.707031,18.292969 a 1.0001,1.0001 0 0 0 -1.414062,0 L 9.5,20.085937 7.7070312,18.292969 a 1.0001,1.0001 0 0 0 -1.4140625,0 L 5,19.585937 V 10 C 5,6.122166 8.122166,3 12,3 Z"
     id="path6" />
</svg>
