<?xml version="1.0" encoding="UTF-8" standalone="no"?>
<svg
   width="24"
   height="24"
   viewBox="0 0 24 24"
   fill="none"
   stroke="currentColor"
   stroke-width="2"
   stroke-linecap="round"
   stroke-linejoin="round"
   version="1.1"
   id="svg12"
   xmlns="http://www.w3.org/2000/svg"
   xmlns:svg="http://www.w3.org/2000/svg">
  <defs
     id="defs16" />
  <path
     style="color:#000000;fill:#000000;-inkscape-stroke:none"
     d="m 4,11 a 1,1 0 0 0 -1,1 v 10 a 1.0001,1.0001 0 0 0 1,1 h 16 a 1.0001,1.0001 0 0 0 1,-1 V 12 a 1,1 0 0 0 -1,-1 1,1 0 0 0 -1,1 v 9 H 5 V 12 A 1,1 0 0 0 4,11 Z"
     id="polyline2" />
  <path
     style="color:#000000;fill:#000000;-inkscape-stroke:none"
     d="M 2,6 A 1.0001,1.0001 0 0 0 1,7 v 5 a 1.0001,1.0001 0 0 0 1,1 h 20 a 1.0001,1.0001 0 0 0 1,-1 V 7 A 1.0001,1.0001 0 0 0 22,6 Z m 1,2 h 18 v 3 H 3 Z"
     id="rect4" />
  <path
     style="color:#000000;fill:#000000;-inkscape-stroke:none"
     d="m 12,6 a 1,1 0 0 0 -1,1 v 15 a 1,1 0 0 0 1,1 1,1 0 0 0 1,-1 V 7 A 1,1 0 0 0 12,6 Z"
     id="line6" />
  <path
     style="color:#000000;fill:#000000;-inkscape-stroke:none"
     d="M 7.5,1 C 6.416668,1 5.4768917,1.4422563 4.8769531,2.1171875 4.2770145,2.7921187 4,3.6527787 4,4.5 4,5.3472213 4.2770145,6.2078813 4.8769531,6.8828125 5.4768917,7.5577437 6.416668,8 7.5,8 H 12 a 1.0001,1.0001 0 0 0 0.980469,-1.1953125 c 0,0 -0.267184,-1.3801431 -1.041016,-2.7871094 C 11.165622,2.6106119 9.7261882,1 7.5,1 Z m 0,2 C 8.7738083,3 9.5843797,3.8893906 10.185547,4.9824219 10.461927,5.4849305 10.434713,5.5972765 10.568359,6 H 7.5 C 6.9166677,6 6.6064404,5.8172553 6.3730469,5.5546875 6.1396534,5.2921197 6,4.9027775 6,4.5 6,4.0972225 6.1396534,3.7078803 6.3730469,3.4453125 6.6064404,3.1827447 6.9166677,3 7.5,3 Z"
     id="path8" />
  <path
     style="color:#000000;fill:#000000;-inkscape-stroke:none"
     d="M 16.5,1 C 14.273812,1 12.834378,2.6106119 12.060547,4.0175781 11.286715,5.4245444 11.019531,6.8046875 11.019531,6.8046875 A 1.0001,1.0001 0 0 0 12,8 h 4.5 C 17.583332,8 18.523108,7.5577437 19.123047,6.8828125 19.722985,6.2078813 20,5.3472213 20,4.5 20,3.6527787 19.722985,2.7921187 19.123047,2.1171875 18.523108,1.4422563 17.583332,1 16.5,1 Z m 0,2 c 0.583332,0 0.89356,0.1827447 1.126953,0.4453125 C 17.860347,3.7078803 18,4.0972225 18,4.5 18,4.9027775 17.860347,5.2921197 17.626953,5.5546875 17.39356,5.8172553 17.083332,6 16.5,6 H 13.431641 C 13.565287,5.5972765 13.538073,5.4849305 13.814453,4.9824219 14.41562,3.8893906 15.226192,3 16.5,3 Z"
     id="path10" />
</svg>
