<?xml version="1.0" encoding="UTF-8" standalone="no"?>
<svg
   width="24"
   height="24"
   viewBox="0 0 24 24"
   fill="none"
   stroke="currentColor"
   stroke-width="2"
   stroke-linecap="round"
   stroke-linejoin="round"
   version="1.1"
   id="svg14"
   xmlns="http://www.w3.org/2000/svg"
   xmlns:svg="http://www.w3.org/2000/svg">
  <defs
     id="defs18" />
  <path
     style="color:#000000;fill:#000000;-inkscape-stroke:none"
     d="M 6,2 A 1,1 0 0 0 5,3 v 12 a 1,1 0 0 0 1,1 1,1 0 0 0 1,-1 V 3 A 1,1 0 0 0 6,2 Z"
     id="path2" />
  <path
     style="color:#000000;fill:#000000;-inkscape-stroke:none"
     d="M 18,2 C 16.750002,2 15.685225,2.5047564 15.001953,3.2734375 14.318681,4.0421186 14,5.0277788 14,6 14,6.9722212 14.318681,7.9578814 15.001953,8.7265625 15.685225,9.4952436 16.750002,10 18,10 19.249998,10 20.314775,9.4952436 20.998047,8.7265625 21.681319,7.9578814 22,6.9722212 22,6 22,5.0277788 21.681319,4.0421186 20.998047,3.2734375 20.314775,2.5047564 19.249998,2 18,2 Z m 0,2 c 0.749999,0 1.185226,0.2452448 1.501953,0.6015625 C 19.81868,4.9578802 20,5.4722227 20,6 20,6.5277773 19.81868,7.0421198 19.501953,7.3984375 19.185226,7.7547552 18.749999,8 18,8 17.250001,8 16.814774,7.7547552 16.498047,7.3984375 16.18132,7.0421198 16,6.5277773 16,6 16,5.4722227 16.18132,4.9578802 16.498047,4.6015625 16.814774,4.2452448 17.250001,4 18,4 Z"
     id="path4" />
  <path
     style="color:#000000;fill:#000000;-inkscape-stroke:none"
     d="M 6,14 C 4.7500016,14 3.685225,14.504756 3.0019531,15.273438 2.3186813,16.042119 2,17.027779 2,18 2,18.972221 2.3186813,19.957881 3.0019531,20.726562 3.685225,21.495244 4.7500016,22 6,22 7.2499984,22 8.314775,21.495244 8.9980469,20.726562 9.6813187,19.957881 10,18.972221 10,18 10,17.027779 9.6813187,16.042119 8.9980469,15.273438 8.314775,14.504756 7.2499984,14 6,14 Z m 0,2 c 0.7499987,0 1.1852264,0.245245 1.5019531,0.601562 C 7.8186799,16.95788 8,17.472223 8,18 8,18.527777 7.8186799,19.04212 7.5019531,19.398437 7.1852264,19.754755 6.7499987,20 6,20 5.2500013,20 4.8147736,19.754755 4.4980469,19.398437 4.1813201,19.04212 4,18.527777 4,18 4,17.472223 4.1813201,16.95788 4.4980469,16.601562 4.8147736,16.245245 5.2500013,16 6,16 Z"
     id="path6" />
  <path
     style="color:#000000;fill:#000000;-inkscape-stroke:none"
     d="M 15,5 C 9.4890026,5 5,9.4890026 5,15 a 1,1 0 0 0 1,1 1,1 0 0 0 1,-1 C 7,10.569882 10.569882,7 15,7 A 1,1 0 0 0 16,6 1,1 0 0 0 15,5 Z"
     id="path8" />
  <path
     style="color:#000000;fill:#000000;-inkscape-stroke:none"
     d="m 18,14 a 1,1 0 0 0 -1,1 v 6 a 1,1 0 0 0 1,1 1,1 0 0 0 1,-1 v -6 a 1,1 0 0 0 -1,-1 z"
     id="path10" />
  <path
     style="color:#000000;fill:#000000;-inkscape-stroke:none"
     d="m 15,17 a 1,1 0 0 0 -1,1 1,1 0 0 0 1,1 h 6 a 1,1 0 0 0 1,-1 1,1 0 0 0 -1,-1 z"
     id="path12" />
</svg>
