<?xml version="1.0" encoding="UTF-8" standalone="no"?>
<svg
   width="24"
   height="24"
   viewBox="0 0 24 24"
   fill="none"
   stroke="currentColor"
   stroke-width="2"
   stroke-linecap="round"
   stroke-linejoin="round"
   version="1.1"
   id="svg10"
   xmlns="http://www.w3.org/2000/svg"
   xmlns:svg="http://www.w3.org/2000/svg">
  <defs
     id="defs14" />
  <path
     style="color:#000000;fill:#000000;-inkscape-stroke:none"
     d="m 18,14 c -2.197292,0 -4,1.802708 -4,4 0,2.197292 1.802708,4 4,4 2.197292,0 4,-1.802708 4,-4 0,-2.197292 -1.802708,-4 -4,-4 z m 0,2 c 1.116413,0 2,0.883587 2,2 0,1.116413 -0.883587,2 -2,2 -1.116413,0 -2,-0.883587 -2,-2 0,-1.116413 0.883587,-2 2,-2 z"
     id="circle2" />
  <path
     style="color:#000000;fill:#000000;-inkscape-stroke:none"
     d="M 6,2 C 3.8027078,2 2,3.8027078 2,6 2,8.1972922 3.8027078,10 6,10 8.1972922,10 10,8.1972922 10,6 10,3.8027078 8.1972922,2 6,2 Z M 6,4 C 7.116413,4 8,4.883587 8,6 8,7.116413 7.116413,8 6,8 4.883587,8 4,7.116413 4,6 4,4.883587 4.883587,4 6,4 Z"
     id="circle4" />
  <path
     style="color:#000000;fill:#000000;-inkscape-stroke:none"
     d="m 13,5 a 1,1 0 0 0 -1,1 1,1 0 0 0 1,1 h 3 c 0.564129,0 1,0.4358712 1,1 v 7 a 1,1 0 0 0 1,1 1,1 0 0 0 1,-1 V 8 C 19,6.354992 17.645008,5 16,5 Z"
     id="path6" />
  <path
     style="color:#000000;fill:#000000;-inkscape-stroke:none"
     d="M 6,8 A 1,1 0 0 0 5,9 v 7 c 0,1.645008 1.354992,3 3,3 h 3 a 1,1 0 0 0 1,-1 1,1 0 0 0 -1,-1 H 8 C 7.4358712,17 7,16.564129 7,16 V 9 A 1,1 0 0 0 6,8 Z"
     id="path8" />
</svg>
