<?xml version="1.0" encoding="UTF-8" standalone="no"?>
<svg
   width="24"
   height="24"
   viewBox="0 0 24 24"
   fill="none"
   stroke="currentColor"
   stroke-width="2"
   stroke-linecap="round"
   stroke-linejoin="round"
   version="1.1"
   id="svg6"
   xmlns="http://www.w3.org/2000/svg"
   xmlns:svg="http://www.w3.org/2000/svg">
  <defs
     id="defs10" />
  <path
     style="color:#000000;fill:#000000;-inkscape-stroke:none"
     d="M 5,1 A 1.0001,1.0001 0 0 0 4.0332031,1.7480469 C 3.7251093,2.9290732 3.7349036,4.1545809 3.9804688,5.3457031 3.3045143,6.4562232 2.9283216,7.722689 3.0058594,9.0273438 3.0147714,11.0496 3.9144242,12.730119 5.234375,13.830078 6.1703615,14.610067 7.3204441,15.01906 8.5097656,15.251953 8.4175223,15.469038 8.252158,15.648748 8.1875,15.876953 7.981471,16.604114 7.921431,17.363534 8.0058594,18.111328 L 8,18 v 4 a 1,1 0 0 0 1,1 1,1 0 0 0 1,-1 v -4 a 1.0001,1.0001 0 0 0 -0.00586,-0.111328 c -0.055571,-0.492205 -0.016783,-0.99396 0.1171874,-1.466797 0.133176,-0.470034 0.362643,-0.910306 0.671875,-1.298828 A 1.0001,1.0001 0 0 0 10,13.5 C 8.7222235,13.5 7.4391234,13.064504 6.515625,12.294922 5.5921266,11.52534 5,10.464284 5,9 a 1.0001,1.0001 0 0 0 -0.00195,-0.064453 C 4.9315957,7.9189746 5.2190222,6.9100524 5.8125,6.0820312 A 1.0001,1.0001 0 0 0 5.9667969,5.2480469 c -0.1536964,-0.5891694 -0.030058,-1.1908124 0,-1.7910156 0.3943858,0.1899075 0.76325,0.3409921 1.4335937,0.8437499 a 1.0001,1.0001 0 0 0 0.7851563,0.1816407 c 2.5166071,-0.4766301 5.1122991,-0.4766301 7.6289061,0 a 1.0001,1.0001 0 0 0 0.785156,-0.1816407 c 0.668588,-0.5014409 1.035612,-0.6517615 1.429688,-0.8417968 0.02776,0.6052602 0.144366,1.2117534 0,1.8046875 A 1.0001,1.0001 0 0 0 18.1875,6.0820312 c 0.596607,0.8336152 0.879909,1.8307697 0.814453,2.8535157 A 1.0001,1.0001 0 0 0 19,9 c 0,1.464284 -0.592127,2.52534 -1.515625,3.294922 C 16.560877,13.064504 15.277776,13.5 14,13.5 a 1.0001,1.0001 0 0 0 -0.785156,1.619141 c 0.61767,0.784135 0.901192,1.777439 0.791015,2.769531 A 1.0001,1.0001 0 0 0 14,18 v 4 a 1,1 0 0 0 1,1 1,1 0 0 0 1,-1 v -4 l -0.0059,0.111328 c 0.110252,-0.992769 -0.124347,-1.952316 -0.50586,-2.857422 1.190133,-0.232693 2.340777,-0.643355 3.277344,-1.423828 1.319951,-1.099959 2.219604,-2.780478 2.228516,-4.8027342 0.078,-1.3420906 -0.306624,-2.6499974 -1.023438,-3.7832032 0.209453,-1.1544837 0.27845,-2.3368372 0,-3.4804687 A 1.0001,1.0001 0 0 0 19,1 c 0,0 -0.498952,0.025974 -1.101563,0.2519531 -0.511287,0.1917327 -1.275939,0.6440142 -2.11914,1.2285157 -2.50207,-0.4267237 -5.056524,-0.4267237 -7.5585939,0 C 7.3775024,1.8959673 6.6128496,1.4436858 6.1015625,1.2519531 5.4989517,1.0259741 5,1 5,1 Z"
     id="path2" />
  <path
     style="color:#000000;fill:#000000;-inkscape-stroke:none"
     d="m 2,15 a 1,1 0 0 0 -1,1 1,1 0 0 0 1,1 c 0.1666665,0 0.3238332,0.06901 0.6484375,0.349609 0.3246043,0.280601 0.7321782,0.738668 1.2851563,1.181641 0.552978,0.442973 1.2896929,0.869498 2.2207031,0.992187 0.9310101,0.12269 2.0053981,-0.05658 3.2519531,-0.609375 A 1,1 0 0 0 9.9140625,17.59375 1,1 0 0 0 8.59375,17.085937 C 7.5853073,17.53314 6.9078165,17.603873 6.4160156,17.539062 5.9242147,17.474252 5.5668648,17.275776 5.1835937,16.96875 4.8003227,16.661724 4.4277387,16.244789 3.9570313,15.837891 3.4863238,15.430992 2.8333325,15 2,15 Z"
     id="path4" />
</svg>
