<?xml version="1.0" encoding="UTF-8" standalone="no"?>
<svg
   width="24"
   height="24"
   viewBox="0 0 24 24"
   fill="none"
   stroke="currentColor"
   stroke-width="2"
   stroke-linecap="round"
   stroke-linejoin="round"
   version="1.1"
   id="svg4"
   xmlns="http://www.w3.org/2000/svg"
   xmlns:svg="http://www.w3.org/2000/svg">
  <defs
     id="defs8" />
  <path
     style="color:#000000;fill:#000000;-inkscape-stroke:none"
     d="m 18.328125,2 c -0.292577,-0.00523 -0.580257,0.082661 -0.820313,0.25 a 1.0001,1.0001 0 0 0 -0.02148,0.015625 C 17.275499,2.42091 17.112282,2.6304805 17.013672,2.8730469 a 1.0001,1.0001 0 0 0 -0.02148,0.056641 L 14.962891,8.9199219 H 9.0410156 L 7.0488281,2.9433594 7.0664062,3.0039063 C 7.0059613,2.7761751 6.8899391,2.5661633 6.7285156,2.3945313 A 1.0001,1.0001 0 0 0 6.6171875,2.2929688 C 6.3603434,2.0917505 6.0361468,2.0016229 5.7109375,2.0136719 5.435732,2.0186428 5.1638878,2.0921879 4.9375,2.25 A 1.0001,1.0001 0 0 0 4.9160156,2.265625 C 4.7051861,2.42091 4.5419698,2.6304805 4.4433594,2.8730469 A 1.0001,1.0001 0 0 0 4.421875,2.9316406 L 1.0527344,12.972656 a 1.0001,1.0001 0 0 0 -0.00391,0.0059 c -0.23413632,0.715553 0.024449,1.510319 0.6347656,1.951172 a 1.0001,1.0001 0 0 0 0.00977,0.0059 l 9.7285156,6.880859 a 1.0001,1.0001 0 0 0 1.15625,-0.002 l 9.691406,-6.878906 -0.06641,0.04297 c 0.680319,-0.407402 0.994728,-1.246369 0.748047,-2 a 1.0001,1.0001 0 0 0 -0.002,-0.0039 L 19.619141,2.9746094 a 1.0001,1.0001 0 0 0 -0.02344,-0.060547 C 19.508833,2.7003754 19.355341,2.525084 19.179687,2.3769531 18.972551,2.1873556 18.722714,2.0474453 18.443359,2.0097656 A 1.0001,1.0001 0 0 0 18.328125,2 Z M 5.7304687,5.3183594 7.3710937,10.236328 a 1.0001,1.0001 0 0 0 0.9492188,0.683594 h 7.3593755 a 1.0001,1.0001 0 0 0 0.947265,-0.679688 l 1.666016,-4.9160153 2.6875,8.0722653 -8.982422,6.378907 -8.9863282,-6.357422 z M 2.9511719,13.599609 c -1.99e-4,6.26e-4 2.043e-4,0.0013 0,0.002 l -0.00391,0.0059 z"
     id="path2" />
</svg>
