<?xml version="1.0" encoding="UTF-8" standalone="no"?>
<svg
   width="24"
   height="24"
   viewBox="0 0 24 24"
   fill="none"
   stroke="currentColor"
   stroke-width="2"
   stroke-linecap="round"
   stroke-linejoin="round"
   version="1.1"
   id="svg12"
   xmlns="http://www.w3.org/2000/svg"
   xmlns:svg="http://www.w3.org/2000/svg">
  <defs
     id="defs16" />
  <path
     style="color:#000000;fill:#000000;-inkscape-stroke:none"
     d="m 6,10 c -2.7495764,0 -5,2.250424 -5,5 0,2.749576 2.2504236,5 5,5 2.7495764,0 5,-2.250424 5,-5 0,-2.749576 -2.2504236,-5 -5,-5 z m 0,2 c 1.6686972,0 3,1.331303 3,3 0,1.668697 -1.3313028,3 -3,3 -1.6686972,0 -3,-1.331303 -3,-3 0,-1.668697 1.3313028,-3 3,-3 z"
     id="circle2" />
  <path
     style="color:#000000;fill:#000000;-inkscape-stroke:none"
     d="m 18,10 c -2.749576,0 -5,2.250424 -5,5 0,2.749576 2.250424,5 5,5 2.749576,0 5,-2.250424 5,-5 0,-2.749576 -2.250424,-5 -5,-5 z m 0,2 c 1.668697,0 3,1.331303 3,3 0,1.668697 -1.331303,3 -3,3 -1.668697,0 -3,-1.331303 -3,-3 0,-1.668697 1.331303,-3 3,-3 z"
     id="circle4" />
  <path
     style="color:#000000;fill:#000000;-inkscape-stroke:none"
     d="m 12,12 c -1.645008,0 -3,1.354992 -3,3 a 1,1 0 0 0 1,1 1,1 0 0 0 1,-1 c 0,-0.564129 0.435871,-1 1,-1 0.564129,0 1,0.435871 1,1 a 1,1 0 0 0 1,1 1,1 0 0 0 1,-1 c 0,-1.645008 -1.354992,-3 -3,-3 z"
     id="path6" />
  <path
     style="color:#000000;fill:#000000;-inkscape-stroke:none"
     d="M 8,4 C 7.0541676,4 6.2206057,4.2319651 5.5722656,4.7050781 4.9239256,5.1781911 4.499587,5.8188473 4.1191406,6.5253906 a 1.0001,1.0001 0 0 0 -0.042969,0.089844 l -2.5,5.9999996 a 1,1 0 0 0 0.5390625,1.308594 1,1 0 0 0 1.3085937,-0.539062 l 2.46875,-5.9257816 C 6.2066437,6.879792 6.4790307,6.5194721 6.7519531,6.3203125 7.0286122,6.1184262 7.345834,6 8,6 A 1,1 0 0 0 9,5 1,1 0 0 0 8,4 Z"
     id="path8" />
  <path
     style="color:#000000;fill:#000000;-inkscape-stroke:none"
     d="m 16,4 a 1,1 0 0 0 -1,1 1,1 0 0 0 1,1 c 0.594444,0 0.92327,0.1167909 1.220703,0.328125 0.293446,0.208501 0.581245,0.5683502 0.886719,1.1308594 l 2.46875,5.9257816 a 1,1 0 0 0 1.308594,0.539062 1,1 0 0 0 0.539062,-1.308594 l -2.5,-5.9999996 a 1.0001,1.0001 0 0 0 -0.04297,-0.089844 C 19.490989,5.8013456 19.031472,5.1609309 18.378906,4.6972656 17.72634,4.2336004 16.905555,4 16,4 Z"
     id="path10" />
</svg>
