<?xml version="1.0" encoding="UTF-8" standalone="no"?>
<svg
   width="24"
   height="24"
   viewBox="0 0 24 24"
   fill="none"
   stroke="currentColor"
   stroke-width="2"
   stroke-linecap="round"
   stroke-linejoin="round"
   version="1.1"
   id="svg6"
   xmlns="http://www.w3.org/2000/svg"
   xmlns:svg="http://www.w3.org/2000/svg">
  <defs
     id="defs10" />
  <path
     style="color:#000000;fill:#000000;-inkscape-stroke:none"
     d="M 5,2 A 1.0001,1.0001 0 0 0 4.0058594,3.1035156 L 5.8046875,20.314453 c 0.1609086,1.524216 1.467338,2.694017 3,2.685547 h 6.3945315 c 1.527073,8.06e-4 2.824032,-1.166915 2.984375,-2.685547 L 19.994141,3.1054688 A 1.0001,1.0001 0 0 0 19,2 Z m 1.109375,2 h 11.779297 l -1.69336,16.105469 C 16.140683,20.622875 15.721454,21.000275 15.201172,21 a 1.0001,1.0001 0 0 0 -0.002,0 H 8.8007813 a 1.0001,1.0001 0 0 0 -0.00586,0 c -0.5223353,0.0029 -0.945162,-0.375075 -1,-0.894531 z"
     id="path2" />
  <path
     style="color:#000000;fill:#000000;-inkscape-stroke:none"
     d="m 9,10.001953 c -1.2675543,0 -2.5347216,0.3986 -3.5996094,1.197266 a 1,1 0 0 0 -0.2011719,1.40039 1,1 0 0 0 1.4003907,0.201172 c 1.4257763,-1.069332 3.3750049,-1.069332 4.8007816,0 2.129775,1.597332 5.069443,1.597332 7.199218,0 a 1,1 0 0 0 0.201172,-1.40039 1,1 0 0 0 -1.40039,-0.201172 c -1.425777,1.069332 -3.375005,1.069332 -4.800782,0 C 11.534722,10.400553 10.267554,10.001953 9,10.001953 Z"
     id="path4" />
</svg>
