<?xml version="1.0" encoding="UTF-8" standalone="no"?>
<svg
   width="24"
   height="24"
   viewBox="0 0 24 24"
   fill="none"
   stroke="currentColor"
   stroke-width="2"
   stroke-linecap="round"
   stroke-linejoin="round"
   version="1.1"
   id="svg8"
   xmlns="http://www.w3.org/2000/svg"
   xmlns:svg="http://www.w3.org/2000/svg">
  <defs
     id="defs12" />
  <path
     style="color:#000000;fill:#000000;-inkscape-stroke:none"
     d="M 12,1 C 5.9367185,1 1,5.9367185 1,12 1,18.063282 5.9367185,23 12,23 18.063282,23 23,18.063282 23,12 23,5.9367185 18.063282,1 12,1 Z m 0,2 c 4.982402,0 9,4.0175976 9,9 0,4.982402 -4.017598,9 -9,9 C 7.0175976,21 3,16.982402 3,12 3,7.0175976 7.0175976,3 12,3 Z"
     id="circle2" />
  <path
     style="color:#000000;fill:#000000;-inkscape-stroke:none"
     d="m 2,11 a 1,1 0 0 0 -1,1 1,1 0 0 0 1,1 h 20 a 1,1 0 0 0 1,-1 1,1 0 0 0 -1,-1 z"
     id="line4" />
  <path
     style="color:#000000;fill:#000000;-inkscape-stroke:none"
     d="M 12,1 A 1.0001,1.0001 0 0 0 11.261719,1.3261719 C 8.597126,4.243316 7.0822908,8.0284508 7,11.978516 a 1.0001,1.0001 0 0 0 0,0.04297 c 0.082291,3.950065 1.597126,7.7352 4.261719,10.652344 a 1.0001,1.0001 0 0 0 1.476562,0 C 15.402874,19.756684 16.917709,15.971549 17,12.021484 a 1.0001,1.0001 0 0 0 0,-0.04297 C 16.917709,8.0284508 15.402874,4.243316 12.738281,1.3261719 A 1.0001,1.0001 0 0 0 12,1 Z m 0,2.8515625 C 13.775007,6.2264746 14.929233,9.0128892 14.996094,12 14.929233,14.987111 13.775007,17.773525 12,20.148437 10.224993,17.773525 9.070767,14.987111 9.0039063,12 9.070767,9.0128892 10.224993,6.2264746 12,3.8515625 Z"
     id="path6" />
</svg>
