<?xml version="1.0" encoding="UTF-8" standalone="no"?>
<svg
   width="24"
   height="24"
   viewBox="0 0 24 24"
   fill="none"
   stroke="currentColor"
   stroke-width="2"
   stroke-linecap="round"
   stroke-linejoin="round"
   version="1.1"
   id="svg10"
   xmlns="http://www.w3.org/2000/svg"
   xmlns:svg="http://www.w3.org/2000/svg">
  <defs
     id="defs14" />
  <path
     style="color:#000000;fill:#000000;-inkscape-stroke:none"
     d="m 17,14 c -1.645008,0 -3,1.354992 -3,3 v 4.539062 a 1,1 0 0 0 1,1 1,1 0 0 0 1,-1 V 17 c 0,-0.564129 0.435871,-1 1,-1 h 4.539062 a 1,1 0 0 0 1,-1 1,1 0 0 0 -1,-1 z"
     id="path2" />
  <path
     style="color:#000000;fill:#000000;-inkscape-stroke:none"
     d="m 7,2.3398438 a 1,1 0 0 0 -1,1 V 5 c 0,2.1972922 1.8027078,4 4,4 0.564129,0 1,0.4358712 1,1 0,1.645453 1.354547,3 3,3 1.645008,0 3,-1.354992 3,-3 0,-0.5545449 0.445455,-1 1,-1 h 3.169922 a 1,1 0 0 0 1,-1 1,1 0 0 0 -1,-1 H 18 c -1.645453,0 -3,1.3545471 -3,3 0,0.564129 -0.435871,1 -1,1 -0.554545,0 -1,-0.445455 -1,-1 C 13,8.354992 11.645008,7 10,7 8.883587,7 8,6.116413 8,5 V 3.3398438 a 1,1 0 0 0 -1,-1 z"
     id="path4" />
  <path
     style="color:#000000;fill:#000000;-inkscape-stroke:none"
     d="m 2.0507813,10 a 1,1 0 0 0 -1.0000001,1 1,1 0 0 0 1.0000001,1 H 5 c 0.5641288,0 1,0.435871 1,1 v 1 c 0,1.645008 1.354992,3 3,3 0.5641288,0 1,0.435871 1,1 v 3.949219 a 1,1 0 0 0 1,1 1,1 0 0 0 1,-1 V 18 C 12,16.354992 10.645008,15 9,15 8.4358712,15 8,14.564129 8,14 V 13 C 8,11.354992 6.645008,10 5,10 Z"
     id="path6" />
  <path
     style="color:#000000;fill:#000000;-inkscape-stroke:none"
     d="M 12,1 C 5.9367185,1 1,5.9367185 1,12 1,18.063282 5.9367185,23 12,23 18.063282,23 23,18.063282 23,12 23,5.9367185 18.063282,1 12,1 Z m 0,2 c 4.982402,0 9,4.0175976 9,9 0,4.982402 -4.017598,9 -9,9 C 7.0175976,21 3,16.982402 3,12 3,7.0175976 7.0175976,3 12,3 Z"
     id="circle8" />
</svg>
