<?xml version="1.0" encoding="UTF-8" standalone="no"?>
<svg
   width="24"
   height="24"
   viewBox="0 0 24 24"
   fill="none"
   stroke="currentColor"
   stroke-width="2"
   stroke-linecap="round"
   stroke-linejoin="round"
   version="1.1"
   id="svg8"
   xmlns="http://www.w3.org/2000/svg"
   xmlns:svg="http://www.w3.org/2000/svg">
  <defs
     id="defs12" />
  <path
     style="color:#000000;fill:#000000;-inkscape-stroke:none"
     d="M 12.447266,1.1054687 A 1.0001,1.0001 0 0 0 11,2 v 11 a 1,1 0 0 0 1,1 1,1 0 0 0 1,-1 v -2.382812 l 7.447266,-3.7226568 a 1.0001,1.0001 0 0 0 0,-1.7890625 z M 13,3.6171875 17.763672,6 13,8.3828125 Z"
     id="path2" />
  <path
     style="color:#000000;fill:#000000;-inkscape-stroke:none"
     d="M 8.3203125,3.9921875 A 1,1 0 0 0 7.5566406,4.0429687 C -0.0535566,7.8061344 0.28282219,18.925302 8.1054688,22.222656 15.928115,25.520011 24.122041,17.997248 21.501953,9.921875 A 1,1 0 0 0 20.242187,9.2792969 1,1 0 0 0 19.599609,10.539063 C 21.736276,17.124482 15.26201,23.067827 8.8828125,20.378906 2.5036154,17.689986 2.2372883,8.9047769 8.4433594,5.8359375 A 1,1 0 0 0 8.8964844,4.4960937 1,1 0 0 0 8.3203125,3.9921875 Z"
     id="path4" />
  <path
     style="color:#000000;fill:#000000;-inkscape-stroke:none"
     d="M 7.859375,9.0097656 A 1,1 0 0 0 7.2011719,9.3984375 c -2.5897676,3.4473165 -0.7359731,8.5007475 3.4687501,9.4550785 4.204723,0.95433 8.058772,-2.801761 7.210937,-7.029297 a 1,1 0 0 0 -1.177734,-0.785156 1,1 0 0 0 -0.783203,1.177734 c 0.577593,2.880039 -1.944107,5.337642 -4.808594,4.6875 C 8.2468414,16.254155 7.0345307,12.950071 8.7988281,10.601563 A 1,1 0 0 0 8.6015625,9.2011719 1,1 0 0 0 7.859375,9.0097656 Z"
     id="path6" />
</svg>
