<?xml version="1.0" encoding="UTF-8" standalone="no"?>
<svg
   width="24"
   height="24"
   viewBox="0 0 24 24"
   fill="none"
   stroke="currentColor"
   stroke-width="2"
   stroke-linecap="round"
   stroke-linejoin="round"
   version="1.1"
   id="svg12"
   xmlns="http://www.w3.org/2000/svg"
   xmlns:svg="http://www.w3.org/2000/svg">
  <defs
     id="defs16" />
  <path
     style="color:#000000;fill:#000000;-inkscape-stroke:none"
     d="m 16,6 c -1.645008,0 -3,1.354992 -3,3 v 1.400391 a 1,1 0 0 0 1,1 1,1 0 0 0 1,-1 V 9 c 0,-0.5641288 0.435871,-1 1,-1 0.564129,0 1,0.4358712 1,1 v 2.5 a 1,1 0 0 0 1,1 1,1 0 0 0 1,-1 V 9 C 19,7.354992 17.645008,6 16,6 Z"
     id="path2" />
  <path
     style="color:#000000;fill:#000000;-inkscape-stroke:none"
     d="M 12,5 C 10.354992,5 9,6.354992 9,8 v 2 a 1,1 0 0 0 1,1 1,1 0 0 0 1,-1 V 8 c 0,-0.5641288 0.435871,-1 1,-1 0.564129,0 1,0.4358712 1,1 v 2 a 1,1 0 0 0 1,1 1,1 0 0 0 1,-1 V 8 C 15,6.354992 13.645008,5 12,5 Z"
     id="path4" />
  <path
     style="color:#000000;fill:#000000;-inkscape-stroke:none"
     d="M 8,6 C 6.354992,6 5,7.354992 5,9 v 5 a 1,1 0 0 0 1,1 1,1 0 0 0 1,-1 V 9 C 7,8.4358712 7.4358712,8 8,8 8.5641288,8 9,8.4358712 9,9 v 0.9003906 a 1,1 0 0 0 1,1.0000004 1,1 0 0 0 1,-1.0000004 V 9 C 11,7.354992 9.645008,6 8,6 Z"
     id="path6" />
  <path
     style="color:#000000;fill:#000000;-inkscape-stroke:none"
     d="m 4,11 c -1.645008,0 -3,1.354992 -3,3 a 1,1 0 0 0 1,1 1,1 0 0 0 1,-1 c 0,-0.564129 0.4358712,-1 1,-1 0.5641288,0 1,0.435871 1,1 a 1,1 0 0 0 1,1 1,1 0 0 0 1,-1 C 7,12.354992 5.645008,11 4,11 Z"
     id="path8" />
  <path
     style="color:#000000;fill:#000000;-inkscape-stroke:none"
     d="M 20,8 C 19.277779,8 18.542119,8.2353477 17.960937,8.7519531 17.379756,9.2685585 17,10.083334 17,11 a 1,1 0 0 0 1,1 1,1 0 0 0 1,-1 c 0,-0.416666 0.120245,-0.601893 0.289062,-0.751953 C 19.45788,10.097987 19.722222,10 20,10 c 0.277778,0 0.54212,0.09799 0.710937,0.248047 C 20.879755,10.398107 21,10.583334 21,11 v 3 c 0,3.877834 -3.122166,7 -7,7 H 10 C 6.122166,21 3,17.877834 3,14 3,13.583334 3.1202446,13.398107 3.2890625,13.248047 3.4578804,13.097987 3.7222224,13 4,13 4.2777776,13 4.5421196,13.097987 4.7109375,13.248047 4.8797554,13.398107 5,13.583334 5,14 a 1,1 0 0 0 1,1 1,1 0 0 0 1,-1 C 7,13.083334 6.6202438,12.268559 6.0390625,11.751953 5.4578812,11.235348 4.7222214,11 4,11 3.2777786,11 2.5421188,11.235348 1.9609375,11.751953 1.3797562,12.268559 1,13.083334 1,14 c 0,4.958713 4.0412868,9 9,9 h 4 c 4.958713,0 9,-4.041287 9,-9 V 11 C 23,10.083334 22.620244,9.2685585 22.039062,8.7519531 21.457881,8.2353477 20.722221,8 20,8 Z"
     id="path10" />
</svg>
