<?xml version="1.0" encoding="UTF-8" standalone="no"?>
<svg
   width="24"
   height="24"
   viewBox="0 0 24 24"
   fill="none"
   stroke="currentColor"
   stroke-width="2"
   stroke-linecap="round"
   stroke-linejoin="round"
   version="1.1"
   id="svg6"
   xmlns="http://www.w3.org/2000/svg"
   xmlns:svg="http://www.w3.org/2000/svg">
  <defs
     id="defs10" />
  <path
     style="color:#000000;fill:#000000;-inkscape-stroke:none"
     d="M 11.552734,4.1054687 1.5527344,9.1054688 a 1.0001,1.0001 0 0 0 0,1.7890622 l 9.9999996,5 a 1.0001,1.0001 0 0 0 0.894532,0 L 21,11.617188 V 16 a 1,1 0 0 0 1,1 1,1 0 0 0 1,-1 v -6 a 1,1 0 0 0 -0.06836,-0.34375 1.0001,1.0001 0 0 0 -0.0039,-0.023437 1,1 0 0 0 -0.449218,-0.4921875 1.0001,1.0001 0 0 0 -0.03125,-0.035156 l -10,-5.0000001 a 1.0001,1.0001 0 0 0 -0.894532,0 z M 12,6.1171875 19.763672,10 12,13.882813 4.2363281,10 Z"
     id="path2" />
  <path
     style="color:#000000;fill:#000000;-inkscape-stroke:none"
     d="m 6,11 a 1,1 0 0 0 -1,1 v 5 a 1.0001,1.0001 0 0 0 0.2929687,0.707031 C 7.0286693,19.442732 9.5277802,20.25 12,20.25 c 2.47222,0 4.971331,-0.807268 6.707031,-2.542969 A 1.0001,1.0001 0 0 0 19,17 v -5 a 1,1 0 0 0 -1,-1 1,1 0 0 0 -1,1 v 4.472656 C 15.730983,17.591624 13.902023,18.25 12,18.25 10.097977,18.25 8.2690169,17.591624 7,16.472656 V 12 A 1,1 0 0 0 6,11 Z"
     id="path4" />
</svg>
