<?xml version="1.0" encoding="UTF-8" standalone="no"?>
<svg
   width="24"
   height="24"
   viewBox="0 0 24 24"
   fill="none"
   stroke="currentColor"
   stroke-width="2"
   stroke-linecap="round"
   stroke-linejoin="round"
   version="1.1"
   id="svg20"
   xmlns="http://www.w3.org/2000/svg"
   xmlns:svg="http://www.w3.org/2000/svg">
  <defs
     id="defs24" />
  <path
     style="color:#000000;fill:#000000;-inkscape-stroke:none"
     d="m 22.382812,1.0761719 a 1.0001,1.0001 0 0 0 -1.089843,0.2167968 l -5.890625,5.890625 a 1,1 0 0 0 0,1.4140626 1,1 0 0 0 1.414062,0 L 21,4.4140625 V 5 a 1,1 0 0 0 1,1 1,1 0 0 0 1,-1 V 2 A 1.0001,1.0001 0 0 0 22.382812,1.0761719 Z"
     id="path2" />
  <path
     style="color:#000000;fill:#000000;-inkscape-stroke:none"
     d="m 16.599609,11.890625 c -2.197292,0 -4,1.802708 -4,4 0,2.197292 1.802708,4 4,4 2.197293,0 4,-1.802708 4,-4 0,-2.197292 -1.802707,-4 -4,-4 z m 0,2 c 1.116413,0 2,0.883587 2,2 0,1.116413 -0.883587,2 -2,2 -1.116413,0 -2,-0.883587 -2,-2 0,-1.116413 0.883587,-2 2,-2 z"
     id="circle4" />
  <path
     style="color:#000000;fill:#000000;-inkscape-stroke:none"
     d="m 8.109375,3.4003906 c -2.1972922,0 -4,1.8027079 -4,4 0,2.1972922 1.8027078,4.0000004 4,4.0000004 2.197292,0 4,-1.8027082 4,-4.0000004 0,-2.1972921 -1.802708,-4 -4,-4 z m 0,2 c 1.116413,0 2,0.883587 2,2 0,1.116413 -0.883587,2 -2,2 -1.116413,0 -2,-0.883587 -2,-2 0,-1.116413 0.883587,-2 2,-2 z"
     id="circle6" />
  <path
     style="color:#000000;fill:#000000;-inkscape-stroke:none"
     d="m 12.349609,7.6503906 c -2.197292,0 -3.9999996,1.8027079 -3.9999996,4.0000004 0,2.197292 1.8027076,4 3.9999996,4 2.197293,0 4,-1.802708 4,-4 0,-2.1972925 -1.802707,-4.0000004 -4,-4.0000004 z m 0,2 c 1.116413,0 2,0.8835874 2,2.0000004 0,1.116413 -0.883587,2 -2,2 -1.116413,0 -2,-0.883587 -2,-2 0,-1.116413 0.883587,-2.0000004 2,-2.0000004 z"
     id="circle8" />
  <path
     style="color:#000000;fill:#000000;-inkscape-stroke:none"
     d="m 13.910156,1.8496094 c -2.197292,0 -3.9999998,1.8027078 -3.9999997,4 0,2.1972921 1.8027077,4 3.9999997,4 2.197292,0 4,-1.8027079 4,-4 0,-2.1972922 -1.802708,-4 -4,-4 z m 0,2 c 1.116413,0 2,0.883587 2,2 0,1.116413 -0.883587,2 -2,2 -1.116413,0 -2,-0.883587 -2,-2 0,-1.116413 0.883587,-2 2,-2 z"
     id="circle10" />
  <path
     style="color:#000000;fill:#000000;-inkscape-stroke:none"
     d="m 18.150391,6.0898437 c -2.197293,0 -4,1.8027079 -4,4.0000003 0,2.197292 1.802707,4 4,4 2.197292,0 4,-1.802708 4,-4 0,-2.1972924 -1.802708,-4.0000002 -4,-4.0000003 z m 0,2.0000001 c 1.116413,0 2,0.8835869 2,2.0000002 0,1.116413 -0.883587,2 -2,2 -1.116413,0 -2,-0.883587 -2,-2 0,-1.1164133 0.883587,-2.0000002 2,-2.0000002 z"
     id="circle12" />
  <path
     style="color:#000000;fill:#000000;-inkscape-stroke:none"
     d="m 6.5605469,9.1992188 c -2.1972922,0 -4,1.8027082 -4,4.0000002 0,2.197292 1.8027078,4 4,4 2.1972921,0 4.0000001,-1.802708 4.0000001,-4 0,-2.197292 -1.802708,-4.0000003 -4.0000001,-4.0000002 z m 0,2.0000002 c 1.116413,0 2,0.883587 2,2 0,1.116413 -0.883587,2 -2,2 -1.116413,0 -2,-0.883587 -2,-2 0,-1.116413 0.883587,-2 2,-2 z"
     id="circle14" />
  <path
     style="color:#000000;fill:#000000;-inkscape-stroke:none"
     d="m 10.800781,13.439453 c -2.1972919,0 -3.9999998,1.802708 -3.9999998,4 0,2.197292 1.8027079,4 3.9999998,4 2.197292,0 4,-1.802708 4,-4 0,-2.197292 -1.802708,-4 -4,-4 z m 0,2 c 1.116413,0 2,0.883587 2,2 0,1.116413 -0.883587,2 -2,2 -1.1164128,0 -1.9999997,-0.883587 -1.9999997,-2 0,-1.116413 0.8835869,-2 1.9999997,-2 z"
     id="circle16" />
  <path
     style="color:#000000;fill:#000000;-inkscape-stroke:none"
     d="m 5,15 c -2.1972922,0 -4,1.802708 -4,4 0,2.197292 1.8027078,4 4,4 2.1972922,0 4,-1.802708 4,-4 0,-2.197292 -1.8027078,-4 -4,-4 z m 0,2 c 1.116413,0 2,0.883587 2,2 0,1.116413 -0.883587,2 -2,2 -1.116413,0 -2,-0.883587 -2,-2 0,-1.116413 0.883587,-2 2,-2 z"
     id="circle18" />
</svg>
