<?xml version="1.0" encoding="UTF-8" standalone="no"?>
<svg
   width="24"
   height="24"
   viewBox="0 0 24 24"
   fill="none"
   stroke="currentColor"
   stroke-width="2"
   stroke-linecap="round"
   stroke-linejoin="round"
   version="1.1"
   id="svg20"
   xmlns="http://www.w3.org/2000/svg"
   xmlns:svg="http://www.w3.org/2000/svg">
  <defs
     id="defs24" />
  <path
     style="color:#000000;fill:#000000;-inkscape-stroke:none"
     d="m 12,3 c -1.092724,0 -2,0.9072762 -2,2 0,1.0927238 0.907276,2 2,2 1.092724,0 2,-0.9072762 2,-2 0,-1.0927238 -0.907276,-2 -2,-2 z"
     id="circle2" />
  <path
     style="color:#000000;fill:#000000;-inkscape-stroke:none"
     d="m 19,3 c -1.092724,0 -2,0.9072762 -2,2 0,1.0927238 0.907276,2 2,2 1.092724,0 2,-0.9072762 2,-2 0,-1.0927238 -0.907276,-2 -2,-2 z"
     id="circle4" />
  <path
     style="color:#000000;fill:#000000;-inkscape-stroke:none"
     d="M 5,3 C 3.9072762,3 3,3.9072762 3,5 3,6.0927238 3.9072762,7 5,7 6.0927238,7 7,6.0927238 7,5 7,3.9072762 6.0927238,3 5,3 Z"
     id="circle6" />
  <path
     style="color:#000000;fill:#000000;-inkscape-stroke:none"
     d="m 12,10 c -1.092724,0 -2,0.907276 -2,2 0,1.092724 0.907276,2 2,2 1.092724,0 2,-0.907276 2,-2 0,-1.092724 -0.907276,-2 -2,-2 z"
     id="circle8" />
  <path
     style="color:#000000;fill:#000000;-inkscape-stroke:none"
     d="m 19,10 c -1.092724,0 -2,0.907276 -2,2 0,1.092724 0.907276,2 2,2 1.092724,0 2,-0.907276 2,-2 0,-1.092724 -0.907276,-2 -2,-2 z"
     id="circle10" />
  <path
     style="color:#000000;fill:#000000;-inkscape-stroke:none"
     d="m 5,10 c -1.0927238,0 -2,0.907276 -2,2 0,1.092724 0.9072762,2 2,2 1.0927238,0 2,-0.907276 2,-2 0,-1.092724 -0.9072762,-2 -2,-2 z"
     id="circle12" />
  <path
     style="color:#000000;fill:#000000;-inkscape-stroke:none"
     d="m 12,17 c -1.092724,0 -2,0.907276 -2,2 0,1.092724 0.907276,2 2,2 1.092724,0 2,-0.907276 2,-2 0,-1.092724 -0.907276,-2 -2,-2 z"
     id="circle14" />
  <path
     style="color:#000000;fill:#000000;-inkscape-stroke:none"
     d="m 19,17 c -1.092724,0 -2,0.907276 -2,2 0,1.092724 0.907276,2 2,2 1.092724,0 2,-0.907276 2,-2 0,-1.092724 -0.907276,-2 -2,-2 z"
     id="circle16" />
  <path
     style="color:#000000;fill:#000000;-inkscape-stroke:none"
     d="m 5,17 c -1.0927238,0 -2,0.907276 -2,2 0,1.092724 0.9072762,2 2,2 1.0927238,0 2,-0.907276 2,-2 0,-1.092724 -0.9072762,-2 -2,-2 z"
     id="circle18" />
</svg>
