<?xml version="1.0" encoding="UTF-8" standalone="no"?>
<svg
   width="24"
   height="24"
   viewBox="0 0 24 24"
   fill="none"
   stroke="currentColor"
   stroke-width="2"
   stroke-linecap="round"
   stroke-linejoin="round"
   version="1.1"
   id="svg14"
   xmlns="http://www.w3.org/2000/svg"
   xmlns:svg="http://www.w3.org/2000/svg">
  <defs
     id="defs18" />
  <path
     style="color:#000000;fill:#000000;-inkscape-stroke:none"
     d="m 12,7 c -1.092724,0 -2,0.9072762 -2,2 0,1.092724 0.907276,2 2,2 1.092724,0 2,-0.907276 2,-2 0,-1.0927238 -0.907276,-2 -2,-2 z"
     id="circle2" />
  <path
     style="color:#000000;fill:#000000;-inkscape-stroke:none"
     d="m 19,7 c -1.092724,0 -2,0.9072762 -2,2 0,1.092724 0.907276,2 2,2 1.092724,0 2,-0.907276 2,-2 0,-1.0927238 -0.907276,-2 -2,-2 z"
     id="circle4" />
  <path
     style="color:#000000;fill:#000000;-inkscape-stroke:none"
     d="M 5,7 C 3.9072762,7 3,7.9072762 3,9 3,10.092724 3.9072762,11 5,11 6.0927238,11 7,10.092724 7,9 7,7.9072762 6.0927238,7 5,7 Z"
     id="circle6" />
  <path
     style="color:#000000;fill:#000000;-inkscape-stroke:none"
     d="m 12,13 c -1.092724,0 -2,0.907276 -2,2 0,1.092724 0.907276,2 2,2 1.092724,0 2,-0.907276 2,-2 0,-1.092724 -0.907276,-2 -2,-2 z"
     id="circle8" />
  <path
     style="color:#000000;fill:#000000;-inkscape-stroke:none"
     d="m 19,13 c -1.092724,0 -2,0.907276 -2,2 0,1.092724 0.907276,2 2,2 1.092724,0 2,-0.907276 2,-2 0,-1.092724 -0.907276,-2 -2,-2 z"
     id="circle10" />
  <path
     style="color:#000000;fill:#000000;-inkscape-stroke:none"
     d="m 5,13 c -1.0927238,0 -2,0.907276 -2,2 0,1.092724 0.9072762,2 2,2 1.0927238,0 2,-0.907276 2,-2 0,-1.092724 -0.9072762,-2 -2,-2 z"
     id="circle12" />
</svg>
