<?xml version="1.0" encoding="UTF-8" standalone="no"?>
<svg
   width="24"
   height="24"
   viewBox="0 0 24 24"
   fill="none"
   stroke="currentColor"
   stroke-width="2"
   stroke-linecap="round"
   stroke-linejoin="round"
   version="1.1"
   id="svg8"
   xmlns="http://www.w3.org/2000/svg"
   xmlns:svg="http://www.w3.org/2000/svg">
  <defs
     id="defs12" />
  <path
     style="color:#000000;fill:#000000;-inkscape-stroke:none"
     d="M 12,8 A 1,1 0 0 0 11.292969,8.2929688 L 2.7929688,16.792969 c -1.2118545,1.210345 -1.2118545,3.203717 0,4.414062 1.2105301,1.21053 3.2035323,1.21053 4.4140624,0 l 8.4999998,-8.5 a 1,1 0 0 0 0,-1.414062 1,1 0 0 0 -1.414062,0 l -8.5000003,8.5 c -0.4494681,0.449468 -1.1364693,0.449468 -1.5859375,0 -0.446458,-0.445902 -0.446458,-1.140036 0,-1.585938 L 12.707031,9.7070313 a 1,1 0 0 0 0,-1.4140625 A 1,1 0 0 0 12,8 Z"
     id="path2" />
  <path
     style="color:#000000;fill:#000000;-inkscape-stroke:none"
     d="m 21.292969,9.9335938 -4.359375,4.3593752 a 1,1 0 0 0 0,1.414062 1,1 0 0 0 1.414062,0 l 4.359375,-4.359375 a 1,1 0 0 0 0,-1.4140622 1,1 0 0 0 -1.414062,0 z"
     id="path4" />
  <path
     style="color:#000000;fill:#000000;-inkscape-stroke:none"
     d="M 9,1.9609375 A 1.0001,1.0001 0 0 0 8.3339844,3.7070313 l 0.9199219,0.8203124 a 1.0001,1.0001 0 0 0 0.00195,0 C 10.364155,5.5100214 10.999014,6.9191836 11,8.4003906 v 1.5605469 a 1.0001,1.0001 0 0 0 0.292969,0.7070315 l 2,2 A 1.0001,1.0001 0 0 0 14,12.960938 h 2.103516 l 1.980468,1.671875 A 1,1 0 0 0 19.494141,14.515625 1,1 0 0 0 19.375,13.105469 l -2.259766,-1.910156 a 1.0001,1.0001 0 0 0 -0.644531,-0.234375 h -2.05664 L 13,9.5449219 V 8.4003906 a 1.0001,1.0001 0 0 0 0,-0.00195 c -0.0011,-1.6585731 -0.701062,-3.1680425 -1.732422,-4.4375 h 0.802735 c 1.213546,6.536e-4 2.374874,0.4831372 3.230468,1.34375 l 2.429688,2.4472656 v 0.4472657 c 0,1.1088224 0.438023,2.1723982 1.222656,2.9570312 l 1.25,1.25 a 1,1 0 0 0 1.414062,0 1,1 0 0 0 0,-1.414062 l -1.25,-1.2500005 C 19.951821,9.3268214 19.730469,8.7903946 19.730469,8.1992188 V 7.3398437 A 1.0001,1.0001 0 0 0 19.439453,6.6347656 L 16.71875,3.8945313 C 15.488566,2.6571312 13.815165,1.9618773 12.070313,1.9609375 Z"
     id="path6" />
</svg>
