<?xml version="1.0" encoding="UTF-8" standalone="no"?>
<svg
   width="24"
   height="24"
   viewBox="0 0 24 24"
   fill="none"
   stroke="currentColor"
   stroke-width="2"
   stroke-linecap="round"
   stroke-linejoin="round"
   version="1.1"
   id="svg10"
   xmlns="http://www.w3.org/2000/svg"
   xmlns:svg="http://www.w3.org/2000/svg">
  <defs
     id="defs14" />
  <path
     style="color:#000000;fill:#000000;-inkscape-stroke:none"
     d="m 16,7 c -1.645008,0 -3,1.354992 -3,3 v 1.400391 a 1,1 0 0 0 1,1 1,1 0 0 0 1,-1 V 10 c 0,-0.5641288 0.435871,-1 1,-1 0.564129,0 1,0.4358712 1,1 v 2.5 a 1,1 0 0 0 1,1 1,1 0 0 0 1,-1 V 10 C 19,8.354992 17.645008,7 16,7 Z"
     id="path2" />
  <path
     style="color:#000000;fill:#000000;-inkscape-stroke:none"
     d="M 12,6 C 11.277779,6 10.542119,6.2353477 9.9609375,6.7519531 9.3797562,7.2685585 9,8.0833344 9,9 v 2 a 1,1 0 0 0 1,1 1,1 0 0 0 1,-1 V 9 C 11,8.5833341 11.120245,8.3981072 11.289063,8.2480469 11.45788,8.0979866 11.722222,8 12,8 12.277778,8 12.54212,8.0979866 12.710938,8.2480469 12.879755,8.3981072 13,8.5833341 13,9 v 2 a 1,1 0 0 0 1,1 1,1 0 0 0 1,-1 V 9 C 15,8.0833344 14.620244,7.2685585 14.039063,6.7519531 13.457881,6.2353477 12.722221,6 12,6 Z"
     id="path4" />
  <path
     style="color:#000000;fill:#000000;-inkscape-stroke:none"
     d="M 8,2 C 7.2777786,2 6.5421188,2.2353477 5.9609375,2.7519531 5.3797562,3.2685585 5,4.0833344 5,5 v 9 a 1,1 0 0 0 1,1 1,1 0 0 0 1,-1 V 5 C 7,4.5833341 7.1202446,4.3981072 7.2890625,4.2480469 7.4578804,4.0979866 7.7222224,4 8,4 8.2777776,4 8.5421196,4.0979866 8.7109375,4.2480469 8.8797554,4.3981072 9,4.5833341 9,5 v 5.5 a 1,1 0 0 0 1,1 1,1 0 0 0 1,-1 V 5 C 11,4.0833344 10.620244,3.2685585 10.039063,2.7519531 9.4578812,2.2353477 8.7222214,2 8,2 Z"
     id="path6" />
  <path
     style="color:#000000;fill:#000000;-inkscape-stroke:none"
     d="M 20,4 C 19.277779,4 18.542119,4.2353477 17.960937,4.7519531 17.379756,5.2685585 17,6.0833344 17,7 v 5 a 1,1 0 0 0 1,1 1,1 0 0 0 1,-1 V 7 C 19,6.5833341 19.120245,6.3981072 19.289062,6.2480469 19.45788,6.0979866 19.722222,6 20,6 20.277778,6 20.54212,6.0979866 20.710937,6.2480469 20.879755,6.3981072 21,6.5833341 21,7 v 7 c 0,3.877834 -3.122166,7 -7,7 H 12 C 9.4060913,21 8.0736756,20.300261 6.7167969,18.953125 l -0.00195,-0.002 -3.5624999,-3.560547 -0.00195,-0.0039 C 2.8935407,15.100386 2.8495668,14.88463 2.8671875,14.664063 c 0.017719,-0.221804 0.1342569,-0.465 0.3222656,-0.652344 0.1880087,-0.187345 0.4304787,-0.303379 0.6523438,-0.320313 0.221865,-0.01693 0.4367809,0.02732 0.7246093,0.289063 l 1.7265625,1.726562 a 1,1 0 0 0 1.4140625,0 1,1 0 0 0 0,-1.414062 L 5.9472656,12.533203 A 1.0001,1.0001 0 0 0 5.9121094,12.5 C 5.260867,11.90778 4.440111,11.639971 3.6894531,11.697266 c -0.7506579,0.05729 -1.4147283,0.400861 -1.9121094,0.896484 -0.497381,0.495623 -0.84434502,1.159706 -0.90429682,1.910156 -0.0599518,0.750451 0.20501102,1.573228 0.79492182,2.226563 a 1.0001,1.0001 0 0 0 0.035156,0.03711 l 3.5996094,3.599609 a 1.0001,1.0001 0 0 0 0.00195,0.002 C 6.9270864,21.980651 8.9952411,23 12,23 h 2 c 4.958713,0 9,-4.041287 9,-9 V 7 C 23,6.0833344 22.620244,5.2685585 22.039062,4.7519531 21.457881,4.2353477 20.722221,4 20,4 Z"
     id="path8" />
</svg>
