<?xml version="1.0" encoding="UTF-8" standalone="no"?>
<svg
   width="24"
   height="24"
   viewBox="0 0 24 24"
   fill="none"
   stroke="currentColor"
   stroke-width="2"
   stroke-linecap="round"
   stroke-linejoin="round"
   version="1.1"
   id="svg10"
   xmlns="http://www.w3.org/2000/svg"
   xmlns:svg="http://www.w3.org/2000/svg">
  <defs
     id="defs14" />
  <path
     style="color:#000000;fill:#000000;-inkscape-stroke:none"
     d="m 3,14 c -1.0927238,0 -2,0.907276 -2,2 v 2 c 0,1.092724 0.9072762,2 2,2 h 18 c 1.092724,0 2,-0.907276 2,-2 v -2 c 0,-1.092724 -0.907276,-2 -2,-2 z m 0,2 h 18 v 2 H 3 Z"
     id="path2" />
  <path
     style="color:#000000;fill:#000000;-inkscape-stroke:none"
     d="M 11,3 C 9.9072762,3 9,3.9072762 9,5 v 5 a 1,1 0 0 0 1,1 1,1 0 0 0 1,-1 V 5 h 2 v 5 a 1,1 0 0 0 1,1 1,1 0 0 0 1,-1 V 5 C 15,3.9072762 14.092724,3 13,3 Z"
     id="path4" />
  <path
     style="color:#000000;fill:#000000;-inkscape-stroke:none"
     d="M 10,5 C 6.1458552,5 3,8.1458552 3,12 v 3 a 1,1 0 0 0 1,1 1,1 0 0 0 1,-1 V 12 C 5,9.2267344 7.2267344,7 10,7 A 1,1 0 0 0 11,6 1,1 0 0 0 10,5 Z"
     id="path6" />
  <path
     style="color:#000000;fill:#000000;-inkscape-stroke:none"
     d="m 14,5 a 1,1 0 0 0 -1,1 1,1 0 0 0 1,1 c 2.773266,0 5,2.2267344 5,5 v 3 a 1,1 0 0 0 1,1 1,1 0 0 0 1,-1 V 12 C 21,8.1458552 17.854145,5 14,5 Z"
     id="path8" />
</svg>
