<?xml version="1.0" encoding="UTF-8" standalone="no"?>
<svg
   width="24"
   height="24"
   viewBox="0 0 24 24"
   fill="none"
   stroke="currentColor"
   stroke-width="2"
   stroke-linecap="round"
   stroke-linejoin="round"
   version="1.1"
   id="svg18"
   xmlns="http://www.w3.org/2000/svg"
   xmlns:svg="http://www.w3.org/2000/svg">
  <defs
     id="defs22" />
  <path
     style="color:#000000;fill:#000000;-inkscape-stroke:none"
     d="m 5.1992187,5.1992187 a 1,1 0 0 0 -0.7070312,0.2929688 1,1 0 0 0 0,1.4140625 l 1.4003906,1.4003906 a 1,1 0 0 0 1.4140625,0 1,1 0 0 0 0,-1.4140625 L 5.90625,5.4921875 A 1,1 0 0 0 5.1992187,5.1992187 Z"
     id="path2" />
  <path
     style="color:#000000;fill:#000000;-inkscape-stroke:none"
     d="m 2,12 a 1,1 0 0 0 -1,1 1,1 0 0 0 1,1 H 4 A 1,1 0 0 0 5,13 1,1 0 0 0 4,12 Z"
     id="path4" />
  <path
     style="color:#000000;fill:#000000;-inkscape-stroke:none"
     d="m 20,12 a 1,1 0 0 0 -1,1 1,1 0 0 0 1,1 h 2 a 1,1 0 0 0 1,-1 1,1 0 0 0 -1,-1 z"
     id="path6" />
  <path
     style="color:#000000;fill:#000000;-inkscape-stroke:none"
     d="M 18.800781,5.1992187 A 1,1 0 0 0 18.09375,5.4921875 l -1.400391,1.4003906 a 1,1 0 0 0 0,1.4140625 1,1 0 0 0 1.414063,0 L 19.507812,6.90625 a 1,1 0 0 0 0,-1.4140625 1,1 0 0 0 -0.707031,-0.2929688 z"
     id="path8" />
  <path
     style="color:#000000;fill:#000000;-inkscape-stroke:none"
     d="m 2,16 a 1,1 0 0 0 -1,1 1,1 0 0 0 1,1 h 20 a 1,1 0 0 0 1,-1 1,1 0 0 0 -1,-1 z"
     id="path10" />
  <path
     style="color:#000000;fill:#000000;-inkscape-stroke:none"
     d="m 2,20 a 1,1 0 0 0 -1,1 1,1 0 0 0 1,1 h 20 a 1,1 0 0 0 1,-1 1,1 0 0 0 -1,-1 z"
     id="path12" />
  <path
     style="color:#000000;fill:#000000;-inkscape-stroke:none"
     d="M 12,8 C 10.777779,8 9.5421185,8.4020149 8.5859375,9.2519531 7.6297565,10.101891 7,11.416669 7,13 a 1,1 0 0 0 1,1 1,1 0 0 0 1,-1 C 9,11.916668 9.370245,11.23144 9.9140625,10.748047 10.45788,10.264654 11.222223,10 12,10 c 0.777777,0 1.54212,0.264654 2.085938,0.748047 C 14.629755,11.23144 15,11.916668 15,13 a 1,1 0 0 0 1,1 1,1 0 0 0 1,-1 C 17,11.416669 16.370243,10.101891 15.414063,9.2519531 14.457882,8.4020149 13.222221,8 12,8 Z"
     id="path14" />
  <path
     style="color:#000000;fill:#000000;-inkscape-stroke:none"
     d="m 12,1.5 a 1,1 0 0 0 -1,1 V 5 a 1,1 0 0 0 1,1 1,1 0 0 0 1,-1 V 2.5 a 1,1 0 0 0 -1,-1 z"
     id="path16" />
</svg>
