<?xml version="1.0" encoding="UTF-8" standalone="no"?>
<svg
   width="24"
   height="24"
   viewBox="0 0 24 24"
   fill="none"
   stroke="currentColor"
   stroke-width="2"
   stroke-linecap="round"
   stroke-linejoin="round"
   version="1.1"
   id="svg12"
   xmlns="http://www.w3.org/2000/svg"
   xmlns:svg="http://www.w3.org/2000/svg">
  <defs
     id="defs16" />
  <path
     style="color:#000000;fill:#000000;-inkscape-stroke:none"
     d="m 4,11 a 1,1 0 0 0 -1,1 1,1 0 0 0 1,1 h 8 a 1,1 0 0 0 1,-1 1,1 0 0 0 -1,-1 z"
     id="path2" />
  <path
     style="color:#000000;fill:#000000;-inkscape-stroke:none"
     d="M 4,5 A 1,1 0 0 0 3,6 v 12 a 1,1 0 0 0 1,1 1,1 0 0 0 1,-1 V 6 A 1,1 0 0 0 4,5 Z"
     id="path4" />
  <path
     style="color:#000000;fill:#000000;-inkscape-stroke:none"
     d="m 12,5 a 1,1 0 0 0 -1,1 v 12 a 1,1 0 0 0 1,1 1,1 0 0 0 1,-1 V 6 A 1,1 0 0 0 12,5 Z"
     id="path6" />
  <path
     style="color:#000000;fill:#000000;-inkscape-stroke:none"
     d="m 18.705078,9.1074219 c -0.570499,0.033171 -1.158638,0.205219 -1.712891,0.53125 a 1,1 0 0 0 -0.353515,1.3691411 1,1 0 0 0 1.36914,0.353515 c 0.591494,-0.347937 1.097897,-0.312092 1.453125,-0.144531 C 19.816166,11.384357 20,11.65 20,12 c 0,0.564129 -0.435871,1 -1,1 a 1,1 0 0 0 -1,1 1,1 0 0 0 1,1 c 1.645008,0 3,-1.354992 3,-3 C 22,10.850001 21.284224,9.865642 20.314453,9.4082031 19.829568,9.1794837 19.275578,9.0742505 18.705078,9.1074219 Z"
     id="path8" />
  <path
     style="color:#000000;fill:#000000;-inkscape-stroke:none"
     d="m 19,13 a 1,1 0 0 0 -1,1 1,1 0 0 0 1,1 c 0.564129,0 1,0.435871 1,1 0,0.529629 -0.264055,0.897927 -0.660156,1.076172 -0.396101,0.178245 -0.970635,0.200246 -1.740235,-0.376953 a 1,1 0 0 0 -1.40039,0.201172 1,1 0 0 0 0.201172,1.40039 c 1.230398,0.922799 2.655868,1.096364 3.759765,0.59961 C 21.264054,18.403637 22,17.270369 22,16 22,14.354992 20.645008,13 19,13 Z"
     id="path10" />
</svg>
