<?xml version="1.0" encoding="UTF-8" standalone="no"?>
<svg
   width="24"
   height="24"
   viewBox="0 0 24 24"
   fill="none"
   stroke="currentColor"
   stroke-width="2"
   stroke-linecap="round"
   stroke-linejoin="round"
   version="1.1"
   id="svg10"
   xmlns="http://www.w3.org/2000/svg"
   xmlns:svg="http://www.w3.org/2000/svg">
  <defs
     id="defs14" />
  <path
     style="color:#000000;fill:#000000;-inkscape-stroke:none"
     d="m 4,11 a 1,1 0 0 0 -1,1 1,1 0 0 0 1,1 h 8 a 1,1 0 0 0 1,-1 1,1 0 0 0 -1,-1 z"
     id="path2" />
  <path
     style="color:#000000;fill:#000000;-inkscape-stroke:none"
     d="M 4,5 A 1,1 0 0 0 3,6 v 12 a 1,1 0 0 0 1,1 1,1 0 0 0 1,-1 V 6 A 1,1 0 0 0 4,5 Z"
     id="path4" />
  <path
     style="color:#000000;fill:#000000;-inkscape-stroke:none"
     d="m 12,5 a 1,1 0 0 0 -1,1 v 12 a 1,1 0 0 0 1,1 1,1 0 0 0 1,-1 V 6 A 1,1 0 0 0 12,5 Z"
     id="path6" />
  <path
     style="color:#000000;fill:#000000;-inkscape-stroke:none"
     d="m 18.277344,9.3339844 c -0.627659,0.1254144 -1.270287,0.4102348 -1.876953,0.8652346 a 1,1 0 0 0 -0.201172,1.40039 1,1 0 0 0 1.40039,0.201172 c 0.786666,-0.589999 1.431836,-0.610612 1.833985,-0.476562 C 19.835743,11.458268 20,11.694445 20,12 c 0,0.527777 -0.11217,0.704002 -0.345703,0.947266 -0.233533,0.243264 -0.658186,0.501698 -1.183594,0.830078 -0.525408,0.32838 -1.154951,0.74504 -1.654297,1.43164 C 16.317061,15.895585 16,16.833334 16,18 a 1.0001,1.0001 0 0 0 1,1 h 4 a 1,1 0 0 0 1,-1 1,1 0 0 0 -1,-1 h -2.732422 c 0.0695,-0.174947 0.07051,-0.483913 0.166016,-0.615234 0.250653,-0.344649 0.621112,-0.61549 1.095703,-0.91211 0.474591,-0.296619 1.04994,-0.600686 1.566406,-1.138672 C 21.612169,13.795999 22,12.972221 22,12 22,10.805557 21.164256,9.7917311 20.066406,9.4257813 19.517482,9.2428063 18.905002,9.2085699 18.277344,9.3339844 Z"
     id="path8" />
</svg>
