<?xml version="1.0" encoding="UTF-8" standalone="no"?>
<svg
   width="24"
   height="24"
   viewBox="0 0 24 24"
   fill="none"
   stroke="currentColor"
   stroke-width="2"
   stroke-linecap="round"
   stroke-linejoin="round"
   version="1.1"
   id="svg4"
   xmlns="http://www.w3.org/2000/svg"
   xmlns:svg="http://www.w3.org/2000/svg">
  <defs
     id="defs8" />
  <path
     style="color:#000000;fill:#000000;-inkscape-stroke:none"
     d="M 12,2 C 6.4890037,2 2,6.4889996 2,12 v 2 5 c 0,1.645008 1.354992,3 3,3 h 1 c 1.645008,0 3,-1.354992 3,-3 V 16 C 9,14.354992 7.645008,13 6,13 H 4 v -1 c 0,-4.4301219 3.5698809,-8 8,-8 4.430119,0 8,3.5698781 8,8 v 1 h -2 c -1.645008,0 -3,1.354992 -3,3 v 3 c 0,1.645008 1.354992,3 3,3 h 1 c 1.645008,0 3,-1.354992 3,-3 V 14 12 C 22,6.4889996 17.510996,2 12,2 Z M 4,15 h 2 c 0.5641288,0 1,0.435871 1,1 v 3 c 0,0.564129 -0.4358712,1 -1,1 H 5 C 4.4358712,20 4,19.564129 4,19 Z m 14,0 h 2 v 4 c 0,0.564129 -0.435871,1 -1,1 h -1 c -0.564129,0 -1,-0.435871 -1,-1 v -3 c 0,-0.564129 0.435871,-1 1,-1 z"
     id="path2" />
</svg>
