<?xml version="1.0" encoding="UTF-8" standalone="no"?>
<svg
   width="24"
   height="24"
   viewBox="0 0 24 24"
   fill="none"
   stroke="currentColor"
   stroke-width="2"
   stroke-linecap="round"
   stroke-linejoin="round"
   version="1.1"
   id="svg12"
   xmlns="http://www.w3.org/2000/svg"
   xmlns:svg="http://www.w3.org/2000/svg">
  <defs
     id="defs16" />
  <path
     style="color:#000000;fill:#000000;-inkscape-stroke:none"
     d="m 4,11 a 1,1 0 0 0 -1,1 1,1 0 0 0 1,1 h 8 a 1,1 0 0 0 1,-1 1,1 0 0 0 -1,-1 z"
     id="path2" />
  <path
     style="color:#000000;fill:#000000;-inkscape-stroke:none"
     d="M 4,5 A 1,1 0 0 0 3,6 v 12 a 1,1 0 0 0 1,1 1,1 0 0 0 1,-1 V 6 A 1,1 0 0 0 4,5 Z"
     id="path4" />
  <path
     style="color:#000000;fill:#000000;-inkscape-stroke:none"
     d="m 12,5 a 1,1 0 0 0 -1,1 v 12 a 1,1 0 0 0 1,1 1,1 0 0 0 1,-1 V 6 A 1,1 0 0 0 12,5 Z"
     id="path6" />
  <path
     style="color:#000000;fill:#000000;-inkscape-stroke:none"
     d="m 17,9 a 1,1 0 0 0 -1,1 v 4 a 1.0001,1.0001 0 0 0 1,1 h 4 a 1,1 0 0 0 1,-1 1,1 0 0 0 -1,-1 H 18 V 10 A 1,1 0 0 0 17,9 Z"
     id="path8" />
  <path
     style="color:#000000;fill:#000000;-inkscape-stroke:none"
     d="m 21,9 a 1,1 0 0 0 -1,1 v 8 a 1,1 0 0 0 1,1 1,1 0 0 0 1,-1 V 10 A 1,1 0 0 0 21,9 Z"
     id="path10" />
</svg>
