<?xml version="1.0" encoding="UTF-8" standalone="no"?>
<svg
   width="24"
   height="24"
   viewBox="0 0 24 24"
   fill="none"
   stroke="currentColor"
   stroke-width="2"
   stroke-linecap="round"
   stroke-linejoin="round"
   version="1.1"
   id="svg10"
   xmlns="http://www.w3.org/2000/svg"
   xmlns:svg="http://www.w3.org/2000/svg">
  <defs
     id="defs14" />
  <path
     style="color:#000000;fill:#000000;-inkscape-stroke:none"
     d="M 7.5,2 C 3.9219973,2 1,4.9219973 1,8.5 c 0,2.73478 1.7551321,4.720846 3.3046875,6.21875 l 6.9882815,6.988281 a 1.0001,1.0001 0 0 0 1.414062,0 l 6.992188,-6.992187 C 21.233304,13.211647 23,11.22959 23,8.5 23,4.9219973 20.078003,2 16.5,2 14.828696,2 13.396797,2.6325188 12,3.7929688 10.603203,2.6325188 9.1713035,2 7.5,2 Z m 0,2 c 1.5706045,0 2.4092499,0.3233124 3.792969,1.7070312 a 1.0001,1.0001 0 0 0 1.414062,0 C 14.09075,4.3233124 14.929396,4 16.5,4 18.997124,4 21,6.0028765 21,8.5 c 0,1.850406 -1.253307,3.368356 -2.699219,4.785156 a 1.0001,1.0001 0 0 0 -0.0078,0.0078 L 12,19.585937 5.7070312,13.292969 A 1.0001,1.0001 0 0 0 5.6953125,13.28125 C 4.2448709,11.879156 3,10.365216 3,8.5 3,6.0028765 5.0028765,4 7.5,4 Z"
     id="path2" />
  <path
     style="color:#000000;fill:#000000;-inkscape-stroke:none"
     d="M 12,4 A 1,1 0 0 0 11.292969,4.2929687 L 8.3359375,7.25 c -1.2402669,1.2312654 -1.2402669,3.268735 0,4.5 1.1882071,1.184698 3.1212715,1.225999 4.3710935,0.105469 a 1.0001,1.0001 0 0 0 0.0098,-0.0078 l 2.064453,-1.8964841 0.002,-0.00195 c 0.700217,-0.633552 1.745759,-0.6328203 2.445313,0.00195 a 1.0001,1.0001 0 0 0 0.0039,0.00195 l 2.958984,2.660156 a 1,1 0 0 0 1.41211,-0.07422 1,1 0 0 0 -0.07422,-1.41211 L 18.568359,8.4667969 C 17.11844,7.1542485 14.886219,7.1541864 13.4375,8.46875 a 1.0001,1.0001 0 0 0 -0.0039,0.00391 l -2.060547,1.8925777 c -5.03e-4,4.52e-4 -0.0015,-4.5e-4 -0.002,0 -0.488914,0.437037 -1.171438,0.418406 -1.6230471,-0.0332 a 1.0001,1.0001 0 0 0 -0.00391,-0.002 c -0.4695365,-0.4661286 -0.4695365,-1.1940274 0,-1.6601561 a 1.0001,1.0001 0 0 0 0.00391,-0.00195 L 12.707031,5.7070312 a 1,1 0 0 0 0,-1.4140625 A 1,1 0 0 0 12,4 Z"
     id="path4" />
  <path
     style="color:#000000;fill:#000000;-inkscape-stroke:none"
     d="m 15.292969,12.292969 a 1,1 0 0 0 0,1.414062 l 2,2 a 1,1 0 0 0 1.414062,0 1,1 0 0 0 0,-1.414062 l -2,-2 a 1,1 0 0 0 -1.414062,0 z"
     id="path6" />
  <path
     style="color:#000000;fill:#000000;-inkscape-stroke:none"
     d="m 13,15 a 1,1 0 0 0 -0.707031,0.292969 1,1 0 0 0 0,1.414062 l 2,2 a 1,1 0 0 0 1.414062,0 1,1 0 0 0 0,-1.414062 l -2,-2 A 1,1 0 0 0 13,15 Z"
     id="path8" />
</svg>
