<?xml version="1.0" encoding="UTF-8" standalone="no"?>
<svg
   width="24"
   height="24"
   viewBox="0 0 24 24"
   fill="none"
   stroke="currentColor"
   stroke-width="2"
   stroke-linecap="round"
   stroke-linejoin="round"
   version="1.1"
   id="svg8"
   xmlns="http://www.w3.org/2000/svg"
   xmlns:svg="http://www.w3.org/2000/svg">
  <defs
     id="defs12" />
  <path
     style="color:#000000;fill:#000000;-inkscape-stroke:none"
     d="m 2,1 a 1,1 0 0 0 -0.7070313,0.2929687 1,1 0 0 0 0,1.4140626 L 21.292969,22.707031 a 1,1 0 0 0 1.414062,0 1,1 0 0 0 0,-1.414062 L 2.7070313,1.2929687 A 1,1 0 0 0 2,1 Z"
     id="line2" />
  <path
     style="color:#000000;fill:#000000;-inkscape-stroke:none"
     d="M 3.5292969,3.3574219 C 1.9364158,4.5865539 1.0015933,6.4880276 1,8.5 c 0,2.73478 1.7551321,4.720846 3.3046875,6.21875 l 6.9882815,6.988281 a 1.0001,1.0001 0 0 0 1.414062,0 l 4.5,-4.5 a 1,1 0 0 0 0,-1.414062 1,1 0 0 0 -1.414062,0 L 12,19.585937 5.7070312,13.292969 A 1.0001,1.0001 0 0 0 5.6953125,13.28125 C 4.2448709,11.879156 3,10.365216 3,8.5 3.0011041,7.1057235 3.6461496,5.7931823 4.75,4.9414062 A 1,1 0 0 0 4.9316406,3.5390625 1,1 0 0 0 3.5292969,3.3574219 Z"
     id="path4" />
  <path
     style="color:#000000;fill:#000000;-inkscape-stroke:none"
     d="M 16.5,2 C 14.844521,2 13.425506,2.6285857 12.041016,3.765625 11.055217,2.9263191 10.053194,2.3287564 8.9472656,2.1171875 A 1,1 0 0 0 7.7773437,2.9121094 1,1 0 0 0 8.5722656,4.0820312 C 9.517645,4.2628864 10.268901,4.6737725 11.289063,5.703125 a 1.0001,1.0001 0 0 0 1.417968,0.00391 C 14.09075,4.3233124 14.929396,4 16.5,4 18.997124,4 21,6.0028765 21,8.5 c 0,1.711193 -1.070214,3.13699 -2.382813,4.46875 a 1,1 0 0 0 0.01172,1.414063 1,1 0 0 0 1.414063,-0.01172 C 21.470368,12.922857 23,11.028803 23,8.5 23,4.9219973 20.078003,2 16.5,2 Z"
     id="path6" />
</svg>
