<?xml version="1.0" encoding="UTF-8" standalone="no"?>
<svg
   width="24"
   height="24"
   viewBox="0 0 24 24"
   fill="none"
   stroke="currentColor"
   stroke-width="2"
   stroke-linecap="round"
   stroke-linejoin="round"
   version="1.1"
   id="svg4"
   xmlns="http://www.w3.org/2000/svg"
   xmlns:svg="http://www.w3.org/2000/svg">
  <defs
     id="defs8" />
  <path
     style="color:#000000;fill:#000000;-inkscape-stroke:none"
     d="M 7.5,2 C 3.9219973,2 1,4.9219973 1,8.5 c 0,2.73478 1.7551321,4.720846 3.3046875,6.21875 l 6.9882815,6.988281 a 1.0001,1.0001 0 0 0 1.414062,0 l 6.992188,-6.992187 C 21.233304,13.211647 23,11.22959 23,8.5 23,4.9219973 20.078003,2 16.5,2 14.828696,2 13.396797,2.6325188 12,3.7929688 10.603203,2.6325188 9.1713035,2 7.5,2 Z m 0,2 c 1.5706045,0 2.4092499,0.3233124 3.792969,1.7070312 a 1.0001,1.0001 0 0 0 1.414062,0 C 14.09075,4.3233124 14.929396,4 16.5,4 18.997124,4 21,6.0028765 21,8.5 c 0,1.850406 -1.253307,3.368356 -2.699219,4.785156 a 1.0001,1.0001 0 0 0 -0.0078,0.0078 L 12,19.585937 5.7070312,13.292969 A 1.0001,1.0001 0 0 0 5.6953125,13.28125 C 4.2448709,11.879156 3,10.365216 3,8.5 3,6.0028765 5.0028765,4 7.5,4 Z"
     id="path2" />
</svg>
