<?xml version="1.0" encoding="UTF-8" standalone="no"?>
<svg
   width="24"
   height="24"
   viewBox="0 0 24 24"
   fill="none"
   stroke="currentColor"
   stroke-width="2"
   stroke-linecap="round"
   stroke-linejoin="round"
   version="1.1"
   id="svg6"
   xmlns="http://www.w3.org/2000/svg"
   xmlns:svg="http://www.w3.org/2000/svg">
  <defs
     id="defs10" />
  <path
     style="color:#000000;fill:#000000;-inkscape-stroke:none"
     d="m 19.966797,5.7851562 c -0.720889,0.018544 -1.477285,0.3519027 -2.039063,0.9746094 A 1.0001,1.0001 0 0 0 17.908203,6.78125 L 15.490234,9.6171875 C 15.380611,9.4036736 15.414325,9.148001 15.248047,8.9609375 14.731441,8.3797562 13.916666,8 13,8 h -2.759766 a 1.0001,1.0001 0 0 0 -0.002,0 C 9.1781573,8.0009333 8.1612635,8.4237403 7.4121094,9.1738281 L 2.2929688,14.292969 a 1,1 0 0 0 0,1.414062 1,1 0 0 0 1.4140625,0 l 5.1191406,-5.11914 a 1.0001,1.0001 0 0 0 0.00195,-0.002 C 9.2031086,10.210487 9.7095971,10.000467 10.240234,10 H 13 c 0.416666,0 0.601893,0.120245 0.751953,0.289063 C 13.902013,10.45788 14,10.722222 14,11 c 0,0.241088 -0.09736,0.450069 -0.214844,0.617188 l -0.04687,0.05469 a 1,1 0 0 0 -0.01563,0.05078 C 13.575491,11.881123 13.400347,12 13,12 h -2.5 a 1,1 0 0 0 -1,1 1,1 0 0 0 1,1 H 13 c 0.916666,0 1.731441,-0.379756 2.248047,-0.960937 0.02424,-0.02727 0.01215,-0.06778 0.03516,-0.0957 l 4.128906,-4.8437496 0.002,-0.00195 c 0.232081,-0.2561239 0.411365,-0.3095104 0.603516,-0.3144532 0.192896,-0.00496 0.418595,0.074778 0.601563,0.2226563 0.182967,0.147878 0.306186,0.3513708 0.341796,0.5410156 0.03561,0.1896448 0.02235,0.3757346 -0.18164,0.6582031 a 1.0001,1.0001 0 0 0 -0.0059,0.00781 l -4.199218,5.9394534 a 1.0001,1.0001 0 0 0 -0.002,0.002 C 16.199797,15.682017 15.599036,15.995481 14.953125,16 H 9.8300781 c -0.7991726,-6.33e-4 -1.5654896,0.317986 -2.1289062,0.884766 l -1.4082032,1.408203 a 1,1 0 0 0 0,1.414062 1,1 0 0 0 1.4140625,0 l 1.4101563,-1.410156 a 1.0001,1.0001 0 0 0 0.00195,-0.002 C 9.307316,18.105623 9.5631627,17.999789 9.8300781,18 h 5.1308599 a 1.0001,1.0001 0 0 0 0.0059,0 c 1.288867,-0.009 2.497001,-0.640333 3.240234,-1.693359 L 22.400391,10.375 C 22.891404,9.6951005 23.058865,8.886475 22.925781,8.1777344 22.792698,7.4689937 22.398944,6.8711017 21.876953,6.4492187 21.354962,6.0273358 20.687686,5.7666126 19.966797,5.7851562 Z"
     id="path2" />
  <path
     style="color:#000000;fill:#000000;-inkscape-stroke:none"
     d="m 2,13 a 1,1 0 0 0 -0.7070313,0.292969 1,1 0 0 0 0,1.414062 l 6,6 a 1,1 0 0 0 1.4140626,0 1,1 0 0 0 0,-1.414062 l -6,-6 A 1,1 0 0 0 2,13 Z"
     id="path4" />
</svg>
