<?xml version="1.0" encoding="UTF-8" standalone="no"?>
<svg
   width="24"
   height="24"
   viewBox="0 0 24 24"
   fill="none"
   stroke="currentColor"
   stroke-width="2"
   stroke-linecap="round"
   stroke-linejoin="round"
   version="1.1"
   id="svg8"
   xmlns="http://www.w3.org/2000/svg"
   xmlns:svg="http://www.w3.org/2000/svg">
  <defs
     id="defs12" />
  <path
     style="color:#000000;fill:#000000;-inkscape-stroke:none"
     d="M 12,1 C 5.9367185,1 1,5.9367185 1,12 1,18.063282 5.9367185,23 12,23 18.063282,23 23,18.063282 23,12 23,5.9367185 18.063282,1 12,1 Z m 0,2 c 4.982402,0 9,4.0175976 9,9 0,4.982402 -4.017598,9 -9,9 C 7.0175976,21 3,16.982402 3,12 3,7.0175976 7.0175976,3 12,3 Z"
     id="circle2" />
  <path
     style="color:#000000;fill:#000000;-inkscape-stroke:none"
     d="M 12.595703,6.0527344 C 10.868669,5.7565021 8.8613068,6.6359368 8.1464844,8.6679688 A 1,1 0 0 0 8.7578125,9.9433594 1,1 0 0 0 10.033203,9.3320313 c 0.405948,-1.1539921 1.315582,-1.4645163 2.22461,-1.3085938 0.909027,0.1559225 1.663931,0.751299 1.662109,1.9746094 a 1.0001,1.0001 0 0 0 0,0.00195 c 0,0.5 -0.432696,1.003308 -1.054688,1.417969 -0.621991,0.414661 -1.261718,0.632812 -1.261718,0.632812 a 1,1 0 0 0 -0.632813,1.265625 1,1 0 0 0 1.265625,0.632813 c 0,0 0.860275,-0.28185 1.738281,-0.867188 0.8776,-0.585066 1.944323,-1.581243 1.945313,-3.080078 V 10 c 0.0022,-2.1529904 -1.597734,-3.6511275 -3.324219,-3.9472656 z"
     id="path4" />
  <path
     style="color:#000000;fill:#000000;-inkscape-stroke:none"
     d="m 12,16 a 1,1 0 0 0 -1,1 1,1 0 0 0 1,1 h 0.0098 a 1,1 0 0 0 1,-1 1,1 0 0 0 -1,-1 z"
     id="path6" />
</svg>
