<?xml version="1.0" encoding="UTF-8" standalone="no"?>
<svg
   width="24"
   height="24"
   viewBox="0 0 24 24"
   fill="none"
   stroke="currentColor"
   stroke-width="2"
   stroke-linecap="round"
   stroke-linejoin="round"
   version="1.1"
   id="svg6"
   xmlns="http://www.w3.org/2000/svg"
   xmlns:svg="http://www.w3.org/2000/svg">
  <defs
     id="defs10" />
  <path
     style="color:#000000;fill:#000000;-inkscape-stroke:none"
     d="m 9,10 a 1,1 0 0 0 -0.7070312,0.292969 l -6,6 A 1.0001,1.0001 0 0 0 2,17 v 3 a 1.0001,1.0001 0 0 0 1,1 h 9 a 1.0001,1.0001 0 0 0 0.707031,-0.292969 l 3,-3 a 1,1 0 0 0 0,-1.414062 1,1 0 0 0 -1.414062,0 L 11.585938,19 H 4 v -1.585938 l 5.7070313,-5.707031 a 1,1 0 0 0 0,-1.414062 A 1,1 0 0 0 9,10 Z"
     id="path2" />
  <path
     style="color:#000000;fill:#000000;-inkscape-stroke:none"
     d="M 14,3 A 1,1 0 0 0 13.292969,3.2929688 L 8.6933594,7.8925781 a 1.0001,1.0001 0 0 0 -0.00781,0.00781 c -1.1356413,1.1585859 -1.1356413,3.0406334 0,4.1992184 a 1.0001,1.0001 0 0 0 0.00781,0.0078 l 5.1992186,5.199219 a 1.0001,1.0001 0 0 0 0.0078,0.0078 c 1.158585,1.135641 3.040633,1.135641 4.199218,0 a 1.0001,1.0001 0 0 0 0.0078,-0.0078 l 4.599609,-4.59961 a 1,1 0 0 0 0,-1.414062 1,1 0 0 0 -1.414062,0 l -4.59375,4.59375 c -0.396787,0.388928 -1.001651,0.388928 -1.398438,0 l -5.1875,-5.1875 c -0.3889284,-0.396787 -0.3889284,-1.0016511 0,-1.3984377 l 4.59375,-4.5937501 a 1,1 0 0 0 0,-1.4140624 A 1,1 0 0 0 14,3 Z"
     id="path4" />
</svg>
