<?xml version="1.0" encoding="UTF-8" standalone="no"?>
<svg
   width="24"
   height="24"
   viewBox="0 0 24 24"
   fill="none"
   stroke="currentColor"
   stroke-width="2"
   stroke-linecap="round"
   stroke-linejoin="round"
   version="1.1"
   id="svg8"
   xmlns="http://www.w3.org/2000/svg"
   xmlns:svg="http://www.w3.org/2000/svg">
  <defs
     id="defs12" />
  <path
     style="color:#000000;fill:#000000;-inkscape-stroke:none"
     d="M 11.996094,2 C 9.2223287,2.0104346 6.5587136,3.0935822 4.5644531,5.0214844 a 1.0001,1.0001 0 0 0 -0.011719,0.011719 L 2.2929688,7.2929687 a 1,1 0 0 0 0,1.4140626 1,1 0 0 0 1.4140625,0 L 5.9550781,6.4589844 C 7.5778164,4.8902421 9.7430811,4.0094955 12,4 c 3.606362,0 6.232729,2.1417281 7.390625,4.9375 1.157896,2.795772 0.815354,6.169021 -1.734375,8.71875 -2.549729,2.549729 -5.922978,2.892271 -8.71875,1.734375 C 6.1417281,18.232729 4,15.606362 4,12 A 1,1 0 0 0 3,11 1,1 0 0 0 2,12 c 0,4.412331 2.7051351,7.801689 6.1738281,9.238281 3.4686929,1.436593 7.7768279,0.951688 10.8964839,-2.167969 3.119657,-3.119656 3.604562,-7.427791 2.167969,-10.8964839 C 19.801689,4.7051351 16.412331,2 12,2 a 1.0001,1.0001 0 0 0 -0.0039,0 z"
     id="path2" />
  <path
     style="color:#000000;fill:#000000;-inkscape-stroke:none"
     d="M 3,2 A 1,1 0 0 0 2,3 V 8 A 1.0001,1.0001 0 0 0 3,9 H 8 A 1,1 0 0 0 9,8 1,1 0 0 0 8,7 H 4 V 3 A 1,1 0 0 0 3,2 Z"
     id="path4" />
  <path
     style="color:#000000;fill:#000000;-inkscape-stroke:none"
     d="m 12,6 a 1,1 0 0 0 -1,1 v 5 a 1.0001,1.0001 0 0 0 0.552734,0.894531 l 4,2 a 1,1 0 0 0 1.341797,-0.447265 1,1 0 0 0 -0.447265,-1.341797 L 13,11.382813 V 7 A 1,1 0 0 0 12,6 Z"
     id="path6" />
</svg>
