<?xml version="1.0" encoding="UTF-8" standalone="no"?>
<svg
   width="24"
   height="24"
   viewBox="0 0 24 24"
   fill="none"
   stroke="currentColor"
   stroke-width="2"
   stroke-linecap="round"
   stroke-linejoin="round"
   version="1.1"
   id="svg6"
   xmlns="http://www.w3.org/2000/svg"
   xmlns:svg="http://www.w3.org/2000/svg">
  <defs
     id="defs10" />
  <path
     style="color:#000000;fill:#000000;-inkscape-stroke:none"
     d="m 11.386719,1.2109375 -9.0000002,7 A 1.0001,1.0001 0 0 0 2,9 v 11 c 0,1.645008 1.354992,3 3,3 h 14 c 1.645008,0 3,-1.354992 3,-3 V 9 A 1.0001,1.0001 0 0 0 21.613281,8.2109375 l -9,-7 a 1.0001,1.0001 0 0 0 -1.226562,0 z M 12,3.2675781 20,9.4882813 V 20 c 0,0.564129 -0.435871,1 -1,1 H 5 C 4.4358712,21 4,20.564129 4,20 V 9.4882813 Z"
     id="path2" />
  <path
     style="color:#000000;fill:#000000;-inkscape-stroke:none"
     d="m 9,11 a 1.0001,1.0001 0 0 0 -1,1 v 10 a 1,1 0 0 0 1,1 1,1 0 0 0 1,-1 v -9 h 4 v 9 a 1,1 0 0 0 1,1 1,1 0 0 0 1,-1 V 12 a 1.0001,1.0001 0 0 0 -1,-1 z"
     id="polyline4" />
</svg>
