<?xml version="1.0" encoding="UTF-8" standalone="no"?>
<svg
   width="24"
   height="24"
   viewBox="0 0 24 24"
   fill="none"
   stroke="currentColor"
   stroke-width="2"
   stroke-linecap="round"
   stroke-linejoin="round"
   version="1.1"
   id="svg18"
   xmlns="http://www.w3.org/2000/svg"
   xmlns:svg="http://www.w3.org/2000/svg">
  <defs
     id="defs22" />
  <path
     style="color:#000000;fill:#000000;-inkscape-stroke:none"
     d="m 16.792969,4.7929687 a 1,1 0 0 0 0,1.4140625 c 1.110051,1.1100508 2.064408,2.513296 2.691406,3.8867188 -0.813466,0.09163 -1.608684,0.237106 -2.492188,0.138672 a 1,1 0 0 0 -1.103515,0.882812 1,1 0 0 0 0.882812,1.105469 c 1.593106,0.177493 3.036279,0.03809 4.425782,-0.240234 a 1.0001,1.0001 0 0 0 0.773437,-1.222656 C 21.394614,8.4534564 19.785597,6.3715346 18.207031,4.7929687 a 1,1 0 0 0 -1.414062,0 z"
     id="path2" />
  <path
     style="color:#000000;fill:#000000;-inkscape-stroke:none"
     d="M 9.6054688,11.580078 A 1,1 0 0 0 9.0800781,12.894531 C 10.25065,15.625864 10.334225,17.56906 10.109375,19.492187 8.7309709,18.866376 7.3213604,17.907298 6.2070312,16.792969 a 1,1 0 0 0 -1.4140625,0 1,1 0 0 0 0,1.414062 c 1.5785659,1.578566 3.6604877,3.187583 5.9648443,3.763672 a 1.0001,1.0001 0 0 0 1.222656,-0.775391 C 12.505611,18.5696 12.487837,15.763938 10.919922,12.105469 A 1,1 0 0 0 9.6054688,11.580078 Z"
     id="path4" />
  <path
     style="color:#000000;fill:#000000;-inkscape-stroke:none"
     d="m 11.183594,15.550781 a 1,1 0 0 0 -0.578125,0.501953 1,1 0 0 0 0.447265,1.341797 C 13.231618,18.483973 15.000003,18.5 17.5,18.5 a 1,1 0 0 0 1,-1 1,1 0 0 0 -1,-1 c -2.499997,0 -3.731622,0.01602 -5.552734,-0.894531 a 1,1 0 0 0 -0.763672,-0.05469 z"
     id="path6" />
  <path
     style="color:#000000;fill:#000000;-inkscape-stroke:none"
     d="m 20.195312,10.519531 a 1,1 0 0 0 -0.75,0.148438 1,1 0 0 0 -0.277343,1.386719 c 0.471553,0.70733 0.951084,1.549289 1.298828,2.302734 C 20.814541,15.110867 21,15.833334 21,16 a 1,1 0 0 0 1,1 1,1 0 0 0 1,-1 c 0,-0.833333 -0.314541,-1.610868 -0.716797,-2.482422 -0.402255,-0.871553 -0.922726,-1.779597 -1.451172,-2.572265 a 1,1 0 0 0 -0.636719,-0.425782 z"
     id="path8" />
  <path
     style="color:#000000;fill:#000000;-inkscape-stroke:none"
     d="m 15.183594,16.550781 a 1,1 0 0 0 -0.632813,1.265625 c 0.363411,1.090234 0.551458,2.017158 0.542969,2.888672 -0.278165,-0.08852 -0.398677,-0.08244 -0.736328,-0.238281 -0.753445,-0.347744 -1.595404,-0.827275 -2.302734,-1.298828 a 1,1 0 0 0 -1.386719,0.277343 1,1 0 0 0 0.277344,1.386719 c 0.792668,0.528446 1.700712,1.048917 2.572265,1.451172 C 14.389132,22.685459 15.166668,23 16,23 a 1.0001,1.0001 0 0 0 0.949219,-0.683594 c 0.62649,-1.879471 -1e-6,-3.632814 -0.5,-5.132812 a 1,1 0 0 0 -1.265625,-0.632813 z"
     id="path10" />
  <path
     style="color:#000000;fill:#000000;-inkscape-stroke:none"
     d="m 16.183594,19.550781 a 1,1 0 0 0 -0.578125,0.501953 1,1 0 0 0 0.447265,1.341797 C 18.112361,22.424344 19.833336,23 22,23 a 1,1 0 0 0 1,-1 1,1 0 0 0 -1,-1 c -1.833332,0 -3.112365,-0.424346 -5.052734,-1.394531 a 1,1 0 0 0 -0.763672,-0.05469 z"
     id="path12" />
  <path
     style="color:#000000;fill:#000000;-inkscape-stroke:none"
     d="M 10.748047,1.0253906 C 9.7754052,1.0873751 8.8082655,1.2890669 7.8808594,1.6308594 A 1,1 0 0 0 7.2890625,2.9160156 1,1 0 0 0 8.5722656,3.5078125 C 11.158257,2.5547539 14.012771,3.0052015 16.21875,4.796875 15.873914,4.9626575 15.738075,5.0999805 15.285156,5.2324219 14.310584,5.5174039 13.180372,5.6801446 12.34375,5.6210937 a 1,1 0 0 0 -1.066406,0.9257813 1,1 0 0 0 0.925781,1.0683594 c 1.189376,0.083949 2.482606,-0.1231233 3.644531,-0.4628907 1.161926,-0.3397673 2.159702,-0.7456389 2.859375,-1.4453125 a 1.0001,1.0001 0 0 0 0.04492,-1.3652343 C 16.635731,1.9231382 13.665972,0.83943723 10.748047,1.0253906 Z M 4.0761719,4.0742187 c -4.08705602,4.087056 -4.1657147,10.8003123 0.265625,14.6777343 a 1.0001,1.0001 0 0 0 1.3652343,-0.04492 c 0.7946271,-0.794627 1.2370409,-1.983319 1.5761719,-3.339843 0.2058323,-0.82333 0.2994943,-1.675871 0.3085938,-2.515625 1.6282792,0.483749 3.3718071,0.54859 4.7246091,0.09766 a 1,1 0 0 0 0.632813,-1.265625 1,1 0 0 0 -1.265625,-0.632813 c -1.183771,0.394591 -3.5556,0.332725 -4.6289065,-0.382812 a 1.0001,1.0001 0 0 0 -1.5253906,1.074219 c 0.1786658,0.714663 0.098368,1.997151 -0.1875,3.140625 -0.1452634,0.581053 -0.329322,0.787446 -0.5332032,1.224609 C 2.3053588,12.944398 2.5112181,8.4672976 5.4902344,5.4882812 a 1,1 0 0 0 0,-1.4140625 1,1 0 0 0 -1.4140625,0 z"
     id="path14" />
  <path
     style="color:#000000;fill:#000000;-inkscape-stroke:none"
     d="m 2,1 a 1,1 0 0 0 -0.7070313,0.2929687 1,1 0 0 0 0,1.4140626 L 21.292969,22.707031 a 1,1 0 0 0 1.414062,0 1,1 0 0 0 0,-1.414062 L 2.7070313,1.2929687 A 1,1 0 0 0 2,1 Z"
     id="line16" />
</svg>
