<?xml version="1.0" encoding="UTF-8" standalone="no"?>
<svg
   width="24"
   height="24"
   viewBox="0 0 24 24"
   fill="none"
   stroke="currentColor"
   stroke-width="2"
   stroke-linecap="round"
   stroke-linejoin="round"
   version="1.1"
   id="svg18"
   xmlns="http://www.w3.org/2000/svg"
   xmlns:svg="http://www.w3.org/2000/svg">
  <defs
     id="defs22" />
  <path
     style="color:#000000;fill:#000000;-inkscape-stroke:none"
     d="m 16.792969,4.7929687 a 1,1 0 0 0 0,1.4140625 c 1.114329,1.1143292 2.073407,2.5239397 2.699218,3.9023438 -1.923127,0.22485 -3.866323,0.141275 -6.597656,-1.0292969 a 1,1 0 0 0 -1.314453,0.5253907 1,1 0 0 0 0.525391,1.3144532 c 3.658469,1.567915 6.464131,1.585689 9.089843,1.060547 a 1.0001,1.0001 0 0 0 0.775391,-1.222656 C 21.394614,8.4534564 19.785597,6.3715346 18.207031,4.7929687 a 1,1 0 0 0 -1.414062,0 z"
     id="path2" />
  <path
     style="color:#000000;fill:#000000;-inkscape-stroke:none"
     d="M 9.6054688,11.580078 A 1,1 0 0 0 9.0800781,12.894531 C 10.25065,15.625864 10.334225,17.56906 10.109375,19.492187 8.7309709,18.866376 7.3213604,17.907298 6.2070312,16.792969 a 1,1 0 0 0 -1.4140625,0 1,1 0 0 0 0,1.414062 c 1.5785659,1.578566 3.6604877,3.187583 5.9648443,3.763672 a 1.0001,1.0001 0 0 0 1.222656,-0.775391 C 12.505611,18.5696 12.487837,15.763938 10.919922,12.105469 A 1,1 0 0 0 9.6054688,11.580078 Z"
     id="path4" />
  <path
     style="color:#000000;fill:#000000;-inkscape-stroke:none"
     d="m 16.052734,10.605469 a 1,1 0 0 0 -0.447265,1.341797 c 0.755085,1.510171 0.84115,2.758687 0.859375,4.517578 -1.758891,-0.01823 -3.007407,-0.10429 -4.517578,-0.859375 a 1,1 0 0 0 -1.341797,0.447265 1,1 0 0 0 0.447265,1.341797 C 13.231618,18.483973 15.000003,18.5 17.5,18.5 a 1.0001,1.0001 0 0 0 1,-1 c 0,-2.499997 -0.01603,-4.268382 -1.105469,-6.447266 a 1,1 0 0 0 -1.341797,-0.447265 z"
     id="path6" />
  <path
     style="color:#000000;fill:#000000;-inkscape-stroke:none"
     d="m 20.195312,10.519531 a 1,1 0 0 0 -0.75,0.148438 1,1 0 0 0 -0.277343,1.386719 c 0.471553,0.70733 0.951084,1.549289 1.298828,2.302734 0.155839,0.337651 0.149766,0.458163 0.238281,0.736328 -0.871514,0.0085 -1.798438,-0.179558 -2.888672,-0.542969 a 1,1 0 0 0 -1.265625,0.632813 1,1 0 0 0 0.632813,1.265625 c 1.499998,0.499999 3.253341,1.12649 5.132812,0.5 A 1.0001,1.0001 0 0 0 23,16 c 0,-0.833333 -0.314541,-1.610868 -0.716797,-2.482422 -0.402255,-0.871553 -0.922726,-1.779597 -1.451172,-2.572265 a 1,1 0 0 0 -0.636719,-0.425782 z"
     id="path8" />
  <path
     style="color:#000000;fill:#000000;-inkscape-stroke:none"
     d="m 15.183594,16.550781 a 1,1 0 0 0 -0.632813,1.265625 c 0.363411,1.090234 0.551458,2.017158 0.542969,2.888672 -0.278165,-0.08852 -0.398677,-0.08244 -0.736328,-0.238281 -0.753445,-0.347744 -1.595404,-0.827275 -2.302734,-1.298828 a 1,1 0 0 0 -1.386719,0.277343 1,1 0 0 0 0.277344,1.386719 c 0.792668,0.528446 1.700712,1.048917 2.572265,1.451172 C 14.389132,22.685459 15.166668,23 16,23 a 1.0001,1.0001 0 0 0 0.949219,-0.683594 c 0.62649,-1.879471 -1e-6,-3.632814 -0.5,-5.132812 a 1,1 0 0 0 -1.265625,-0.632813 z"
     id="path10" />
  <path
     style="color:#000000;fill:#000000;-inkscape-stroke:none"
     d="m 20.816406,15.550781 a 1,1 0 0 0 -0.763672,0.05469 1,1 0 0 0 -0.447265,1.341797 c 0.744996,1.489993 1.083971,2.637924 1.240234,3.898437 -1.260513,-0.156263 -2.408444,-0.495238 -3.898437,-1.240234 a 1,1 0 0 0 -1.341797,0.447265 1,1 0 0 0 0.447265,1.341797 C 18.112361,22.424344 19.833336,23 22,23 a 1.0001,1.0001 0 0 0 1,-1 c 0,-2.166665 -0.575656,-3.887639 -1.605469,-5.947266 a 1,1 0 0 0 -0.578125,-0.501953 z"
     id="path12" />
  <path
     style="color:#000000;fill:#000000;-inkscape-stroke:none"
     d="M 11.492188,1.0136719 C 8.8185655,0.99004021 6.1196999,2.0306908 4.0761719,4.0742187 -0.01088412,8.1612747 -0.0895428,14.874531 4.3417969,18.751953 a 1.0001,1.0001 0 0 0 1.3652343,-0.04492 c 0.7946271,-0.794627 1.2370409,-1.983319 1.5761719,-3.339843 0.2058323,-0.82333 0.2994943,-1.675871 0.3085938,-2.515625 1.6282792,0.483749 3.3718071,0.54859 4.7246091,0.09766 a 1.0001,1.0001 0 0 0 0.632813,-0.632813 c 0.450934,-1.352802 0.386093,-3.0963299 -0.09766,-4.7246091 0.839754,-0.0091 1.692295,-0.1027615 2.515625,-0.3085938 1.356524,-0.339131 2.545216,-0.7815448 3.339843,-1.5761719 a 1.0001,1.0001 0 0 0 0.04492,-1.3652343 C 16.8133,2.1261936 14.165809,1.0373035 11.492188,1.0136719 Z m -0.04492,1.9726562 c 1.679505,0.010135 3.266581,0.7192391 4.660156,1.8222656 -0.437163,0.2038812 -0.643556,0.3879398 -1.224609,0.5332032 -1.143474,0.2858683 -2.425962,0.3661658 -3.140625,0.1875 a 1.0001,1.0001 0 0 0 -1.074219,1.5253906 c 0.627733,0.9416001 0.682682,2.7892938 0.4375,4.0507815 -1.2614877,0.245182 -3.1091814,0.190233 -4.0507815,-0.4375 a 1.0001,1.0001 0 0 0 -1.5253906,1.074219 c 0.1786658,0.714663 0.098368,1.997151 -0.1875,3.140625 -0.1452634,0.581053 -0.329322,0.787446 -0.5332032,1.224609 C 2.3053588,12.944398 2.5112181,8.4672976 5.4902344,5.4882812 7.1567027,3.821813 9.3148924,2.9734598 11.447266,2.9863281 Z"
     id="path14" />
  <path
     style="color:#000000;fill:#000000;-inkscape-stroke:none"
     d="M 2.2929688,1.2929687 C 1.7968167,1.7891208 1.8613281,2.1457064 1.8613281,2.5 c 0,0.3542936 -0.063183,0.7095288 0.4296875,1.2050781 a 1.0001,1.0001 0 0 0 0.00195,0.00195 l 1.5,1.4999999 a 1,1 0 0 0 1.4140624,0 1,1 0 0 0 0,-1.4140624 L 3.8730469,2.4589844 a 1,1 0 0 0 -0.1660156,-1.1660157 1,1 0 0 0 -1.4140625,0 z m 1.5605468,1.1953126 c -8.415e-4,-0.00288 0.00781,0.014662 0.00781,0.011719 0,-0.053456 0.1578554,-0.105121 -0.1542968,0.2070313 a 1,1 0 0 0 0.1464843,-0.21875 z"
     id="path16" />
</svg>
