<?xml version="1.0" encoding="UTF-8" standalone="no"?>
<svg
   width="24"
   height="24"
   viewBox="0 0 24 24"
   fill="none"
   stroke="currentColor"
   stroke-width="2"
   stroke-linecap="round"
   stroke-linejoin="round"
   version="1.1"
   id="svg20"
   xmlns="http://www.w3.org/2000/svg"
   xmlns:svg="http://www.w3.org/2000/svg">
  <defs
     id="defs24" />
  <path
     style="color:#000000;fill:#000000;-inkscape-stroke:none"
     d="M 6,1 C 4.354992,1 3,2.354992 3,4 v 16 c 0,1.645008 1.354992,3 3,3 h 12 c 1.645008,0 3,-1.354992 3,-3 V 4 C 21,2.354992 19.645008,1 18,1 Z m 0,2 h 12 c 0.564129,0 1,0.4358712 1,1 v 16 c 0,0.564129 -0.435871,1 -1,1 H 6 C 5.4358712,21 5,20.564129 5,20 V 4 C 5,3.4358712 5.4358712,3 6,3 Z"
     id="path2" />
  <path
     style="color:#000000;fill:#000000;-inkscape-stroke:none"
     d="m 12,13.962891 c -1.140311,4e-6 -2.2802781,0.324336 -3.2207031,0.974609 l -0.3476563,0.240234 a 1,1 0 0 0 -0.2539062,1.390625 1,1 0 0 0 1.390625,0.253907 l 0.3476562,-0.238282 a 1.0001,1.0001 0 0 0 0,-0.002 c 1.0491474,-0.725451 3.1181614,-0.725052 4.1660154,0 a 1.0001,1.0001 0 0 0 0.002,0.002 l 0.347657,0.238282 a 1,1 0 0 0 1.390625,-0.253907 1,1 0 0 0 -0.253907,-1.390625 L 15.220703,14.9375 C 14.280632,14.287027 13.140311,13.962886 12,13.962891 Z"
     id="path4" />
  <path
     style="color:#000000;fill:#000000;-inkscape-stroke:none"
     d="M 8,6 A 1,1 0 0 0 7,7 1,1 0 0 0 8,8 h 0.00977 a 1,1 0 0 0 1,-1 1,1 0 0 0 -1,-1 z"
     id="path6" />
  <path
     style="color:#000000;fill:#000000;-inkscape-stroke:none"
     d="m 16,6 a 1,1 0 0 0 -1,1 1,1 0 0 0 1,1 h 0.0098 a 1,1 0 0 0 1,-1 1,1 0 0 0 -1,-1 z"
     id="path8" />
  <path
     style="color:#000000;fill:#000000;-inkscape-stroke:none"
     d="m 12,6 a 1,1 0 0 0 -1,1 1,1 0 0 0 1,1 h 0.0098 a 1,1 0 0 0 1,-1 1,1 0 0 0 -1,-1 z"
     id="path10" />
  <path
     style="color:#000000;fill:#000000;-inkscape-stroke:none"
     d="m 12,10 a 1,1 0 0 0 -1,1 1,1 0 0 0 1,1 h 0.0098 a 1,1 0 0 0 1,-1 1,1 0 0 0 -1,-1 z"
     id="path12" />
  <path
     style="color:#000000;fill:#000000;-inkscape-stroke:none"
     d="m 16,10 a 1,1 0 0 0 -1,1 1,1 0 0 0 1,1 h 0.0098 a 1,1 0 0 0 1,-1 1,1 0 0 0 -1,-1 z"
     id="path14" />
  <path
     style="color:#000000;fill:#000000;-inkscape-stroke:none"
     d="m 8,10 a 1,1 0 0 0 -1,1 1,1 0 0 0 1,1 h 0.00977 a 1,1 0 0 0 1,-1 1,1 0 0 0 -1,-1 z"
     id="path16" />
  <path
     style="color:#000000;fill:#000000;-inkscape-stroke:none"
     d="m 10,14.5 a 1,1 0 0 0 -1,1 V 22 a 1,1 0 0 0 1,1 1,1 0 0 0 1,-1 v -6.5 a 1,1 0 0 0 -1,-1 z m 4,0 a 1,1 0 0 0 -1,1 V 22 a 1,1 0 0 0 1,1 1,1 0 0 0 1,-1 v -6.5 a 1,1 0 0 0 -1,-1 z"
     id="path18" />
</svg>
