<?xml version="1.0" encoding="UTF-8" standalone="no"?>
<svg
   width="24"
   height="24"
   viewBox="0 0 24 24"
   fill="none"
   stroke="currentColor"
   stroke-width="2"
   stroke-linecap="round"
   stroke-linejoin="round"
   version="1.1"
   id="svg10"
   xmlns="http://www.w3.org/2000/svg"
   xmlns:svg="http://www.w3.org/2000/svg">
  <defs
     id="defs14" />
  <path
     style="color:#000000;fill:#000000;-inkscape-stroke:none"
     d="m 5,21 a 1,1 0 0 0 -1,1 1,1 0 0 0 1,1 h 14 a 1,1 0 0 0 1,-1 1,1 0 0 0 -1,-1 z"
     id="path2" />
  <path
     style="color:#000000;fill:#000000;-inkscape-stroke:none"
     d="M 5,1 A 1,1 0 0 0 4,2 1,1 0 0 0 5,3 H 19 A 1,1 0 0 0 20,2 1,1 0 0 0 19,1 Z"
     id="path4" />
  <path
     style="color:#000000;fill:#000000;-inkscape-stroke:none"
     d="M 11.292969,11.292969 6.8789062,15.707031 C 6.3165303,16.269237 6.0001698,17.032925 6,17.828125 V 22 a 1,1 0 0 0 1,1 1,1 0 0 0 1,-1 v -4.171875 c 5.67e-5,-0.265579 0.105148,-0.519267 0.2929688,-0.707031 L 12,13.414063 15.707031,17.121094 C 15.894852,17.308858 15.999943,17.562546 16,17.828125 V 22 a 1,1 0 0 0 1,1 1,1 0 0 0 1,-1 v -4.171875 c -1.7e-4,-0.7952 -0.31653,-1.558888 -0.878906,-2.121094 l -4.414063,-4.414062 a 1.0001,1.0001 0 0 0 -1.414062,0 z"
     id="path6" />
  <path
     style="color:#000000;fill:#000000;-inkscape-stroke:none"
     d="M 7,1 A 1,1 0 0 0 6,2 v 4.171875 c 1.698e-4,0.7951996 0.3165303,1.5588876 0.8789062,2.1210938 l 4.4140628,4.4140622 a 1.0001,1.0001 0 0 0 1.414062,0 L 17.121094,8.2929688 C 17.68347,7.7307626 17.99983,6.9670746 18,6.171875 V 2 A 1,1 0 0 0 17,1 1,1 0 0 0 16,2 v 4.171875 c -5.7e-5,0.2655786 -0.105148,0.5192672 -0.292969,0.7070312 L 12,10.585938 8.2929688,6.8789062 C 8.105148,6.6911422 8.0000567,6.4374536 8,6.171875 V 2 A 1,1 0 0 0 7,1 Z"
     id="path8" />
</svg>
