<?xml version="1.0" encoding="UTF-8" standalone="no"?>
<svg
   width="24"
   height="24"
   viewBox="0 0 24 24"
   fill="none"
   stroke="currentColor"
   stroke-width="2"
   stroke-linecap="round"
   stroke-linejoin="round"
   version="1.1"
   id="svg8"
   xmlns="http://www.w3.org/2000/svg"
   xmlns:svg="http://www.w3.org/2000/svg">
  <defs
     id="defs12" />
  <path
     style="color:#000000;fill:#000000;-inkscape-stroke:none"
     d="m 6.6328125,10.070313 a 1,1 0 0 0 -0.5625,1.296875 l 4.0800785,10.349609 a 1.0001,1.0001 0 0 0 0.0098,0.02539 c 0.329425,0.773301 1.104548,1.216797 1.839844,1.216797 0.735296,0 1.510419,-0.443496 1.839844,-1.216797 a 1.0001,1.0001 0 0 0 0.0098,-0.02539 l 4.080078,-10.349609 a 1,1 0 0 0 -0.5625,-1.296875 1,1 0 0 0 -1.296875,0.5625 L 12,20.957031 7.9296875,10.632813 a 1,1 0 0 0 -1.296875,-0.5625 z"
     id="path2" />
  <path
     style="color:#000000;fill:#000000;-inkscape-stroke:none"
     d="M 12,1 C 10.527779,1 9.0421183,1.4853484 7.8984375,2.5019531 6.7547567,3.5185578 6,5.0833359 6,7 A 1,1 0 0 0 7,8 1,1 0 0 0 8,7 C 8,5.5833356 8.4952451,4.6481065 9.2265625,3.9980469 9.9578799,3.3479873 10.972223,3 12,3 13.027777,3 14.04212,3.3479873 14.773438,3.9980469 15.504755,4.6481065 16,5.5833356 16,7 a 1,1 0 0 0 1,1 1,1 0 0 0 1,-1 C 18,5.0833359 17.245243,3.5185578 16.101562,2.5019531 14.957882,1.4853484 13.472221,1 12,1 Z"
     id="path4" />
  <path
     style="color:#000000;fill:#000000;-inkscape-stroke:none"
     d="M 7,6 C 6.0833344,6 5.2685585,6.3797562 4.7519531,6.9609375 4.2353477,7.5421188 4,8.2777786 4,9 4,9.7222214 4.2353477,10.457881 4.7519531,11.039063 5.2685585,11.620244 6.0833344,12 7,12 h 10 c 0.916666,0 1.731441,-0.379756 2.248047,-0.960937 C 19.764652,10.457881 20,9.7222214 20,9 20,8.2777786 19.764652,7.5421188 19.248047,6.9609375 18.731441,6.3797562 17.916666,6 17,6 a 1,1 0 0 0 -1,1 1,1 0 0 0 1,1 c 0.416666,0 0.601893,0.1202446 0.751953,0.2890625 C 17.902013,8.4578804 18,8.7222224 18,9 18,9.2777776 17.902013,9.5421196 17.751953,9.7109375 17.601893,9.8797554 17.416666,10 17,10 H 7 C 6.5833341,10 6.3981072,9.8797554 6.2480469,9.7109375 6.0979866,9.5421196 6,9.2777776 6,9 6,8.7222224 6.0979866,8.4578804 6.2480469,8.2890625 6.3981072,8.1202446 6.5833341,8 7,8 A 1,1 0 0 0 8,7 1,1 0 0 0 7,6 Z"
     id="path6" />
</svg>
