<?xml version="1.0" encoding="UTF-8" standalone="no"?>
<svg
   width="24"
   height="24"
   viewBox="0 0 24 24"
   fill="none"
   stroke="currentColor"
   stroke-width="2"
   stroke-linecap="round"
   stroke-linejoin="round"
   version="1.1"
   id="svg8"
   xmlns="http://www.w3.org/2000/svg"
   xmlns:svg="http://www.w3.org/2000/svg">
  <defs
     id="defs12" />
  <path
     style="color:#000000;fill:#000000;-inkscape-stroke:none"
     d="m 8.4941406,5.5039062 c -2.5281938,0 -4.3565042,2.1148404 -4.375,4.4960938 H 4 a 1.0001,1.0001 0 0 0 -1,1 c 0,1.957113 0.9182755,3.771199 2.5058594,5.025391 1.3823816,1.092081 3.3201603,1.682455 5.5488286,1.841796 A 1,1 0 0 0 11,18 v 2 H 8 a 1,1 0 0 0 -1,1 1,1 0 0 0 1,1 h 4 4 a 1,1 0 0 0 1,-1 1,1 0 0 0 -1,-1 h -3 v -2 a 1,1 0 0 0 -0.02734,-0.136719 c 2.216008,-0.163167 4.145041,-0.7505 5.521485,-1.83789 C 20.081724,14.771199 21,12.957113 21,11 A 1.0001,1.0001 0 0 0 20,10 H 12.871094 C 12.852598,7.6187466 11.022334,5.5039062 8.4941406,5.5039062 Z m 0,2 c 1.443684,0 2.4474474,1.1532309 2.4394534,2.4960938 H 6.0566406 C 6.048622,8.6571173 7.0504403,7.5039063 8.4941406,7.5039062 Z M 5.2304687,12 H 18.769531 c -0.226451,0.92489 -0.65861,1.781533 -1.513672,2.457031 C 16.093446,15.375338 14.320664,16 12,16 9.6793357,16 7.906554,15.375338 6.7441406,14.457031 5.8890791,13.781533 5.4569196,12.92489 5.2304687,12 Z"
     id="path2" />
  <path
     style="color:#000000;fill:#000000;-inkscape-stroke:none"
     d="m 15.494141,5.5039062 c -2.982457,0 -5.162064,2.9223378 -4.3125,5.7812498 a 1,1 0 0 0 1.24414,0.673828 1,1 0 0 0 0.671875,-1.24414 C 12.6137,9.0862571 13.795179,7.5039062 15.494141,7.5039062 c 1.698961,0 2.88044,1.5823509 2.396484,3.2109378 a 1,1 0 0 0 0.673828,1.24414 1,1 0 0 0 1.244141,-0.673828 C 20.658158,8.426244 18.476597,5.5039063 15.494141,5.5039062 Z"
     id="path4" />
  <path
     style="color:#000000;fill:#000000;-inkscape-stroke:none"
     d="M 12,2 C 10.902779,2 9.7921185,2.3603481 8.9296875,3.1269531 8.0672565,3.8935582 7.5,5.0833351 7.5,6.5 a 1,1 0 0 0 1,1 1,1 0 0 0 1,-1 C 9.5,5.5833349 9.8077449,5.0231068 10.257813,4.6230469 10.70788,4.2229869 11.347223,4 12,4 12.652777,4 13.29212,4.2229869 13.742188,4.6230469 14.192255,5.0231068 14.5,5.5833349 14.5,6.5 a 1,1 0 0 0 1,1 1,1 0 0 0 1,-1 C 16.5,5.0833351 15.932744,3.8935582 15.070313,3.1269531 14.207881,2.3603481 13.097221,2 12,2 Z"
     id="path6" />
</svg>
