<?xml version="1.0" encoding="UTF-8" standalone="no"?>
<svg
   width="24"
   height="24"
   viewBox="0 0 24 24"
   fill="none"
   stroke="currentColor"
   stroke-width="2"
   stroke-linecap="round"
   stroke-linejoin="round"
   version="1.1"
   id="svg8"
   xmlns="http://www.w3.org/2000/svg"
   xmlns:svg="http://www.w3.org/2000/svg">
  <defs
     id="defs12" />
  <path
     style="color:#000000;fill:#000000;-inkscape-stroke:none"
     d="M 5,2 C 3.3552989,2 2,3.3552989 2,5 v 14 c 0,1.644701 1.3552989,3 3,3 h 14 c 1.644701,0 3,-1.355299 3,-3 V 5 C 22,3.3552989 20.644701,2 19,2 Z m 0,2 h 14 c 0.571297,0 1,0.4287033 1,1 v 14 c 0,0.571297 -0.428703,1 -1,1 H 5 C 4.4287033,20 4,19.571297 4,19 V 5 C 4,4.4287033 4.4287033,4 5,4 Z"
     id="rect2" />
  <path
     style="color:#000000;fill:#000000;-inkscape-stroke:none"
     d="M 9,6 C 7.354992,6 6,7.354992 6,9 c 0,1.645008 1.354992,3 3,3 1.645008,0 3,-1.354992 3,-3 C 12,7.354992 10.645008,6 9,6 Z m 0,2 c 0.5641288,0 1,0.4358712 1,1 0,0.5641288 -0.4358712,1 -1,1 C 8.4358712,10 8,9.5641288 8,9 8,8.4358712 8.4358712,8 9,8 Z"
     id="circle4" />
  <path
     style="color:#000000;fill:#000000;-inkscape-stroke:none"
     d="m 16.5,10.333984 c -0.769717,0 -1.539529,0.291658 -2.121094,0.873047 l -9.0859373,9.085938 a 1,1 0 0 0 0,1.414062 1,1 0 0 0 1.4140625,0 l 9.0859378,-9.085937 c 0.398868,-0.398748 1.015194,-0.398748 1.414062,0 l 3.085938,3.085937 a 1,1 0 0 0 1.414062,0 1,1 0 0 0 0,-1.414062 L 18.621094,11.207031 C 18.039529,10.625642 17.269717,10.333984 16.5,10.333984 Z"
     id="path6" />
</svg>
