<?xml version="1.0" encoding="UTF-8" standalone="no"?>
<svg
   width="24"
   height="24"
   viewBox="0 0 24 24"
   fill="none"
   stroke="currentColor"
   stroke-width="2"
   stroke-linecap="round"
   stroke-linejoin="round"
   version="1.1"
   id="svg12"
   xmlns="http://www.w3.org/2000/svg"
   xmlns:svg="http://www.w3.org/2000/svg">
  <defs
     id="defs16" />
  <path
     style="color:#000000;fill:#000000;-inkscape-stroke:none"
     d="M 5,2 C 3.354992,2 2,3.354992 2,5 v 14 c 0,1.645008 1.354992,3 3,3 h 14 c 1.645008,0 3,-1.354992 3,-3 v -7 a 1,1 0 0 0 -1,-1 1,1 0 0 0 -1,1 v 7 c 0,0.564129 -0.435871,1 -1,1 H 5 C 4.4358712,20 4,19.564129 4,19 V 5 C 4,4.4358712 4.4358712,4 5,4 h 7 A 1,1 0 0 0 13,3 1,1 0 0 0 12,2 Z"
     id="path2" />
  <path
     style="color:#000000;fill:#000000;-inkscape-stroke:none"
     d="m 16,4 a 1,1 0 0 0 -1,1 1,1 0 0 0 1,1 h 6 A 1,1 0 0 0 23,5 1,1 0 0 0 22,4 Z"
     id="line4" />
  <path
     style="color:#000000;fill:#000000;-inkscape-stroke:none"
     d="m 19,1 a 1,1 0 0 0 -1,1 v 6 a 1,1 0 0 0 1,1 1,1 0 0 0 1,-1 V 2 A 1,1 0 0 0 19,1 Z"
     id="line6" />
  <path
     style="color:#000000;fill:#000000;-inkscape-stroke:none"
     d="M 9,6 C 7.354992,6 6,7.354992 6,9 c 0,1.645008 1.354992,3 3,3 1.645008,0 3,-1.354992 3,-3 C 12,7.354992 10.645008,6 9,6 Z m 0,2 c 0.5641288,0 1,0.4358712 1,1 0,0.5641288 -0.4358712,1 -1,1 C 8.4358712,10 8,9.5641288 8,9 8,8.4358712 8.4358712,8 9,8 Z"
     id="circle8" />
  <path
     style="color:#000000;fill:#000000;-inkscape-stroke:none"
     d="m 16.5,10.333984 c -0.769717,0 -1.539529,0.291658 -2.121094,0.873047 l -9.0859373,9.085938 a 1,1 0 0 0 0,1.414062 1,1 0 0 0 1.4140625,0 l 9.0859378,-9.085937 c 0.398868,-0.398748 1.015194,-0.398748 1.414062,0 l 3.085938,3.085937 a 1,1 0 0 0 1.414062,0 1,1 0 0 0 0,-1.414062 L 18.621094,11.207031 C 18.039529,10.625642 17.269717,10.333984 16.5,10.333984 Z"
     id="path10" />
</svg>
