<?xml version="1.0" encoding="UTF-8" standalone="no"?>
<svg
   width="24"
   height="24"
   viewBox="0 0 24 24"
   fill="none"
   stroke="currentColor"
   stroke-width="2"
   stroke-linecap="round"
   stroke-linejoin="round"
   version="1.1"
   id="svg14"
   xmlns="http://www.w3.org/2000/svg"
   xmlns:svg="http://www.w3.org/2000/svg">
  <defs
     id="defs18" />
  <path
     style="color:#000000;fill:#000000;-inkscape-stroke:none"
     d="m 2,1 a 1,1 0 0 0 -0.7070313,0.2929687 1,1 0 0 0 0,1.4140626 L 21.292969,22.707031 a 1,1 0 0 0 1.414062,0 1,1 0 0 0 0,-1.414062 L 2.7070313,1.2929687 A 1,1 0 0 0 2,1 Z"
     id="line2" />
  <path
     style="color:#000000;fill:#000000;-inkscape-stroke:none"
     d="M 7.5800781,6.5800781 A 1,1 0 0 0 6.8730469,6.8730469 C 6.2246043,7.5214895 5.9172122,8.3660472 5.9628906,9.1425781 c 0.045679,0.776531 0.399272,1.4637249 0.9101563,1.9746099 0.5108842,0.510884 1.1980784,0.864477 1.9746094,0.910156 0.7765309,0.04568 1.6210887,-0.261714 2.2695317,-0.910156 a 1,1 0 0 0 0,-1.414063 1,1 0 0 0 -1.414063,0 C 9.4082356,9.9980144 9.1906032,10.04453 8.9648438,10.03125 8.7390843,10.01797 8.4837244,9.89974 8.2871094,9.703125 8.0904943,9.50651 7.9722644,9.2511501 7.9589844,9.0253906 7.9457044,8.7996311 7.99222,8.5819988 8.2871094,8.2871094 a 1,1 0 0 0 0,-1.4140625 1,1 0 0 0 -0.7070313,-0.2929688 z"
     id="path4" />
  <path
     style="color:#000000;fill:#000000;-inkscape-stroke:none"
     d="m 13.5,12.5 a 1,1 0 0 0 -0.707031,0.292969 l -7.5000003,7.5 a 1,1 0 0 0 0,1.414062 1,1 0 0 0 1.4140625,0 l 7.4999998,-7.5 a 1,1 0 0 0 0,-1.414062 A 1,1 0 0 0 13.5,12.5 Z"
     id="line6" />
  <path
     style="color:#000000;fill:#000000;-inkscape-stroke:none"
     d="m 17.292969,11.292969 a 1,1 0 0 0 0,1.414062 l 3,3 a 1,1 0 0 0 1.414062,0 1,1 0 0 0 0,-1.414062 l -3,-3 a 1,1 0 0 0 -1.414062,0 z"
     id="line8" />
  <path
     style="color:#000000;fill:#000000;-inkscape-stroke:none"
     d="M 2.8867188,2.8789063 C 2.3212731,3.4386513 2.0017006,4.2024085 2,4.9980469 A 1.0001,1.0001 0 0 0 2,5 v 14 c 0,1.645008 1.354992,3 3,3 h 14 c 0.816666,0 1.583809,-0.331163 2.128906,-0.894531 a 1,1 0 0 0 -0.02344,-1.414063 1,1 0 0 0 -1.414063,0.02344 C 19.520504,19.891475 19.283333,20 19,20 H 5 C 4.4358712,20 4,19.564129 4,19 V 5.0019531 5 C 4.0010586,4.7367241 4.1058222,4.486041 4.2929687,4.3007812 a 1,1 0 0 0 0.00781,-1.4140624 1,1 0 0 0 -1.4140624,-0.00781 z"
     id="path10" />
  <path
     style="color:#000000;fill:#000000;-inkscape-stroke:none"
     d="M 9,2 A 1,1 0 0 0 8,3 1,1 0 0 0 9,4 h 10 c 0.564129,0 1,0.4358712 1,1 v 10 a 1,1 0 0 0 1,1 1,1 0 0 0 1,-1 V 5 C 22,3.354992 20.645008,2 19,2 Z"
     id="path12" />
</svg>
