<?xml version="1.0" encoding="UTF-8" standalone="no"?>
<svg
   width="24"
   height="24"
   viewBox="0 0 24 24"
   fill="none"
   stroke="currentColor"
   stroke-width="2"
   stroke-linecap="round"
   stroke-linejoin="round"
   version="1.1"
   id="svg8"
   xmlns="http://www.w3.org/2000/svg"
   xmlns:svg="http://www.w3.org/2000/svg">
  <defs
     id="defs12" />
  <path
     style="color:#000000;fill:#000000;-inkscape-stroke:none"
     d="m 12,2 a 1,1 0 0 0 -1,1 v 12 a 1,1 0 0 0 1,1 1,1 0 0 0 1,-1 V 3 A 1,1 0 0 0 12,2 Z"
     id="path2" />
  <path
     style="color:#000000;fill:#000000;-inkscape-stroke:none"
     d="m 8,10 a 1,1 0 0 0 -0.7070313,0.292969 1,1 0 0 0 0,1.414062 l 4.0000003,4 a 1.0001,1.0001 0 0 0 1.414062,0 l 4,-4 a 1,1 0 0 0 0,-1.414062 1,1 0 0 0 -1.414062,0 L 12,13.585938 8.7070313,10.292969 A 1,1 0 0 0 8,10 Z"
     id="path4" />
  <path
     style="color:#000000;fill:#000000;-inkscape-stroke:none"
     d="M 4,4 C 2.354992,4 1,5.354992 1,7 v 10 c 0,1.645008 1.354992,3 3,3 h 16 c 1.645008,0 3,-1.354992 3,-3 V 7 C 23,5.354992 21.645008,4 20,4 h -4 a 1,1 0 0 0 -1,1 1,1 0 0 0 1,1 h 4 c 0.564129,0 1,0.4358712 1,1 v 10 c 0,0.564129 -0.435871,1 -1,1 H 4 C 3.4358712,18 3,17.564129 3,17 V 7 C 3,6.4358712 3.4358712,6 4,6 H 8 A 1,1 0 0 0 9,5 1,1 0 0 0 8,4 Z"
     id="path6" />
</svg>
