<?xml version="1.0" encoding="UTF-8" standalone="no"?>
<svg
   width="24"
   height="24"
   viewBox="0 0 24 24"
   fill="none"
   stroke="currentColor"
   stroke-width="2"
   stroke-linecap="round"
   stroke-linejoin="round"
   version="1.1"
   id="svg6"
   xmlns="http://www.w3.org/2000/svg"
   xmlns:svg="http://www.w3.org/2000/svg">
  <defs
     id="defs10" />
  <path
     style="color:#000000;fill:#000000;-inkscape-stroke:none"
     d="m 2,11 a 1,1 0 0 0 -1,1 1,1 0 0 0 1,1 h 5.4648437 l 1.7031251,2.554688 A 1.0001,1.0001 0 0 0 10,16 h 4 a 1.0001,1.0001 0 0 0 0.832031,-0.445312 L 16.535156,13 H 22 a 1,1 0 0 0 1,-1 1,1 0 0 0 -1,-1 h -6 a 1.0001,1.0001 0 0 0 -0.832031,0.445313 L 13.464844,14 H 10.535156 L 8.8320313,11.445313 A 1.0001,1.0001 0 0 0 8,11 Z"
     id="polyline2" />
  <path
     style="color:#000000;fill:#000000;-inkscape-stroke:none"
     d="M 7.2402344,3 C 6.1039501,3.000603 5.0603339,3.646485 4.5546875,4.6640625 L 1.1054687,11.552734 A 1.0001,1.0001 0 0 0 1,12 v 6 c 0,1.645008 1.354992,3 3,3 h 16 c 1.645008,0 3,-1.354992 3,-3 V 12 A 1.0001,1.0001 0 0 0 22.894531,11.552734 L 19.443359,4.6621094 C 18.937236,3.6460103 17.895095,3.0006024 16.759766,3 Z m 0,2 h 9.5195316 c 0.381602,2.025e-4 0.724718,0.212951 0.894531,0.5546875 a 1.0001,1.0001 0 0 0 0.002,0.00391 L 21,12.236328 V 18 c 0,0.564129 -0.435871,1 -1,1 H 4 C 3.4358712,19 3,18.564129 3,18 V 12.236328 L 6.34375,5.5585937 a 1.0001,1.0001 0 0 0 0.00195,-0.00391 C 6.5155161,5.212951 6.8586322,5.0002025 7.2402344,5 Z"
     id="path4" />
</svg>
