<?xml version="1.0" encoding="UTF-8" standalone="no"?>
<svg
   width="24"
   height="24"
   viewBox="0 0 24 24"
   fill="none"
   stroke="currentColor"
   stroke-width="2"
   stroke-linecap="round"
   stroke-linejoin="round"
   version="1.1"
   id="svg12"
   xmlns="http://www.w3.org/2000/svg"
   xmlns:svg="http://www.w3.org/2000/svg">
  <defs
     id="defs16" />
  <path
     style="color:#000000;fill:#000000;-inkscape-stroke:none"
     d="M 6,2 A 1,1 0 0 0 5,3 1,1 0 0 0 6,4 H 18 A 1,1 0 0 0 19,3 1,1 0 0 0 18,2 Z"
     id="path2" />
  <path
     style="color:#000000;fill:#000000;-inkscape-stroke:none"
     d="M 6,7 A 1,1 0 0 0 5,8 1,1 0 0 0 6,9 H 18 A 1,1 0 0 0 19,8 1,1 0 0 0 18,7 Z"
     id="path4" />
  <path
     style="color:#000000;fill:#000000;-inkscape-stroke:none"
     d="m 6.6855469,12.271484 a 1,1 0 0 0 -1.4140625,0.04297 1,1 0 0 0 0.042969,1.414063 l 8.4999999,8 a 1,1 0 0 0 1.414063,-0.04297 1,1 0 0 0 -0.04297,-1.414063 z"
     id="path6" />
  <path
     style="color:#000000;fill:#000000;-inkscape-stroke:none"
     d="m 6,12 a 1,1 0 0 0 -1,1 1,1 0 0 0 1,1 h 3 a 1,1 0 0 0 1,-1 1,1 0 0 0 -1,-1 z"
     id="path8" />
  <path
     style="color:#000000;fill:#000000;-inkscape-stroke:none"
     d="M 9,2 A 1,1 0 0 0 8,3 1,1 0 0 0 9,4 c 1.416761,0 2.351858,0.4952418 3.001953,1.2265625 C 12.652048,5.9578832 13,6.9722344 13,8 13,9.0277656 12.652048,10.042117 12.001953,10.773438 11.351858,11.504758 10.416761,12 9,12 a 1,1 0 0 0 -1,1 1,1 0 0 0 1,1 c 1.916736,0 3.481394,-0.75476 4.498047,-1.898437 C 14.5147,10.957885 15,9.4722319 15,8 15,6.5277681 14.5147,5.0421149 13.498047,3.8984375 12.481394,2.7547601 10.916736,2 9,2 Z"
     id="path10" />
</svg>
