<?xml version="1.0" encoding="UTF-8" standalone="no"?>
<svg
   width="24"
   height="24"
   viewBox="0 0 24 24"
   fill="none"
   stroke="currentColor"
   stroke-width="2"
   stroke-linecap="round"
   stroke-linejoin="round"
   version="1.1"
   id="svg4"
   xmlns="http://www.w3.org/2000/svg"
   xmlns:svg="http://www.w3.org/2000/svg">
  <defs
     id="defs8" />
  <path
     style="color:#000000;fill:#000000;-inkscape-stroke:none"
     d="M 6,7 C 4.4166687,7 3.1018914,7.6297565 2.2519531,8.5859375 1.4020149,9.5421185 1,10.777779 1,12 1,13.222221 1.4020149,14.457882 2.2519531,15.414063 3.1018914,16.370243 4.4166687,17 6,17 8.1439538,17 10.124987,15.589454 12,13.396484 13.875013,15.589454 15.856046,17 18,17 19.583331,17 20.898109,16.370243 21.748047,15.414063 22.597985,14.457882 23,13.222221 23,12 23,10.777779 22.597985,9.5421185 21.748047,8.5859375 20.898109,7.6297565 19.583331,7 18,7 15.856046,7 13.875013,8.4105463 12,10.603516 10.124987,8.4105463 8.1439538,7 6,7 Z m 0,2 c 1.3869685,0 2.9394514,1.019227 4.603516,3 C 8.9394514,13.980773 7.3869685,15 6,15 4.9166684,15 4.23144,14.629755 3.7480469,14.085938 3.2646537,13.54212 3,12.777777 3,12 3,11.222223 3.2646537,10.45788 3.7480469,9.9140625 4.23144,9.370245 4.9166684,9 6,9 Z m 12,0 c 1.083332,0 1.76856,0.370245 2.251953,0.9140625 C 20.735346,10.45788 21,11.222223 21,12 21,12.777777 20.735346,13.54212 20.251953,14.085938 19.76856,14.629755 19.083332,15 18,15 16.613031,15 15.060549,13.980773 13.396484,12 15.060549,10.019227 16.613031,9 18,9 Z"
     id="path2" />
</svg>
