<?xml version="1.0" encoding="UTF-8" standalone="no"?>
<svg
   width="24"
   height="24"
   viewBox="0 0 24 24"
   fill="none"
   stroke="currentColor"
   stroke-width="2"
   stroke-linecap="round"
   stroke-linejoin="round"
   version="1.1"
   id="svg6"
   xmlns="http://www.w3.org/2000/svg"
   xmlns:svg="http://www.w3.org/2000/svg">
  <defs
     id="defs10" />
  <path
     style="color:#000000;fill:#000000;-inkscape-stroke:none"
     d="M 5,2 C 3.354992,2 2,3.354992 2,5 v 14 c 0,1.645008 1.354992,3 3,3 h 6 a 1,1 0 0 0 1,-1 1,1 0 0 0 -1,-1 H 5 C 4.4358712,20 4,19.564129 4,19 V 5 C 4,4.4358712 4.4358712,4 5,4 h 14 c 0.564129,0 1,0.4358712 1,1 v 6 a 1,1 0 0 0 1,1 1,1 0 0 0 1,-1 V 5 C 22,3.354992 20.645008,2 19,2 Z"
     id="path2" />
  <path
     style="color:#000000;fill:#000000;-inkscape-stroke:none"
     d="m 12.371094,11.072266 a 1.0001,1.0001 0 0 0 -1.298828,1.298828 l 4,10 a 1.0001,1.0001 0 0 0 1.857421,-0.0039 l 1.541016,-3.896484 3.896484,-1.541016 a 1.0001,1.0001 0 0 0 0.0039,-1.857421 z m 1.421875,2.720703 5.501953,2.201172 -1.962891,0.77539 a 1.0001,1.0001 0 0 0 -0.5625,0.5625 l -0.77539,1.962891 z"
     id="path4" />
</svg>
