<?xml version="1.0" encoding="UTF-8" standalone="no"?>
<svg
   width="24"
   height="24"
   viewBox="0 0 24 24"
   fill="none"
   stroke="currentColor"
   stroke-width="2"
   stroke-linecap="round"
   stroke-linejoin="round"
   version="1.1"
   id="svg8"
   xmlns="http://www.w3.org/2000/svg"
   xmlns:svg="http://www.w3.org/2000/svg">
  <defs
     id="defs12" />
  <path
     style="color:#000000;fill:#000000;-inkscape-stroke:none"
     d="M 7,1 C 3.6933005,1 1,3.6933005 1,7 v 10 c 0,3.306699 2.6933005,6 6,6 h 10 c 3.306699,0 6,-2.693301 6,-6 V 7 C 23,3.6933005 20.306699,1 17,1 Z m 0,2 h 10 c 2.233295,0 4,1.766705 4,4 v 10 c 0,2.233295 -1.766705,4 -4,4 H 7 C 4.766705,21 3,19.233295 3,17 V 7 C 3,4.766705 4.766705,3 7,3 Z"
     id="rect2" />
  <path
     style="color:#000000;fill:#000000;-inkscape-stroke:none"
     d="M 12.777344,7.0117187 C 10.450034,6.6666079 8.4655995,7.9414449 7.5761719,9.7089844 6.6867443,11.476524 6.8445065,13.828881 8.5078125,15.492188 c 1.6633065,1.663306 4.0156635,1.821068 5.7832035,0.93164 1.767539,-0.889427 3.042376,-2.873862 2.697265,-5.201172 C 16.66583,9.0481575 14.951843,7.3341696 12.777344,7.0117187 Z m -0.294922,1.9765626 c 1.311451,0.1944717 2.334825,1.2178457 2.529297,2.5292967 0.220416,1.486412 -0.534223,2.573209 -1.619141,3.119141 C 12.30766,15.182651 10.983993,15.140243 9.921875,14.078125 8.8597565,13.016007 8.8173494,11.69234 9.3632813,10.607422 9.9092131,9.5225038 10.99601,8.7678651 12.482422,8.9882813 Z"
     id="path4" />
  <path
     style="color:#000000;fill:#000000;-inkscape-stroke:none"
     d="m 17.5,5.5 a 1,1 0 0 0 -1,1 1,1 0 0 0 1,1 h 0.0098 a 1,1 0 0 0 1,-1 1,1 0 0 0 -1,-1 z"
     id="line6" />
</svg>
