<?xml version="1.0" encoding="UTF-8" standalone="no"?>
<svg
   width="24"
   height="24"
   viewBox="0 0 24 24"
   fill="none"
   stroke="currentColor"
   stroke-width="2"
   stroke-linecap="round"
   stroke-linejoin="round"
   version="1.1"
   id="svg8"
   xmlns="http://www.w3.org/2000/svg"
   xmlns:svg="http://www.w3.org/2000/svg">
  <defs
     id="defs12" />
  <path
     style="color:#000000;fill:#000000;-inkscape-stroke:none"
     d="m 10,3 a 1,1 0 0 0 -1,1 1,1 0 0 0 1,1 h 9 A 1,1 0 0 0 20,4 1,1 0 0 0 19,3 Z"
     id="line2" />
  <path
     style="color:#000000;fill:#000000;-inkscape-stroke:none"
     d="m 5,19 a 1,1 0 0 0 -1,1 1,1 0 0 0 1,1 h 9 a 1,1 0 0 0 1,-1 1,1 0 0 0 -1,-1 z"
     id="line4" />
  <path
     style="color:#000000;fill:#000000;-inkscape-stroke:none"
     d="m 15.351563,3.0644531 a 1,1 0 0 0 -1.28711,0.5839844 L 8.0644531,19.648437 a 1,1 0 0 0 0.5839844,1.28711 1,1 0 0 0 1.2871094,-0.583985 L 15.935547,4.3515625 A 1,1 0 0 0 15.351563,3.0644531 Z"
     id="line6" />
</svg>
