<?xml version="1.0" encoding="UTF-8" standalone="no"?>
<svg
   width="24"
   height="24"
   viewBox="0 0 24 24"
   fill="none"
   stroke="currentColor"
   stroke-width="2"
   stroke-linecap="round"
   stroke-linejoin="round"
   version="1.1"
   id="svg6"
   xmlns="http://www.w3.org/2000/svg"
   xmlns:svg="http://www.w3.org/2000/svg">
  <defs
     id="defs10" />
  <path
     style="color:#000000;fill:#000000;-inkscape-stroke:none"
     d="m 12,1 c -4.9454496,0 -9,4.0545504 -9,9 0,4.94545 4.0545504,9 9,9 h 8 a 1,1 0 0 0 1,-1 1,1 0 0 0 -1,-1 H 12 C 8.1454584,17 5,13.854542 5,10 5,6.1454584 8.1454584,3 12,3 c 3.854542,0 7,3.1454584 7,7 a 1,1 0 0 0 1,1 1,1 0 0 0 1,-1 C 21,5.0545504 16.94545,1 12,1 Z"
     id="path2" />
  <path
     style="color:#000000;fill:#000000;-inkscape-stroke:none"
     d="m 15.292969,13.292969 a 1,1 0 0 0 0,1.414062 L 18.585937,18 15.292969,21.292969 a 1,1 0 0 0 0,1.414062 1,1 0 0 0 1.414062,0 l 4,-4 a 1.0001,1.0001 0 0 0 0,-1.414062 l -4,-4 a 1,1 0 0 0 -1.414062,0 z"
     id="polyline4" />
</svg>
