<?xml version="1.0" encoding="UTF-8" standalone="no"?>
<svg
   width="24"
   height="24"
   viewBox="0 0 24 24"
   fill="none"
   stroke="currentColor"
   stroke-width="2"
   stroke-linecap="round"
   stroke-linejoin="round"
   version="1.1"
   id="svg6"
   xmlns="http://www.w3.org/2000/svg"
   xmlns:svg="http://www.w3.org/2000/svg">
  <defs
     id="defs10" />
  <path
     style="color:#000000;fill:#000000;-inkscape-stroke:none"
     d="M 12,1 C 7.0545504,1 3,5.0545504 3,10 a 1,1 0 0 0 1,1 1,1 0 0 0 1,-1 c 0,-3.8545416 3.1454584,-7 7,-7 3.854542,0 7,3.1454584 7,7 0,3.854542 -3.145458,7 -7,7 H 4 a 1,1 0 0 0 -1,1 1,1 0 0 0 1,1 h 8 c 4.94545,0 9,-4.05455 9,-9 0,-4.9454496 -4.05455,-9 -9,-9 z"
     id="path2" />
  <path
     style="color:#000000;fill:#000000;-inkscape-stroke:none"
     d="m 8,13 a 1,1 0 0 0 -0.7070313,0.292969 l -3.9999999,4 a 1.0001,1.0001 0 0 0 0,1.414062 l 3.9999999,4 a 1,1 0 0 0 1.4140626,0 1,1 0 0 0 0,-1.414062 L 5.4140625,18 8.7070313,14.707031 a 1,1 0 0 0 0,-1.414062 A 1,1 0 0 0 8,13 Z"
     id="polyline4" />
</svg>
