<?xml version="1.0" encoding="UTF-8" standalone="no"?>
<svg
   width="24"
   height="24"
   viewBox="0 0 24 24"
   fill="none"
   stroke="currentColor"
   stroke-width="2"
   stroke-linecap="round"
   stroke-linejoin="round"
   version="1.1"
   id="svg8"
   xmlns="http://www.w3.org/2000/svg"
   xmlns:svg="http://www.w3.org/2000/svg">
  <defs
     id="defs12" />
  <path
     style="color:#000000;fill:#000000;-inkscape-stroke:none"
     d="m 14.099609,1.0039062 c -0.873796,0 -1.746737,0.3287688 -2.40625,0.9882813 L 7.9921875,5.6933594 c -1.3190249,1.3190249 -1.3190249,3.4954282 0,4.8144536 l 5.5000005,5.499999 c 1.319024,1.319025 3.495428,1.319025 4.814453,0 l 3.701171,-3.701171 c 1.319025,-1.319025 1.319025,-3.4954286 0,-4.8144535 l -5.5,-5.5 C 15.8483,1.332675 14.973405,1.0039062 14.099609,1.0039062 Z m 0,2.0429688 c 0.376203,0 0.753654,0.1188884 0.994141,0.359375 l 5.5,5.5 c 0.480973,0.4809733 0.480973,1.505355 0,1.986328 l -3.701172,3.701172 c -0.480973,0.480973 -1.505355,0.480973 -1.986328,0 l -5.5,-5.5 c -0.4809733,-0.4809733 -0.4809733,-1.5053548 0,-1.9863281 L 13.107422,3.40625 c 0.240487,-0.2404866 0.615985,-0.359375 0.992187,-0.359375 z"
     id="path2" />
  <path
     style="color:#000000;fill:#000000;-inkscape-stroke:none"
     d="m 14,6 a 1,1 0 0 0 -0.707031,0.2929687 1,1 0 0 0 0,1.4140625 l 3,2.9999998 a 1,1 0 0 0 1.414062,0 1,1 0 0 0 0,-1.4140622 l -3,-3.0000001 A 1,1 0 0 0 14,6 Z"
     id="path4" />
  <path
     style="color:#000000;fill:#000000;-inkscape-stroke:none"
     d="M 9.4003906,9.5996094 A 1,1 0 0 0 8.6933594,9.8925781 L 1.2929687,17.292969 A 1.0001,1.0001 0 0 0 1,18 v 3 c 0,0.522222 0.1913292,1.05461 0.5683594,1.431641 C 1.9453895,22.808671 2.4777783,23 3,23 h 4 a 1.0001,1.0001 0 0 0 1,-1 v -2 h 2 a 1.0001,1.0001 0 0 0 1,-1 v -2 h 1 a 1.0001,1.0001 0 0 0 0.707031,-0.292969 l 1.400391,-1.40039 a 1,1 0 0 0 0,-1.414063 1,1 0 0 0 -1.414063,0 L 11.585938,15 H 10 a 1.0001,1.0001 0 0 0 -1,1 v 2 H 7 a 1.0001,1.0001 0 0 0 -1,1 v 2 H 3 v -2.585938 l 7.107422,-7.107421 a 1,1 0 0 0 0,-1.4140629 1,1 0 0 0 -0.7070314,-0.2929687 z"
     id="path6" />
</svg>
