<?xml version="1.0" encoding="UTF-8" standalone="no"?>
<svg
   width="24"
   height="24"
   viewBox="0 0 24 24"
   fill="none"
   stroke="currentColor"
   stroke-width="2"
   stroke-linecap="round"
   stroke-linejoin="round"
   version="1.1"
   id="svg8"
   xmlns="http://www.w3.org/2000/svg"
   xmlns:svg="http://www.w3.org/2000/svg">
  <defs
     id="defs12" />
  <path
     style="color:#000000;fill:#000000;-inkscape-stroke:none"
     d="M 7.5,9 C 3.9219973,9 1,11.921997 1,15.5 1,19.078003 3.9219973,22 7.5,22 11.078003,22 14,19.078003 14,15.5 14,11.921997 11.078003,9 7.5,9 Z m 0,2 C 9.9971235,11 12,13.002876 12,15.5 12,17.997124 9.9971235,20 7.5,20 5.0028765,20 3,17.997124 3,15.5 3,13.002876 5.0028765,11 7.5,11 Z"
     id="circle2" />
  <path
     style="color:#000000;fill:#000000;-inkscape-stroke:none"
     d="m 20.292969,1.2929687 -9.59961,9.5996093 a 1,1 0 0 0 0,1.414063 1,1 0 0 0 1.414063,0 l 9.599609,-9.5996097 a 1,1 0 0 0 0,-1.4140626 1,1 0 0 0 -1.414062,0 z"
     id="path4" />
  <path
     style="color:#000000;fill:#000000;-inkscape-stroke:none"
     d="m 18.292969,3.2929688 a 1,1 0 0 0 0,1.4140624 L 20.585937,7 18.5,9.0859375 16.207031,6.7929687 a 1,1 0 0 0 -1.414062,0 1,1 0 0 0 0,1.4140626 l 3,2.9999997 a 1.0001,1.0001 0 0 0 1.414062,0 l 3.5,-3.4999998 a 1.0001,1.0001 0 0 0 0,-1.4140625 l -3,-2.9999999 a 1,1 0 0 0 -1.414062,0 z"
     id="path6" />
</svg>
