<?xml version="1.0" encoding="UTF-8" standalone="no"?>
<svg
   width="24"
   height="24"
   viewBox="0 0 24 24"
   fill="none"
   stroke="currentColor"
   stroke-width="2"
   stroke-linecap="round"
   stroke-linejoin="round"
   version="1.1"
   id="svg20"
   xmlns="http://www.w3.org/2000/svg"
   xmlns:svg="http://www.w3.org/2000/svg">
  <defs
     id="defs24" />
  <path
     style="color:#000000;fill:#000000;-inkscape-stroke:none"
     d="M 4,3 C 2.3552989,3 1,4.3552989 1,6 v 12 c 0,1.644701 1.3552989,3 3,3 h 16 c 1.644701,0 3,-1.355299 3,-3 V 6 C 23,4.3552989 21.644701,3 20,3 Z m 0,2 h 16 c 0.571297,0 1,0.4287033 1,1 v 12 c 0,0.571297 -0.428703,1 -1,1 H 4 C 3.4287033,19 3,18.571297 3,18 V 6 C 3,5.4287033 3.4287033,5 4,5 Z"
     id="rect2" />
  <path
     style="color:#000000;fill:#000000;-inkscape-stroke:none"
     d="M 6,7 A 1,1 0 0 0 5,8 1,1 0 0 0 6,9 h 0.00195 a 1,1 0 0 0 1,-1 1,1 0 0 0 -1,-1 z"
     id="path4" />
  <path
     style="color:#000000;fill:#000000;-inkscape-stroke:none"
     d="m 10,7 a 1,1 0 0 0 -1,1 1,1 0 0 0 1,1 h 0.002 a 1,1 0 0 0 1,-1 1,1 0 0 0 -1,-1 z"
     id="path6" />
  <path
     style="color:#000000;fill:#000000;-inkscape-stroke:none"
     d="m 14,7 a 1,1 0 0 0 -1,1 1,1 0 0 0 1,1 h 0.002 a 1,1 0 0 0 1,-1 1,1 0 0 0 -1,-1 z"
     id="path8" />
  <path
     style="color:#000000;fill:#000000;-inkscape-stroke:none"
     d="m 18,7 a 1,1 0 0 0 -1,1 1,1 0 0 0 1,1 h 0.002 a 1,1 0 0 0 1,-1 1,1 0 0 0 -1,-1 z"
     id="path10" />
  <path
     style="color:#000000;fill:#000000;-inkscape-stroke:none"
     d="m 8,11 a 1,1 0 0 0 -1,1 1,1 0 0 0 1,1 h 0.00195 a 1,1 0 0 0 1,-1 1,1 0 0 0 -1,-1 z"
     id="path12" />
  <path
     style="color:#000000;fill:#000000;-inkscape-stroke:none"
     d="m 12,11 a 1,1 0 0 0 -1,1 1,1 0 0 0 1,1 h 0.002 a 1,1 0 0 0 1,-1 1,1 0 0 0 -1,-1 z"
     id="path14" />
  <path
     style="color:#000000;fill:#000000;-inkscape-stroke:none"
     d="m 16,11 a 1,1 0 0 0 -1,1 1,1 0 0 0 1,1 h 0.002 a 1,1 0 0 0 1,-1 1,1 0 0 0 -1,-1 z"
     id="path16" />
  <path
     style="color:#000000;fill:#000000;-inkscape-stroke:none"
     d="m 7,15 a 1,1 0 0 0 -1,1 1,1 0 0 0 1,1 h 10 a 1,1 0 0 0 1,-1 1,1 0 0 0 -1,-1 z"
     id="path18" />
</svg>
