<?xml version="1.0" encoding="UTF-8" standalone="no"?>
<svg
   width="24"
   height="24"
   viewBox="0 0 24 24"
   fill="none"
   stroke="currentColor"
   stroke-width="2"
   stroke-linecap="round"
   stroke-linejoin="round"
   version="1.1"
   id="svg8"
   xmlns="http://www.w3.org/2000/svg"
   xmlns:svg="http://www.w3.org/2000/svg">
  <defs
     id="defs12" />
  <path
     style="color:#000000;fill:#000000;-inkscape-stroke:none"
     d="m 11,12 a 1.0001,1.0001 0 0 0 -0.919922,0.605469 l -2.9999999,7 A 1.0001,1.0001 0 0 0 8,21 h 12 a 1.0001,1.0001 0 0 0 0.919922,-1.394531 l -3,-7 A 1.0001,1.0001 0 0 0 17,12 Z m 0.660156,2 h 4.679688 l 2.142578,5 H 9.5175781 Z"
     id="path2" />
  <path
     style="color:#000000;fill:#000000;-inkscape-stroke:none"
     d="M 8,5 A 1,1 0 0 0 7,6 1,1 0 0 0 8,7 h 4 c 0.564129,0 1,0.4358712 1,1 v 5 a 1,1 0 0 0 1,1 1,1 0 0 0 1,-1 V 8 C 15,6.354992 13.645008,5 12,5 Z"
     id="path4" />
  <path
     style="color:#000000;fill:#000000;-inkscape-stroke:none"
     d="M 4,2 A 1.0001,1.0001 0 0 0 3,3 v 6 a 1.0001,1.0001 0 0 0 1,1 H 6 C 7.645008,10 9,8.645008 9,7 V 5 C 9,3.354992 7.645008,2 6,2 Z M 5,4 H 6 C 6.5641288,4 7,4.4358712 7,5 V 7 C 7,7.5641288 6.5641288,8 6,8 H 5 Z"
     id="path6" />
</svg>
