<?xml version="1.0" encoding="UTF-8" standalone="no"?>
<svg
   width="24"
   height="24"
   viewBox="0 0 24 24"
   fill="none"
   stroke="currentColor"
   stroke-width="2"
   stroke-linecap="round"
   stroke-linejoin="round"
   version="1.1"
   id="svg8"
   xmlns="http://www.w3.org/2000/svg"
   xmlns:svg="http://www.w3.org/2000/svg">
  <defs
     id="defs12" />
  <path
     style="color:#000000;fill:#000000;-inkscape-stroke:none"
     d="M 11,3 A 1.0001,1.0001 0 0 0 10.080078,3.6054688 L 7.0800781,10.605469 A 1.0001,1.0001 0 0 0 8,12 h 12 a 1.0001,1.0001 0 0 0 0.919922,-1.394531 l -3,-7.0000002 A 1.0001,1.0001 0 0 0 17,3 Z m 0.660156,2 h 4.679688 l 2.142578,5 H 9.5175781 Z"
     id="path2" />
  <path
     style="color:#000000;fill:#000000;-inkscape-stroke:none"
     d="m 14,10 a 1,1 0 0 0 -1,1 v 5 c 0,0.564129 -0.435871,1 -1,1 H 8 a 1,1 0 0 0 -1,1 1,1 0 0 0 1,1 h 4 c 1.645008,0 3,-1.354992 3,-3 v -5 a 1,1 0 0 0 -1,-1 z"
     id="path4" />
  <path
     style="color:#000000;fill:#000000;-inkscape-stroke:none"
     d="m 4,14 a 1.0001,1.0001 0 0 0 -1,1 v 6 a 1.0001,1.0001 0 0 0 1,1 h 2 c 1.645008,0 3,-1.354992 3,-3 V 17 C 9,15.354992 7.645008,14 6,14 Z m 1,2 h 1 c 0.5641288,0 1,0.435871 1,1 v 2 c 0,0.564129 -0.4358712,1 -1,1 H 5 Z"
     id="path6" />
</svg>
