<?xml version="1.0" encoding="UTF-8" standalone="no"?>
<svg
   width="24"
   height="24"
   viewBox="0 0 24 24"
   fill="none"
   stroke="currentColor"
   stroke-width="2"
   stroke-linecap="round"
   stroke-linejoin="round"
   version="1.1"
   id="svg8"
   xmlns="http://www.w3.org/2000/svg"
   xmlns:svg="http://www.w3.org/2000/svg">
  <defs
     id="defs12" />
  <path
     style="color:#000000;fill:#000000;-inkscape-stroke:none"
     d="M 8,1 A 1.0001,1.0001 0 0 0 7.0722656,1.6289062 l -4,9.9999998 A 1.0001,1.0001 0 0 0 4,13 h 16 a 1.0001,1.0001 0 0 0 0.927734,-1.371094 l -4,-9.9999998 A 1.0001,1.0001 0 0 0 16,1 Z m 0.6757813,2 h 6.6464847 l 3.201171,8 H 5.4765625 Z"
     id="path2" />
  <path
     style="color:#000000;fill:#000000;-inkscape-stroke:none"
     d="m 12,11 a 1,1 0 0 0 -1,1 v 6 a 1,1 0 0 0 1,1 1,1 0 0 0 1,-1 v -6 a 1,1 0 0 0 -1,-1 z"
     id="path4" />
  <path
     style="color:#000000;fill:#000000;-inkscape-stroke:none"
     d="m 10,17 c -1.6454529,0 -3,1.354547 -3,3 v 2 a 1.0001,1.0001 0 0 0 1,1 h 8 a 1.0001,1.0001 0 0 0 1,-1 v -2 c 0,-1.645008 -1.354992,-3 -3,-3 z m 0,2 h 4 c 0.564129,0 1,0.435871 1,1 v 1 H 9 v -1 c 0,-0.554545 0.4454551,-1 1,-1 z"
     id="path6" />
</svg>
