<?xml version="1.0" encoding="UTF-8" standalone="no"?>
<svg
   width="24"
   height="24"
   viewBox="0 0 24 24"
   fill="none"
   stroke="currentColor"
   stroke-width="2"
   stroke-linecap="round"
   stroke-linejoin="round"
   version="1.1"
   id="svg10"
   xmlns="http://www.w3.org/2000/svg"
   xmlns:svg="http://www.w3.org/2000/svg">
  <defs
     id="defs14" />
  <path
     style="color:#000000;fill:#000000;-inkscape-stroke:none"
     d="m 14.275391,4.0390625 a 1.0001,1.0001 0 0 0 -0.982422,0.2539062 l -3,3 a 1.0001,1.0001 0 0 0 -0.253906,0.9824219 l 2,7.0000004 a 1.0001,1.0001 0 0 0 1.667968,0.43164 l 8,-7.9999998 a 1.0001,1.0001 0 0 0 -0.43164,-1.6679687 z m 0.01563,2.0839844 4.800781,1.3710937 -5.597656,5.5976564 -1.371094,-4.8007814 z"
     id="path2" />
  <path
     style="color:#000000;fill:#000000;-inkscape-stroke:none"
     d="m 10.292969,1.2929687 -3.0000003,3 a 1.0001,1.0001 0 0 0 0,1.4140625 l 3.0000003,3.0000001 a 1.0001,1.0001 0 0 0 1.414062,0 l 3,-3.0000001 a 1.0001,1.0001 0 0 0 0,-1.4140625 l -3,-3 a 1.0001,1.0001 0 0 0 -1.414062,0 z M 11,3.4140625 12.585938,5 11,6.5859375 9.4140625,5 Z"
     id="path4" />
  <path
     style="color:#000000;fill:#000000;-inkscape-stroke:none"
     d="M 9.5,5.5 A 1,1 0 0 0 8.7929688,5.7929687 l -5.5,5.5000003 a 1.0001,1.0001 0 0 0 -0.1875,1.154297 l 2.9999999,6 a 1,1 0 0 0 1.3417969,0.447265 1,1 0 0 0 0.4472656,-1.341797 L 5.2167969,12.197266 10.207031,7.2070312 a 1,1 0 0 0 0,-1.4140625 A 1,1 0 0 0 9.5,5.5 Z"
     id="path6" />
  <path
     style="color:#000000;fill:#000000;-inkscape-stroke:none"
     d="m 5,17 c -1.6454529,0 -3,1.354547 -3,3 v 2 a 1.0001,1.0001 0 0 0 1,1 h 8 a 1.0001,1.0001 0 0 0 1,-1 v -2 c 0,-1.645008 -1.354992,-3 -3,-3 z m 0,2 h 4 c 0.5641288,0 1,0.435871 1,1 v 1 H 4 v -1 c 0,-0.554545 0.4454551,-1 1,-1 z"
     id="path8" />
</svg>
