<?xml version="1.0" encoding="UTF-8" standalone="no"?>
<svg
   width="24"
   height="24"
   viewBox="0 0 24 24"
   fill="none"
   stroke="currentColor"
   stroke-width="2"
   stroke-linecap="round"
   stroke-linejoin="round"
   version="1.1"
   id="svg4"
   xmlns="http://www.w3.org/2000/svg"
   xmlns:svg="http://www.w3.org/2000/svg">
  <defs
     id="defs8" />
  <path
     style="color:#000000;fill:#000000;-inkscape-stroke:none"
     d="M 6,4 C 4.354992,4 3,5.354992 3,7 v 8.761719 L 1.8261719,18.101562 C 1.174232,19.398629 2.1748637,21.010141 3.6269531,21 H 20.373047 c 1.452089,0.01014 2.452721,-1.601371 1.800781,-2.898438 v -0.002 L 21,15.761719 V 7 C 21,5.354992 19.645008,4 18,4 Z m 0,2 h 12 c 0.564129,0 1,0.4358712 1,1 v 8 H 5 V 7 C 5,6.4358712 5.4358712,6 6,6 Z M 4.6171875,17 H 19.382812 l 1.003907,1.998047 a 1.0001,1.0001 0 0 0 0,0.002 1.0001,1.0001 0 0 0 -0.0059,0 H 3.6191406 a 1.0001,1.0001 0 0 0 -0.00586,0 1.0001,1.0001 0 0 0 0,-0.002 z"
     id="path2" />
</svg>
