<?xml version="1.0" encoding="UTF-8" standalone="no"?>
<svg
   width="24"
   height="24"
   viewBox="0 0 24 24"
   fill="none"
   stroke="currentColor"
   stroke-width="2"
   stroke-linecap="round"
   stroke-linejoin="round"
   version="1.1"
   id="svg8"
   xmlns="http://www.w3.org/2000/svg"
   xmlns:svg="http://www.w3.org/2000/svg">
  <defs
     id="defs12" />
  <path
     style="color:#000000;fill:#000000;-inkscape-stroke:none"
     d="m 5,17 a 1,1 0 0 0 -1,1 c 0,1.887665 0.8902587,3.668182 2.4003906,4.800781 A 1,1 0 0 0 7.8007812,22.599609 1,1 0 0 0 7.5996094,21.199219 C 6.5916854,20.443276 6,19.259905 6,18 A 1,1 0 0 0 5,17 Z"
     id="path2" />
  <path
     style="color:#000000;fill:#000000;-inkscape-stroke:none"
     d="M 12,1 C 6.0636423,1 1,4.9181869 1,10 c -3.0303e-4,1.648437 0.5208688,3.254596 1.4902344,4.587891 A 1,1 0 0 0 3.8886719,14.808594 1,1 0 0 0 4.109375,13.412109 C 3.3884345,12.420506 2.9997746,11.225982 3,10 3,6.2818219 6.9363687,3 12,3 c 5.063631,0 9,3.2818219 9,7 0,3.718178 -3.936369,7 -9,7 a 1.0001,1.0001 0 0 0 -0.01758,0 C 10.4066,17.026311 8.8448754,16.714357 7.4003906,16.083984 a 1,1 0 0 0 -1.3164062,0.515625 1,1 0 0 0 0.515625,1.316407 C 8.3030516,18.659397 10.1476,19.027371 12.005859,18.998047 17.93948,18.995256 23,15.080003 23,10 23,4.9181869 17.936358,1 12,1 Z"
     id="path4" />
  <path
     style="color:#000000;fill:#000000;-inkscape-stroke:none"
     d="M 5,13 C 4.0833344,13 3.2685585,13.379756 2.7519531,13.960938 2.2353477,14.542119 2,15.277779 2,16 2,16.722221 2.2353477,17.457881 2.7519531,18.039062 3.2685585,18.620244 4.0833344,19 5,19 5.9166656,19 6.7314415,18.620244 7.2480469,18.039062 7.7646523,17.457881 8,16.722221 8,16 8,15.277779 7.7646523,14.542119 7.2480469,13.960938 6.7314415,13.379756 5.9166656,13 5,13 Z m 0,2 c 0.4166659,0 0.6018928,0.120245 0.7519531,0.289063 C 5.9020134,15.45788 6,15.722222 6,16 6,16.277778 5.9020134,16.54212 5.7519531,16.710937 5.6018928,16.879755 5.4166659,17 5,17 4.5833341,17 4.3981072,16.879755 4.2480469,16.710937 4.0979866,16.54212 4,16.277778 4,16 4,15.722222 4.0979866,15.45788 4.2480469,15.289063 4.3981072,15.120245 4.5833341,15 5,15 Z"
     id="path6" />
</svg>
