<?xml version="1.0" encoding="UTF-8" standalone="no"?>
<svg
   width="24"
   height="24"
   viewBox="0 0 24 24"
   fill="none"
   stroke="currentColor"
   stroke-width="2"
   stroke-linecap="round"
   stroke-linejoin="round"
   version="1.1"
   id="svg12"
   xmlns="http://www.w3.org/2000/svg"
   xmlns:svg="http://www.w3.org/2000/svg">
  <defs
     id="defs16" />
  <path
     style="color:#000000;fill:#000000;-inkscape-stroke:none"
     d="m 5,17 a 1,1 0 0 0 -1,1 c 0,1.887665 0.8902587,3.668182 2.4003906,4.800781 A 1,1 0 0 0 7.8007812,22.599609 1,1 0 0 0 7.5996094,21.199219 C 6.5916854,20.443276 6,19.259905 6,18 A 1,1 0 0 0 5,17 Z"
     id="path2" />
  <path
     style="color:#000000;fill:#000000;-inkscape-stroke:none"
     d="m 6.6445312,15.996094 a 1,1 0 0 0 -0.5566406,0.52539 1,1 0 0 0 0.5039063,1.320313 c 1.0328005,0.462608 2.1162166,0.799502 3.2363281,0.984375 a 1,1 0 0 0 1.148438,-0.824219 1,1 0 0 0 -0.824219,-1.148437 C 9.2124573,16.698389 8.2954007,16.414969 7.4082031,16.017578 a 1,1 0 0 0 -0.7636719,-0.02148 z"
     id="path4" />
  <path
     style="color:#000000;fill:#000000;-inkscape-stroke:none"
     d="M 12,1 C 6.0476388,1 1,4.9042887 1,10 a 1.0001,1.0001 0 0 0 0,0.0078 c 0.013005,1.653551 0.5513971,3.260196 1.5371094,4.58789 a 1,1 0 0 0 1.3984375,0.207031 1,1 0 0 0 0.2070312,-1.398437 C 3.4102537,12.417901 3.0104867,11.224507 3,9.9960938 3.0026775,6.2534305 6.9141139,3 12,3 c 5.083919,0 8.992349,3.2513503 8.998047,6.9921875 -0.01411,0.5797795 -0.107103,1.1537955 -0.28125,1.7070315 a 1,1 0 0 0 0.652344,1.253906 1,1 0 0 0 1.253906,-0.652344 C 22.855299,11.562958 22.982912,10.79481 23,10.021484 A 1.0001,1.0001 0 0 0 23,10 C 23,4.9042887 17.952361,1 12,1 Z"
     id="path6" />
  <path
     style="color:#000000;fill:#000000;-inkscape-stroke:none"
     d="M 5,13 C 4.0833344,13 3.2685585,13.379756 2.7519531,13.960938 2.2353477,14.542119 2,15.277779 2,16 2,16.722221 2.2353477,17.457881 2.7519531,18.039062 3.2685585,18.620244 4.0833344,19 5,19 5.9166656,19 6.7314415,18.620244 7.2480469,18.039062 7.7646523,17.457881 8,16.722221 8,16 8,15.277779 7.7646523,14.542119 7.2480469,13.960938 6.7314415,13.379756 5.9166656,13 5,13 Z m 0,2 c 0.4166659,0 0.6018928,0.120245 0.7519531,0.289063 C 5.9020134,15.45788 6,15.722222 6,16 6,16.277778 5.9020134,16.54212 5.7519531,16.710937 5.6018928,16.879755 5.4166659,17 5,17 4.5833341,17 4.3981072,16.879755 4.2480469,16.710937 4.0979866,16.54212 4,16.277778 4,16 4,15.722222 4.0979866,15.45788 4.2480469,15.289063 4.3981072,15.120245 4.5833341,15 5,15 Z"
     id="path8" />
  <path
     style="color:#000000;fill:#000000;-inkscape-stroke:none"
     d="m 14.300781,10.339844 c -0.713819,0.021 -1.30109,0.625715 -1.300781,1.339844 v 9.999999 a 1.0001,1.0001 0 0 0 0,0.03516 c 0.0198,0.561232 0.392541,1.058227 0.925781,1.234375 A 1.0001,1.0001 0 0 0 14.240234,23 h 0.08984 c 0.424045,0 0.825651,-0.199827 1.080078,-0.539063 a 1.0001,1.0001 0 0 0 0.03125,-0.04492 l 2.273438,-3.40625 h 3.933593 c 0.583063,0.01214 1.109196,-0.399422 1.28125,-0.882813 0.172055,-0.483391 0.02601,-1.135157 -0.433593,-1.494141 l -7.316406,-5.980468 c -0.20273,-0.168941 -0.51961,-0.3125 -0.84961,-0.3125 a 1.0001,1.0001 0 0 0 -0.0293,0 z M 15,13.087891 l 4.798828,3.921875 h -2.619141 a 1.0001,1.0001 0 0 0 -0.832031,0.445312 L 15,19.472656 Z"
     id="path10" />
</svg>
