<?xml version="1.0" encoding="UTF-8" standalone="no"?>
<svg
   width="24"
   height="24"
   viewBox="0 0 24 24"
   fill="none"
   stroke="currentColor"
   stroke-width="2"
   stroke-linecap="round"
   stroke-linejoin="round"
   version="1.1"
   id="svg8"
   xmlns="http://www.w3.org/2000/svg"
   xmlns:svg="http://www.w3.org/2000/svg">
  <defs
     id="defs12" />
  <path
     style="color:#000000;fill:#000000;-inkscape-stroke:none"
     d="m 11.552734,1.1054687 -9.9999996,5 a 1.0001,1.0001 0 0 0 0,1.7890625 l 9.9999996,4.9999998 a 1.0001,1.0001 0 0 0 0.894532,0 l 10,-4.9999998 a 1.0001,1.0001 0 0 0 0,-1.7890625 l -10,-5 a 1.0001,1.0001 0 0 0 -0.894532,0 z M 12,3.1171875 19.763672,7 12,10.882813 4.2363281,7 Z"
     id="polygon2" />
  <path
     style="color:#000000;fill:#000000;-inkscape-stroke:none"
     d="m 1.6835937,16.050781 a 1,1 0 0 0 -0.578125,0.501953 1,1 0 0 0 0.4472657,1.341797 l 9.9999996,5 a 1.0001,1.0001 0 0 0 0.894532,0 l 10,-5 a 1,1 0 0 0 0.447265,-1.341797 1,1 0 0 0 -1.341797,-0.447265 L 12,20.882812 2.4472656,16.105469 a 1,1 0 0 0 -0.7636719,-0.05469 z"
     id="polyline4" />
  <path
     style="color:#000000;fill:#000000;-inkscape-stroke:none"
     d="m 2.4472656,11.105469 a 1,1 0 0 0 -1.3417969,0.447265 1,1 0 0 0 0.4472657,1.341797 l 9.9999996,5 a 1.0001,1.0001 0 0 0 0.894532,0 l 10,-5 a 1,1 0 0 0 0.447265,-1.341797 1,1 0 0 0 -1.341797,-0.447265 L 12,15.882813 Z"
     id="polyline6" />
</svg>
