<?xml version="1.0" encoding="UTF-8" standalone="no"?>
<svg
   width="24"
   height="24"
   viewBox="0 0 24 24"
   fill="none"
   stroke="currentColor"
   stroke-width="2"
   stroke-linecap="round"
   stroke-linejoin="round"
   version="1.1"
   id="svg8"
   xmlns="http://www.w3.org/2000/svg"
   xmlns:svg="http://www.w3.org/2000/svg">
  <defs
     id="defs12" />
  <path
     style="color:#000000;fill:#000000;-inkscape-stroke:none"
     d="M 4,2 C 2.9092983,2 2,2.9092983 2,4 v 5 c 0,1.090702 0.9092983,2 2,2 h 16 c 1.090702,0 2,-0.909298 2,-2 V 4 C 22,2.9092983 21.090702,2 20,2 Z M 4,4 H 20 V 9 H 4 Z"
     id="rect2" />
  <path
     style="color:#000000;fill:#000000;-inkscape-stroke:none"
     d="m 4,13 c -1.0907017,0 -2,0.909298 -2,2 v 5 c 0,1.090702 0.9092983,2 2,2 h 5 c 1.090702,0 2,-0.909298 2,-2 v -5 c 0,-1.090702 -0.909298,-2 -2,-2 z m 0,2 h 5 v 5 H 4 Z"
     id="rect4" />
  <path
     style="color:#000000;fill:#000000;-inkscape-stroke:none"
     d="m 15,13 c -1.090702,0 -2,0.909298 -2,2 v 5 c 0,1.090702 0.909298,2 2,2 h 5 c 1.090702,0 2,-0.909298 2,-2 v -5 c 0,-1.090702 -0.909298,-2 -2,-2 z m 0,2 h 5 v 5 h -5 z"
     id="rect6" />
</svg>
