<?xml version="1.0" encoding="UTF-8" standalone="no"?>
<svg
   width="24"
   height="24"
   viewBox="0 0 24 24"
   fill="none"
   stroke="currentColor"
   stroke-width="2"
   stroke-linecap="round"
   stroke-linejoin="round"
   version="1.1"
   id="svg6"
   xmlns="http://www.w3.org/2000/svg"
   xmlns:svg="http://www.w3.org/2000/svg">
  <defs
     id="defs10" />
  <path
     style="color:#000000;fill:#000000;-inkscape-stroke:none"
     d="M 18.6875,0.96875 C 17.767463,0.91462995 16.81973,1.2831153 15.953125,1.9042969 13.826773,0.48187079 10.999086,1.1421397 9.7167969,3.3515625 6.9505007,2.5760138 4.2020074,4.5925907 4.1621094,7.4882812 1.3129943,8.6714309 0.06218533,12.19484 1.8808594,14.835938 c 0.7961791,1.155161 1.4552355,2.23365 1.328125,3.107421 C 2.981681,19.289702 2.2545929,20.079686 1.21875,21.375 a 1,1 0 0 0 0.011719,0.109375 1,1 0 0 0 -0.015625,1.134766 1,1 0 0 0 0.1445313,0.01758 1,1 0 0 0 0.015625,0.144531 1,1 0 0 0 1.1386719,-0.0078 1,1 0 0 0 0.1054687,0.01172 c 1.2741649,-1.00608 2.1030019,-1.77419 3.3574219,-1.970703 1.1293067,0.01919 2.2148698,0.441872 3.0410156,1.214844 a 1.0001,1.0001 0 0 0 0.109375,0.08984 c 2.6480829,1.855019 6.2062719,0.595067 7.3847659,-2.28125 2.89569,-0.0399 4.912267,-2.788392 4.136718,-5.554688 2.209423,-1.282289 2.869692,-4.109976 1.447266,-6.236328 C 22.716885,7.1802705 23.08537,6.2325374 23.03125,5.3125 22.963488,4.1605528 22.432134,3.119634 21.65625,2.34375 20.880366,1.567866 19.839447,1.0365118 18.6875,0.96875 Z m -0.117188,1.9960938 c 0.601176,0.035363 1.210261,0.3313539 1.671875,0.7929687 0.461615,0.4616148 0.757606,1.0706993 0.792969,1.671875 0.03536,0.6011757 -0.144746,1.215059 -0.792969,1.8632812 A 1.0001,1.0001 0 0 0 20.25,8.7148438 c 1.374415,1.3461012 0.850166,3.5726402 -0.980469,4.1640622 a 1.0001,1.0001 0 0 0 -0.572265,1.429688 c 1.03205,1.900398 -0.50578,4.033849 -2.634766,3.654297 a 1.0001,1.0001 0 0 0 -1.148437,0.753906 c -0.496963,2.095238 -2.876944,2.999156 -4.640625,1.763672 l 0.109375,0.08984 C 9.1672897,19.433025 7.5649983,18.800387 5.9003906,18.800781 a 1.0001,1.0001 0 0 0 -0.1367187,0.0078 c -0.3688003,0.05091 -0.6089809,0.247927 -0.9296875,0.355468 0.1064412,-0.310978 0.2920736,-0.543674 0.3515625,-0.90039 a 1.0001,1.0001 0 0 0 0.00391,-0.01563 C 5.4756949,16.347073 4.3189529,14.846869 3.5292969,13.701172 2.3188586,11.943361 3.21541,9.5889855 5.2890625,9.0839844 A 1.0001,1.0001 0 0 0 6.0371094,7.9375 C 5.6575573,5.808514 7.7910082,4.2706839 9.6914063,5.3027344 A 1.0001,1.0001 0 0 0 11.121094,4.7304687 C 11.712516,2.8998336 13.939055,2.3755849 15.285156,3.75 a 1.0001,1.0001 0 0 0 1.421875,0.00781 c 0.648222,-0.6482222 1.262106,-0.8283322 1.863281,-0.7929687 z"
     id="path2" />
  <path
     style="color:#000000;fill:#000000;-inkscape-stroke:none"
     d="M 16.292969,6.2929687 1.2929687,21.292969 a 1,1 0 0 0 0,1.414062 1,1 0 0 0 1.4140626,0 L 17.707031,7.7070312 a 1,1 0 0 0 0,-1.4140625 1,1 0 0 0 -1.414062,0 z"
     id="path4" />
</svg>
