<?xml version="1.0" encoding="UTF-8" standalone="no"?>
<svg
   width="24"
   height="24"
   viewBox="0 0 24 24"
   fill="none"
   stroke="currentColor"
   stroke-width="2"
   stroke-linecap="round"
   stroke-linejoin="round"
   version="1.1"
   id="svg6"
   xmlns="http://www.w3.org/2000/svg"
   xmlns:svg="http://www.w3.org/2000/svg">
  <defs
     id="defs10" />
  <path
     style="color:#000000;fill:#000000;-inkscape-stroke:none"
     d="M 19.107422,1.0058594 A 1.0001,1.0001 0 0 0 18.220703,1.3730469 C 17.275952,2.5445378 16.584567,3.1348755 15.390625,3.6503906 14.196683,4.1659058 12.448564,4.5696508 9.6113281,5.1171875 l 0.019531,-0.00195 C 4.9204366,5.9199583 2.6860696,9.9606448 3.0078125,13.6875 3.3295554,17.414355 6.2252606,21.014476 11.003906,21 16.797045,20.997788 22,16.078021 22,10 22,6.0054839 20.905263,3.5741986 19.894531,1.5527344 A 1.0001,1.0001 0 0 0 19.107422,1.0058594 Z M 18.660156,3.7734375 C 19.384555,5.3808039 20,7.1217559 20,10 c 0,4.920601 -4.354717,9 -9,9 a 1.0001,1.0001 0 0 0 -0.0039,0 C 7.1864244,19.011541 5.2495566,16.383699 5.0019531,13.515625 4.7543496,10.647551 6.2134698,7.7274858 9.96875,7.0859375 a 1.0001,1.0001 0 0 0 0.021484,-0.00391 C 12.852993,6.529569 14.702538,6.1258118 16.183594,5.4863281 17.159052,5.0651489 17.931587,4.4658258 18.660156,3.7734375 Z"
     id="path2" />
  <path
     style="color:#000000;fill:#000000;-inkscape-stroke:none"
     d="m 13,11 a 1,1 0 0 0 -0.707031,0.292969 C 11.523958,12.06198 9.0384998,13.592344 6.8847656,14.019531 3.2664204,14.736479 1,17.588892 1,21 a 1,1 0 0 0 1,1 1,1 0 0 0 1,-1 c 0,-2.588886 1.4317892,-4.45648 4.2734375,-5.019531 a 1.0001,1.0001 0 0 0 0.00195,0 c 2.686261,-0.532812 5.2006534,-2.042451 6.4316404,-3.273438 a 1,1 0 0 0 0,-1.414062 A 1,1 0 0 0 13,11 Z"
     id="path4" />
</svg>
