<?xml version="1.0" encoding="UTF-8" standalone="no"?>
<svg
   width="24"
   height="24"
   viewBox="0 0 24 24"
   fill="none"
   stroke="currentColor"
   stroke-width="2"
   stroke-linecap="round"
   stroke-linejoin="round"
   version="1.1"
   id="svg10"
   xmlns="http://www.w3.org/2000/svg"
   xmlns:svg="http://www.w3.org/2000/svg">
  <defs
     id="defs14" />
  <path
     style="color:#000000;fill:#000000;-inkscape-stroke:none"
     d="m 15.724609,5.0390625 a 1,1 0 0 0 -0.685546,1.2363281 l 3.999999,14.0000004 a 1,1 0 0 0 1.236329,0.685546 1,1 0 0 0 0.685546,-1.236328 l -4,-13.9999996 A 1,1 0 0 0 15.724609,5.0390625 Z"
     id="path2" />
  <path
     style="color:#000000;fill:#000000;-inkscape-stroke:none"
     d="m 12,5 a 1,1 0 0 0 -1,1 v 14 a 1,1 0 0 0 1,1 1,1 0 0 0 1,-1 V 6 A 1,1 0 0 0 12,5 Z"
     id="path4" />
  <path
     style="color:#000000;fill:#000000;-inkscape-stroke:none"
     d="M 8,7 A 1,1 0 0 0 7,8 v 12 a 1,1 0 0 0 1,1 1,1 0 0 0 1,-1 V 8 A 1,1 0 0 0 8,7 Z"
     id="path6" />
  <path
     style="color:#000000;fill:#000000;-inkscape-stroke:none"
     d="M 4,3 A 1,1 0 0 0 3,4 v 16 a 1,1 0 0 0 1,1 1,1 0 0 0 1,-1 V 4 A 1,1 0 0 0 4,3 Z"
     id="path8" />
</svg>
