<?xml version="1.0" encoding="UTF-8" standalone="no"?>
<svg
   width="24"
   height="24"
   viewBox="0 0 24 24"
   fill="none"
   stroke="currentColor"
   stroke-width="2"
   stroke-linecap="round"
   stroke-linejoin="round"
   version="1.1"
   id="svg14"
   xmlns="http://www.w3.org/2000/svg"
   xmlns:svg="http://www.w3.org/2000/svg">
  <defs
     id="defs18" />
  <path
     style="color:#000000;fill:#000000;-inkscape-stroke:none"
     d="M 12,1 C 5.9367185,1 1,5.9367185 1,12 1,18.063282 5.9367185,23 12,23 18.063282,23 23,18.063282 23,12 23,5.9367185 18.063282,1 12,1 Z m 0,2 c 4.982402,0 9,4.0175976 9,9 0,4.982402 -4.017598,9 -9,9 C 7.0175976,21 3,16.982402 3,12 3,7.0175976 7.0175976,3 12,3 Z"
     id="circle2" />
  <path
     style="color:#000000;fill:#000000;-inkscape-stroke:none"
     d="m 4.9296875,3.9296875 a 1,1 0 0 0 -0.7070313,0.2929687 1,1 0 0 0 0,1.4140625 l 4.2402344,4.2402344 a 1,1 0 0 0 1.4140625,0 1,1 0 0 0 0,-1.4140625 L 5.6367187,4.2226562 A 1,1 0 0 0 4.9296875,3.9296875 Z"
     id="path4" />
  <path
     style="color:#000000;fill:#000000;-inkscape-stroke:none"
     d="m 18.363281,4.2226562 -4.240234,4.2402344 a 1,1 0 0 0 0,1.4140625 1,1 0 0 0 1.414062,0 l 4.240235,-4.2402344 a 1,1 0 0 0 0,-1.4140625 1,1 0 0 0 -1.414063,0 z"
     id="path6" />
  <path
     style="color:#000000;fill:#000000;-inkscape-stroke:none"
     d="m 14.830078,13.830078 a 1,1 0 0 0 -0.707031,0.292969 1,1 0 0 0 0,1.414062 l 4.240234,4.240235 a 1,1 0 0 0 1.414063,0 1,1 0 0 0 0,-1.414063 l -4.240235,-4.240234 a 1,1 0 0 0 -0.707031,-0.292969 z"
     id="path8" />
  <path
     style="color:#000000;fill:#000000;-inkscape-stroke:none"
     d="m 9.1699219,13.830078 a 1,1 0 0 0 -0.7070313,0.292969 l -4.2402344,4.240234 a 1,1 0 0 0 0,1.414063 1,1 0 0 0 1.4140625,0 l 4.2402344,-4.240235 a 1,1 0 0 0 0,-1.414062 1,1 0 0 0 -0.7070312,-0.292969 z"
     id="path10" />
  <path
     style="color:#000000;fill:#000000;-inkscape-stroke:none"
     d="m 12,7 c -2.7495764,0 -5,2.2504236 -5,5 0,2.749576 2.2504236,5 5,5 2.749576,0 5,-2.250424 5,-5 0,-2.7495764 -2.250424,-5 -5,-5 z m 0,2 c 1.668697,0 3,1.331303 3,3 0,1.668697 -1.331303,3 -3,3 -1.668697,0 -3,-1.331303 -3,-3 0,-1.668697 1.331303,-3 3,-3 z"
     id="circle12" />
</svg>
