<?xml version="1.0" encoding="UTF-8" standalone="no"?>
<svg
   width="24"
   height="24"
   viewBox="0 0 24 24"
   fill="none"
   stroke="currentColor"
   stroke-width="2"
   stroke-linecap="round"
   stroke-linejoin="round"
   version="1.1"
   id="svg12"
   xmlns="http://www.w3.org/2000/svg"
   xmlns:svg="http://www.w3.org/2000/svg">
  <defs
     id="defs16" />
  <path
     style="color:#000000;fill:#000000;-inkscape-stroke:none"
     d="M 11.785156,1.0214844 C 10.552955,1.0473869 9.3013385,1.4060992 8.1503906,2.1640625 A 1,1 0 0 0 7.8652344,3.5507813 1,1 0 0 0 9.25,3.8359375 C 12.61684,1.6186861 16.992622,3.970606 17,8.0019531 16.999574,8.9788528 16.693451,9.81435 16.052734,10.535156 a 1,1 0 0 0 0.08203,1.41211 1,1 0 0 0 1.412109,-0.08203 C 18.50571,10.786544 19,9.4222208 19,8 a 1.0001,1.0001 0 0 0 0,-0.00195 C 18.992433,3.8637214 15.481759,0.94377668 11.785156,1.0214844 Z"
     id="path2" />
  <path
     style="color:#000000;fill:#000000;-inkscape-stroke:none"
     d="m 2,1 a 1,1 0 0 0 -0.7070313,0.2929687 1,1 0 0 0 0,1.4140626 L 21.292969,22.707031 a 1,1 0 0 0 1.414062,0 1,1 0 0 0 0,-1.414062 L 2.7070313,1.2929687 A 1,1 0 0 0 2,1 Z"
     id="path4" />
  <path
     style="color:#000000;fill:#000000;-inkscape-stroke:none"
     d="M 6.671875,5.3710937 A 1,1 0 0 0 5.3710937,5.9277344 C 4.4892815,8.1266635 5.0719091,10.652034 6.828125,12.242188 l -0.035156,-0.03516 c 0.6326559,0.632656 1.0818775,1.264856 1.2265626,1.988282 a 1,1 0 0 0 1.1757812,0.785156 1,1 0 0 0 0.7851563,-1.175781 C 9.7251542,12.528115 8.974374,11.560311 8.2070313,10.792969 A 1.0001,1.0001 0 0 0 8.171875,10.757813 C 7.0310285,9.724841 6.655686,8.1003102 7.2285156,6.671875 A 1,1 0 0 0 6.671875,5.3710937 Z"
     id="path6" />
  <path
     style="color:#000000;fill:#000000;-inkscape-stroke:none"
     d="m 9,17 a 1,1 0 0 0 -1,1 1,1 0 0 0 1,1 h 6 a 1,1 0 0 0 1,-1 1,1 0 0 0 -1,-1 z"
     id="path8" />
  <path
     style="color:#000000;fill:#000000;-inkscape-stroke:none"
     d="m 10,21 a 1,1 0 0 0 -1,1 1,1 0 0 0 1,1 h 4 a 1,1 0 0 0 1,-1 1,1 0 0 0 -1,-1 z"
     id="path10" />
</svg>
