<?xml version="1.0" encoding="UTF-8" standalone="no"?>
<svg
   width="24"
   height="24"
   viewBox="0 0 24 24"
   fill="none"
   stroke="currentColor"
   stroke-width="2"
   stroke-linecap="round"
   stroke-linejoin="round"
   version="1.1"
   id="svg8"
   xmlns="http://www.w3.org/2000/svg"
   xmlns:svg="http://www.w3.org/2000/svg">
  <defs
     id="defs12" />
  <path
     style="color:#000000;fill:#000000;-inkscape-stroke:none"
     d="M 12,1 C 8.1458563,1 5,4.1458534 5,8 c 0,1.1333322 0.3116608,2.725723 1.7929687,4.207031 0.6326559,0.632656 1.0818775,1.264856 1.2265626,1.988282 a 1,1 0 0 0 1.1757812,0.785156 1,1 0 0 0 0.7851563,-1.175781 C 9.7251542,12.528115 8.974374,11.560311 8.2070313,10.792969 7.0883418,9.6742793 7,8.8666658 7,8 7,5.2267318 9.2267335,3 12,3 c 2.773266,0 5,2.2267318 5,5 0,1.0435887 -0.40263,2.065297 -1.169922,2.755859 a 1.0001,1.0001 0 0 0 -0.03711,0.03711 c -0.858925,0.858924 -1.52818,1.785432 -1.773438,3.011719 a 1,1 0 0 0 0.785157,1.175781 1,1 0 0 0 1.175781,-0.785156 c 0.154742,-0.773712 0.485489,-1.247208 1.226562,-1.988282 l -0.03711,0.03711 C 18.402628,11.134705 19,9.5564087 19,8 19,4.1458534 15.854144,1 12,1 Z"
     id="path2" />
  <path
     style="color:#000000;fill:#000000;-inkscape-stroke:none"
     d="m 9,17 a 1,1 0 0 0 -1,1 1,1 0 0 0 1,1 h 6 a 1,1 0 0 0 1,-1 1,1 0 0 0 -1,-1 z"
     id="path4" />
  <path
     style="color:#000000;fill:#000000;-inkscape-stroke:none"
     d="m 10,21 a 1,1 0 0 0 -1,1 1,1 0 0 0 1,1 h 4 a 1,1 0 0 0 1,-1 1,1 0 0 0 -1,-1 z"
     id="path6" />
</svg>
