<?xml version="1.0" encoding="UTF-8" standalone="no"?>
<svg
   width="24"
   height="24"
   viewBox="0 0 24 24"
   fill="none"
   stroke="currentColor"
   stroke-width="2"
   stroke-linecap="round"
   stroke-linejoin="round"
   version="1.1"
   id="svg6"
   xmlns="http://www.w3.org/2000/svg"
   xmlns:svg="http://www.w3.org/2000/svg">
  <defs
     id="defs10" />
  <path
     style="color:#000000;fill:#000000;-inkscape-stroke:none"
     d="M 17.267578,0.99414063 C 15.756811,0.89505567 14.132301,1.4394524 12.775391,2.75 a 1.0001,1.0001 0 0 0 -0.0098,0.011719 l -1.720703,1.7089843 a 1,1 0 0 0 -0.0039,1.4140625 1,1 0 0 0 1.414062,0.00391 l 1.708985,-1.6992188 0.0059,-0.00391 c 0.997465,-0.9607475 2.000843,-1.2586654 2.966797,-1.1953125 0.967853,0.063478 1.917286,0.5305675 2.634765,1.2480468 0.71748,0.7174794 1.18457,1.666912 1.248047,2.6347657 0.06335,0.9659537 -0.234565,1.9693316 -1.195312,2.9667969 -0.0019,0.00196 -0.002,0.0039 -0.0039,0.00586 l -2.988281,2.9863279 a 1.0001,1.0001 0 0 0 0,0.002 c -1.735424,1.736054 -4.560934,1.532049 -6.03125,-0.433593 a 1,1 0 0 0 -1.4003904,-0.201172 1,1 0 0 0 -0.2011718,1.40039 c 2.1782772,2.912105 6.4777922,3.218453 9.0488282,0.646485 l 3,-2.998047 a 1.0001,1.0001 0 0 0 0.01172,-0.01367 C 22.570313,9.8774649 23.11471,8.252955 23.015625,6.7421875 22.91654,5.23142 22.215438,3.8541102 21.185547,2.8242188 20.155655,1.7943273 18.778346,1.0932256 17.267578,0.99414063 Z"
     id="path2" />
  <path
     style="color:#000000;fill:#000000;-inkscape-stroke:none"
     d="M 10.423828,8.0195313 C 8.7554945,7.9000485 7.037471,8.4679223 5.7519531,9.7539063 l -3,2.9980467 a 1.0001,1.0001 0 0 0 -0.011719,0.01367 c -1.3105476,1.35691 -1.85494436,2.98142 -1.7558594,4.492187 0.099085,1.510768 0.8001867,2.888078 1.8300781,3.917969 1.0298915,1.029892 2.4072013,1.730993 3.9179688,1.830078 1.5107674,0.09908 3.1352774,-0.445311 4.4921871,-1.755859 a 1.0001,1.0001 0 0 0 0.01172,-0.01367 l 1.710938,-1.708984 a 1,1 0 0 0 0,-1.414063 1,1 0 0 0 -1.414063,0 L 9.8300781,19.814453 C 8.8326129,20.775201 7.829235,21.073119 6.8632812,21.009766 5.8954275,20.946288 4.945995,20.479198 4.2285156,19.761719 3.5110363,19.044239 3.0439463,18.094807 2.9804688,17.126953 c -0.063353,-0.965954 0.234565,-1.969332 1.1953124,-2.966797 0.00189,-0.002 0.00201,-0.0039 0.00391,-0.0059 l 2.9882812,-2.986328 a 1.0001,1.0001 0 0 0 0,-0.002 C 8.9033931,9.429962 11.728903,9.6339669 13.199219,11.599609 a 1,1 0 0 0 1.40039,0.201172 1,1 0 0 0 0.201172,-1.40039 C 13.711643,8.9443384 12.092162,8.139014 10.423828,8.0195313 Z"
     id="path4" />
</svg>
