<?xml version="1.0" encoding="UTF-8" standalone="no"?>
<svg
   width="24"
   height="24"
   viewBox="0 0 24 24"
   fill="none"
   stroke="currentColor"
   stroke-width="2"
   stroke-linecap="round"
   stroke-linejoin="round"
   version="1.1"
   id="svg10"
   xmlns="http://www.w3.org/2000/svg"
   xmlns:svg="http://www.w3.org/2000/svg">
  <defs
     id="defs14" />
  <path
     style="color:#000000;fill:#000000;-inkscape-stroke:none"
     d="M 7,6 C 5.0833359,6 3.5185578,6.7547567 2.5019531,7.8984375 1.4853484,9.0421183 1,10.527779 1,12 1,13.472221 1.4853484,14.957882 2.5019531,16.101562 3.5185578,17.245243 5.0833359,18 7,18 H 9 A 1,1 0 0 0 10,17 1,1 0 0 0 9,16 H 7 C 5.5833356,16 4.6481065,15.504755 3.9980469,14.773438 3.3479873,14.04212 3,13.027777 3,12 3,10.972223 3.3479873,9.9578799 3.9980469,9.2265625 4.6481065,8.4952451 5.5833356,8 7,8 A 1,1 0 0 0 8,7 1,1 0 0 0 7,6 Z"
     id="path2" />
  <path
     style="color:#000000;fill:#000000;-inkscape-stroke:none"
     d="m 15,6 a 1,1 0 0 0 -1,1 1,1 0 0 0 1,1 h 2 c 3.359129,0 5.214696,3.713087 3.199219,6.400391 a 1,1 0 0 0 0.201172,1.40039 1,1 0 0 0 1.40039,-0.201172 C 24.729571,11.694557 21.881316,6 17,6 Z"
     id="path4" />
  <path
     style="color:#000000;fill:#000000;-inkscape-stroke:none"
     d="m 8,11 a 1,1 0 0 0 -1,1 1,1 0 0 0 1,1 h 4 a 1,1 0 0 0 1,-1 1,1 0 0 0 -1,-1 z"
     id="line6" />
  <path
     style="color:#000000;fill:#000000;-inkscape-stroke:none"
     d="m 2,1 a 1,1 0 0 0 -0.7070313,0.2929687 1,1 0 0 0 0,1.4140626 L 21.292969,22.707031 a 1,1 0 0 0 1.414062,0 1,1 0 0 0 0,-1.414062 L 2.7070313,1.2929687 A 1,1 0 0 0 2,1 Z"
     id="line8" />
</svg>
