<?xml version="1.0" encoding="UTF-8" standalone="no"?>
<svg
   width="24"
   height="24"
   viewBox="0 0 24 24"
   fill="none"
   stroke="currentColor"
   stroke-width="2"
   stroke-linecap="round"
   stroke-linejoin="round"
   version="1.1"
   id="svg8"
   xmlns="http://www.w3.org/2000/svg"
   xmlns:svg="http://www.w3.org/2000/svg">
  <defs
     id="defs12" />
  <path
     style="color:#000000;fill:#000000;-inkscape-stroke:none"
     d="m 16,7 c -3.854145,0 -7,3.145855 -7,7 v 7 a 1.0001,1.0001 0 0 0 1,1 h 4 a 1.0001,1.0001 0 0 0 1,-1 v -7 c 0,-0.564129 0.435871,-1 1,-1 0.564129,0 1,0.435871 1,1 v 7 a 1.0001,1.0001 0 0 0 1,1 h 4 a 1.0001,1.0001 0 0 0 1,-1 V 14 C 23,10.145855 19.854145,7 16,7 Z m 0,2 c 2.773266,0 5,2.226734 5,5 v 6 h -2 v -6 c 0,-1.645008 -1.354992,-3 -3,-3 -1.645008,0 -3,1.354992 -3,3 v 6 h -2 v -6 c 0,-2.773266 2.226734,-5 5,-5 z"
     id="path2" />
  <path
     style="color:#000000;fill:#000000;-inkscape-stroke:none"
     d="M 2,8 A 1.0001,1.0001 0 0 0 1,9 v 12 a 1.0001,1.0001 0 0 0 1,1 H 6 A 1.0001,1.0001 0 0 0 7,21 V 9 A 1.0001,1.0001 0 0 0 6,8 Z m 1,2 H 5 V 20 H 3 Z"
     id="rect4" />
  <path
     style="color:#000000;fill:#000000;-inkscape-stroke:none"
     d="M 4,1 C 2.354992,1 1,2.354992 1,4 1,5.645008 2.354992,7 4,7 5.645008,7 7,5.645008 7,4 7,2.354992 5.645008,1 4,1 Z M 4,3 C 4.5641288,3 5,3.4358712 5,4 5,4.5641288 4.5641288,5 4,5 3.4358712,5 3,4.5641288 3,4 3,3.4358712 3.4358712,3 4,3 Z"
     id="circle6" />
</svg>
