<?xml version="1.0" encoding="UTF-8" standalone="no"?>
<svg
   width="24"
   height="24"
   viewBox="0 0 24 24"
   fill="none"
   stroke="currentColor"
   stroke-width="2"
   stroke-linecap="round"
   stroke-linejoin="round"
   version="1.1"
   id="svg8"
   xmlns="http://www.w3.org/2000/svg"
   xmlns:svg="http://www.w3.org/2000/svg">
  <defs
     id="defs12" />
  <path
     style="color:#000000;fill:#000000;-inkscape-stroke:none"
     d="M 7,6 C 5.0833359,6 3.5185578,6.7547567 2.5019531,7.8984375 1.4853484,9.0421183 1,10.527779 1,12 1,13.472221 1.4853484,14.957882 2.5019531,16.101562 3.5185578,17.245243 5.0833359,18 7,18 H 9 A 1,1 0 0 0 10,17 1,1 0 0 0 9,16 H 7 C 5.5833356,16 4.6481065,15.504755 3.9980469,14.773438 3.3479873,14.04212 3,13.027777 3,12 3,10.972223 3.3479873,9.9578799 3.9980469,9.2265625 4.6481065,8.4952451 5.5833356,8 7,8 H 9 A 1,1 0 0 0 10,7 1,1 0 0 0 9,6 Z"
     id="path2" />
  <path
     style="color:#000000;fill:#000000;-inkscape-stroke:none"
     d="m 15,6 a 1,1 0 0 0 -1,1 1,1 0 0 0 1,1 h 2 c 2.220984,0 4,1.7790177 4,4 0,2.220982 -1.779016,4 -4,4 h -2 a 1,1 0 0 0 -1,1 1,1 0 0 0 1,1 h 2 c 3.301862,0 6,-2.69814 6,-6 0,-3.3018595 -2.698138,-6 -6,-6 z"
     id="path4" />
  <path
     style="color:#000000;fill:#000000;-inkscape-stroke:none"
     d="m 8,11 a 1,1 0 0 0 -1,1 1,1 0 0 0 1,1 h 8 a 1,1 0 0 0 1,-1 1,1 0 0 0 -1,-1 z"
     id="line6" />
</svg>
