<?xml version="1.0" encoding="UTF-8" standalone="no"?>
<svg
   width="24"
   height="24"
   viewBox="0 0 24 24"
   fill="none"
   stroke="currentColor"
   stroke-width="2"
   stroke-linecap="round"
   stroke-linejoin="round"
   version="1.1"
   id="svg10"
   xmlns="http://www.w3.org/2000/svg"
   xmlns:svg="http://www.w3.org/2000/svg">
  <defs
     id="defs14" />
  <path
     style="color:#000000;fill:#000000;-inkscape-stroke:none"
     d="m 3,11 a 1,1 0 0 0 -1,1 1,1 0 0 0 1,1 h 9 a 1,1 0 0 0 1,-1 1,1 0 0 0 -1,-1 z"
     id="path2" />
  <path
     style="color:#000000;fill:#000000;-inkscape-stroke:none"
     d="M 3,5 A 1,1 0 0 0 2,6 1,1 0 0 0 3,7 H 16 A 1,1 0 0 0 17,6 1,1 0 0 0 16,5 Z"
     id="path4" />
  <path
     style="color:#000000;fill:#000000;-inkscape-stroke:none"
     d="m 3,17 a 1,1 0 0 0 -1,1 1,1 0 0 0 1,1 h 9 a 1,1 0 0 0 1,-1 1,1 0 0 0 -1,-1 z"
     id="path6" />
  <path
     style="color:#000000;fill:#000000;-inkscape-stroke:none"
     d="M 15.507813,11.130859 A 1.0001,1.0001 0 0 0 15,12 v 6 a 1.0001,1.0001 0 0 0 1.513672,0.857422 l 5,-3 a 1.0001,1.0001 0 0 0 0,-1.714844 l -5,-3 a 1.0001,1.0001 0 0 0 -1.005859,-0.01172 z M 17,13.765625 19.056641,15 17,16.234375 Z"
     id="path8" />
</svg>
