<?xml version="1.0" encoding="UTF-8" standalone="no"?>
<svg
   width="24"
   height="24"
   viewBox="0 0 24 24"
   fill="none"
   stroke="currentColor"
   stroke-width="2"
   stroke-linecap="round"
   stroke-linejoin="round"
   version="1.1"
   id="svg12"
   xmlns="http://www.w3.org/2000/svg"
   xmlns:svg="http://www.w3.org/2000/svg">
  <defs
     id="defs16" />
  <path
     style="color:#000000;fill:#000000;-inkscape-stroke:none"
     d="m 13,11 a 1,1 0 0 0 -1,1 1,1 0 0 0 1,1 h 8 a 1,1 0 0 0 1,-1 1,1 0 0 0 -1,-1 z"
     id="path2" />
  <path
     style="color:#000000;fill:#000000;-inkscape-stroke:none"
     d="M 8,5 A 1,1 0 0 0 7,6 1,1 0 0 0 8,7 H 21 A 1,1 0 0 0 22,6 1,1 0 0 0 21,5 Z"
     id="path4" />
  <path
     style="color:#000000;fill:#000000;-inkscape-stroke:none"
     d="m 13,17 a 1,1 0 0 0 -1,1 1,1 0 0 0 1,1 h 8 a 1,1 0 0 0 1,-1 1,1 0 0 0 -1,-1 z"
     id="path6" />
  <path
     style="color:#000000;fill:#000000;-inkscape-stroke:none"
     d="M 3,5 A 1,1 0 0 0 2,6 v 4 c 0,1.645453 1.3545471,3 3,3 H 8 A 1,1 0 0 0 9,12 1,1 0 0 0 8,11 H 5 C 4.4454551,11 4,10.554545 4,10 V 6 A 1,1 0 0 0 3,5 Z"
     id="path8" />
  <path
     style="color:#000000;fill:#000000;-inkscape-stroke:none"
     d="m 3,9 a 1,1 0 0 0 -1,1 v 6 c 0,1.645453 1.3545471,3 3,3 H 8 A 1,1 0 0 0 9,18 1,1 0 0 0 8,17 H 5 C 4.4454551,17 4,16.554545 4,16 V 10 A 1,1 0 0 0 3,9 Z"
     id="path10" />
</svg>
