<?xml version="1.0" encoding="UTF-8" standalone="no"?>
<svg
   width="24"
   height="24"
   viewBox="0 0 24 24"
   fill="none"
   stroke="currentColor"
   stroke-width="2"
   stroke-linecap="round"
   stroke-linejoin="round"
   version="1.1"
   id="svg12"
   xmlns="http://www.w3.org/2000/svg"
   xmlns:svg="http://www.w3.org/2000/svg">
  <defs
     id="defs16" />
  <path
     style="color:#000000;fill:#000000;-inkscape-stroke:none"
     d="M 4,4 C 2.9092983,4 2,4.9092983 2,6 v 4 c 0,1.090702 0.9092983,2 2,2 h 4 c 1.0907017,0 2,-0.909298 2,-2 V 6 C 10,4.9092983 9.0907017,4 8,4 Z m 0,2 h 4 v 4 H 4 Z"
     id="rect2" />
  <path
     style="color:#000000;fill:#000000;-inkscape-stroke:none"
     d="M 9,14 A 1,1 0 0 0 8.2929688,14.292969 L 5,17.585937 3.7070313,16.292969 a 1,1 0 0 0 -1.4140625,0 1,1 0 0 0 0,1.414062 l 1.9999999,2 a 1.0001,1.0001 0 0 0 1.4140625,0 l 4.0000001,-4 a 1,1 0 0 0 0,-1.414062 A 1,1 0 0 0 9,14 Z"
     id="path4" />
  <path
     style="color:#000000;fill:#000000;-inkscape-stroke:none"
     d="m 13,5 a 1,1 0 0 0 -1,1 1,1 0 0 0 1,1 h 8 A 1,1 0 0 0 22,6 1,1 0 0 0 21,5 Z"
     id="path6" />
  <path
     style="color:#000000;fill:#000000;-inkscape-stroke:none"
     d="m 13,11 a 1,1 0 0 0 -1,1 1,1 0 0 0 1,1 h 8 a 1,1 0 0 0 1,-1 1,1 0 0 0 -1,-1 z"
     id="path8" />
  <path
     style="color:#000000;fill:#000000;-inkscape-stroke:none"
     d="m 13,17 a 1,1 0 0 0 -1,1 1,1 0 0 0 1,1 h 8 a 1,1 0 0 0 1,-1 1,1 0 0 0 -1,-1 z"
     id="path10" />
</svg>
