<?xml version="1.0" encoding="UTF-8" standalone="no"?>
<svg
   width="24"
   height="24"
   viewBox="0 0 24 24"
   fill="none"
   stroke="currentColor"
   stroke-width="2"
   stroke-linecap="round"
   stroke-linejoin="round"
   version="1.1"
   id="svg14"
   xmlns="http://www.w3.org/2000/svg"
   xmlns:svg="http://www.w3.org/2000/svg">
  <defs
     id="defs18" />
  <path
     style="color:#000000;fill:#000000;-inkscape-stroke:none"
     d="M 10,5 A 1,1 0 0 0 9,6 1,1 0 0 0 10,7 H 21 A 1,1 0 0 0 22,6 1,1 0 0 0 21,5 Z"
     id="line2" />
  <path
     style="color:#000000;fill:#000000;-inkscape-stroke:none"
     d="m 10,11 a 1,1 0 0 0 -1,1 1,1 0 0 0 1,1 h 11 a 1,1 0 0 0 1,-1 1,1 0 0 0 -1,-1 z"
     id="line4" />
  <path
     style="color:#000000;fill:#000000;-inkscape-stroke:none"
     d="m 10,17 a 1,1 0 0 0 -1,1 1,1 0 0 0 1,1 h 11 a 1,1 0 0 0 1,-1 1,1 0 0 0 -1,-1 z"
     id="line6" />
  <path
     style="color:#000000;fill:#000000;-inkscape-stroke:none"
     d="M 4,5 A 1,1 0 0 0 3,6 1,1 0 0 0 4,7 v 3 a 1,1 0 0 0 1,1 1,1 0 0 0 1,-1 V 6 A 1.0001,1.0001 0 0 0 5,5 Z"
     id="path8" />
  <path
     style="color:#000000;fill:#000000;-inkscape-stroke:none"
     d="m 4,9 a 1,1 0 0 0 -1,1 1,1 0 0 0 1,1 H 6 A 1,1 0 0 0 7,10 1,1 0 0 0 6,9 Z"
     id="path10" />
  <path
     style="color:#000000;fill:#000000;-inkscape-stroke:none"
     d="M 4.7050781,12.806641 C 4.3166633,12.819422 3.921991,12.92084 3.5527344,13.105469 a 1,1 0 0 0 -0.4472656,1.341797 1,1 0 0 0 1.3417968,0.447265 C 4.7087514,14.763788 4.870753,14.803541 4.9277344,14.832031 4.9847158,14.860522 5,14.833333 5,15 c 0,-0.08333 0.010219,-0.01428 -0.1132813,0.150391 -0.1234998,0.164666 -0.3437502,0.392578 -0.59375,0.642578 C 4.042969,16.042968 3.7632185,16.315058 3.5117188,16.650391 3.260219,16.985724 3,17.416667 3,18 a 1.0001,1.0001 0 0 0 1,1 H 6 A 1,1 0 0 0 7,18 1,1 0 0 0 6,17 H 5.8964844 C 6.0941021,16.800642 6.297627,16.603815 6.4882812,16.349609 6.739781,16.014276 7,15.583333 7,15 7,14.166667 6.5152835,13.389478 5.8222656,13.042969 5.4757567,12.869714 5.093493,12.793859 4.7050781,12.806641 Z"
     id="path12" />
</svg>
