<?xml version="1.0" encoding="UTF-8" standalone="no"?>
<svg
   width="24"
   height="24"
   viewBox="0 0 24 24"
   fill="none"
   stroke="currentColor"
   stroke-width="2"
   stroke-linecap="round"
   stroke-linejoin="round"
   version="1.1"
   id="svg12"
   xmlns="http://www.w3.org/2000/svg"
   xmlns:svg="http://www.w3.org/2000/svg">
  <defs
     id="defs16" />
  <path
     style="color:#000000;fill:#000000;-inkscape-stroke:none"
     d="m 21,5 a 1,1 0 0 0 -1,1 v 9 a 1,1 0 0 0 1,1 1,1 0 0 0 1,-1 V 6 A 1,1 0 0 0 21,5 Z"
     id="path2" />
  <path
     style="color:#000000;fill:#000000;-inkscape-stroke:none"
     d="m 18.5,12 c -1.083332,0 -2.023108,0.442256 -2.623047,1.117188 C 15.277015,13.792119 15,14.652779 15,15.5 c 0,0.847221 0.277015,1.707881 0.876953,2.382812 C 16.476892,18.557744 17.416668,19 18.5,19 19.583332,19 20.523108,18.557744 21.123047,17.882812 21.722985,17.207881 22,16.347221 22,15.5 22,14.652779 21.722985,13.792119 21.123047,13.117188 20.523108,12.442256 19.583332,12 18.5,12 Z m 0,2 c 0.583332,0 0.89356,0.182745 1.126953,0.445313 C 19.860347,14.70788 20,15.097223 20,15.5 20,15.902777 19.860347,16.29212 19.626953,16.554687 19.39356,16.817255 19.083332,17 18.5,17 17.916668,17 17.60644,16.817255 17.373047,16.554687 17.139653,16.29212 17,15.902777 17,15.5 17,15.097223 17.139653,14.70788 17.373047,14.445313 17.60644,14.182745 17.916668,14 18.5,14 Z"
     id="path4" />
  <path
     style="color:#000000;fill:#000000;-inkscape-stroke:none"
     d="m 3,11 a 1,1 0 0 0 -1,1 1,1 0 0 0 1,1 h 9 a 1,1 0 0 0 1,-1 1,1 0 0 0 -1,-1 z"
     id="path6" />
  <path
     style="color:#000000;fill:#000000;-inkscape-stroke:none"
     d="M 3,5 A 1,1 0 0 0 2,6 1,1 0 0 0 3,7 H 16 A 1,1 0 0 0 17,6 1,1 0 0 0 16,5 Z"
     id="path8" />
  <path
     style="color:#000000;fill:#000000;-inkscape-stroke:none"
     d="m 3,17 a 1,1 0 0 0 -1,1 1,1 0 0 0 1,1 h 9 a 1,1 0 0 0 1,-1 1,1 0 0 0 -1,-1 z"
     id="path10" />
</svg>
