<?xml version="1.0" encoding="UTF-8" standalone="no"?>
<svg
   width="24"
   height="24"
   viewBox="0 0 24 24"
   fill="none"
   stroke="currentColor"
   stroke-width="2"
   stroke-linecap="round"
   stroke-linejoin="round"
   version="1.1"
   id="svg4"
   xmlns="http://www.w3.org/2000/svg"
   xmlns:svg="http://www.w3.org/2000/svg">
  <defs
     id="defs8" />
  <path
     style="color:#000000;fill:#000000;-inkscape-stroke:none"
     d="m 11.751953,1.9785156 c -3.2350642,0.057277 -6.0834773,1.7219096 -7.8417967,4.1425781 -2.3444259,3.2275581 -2.8125555,7.8845823 0,11.7558593 2.8125554,3.871278 7.3855917,4.865005 11.1796877,3.632813 C 18.88394,20.277573 21.999765,16.786352 22,12 a 1,1 0 0 0 -1,-1 1,1 0 0 0 -1,1 c -1.93e-4,3.933415 -2.462254,6.611986 -5.527344,7.607422 -3.065089,0.995436 -6.6322095,0.274879 -8.9433591,-2.90625 C 3.2181472,13.520043 3.6333814,9.9042824 5.5273437,7.296875 7.4213061,4.6894676 10.731734,3.1751997 14.472656,4.390625 A 1,1 0 0 0 15.732422,3.7480469 1,1 0 0 0 15.089844,2.4882813 C 13.951814,2.1185356 12.830308,1.9594234 11.751953,1.9785156 Z"
     id="path2" />
</svg>
