<?xml version="1.0" encoding="UTF-8" standalone="no"?>
<svg
   width="24"
   height="24"
   viewBox="0 0 24 24"
   fill="none"
   stroke="currentColor"
   stroke-width="2"
   stroke-linecap="round"
   stroke-linejoin="round"
   version="1.1"
   id="svg16"
   xmlns="http://www.w3.org/2000/svg"
   xmlns:svg="http://www.w3.org/2000/svg">
  <defs
     id="defs20" />
  <path
     style="color:#000000;fill:#000000;-inkscape-stroke:none"
     d="m 2,11 a 1,1 0 0 0 -1,1 1,1 0 0 0 1,1 H 5 A 1,1 0 0 0 6,12 1,1 0 0 0 5,11 Z"
     id="line2" />
  <path
     style="color:#000000;fill:#000000;-inkscape-stroke:none"
     d="m 19,11 a 1,1 0 0 0 -1,1 1,1 0 0 0 1,1 h 3 a 1,1 0 0 0 1,-1 1,1 0 0 0 -1,-1 z"
     id="line4" />
  <path
     style="color:#000000;fill:#000000;-inkscape-stroke:none"
     d="m 12,1 a 1,1 0 0 0 -1,1 v 3 a 1,1 0 0 0 1,1 1,1 0 0 0 1,-1 V 2 A 1,1 0 0 0 12,1 Z"
     id="line6" />
  <path
     style="color:#000000;fill:#000000;-inkscape-stroke:none"
     d="m 12,18 a 1,1 0 0 0 -1,1 v 3 a 1,1 0 0 0 1,1 1,1 0 0 0 1,-1 v -3 a 1,1 0 0 0 -1,-1 z"
     id="line8" />
  <path
     style="color:#000000;fill:#000000;-inkscape-stroke:none"
     d="M 7.109375,6.109375 A 1,1 0 0 0 6.4023437,6.4023437 C 4.9602999,7.8443876 4,9.8087741 4,12 c 0,4.409186 3.5908141,8 8,8 2.191226,0 4.155612,-0.9603 5.597656,-2.402344 a 1,1 0 0 0 0,-1.414062 1,1 0 0 0 -1.414062,0 C 15.06564,17.301547 13.60877,18 12,18 8.6691937,18 6,15.330806 6,12 6,10.39123 6.6984527,8.9343598 7.8164062,7.8164062 a 1,1 0 0 0 0,-1.4140625 A 1,1 0 0 0 7.109375,6.109375 Z"
     id="path10" />
  <path
     style="color:#000000;fill:#000000;-inkscape-stroke:none"
     d="M 12,4 C 11.230498,4 10.473934,4.1142909 9.7519531,4.3320312 A 1,1 0 0 0 9.0820313,5.578125 1,1 0 0 0 10.328125,6.2480469 C 10.866143,6.0857876 11.429503,6 12,6 c 3.330806,0 6,2.6691937 6,6 0,0.570497 -0.08579,1.133857 -0.248047,1.671875 a 1,1 0 0 0 0.669922,1.246094 1,1 0 0 0 1.246094,-0.669922 C 19.885709,13.526066 20,12.769502 20,12 20,7.5908141 16.409186,4 12,4 Z"
     id="path12" />
  <path
     style="color:#000000;fill:#000000;-inkscape-stroke:none"
     d="m 2,1 a 1,1 0 0 0 -0.7070313,0.2929687 1,1 0 0 0 0,1.4140626 L 21.292969,22.707031 a 1,1 0 0 0 1.414062,0 1,1 0 0 0 0,-1.414062 L 2.7070313,1.2929687 A 1,1 0 0 0 2,1 Z"
     id="line14" />
</svg>
