<?xml version="1.0" encoding="UTF-8" standalone="no"?>
<svg
   width="24"
   height="24"
   viewBox="0 0 24 24"
   fill="none"
   stroke="currentColor"
   stroke-width="2"
   stroke-linecap="round"
   stroke-linejoin="round"
   version="1.1"
   id="svg6"
   xmlns="http://www.w3.org/2000/svg"
   xmlns:svg="http://www.w3.org/2000/svg">
  <defs
     id="defs10" />
  <path
     style="color:#000000;fill:#000000;-inkscape-stroke:none"
     d="m 5,10 c -1.6447011,0 -3,1.355299 -3,3 v 7 c 0,1.644701 1.3552989,3 3,3 h 14 c 1.644701,0 3,-1.355299 3,-3 v -7 c 0,-1.644701 -1.355299,-3 -3,-3 z m 0,2 h 14 c 0.571297,0 1,0.428703 1,1 v 7 c 0,0.571297 -0.428703,1 -1,1 H 5 C 4.4287033,21 4,20.571297 4,20 v -7 c 0,-0.571297 0.4287033,-1 1,-1 z"
     id="rect2" />
  <path
     style="color:#000000;fill:#000000;-inkscape-stroke:none"
     d="M 12,1 C 10.527779,1 9.0421183,1.4853484 7.8984375,2.5019531 6.7547567,3.5185578 6,5.0833359 6,7 v 4 a 1,1 0 0 0 1,1 1,1 0 0 0 1,-1 V 7 C 8,5.5833356 8.4952451,4.6481065 9.2265625,3.9980469 9.9578799,3.3479873 10.972223,3 12,3 13.027777,3 14.04212,3.3479873 14.773438,3.9980469 15.504755,4.6481065 16,5.5833356 16,7 v 4 a 1,1 0 0 0 1,1 1,1 0 0 0 1,-1 V 7 C 18,5.0833359 17.245243,3.5185578 16.101562,2.5019531 14.957882,1.4853484 13.472221,1 12,1 Z"
     id="path4" />
</svg>
