<?xml version="1.0" encoding="UTF-8" standalone="no"?>
<svg
   width="24"
   height="24"
   viewBox="0 0 24 24"
   fill="none"
   stroke="currentColor"
   stroke-width="2"
   stroke-linecap="round"
   stroke-linejoin="round"
   version="1.1"
   id="svg8"
   xmlns="http://www.w3.org/2000/svg"
   xmlns:svg="http://www.w3.org/2000/svg">
  <defs
     id="defs12" />
  <path
     style="color:#000000;fill:#000000;-inkscape-stroke:none"
     d="m 15,2 a 1,1 0 0 0 -1,1 1,1 0 0 0 1,1 h 4 c 0.564129,0 1,0.4358712 1,1 v 14 c 0,0.564129 -0.435871,1 -1,1 h -4 a 1,1 0 0 0 -1,1 1,1 0 0 0 1,1 h 4 c 1.645008,0 3,-1.354992 3,-3 V 5 C 22,3.354992 20.645008,2 19,2 Z"
     id="path2" />
  <path
     style="color:#000000;fill:#000000;-inkscape-stroke:none"
     d="m 10,6 a 1,1 0 0 0 -0.7070312,0.2929687 1,1 0 0 0 0,1.4140625 L 13.585938,12 9.2929688,16.292969 a 1,1 0 0 0 0,1.414062 1,1 0 0 0 1.4140622,0 l 5,-5 a 1.0001,1.0001 0 0 0 0,-1.414062 l -5,-5.0000003 A 1,1 0 0 0 10,6 Z"
     id="polyline4" />
  <path
     style="color:#000000;fill:#000000;-inkscape-stroke:none"
     d="m 3,11 a 1,1 0 0 0 -1,1 1,1 0 0 0 1,1 h 12 a 1,1 0 0 0 1,-1 1,1 0 0 0 -1,-1 z"
     id="line6" />
</svg>
