<?xml version="1.0" encoding="UTF-8" standalone="no"?>
<svg
   width="24"
   height="24"
   viewBox="0 0 24 24"
   fill="none"
   stroke="currentColor"
   stroke-width="2"
   stroke-linecap="round"
   stroke-linejoin="round"
   version="1.1"
   id="svg8"
   xmlns="http://www.w3.org/2000/svg"
   xmlns:svg="http://www.w3.org/2000/svg">
  <defs
     id="defs12" />
  <path
     style="color:#000000;fill:#000000;-inkscape-stroke:none"
     d="m 11,2 c -4.9587132,0 -9,4.0412868 -9,9 0,4.958713 4.0412868,9 9,9 4.958713,0 9,-4.041287 9,-9 0,-4.9587132 -4.041287,-9 -9,-9 z m 0,2 c 3.877834,0 7,3.122166 7,7 0,3.877834 -3.122166,7 -7,7 C 7.122166,18 4,14.877834 4,11 4,7.122166 7.122166,4 11,4 Z"
     id="circle2" />
  <path
     style="color:#000000;fill:#000000;-inkscape-stroke:none"
     d="m 15.992188,15.992188 a 1,1 0 0 0 0,1.414062 l 4.300781,4.300781 a 1,1 0 0 0 1.414062,0 1,1 0 0 0 0,-1.414062 L 17.40625,15.992188 a 1,1 0 0 0 -1.414062,0 z"
     id="path4" />
  <path
     style="color:#000000;fill:#000000;-inkscape-stroke:none"
     d="M 11,6 C 9.7777791,6 8.5421185,6.4020149 7.5859375,7.2519531 6.6297565,8.1018914 6,9.4166687 6,11 c 0,3.854147 3.1458563,7 7,7 3.854144,0 7,-3.145853 7,-7 a 1,1 0 0 0 -1,-1 1,1 0 0 0 -1,1 c 0,2.773268 -2.226734,5 -5,5 C 10.226734,16 8,13.773268 8,11 8,9.9166684 8.370245,9.23144 8.9140625,8.7480469 9.45788,8.2646537 10.222223,8 11,8 11.777777,8 12.54212,8.2646537 13.085938,8.7480469 13.629755,9.23144 14,9.9166684 14,11 14,11.416666 13.879755,11.601893 13.710938,11.751953 13.54212,11.902013 13.277778,12 13,12 12.722222,12 12.45788,11.902013 12.289063,11.751953 12.120245,11.601893 12,11.416666 12,11 a 1,1 0 0 0 -1,-1 1,1 0 0 0 -1,1 c 0,0.916666 0.379756,1.731441 0.960938,2.248047 C 11.542119,13.764652 12.277779,14 13,14 13.722221,14 14.457881,13.764652 15.039063,13.248047 15.620244,12.731441 16,11.916666 16,11 16,9.4166687 15.370243,8.1018914 14.414063,7.2519531 13.457882,6.4020149 12.222221,6 11,6 Z"
     id="path6" />
</svg>
