<?xml version="1.0" encoding="UTF-8" standalone="no"?>
<svg
   width="24"
   height="24"
   viewBox="0 0 24 24"
   fill="none"
   stroke="currentColor"
   stroke-width="2"
   stroke-linecap="round"
   stroke-linejoin="round"
   version="1.1"
   id="svg12"
   xmlns="http://www.w3.org/2000/svg"
   xmlns:svg="http://www.w3.org/2000/svg">
  <defs
     id="defs16" />
  <path
     style="color:#000000;fill:#000000;-inkscape-stroke:none"
     d="M 6,5 C 4.354992,5 3,6.354992 3,8 v 10 c 0,1.645008 1.354992,3 3,3 A 1,1 0 0 0 7,20 1,1 0 0 0 6,19 C 5.4358712,19 5,18.564129 5,18 V 8 C 5,7.4358712 5.4358712,7 6,7 h 12 c 0.564129,0 1,0.4358712 1,1 v 10 c 0,0.564129 -0.435871,1 -1,1 a 1,1 0 0 0 -1,1 1,1 0 0 0 1,1 c 1.645008,0 3,-1.354992 3,-3 V 8 C 21,6.354992 19.645008,5 18,5 Z"
     id="path2" />
  <path
     style="color:#000000;fill:#000000;-inkscape-stroke:none"
     d="M 10,1 C 8.354992,1 7,2.354992 7,4 v 14 a 1,1 0 0 0 1,1 1,1 0 0 0 1,-1 V 4 C 9,3.4358712 9.4358712,3 10,3 h 4 c 0.564129,0 1,0.4358712 1,1 v 14 a 1,1 0 0 0 1,1 1,1 0 0 0 1,-1 V 4 C 17,2.354992 15.645008,1 14,1 Z"
     id="path4" />
  <path
     style="color:#000000;fill:#000000;-inkscape-stroke:none"
     d="m 10,19 a 1,1 0 0 0 -1,1 1,1 0 0 0 1,1 h 4 a 1,1 0 0 0 1,-1 1,1 0 0 0 -1,-1 z"
     id="path6" />
  <path
     style="color:#000000;fill:#000000;-inkscape-stroke:none"
     d="m 16,17 c -1.645008,0 -3,1.354992 -3,3 0,1.645008 1.354992,3 3,3 1.645008,0 3,-1.354992 3,-3 0,-1.645008 -1.354992,-3 -3,-3 z m 0,2 c 0.564129,0 1,0.435871 1,1 0,0.564129 -0.435871,1 -1,1 -0.564129,0 -1,-0.435871 -1,-1 0,-0.564129 0.435871,-1 1,-1 z"
     id="circle8" />
  <path
     style="color:#000000;fill:#000000;-inkscape-stroke:none"
     d="m 8,17 c -1.645008,0 -3,1.354992 -3,3 0,1.645008 1.354992,3 3,3 1.645008,0 3,-1.354992 3,-3 0,-1.645008 -1.354992,-3 -3,-3 z m 0,2 c 0.5641288,0 1,0.435871 1,1 0,0.564129 -0.4358712,1 -1,1 -0.5641288,0 -1,-0.435871 -1,-1 0,-0.564129 0.4358712,-1 1,-1 z"
     id="circle10" />
</svg>
