<?xml version="1.0" encoding="UTF-8" standalone="no"?>
<svg
   width="24"
   height="24"
   viewBox="0 0 24 24"
   fill="none"
   stroke="currentColor"
   stroke-width="2"
   stroke-linecap="round"
   stroke-linejoin="round"
   version="1.1"
   id="svg8"
   xmlns="http://www.w3.org/2000/svg"
   xmlns:svg="http://www.w3.org/2000/svg">
  <defs
     id="defs12" />
  <path
     style="color:#000000;fill:#000000;-inkscape-stroke:none"
     d="M 14.560547,1.15625 C 12.410712,0.98329433 10.095272,1.6816354 8.0820313,3.484375 a 1.0001,1.0001 0 0 0 -0.041016,0.039063 l -6.75,6.7695315 a 1.0001,1.0001 0 0 0 0.00195,1.414062 l 3.9980469,3.998047 0.00195,0.002 A 1,1 0 0 0 6,16 1,1 0 0 0 6.2910156,15.878906 1,1 0 0 0 6.7050781,15.708984 l 0.00195,-0.002 6.3105468,-6.2792966 c 0.6059,-0.4510094 1.089747,-0.2833001 1.478516,0.1054687 0.388229,0.3882294 0.556064,0.8737979 0.107422,1.4785159 l -6.3085941,6.279297 a 1.0001,1.0001 0 0 0 -0.00195,1.416015 l 4.0000002,4 a 1.0001,1.0001 0 0 0 1.416015,0 l 6.75,-6.771484 a 1.0001,1.0001 0 0 0 0.03516,-0.03906 C 22.29688,13.883243 22.997174,11.569757 22.824219,9.4199219 22.651263,7.2700872 21.643322,5.2995718 20.162109,3.8183594 18.680897,2.337147 16.710382,1.3292057 14.560547,1.15625 Z m -0.160156,1.9941406 c 1.623722,0.1306296 3.174578,0.9089538 4.347656,2.0820313 1.173077,1.1730775 1.951402,2.723934 2.082031,4.3476562 0.130375,1.6205589 -0.349287,3.3274789 -1.818359,4.9726559 l -6.013672,6.03125 -2.582031,-2.582031 5.679687,-5.652344 a 1.0001,1.0001 0 0 0 0.08789,-0.101562 C 17.230883,10.879445 16.900327,9.109311 15.910156,8.1191406 14.919986,7.1289702 13.151805,6.7984137 11.783203,7.8457031 a 1.0001,1.0001 0 0 0 -0.09961,0.085937 L 6.0019531,13.587891 3.4140625,10.998047 9.4238281,4.9707031 C 11.070141,3.4990537 12.778622,3.0199182 14.400391,3.1503906 Z"
     id="path2" />
  <path
     style="color:#000000;fill:#000000;-inkscape-stroke:none"
     d="m 5,7 a 1,1 0 0 0 -0.7070313,0.2929687 1,1 0 0 0 0,1.4140626 l 4.0000001,3.9999997 a 1,1 0 0 0 1.4140625,0 1,1 0 0 0 0,-1.414062 L 5.7070312,7.2929687 A 1,1 0 0 0 5,7 Z"
     id="path4" />
  <path
     style="color:#000000;fill:#000000;-inkscape-stroke:none"
     d="m 12,14 a 1,1 0 0 0 -0.707031,0.292969 1,1 0 0 0 0,1.414062 l 4,4 a 1,1 0 0 0 1.414062,0 1,1 0 0 0 0,-1.414062 l -4,-4 A 1,1 0 0 0 12,14 Z"
     id="path6" />
</svg>
