<?xml version="1.0" encoding="UTF-8" standalone="no"?>
<svg
   width="24"
   height="24"
   viewBox="0 0 24 24"
   fill="none"
   stroke="currentColor"
   stroke-width="2"
   stroke-linecap="round"
   stroke-linejoin="round"
   version="1.1"
   id="svg6"
   xmlns="http://www.w3.org/2000/svg"
   xmlns:svg="http://www.w3.org/2000/svg">
  <defs
     id="defs10" />
  <path
     style="color:#000000;fill:#000000;-inkscape-stroke:none"
     d="m 12,1.0019531 c -0.634222,0 -1.269226,0.19899 -1.800781,0.5976563 l -8.0000002,6 C 1.4445036,8.1656457 1,9.0566061 1,10 v 10 c 0,1.645008 1.354992,3 3,3 h 16 c 1.645008,0 3,-1.354992 3,-3 V 10 C 23,9.0525406 22.548273,8.1686403 21.804687,7.6035156 a 1.0001,1.0001 0 0 0 -0.0039,-0.00391 l -8,-6 C 13.269226,1.2009431 12.634222,1.0019531 12,1.0019531 Z m -0.599609,2.1972657 c 0.35911,-0.2693331 0.840108,-0.2693331 1.199218,0 l 7.996094,5.9980468 C 20.851203,9.3921551 21,9.6880663 21,10 v 10 c 0,0.564129 -0.435871,1 -1,1 H 4 C 3.4358712,21 3,20.564129 3,20 V 10 C 3,9.684366 3.1478834,9.3885992 3.4003906,9.1992188 Z"
     id="path2" />
  <path
     style="color:#000000;fill:#000000;-inkscape-stroke:none"
     d="M 2.5371094,9.15625 A 1,1 0 0 0 1.15625,9.4628906 1,1 0 0 0 1.4628906,10.84375 l 8.9707034,5.701172 a 1.0001,1.0001 0 0 0 0.0059,0.002 c 0.95278,0.59694 2.168314,0.59694 3.121094,0 a 1.0001,1.0001 0 0 0 0.0059,-0.002 L 22.537109,10.84375 A 1,1 0 0 0 22.84375,9.4628906 1,1 0 0 0 21.462891,9.15625 l -8.964844,5.697266 c -0.306223,0.190921 -0.689871,0.190921 -0.996094,0 z"
     id="path4" />
</svg>
