<?xml version="1.0" encoding="UTF-8" standalone="no"?>
<svg
   width="24"
   height="24"
   viewBox="0 0 24 24"
   fill="none"
   stroke="currentColor"
   stroke-width="2"
   stroke-linecap="round"
   stroke-linejoin="round"
   version="1.1"
   id="svg12"
   xmlns="http://www.w3.org/2000/svg"
   xmlns:svg="http://www.w3.org/2000/svg">
  <defs
     id="defs16" />
  <path
     style="color:#000000;fill:#000000;-inkscape-stroke:none"
     d="M 4,3 C 2.354992,3 1,4.354992 1,6 v 12 c 0,1.645453 1.3545471,3 3,3 h 7.5 a 1,1 0 0 0 1,-1 1,1 0 0 0 -1,-1 H 4 C 3.4454551,19 3,18.554545 3,18 V 6 C 3,5.4358712 3.4358712,5 4,5 h 16 c 0.564129,0 1,0.4358712 1,1 v 6.5 a 1,1 0 0 0 1,1 1,1 0 0 0 1,-1 V 6 C 23,4.354992 21.645008,3 20,3 Z"
     id="path2" />
  <path
     style="color:#000000;fill:#000000;-inkscape-stroke:none"
     d="M 22.216797,6.0234375 A 1,1 0 0 0 21.462891,6.15625 l -8.964844,5.697266 c -0.306223,0.190921 -0.689871,0.190921 -0.996094,0 L 2.5371094,6.15625 A 1,1 0 0 0 1.15625,6.4628906 1,1 0 0 0 1.4628906,7.84375 l 8.9707034,5.701172 a 1.0001,1.0001 0 0 0 0.0059,0.002 c 0.95278,0.59694 2.168314,0.59694 3.121094,0 a 1.0001,1.0001 0 0 0 0.0059,-0.002 L 22.537109,7.84375 A 1,1 0 0 0 22.84375,6.4628906 1,1 0 0 0 22.216797,6.0234375 Z"
     id="path4" />
  <path
     style="color:#000000;fill:#000000;-inkscape-stroke:none"
     d="m 18,14 c -1.249998,0 -2.314775,0.504756 -2.998047,1.273438 C 14.318681,16.042119 14,17.027779 14,18 c 0,0.972221 0.318681,1.957881 1.001953,2.726562 C 15.685225,21.495244 16.750002,22 18,22 19.249998,22 20.314775,21.495244 20.998047,20.726562 21.681319,19.957881 22,18.972221 22,18 22,17.027779 21.681319,16.042119 20.998047,15.273438 20.314775,14.504756 19.249998,14 18,14 Z m 0,2 c 0.749999,0 1.185226,0.245245 1.501953,0.601562 C 19.81868,16.95788 20,17.472223 20,18 20,18.527777 19.81868,19.04212 19.501953,19.398437 19.185226,19.754755 18.749999,20 18,20 17.250001,20 16.814774,19.754755 16.498047,19.398437 16.18132,19.04212 16,18.527777 16,18 16,17.472223 16.18132,16.95788 16.498047,16.601562 16.814774,16.245245 17.250001,16 18,16 Z"
     id="path6" />
  <path
     style="color:#000000;fill:#000000;-inkscape-stroke:none"
     d="m 18,14 c -2.197292,0 -4,1.802708 -4,4 0,2.197292 1.802708,4 4,4 2.197292,0 4,-1.802708 4,-4 0,-2.197292 -1.802708,-4 -4,-4 z m 0,2 c 1.116413,0 2,0.883587 2,2 0,1.116413 -0.883587,2 -2,2 -1.116413,0 -2,-0.883587 -2,-2 0,-1.116413 0.883587,-2 2,-2 z"
     id="circle8" />
  <path
     style="color:#000000;fill:#000000;-inkscape-stroke:none"
     d="m 19.792969,19.792969 a 1,1 0 0 0 0,1.414062 l 1.5,1.5 a 1,1 0 0 0 1.414062,0 1,1 0 0 0 0,-1.414062 l -1.5,-1.5 a 1,1 0 0 0 -1.414062,0 z"
     id="path10" />
</svg>
