<?xml version="1.0" encoding="UTF-8" standalone="no"?>
<svg
   width="24"
   height="24"
   viewBox="0 0 24 24"
   fill="none"
   stroke="currentColor"
   stroke-width="2"
   stroke-linecap="round"
   stroke-linejoin="round"
   version="1.1"
   id="svg10"
   xmlns="http://www.w3.org/2000/svg"
   xmlns:svg="http://www.w3.org/2000/svg">
  <defs
     id="defs14" />
  <path
     style="color:#000000;fill:#000000;-inkscape-stroke:none"
     d="M 6.5,4 C 3.4666697,4 1,6.4666697 1,9.5 V 17 c 0,1.645008 1.354992,3 3,3 h 16 c 1.645008,0 3,-1.354992 3,-3 V 9 C 23,6.2545482 20.745452,4 18,4 Z m 0,2 H 18 c 1.654544,0 3,1.3454562 3,3 v 8 c 0,0.564129 -0.435871,1 -1,1 H 4 C 3.4358712,18 3,17.564129 3,17 V 9.5 C 3,7.5333353 4.5333353,6 6.5,6 Z"
     id="path2" />
  <path
     style="color:#000000;fill:#000000;-inkscape-stroke:none"
     d="m 15,8 a 1,1 0 0 0 -1,1 1,1 0 0 0 1,1 h 2 v 1 a 1,1 0 0 0 1,1 1,1 0 0 0 1,-1 V 9 A 1.0001,1.0001 0 0 0 18,8 Z"
     id="polyline4" />
  <path
     style="color:#000000;fill:#000000;-inkscape-stroke:none"
     d="m 6.5,4 a 1,1 0 0 0 -1,1 1,1 0 0 0 1,1 C 8.4666647,6 10,7.5333353 10,9.5 V 17 c 0,0.564129 -0.4358712,1 -1,1 a 1,1 0 0 0 -1,1 1,1 0 0 0 1,1 c 1.645008,0 3,-1.354992 3,-3 V 9.5 C 12,6.4666697 9.5333303,4 6.5,4 Z"
     id="path6" />
  <path
     style="color:#000000;fill:#000000;-inkscape-stroke:none"
     d="m 6,9 a 1,1 0 0 0 -1,1 1,1 0 0 0 1,1 H 7 A 1,1 0 0 0 8,10 1,1 0 0 0 7,9 Z"
     id="line8" />
</svg>
