<?xml version="1.0" encoding="UTF-8" standalone="no"?>
<svg
   width="24"
   height="24"
   viewBox="0 0 24 24"
   fill="none"
   stroke="currentColor"
   stroke-width="2"
   stroke-linecap="round"
   stroke-linejoin="round"
   version="1.1"
   id="svg10"
   xmlns="http://www.w3.org/2000/svg"
   xmlns:svg="http://www.w3.org/2000/svg">
  <defs
     id="defs14" />
  <path
     style="color:#000000;fill:#000000;-inkscape-stroke:none"
     d="M 4,3 C 2.354992,3 1,4.354992 1,6 v 12 c 0,1.645453 1.3545471,3 3,3 h 12.5 a 1,1 0 0 0 1,-1 1,1 0 0 0 -1,-1 H 4 C 3.4454551,19 3,18.554545 3,18 V 6 C 3,5.4358712 3.4358712,5 4,5 h 16 c 0.564129,0 1,0.4358712 1,1 v 4.5 a 1,1 0 0 0 1,1 1,1 0 0 0 1,-1 V 6 C 23,4.354992 21.645008,3 20,3 Z"
     id="path2" />
  <path
     style="color:#000000;fill:#000000;-inkscape-stroke:none"
     d="M 22.216797,6.0234375 A 1,1 0 0 0 21.462891,6.15625 l -8.964844,5.697266 c -0.306223,0.190921 -0.689871,0.190921 -0.996094,0 L 2.5371094,6.15625 A 1,1 0 0 0 1.15625,6.4628906 1,1 0 0 0 1.4628906,7.84375 l 8.9707034,5.701172 a 1.0001,1.0001 0 0 0 0.0059,0.002 c 0.95278,0.59694 2.168314,0.59694 3.121094,0 a 1.0001,1.0001 0 0 0 0.0059,-0.002 L 22.537109,7.84375 A 1,1 0 0 0 22.84375,6.4628906 1,1 0 0 0 22.216797,6.0234375 Z"
     id="path4" />
  <path
     style="color:#000000;fill:#000000;-inkscape-stroke:none"
     d="m 20.421875,13.037109 c -0.66988,-0.103058 -1.370045,0.02146 -1.990234,0.371094 -0.677197,0.350656 -1.070718,0.91292 -1.326172,1.423828 a 1,1 0 0 0 0.447265,1.341797 1,1 0 0 0 1.341797,-0.447265 c 0.140372,-0.280743 0.351268,-0.501806 0.453125,-0.552735 a 1.0001,1.0001 0 0 0 0.05273,-0.02734 c 0.441405,-0.255192 0.976699,-0.159432 1.330078,0.203125 C 20.912466,15.605277 21,15.770665 21,15.980469 c 0,0.137179 -0.181966,0.403979 -0.558594,0.658203 -0.376627,0.254223 -0.771484,0.398437 -0.771484,0.398437 a 1,1 0 0 0 -0.613281,1.273438 1,1 0 0 0 1.273437,0.613281 c 0,0 0.605144,-0.206177 1.228516,-0.626953 C 22.181965,17.876099 23,17.143288 23,15.980469 23,15.213803 22.664781,14.565411 22.300781,14.080078 a 1.0001,1.0001 0 0 0 -0.0625,-0.07617 c -0.489242,-0.534402 -1.136006,-0.86212 -1.816406,-0.966797 z"
     id="path6" />
  <path
     style="color:#000000;fill:#000000;-inkscape-stroke:none"
     d="m 20,21 a 1,1 0 0 0 -1,1 v 0.0098 a 1,1 0 0 0 1,1 1,1 0 0 0 1,-1 V 22 a 1,1 0 0 0 -1,-1 z"
     id="path8" />
</svg>
