<?xml version="1.0" encoding="UTF-8" standalone="no"?>
<svg
   width="24"
   height="24"
   viewBox="0 0 24 24"
   fill="none"
   stroke="currentColor"
   stroke-width="2"
   stroke-linecap="round"
   stroke-linejoin="round"
   version="1.1"
   id="svg8"
   xmlns="http://www.w3.org/2000/svg"
   xmlns:svg="http://www.w3.org/2000/svg">
  <defs
     id="defs12" />
  <path
     style="color:#000000;fill:#000000;-inkscape-stroke:none"
     d="M 8,3 C 6.3552989,3 5,4.3552989 5,6 v 9 c 0,1.644701 1.3552989,3 3,3 h 12 c 1.644701,0 3,-1.355299 3,-3 V 6 C 23,4.3552989 21.644701,3 20,3 Z m 0,2 h 12 c 0.571297,0 1,0.4287033 1,1 v 9 c 0,0.571297 -0.428703,1 -1,1 H 8 C 7.4287033,16 7,15.571297 7,15 V 6 C 7,5.4287033 7.4287033,5 8,5 Z"
     id="rect2" />
  <path
     style="color:#000000;fill:#000000;-inkscape-stroke:none"
     d="m 22.291016,6.0429687 a 1,1 0 0 0 -0.761719,0.074219 l -7.095703,3.7773438 c -0.288464,0.1518227 -0.578724,0.1518227 -0.867188,0 L 6.4707031,6.1171875 A 1,1 0 0 0 5.1171875,6.5292969 1,1 0 0 0 5.5292969,7.8828125 l 7.1015621,3.7792965 a 1.0001,1.0001 0 0 0 0.0039,0.002 c 0.851535,0.448176 1.878933,0.448176 2.730468,0 a 1.0001,1.0001 0 0 0 0.0039,-0.002 L 22.470703,7.8828125 A 1,1 0 0 0 22.882812,6.5292969 1,1 0 0 0 22.291016,6.0429687 Z"
     id="path4" />
  <path
     style="color:#000000;fill:#000000;-inkscape-stroke:none"
     d="M 2,7 A 1,1 0 0 0 1,8 v 11 c 0,1.645453 1.3545471,3 3,3 h 14 a 1,1 0 0 0 1,-1 1,1 0 0 0 -1,-1 H 4 C 3.4454551,20 3,19.554545 3,19 V 8 A 1,1 0 0 0 2,7 Z"
     id="path6" />
</svg>
