<?xml version="1.0" encoding="UTF-8" standalone="no"?>
<svg
   width="24"
   height="24"
   viewBox="0 0 24 24"
   fill="none"
   stroke="currentColor"
   stroke-width="2"
   stroke-linecap="round"
   stroke-linejoin="round"
   version="1.1"
   id="svg6"
   xmlns="http://www.w3.org/2000/svg"
   xmlns:svg="http://www.w3.org/2000/svg">
  <defs
     id="defs10" />
  <path
     style="color:#000000;fill:#000000;-inkscape-stroke:none"
     d="m 12,1 c -4.9587121,0 -9,4.0412842 -9,9 0,3.444441 2.1786461,6.581592 4.2519531,8.914062 2.0733071,2.332471 4.1484379,3.886719 4.1484379,3.886719 a 1.0001,1.0001 0 0 0 1.199218,0 c 0,0 2.075131,-1.554248 4.148438,-3.886719 C 18.821354,16.581592 21,13.444441 21,10 21,5.0412842 16.958712,1 12,1 Z m 0,2 c 3.877835,0 7,3.1221627 7,7 0,2.555553 -1.821358,5.418412 -3.748047,7.585937 C 13.625207,19.416027 12.466896,20.271227 12,20.636719 11.533104,20.271227 10.374793,19.416027 8.7480469,17.585937 6.8213579,15.418412 5,12.555553 5,10 5,6.1221627 8.1221651,3 12,3 Z"
     id="path2" />
  <path
     style="color:#000000;fill:#000000;-inkscape-stroke:none"
     d="m 12,6 c -2.1972922,0 -4,1.8027078 -4,4 0,2.197292 1.8027078,4 4,4 2.197292,0 4,-1.802708 4,-4 0,-2.1972922 -1.802708,-4 -4,-4 z m 0,2 c 1.116413,0 2,0.883587 2,2 0,1.116413 -0.883587,2 -2,2 -1.116413,0 -2,-0.883587 -2,-2 0,-1.116413 0.883587,-2 2,-2 z"
     id="circle4" />
</svg>
