<?xml version="1.0" encoding="UTF-8" standalone="no"?>
<svg
   width="24"
   height="24"
   viewBox="0 0 24 24"
   fill="none"
   stroke="currentColor"
   stroke-width="2"
   stroke-linecap="round"
   stroke-linejoin="round"
   version="1.1"
   id="svg12"
   xmlns="http://www.w3.org/2000/svg"
   xmlns:svg="http://www.w3.org/2000/svg">
  <defs
     id="defs16" />
  <path
     style="color:#000000;fill:#000000;-inkscape-stroke:none"
     d="M 5.9980469,4.6074219 A 1,1 0 0 0 4.6074219,4.8613281 C 3.5636472,6.3711966 3.003034,8.16252 3,9.9980469 A 1.0001,1.0001 0 0 0 3,10 c 0,3.444441 2.1786461,6.581592 4.2519531,8.914062 2.0733071,2.332471 4.1484379,3.886719 4.1484379,3.886719 a 1.0001,1.0001 0 0 0 1.21875,-0.01563 c 1.920384,-1.512185 3.65383,-3.245631 5.166015,-5.166015 a 1,1 0 0 0 -0.166015,-1.404297 1,1 0 0 0 -1.404297,0.166015 c -1.239561,1.574168 -2.700308,2.952176 -4.236328,4.236328 C 11.499711,20.241793 10.364202,19.404112 8.7480469,17.585937 6.8218261,15.418939 5.0008845,12.557034 5,10.001953 V 10 C 5.0027584,8.5701653 5.4388579,7.1742269 6.2519531,5.9980469 A 1,1 0 0 0 5.9980469,4.6074219 Z"
     id="path2" />
  <path
     style="color:#000000;fill:#000000;-inkscape-stroke:none"
     d="M 12,1 C 10.62472,0.99683671 9.267338,1.3129423 8.0351563,1.9238281 A 1,1 0 0 0 7.5839844,3.2636719 1,1 0 0 0 8.9238281,3.7167969 C 9.8789813,3.2432551 10.931955,2.9973164 11.998047,3 A 1.0001,1.0001 0 0 0 12,3 c 3.874367,0 6.992472,3.1172188 6.998047,6.9902344 -0.02144,1.0738666 -0.266013,2.1332096 -0.722656,3.1054686 a 1,1 0 0 0 0.478515,1.330078 1,1 0 0 0 1.332031,-0.480468 C 20.66359,12.715406 20.974656,11.3781 21,10.019531 A 1.0001,1.0001 0 0 0 21,10 C 21,5.0419517 16.959755,1.0010835 12.001953,1 Z"
     id="path4" />
  <path
     style="color:#000000;fill:#000000;-inkscape-stroke:none"
     d="M 9.4316406,8.1777344 A 1,1 0 0 0 8.1777344,8.828125 C 8.0569956,9.2087028 7.9964037,9.604676 8,10.003906 8.002174,12.198068 9.8019318,13.997826 11.996094,14 c 0.39923,0.0036 0.795203,-0.057 1.175781,-0.177734 a 1,1 0 0 0 0.650391,-1.253907 1,1 0 0 0 -1.253907,-0.652343 C 12.388266,11.97315 12.198694,12.001994 12.009766,12 A 1.0001,1.0001 0 0 0 12,12 c -1.116413,0 -2,-0.883587 -2,-2 a 1.0001,1.0001 0 0 0 0,-0.00977 c -0.00199,-0.1889283 0.02685,-0.3785008 0.08398,-0.5585938 A 1,1 0 0 0 9.4316406,8.1777344 Z"
     id="path6" />
  <path
     style="color:#000000;fill:#000000;-inkscape-stroke:none"
     d="m 13.001953,6.1230469 a 1,1 0 0 0 -1.21875,0.7148437 1,1 0 0 0 0.714844,1.2207032 c 0.705857,0.1839441 1.252927,0.7327501 1.433594,1.4394531 A 1,1 0 0 0 15.148438,10.21875 1,1 0 0 0 15.869141,9.0019531 C 15.509106,7.5936264 14.408594,6.489613 13.001953,6.1230469 Z"
     id="path8" />
  <path
     style="color:#000000;fill:#000000;-inkscape-stroke:none"
     d="m 2,1 a 1,1 0 0 0 -0.7070313,0.2929687 1,1 0 0 0 0,1.4140626 L 21.292969,22.707031 a 1,1 0 0 0 1.414062,0 1,1 0 0 0 0,-1.414062 L 2.7070313,1.2929687 A 1,1 0 0 0 2,1 Z"
     id="line10" />
</svg>
