<?xml version="1.0" encoding="UTF-8" standalone="no"?>
<svg
   width="24"
   height="24"
   viewBox="0 0 24 24"
   fill="none"
   stroke="currentColor"
   stroke-width="2"
   stroke-linecap="round"
   stroke-linejoin="round"
   version="1.1"
   id="svg8"
   xmlns="http://www.w3.org/2000/svg"
   xmlns:svg="http://www.w3.org/2000/svg">
  <defs
     id="defs12" />
  <path
     style="color:#000000;fill:#000000;-inkscape-stroke:none"
     d="m 8.5527344,2.1054688 -6,2.9999999 A 1.0001,1.0001 0 0 0 2,6 v 15 a 1.0001,1.0001 0 0 0 1.4472656,0.894531 L 9,19.117187 l 5.552734,2.777344 a 1.0001,1.0001 0 0 0 0.894532,0 l 6,-3 A 1.0001,1.0001 0 0 0 22,18 V 3 A 1.0001,1.0001 0 0 0 20.552734,2.1054688 L 15,4.8828125 9.4472656,2.1054688 a 1.0001,1.0001 0 0 0 -0.8945312,0 z M 9,4.1171875 14.552734,6.8945312 a 1.0001,1.0001 0 0 0 0.894532,0 L 20,4.6171875 V 17.382812 l -5,2.5 -5.5527344,-2.777343 a 1.0001,1.0001 0 0 0 -0.8945312,0 L 4,19.382812 V 6.6171875 Z"
     id="polygon2" />
  <path
     style="color:#000000;fill:#000000;-inkscape-stroke:none"
     d="M 9,2 A 1,1 0 0 0 8,3 v 15 a 1,1 0 0 0 1,1 1,1 0 0 0 1,-1 V 3 A 1,1 0 0 0 9,2 Z"
     id="line4" />
  <path
     style="color:#000000;fill:#000000;-inkscape-stroke:none"
     d="m 15,5 a 1,1 0 0 0 -1,1 v 15 a 1,1 0 0 0 1,1 1,1 0 0 0 1,-1 V 6 A 1,1 0 0 0 15,5 Z"
     id="line6" />
</svg>
