<?xml version="1.0" encoding="UTF-8" standalone="no"?>
<svg
   width="24"
   height="24"
   viewBox="0 0 24 24"
   fill="none"
   stroke="currentColor"
   stroke-width="2"
   stroke-linecap="round"
   stroke-linejoin="round"
   version="1.1"
   id="svg8"
   xmlns="http://www.w3.org/2000/svg"
   xmlns:svg="http://www.w3.org/2000/svg">
  <defs
     id="defs12" />
  <path
     style="color:#000000;fill:#000000;-inkscape-stroke:none"
     d="m 8,21 a 1,1 0 0 0 -1,1 1,1 0 0 0 1,1 h 8 a 1,1 0 0 0 1,-1 1,1 0 0 0 -1,-1 z"
     id="path2" />
  <path
     style="color:#000000;fill:#000000;-inkscape-stroke:none"
     d="m 12,10 a 1,1 0 0 0 -1,1 v 11 a 1,1 0 0 0 1,1 1,1 0 0 0 1,-1 V 11 a 1,1 0 0 0 -1,-1 z"
     id="path4" />
  <path
     style="color:#000000;fill:#000000;-inkscape-stroke:none"
     d="M 5,2 A 1.0001,1.0001 0 0 0 4.2480469,3.6582031 l 7.0000001,7.9999999 a 1.0001,1.0001 0 0 0 1.503906,0 l 7,-7.9999999 A 1.0001,1.0001 0 0 0 19,2 Z m 2.203125,2 h 9.59375 L 12,9.4824219 Z"
     id="path6" />
</svg>
