<?xml version="1.0" encoding="UTF-8" standalone="no"?>
<svg
   width="24"
   height="24"
   viewBox="0 0 24 24"
   fill="none"
   stroke="currentColor"
   stroke-width="2"
   stroke-linecap="round"
   stroke-linejoin="round"
   version="1.1"
   id="svg14"
   xmlns="http://www.w3.org/2000/svg"
   xmlns:svg="http://www.w3.org/2000/svg">
  <defs
     id="defs18" />
  <path
     style="color:#000000;fill:#000000;-inkscape-stroke:none"
     d="M 6,1 C 5.0571194,1 4.1676438,1.4452508 3.6015625,2.1992188 L 1.9902344,4.3378906 a 1.0001,1.0001 0 0 0 0,0.00195 C 1.272021,5.29939 1.1947131,6.6031719 1.7949219,7.640625 L 6.34375,15.501953 a 1,1 0 0 0 1.3671875,0.363281 1,1 0 0 0 0.3652344,-1.367187 L 3.5253906,6.6386719 C 3.3238483,6.2903086 3.3494414,5.863591 3.5898438,5.5410156 v -0.00195 L 5.1992187,3.4003906 C 5.3885992,3.1478834 5.684366,3 6,3 h 12 c 0.315634,0 0.611401,0.1478834 0.800781,0.4003906 l 1.597656,2.1386719 a 1.0001,1.0001 0 0 0 0.0039,0.00391 c 0.243195,0.3217425 0.270762,0.749635 0.07031,1.0996094 l -4.548828,7.8554689 a 1,1 0 0 0 0.365234,1.367187 1,1 0 0 0 1.367188,-0.363281 l 4.548828,-7.861328 a 1.0001,1.0001 0 0 0 0.002,-0.00391 C 22.802174,6.5976336 22.720446,5.2979309 22,4.3417969 l -0.002,-0.00195 -1.597656,-2.1386718 a 1.0001,1.0001 0 0 0 0,-0.00195 C 19.834354,1.4445036 18.943394,1 18,1 Z"
     id="path2" />
  <path
     style="color:#000000;fill:#000000;-inkscape-stroke:none"
     d="m 5.3632812,1.2304687 a 1,1 0 0 0 -0.7578125,0.1113282 1,1 0 0 0 -0.34375,1.3730469 l 5.8808593,9.7988282 a 1,1 0 0 0 1.371094,0.34375 1,1 0 0 0 0.34375,-1.371094 L 5.9765625,1.6855469 A 1,1 0 0 0 5.3632812,1.2304687 Z"
     id="path4" />
  <path
     style="color:#000000;fill:#000000;-inkscape-stroke:none"
     d="m 18.636719,1.2304687 a 1,1 0 0 0 -0.613282,0.4550782 l -5.880859,9.8007811 a 1,1 0 0 0 0.34375,1.371094 1,1 0 0 0 1.371094,-0.34375 L 19.738281,2.7148438 A 1,1 0 0 0 19.394531,1.3417969 1,1 0 0 0 18.636719,1.2304687 Z"
     id="path6" />
  <path
     style="color:#000000;fill:#000000;-inkscape-stroke:none"
     d="M 8,6 A 1,1 0 0 0 7,7 1,1 0 0 0 8,8 h 8 A 1,1 0 0 0 17,7 1,1 0 0 0 16,6 Z"
     id="path8" />
  <path
     style="color:#000000;fill:#000000;-inkscape-stroke:none"
     d="m 12,11 c -3.3018606,0 -6,2.698139 -6,6 0,3.301861 2.6981394,6 6,6 3.301861,0 6,-2.698139 6,-6 0,-3.301861 -2.698139,-6 -6,-6 z m 0,2 c 2.220981,0 4,1.779019 4,4 0,2.220981 -1.779019,4 -4,4 -2.2209814,0 -4,-1.779019 -4,-4 0,-2.220981 1.7790186,-4 4,-4 z"
     id="circle10" />
  <path
     style="color:#000000;fill:#000000;-inkscape-stroke:none"
     d="m 11.5,15 a 1,1 0 0 0 -1,1 1,1 0 0 0 0.5,0.792969 V 18 a 1,1 0 0 0 1,1 1,1 0 0 0 1,-1 v -2 a 1.0001,1.0001 0 0 0 -1,-1 z"
     id="path12" />
</svg>
