<?xml version="1.0" encoding="UTF-8" standalone="no"?>
<svg
   width="24"
   height="24"
   viewBox="0 0 24 24"
   fill="none"
   stroke="currentColor"
   stroke-width="2"
   stroke-linecap="round"
   stroke-linejoin="round"
   version="1.1"
   id="svg6"
   xmlns="http://www.w3.org/2000/svg"
   xmlns:svg="http://www.w3.org/2000/svg">
  <defs
     id="defs10" />
  <path
     style="color:#000000;fill:#000000;-inkscape-stroke:none"
     d="M 20.732422,5.0371094 2.7324219,10.037109 A 1.0001,1.0001 0 0 0 2,11 v 3 a 1.0001,1.0001 0 0 0 0.7832031,0.976563 L 20.783203,18.976562 A 1.0001,1.0001 0 0 0 22,18 V 6 A 1.0001,1.0001 0 0 0 20.732422,5.0371094 Z M 20,7.3144531 V 16.753906 L 4,13.197266 v -1.4375 z"
     id="path2" />
  <path
     style="color:#000000;fill:#000000;-inkscape-stroke:none"
     d="m 6.0664062,14.236328 a 1,1 0 0 0 -1.2304687,0.697266 c -0.3331485,1.207663 -0.1287958,2.369539 0.4316406,3.234375 0.5604365,0.864835 1.427968,1.436217 2.3671875,1.695312 0.9392196,0.259095 1.9758129,0.214942 2.9003904,-0.240234 0.924578,-0.455177 1.696149,-1.348977 2.029297,-2.556641 a 1,1 0 0 0 -0.699219,-1.230468 1,1 0 0 0 -1.228515,0.697265 C 10.436535,17.25887 10.081931,17.616636 9.6523438,17.828125 9.2227563,18.039614 8.6767946,18.076451 8.1660156,17.935547 7.6552366,17.794642 7.2057087,17.483861 6.9453125,17.082031 6.6849163,16.680202 6.5634878,16.192464 6.7636719,15.466797 A 1,1 0 0 0 6.0664062,14.236328 Z"
     id="path4" />
</svg>
