<?xml version="1.0" encoding="UTF-8" standalone="no"?>
<svg
   width="24"
   height="24"
   viewBox="0 0 24 24"
   fill="none"
   stroke="currentColor"
   stroke-width="2"
   stroke-linecap="round"
   stroke-linejoin="round"
   version="1.1"
   id="svg8"
   xmlns="http://www.w3.org/2000/svg"
   xmlns:svg="http://www.w3.org/2000/svg">
  <defs
     id="defs12" />
  <path
     style="color:#000000;fill:#000000;-inkscape-stroke:none"
     d="m 11.292969,1.2929687 -4.0000003,4 a 1,1 0 0 0 0,1.4140625 1,1 0 0 0 1.4140626,0 L 12,3.4140625 15.292969,6.7070312 a 1,1 0 0 0 1.414062,0 1,1 0 0 0 0,-1.4140625 l -4,-4 a 1.0001,1.0001 0 0 0 -1.414062,0 z"
     id="path2" />
  <path
     style="color:#000000;fill:#000000;-inkscape-stroke:none"
     d="m 12,1 a 1,1 0 0 0 -1,1 v 10.300781 a 1.0001,1.0001 0 0 0 0,0.0098 c 0.0087,0.807415 -0.307812,1.583468 -0.878906,2.154297 l -6.8281252,6.828125 a 1,1 0 0 0 0,1.414062 1,1 0 0 0 1.4140624,0 L 11.535156,15.878906 C 12.486204,14.928301 13.014427,13.633657 13,12.289063 V 2 A 1,1 0 0 0 12,1 Z"
     id="path4" />
  <path
     style="color:#000000;fill:#000000;-inkscape-stroke:none"
     d="m 15,16 a 1,1 0 0 0 -0.707031,0.292969 1,1 0 0 0 0,1.414062 l 5,5 a 1,1 0 0 0 1.414062,0 1,1 0 0 0 0,-1.414062 l -5,-5 A 1,1 0 0 0 15,16 Z"
     id="path6" />
</svg>
