<?xml version="1.0" encoding="UTF-8" standalone="no"?>
<svg
   width="24"
   height="24"
   viewBox="0 0 24 24"
   fill="none"
   stroke="currentColor"
   stroke-width="2"
   stroke-linecap="round"
   stroke-linejoin="round"
   version="1.1"
   id="svg6"
   xmlns="http://www.w3.org/2000/svg"
   xmlns:svg="http://www.w3.org/2000/svg">
  <defs
     id="defs10" />
  <path
     style="color:#000000;fill:#000000;-inkscape-stroke:none"
     d="M 4,1 C 2.3545471,1 1,2.3545471 1,4 v 11 a 1.0001,1.0001 0 0 0 1.7070313,0.707031 L 6.4140625,12 H 12 c 1.645008,0 3,-1.354992 3,-3 V 4 C 15,2.354992 13.645008,1 12,1 Z m 0,2 h 8 c 0.564129,0 1,0.4358712 1,1 v 5 c 0,0.5641288 -0.435871,1 -1,1 H 6 A 1.0001,1.0001 0 0 0 5.2929687,10.292969 L 3,12.585938 V 4 C 3,3.4454551 3.4454551,3 4,3 Z"
     id="path2" />
  <path
     style="color:#000000;fill:#000000;-inkscape-stroke:none"
     d="m 18,8 a 1,1 0 0 0 -1,1 1,1 0 0 0 1,1 h 2 c 0.564129,0 1,0.435871 1,1 v 8.585937 L 18.707031,17.292969 A 1.0001,1.0001 0 0 0 18,17 h -6 c -0.564129,0 -1,-0.435871 -1,-1 v -1 a 1,1 0 0 0 -1,-1 1,1 0 0 0 -1,1 v 1 c 0,1.645008 1.354992,3 3,3 h 5.585937 l 3.707032,3.707031 A 1.0001,1.0001 0 0 0 23,22 V 11 C 23,9.354992 21.645008,8 20,8 Z"
     id="path4" />
</svg>
