<?xml version="1.0" encoding="UTF-8" standalone="no"?>
<svg
   width="24"
   height="24"
   viewBox="0 0 24 24"
   fill="none"
   stroke="currentColor"
   stroke-width="2"
   stroke-linecap="round"
   stroke-linejoin="round"
   version="1.1"
   id="svg4"
   xmlns="http://www.w3.org/2000/svg"
   xmlns:svg="http://www.w3.org/2000/svg">
  <defs
     id="defs8" />
  <path
     style="color:#000000;fill:#000000;-inkscape-stroke:none"
     d="M 12.966797,1.9609375 C 10.794944,1.8716492 8.6616716,2.5568464 6.9472656,3.7910156 3.6393161,6.1723475 1.8628454,10.686363 3.8613281,15.251953 l -1.8105468,5.431641 a 1.0001,1.0001 0 0 0 1.265625,1.265625 l 5.4316406,-1.810547 c 4.5655901,1.998483 9.0796061,0.222012 11.4609371,-3.085938 2.468339,-3.428812 2.744429,-8.532915 -0.992187,-12.2695309 -1.868308,-1.8683079 -4.078147,-2.7329773 -6.25,-2.8222656 z m -0.128906,1.9492188 c 1.693331,0.058836 3.427054,0.7493202 4.964843,2.2871093 3.075579,3.0755782 2.764776,6.9348634 0.783203,9.6875004 -1.981572,2.752637 -5.540456,4.270373 -9.4394526,2.320312 A 1.0001,1.0001 0 0 0 8.3828125,18.150391 L 4.5820312,19.417969 5.8496094,15.617188 A 1.0001,1.0001 0 0 0 5.7949219,14.853516 C 3.8448614,10.954519 5.3625974,7.3956351 8.1152344,5.4140625 9.4915529,4.4232762 11.144559,3.8513205 12.837891,3.9101563 Z"
     id="path2" />
</svg>
