<?xml version="1.0" encoding="UTF-8" standalone="no"?>
<svg
   width="24"
   height="24"
   viewBox="0 0 24 24"
   fill="none"
   stroke="currentColor"
   stroke-width="2"
   stroke-linecap="round"
   stroke-linejoin="round"
   version="1.1"
   id="svg18"
   xmlns="http://www.w3.org/2000/svg"
   xmlns:svg="http://www.w3.org/2000/svg">
  <defs
     id="defs22" />
  <path
     style="color:#000000;fill:#000000;-inkscape-stroke:none"
     d="M 5,2 C 3.3545471,2 2,3.3545471 2,5 V 6 A 1,1 0 0 0 3,7 1,1 0 0 0 4,6 V 5 C 4,4.4454551 4.4454551,4 5,4 H 7 A 1,1 0 0 0 8,3 1,1 0 0 0 7,2 Z"
     id="path2" />
  <path
     style="color:#000000;fill:#000000;-inkscape-stroke:none"
     d="m 11,2 a 1,1 0 0 0 -1,1 1,1 0 0 0 1,1 h 3 A 1,1 0 0 0 15,3 1,1 0 0 0 14,2 Z"
     id="path4" />
  <path
     style="color:#000000;fill:#000000;-inkscape-stroke:none"
     d="m 18,2 a 1,1 0 0 0 -1,1 1,1 0 0 0 1,1 h 1 c 0.554545,0 1,0.4454551 1,1 a 1,1 0 0 0 1,1 1,1 0 0 0 1,-1 C 22,3.3545471 20.645453,2 19,2 Z"
     id="path6" />
  <path
     style="color:#000000;fill:#000000;-inkscape-stroke:none"
     d="m 21,8 a 1,1 0 0 0 -1,1 v 2 a 1,1 0 0 0 1,1 1,1 0 0 0 1,-1 V 9 A 1,1 0 0 0 21,8 Z"
     id="path8" />
  <path
     style="color:#000000;fill:#000000;-inkscape-stroke:none"
     d="m 21,14 a 1,1 0 0 0 -1,1 c 0,0.554545 -0.445455,1 -1,1 h -1 a 1,1 0 0 0 -1,1 1,1 0 0 0 1,1 h 1 c 1.645453,0 3,-1.354547 3,-3 a 1,1 0 0 0 -1,-1 z"
     id="path10" />
  <path
     style="color:#000000;fill:#000000;-inkscape-stroke:none"
     d="m 11,16 a 1,1 0 0 0 -1,1 1,1 0 0 0 1,1 h 3 a 1,1 0 0 0 1,-1 1,1 0 0 0 -1,-1 z"
     id="path12" />
  <path
     style="color:#000000;fill:#000000;-inkscape-stroke:none"
     d="m 3,15 a 1,1 0 0 0 -1,1 v 5 a 1.0001,1.0001 0 0 0 1.7070313,0.707031 l 3.9999999,-4 a 1,1 0 0 0 0,-1.414062 1,1 0 0 0 -1.4140625,0 L 4,18.585937 V 16 A 1,1 0 0 0 3,15 Z"
     id="path14" />
  <path
     style="color:#000000;fill:#000000;-inkscape-stroke:none"
     d="m 3,9 a 1,1 0 0 0 -1,1 v 2 a 1,1 0 0 0 1,1 1,1 0 0 0 1,-1 V 10 A 1,1 0 0 0 3,9 Z"
     id="path16" />
</svg>
