<?xml version="1.0" encoding="UTF-8" standalone="no"?>
<svg
   width="24"
   height="24"
   viewBox="0 0 24 24"
   fill="none"
   stroke="currentColor"
   stroke-width="2"
   stroke-linecap="round"
   stroke-linejoin="round"
   version="1.1"
   id="svg6"
   xmlns="http://www.w3.org/2000/svg"
   xmlns:svg="http://www.w3.org/2000/svg">
  <defs
     id="defs10" />
  <path
     style="color:#000000;fill:#000000;-inkscape-stroke:none"
     d="m 11.998047,7 a 1,1 0 0 0 -0.705078,0.2929687 l -9.0410159,9.0605473 0.046875,-0.04492 c -0.9433116,0.830228 -1.39270749,1.924883 -1.35742185,2.947265 0.0352856,1.022383 0.49943465,1.942794 1.17968755,2.623047 0.6802528,0.680253 1.6006641,1.144402 2.6230468,1.179688 1.0223828,0.03529 2.1170379,-0.41411 2.9472656,-1.357422 l -0.044922,0.04687 9.0605466,-9.041016 a 1,1 0 0 0 0,-1.414062 1,1 0 0 0 -1.414062,0 l -9.058594,9.039062 a 1.0001,1.0001 0 0 0 -0.044922,0.04687 C 5.6958877,20.939699 5.2546104,21.075805 4.8125,21.060547 4.3703896,21.045288 3.8969334,20.822715 3.5371094,20.462891 3.1772853,20.103067 2.9547117,19.62961 2.9394531,19.1875 2.9241945,18.74539 3.0603007,18.304112 3.6210938,17.810547 a 1.0001,1.0001 0 0 0 0.046875,-0.04492 L 12.707031,8.7070313 a 1,1 0 0 0 0,-1.4140626 A 1,1 0 0 0 11.998047,7 Z"
     id="path2" />
  <path
     style="color:#000000;fill:#000000;-inkscape-stroke:none"
     d="m 17,1 c -3.301861,0 -6,2.6981394 -6,6 0,3.301861 2.698139,6 6,6 3.301861,0 6,-2.698139 6,-6 0,-3.3018606 -2.698139,-6 -6,-6 z m 0,2 c 2.220981,0 4,1.7790186 4,4 0,2.2209814 -1.779019,4 -4,4 -2.220981,0 -4,-1.7790186 -4,-4 0,-2.2209814 1.779019,-4 4,-4 z"
     id="circle4" />
</svg>
