<?xml version="1.0" encoding="UTF-8" standalone="no"?>
<svg
   width="24"
   height="24"
   viewBox="0 0 24 24"
   fill="none"
   stroke="currentColor"
   stroke-width="2"
   stroke-linecap="round"
   stroke-linejoin="round"
   version="1.1"
   id="svg14"
   xmlns="http://www.w3.org/2000/svg"
   xmlns:svg="http://www.w3.org/2000/svg">
  <defs
     id="defs18" />
  <path
     style="color:#000000;fill:#000000;-inkscape-stroke:none"
     d="m 2,1 a 1,1 0 0 0 -0.7070313,0.2929687 1,1 0 0 0 0,1.4140626 L 21.292969,22.707031 a 1,1 0 0 0 1.414062,0 1,1 0 0 0 0,-1.414062 L 2.7070313,1.2929687 A 1,1 0 0 0 2,1 Z"
     id="line2" />
  <path
     style="color:#000000;fill:#000000;-inkscape-stroke:none"
     d="m 19,9 a 1,1 0 0 0 -1,1 v 2 c -9.49e-4,0.353836 -0.03179,0.706315 -0.09375,1.054688 a 1,1 0 0 0 0.808594,1.160156 1,1 0 0 0 1.160156,-0.810547 c 0.08236,-0.463068 0.123888,-0.93201 0.125,-1.402344 A 1.0001,1.0001 0 0 0 20,12 V 10 A 1,1 0 0 0 19,9 Z"
     id="path4" />
  <path
     style="color:#000000;fill:#000000;-inkscape-stroke:none"
     d="m 5,9 a 1,1 0 0 0 -1,1 v 1.986328 c -0.051865,3.56682 2.1242415,6.334319 4.921875,7.5 2.797634,1.165681 6.296836,0.761266 8.792969,-1.787109 a 1,1 0 0 0 -0.01563,-1.414063 1,1 0 0 0 -1.414063,0.01563 C 14.3584,18.267863 11.811019,18.523797 9.6914063,17.640625 7.5717934,16.757453 5.9599657,14.766888 6,12.013672 A 1.0001,1.0001 0 0 0 6,12 V 10 A 1,1 0 0 0 5,9 Z"
     id="path6" />
  <path
     style="color:#000000;fill:#000000;-inkscape-stroke:none"
     d="M 12.912109,1.1230469 C 11.281216,0.74116524 9.3353895,1.4123481 8.4257813,3.2207031 A 1,1 0 0 0 8.8710938,4.5625 1,1 0 0 0 10.212891,4.1191406 C 10.719657,3.1116599 11.604815,2.8712193 12.455078,3.0703125 13.305341,3.2694057 13.993205,3.8781258 14,5.0058594 v 4.3339844 a 1,1 0 0 0 1,1.0000002 1,1 0 0 0 1,-1.0000002 V 5 a 1.0001,1.0001 0 0 0 0,-0.00586 C 15.987803,2.9699405 14.543002,1.5049285 12.912109,1.1230469 Z"
     id="path8" />
  <path
     style="color:#000000;fill:#000000;-inkscape-stroke:none"
     d="M 9,8 A 1,1 0 0 0 8,9 v 3 c 0.00153,1.738051 1.0909051,3.122037 2.470703,3.693359 1.379798,0.571323 3.125717,0.36299 4.355469,-0.865234 a 1,1 0 0 0 0.002,-1.414062 1,1 0 0 0 -1.414062,-0.002 C 12.754284,14.071068 11.941604,14.13854 11.234375,13.845703 10.527146,13.552866 10.00082,12.932488 10,12 V 9 A 1,1 0 0 0 9,8 Z"
     id="path10" />
  <path
     style="color:#000000;fill:#000000;-inkscape-stroke:none"
     d="m 12,18 a 1,1 0 0 0 -1,1 v 3 a 1,1 0 0 0 1,1 1,1 0 0 0 1,-1 v -3 a 1,1 0 0 0 -1,-1 z"
     id="line12" />
</svg>
