<?xml version="1.0" encoding="UTF-8" standalone="no"?>
<svg
   width="24"
   height="24"
   viewBox="0 0 24 24"
   fill="none"
   stroke="currentColor"
   stroke-width="2"
   stroke-linecap="round"
   stroke-linejoin="round"
   version="1.1"
   id="svg14"
   xmlns="http://www.w3.org/2000/svg"
   xmlns:svg="http://www.w3.org/2000/svg">
  <defs
     id="defs18" />
  <path
     style="color:#000000;fill:#000000;-inkscape-stroke:none"
     d="m 6,17 a 1,1 0 0 0 -1,1 1,1 0 0 0 1,1 h 8 a 1,1 0 0 0 1,-1 1,1 0 0 0 -1,-1 z"
     id="path2" />
  <path
     style="color:#000000;fill:#000000;-inkscape-stroke:none"
     d="m 3,21 a 1,1 0 0 0 -1,1 1,1 0 0 0 1,1 h 18 a 1,1 0 0 0 1,-1 1,1 0 0 0 -1,-1 z"
     id="path4" />
  <path
     style="color:#000000;fill:#000000;-inkscape-stroke:none"
     d="m 13,7 a 1,1 0 0 0 -1,1 1,1 0 0 0 1,1 h 1 c 3.325553,0 6,2.674449 6,6 0,3.325551 -2.674447,6 -6,6 a 1,1 0 0 0 -1,1 1,1 0 0 0 1,1 c 4.406431,0 8,-3.593572 8,-8 0,-4.406428 -3.593569,-8 -8,-8 z"
     id="path6" />
  <path
     style="color:#000000;fill:#000000;-inkscape-stroke:none"
     d="m 9,13 a 1,1 0 0 0 -1,1 1,1 0 0 0 1,1 h 2 a 1,1 0 0 0 1,-1 1,1 0 0 0 -1,-1 z"
     id="path8" />
  <path
     style="color:#000000;fill:#000000;-inkscape-stroke:none"
     d="M 7,5 A 1.0001,1.0001 0 0 0 6,6 v 4 c 0,1.645008 1.354992,3 3,3 h 2 c 1.645008,0 3,-1.354992 3,-3 V 6 A 1.0001,1.0001 0 0 0 13,5 Z m 1,2 h 4 v 3 c 0,0.564129 -0.435871,1 -1,1 H 9 C 8.4358712,11 8,10.564129 8,10 Z"
     id="path10" />
  <path
     style="color:#000000;fill:#000000;-inkscape-stroke:none"
     d="M 9,1 C 7.9072762,1 7,1.9072762 7,3 V 6 A 1,1 0 0 0 8,7 1,1 0 0 0 9,6 V 3 h 2 v 3 a 1,1 0 0 0 1,1 1,1 0 0 0 1,-1 V 3 C 13,1.9072762 12.092724,1 11,1 Z"
     id="path12" />
</svg>
