<?xml version="1.0" encoding="UTF-8" standalone="no"?>
<svg
   width="24"
   height="24"
   viewBox="0 0 24 24"
   fill="none"
   stroke="currentColor"
   stroke-width="2"
   stroke-linecap="round"
   stroke-linejoin="round"
   version="1.1"
   id="svg12"
   xmlns="http://www.w3.org/2000/svg"
   xmlns:svg="http://www.w3.org/2000/svg">
  <defs
     id="defs16" />
  <path
     style="color:#000000;fill:#000000;-inkscape-stroke:none"
     d="M 4,3 C 2.3552989,3 1,4.3552989 1,6 v 11 c 0,1.644701 1.3552989,3 3,3 h 16 c 1.644701,0 3,-1.355299 3,-3 V 6 C 23,4.3552989 21.644701,3 20,3 Z m 0,2 h 16 c 0.571297,0 1,0.4287033 1,1 v 11 c 0,0.571297 -0.428703,1 -1,1 H 4 C 3.4287033,18 3,17.571297 3,17 V 6 C 3,5.4287033 3.4287033,5 4,5 Z"
     id="rect2" />
  <path
     style="color:#000000;fill:#000000;-inkscape-stroke:none"
     d="M 7,7 C 5.9092983,7 5,7.9092983 5,9 v 5 c 0,1.090702 0.9092983,2 2,2 h 6 c 1.090702,0 2,-0.909298 2,-2 V 9 C 15,7.9092983 14.090702,7 13,7 Z m 0,2 h 6 v 5 H 7 Z"
     id="rect4" />
  <path
     style="color:#000000;fill:#000000;-inkscape-stroke:none"
     d="m 18,7 a 1,1 0 0 0 -1,1 v 7 a 1,1 0 0 0 1,1 1,1 0 0 0 1,-1 V 8 A 1,1 0 0 0 18,7 Z"
     id="path6" />
  <path
     style="color:#000000;fill:#000000;-inkscape-stroke:none"
     d="m 6,18 a 1,1 0 0 0 -1,1 v 2 a 1,1 0 0 0 1,1 1,1 0 0 0 1,-1 V 19 A 1,1 0 0 0 6,18 Z"
     id="path8" />
  <path
     style="color:#000000;fill:#000000;-inkscape-stroke:none"
     d="m 18,18 a 1,1 0 0 0 -1,1 v 2 a 1,1 0 0 0 1,1 1,1 0 0 0 1,-1 v -2 a 1,1 0 0 0 -1,-1 z"
     id="path10" />
</svg>
