<?xml version="1.0" encoding="UTF-8" standalone="no"?>
<svg
   width="24"
   height="24"
   viewBox="0 0 24 24"
   fill="none"
   stroke="currentColor"
   stroke-width="2"
   stroke-linecap="round"
   stroke-linejoin="round"
   version="1.1"
   id="svg8"
   xmlns="http://www.w3.org/2000/svg"
   xmlns:svg="http://www.w3.org/2000/svg">
  <defs
     id="defs12" />
  <path
     style="color:#000000;fill:#000000;-inkscape-stroke:none"
     d="M 8,1 A 1,1 0 0 0 7,2 1,1 0 0 0 8,3 h 8 A 1,1 0 0 0 17,2 1,1 0 0 0 16,1 Z"
     id="path2" />
  <path
     style="color:#000000;fill:#000000;-inkscape-stroke:none"
     d="M 9,1 A 1,1 0 0 0 8,2 V 4.7890625 C 7.9999848,5.3814942 7.8247604,5.9602218 7.4960937,6.453125 L 6.8398437,7.4375 C 6.2919643,8.2591577 5.9997785,9.2253212 6,10.212891 V 20 c 0,1.645008 1.354992,3 3,3 h 6 c 1.645008,0 3,-1.354992 3,-3 V 10.210938 C 17.999975,9.2237937 17.7078,8.2588036 17.160156,7.4375 L 16.503906,6.453125 C 16.175098,5.9600091 15.999867,5.3817499 16,4.7890625 a 1.0001,1.0001 0 0 0 0,-0.00195 V 2 A 1,1 0 0 0 15,1 1,1 0 0 0 14,2 v 2.7871094 c -2.22e-4,0.9875694 0.291964,1.9537329 0.839844,2.7753906 l 0.65625,0.984375 C 15.82476,9.0397782 15.999985,9.6185058 16,10.210938 V 20 c 0,0.564129 -0.435871,1 -1,1 H 9 C 8.4358712,21 8,20.564129 8,20 v -9.787109 a 1.0001,1.0001 0 0 0 0,-0.002 C 7.999867,9.6182501 8.1750977,9.0399909 8.5039063,8.546875 L 9.1601563,7.5625 C 9.7077996,6.7411964 9.9999747,5.7762063 10,4.7890625 V 2 A 1,1 0 0 0 9,1 Z"
     id="path4" />
  <path
     style="color:#000000;fill:#000000;-inkscape-stroke:none"
     d="m 9.5,13.498047 c -0.9816079,0 -1.9636582,0.193514 -2.8867188,0.580078 a 1,1 0 0 0 -0.5351562,1.308594 1,1 0 0 0 1.3085937,0.535156 c 1.3526222,-0.566457 2.8739403,-0.566457 4.2265623,0 1.846145,0.773418 3.927293,0.773418 5.773438,0 a 1,1 0 0 0 0.535156,-1.308594 1,1 0 0 0 -1.308594,-0.535156 c -1.352508,0.566615 -2.874054,0.566615 -4.226562,0 C 11.463658,13.691561 10.481608,13.498047 9.5,13.498047 Z"
     id="path6" />
</svg>
