<?xml version="1.0" encoding="UTF-8" standalone="no"?>
<svg
   width="24"
   height="24"
   viewBox="0 0 24 24"
   fill="none"
   stroke="currentColor"
   stroke-width="2"
   stroke-linecap="round"
   stroke-linejoin="round"
   version="1.1"
   id="svg10"
   xmlns="http://www.w3.org/2000/svg"
   xmlns:svg="http://www.w3.org/2000/svg">
  <defs
     id="defs14" />
  <path
     style="color:#000000;fill:#000000;-inkscape-stroke:none"
     d="M 8,1 A 1,1 0 0 0 7,2 1,1 0 0 0 8,3 h 8 A 1,1 0 0 0 17,2 1,1 0 0 0 16,1 Z"
     id="path2" />
  <path
     style="color:#000000;fill:#000000;-inkscape-stroke:none"
     d="M 9,1 A 1,1 0 0 0 8,2 v 1.34375 a 1,1 0 0 0 1,1 1,1 0 0 0 1,-1 V 2 A 1,1 0 0 0 9,1 Z m 6,0 a 1,1 0 0 0 -1,1 v 2.7890625 c 2.5e-5,0.9871438 0.2922,1.9521339 0.839844,2.7734375 l 0.65625,0.984375 C 15.824902,9.0399909 16.000133,9.6182501 16,10.210938 a 1.0001,1.0001 0 0 0 0,0.002 v 1.130859 a 1,1 0 0 0 1,1 1,1 0 0 0 1,-1 V 10.212891 C 18.000222,9.2253212 17.708036,8.2591577 17.160156,7.4375 L 16.503906,6.453125 C 16.17524,5.9602218 16.000015,5.3814942 16,4.7890625 V 2 A 1,1 0 0 0 15,1 Z M 7.6035156,6.8203125 A 1,1 0 0 0 6.96875,7.2460937 L 6.8398437,7.4375 C 6.2919643,8.2591577 5.9997785,9.2253212 6,10.212891 V 20 c 0,1.645008 1.354992,3 3,3 h 6 c 1.645008,0 3,-1.354992 3,-3 v -3 a 1,1 0 0 0 -1,-1 1,1 0 0 0 -1,1 v 3 c 0,0.564129 -0.435871,1 -1,1 H 9 C 8.4358712,21 8,20.564129 8,20 v -9.787109 a 1.0001,1.0001 0 0 0 0,-0.002 C 7.999867,9.6182501 8.1750977,9.0399909 8.5039063,8.546875 L 8.6328125,8.3554688 A 1,1 0 0 0 8.3554688,6.96875 1,1 0 0 0 7.6035156,6.8203125 Z"
     id="path4" />
  <path
     style="color:#000000;fill:#000000;-inkscape-stroke:none"
     d="m 9.5,13.498047 c -0.9816617,0 -1.9636463,0.193369 -2.8867188,0.580078 a 1,1 0 0 0 -0.5351562,1.308594 1,1 0 0 0 1.3085937,0.535156 c 1.3525083,-0.566615 2.8740543,-0.566615 4.2265623,0 1.251716,0.52444 2.623864,0.697813 3.966797,0.501953 a 1,1 0 0 0 0.84375,-1.132812 1,1 0 0 0 -1.132812,-0.845703 C 14.307437,14.588762 13.303489,14.46223 12.386719,14.078125 11.463646,13.691416 10.481662,13.498047 9.5,13.498047 Z"
     id="path6" />
  <path
     style="color:#000000;fill:#000000;-inkscape-stroke:none"
     d="m 2,1 a 1,1 0 0 0 -0.7070313,0.2929687 1,1 0 0 0 0,1.4140626 L 21.292969,22.707031 a 1,1 0 0 0 1.414062,0 1,1 0 0 0 0,-1.414062 L 2.7070313,1.2929687 A 1,1 0 0 0 2,1 Z"
     id="line8" />
</svg>
