<?xml version="1.0" encoding="UTF-8" standalone="no"?>
<svg
   width="24"
   height="24"
   viewBox="0 0 24 24"
   fill="none"
   stroke="currentColor"
   stroke-width="2"
   stroke-linecap="round"
   stroke-linejoin="round"
   version="1.1"
   id="svg10"
   xmlns="http://www.w3.org/2000/svg"
   xmlns:svg="http://www.w3.org/2000/svg">
  <defs
     id="defs14" />
  <path
     style="color:#000000;fill:#000000;-inkscape-stroke:none"
     d="M 8,2 A 1,1 0 0 0 7,3 V 6 C 7,6.5641288 6.5641288,7 6,7 H 3 A 1,1 0 0 0 2,8 1,1 0 0 0 3,9 H 6 C 7.645008,9 9,7.645008 9,6 V 3 A 1,1 0 0 0 8,2 Z"
     id="path2" />
  <path
     style="color:#000000;fill:#000000;-inkscape-stroke:none"
     d="m 16,2 a 1,1 0 0 0 -1,1 v 3 c 0,1.645008 1.354992,3 3,3 h 3 A 1,1 0 0 0 22,8 1,1 0 0 0 21,7 H 18 C 17.435871,7 17,6.5641288 17,6 V 3 A 1,1 0 0 0 16,2 Z"
     id="path4" />
  <path
     style="color:#000000;fill:#000000;-inkscape-stroke:none"
     d="m 3,15 a 1,1 0 0 0 -1,1 1,1 0 0 0 1,1 h 3 c 0.5641288,0 1,0.435871 1,1 v 3 a 1,1 0 0 0 1,1 1,1 0 0 0 1,-1 V 18 C 9,16.354992 7.645008,15 6,15 Z"
     id="path6" />
  <path
     style="color:#000000;fill:#000000;-inkscape-stroke:none"
     d="m 18,15 c -1.645008,0 -3,1.354992 -3,3 v 3 a 1,1 0 0 0 1,1 1,1 0 0 0 1,-1 v -3 c 0,-0.564129 0.435871,-1 1,-1 h 3 a 1,1 0 0 0 1,-1 1,1 0 0 0 -1,-1 z"
     id="path8" />
</svg>
