<?xml version="1.0" encoding="UTF-8" standalone="no"?>
<svg
   width="24"
   height="24"
   viewBox="0 0 24 24"
   fill="none"
   stroke="currentColor"
   stroke-width="2"
   stroke-linecap="round"
   stroke-linejoin="round"
   version="1.1"
   id="svg10"
   xmlns="http://www.w3.org/2000/svg"
   xmlns:svg="http://www.w3.org/2000/svg">
  <defs
     id="defs14" />
  <path
     style="color:#000000;fill:#000000;-inkscape-stroke:none"
     d="m 4,13 a 1,1 0 0 0 -1,1 1,1 0 0 0 1,1 h 5 v 5 a 1,1 0 0 0 1,1 1,1 0 0 0 1,-1 v -6 a 1.0001,1.0001 0 0 0 -1,-1 z"
     id="polyline2" />
  <path
     style="color:#000000;fill:#000000;-inkscape-stroke:none"
     d="m 14,3 a 1,1 0 0 0 -1,1 v 6 a 1.0001,1.0001 0 0 0 1,1 h 6 A 1,1 0 0 0 21,10 1,1 0 0 0 20,9 H 15 V 4 A 1,1 0 0 0 14,3 Z"
     id="polyline4" />
  <path
     style="color:#000000;fill:#000000;-inkscape-stroke:none"
     d="m 20.292969,2.2929688 -7,7 a 1,1 0 0 0 0,1.4140622 1,1 0 0 0 1.414062,0 l 7,-6.9999997 a 1,1 0 0 0 0,-1.4140625 1,1 0 0 0 -1.414062,0 z"
     id="line6" />
  <path
     style="color:#000000;fill:#000000;-inkscape-stroke:none"
     d="m 10,13 a 1,1 0 0 0 -0.7070312,0.292969 l -7,7 a 1,1 0 0 0 0,1.414062 1,1 0 0 0 1.4140625,0 l 6.9999997,-7 a 1,1 0 0 0 0,-1.414062 A 1,1 0 0 0 10,13 Z"
     id="line8" />
</svg>
