<?xml version="1.0" encoding="UTF-8" standalone="no"?>
<svg
   width="24"
   height="24"
   viewBox="0 0 24 24"
   fill="none"
   stroke="currentColor"
   stroke-width="2"
   stroke-linecap="round"
   stroke-linejoin="round"
   version="1.1"
   id="svg10"
   xmlns="http://www.w3.org/2000/svg"
   xmlns:svg="http://www.w3.org/2000/svg">
  <defs
     id="defs14" />
  <path
     style="color:#000000;fill:#000000;-inkscape-stroke:none"
     d="M 15,7 A 1,1 0 0 0 14.292969,7.2929687 L 11,10.585938 9.7070313,9.2929688 a 1,1 0 0 0 -1.4140625,0 1,1 0 0 0 0,1.4140622 l 2.0000002,2 a 1.0001,1.0001 0 0 0 1.414062,0 l 4,-3.9999997 a 1,1 0 0 0 0,-1.4140626 A 1,1 0 0 0 15,7 Z"
     id="path2" />
  <path
     style="color:#000000;fill:#000000;-inkscape-stroke:none"
     d="M 4,2 C 2.3552989,2 1,3.3552989 1,5 v 10 c 0,1.644701 1.3552989,3 3,3 h 16 c 1.644701,0 3,-1.355299 3,-3 V 5 C 23,3.3552989 21.644701,2 20,2 Z m 0,2 h 16 c 0.571297,0 1,0.4287033 1,1 v 10 c 0,0.571297 -0.428703,1 -1,1 H 4 C 3.4287033,16 3,15.571297 3,15 V 5 C 3,4.4287033 3.4287033,4 4,4 Z"
     id="rect4" />
  <path
     style="color:#000000;fill:#000000;-inkscape-stroke:none"
     d="m 12,16 a 1,1 0 0 0 -1,1 v 4 a 1,1 0 0 0 1,1 1,1 0 0 0 1,-1 v -4 a 1,1 0 0 0 -1,-1 z"
     id="path6" />
  <path
     style="color:#000000;fill:#000000;-inkscape-stroke:none"
     d="m 8,20 a 1,1 0 0 0 -1,1 1,1 0 0 0 1,1 h 8 a 1,1 0 0 0 1,-1 1,1 0 0 0 -1,-1 z"
     id="path8" />
</svg>
