<?xml version="1.0" encoding="UTF-8" standalone="no"?>
<svg
   width="24"
   height="24"
   viewBox="0 0 24 24"
   fill="none"
   stroke="currentColor"
   stroke-width="2"
   stroke-linecap="round"
   stroke-linejoin="round"
   version="1.1"
   id="svg10"
   xmlns="http://www.w3.org/2000/svg"
   xmlns:svg="http://www.w3.org/2000/svg">
  <defs
     id="defs14" />
  <path
     style="color:#000000;fill:#000000;-inkscape-stroke:none"
     d="M 4,3 C 2.354992,3 1,4.354992 1,6 v 7 c 0,1.645008 1.354992,3 3,3 h 8 a 1,1 0 0 0 1,-1 1,1 0 0 0 -1,-1 H 4 C 3.4358712,14 3,13.564129 3,13 V 6 C 3,5.4358712 3.4358712,5 4,5 h 12 c 0.564129,0 1,0.4358712 1,1 v 2 a 1,1 0 0 0 1,1 1,1 0 0 0 1,-1 V 6 C 19,4.354992 17.645008,3 16,3 Z"
     id="path2" />
  <path
     style="color:#000000;fill:#000000;-inkscape-stroke:none"
     d="M 10,14.054688 A 1.0001,1.0001 0 0 0 9,15.039063 V 18.189453 19 a 1,1 0 0 0 1,1 1,1 0 0 0 1,-1 v -0.810547 -3.15039 a 1.0001,1.0001 0 0 0 -1,-0.984375 z"
     id="path4" />
  <path
     style="color:#000000;fill:#000000;-inkscape-stroke:none"
     d="m 7,18 a 1,1 0 0 0 -1,1 1,1 0 0 0 1,1 h 5 a 1,1 0 0 0 1,-1 1,1 0 0 0 -1,-1 z"
     id="path6" />
  <path
     style="color:#000000;fill:#000000;-inkscape-stroke:none"
     d="m 18,11 c -1.644701,0 -3,1.355299 -3,3 v 6 c 0,1.644701 1.355299,3 3,3 h 2 c 1.644701,0 3,-1.355299 3,-3 v -6 c 0,-1.644701 -1.355299,-3 -3,-3 z m 0,2 h 2 c 0.571297,0 1,0.428703 1,1 v 6 c 0,0.571297 -0.428703,1 -1,1 h -2 c -0.571297,0 -1,-0.428703 -1,-1 v -6 c 0,-0.571297 0.428703,-1 1,-1 z"
     id="rect8" />
</svg>
