<?xml version="1.0" encoding="UTF-8" standalone="no"?>
<svg
   width="24"
   height="24"
   viewBox="0 0 24 24"
   fill="none"
   stroke="currentColor"
   stroke-width="2"
   stroke-linecap="round"
   stroke-linejoin="round"
   version="1.1"
   id="svg12"
   xmlns="http://www.w3.org/2000/svg"
   xmlns:svg="http://www.w3.org/2000/svg">
  <defs
     id="defs16" />
  <path
     style="color:#000000;fill:#000000;-inkscape-stroke:none"
     d="m 9.5,6.5 a 1,1 0 0 0 -0.7070312,0.2929687 1,1 0 0 0 0,1.4140626 l 5.0000002,4.9999997 a 1,1 0 0 0 1.414062,0 1,1 0 0 0 0,-1.414062 l -5,-5.0000003 A 1,1 0 0 0 9.5,6.5 Z"
     id="path2" />
  <path
     style="color:#000000;fill:#000000;-inkscape-stroke:none"
     d="M 14.5,6.5 A 1,1 0 0 0 13.792969,6.7929687 L 8.7929688,11.792969 a 1,1 0 0 0 0,1.414062 1,1 0 0 0 1.4140622,0 l 5,-4.9999997 a 1,1 0 0 0 0,-1.4140626 A 1,1 0 0 0 14.5,6.5 Z"
     id="path4" />
  <path
     style="color:#000000;fill:#000000;-inkscape-stroke:none"
     d="M 4,2 C 2.3552989,2 1,3.3552989 1,5 v 10 c 0,1.644701 1.3552989,3 3,3 h 16 c 1.644701,0 3,-1.355299 3,-3 V 5 C 23,3.3552989 21.644701,2 20,2 Z m 0,2 h 16 c 0.571297,0 1,0.4287033 1,1 v 10 c 0,0.571297 -0.428703,1 -1,1 H 4 C 3.4287033,16 3,15.571297 3,15 V 5 C 3,4.4287033 3.4287033,4 4,4 Z"
     id="rect6" />
  <path
     style="color:#000000;fill:#000000;-inkscape-stroke:none"
     d="m 12,16 a 1,1 0 0 0 -1,1 v 4 a 1,1 0 0 0 1,1 1,1 0 0 0 1,-1 v -4 a 1,1 0 0 0 -1,-1 z"
     id="path8" />
  <path
     style="color:#000000;fill:#000000;-inkscape-stroke:none"
     d="m 8,20 a 1,1 0 0 0 -1,1 1,1 0 0 0 1,1 h 8 a 1,1 0 0 0 1,-1 1,1 0 0 0 -1,-1 z"
     id="path10" />
</svg>
