<?xml version="1.0" encoding="UTF-8" standalone="no"?>
<svg
   width="24"
   height="24"
   viewBox="0 0 24 24"
   fill="none"
   stroke="currentColor"
   stroke-width="2"
   stroke-linecap="round"
   stroke-linejoin="round"
   version="1.1"
   id="svg12"
   xmlns="http://www.w3.org/2000/svg"
   xmlns:svg="http://www.w3.org/2000/svg">
  <defs
     id="defs16" />
  <path
     style="color:#000000;fill:#000000;-inkscape-stroke:none"
     d="m 3.3164063,2.0507813 a 1,1 0 0 0 -0.7636719,0.054687 c 0,0 -0.4620931,0.242167 -0.8339844,0.7070312 C 1.3468587,3.2773642 1,4.0277788 1,5 v 10 c 0,1.645008 1.354992,3 3,3 h 13 a 1,1 0 0 0 1,-1 1,1 0 0 0 -1,-1 H 4 C 3.4358712,16 3,15.564129 3,15 V 5 C 3,4.4722227 3.1531418,4.2226352 3.28125,4.0625 3.4093582,3.9023648 3.4472656,3.8945312 3.4472656,3.8945313 A 1,1 0 0 0 3.8945313,2.5527344 1,1 0 0 0 3.3164063,2.0507813 Z"
     id="path2" />
  <path
     style="color:#000000;fill:#000000;-inkscape-stroke:none"
     d="M 9,2 A 1,1 0 0 0 8,3 1,1 0 0 0 9,4 h 11 c 0.564129,0 1,0.4358712 1,1 v 10 a 1,1 0 0 0 1,1 1,1 0 0 0 1,-1 V 5 C 23,3.354992 21.645008,2 20,2 Z"
     id="path4" />
  <path
     style="color:#000000;fill:#000000;-inkscape-stroke:none"
     d="m 8,20 a 1,1 0 0 0 -1,1 1,1 0 0 0 1,1 h 8 a 1,1 0 0 0 1,-1 1,1 0 0 0 -1,-1 z"
     id="path6" />
  <path
     style="color:#000000;fill:#000000;-inkscape-stroke:none"
     d="m 12,16 a 1,1 0 0 0 -1,1 v 4 a 1,1 0 0 0 1,1 1,1 0 0 0 1,-1 v -4 a 1,1 0 0 0 -1,-1 z"
     id="path8" />
  <path
     style="color:#000000;fill:#000000;-inkscape-stroke:none"
     d="m 2,1 a 1,1 0 0 0 -0.7070313,0.2929687 1,1 0 0 0 0,1.4140626 L 21.292969,22.707031 a 1,1 0 0 0 1.414062,0 1,1 0 0 0 0,-1.414062 L 2.7070313,1.2929687 A 1,1 0 0 0 2,1 Z"
     id="path10" />
</svg>
