<?xml version="1.0" encoding="UTF-8" standalone="no"?>
<svg
   width="24"
   height="24"
   viewBox="0 0 24 24"
   fill="none"
   stroke="currentColor"
   stroke-width="2"
   stroke-linecap="round"
   stroke-linejoin="round"
   version="1.1"
   id="svg12"
   xmlns="http://www.w3.org/2000/svg"
   xmlns:svg="http://www.w3.org/2000/svg">
  <defs
     id="defs16" />
  <path
     style="color:#000000;fill:#000000;-inkscape-stroke:none"
     d="m 5.5,19 a 1,1 0 0 0 -1,1 1,1 0 0 0 1,1 H 8 A 1,1 0 0 0 9,20 1,1 0 0 0 8,19 Z"
     id="path2" />
  <path
     style="color:#000000;fill:#000000;-inkscape-stroke:none"
     d="m 17,8 a 1,1 0 0 0 -1,1 1,1 0 0 0 1,1 h 0.0098 a 1,1 0 0 0 1,-1 1,1 0 0 0 -1,-1 z"
     id="path4" />
  <path
     style="color:#000000;fill:#000000;-inkscape-stroke:none"
     d="m 14,3 c -1.644701,0 -3,1.3552989 -3,3 v 12 c 0,1.644701 1.355299,3 3,3 h 6 c 1.644701,0 3,-1.355299 3,-3 V 6 C 23,4.3552989 21.644701,3 20,3 Z m 0,2 h 6 c 0.571297,0 1,0.4287033 1,1 v 12 c 0,0.571297 -0.428703,1 -1,1 h -6 c -0.571297,0 -1,-0.428703 -1,-1 V 6 c 0,-0.5712967 0.428703,-1 1,-1 z"
     id="rect6" />
  <path
     style="color:#000000;fill:#000000;-inkscape-stroke:none"
     d="M 4,5 C 2.354992,5 1,6.354992 1,8 v 6 c 0,1.645008 1.354992,3 3,3 H 8 A 1,1 0 0 0 9,16 1,1 0 0 0 8,15 H 4 C 3.4358712,15 3,14.564129 3,14 V 8 C 3,7.4358712 3.4358712,7 4,7 H 8 A 1,1 0 0 0 9,6 1,1 0 0 0 8,5 Z"
     id="path8" />
  <path
     style="color:#000000;fill:#000000;-inkscape-stroke:none"
     d="m 17,13 c -1.092724,0 -2,0.907276 -2,2 0,1.092724 0.907276,2 2,2 1.092724,0 2,-0.907276 2,-2 0,-1.092724 -0.907276,-2 -2,-2 z"
     id="circle10" />
</svg>
