<?xml version="1.0" encoding="UTF-8" standalone="no"?>
<svg
   width="24"
   height="24"
   viewBox="0 0 24 24"
   fill="none"
   stroke="currentColor"
   stroke-width="2"
   stroke-linecap="round"
   stroke-linejoin="round"
   version="1.1"
   id="svg4"
   xmlns="http://www.w3.org/2000/svg"
   xmlns:svg="http://www.w3.org/2000/svg">
  <defs
     id="defs8" />
  <path
     style="color:#000000;fill:#000000;-inkscape-stroke:none"
     d="M 12,2 C 7.5876688,2 4.1983115,4.7051351 2.7617188,8.1738281 1.325126,11.642521 1.8100315,15.950656 4.9296875,19.070312 8.0493435,22.189969 12.357479,22.674874 15.826172,21.238281 19.294865,19.801689 22,16.412331 22,12 a 1.0001,1.0001 0 0 0 -1.707031,-0.707031 c -1.323222,1.323221 -2.697263,1.755285 -4.015625,1.677734 -1.318363,-0.07755 -2.602448,-0.70987 -3.570313,-1.677734 C 11.739167,10.325104 11.106848,9.0410186 11.029297,7.7226562 10.951746,6.4042939 11.38381,5.0302525 12.707031,3.7070313 A 1.0001,1.0001 0 0 0 12,2 Z M 9.9492188,4.3085937 c -0.6067693,1.1630835 -0.9849428,2.3594937 -0.9160157,3.53125 0.1099495,1.8691339 0.9776319,3.5850543 2.2597659,4.8671873 1.282133,1.282134 2.998053,2.149816 4.867187,2.259766 1.171757,0.06893 2.368167,-0.309246 3.53125,-0.916016 -0.646429,2.536517 -2.403345,4.418107 -4.628906,5.339844 C 12.266728,20.548521 8.8934791,20.205979 6.34375,17.65625 3.7940209,15.106521 3.4514791,11.733272 4.609375,8.9375 5.5311125,6.7119393 7.4127017,4.9550227 9.9492188,4.3085937 Z"
     id="path2" />
</svg>
