<?xml version="1.0" encoding="UTF-8" standalone="no"?>
<svg
   width="24"
   height="24"
   viewBox="0 0 24 24"
   fill="none"
   stroke="currentColor"
   stroke-width="2"
   stroke-linecap="round"
   stroke-linejoin="round"
   version="1.1"
   id="svg4"
   xmlns="http://www.w3.org/2000/svg"
   xmlns:svg="http://www.w3.org/2000/svg">
  <defs
     id="defs8" />
  <path
     style="color:#000000;fill:#000000;-inkscape-stroke:none"
     d="M 7.9296875,2.0019531 A 1.0001,1.0001 0 0 0 7.0507812,2.6835938 l -6,18.0000002 A 1.0001,1.0001 0 0 0 2,22 h 20 a 1.0001,1.0001 0 0 0 0.949219,-1.316406 l -5,-15.0000003 a 1.0001,1.0001 0 0 0 -1.65625,-0.390625 L 12.273438,9.3125 8.8945313,2.5527344 A 1.0001,1.0001 0 0 0 7.9296875,2.0019531 Z m 0.2558594,3.6054688 2.9199221,5.8398441 a 1.0001,1.0001 0 0 0 1.601562,0.259765 L 16.5625,7.8515625 20.611328,20 H 3.3886719 Z"
     id="path2" />
</svg>
