<?xml version="1.0" encoding="UTF-8" standalone="no"?>
<svg
   width="24"
   height="24"
   viewBox="0 0 24 24"
   fill="none"
   stroke="currentColor"
   stroke-width="2"
   stroke-linecap="round"
   stroke-linejoin="round"
   version="1.1"
   id="svg6"
   xmlns="http://www.w3.org/2000/svg"
   xmlns:svg="http://www.w3.org/2000/svg">
  <defs
     id="defs10" />
  <path
     style="color:#000000;fill:#000000;-inkscape-stroke:none"
     d="M 7.9296875,2.0019531 A 1.0001,1.0001 0 0 0 7.0507812,2.6835938 l -6,18.0000002 A 1.0001,1.0001 0 0 0 2,22 h 20 a 1.0001,1.0001 0 0 0 0.949219,-1.316406 l -5,-15.0000003 a 1.0001,1.0001 0 0 0 -1.65625,-0.390625 L 12.273438,9.3125 8.8945313,2.5527344 A 1.0001,1.0001 0 0 0 7.9296875,2.0019531 Z m 0.2558594,3.6054688 2.9199221,5.8398441 a 1.0001,1.0001 0 0 0 1.601562,0.259765 L 16.5625,7.8515625 20.611328,20 H 3.3886719 Z"
     id="path2" />
  <path
     style="color:#000000;fill:#000000;-inkscape-stroke:none"
     d="M 8.1152344,13.044922 C 6.5965063,12.965061 5.0742622,13.355376 3.6269531,14.222656 A 1,1 0 0 0 3.28125,15.59375 1,1 0 0 0 4.6542969,15.9375 c 2.3448728,-1.405134 4.3854205,-1.302576 6.7675781,0.378906 2.989597,2.116722 6.354143,2.19224 9.359375,0.207031 a 1,1 0 0 0 0.283203,-1.384765 1,1 0 0 0 -1.384766,-0.283203 c -2.474762,1.634788 -4.611165,1.591399 -7.101562,-0.171875 a 1.0001,1.0001 0 0 0 -0.002,0 C 11.147583,13.674857 9.6339625,13.124783 8.1152344,13.044922 Z"
     id="path4" />
</svg>
