<?xml version="1.0" encoding="UTF-8" standalone="no"?>
<svg
   width="24"
   height="24"
   viewBox="0 0 24 24"
   fill="none"
   stroke="currentColor"
   stroke-width="2"
   stroke-linecap="round"
   stroke-linejoin="round"
   version="1.1"
   id="svg6"
   xmlns="http://www.w3.org/2000/svg"
   xmlns:svg="http://www.w3.org/2000/svg">
  <defs
     id="defs10" />
  <path
     style="color:#000000;fill:#000000;-inkscape-stroke:none"
     d="M 3.3847656,2.0761719 A 1.0001,1.0001 0 0 0 2.0761719,3.3847656 L 9.1464844,20.355469 a 1.0001,1.0001 0 0 0 1.8710936,-0.06445 l 2.351563,-6.921875 6.921875,-2.351563 a 1.0001,1.0001 0 0 0 0.06445,-1.8710936 z m 1.4726563,2.78125 12.2851561,5.1171875 -4.884765,1.6582036 a 1.0001,1.0001 0 0 0 -0.625,0.625 l -1.6582036,4.884765 z"
     id="path2" />
  <path
     style="color:#000000;fill:#000000;-inkscape-stroke:none"
     d="m 13,12 a 1,1 0 0 0 -0.707031,0.292969 1,1 0 0 0 0,1.414062 l 6,6 a 1,1 0 0 0 1.414062,0 1,1 0 0 0 0,-1.414062 l -6,-6 A 1,1 0 0 0 13,12 Z"
     id="path4" />
</svg>
