<?xml version="1.0" encoding="UTF-8" standalone="no"?>
<svg
   width="24"
   height="24"
   viewBox="0 0 24 24"
   fill="none"
   stroke="currentColor"
   stroke-width="2"
   stroke-linecap="round"
   stroke-linejoin="round"
   version="1.1"
   id="svg6"
   xmlns="http://www.w3.org/2000/svg"
   xmlns:svg="http://www.w3.org/2000/svg">
  <defs
     id="defs10" />
  <path
     style="color:#000000;fill:#000000;-inkscape-stroke:none"
     d="M 12,1 C 7.5853016,1 4,4.5853016 4,9 v 6 c 0,4.414698 3.5853016,8 8,8 4.414698,0 8,-3.585302 8,-8 V 9 C 20,4.5853016 16.414698,1 12,1 Z m 0,2 c 3.341294,0 6,2.6587061 6,6 v 6 c 0,3.341294 -2.658706,6 -6,6 C 8.6587061,21 6,18.341294 6,15 V 9 C 6,5.6587061 8.6587061,3 12,3 Z"
     id="rect2" />
  <path
     style="color:#000000;fill:#000000;-inkscape-stroke:none"
     d="m 12,5 a 1,1 0 0 0 -1,1 v 4 a 1,1 0 0 0 1,1 1,1 0 0 0 1,-1 V 6 A 1,1 0 0 0 12,5 Z"
     id="path4" />
</svg>
