<?xml version="1.0" encoding="UTF-8" standalone="no"?>
<svg
   width="24"
   height="24"
   viewBox="0 0 24 24"
   fill="none"
   stroke="currentColor"
   stroke-width="2"
   stroke-linecap="round"
   stroke-linejoin="round"
   version="1.1"
   id="svg8"
   xmlns="http://www.w3.org/2000/svg"
   xmlns:svg="http://www.w3.org/2000/svg">
  <defs
     id="defs12" />
  <path
     style="color:#000000;fill:#000000;-inkscape-stroke:none"
     d="M 9.3847656,8.0761719 A 1.0001,1.0001 0 0 0 8.0761719,9.3847656 L 13.076172,21.384766 a 1.0001,1.0001 0 0 0 1.871094,-0.0625 L 16.5625,16.5625 21.322266,14.947266 a 1.0001,1.0001 0 0 0 0.0625,-1.871094 z m 1.4746094,2.7832031 7.308594,3.044922 -2.714844,0.921875 a 1.0001,1.0001 0 0 0 -0.626953,0.626953 l -0.921875,2.714844 z"
     id="path2" />
  <path
     style="color:#000000;fill:#000000;-inkscape-stroke:none"
     d="m 15.363281,15.363281 a 1,1 0 0 0 0,1.414063 l 4.244141,4.24414 a 1,1 0 0 0 1.414062,0 1,1 0 0 0 0,-1.414062 l -4.24414,-4.244141 a 1,1 0 0 0 -1.414063,0 z"
     id="path4" />
  <path
     style="color:#000000;fill:#000000;-inkscape-stroke:none"
     d="M 6.9296875,1.2734375 A 1,1 0 0 0 6.2226562,2.4980469 L 7,5.3945312 A 1,1 0 0 0 8.2246094,6.1015625 1,1 0 0 0 8.9316406,4.8769531 L 8.1542969,1.9804687 A 1,1 0 0 0 6.9296875,1.2734375 Z M 13.949219,3.0507813 A 1,1 0 0 0 13.242188,3.34375 l -2.121094,2.1210937 a 1,1 0 0 0 0,1.4140625 1,1 0 0 0 1.414062,0 L 14.65625,4.7578125 a 1,1 0 0 0 0,-1.4140625 1,1 0 0 0 -0.707031,-0.2929687 z M 2.4960938,6.2226562 A 1,1 0 0 0 1.2714844,6.9296875 1,1 0 0 0 1.9785156,8.1542969 L 4.8769531,8.9316406 A 1,1 0 0 0 6.1015625,8.2246094 1,1 0 0 0 5.3945312,7 Z M 6.1699219,10.828125 A 1,1 0 0 0 5.4628906,11.121094 L 3.34375,13.244141 a 1,1 0 0 0 0,1.414062 1,1 0 0 0 1.4140625,-0.002 l 2.1210937,-2.121094 a 1,1 0 0 0 -0.00195,-1.414062 1,1 0 0 0 -0.7070312,-0.292969 z"
     id="path6" />
</svg>
