<?xml version="1.0" encoding="UTF-8" standalone="no"?>
<svg
   width="24"
   height="24"
   viewBox="0 0 24 24"
   fill="none"
   stroke="currentColor"
   stroke-width="2"
   stroke-linecap="round"
   stroke-linejoin="round"
   version="1.1"
   id="svg14"
   xmlns="http://www.w3.org/2000/svg"
   xmlns:svg="http://www.w3.org/2000/svg">
  <defs
     id="defs18" />
  <path
     style="color:#000000;fill:#000000;-inkscape-stroke:none"
     d="M 5,8 A 1,1 0 0 0 4.2929687,8.2929688 l -3,3.0000002 a 1.0001,1.0001 0 0 0 0,1.414062 l 3,3 a 1,1 0 0 0 1.4140625,0 1,1 0 0 0 0,-1.414062 L 3.4140625,12 5.7070312,9.7070313 a 1,1 0 0 0 0,-1.4140625 A 1,1 0 0 0 5,8 Z"
     id="polyline2" />
  <path
     style="color:#000000;fill:#000000;-inkscape-stroke:none"
     d="m 11.292969,1.2929687 -3.0000002,3 a 1,1 0 0 0 0,1.4140625 1,1 0 0 0 1.4140625,0 L 12,3.4140625 14.292969,5.7070312 a 1,1 0 0 0 1.414062,0 1,1 0 0 0 0,-1.4140625 l -3,-3 a 1.0001,1.0001 0 0 0 -1.414062,0 z"
     id="polyline4" />
  <path
     style="color:#000000;fill:#000000;-inkscape-stroke:none"
     d="m 9,18 a 1,1 0 0 0 -0.7070312,0.292969 1,1 0 0 0 0,1.414062 l 3.0000002,3 a 1.0001,1.0001 0 0 0 1.414062,0 l 3,-3 a 1,1 0 0 0 0,-1.414062 1,1 0 0 0 -1.414062,0 L 12,20.585937 9.7070313,18.292969 A 1,1 0 0 0 9,18 Z"
     id="polyline6" />
  <path
     style="color:#000000;fill:#000000;-inkscape-stroke:none"
     d="m 18.292969,8.2929688 a 1,1 0 0 0 0,1.4140625 L 20.585937,12 18.292969,14.292969 a 1,1 0 0 0 0,1.414062 1,1 0 0 0 1.414062,0 l 3,-3 a 1.0001,1.0001 0 0 0 0,-1.414062 l -3,-3.0000002 a 1,1 0 0 0 -1.414062,0 z"
     id="polyline8" />
  <path
     style="color:#000000;fill:#000000;-inkscape-stroke:none"
     d="m 2,11 a 1,1 0 0 0 -1,1 1,1 0 0 0 1,1 h 20 a 1,1 0 0 0 1,-1 1,1 0 0 0 -1,-1 z"
     id="line10" />
  <path
     style="color:#000000;fill:#000000;-inkscape-stroke:none"
     d="m 12,1 a 1,1 0 0 0 -1,1 v 20 a 1,1 0 0 0 1,1 1,1 0 0 0 1,-1 V 2 A 1,1 0 0 0 12,1 Z"
     id="line12" />
</svg>
