<?xml version="1.0" encoding="UTF-8" standalone="no"?>
<svg
   width="24"
   height="24"
   viewBox="0 0 24 24"
   fill="none"
   stroke="currentColor"
   stroke-width="2"
   stroke-linecap="round"
   stroke-linejoin="round"
   version="1.1"
   id="svg6"
   xmlns="http://www.w3.org/2000/svg"
   xmlns:svg="http://www.w3.org/2000/svg">
  <defs
     id="defs10" />
  <path
     style="color:#000000;fill:#000000;-inkscape-stroke:none"
     d="M 6,7 A 1,1 0 0 0 5.2929687,7.2929687 l -4,4.0000003 a 1.0001,1.0001 0 0 0 0,1.414062 l 4,4 a 1,1 0 0 0 1.4140625,0 1,1 0 0 0 0,-1.414062 L 3.4140625,12 6.7070312,8.7070313 a 1,1 0 0 0 0,-1.4140626 A 1,1 0 0 0 6,7 Z"
     id="path2" />
  <path
     style="color:#000000;fill:#000000;-inkscape-stroke:none"
     d="m 2,11 a 1,1 0 0 0 -1,1 1,1 0 0 0 1,1 h 20 a 1,1 0 0 0 1,-1 1,1 0 0 0 -1,-1 z"
     id="path4" />
</svg>
