<?xml version="1.0" encoding="UTF-8" standalone="no"?>
<svg
   width="24"
   height="24"
   viewBox="0 0 24 24"
   fill="none"
   stroke="currentColor"
   stroke-width="2"
   stroke-linecap="round"
   stroke-linejoin="round"
   version="1.1"
   id="svg6"
   xmlns="http://www.w3.org/2000/svg"
   xmlns:svg="http://www.w3.org/2000/svg">
  <defs
     id="defs10" />
  <path
     style="color:#000000;fill:#000000;-inkscape-stroke:none"
     d="m 19,12 a 1,1 0 0 0 -1,1 v 5 h -5 a 1,1 0 0 0 -1,1 1,1 0 0 0 1,1 h 6 a 1.0001,1.0001 0 0 0 1,-1 v -6 a 1,1 0 0 0 -1,-1 z"
     id="path2" />
  <path
     style="color:#000000;fill:#000000;-inkscape-stroke:none"
     d="m 5,4 a 1,1 0 0 0 -0.7070313,0.2929687 1,1 0 0 0 0,1.4140625 L 18.292969,19.707031 a 1,1 0 0 0 1.414062,0 1,1 0 0 0 0,-1.414062 L 5.7070312,4.2929687 A 1,1 0 0 0 5,4 Z"
     id="path4" />
</svg>
