<?xml version="1.0" encoding="UTF-8" standalone="no"?>
<svg
   width="24"
   height="24"
   viewBox="0 0 24 24"
   fill="none"
   stroke="currentColor"
   stroke-width="2"
   stroke-linecap="round"
   stroke-linejoin="round"
   version="1.1"
   id="svg10"
   xmlns="http://www.w3.org/2000/svg"
   xmlns:svg="http://www.w3.org/2000/svg">
  <defs
     id="defs14" />
  <path
     style="color:#000000;fill:#000000;-inkscape-stroke:none"
     d="M 5,2 A 1,1 0 0 0 4,3 v 16 a 1.0001,1.0001 0 0 0 1,1 h 16 a 1,1 0 0 0 1,-1 1,1 0 0 0 -1,-1 H 6 V 3 A 1,1 0 0 0 5,2 Z"
     id="path2" />
  <path
     style="color:#000000;fill:#000000;-inkscape-stroke:none"
     d="m 11,12 a 1,1 0 0 0 -0.707031,0.292969 l -6.0000003,6 a 1,1 0 0 0 0,1.414062 1,1 0 0 0 1.4140625,0 l 5.9999998,-6 a 1,1 0 0 0 0,-1.414062 A 1,1 0 0 0 11,12 Z"
     id="path4" />
  <path
     style="color:#000000;fill:#000000;-inkscape-stroke:none"
     d="m 4.2929687,2.2929688 -3,2.9999999 a 1,1 0 0 0 0,1.4140625 1,1 0 0 0 1.4140626,0 L 5,4.4140625 7.2929687,6.7070312 a 1,1 0 0 0 1.4140626,0 1,1 0 0 0 0,-1.4140625 L 5.7070312,2.2929688 a 1.0001,1.0001 0 0 0 -1.4140625,0 z"
     id="path6" />
  <path
     style="color:#000000;fill:#000000;-inkscape-stroke:none"
     d="m 17.292969,15.292969 a 1,1 0 0 0 0,1.414062 L 19.585937,19 17.292969,21.292969 a 1,1 0 0 0 0,1.414062 1,1 0 0 0 1.414062,0 l 3,-3 a 1.0001,1.0001 0 0 0 0,-1.414062 l -3,-3 a 1,1 0 0 0 -1.414062,0 z"
     id="path8" />
</svg>
