<?xml version="1.0" encoding="UTF-8" standalone="no"?>
<svg
   width="24"
   height="24"
   viewBox="0 0 24 24"
   fill="none"
   stroke="currentColor"
   stroke-width="2"
   stroke-linecap="round"
   stroke-linejoin="round"
   version="1.1"
   id="svg6"
   xmlns="http://www.w3.org/2000/svg"
   xmlns:svg="http://www.w3.org/2000/svg">
  <defs
     id="defs10" />
  <path
     style="color:#000000;fill:#000000;-inkscape-stroke:none"
     d="m 8,13 c -2.7495764,0 -5,2.250424 -5,5 0,2.749576 2.2504236,5 5,5 2.749576,0 5,-2.250424 5,-5 0,-2.749576 -2.250424,-5 -5,-5 z m 0,2 c 1.6686972,0 3,1.331303 3,3 0,1.668697 -1.3313028,3 -3,3 -1.6686972,0 -3,-1.331303 -3,-3 0,-1.668697 1.3313028,-3 3,-3 z"
     id="circle2" />
  <path
     style="color:#000000;fill:#000000;-inkscape-stroke:none"
     d="M 12.496094,1.1308594 A 1.0001,1.0001 0 0 0 11,2 v 16 a 1,1 0 0 0 1,1 1,1 0 0 0 1,-1 V 3.7246094 l 5.503906,3.1445312 A 1,1 0 0 0 19.869141,6.4960937 1,1 0 0 0 19.496094,5.1308594 Z"
     id="path4" />
</svg>
