<?xml version="1.0" encoding="UTF-8" standalone="no"?>
<svg
   width="24"
   height="24"
   viewBox="0 0 24 24"
   fill="none"
   stroke="currentColor"
   stroke-width="2"
   stroke-linecap="round"
   stroke-linejoin="round"
   version="1.1"
   id="svg8"
   xmlns="http://www.w3.org/2000/svg"
   xmlns:svg="http://www.w3.org/2000/svg">
  <defs
     id="defs12" />
  <path
     style="color:#000000;fill:#000000;-inkscape-stroke:none"
     d="m 9.65625,8.3710938 a 1,1 0 0 0 -1.2851562,0.59375 L 4.0625,20.654297 a 1.0001,1.0001 0 0 0 1.4335937,1.214844 L 12,18.152344 18.503906,21.869141 A 1.0001,1.0001 0 0 0 19.9375,20.654297 l -1.169922,-3.169922 a 1,1 0 0 0 -1.283203,-0.591797 1,1 0 0 0 -0.591797,1.283203 l 0.21875,0.591797 -4.615234,-2.636719 a 1.0001,1.0001 0 0 0 -0.992188,0 L 6.8886719,18.769531 10.248047,9.65625 A 1,1 0 0 0 9.65625,8.3710938 Z"
     id="path2" />
  <path
     style="color:#000000;fill:#000000;-inkscape-stroke:none"
     d="M 12,1 A 1.0001,1.0001 0 0 0 11.0625,1.6542969 L 9.8925781,4.8242187 A 1,1 0 0 0 10.484375,6.1074219 1,1 0 0 0 11.767578,5.515625 l 0.230469,-0.6230469 1.59375,4.3320313 A 1,1 0 0 0 14.875,9.8183594 1,1 0 0 0 15.46875,8.5351563 L 12.939453,1.6542969 A 1.0001,1.0001 0 0 0 12,1 Z"
     id="path4" />
  <path
     style="color:#000000;fill:#000000;-inkscape-stroke:none"
     d="m 2,1 a 1,1 0 0 0 -0.7070313,0.2929687 1,1 0 0 0 0,1.4140626 L 21.292969,22.707031 a 1,1 0 0 0 1.414062,0 1,1 0 0 0 0,-1.414062 L 2.7070313,1.2929687 A 1,1 0 0 0 2,1 Z"
     id="line6" />
</svg>
