<?xml version="1.0" encoding="UTF-8" standalone="no"?>
<svg
   width="24"
   height="24"
   viewBox="0 0 24 24"
   fill="none"
   stroke="currentColor"
   stroke-width="2"
   stroke-linecap="round"
   stroke-linejoin="round"
   version="1.1"
   id="svg8"
   xmlns="http://www.w3.org/2000/svg"
   xmlns:svg="http://www.w3.org/2000/svg">
  <defs
     id="defs12" />
  <path
     style="color:#000000;fill:#000000;-inkscape-stroke:none"
     d="m 8.7675781,7.4882812 a 1,1 0 0 0 -0.765625,0.037109 L 2.5722656,10.095703 a 1.0001,1.0001 0 0 0 0.1855469,1.875 l 7.4179685,1.853516 1.853516,7.417968 a 1.0001,1.0001 0 0 0 1.875,0.185547 l 2.570312,-5.429687 a 1,1 0 0 0 -0.476562,-1.332031 1,1 0 0 0 -1.332031,0.476562 l -1.373047,2.902344 -1.322266,-5.287109 A 1.0001,1.0001 0 0 0 11.242188,12.029297 L 5.9550781,10.707031 8.8574219,9.3339844 A 1,1 0 0 0 9.3339844,8.0019531 1,1 0 0 0 8.7675781,7.4882812 Z"
     id="path2" />
  <path
     style="color:#000000;fill:#000000;-inkscape-stroke:none"
     d="m 22.367187,1.0703125 a 1.0001,1.0001 0 0 0 -0.794921,0.025391 l -9.730469,4.6113281 a 1,1 0 0 0 -0.474609,1.3320313 1,1 0 0 0 1.330078,0.4746094 l 7.199218,-3.4101563 -3.410156,7.1992184 a 1,1 0 0 0 0.474609,1.330079 1,1 0 0 0 1.332032,-0.47461 l 4.611328,-9.7304686 a 1.0001,1.0001 0 0 0 -0.53711,-1.3574219 z"
     id="path4" />
  <path
     style="color:#000000;fill:#000000;-inkscape-stroke:none"
     d="m 2,1 a 1,1 0 0 0 -0.7070313,0.2929687 1,1 0 0 0 0,1.4140626 L 21.292969,22.707031 a 1,1 0 0 0 1.414062,0 1,1 0 0 0 0,-1.414062 L 2.7070313,1.2929687 A 1,1 0 0 0 2,1 Z"
     id="line6" />
</svg>
