<?xml version="1.0" encoding="UTF-8" standalone="no"?>
<svg
   width="24"
   height="24"
   viewBox="0 0 24 24"
   fill="none"
   stroke="currentColor"
   stroke-width="2"
   stroke-linecap="round"
   stroke-linejoin="round"
   version="1.1"
   id="svg12"
   xmlns="http://www.w3.org/2000/svg"
   xmlns:svg="http://www.w3.org/2000/svg">
  <defs
     id="defs16" />
  <path
     style="color:#000000;fill:#000000;-inkscape-stroke:none"
     d="m 17,15 c -1.090702,0 -2,0.909298 -2,2 v 4 c 0,1.090702 0.909298,2 2,2 h 4 c 1.090702,0 2,-0.909298 2,-2 v -4 c 0,-1.090702 -0.909298,-2 -2,-2 z m 0,2 h 4 v 4 h -4 z"
     id="rect2" />
  <path
     style="color:#000000;fill:#000000;-inkscape-stroke:none"
     d="m 3,15 c -1.0907017,0 -2,0.909298 -2,2 v 4 c 0,1.090702 0.9092983,2 2,2 h 4 c 1.0907017,0 2,-0.909298 2,-2 V 17 C 9,15.909298 8.0907017,15 7,15 Z m 0,2 h 4 v 4 H 3 Z"
     id="rect4" />
  <path
     style="color:#000000;fill:#000000;-inkscape-stroke:none"
     d="M 10,1 C 8.9092983,1 8,1.9092983 8,3 v 4 c 0,1.0907017 0.9092983,2 2,2 h 4 c 1.090702,0 2,-0.9092983 2,-2 V 3 C 16,1.9092983 15.090702,1 14,1 Z m 0,2 h 4 v 4 h -4 z"
     id="rect6" />
  <path
     style="color:#000000;fill:#000000;-inkscape-stroke:none"
     d="m 6,11 c -1.0927238,0 -2,0.907276 -2,2 v 3 a 1,1 0 0 0 1,1 1,1 0 0 0 1,-1 v -3 h 12 v 3 a 1,1 0 0 0 1,1 1,1 0 0 0 1,-1 v -3 c 0,-1.092724 -0.907276,-2 -2,-2 z"
     id="path8" />
  <path
     style="color:#000000;fill:#000000;-inkscape-stroke:none"
     d="m 12,7 a 1,1 0 0 0 -1,1 v 4 a 1,1 0 0 0 1,1 1,1 0 0 0 1,-1 V 8 A 1,1 0 0 0 12,7 Z"
     id="path10" />
</svg>
