<?xml version="1.0" encoding="UTF-8" standalone="no"?>
<svg
   width="24"
   height="24"
   viewBox="0 0 24 24"
   fill="none"
   stroke="currentColor"
   stroke-width="2"
   stroke-linecap="round"
   stroke-linejoin="round"
   version="1.1"
   id="svg10"
   xmlns="http://www.w3.org/2000/svg"
   xmlns:svg="http://www.w3.org/2000/svg">
  <defs
     id="defs14" />
  <path
     style="color:#000000;fill:#000000;-inkscape-stroke:none"
     d="M 8,1 C 6.354992,1 5,2.354992 5,4 V 8 H 4 C 2.3545471,8 1,9.3545471 1,11 v 9 c 0,1.645008 1.354992,3 3,3 h 16 c 1.645008,0 3,-1.354992 3,-3 V 4 C 23,2.354992 21.645008,1 20,1 Z m 0,2 h 12 c 0.564129,0 1,0.4358712 1,1 v 16 c 0,0.564129 -0.435871,1 -1,1 H 6.5839844 C 6.7210113,20.657984 7,20.388357 7,20 V 9 4 C 7,3.4358712 7.4358712,3 8,3 Z M 4,10 H 5 V 20 C 5,20.564129 4.5641288,21 4,21 3.4358712,21 3,20.564129 3,20 v -9 c 0,-0.554545 0.4454551,-1 1,-1 z"
     id="path2" />
  <path
     style="color:#000000;fill:#000000;-inkscape-stroke:none"
     d="m 10,13 a 1,1 0 0 0 -1,1 1,1 0 0 0 1,1 h 8 a 1,1 0 0 0 1,-1 1,1 0 0 0 -1,-1 z"
     id="path4" />
  <path
     style="color:#000000;fill:#000000;-inkscape-stroke:none"
     d="m 10,17 a 1,1 0 0 0 -1,1 1,1 0 0 0 1,1 h 5 a 1,1 0 0 0 1,-1 1,1 0 0 0 -1,-1 z"
     id="path6" />
  <path
     style="color:#000000;fill:#000000;-inkscape-stroke:none"
     d="M 10,5 A 1.0001,1.0001 0 0 0 9,6 v 4 a 1.0001,1.0001 0 0 0 1,1 h 8 a 1.0001,1.0001 0 0 0 1,-1 V 6 A 1.0001,1.0001 0 0 0 18,5 Z m 1,2 h 6 v 2 h -6 z"
     id="path8" />
</svg>
