<?xml version="1.0" encoding="UTF-8" standalone="no"?>
<svg
   width="24"
   height="24"
   viewBox="0 0 24 24"
   fill="none"
   stroke="currentColor"
   stroke-width="2"
   stroke-linecap="round"
   stroke-linejoin="round"
   version="1.1"
   id="svg10"
   xmlns="http://www.w3.org/2000/svg"
   xmlns:svg="http://www.w3.org/2000/svg">
  <defs
     id="defs14" />
  <path
     style="color:#000000;fill:#000000;-inkscape-stroke:none"
     d="M 6.2636719,7.3554687 A 1,1 0 0 0 5.5039062,7.4511719 1,1 0 0 0 5.1308594,8.8144531 c 1.126191,1.9753179 1.126191,4.3957759 0,6.3710939 a 1,1 0 0 0 0.3730468,1.363281 1,1 0 0 0 1.3652344,-0.373047 c 1.4747411,-2.586667 1.4747411,-5.764895 0,-8.3515623 a 1,1 0 0 0 -0.6054687,-0.46875 z"
     id="path2" />
  <path
     style="color:#000000;fill:#000000;-inkscape-stroke:none"
     d="M 9.7265625,5.2460937 A 1,1 0 0 0 8.9667969,5.3398437 1,1 0 0 0 8.5898438,6.703125 c 1.8600652,3.28833 1.8600652,7.30542 0,10.59375 a 1,1 0 0 0 0.3769531,1.363281 1,1 0 0 0 1.3632811,-0.376953 c 2.204217,-3.89674 2.204217,-8.6696663 0,-12.5664061 A 1,1 0 0 0 9.7265625,5.2460937 Z"
     id="path4" />
  <path
     style="color:#000000;fill:#000000;-inkscape-stroke:none"
     d="m 13.171875,3.1347656 a 1,1 0 0 0 -0.759766,0.097656 1,1 0 0 0 -0.36914,1.3652343 c 2.627588,4.5865751 2.629592,10.2167428 0.0078,14.8066408 a 1,1 0 0 0 0.373047,1.363281 1,1 0 0 0 1.365235,-0.371094 C 16.760889,15.193767 16.755754,8.8024671 13.777344,3.6035156 a 1,1 0 0 0 -0.605469,-0.46875 z"
     id="path6" />
  <path
     style="color:#000000;fill:#000000;-inkscape-stroke:none"
     d="m 16.632812,1.0351562 a 1,1 0 0 0 -0.759765,0.095703 1,1 0 0 0 -0.371094,1.3652344 c 3.365142,5.8906865 3.365142,13.1171262 0,19.0078122 a 1,1 0 0 0 0.371094,1.365235 1,1 0 0 0 1.365234,-0.373047 c 3.714807,-6.502776 3.714807,-14.4894117 0,-20.9921878 a 1,1 0 0 0 -0.605469,-0.46875 z"
     id="path8" />
</svg>
