<?xml version="1.0" encoding="UTF-8" standalone="no"?>
<svg
   width="24"
   height="24"
   viewBox="0 0 24 24"
   fill="none"
   stroke="currentColor"
   stroke-width="2"
   stroke-linecap="round"
   stroke-linejoin="round"
   version="1.1"
   id="svg12"
   xmlns="http://www.w3.org/2000/svg"
   xmlns:svg="http://www.w3.org/2000/svg">
  <defs
     id="defs16" />
  <path
     style="color:#000000;fill:#000000;-inkscape-stroke:none"
     d="m 12,1 a 1,1 0 0 0 -1,1 v 2 a 1,1 0 0 0 1,1 1,1 0 0 0 1,-1 V 2 A 1,1 0 0 0 12,1 Z"
     id="path2" />
  <path
     style="color:#000000;fill:#000000;-inkscape-stroke:none"
     d="m 5,9 a 1,1 0 0 0 -1,1 v 4 c 3.89e-4,3.654969 2.4891309,6.854641 6.03125,7.755859 a 1.0001,1.0001 0 0 0 0.002,0 c 0.279915,0.07066 0.497378,0.188785 0.638672,0.330078 l 0.621094,0.621094 a 1.0001,1.0001 0 0 0 1.414062,0 l 0.621094,-0.621094 c 0.141294,-0.141293 0.358757,-0.259419 0.638672,-0.330078 a 1.0001,1.0001 0 0 0 0.0039,0 c 1.934501,-0.492792 3.615347,-1.689928 4.712891,-3.357422 a 1,1 0 0 0 -0.285157,-1.384765 1,1 0 0 0 -1.384765,0.285156 c -0.823774,1.251556 -2.085148,2.149661 -3.537109,2.519531 C 12.962856,19.948245 12.443394,20.212478 12,20.625 11.556606,20.212478 11.037144,19.948245 10.523438,19.818359 h -0.002 C 7.8568175,19.139536 6.0002926,16.749934 6,14 V 10 A 1,1 0 0 0 5,9 Z"
     id="path4" />
  <path
     style="color:#000000;fill:#000000;-inkscape-stroke:none"
     d="m 19,9 a 1,1 0 0 0 -1,1 v 3.34375 a 1,1 0 0 0 1,1 1,1 0 0 0 1,-1 V 10 A 1,1 0 0 0 19,9 Z"
     id="path6" />
  <path
     style="color:#000000;fill:#000000;-inkscape-stroke:none"
     d="M 12,3 C 11.19874,3 10.419795,3.0727789 9.6738281,3.2070313 A 1,1 0 0 0 8.8652344,4.3691406 1,1 0 0 0 10.027344,5.1757812 C 10.659376,5.0620338 11.321262,5 12,5 c 1.833332,0 3.566681,0.4673649 4.849609,1.1367187 1.282929,0.6693539 2.043822,1.562007 2.179688,2.1054688 0.07523,0.3015441 0.263765,0.6336158 0.40039,0.9550781 A 1.0001,1.0001 0 0 0 18.044922,9.7050781 C 17.820799,10.432666 17.75109,10.504417 16.986328,10.898438 a 1,1 0 0 0 -0.431641,1.345703 1,1 0 0 0 1.347657,0.43164 c 0.621147,-0.320027 1.081945,-0.780888 1.458984,-1.308593 0.834922,0.468263 1.712622,0.749597 2.757813,0.625 A 1.0001,1.0001 0 0 0 22.625,10.21875 C 21.481428,9.3053029 21.179341,8.5940886 20.970703,7.7578125 20.606569,6.3012763 19.36746,5.1939259 17.775391,4.3632812 16.183322,3.5326366 14.166665,3 12,3 Z M 5.2207031,4.96875 C 4.1434553,5.7160198 3.3119861,6.6270556 3.0292969,7.7578125 2.8538714,8.4580704 2.3111299,9.3055316 1.3046875,10.28125 A 1.0001,1.0001 0 0 0 2.0625,11.998047 c 1.0813653,-0.06769 1.9213285,-0.347967 2.765625,-0.796875 0.4651128,0.582569 0.8776889,1.164359 1.6367187,1.644531 a 1.0001,1.0001 0 0 0 0.9414063,0.06836 c 0.9526351,-0.424487 1.5767887,-0.888963 2.0957031,-1.398438 0.5518199,0.546721 1.1937109,1.01619 2.1074219,1.404297 a 1,1 0 0 0 1.310547,-0.529297 1,1 0 0 0 -0.529297,-1.310547 C 11.117089,10.539132 10.877024,10.355242 10.357422,9.4863281 A 1.0001,1.0001 0 0 0 8.6445313,9.4824219 C 8.2630255,10.112675 7.9093569,10.399005 7.1601562,10.78125 6.6338462,10.406421 6.2426795,10.140523 5.8632812,9.4941406 a 1.0001,1.0001 0 0 0 -1.3125,-0.3398437 C 4.6927864,8.8513406 4.8912628,8.5592952 4.9707031,8.2421875 5.0760135,7.8209459 5.5366247,7.182057 6.359375,6.6113281 A 1,1 0 0 0 6.6113281,5.2207031 1,1 0 0 0 5.2207031,4.96875 Z"
     id="path8" />
  <path
     style="color:#000000;fill:#000000;-inkscape-stroke:none"
     d="m 2,1 a 1,1 0 0 0 -0.7070313,0.2929687 1,1 0 0 0 0,1.4140626 L 21.292969,22.707031 a 1,1 0 0 0 1.414062,0 1,1 0 0 0 0,-1.414062 L 2.7070313,1.2929687 A 1,1 0 0 0 2,1 Z"
     id="line10" />
</svg>
