<?xml version="1.0" encoding="UTF-8" standalone="no"?>
<svg
   width="24"
   height="24"
   viewBox="0 0 24 24"
   fill="none"
   stroke="currentColor"
   stroke-width="2"
   stroke-linecap="round"
   stroke-linejoin="round"
   version="1.1"
   id="svg8"
   xmlns="http://www.w3.org/2000/svg"
   xmlns:svg="http://www.w3.org/2000/svg">
  <defs
     id="defs12" />
  <path
     style="color:#000000;fill:#000000;-inkscape-stroke:none"
     d="m 12,1 a 1,1 0 0 0 -1,1 v 2 a 1,1 0 0 0 1,1 1,1 0 0 0 1,-1 V 2 A 1,1 0 0 0 12,1 Z"
     id="path2" />
  <path
     style="color:#000000;fill:#000000;-inkscape-stroke:none"
     d="m 5,9 a 1,1 0 0 0 -1,1 v 4 c 3.89e-4,3.654969 2.4891309,6.854641 6.03125,7.755859 a 1.0001,1.0001 0 0 0 0.002,0 c 0.279915,0.07066 0.497378,0.188785 0.638672,0.330078 l 0.621094,0.621094 a 1.0001,1.0001 0 0 0 1.414062,0 l 0.621094,-0.621094 c 0.141294,-0.141293 0.358757,-0.259419 0.638672,-0.330078 a 1.0001,1.0001 0 0 0 0.002,0 C 17.511163,20.854985 20.000017,17.65517 20,14 v -4 a 1,1 0 0 0 -1,-1 1,1 0 0 0 -1,1 v 4 c 1.3e-5,2.750591 -1.857698,5.140433 -4.523437,5.818359 C 12.962856,19.948245 12.443394,20.212478 12,20.625 11.556606,20.212478 11.037144,19.948245 10.523438,19.818359 h -0.002 C 7.8568175,19.139536 6.0002926,16.749934 6,14 V 10 A 1,1 0 0 0 5,9 Z"
     id="path4" />
  <path
     style="color:#000000;fill:#000000;-inkscape-stroke:none"
     d="M 12,3 C 9.8333355,3 7.8166783,3.5326366 6.2246094,4.3632812 4.6325405,5.1939259 3.3934309,6.3012763 3.0292969,7.7578125 2.8538714,8.4580704 2.3111299,9.3055316 1.3046875,10.28125 A 1.0001,1.0001 0 0 0 2.0625,11.998047 c 1.0813653,-0.06769 1.9213285,-0.347967 2.765625,-0.796875 0.4651128,0.582569 0.8776889,1.164359 1.6367187,1.644531 a 1.0001,1.0001 0 0 0 0.9414063,0.06836 c 0.9526351,-0.424487 1.5767887,-0.888963 2.0957031,-1.398438 0.5518199,0.546721 1.1937109,1.01619 2.1074219,1.404297 a 1.0001,1.0001 0 0 0 0.818359,-0.01563 c 0.894467,-0.424018 1.515223,-0.891863 2.060547,-1.421875 0.551258,0.55347 1.184617,1.034227 2.115235,1.435547 a 1.0001,1.0001 0 0 0 0.808593,-0.0078 c 0.647312,-0.293405 1.178796,-0.580681 1.621094,-1.013672 0.149038,-0.145901 0.194063,-0.367907 0.310547,-0.539062 0.839791,0.475542 1.722991,0.760222 2.775391,0.634766 A 1.0001,1.0001 0 0 0 22.625,10.21875 C 21.481428,9.3053029 21.179341,8.5940886 20.970703,7.7578125 20.606569,6.3012763 19.36746,5.1939259 17.775391,4.3632812 16.183322,3.5326366 14.166665,3 12,3 Z m 0,2 c 1.833332,0 3.566681,0.4673649 4.849609,1.1367187 1.282929,0.6693539 2.043822,1.562007 2.179688,2.1054688 0.07523,0.3015441 0.263765,0.6336158 0.40039,0.9550781 A 1.0001,1.0001 0 0 0 18.044922,9.703125 c -0.130273,0.420538 -0.234705,0.591913 -0.410156,0.763672 -0.110375,0.108052 -0.41231,0.256919 -0.658204,0.392578 C 16.1744,10.475824 15.812598,10.193294 15.339844,9.4589844 A 1.0001,1.0001 0 0 0 13.671875,9.4394531 C 13.194549,10.14422 12.722522,10.411054 11.908203,10.830078 11.146905,10.468518 10.780549,10.19391 10.357422,9.4863281 A 1.0001,1.0001 0 0 0 8.6445313,9.4824219 C 8.2630255,10.112675 7.9093569,10.399005 7.1601562,10.78125 6.6338462,10.406421 6.2426795,10.140523 5.8632812,9.4941406 a 1.0001,1.0001 0 0 0 -1.3125,-0.3398437 C 4.6927864,8.8513406 4.8912628,8.5592952 4.9707031,8.2421875 5.1065686,7.6987257 5.8674624,6.8060726 7.1503906,6.1367187 8.4333188,5.4673649 10.166669,5 12,5 Z"
     id="path6" />
</svg>
