<?xml version="1.0" encoding="UTF-8" standalone="no"?>
<svg
   width="24"
   height="24"
   viewBox="0 0 24 24"
   fill="none"
   stroke="currentColor"
   stroke-width="2"
   stroke-linecap="round"
   stroke-linejoin="round"
   version="1.1"
   id="svg6"
   xmlns="http://www.w3.org/2000/svg"
   xmlns:svg="http://www.w3.org/2000/svg">
  <defs
     id="defs10" />
  <path
     style="color:#000000;fill:#000000;-inkscape-stroke:none"
     d="M 3,2 A 1,1 0 0 0 2,3 1,1 0 0 0 3,4 H 8.2792969 L 14.050781,21.316406 A 1.0001,1.0001 0 0 0 15,22 h 6 a 1,1 0 0 0 1,-1 1,1 0 0 0 -1,-1 H 15.720703 L 9.9492188,2.6835938 A 1.0001,1.0001 0 0 0 9,2 Z"
     id="path2" />
  <path
     style="color:#000000;fill:#000000;-inkscape-stroke:none"
     d="m 14,2 a 1,1 0 0 0 -1,1 1,1 0 0 0 1,1 h 7 A 1,1 0 0 0 22,3 1,1 0 0 0 21,2 Z"
     id="path4" />
</svg>
