<?xml version="1.0" encoding="UTF-8" standalone="no"?>
<svg
   width="24"
   height="24"
   viewBox="0 0 24 24"
   fill="none"
   stroke="currentColor"
   stroke-width="2"
   stroke-linecap="round"
   stroke-linejoin="round"
   version="1.1"
   id="svg12"
   xmlns="http://www.w3.org/2000/svg"
   xmlns:svg="http://www.w3.org/2000/svg">
  <defs
     id="defs16" />
  <path
     style="color:#000000;fill:#000000;-inkscape-stroke:none"
     d="m 12,8 c -2.1972922,0 -4,1.8027078 -4,4 0,2.197292 1.8027078,4 4,4 2.197292,0 4,-1.802708 4,-4 0,-2.1972922 -1.802708,-4 -4,-4 z m 0,2 c 1.116413,0 2,0.883587 2,2 0,1.116413 -0.883587,2 -2,2 -1.116413,0 -2,-0.883587 -2,-2 0,-1.116413 0.883587,-2 2,-2 z"
     id="circle2" />
  <path
     style="color:#000000;fill:#000000;-inkscape-stroke:none"
     d="m 19,2 c -1.645008,0 -3,1.354992 -3,3 0,1.645008 1.354992,3 3,3 1.645008,0 3,-1.354992 3,-3 0,-1.645008 -1.354992,-3 -3,-3 z m 0,2 c 0.564129,0 1,0.4358712 1,1 0,0.5641288 -0.435871,1 -1,1 -0.564129,0 -1,-0.4358712 -1,-1 0,-0.5641288 0.435871,-1 1,-1 z"
     id="circle4" />
  <path
     style="color:#000000;fill:#000000;-inkscape-stroke:none"
     d="m 5,16 c -1.645008,0 -3,1.354992 -3,3 0,1.645008 1.354992,3 3,3 1.645008,0 3,-1.354992 3,-3 0,-1.645008 -1.354992,-3 -3,-3 z m 0,2 c 0.5641288,0 1,0.435871 1,1 0,0.564129 -0.4358712,1 -1,1 -0.5641288,0 -1,-0.435871 -1,-1 0,-0.564129 0.4358712,-1 1,-1 z"
     id="circle6" />
  <path
     style="color:#000000;fill:#000000;-inkscape-stroke:none"
     d="m 20.537109,5.5039062 a 1,1 0 0 0 -0.75,0.1484375 1,1 0 0 0 -0.277343,1.3867188 c 2.205146,3.3065855 1.894294,7.0516415 0.07617,9.8710935 -1.818122,2.819453 -5.101585,4.648312 -9.023437,4.003906 a 1,1 0 0 0 -1.1484375,0.824219 1,1 0 0 0 0.8242185,1.148438 c 4.70666,0.773359 8.819207,-1.468312 11.027344,-4.892578 2.208137,-3.424267 2.554625,-8.0961817 -0.0918,-12.0644535 A 1,1 0 0 0 20.537109,5.5039062 Z"
     id="path8" />
  <path
     style="color:#000000;fill:#000000;-inkscape-stroke:none"
     d="M 10.275391,1.1035156 C 7.0533675,1.5960644 4.3540755,3.5046567 2.71875,6.0664062 0.53831606,9.4820723 0.20705553,14.122865 2.8261719,18.068359 a 1,1 0 0 0 1.3867187,0.28125 1,1 0 0 0 0.2792969,-1.386718 C 2.3106042,13.676506 2.6092553,9.9545242 4.4042969,7.1425781 6.1993385,4.3306321 9.450244,2.4924243 13.349609,3.0878906 A 1,1 0 0 0 14.488281,2.25 1,1 0 0 0 13.650391,1.1113281 c -1.170354,-0.17872288 -2.300993,-0.17199542 -3.375,-0.00781 z"
     id="path10" />
</svg>
