<?xml version="1.0" encoding="UTF-8" standalone="no"?>
<svg
   width="24"
   height="24"
   viewBox="0 0 24 24"
   fill="none"
   stroke="currentColor"
   stroke-width="2"
   stroke-linecap="round"
   stroke-linejoin="round"
   version="1.1"
   id="svg12"
   xmlns="http://www.w3.org/2000/svg"
   xmlns:svg="http://www.w3.org/2000/svg">
  <defs
     id="defs16" />
  <path
     style="color:#000000;fill:#000000;-inkscape-stroke:none"
     d="M 21.292969,13.292969 18,16.585937 16.707031,15.292969 a 1,1 0 0 0 -1.414062,0 1,1 0 0 0 0,1.414062 l 2,2 a 1.0001,1.0001 0 0 0 1.414062,0 l 4,-4 a 1,1 0 0 0 0,-1.414062 1,1 0 0 0 -1.414062,0 z"
     id="path2" />
  <path
     style="color:#000000;fill:#000000;-inkscape-stroke:none"
     d="m 12,1.0019531 c -0.516868,0 -1.033662,0.1343148 -1.496094,0.4003906 l -6.9999997,4 A 1.0001,1.0001 0 0 0 3.5,5.4042969 C 2.5741305,5.9388472 2.0010966,6.9289458 2,7.9980469 A 1.0001,1.0001 0 0 0 2,8 v 8 a 1.0001,1.0001 0 0 0 0,0.002 c 0.0011,1.069101 0.5741305,2.0592 1.5,2.59375 a 1.0001,1.0001 0 0 0 0.00391,0.002 l 6.9999997,4 c 0.926141,0.532887 2.070557,0.532406 2.996094,-0.002 l -0.0039,0.0039 2,-1.140625 a 1,1 0 0 0 0.373047,-1.363281 1,1 0 0 0 -1.365235,-0.375 l -2,1.140625 a 1.0001,1.0001 0 0 0 -0.0039,0.002 c -0.310789,0.179434 -0.689211,0.179434 -1,0 a 1.0001,1.0001 0 0 0 -0.0039,-0.002 L 4.5,16.863281 C 4.19006,16.684338 4.0010048,16.357782 4,16 V 8.0019531 8 c 0.001,-0.3577817 0.19006,-0.6843376 0.5,-0.8632813 L 11.496094,3.1386719 A 1.0001,1.0001 0 0 0 11.5,3.1367188 c 0.310789,-0.1794342 0.689211,-0.1794342 1,0 a 1.0001,1.0001 0 0 0 0.0039,0.00195 L 19.5,7.1367187 C 19.80994,7.3156624 19.998995,7.6422183 20,8 v 2 a 1,1 0 0 0 1,1 1,1 0 0 0 1,-1 V 8 a 1.0001,1.0001 0 0 0 0,-0.00195 c -0.0011,-1.0691011 -0.57413,-2.0591997 -1.5,-2.59375 a 1.0001,1.0001 0 0 0 -0.0039,-0.00195 L 13.5,1.4042969 C 13.036593,1.1367487 12.518296,1.0019531 12,1.0019531 Z"
     id="path4" />
  <path
     style="color:#000000;fill:#000000;-inkscape-stroke:none"
     d="M 7.2910156,3.2734375 A 1,1 0 0 0 6.6835937,3.7402344 1,1 0 0 0 7.0507812,5.1054687 L 16,10.265625 A 1,1 0 0 0 17.367187,9.9003906 1,1 0 0 0 17,8.5332031 L 8.0488281,3.3730469 A 1,1 0 0 0 7.2910156,3.2734375 Z"
     id="path6" />
  <path
     style="color:#000000;fill:#000000;-inkscape-stroke:none"
     d="M 3.0292969,6.0351562 A 1,1 0 0 0 2.421875,6.5019531 1,1 0 0 0 2.7929688,7.8671875 l 8.7089842,5.0000005 a 1.0001,1.0001 0 0 0 0.996094,0 L 21.207031,7.8671875 A 1,1 0 0 0 21.578125,6.5019531 1,1 0 0 0 20.212891,6.1328125 L 12,10.847656 3.7871094,6.1328125 A 1,1 0 0 0 3.0292969,6.0351562 Z"
     id="polyline8" />
  <path
     style="color:#000000;fill:#000000;-inkscape-stroke:none"
     d="m 12,11 a 1,1 0 0 0 -1,1 v 10 a 1,1 0 0 0 1,1 1,1 0 0 0 1,-1 V 12 a 1,1 0 0 0 -1,-1 z"
     id="line10" />
</svg>
