<?xml version="1.0" encoding="UTF-8" standalone="no"?>
<svg
   width="24"
   height="24"
   viewBox="0 0 24 24"
   fill="none"
   stroke="currentColor"
   stroke-width="2"
   stroke-linecap="round"
   stroke-linejoin="round"
   version="1.1"
   id="svg8"
   xmlns="http://www.w3.org/2000/svg"
   xmlns:svg="http://www.w3.org/2000/svg">
  <defs
     id="defs12" />
  <path
     style="color:#000000;fill:#000000;-inkscape-stroke:none"
     d="M 3,8 A 1.0001,1.0001 0 0 0 2,9 v 10 c 0,1.645008 1.354992,3 3,3 h 14 c 1.645008,0 3,-1.354992 3,-3 V 9 A 1.0001,1.0001 0 0 0 21,8 Z m 1,2 h 16 v 9 c 0,0.564129 -0.435871,1 -1,1 H 5 C 4.4358712,20 4,19.564129 4,19 Z"
     id="path2" />
  <path
     style="color:#000000;fill:#000000;-inkscape-stroke:none"
     d="M 7.2402344,2 C 6.1080146,1.9985058 5.0661852,2.6391899 4.5566406,3.6503906 a 1.0001,1.0001 0 0 0 -0.00195,0.00195 L 2.1054688,8.5527344 A 1,1 0 0 0 2.5527344,9.8945313 1,1 0 0 0 3.8945313,9.4472656 L 6.34375,4.546875 v 0.00391 C 6.5149565,4.2110187 6.8578214,3.9992503 7.2382812,4 a 1.0001,1.0001 0 0 0 0.00195,0 h 9.5195316 a 1.0001,1.0001 0 0 0 0.0078,0 c 0.382305,-0.00266 0.726405,0.2093587 0.898438,0.5507812 l 2.439453,4.8945313 a 1,1 0 0 0 1.339843,0.4492188 1,1 0 0 0 0.449219,-1.3398438 L 19.455078,3.6542969 a 1.0001,1.0001 0 0 0 -0.002,-0.00391 C 18.940896,2.6337993 17.892227,1.992078 16.753906,2 H 7.2421875 Z"
     id="path4" />
  <path
     style="color:#000000;fill:#000000;-inkscape-stroke:none"
     d="m 12,2 a 1,1 0 0 0 -1,1 v 6 a 1,1 0 0 0 1,1 1,1 0 0 0 1,-1 V 3 A 1,1 0 0 0 12,2 Z"
     id="path6" />
</svg>
