<?xml version="1.0" encoding="UTF-8" standalone="no"?>
<svg
   width="24"
   height="24"
   viewBox="0 0 24 24"
   fill="none"
   stroke="currentColor"
   stroke-width="2"
   stroke-linecap="round"
   stroke-linejoin="round"
   version="1.1"
   id="svg10"
   xmlns="http://www.w3.org/2000/svg"
   xmlns:svg="http://www.w3.org/2000/svg">
  <defs
     id="defs14" />
  <path
     style="color:#000000;fill:#000000;-inkscape-stroke:none"
     d="m 7.6542969,1.0058594 c -0.4724164,0 -0.943969,0.1140008 -1.3730469,0.3417968 L 2.6386719,3.2421875 a 1.0001,1.0001 0 0 0 -0.019531,0.011719 C 0.53550267,4.3957446 0.49298736,7.4857178 2.5449219,8.6835938 a 1.0001,1.0001 0 0 0 0.011719,0.00586 L 14.777344,15.619141 a 1.0001,1.0001 0 0 0 0.0078,0.0059 c 0.903877,0.501284 2.00628,0.501284 2.910156,0 a 1.0001,1.0001 0 0 0 0.02344,-0.01367 l 3.791016,-2.240234 a 1.0001,1.0001 0 0 0 0.01172,-0.0078 c 2.007513,-1.226719 1.932417,-4.273548 -0.132812,-5.4003904 a 1.0001,1.0001 0 0 0 -0.0059,-0.00391 L 9.03125,1.3476562 a 1.0001,1.0001 0 0 0 -0.00195,0 C 8.600219,1.1198602 8.1267132,1.0058594 7.6542969,1.0058594 Z M 7.21875,3.1132813 c 0.2737004,-0.1453067 0.5993465,-0.1453067 0.8730469,0 L 20.431641,9.71875 c 0.798059,0.435442 0.821437,1.460685 0.04687,1.935547 -5.78e-4,3.54e-4 5.78e-4,0.0016 0,0.002 L 16.724609,13.875 c -0.302875,0.167973 -0.665874,0.167973 -0.96875,0 L 3.5546875,6.9570312 3.5527344,6.9550781 C 2.7601781,6.4899506 2.7733586,5.4498966 3.5800781,5.0078125 l 3.6308594,-1.890625 a 1.0001,1.0001 0 0 0 0.00781,-0.00391 z"
     id="path2" />
  <path
     style="color:#000000;fill:#000000;-inkscape-stroke:none"
     d="m 16.345703,1.0058594 c -0.472416,0 -0.945922,0.1140008 -1.375,0.3417968 a 1.0001,1.0001 0 0 0 -0.002,0 L 2.6171875,7.9589844 a 1.0001,1.0001 0 0 0 -0.00586,0.00391 C 0.54609873,9.089733 0.47100299,12.136562 2.4785156,13.363281 a 1.0001,1.0001 0 0 0 0.011719,0.0078 L 6.28125,15.611328 a 1.0001,1.0001 0 0 0 0.023437,0.01367 c 0.9038766,0.501284 2.0062796,0.501284 2.9101563,0 a 1.0001,1.0001 0 0 0 0.00781,-0.0039 L 21.492187,8.6914063 a 1.0001,1.0001 0 0 0 0.02344,-0.013672 C 23.552811,7.4525263 23.469695,4.359168 21.369141,3.2460938 a 1.0001,1.0001 0 0 0 -0.0078,-0.00391 L 17.71875,1.3476562 C 17.289672,1.1198602 16.818119,1.0058594 16.345703,1.0058594 Z m -0.4375,2.1074219 c 0.273701,-0.1453067 0.599347,-0.1453067 0.873047,0 a 1.0001,1.0001 0 0 0 0.0078,0.00391 l 3.642579,1.8964844 v 0.00195 c 0.812624,0.4320682 0.841928,1.472627 0.05273,1.9472656 L 8.2441406,13.875 c -0.3028757,0.167973 -0.6658742,0.167973 -0.96875,0 L 3.5214844,11.65625 c -5.786e-4,-3.54e-4 5.777e-4,-0.0016 0,-0.002 C 2.7469221,11.179435 2.7702998,10.154192 3.5683594,9.71875 Z"
     id="path4" />
  <path
     style="color:#000000;fill:#000000;-inkscape-stroke:none"
     d="m 12,12 a 1,1 0 0 0 -1,1 v 9 a 1,1 0 0 0 1,1 1,1 0 0 0 1,-1 v -9 a 1,1 0 0 0 -1,-1 z"
     id="line6" />
  <path
     style="color:#000000;fill:#000000;-inkscape-stroke:none"
     d="m 4,12.5 a 1,1 0 0 0 -1,1 v 3.369141 c -0.00118,1.140958 0.6360475,2.19258 1.6484375,2.71875 a 1.0001,1.0001 0 0 0 0.00586,0.002 l 5.9941411,3.078125 c 0.0012,5.99e-4 0.0028,-5.98e-4 0.0039,0 l 0.002,0.002 c 0.844918,0.436783 1.85307,0.436771 2.697266,-0.002 l 5.99414,-3.078125 a 1.0001,1.0001 0 0 0 0.0059,-0.002 C 20.363953,19.061721 21.001181,18.010099 21,16.869141 V 13.5 a 1,1 0 0 0 -1,-1 1,1 0 0 0 -1,1 v 3.369141 a 1.0001,1.0001 0 0 0 0,0.002 c 4.12e-4,0.397896 -0.217253,0.75791 -0.570313,0.941406 l -5.996093,3.078125 a 1.0001,1.0001 0 0 0 -0.0039,0.002 c -0.269756,0.140191 -0.58962,0.140191 -0.859375,0 a 1.0001,1.0001 0 0 0 -0.0039,-0.002 L 5.5703125,17.8125 C 5.2172527,17.629004 4.9995882,17.26899 5,16.871094 a 1.0001,1.0001 0 0 0 0,-0.002 V 13.5 a 1,1 0 0 0 -1,-1 z"
     id="path8" />
</svg>
