<?xml version="1.0" encoding="UTF-8" standalone="no"?>
<svg
   width="24"
   height="24"
   viewBox="0 0 24 24"
   fill="none"
   stroke="currentColor"
   stroke-width="2"
   stroke-linecap="round"
   stroke-linejoin="round"
   version="1.1"
   id="svg8"
   xmlns="http://www.w3.org/2000/svg"
   xmlns:svg="http://www.w3.org/2000/svg">
  <defs
     id="defs12" />
  <path
     style="color:#000000;fill:#000000;-inkscape-stroke:none"
     d="M 20.023437,0.97460938 C 19.216802,0.92716008 18.338885,1.2470522 17.662109,1.9238281 L 14,5.5859375 13.117188,4.703125 a 1.0001,1.0001 0 0 0 -0.002,-0.00195 c -1.161865,-1.1549731 -3.068603,-1.1549731 -4.2304684,0 a 1.0001,1.0001 0 0 0 -0.00195,0.00195 L 7.2929687,6.2929687 a 1.0001,1.0001 0 0 0 0,1.4140625 l 9.0000003,8.9999998 a 1.0001,1.0001 0 0 0 1.414062,0 l 1.589844,-1.589843 a 1.0001,1.0001 0 0 0 0.002,-0.002 c 1.154973,-1.161865 1.154973,-3.068603 0,-4.230468 a 1.0001,1.0001 0 0 0 -0.002,-0.002 L 18.414062,10 22.076172,6.3378906 C 22.752948,5.6611147 23.07284,4.7831976 23.025391,3.9765625 22.977941,3.1699274 22.608306,2.4559624 22.076172,1.9238281 21.544038,1.3916939 20.830073,1.0220587 20.023437,0.97460938 Z m -0.11914,1.99804692 c 0.255863,0.015051 0.539947,0.1473693 0.757812,0.3652343 0.217865,0.217865 0.350184,0.5019489 0.365235,0.7578125 0.01505,0.2558636 -0.04201,0.5049023 -0.365235,0.828125 l -4.36914,4.3691407 a 1.0001,1.0001 0 0 0 0,1.4140622 l 1.589843,1.589844 c 0.393937,0.398334 0.393305,1.010586 -0.002,1.408203 L 17,14.585938 9.4140625,7 10.294922,6.1191406 l 0.002,-0.00195 c 0.397667,-0.3932765 1.008583,-0.3932765 1.40625,0 l 1.589844,1.5898437 a 1.0001,1.0001 0 0 0 1.414062,0 l 4.369141,-4.3691406 c 0.323223,-0.3232227 0.572261,-0.3802852 0.828125,-0.3652343 z"
     id="path2" />
  <path
     style="color:#000000;fill:#000000;-inkscape-stroke:none"
     d="M 9.5546875,7.1679687 A 1,1 0 0 0 8.1679688,7.4453125 C 6.3102014,10.231963 4.8003888,10.519597 1.8359375,11.013672 A 1.0001,1.0001 0 0 0 1.21875,12.625 l 8,10 a 1.0001,1.0001 0 0 0 1.228516,0.269531 c 1.238512,-0.619256 2.728036,-1.90123 4.042968,-3.347656 0.657467,-0.723213 1.254648,-1.481018 1.708985,-2.232422 C 16.653556,16.563049 17,15.833332 17,15 a 1,1 0 0 0 -1,-1 1,1 0 0 0 -1,1 c 0,0.166667 -0.153557,0.686952 -0.511719,1.279297 -0.358162,0.592345 -0.885983,1.272042 -1.478515,1.923828 -0.977597,1.075357 -2.034158,1.857396 -2.851563,2.394531 l -6.4453124,-8.05664 c 2.312421,-0.53885 4.3746973,-1.369663 6.1191407,-3.9863285 A 1,1 0 0 0 9.5546875,7.1679687 Z"
     id="path4" />
  <path
     style="color:#000000;fill:#000000;-inkscape-stroke:none"
     d="m 4.7421875,14.029297 a 1,1 0 0 0 -1.2128906,0.728516 1,1 0 0 0 0.7285156,1.21289 l 10.0000005,2.5 a 1,1 0 0 0 1.21289,-0.728516 1,1 0 0 0 -0.728515,-1.21289 z"
     id="path6" />
</svg>
