<?xml version="1.0" encoding="UTF-8" standalone="no"?>
<svg
   width="24"
   height="24"
   viewBox="0 0 24 24"
   fill="none"
   stroke="currentColor"
   stroke-width="2"
   stroke-linecap="round"
   stroke-linejoin="round"
   version="1.1"
   id="svg10"
   xmlns="http://www.w3.org/2000/svg"
   xmlns:svg="http://www.w3.org/2000/svg">
  <defs
     id="defs14" />
  <path
     style="color:#000000;fill:#000000;-inkscape-stroke:none"
     d="m 5,11 a 1.0001,1.0001 0 0 0 -1,1 v 2 c 0,1.645453 1.3545471,3 3,3 h 2 v 2.900391 c 0,0.916665 0.3797562,1.729488 0.9609375,2.246093 C 10.542119,22.66309 11.277779,22.900391 12,22.900391 c 0.722221,0 1.457881,-0.237301 2.039063,-0.753907 C 14.620244,21.629879 15,20.817056 15,19.900391 V 17 h 2 c 1.645008,0 3,-1.354992 3,-3 v -2 a 1.0001,1.0001 0 0 0 -1,-1 z m 1,2 h 12 v 1 c 0,0.564129 -0.435871,1 -1,1 h -3 a 1.0001,1.0001 0 0 0 -1,1 v 3.900391 c 0,0.416665 -0.120245,0.601892 -0.289062,0.751953 -0.168818,0.15006 -0.43316,0.248047 -0.710938,0.248047 -0.277778,0 -0.54212,-0.09799 -0.710937,-0.248047 C 11.120245,20.502283 11,20.317056 11,19.900391 V 16 A 1.0001,1.0001 0 0 0 10,15 H 7 C 6.4454551,15 6,14.554545 6,14 Z"
     id="path2" />
  <path
     style="color:#000000;fill:#000000;-inkscape-stroke:none"
     d="M 6,1 A 1.0001,1.0001 0 0 0 5,2 v 10 a 1,1 0 0 0 1,1 1,1 0 0 0 1,-1 V 3 h 10 v 9 a 1,1 0 0 0 1,1 1,1 0 0 0 1,-1 V 2 A 1.0001,1.0001 0 0 0 18,1 Z"
     id="path4" />
  <path
     style="color:#000000;fill:#000000;-inkscape-stroke:none"
     d="m 14,1 a 1,1 0 0 0 -1,1 v 4 a 1,1 0 0 0 1,1 1,1 0 0 0 1,-1 V 2 A 1,1 0 0 0 14,1 Z"
     id="path6" />
  <path
     style="color:#000000;fill:#000000;-inkscape-stroke:none"
     d="M 10,1 A 1,1 0 0 0 9,2 v 2 a 1,1 0 0 0 1,1 1,1 0 0 0 1,-1 V 2 A 1,1 0 0 0 10,1 Z"
     id="path8" />
</svg>
