<?xml version="1.0" encoding="UTF-8" standalone="no"?>
<svg
   width="24"
   height="24"
   viewBox="0 0 24 24"
   fill="none"
   stroke="currentColor"
   stroke-width="2"
   stroke-linecap="round"
   stroke-linejoin="round"
   version="1.1"
   id="svg10"
   xmlns="http://www.w3.org/2000/svg"
   xmlns:svg="http://www.w3.org/2000/svg">
  <defs
     id="defs14" />
  <path
     style="color:#000000;fill:#000000;-inkscape-stroke:none"
     d="M 10.292969,2.2929688 1.6933594,10.892578 a 1.0001,1.0001 0 0 0 -0.00781,0.0078 c -1.13564131,1.158585 -1.13564131,3.040633 0,4.199218 a 1.0001,1.0001 0 0 0 0.00781,0.0078 l 5.1992187,5.199219 c 1.1535523,1.153552 3.0612915,1.153552 4.2148439,0 l 8.599609,-8.59961 a 1.0001,1.0001 0 0 0 0,-1.414062 l -8,-8.0000002 a 1.0001,1.0001 0 0 0 -1.414062,0 z M 11,4.4140625 17.585937,11 9.6933594,18.892578 c -0.4464462,0.446446 -0.9402726,0.446446 -1.3867188,0 L 3.1132813,13.699219 c -0.3889287,-0.396787 -0.3889287,-1.001651 0,-1.398438 z"
     id="path2" />
  <path
     style="color:#000000;fill:#000000;-inkscape-stroke:none"
     d="m 5,1 a 1,1 0 0 0 -0.7070313,0.2929687 1,1 0 0 0 0,1.4140626 l 5.0000001,4.9999999 a 1,1 0 0 0 1.4140622,0 1,1 0 0 0 0,-1.4140625 l -4.9999998,-5 A 1,1 0 0 0 5,1 Z"
     id="path4" />
  <path
     style="color:#000000;fill:#000000;-inkscape-stroke:none"
     d="m 2,12 a 1,1 0 0 0 -1,1 1,1 0 0 0 1,1 h 15 a 1,1 0 0 0 1,-1 1,1 0 0 0 -1,-1 z"
     id="path6" />
  <path
     style="color:#000000;fill:#000000;-inkscape-stroke:none"
     d="m 20,15 a 1.0001,1.0001 0 0 0 -0.982422,0.816406 c -0.09251,0.493393 -0.443419,0.951566 -0.921875,1.572266 C 17.617247,18.009372 17,18.845834 17,20 c 0,0.916666 0.379756,1.731441 0.960937,2.248047 C 18.542119,22.764652 19.277779,23 20,23 20.722221,23 21.457881,22.764652 22.039062,22.248047 22.620244,21.731441 23,20.916666 23,20 c 0,-1.154166 -0.617247,-1.990628 -1.095703,-2.611328 -0.478456,-0.6207 -0.829364,-1.078873 -0.921875,-1.572266 A 1.0001,1.0001 0 0 0 20,15 Z m 0,3.171875 c 0.109066,0.142484 0.223703,0.314121 0.320312,0.439453 C 20.766855,19.190627 21,19.554167 21,20 21,20.416666 20.879755,20.601893 20.710937,20.751953 20.54212,20.902013 20.277778,21 20,21 19.722222,21 19.45788,20.902013 19.289062,20.751953 19.120245,20.601893 19,20.416666 19,20 19,19.554167 19.233145,19.190627 19.679687,18.611328 19.776297,18.485996 19.890934,18.314359 20,18.171875 Z"
     id="path8" />
</svg>
