<?xml version="1.0" encoding="UTF-8" standalone="no"?>
<svg
   width="24"
   height="24"
   viewBox="0 0 24 24"
   fill="none"
   stroke="currentColor"
   stroke-width="2"
   stroke-linecap="round"
   stroke-linejoin="round"
   version="1.1"
   id="svg10"
   xmlns="http://www.w3.org/2000/svg"
   xmlns:svg="http://www.w3.org/2000/svg">
  <defs
     id="defs14" />
  <path
     style="color:#000000;fill:#000000;-inkscape-stroke:none"
     d="M 7.5,2 C 3.9687755,2 1,4.6458005 1,8 A 1.0001,1.0001 0 0 0 2,9 H 4 A 1.0001,1.0001 0 0 0 4.7070312,8.7070313 L 5,8.4140625 5.2929687,8.7070313 A 1.0001,1.0001 0 0 0 6,9 h 4 A 1,1 0 0 0 11,8 1,1 0 0 0 10,7 H 6.4140625 L 5.7070312,6.2929687 a 1.0001,1.0001 0 0 0 -1.4140625,0 L 3.5859375,7 H 3.2226563 C 3.7236173,5.3093722 5.3651828,4 7.5,4 10.048769,4 12,5.8342051 12,8 a 1,1 0 0 0 1,1 1,1 0 0 0 1,-1 C 14,4.6458005 11.031225,2 7.5,2 Z"
     id="path2" />
  <path
     style="color:#000000;fill:#000000;-inkscape-stroke:none"
     d="M 16.503906,5 C 15.02977,4.9907013 13.591682,5.4595136 12.40625,6.3359375 A 1,1 0 0 0 12.195313,7.734375 1,1 0 0 0 13.59375,7.9433594 C 14.432484,7.3232594 15.44914,6.9928231 16.492187,7 A 1.0001,1.0001 0 0 0 16.5,7 c 2.134817,0 3.776383,1.3093722 4.277344,3 H 19.414062 L 18.707031,9.2929688 a 1.0001,1.0001 0 0 0 -1.414062,0 L 16.585937,10 H 14 a 1,1 0 0 0 -1,1 1,1 0 0 0 1,1 h 3 a 1.0001,1.0001 0 0 0 0.707031,-0.292969 L 18,11.414063 18.292969,11.707031 A 1.0001,1.0001 0 0 0 19,12 h 3 a 1.0001,1.0001 0 0 0 1,-1 C 23,7.6470641 20.033376,5.0019926 16.503906,5 Z"
     id="path4" />
  <path
     style="color:#000000;fill:#000000;-inkscape-stroke:none"
     d="M 9.6484375,7 C 8.0476697,7.0726948 6.4318063,7.7537406 5.1835937,9.0019531 2.6860724,11.499474 2.4657262,15.467263 4.8320312,17.845703 a 1.0001,1.0001 0 0 0 1.4160157,0 L 10.488281,13.597656 11.1875,12.896484 11.896484,12.1875 14.017578,10.066406 a 1.0001,1.0001 0 0 0 0.002,-1.4121091 C 12.834804,7.4634941 11.249205,6.9273052 9.6484375,7 Z m 0.052734,1.9882813 C 10.434358,8.9512205 11.115785,9.1741826 11.740234,9.515625 l -1.257812,1.257813 -0.7089845,0.708984 -0.7011719,0.701172 -3.375,3.382812 C 4.8543924,14.011547 5.0881298,11.927495 6.5976562,10.417969 7.4994416,9.5161834 8.6169423,9.0430863 9.7011719,8.9882813 Z"
     id="path6" />
  <path
     style="color:#000000;fill:#000000;-inkscape-stroke:none"
     d="m 12.757813,7.0292969 a 1,1 0 0 0 -0.728516,1.2128906 c 0.283289,1.1331557 1.000848,3.1472685 1.421875,5.6132815 0.385641,2.258752 0.410042,4.804077 -0.273438,7.144531 h -1.80664 c 0.596332,-1.694873 1.045911,-3.512632 0.609375,-5.695312 a 1,1 0 0 0 -1.175781,-0.785157 1,1 0 0 0 -0.785157,1.175782 c 0.446194,2.230966 -0.1307993,3.963899 -0.9433591,5.921874 A 1.0001,1.0001 0 0 0 10,23 h 4 a 1.0001,1.0001 0 0 0 0.939453,-0.658203 c 1.088969,-2.994664 0.938348,-6.163284 0.484375,-8.822266 -0.453972,-2.658982 -1.236414,-4.8948762 -1.453125,-5.7617185 a 1,1 0 0 0 -1.21289,-0.7285156 z"
     id="path8" />
</svg>
