<?xml version="1.0" encoding="UTF-8" standalone="no"?>
<svg
   width="24"
   height="24"
   viewBox="0 0 24 24"
   fill="none"
   stroke="currentColor"
   stroke-width="2"
   stroke-linecap="round"
   stroke-linejoin="round"
   version="1.1"
   id="svg4"
   xmlns="http://www.w3.org/2000/svg"
   xmlns:svg="http://www.w3.org/2000/svg">
  <defs
     id="defs8" />
  <path
     style="color:#000000;fill:#000000;-inkscape-stroke:none"
     d="M 15.396484,0.93945313 C 14.117856,0.86537182 12.742999,1.3507251 11.623047,2.4726563 L 3.0527344,11.042969 c -1.5917746,1.591774 -2.25307446,3.496569 -2.14843752,5.27539 0.10463692,1.778822 0.93005392,3.410523 2.14843752,4.628907 1.2183835,1.218383 2.8500848,2.0438 4.6289062,2.148437 1.7788215,0.104637 3.6836164,-0.556663 5.2753904,-2.148437 l 9.189453,-9.189453 a 1,1 0 0 0 0,-1.414063 1,1 0 0 0 -1.414062,0 l -9.189453,9.189453 C 10.304747,20.771425 9.0268781,21.171848 7.7988281,21.099609 6.5707782,21.027371 5.3709112,20.437317 4.4667969,19.533203 3.5626826,18.629089 2.9726291,17.429222 2.9003906,16.201172 2.8281521,14.973122 3.2285755,13.695253 4.4667969,12.457031 L 13.037109,3.8867188 c 0.766712,-0.7680661 1.516313,-0.9933409 2.244141,-0.9511719 0.727828,0.042169 1.456336,0.3967622 2.007812,0.9472656 0.551477,0.5505034 0.905766,1.2781069 0.949219,2.0058594 0.04345,0.7277524 -0.178601,1.4760745 -0.945312,2.2441406 L 8.703125,16.701172 a 1.0001,1.0001 0 0 0 0,0.002 C 8.4082356,16.998014 8.1906032,17.04453 7.9648437,17.03125 7.7390843,17.01797 7.4837244,16.89974 7.2871094,16.703125 7.0904943,16.50651 6.9722644,16.25115 6.9589844,16.025391 6.9457044,15.799631 6.99222,15.581999 7.2871094,15.287109 L 15.777344,6.8066406 a 1,1 0 0 0 0,-1.4140625 1,1 0 0 0 -1.414063,0 L 5.8730469,13.873047 c -0.6484426,0.648442 -0.9558347,1.493 -0.9101563,2.269531 0.045679,0.776531 0.399272,1.463725 0.9101563,1.974609 0.5108842,0.510885 1.1980784,0.864478 1.9746093,0.910157 0.776531,0.04568 1.6210887,-0.261714 2.2695318,-0.910157 l 8.589843,-8.5683589 a 1.0001,1.0001 0 0 0 0,-0.00195 C 19.826984,8.4249438 20.310713,7.0480264 20.234375,5.7695312 20.158037,4.4910361 19.567194,3.331292 18.701172,2.4667969 17.835149,1.6023017 16.675112,1.0135344 15.396484,0.93945313 Z"
     id="path2" />
</svg>
