<?xml version="1.0" encoding="UTF-8" standalone="no"?>
<svg
   width="24"
   height="24"
   viewBox="0 0 24 24"
   fill="none"
   stroke="currentColor"
   stroke-width="2"
   stroke-linecap="round"
   stroke-linejoin="round"
   version="1.1"
   id="svg6"
   xmlns="http://www.w3.org/2000/svg"
   xmlns:svg="http://www.w3.org/2000/svg">
  <defs
     id="defs10" />
  <path
     style="color:#000000;fill:#000000;-inkscape-stroke:none"
     d="M 8.140625,2.0097656 A 1,1 0 0 0 7.4003906,2.1992188 C 7.4003906,2.1992188 3,5.555562 3,12 c 0,6.444438 4.4003906,9.800781 4.4003906,9.800781 A 1,1 0 0 0 8.8007813,21.599609 1,1 0 0 0 8.5996094,20.199219 C 8.5996094,20.199219 5,17.55555 5,12 5,6.44445 8.5996094,3.8007813 8.5996094,3.8007813 A 1,1 0 0 0 8.8007813,2.4003906 1,1 0 0 0 8.140625,2.0097656 Z"
     id="path2" />
  <path
     style="color:#000000;fill:#000000;-inkscape-stroke:none"
     d="m 15.859375,2.0097656 a 1,1 0 0 0 -0.660156,0.390625 1,1 0 0 0 0.201172,1.4003907 C 15.400391,3.8007813 19,6.44445 19,12 c 0,5.55555 -3.599609,8.199219 -3.599609,8.199219 a 1,1 0 0 0 -0.201172,1.40039 1,1 0 0 0 1.40039,0.201172 C 16.599609,21.800781 21,18.444438 21,12 21,5.555562 16.599609,2.1992187 16.599609,2.1992188 A 1,1 0 0 0 15.859375,2.0097656 Z"
     id="path4" />
</svg>
