<?xml version="1.0" encoding="UTF-8" standalone="no"?>
<svg
   width="24"
   height="24"
   viewBox="0 0 24 24"
   fill="none"
   stroke="currentColor"
   stroke-width="2"
   stroke-linecap="round"
   stroke-linejoin="round"
   version="1.1"
   id="svg6"
   xmlns="http://www.w3.org/2000/svg"
   xmlns:svg="http://www.w3.org/2000/svg">
  <defs
     id="defs10" />
  <path
     style="color:#000000;fill:#000000;-inkscape-stroke:none"
     d="M 12,1 C 5.9367185,1 1,5.9367185 1,12 1,18.063282 5.9367185,23 12,23 18.063282,23 23,18.063282 23,12 23,5.9367185 18.063282,1 12,1 Z m 0,2 c 4.982402,0 9,4.0175976 9,9 0,4.982402 -4.017598,9 -9,9 C 7.0175976,21 3,16.982402 3,12 3,7.0175976 7.0175976,3 12,3 Z"
     id="circle2" />
  <path
     style="color:#000000;fill:#000000;-inkscape-stroke:none"
     d="M 9,6 A 1.0001,1.0001 0 0 0 8,7 v 6 4 a 1,1 0 0 0 1,1 1,1 0 0 0 1,-1 v -3 h 3 c 1.249998,0 2.314775,-0.504756 2.998047,-1.273437 C 16.681319,11.957881 17,10.972221 17,10 17,9.0277788 16.681319,8.0421186 15.998047,7.2734375 15.314775,6.5047564 14.249998,6 13,6 Z m 1,2 h 3 c 0.749999,0 1.185226,0.2452448 1.501953,0.6015625 C 14.81868,8.9578802 15,9.4722227 15,10 15,10.527777 14.81868,11.04212 14.501953,11.398438 14.185226,11.754755 13.749999,12 13,12 h -3 z"
     id="path4" />
</svg>
