<?xml version="1.0" encoding="UTF-8" standalone="no"?>
<svg
   width="24"
   height="24"
   viewBox="0 0 24 24"
   fill="none"
   stroke="currentColor"
   stroke-width="2"
   stroke-linecap="round"
   stroke-linejoin="round"
   version="1.1"
   id="svg6"
   xmlns="http://www.w3.org/2000/svg"
   xmlns:svg="http://www.w3.org/2000/svg">
  <defs
     id="defs10" />
  <path
     style="color:#000000;fill:#000000;-inkscape-stroke:none"
     d="M 5,2 C 3.3552989,2 2,3.3552989 2,5 v 14 c 0,1.644701 1.3552989,3 3,3 h 14 c 1.644701,0 3,-1.355299 3,-3 V 5 C 22,3.3552989 20.644701,2 19,2 Z m 0,2 h 14 c 0.571297,0 1,0.4287033 1,1 v 14 c 0,0.571297 -0.428703,1 -1,1 H 5 C 4.4287033,20 4,19.571297 4,19 V 5 C 4,4.4287033 4.4287033,4 5,4 Z"
     id="rect2" />
  <path
     style="color:#000000;fill:#000000;-inkscape-stroke:none"
     d="M 9,6 A 1.0001,1.0001 0 0 0 8,7 v 6 4 a 1,1 0 0 0 1,1 1,1 0 0 0 1,-1 v -3 h 3 c 1.249998,0 2.314775,-0.504756 2.998047,-1.273437 C 16.681319,11.957881 17,10.972221 17,10 17,9.0277788 16.681319,8.0421186 15.998047,7.2734375 15.314775,6.5047564 14.249998,6 13,6 Z m 1,2 h 3 c 0.749999,0 1.185226,0.2452448 1.501953,0.6015625 C 14.81868,8.9578802 15,9.4722227 15,10 15,10.527777 14.81868,11.04212 14.501953,11.398438 14.185226,11.754755 13.749999,12 13,12 h -3 z"
     id="path4" />
</svg>
