<?xml version="1.0" encoding="UTF-8" standalone="no"?>
<svg
   width="24"
   height="24"
   viewBox="0 0 24 24"
   fill="none"
   stroke="currentColor"
   stroke-width="2"
   stroke-linecap="round"
   stroke-linejoin="round"
   version="1.1"
   id="svg12"
   xmlns="http://www.w3.org/2000/svg"
   xmlns:svg="http://www.w3.org/2000/svg">
  <defs
     id="defs16" />
  <path
     style="color:#000000;fill:#000000;-inkscape-stroke:none"
     d="M 4.9863281,2 C 4.1953954,2.0112658 3.4403476,2.3354157 2.8867188,2.9003906 a 1,1 0 0 0 0.013672,1.4140625 1,1 0 0 0 1.4140625,-0.013672 C 4.4993454,4.1120998 4.7495286,4.0037624 5.0136719,4 H 19 c 0.564129,0 1,0.4358712 1,1 v 13.996094 c -0.0011,0.265169 -0.106858,0.518134 -0.294922,0.705078 a 1,1 0 0 0 -0.0039,1.414062 1,1 0 0 0 1.414062,0.0039 C 21.678345,20.559384 21.996652,19.79789 22,19.003906 A 1.0001,1.0001 0 0 0 22,19 V 5 C 22,3.354992 20.645008,2 19,2 H 5 a 1.0001,1.0001 0 0 0 -0.013672,0 z"
     id="path2" />
  <path
     style="color:#000000;fill:#000000;-inkscape-stroke:none"
     d="M 3,7.6992187 A 1,1 0 0 0 2,8.6992188 V 19 c 0,1.645008 1.354992,3 3,3 h 10.300781 a 1,1 0 0 0 1,-1 1,1 0 0 0 -1,-1 H 5 C 4.4358712,20 4,19.564129 4,19 V 8.6992188 A 1,1 0 0 0 3,7.6992187 Z"
     id="path4" />
  <path
     style="color:#000000;fill:#000000;-inkscape-stroke:none"
     d="m 2,1 a 1,1 0 0 0 -0.7070313,0.2929687 1,1 0 0 0 0,1.4140626 L 21.292969,22.707031 a 1,1 0 0 0 1.414062,0 1,1 0 0 0 0,-1.414062 L 2.7070313,1.2929687 A 1,1 0 0 0 2,1 Z"
     id="path6" />
  <path
     style="color:#000000;fill:#000000;-inkscape-stroke:none"
     d="M 9,6 A 1.0001,1.0001 0 0 0 8,7 v 2 a 1,1 0 0 0 1,1 1,1 0 0 0 1,-1 V 8 h 3 c 0.749999,0 1.185226,0.2452448 1.501953,0.6015625 C 14.81868,8.9578802 15,9.4722227 15,10 15,10.527777 14.81868,11.04212 14.501953,11.398438 14.185226,11.754755 13.749999,12 13,12 a 1,1 0 0 0 -1,1 1,1 0 0 0 1,1 c 1.249998,0 2.314775,-0.504756 2.998047,-1.273437 C 16.681319,11.957881 17,10.972221 17,10 17,9.0277788 16.681319,8.0421186 15.998047,7.2734375 15.314775,6.5047564 14.249998,6 13,6 Z"
     id="path8" />
  <path
     style="color:#000000;fill:#000000;-inkscape-stroke:none"
     d="m 9,13.699219 a 1,1 0 0 0 -1,1 V 17 a 1,1 0 0 0 1,1 1,1 0 0 0 1,-1 v -2.300781 a 1,1 0 0 0 -1,-1 z"
     id="path10" />
</svg>
