<?xml version="1.0" encoding="UTF-8" standalone="no"?>
<svg
   width="24"
   height="24"
   viewBox="0 0 24 24"
   fill="none"
   stroke="currentColor"
   stroke-width="2"
   stroke-linecap="round"
   stroke-linejoin="round"
   version="1.1"
   id="svg20"
   xmlns="http://www.w3.org/2000/svg"
   xmlns:svg="http://www.w3.org/2000/svg">
  <defs
     id="defs24" />
  <path
     style="color:#000000;fill:#000000;-inkscape-stroke:none"
     d="M 6.1347656,10.357422 A 1,1 0 0 0 4.8574219,10.964844 L 1.0585937,21.666016 a 1.0001,1.0001 0 0 0 1.2753907,1.277343 L 13.033203,19.152344 a 1,1 0 0 0 0.609375,-1.275391 1,1 0 0 0 -1.277344,-0.609375 L 3.6445313,20.355469 6.7421875,11.634766 A 1,1 0 0 0 6.1347656,10.357422 Z"
     id="path2" />
  <path
     style="color:#000000;fill:#000000;-inkscape-stroke:none"
     d="M 4,2 A 1,1 0 0 0 3,3 1,1 0 0 0 4,4 h 0.00977 a 1,1 0 0 0 1,-1 1,1 0 0 0 -1,-1 z"
     id="path4" />
  <path
     style="color:#000000;fill:#000000;-inkscape-stroke:none"
     d="m 22,7 a 1,1 0 0 0 -1,1 1,1 0 0 0 1,1 h 0.0098 a 1,1 0 0 0 1,-1 1,1 0 0 0 -1,-1 z"
     id="path6" />
  <path
     style="color:#000000;fill:#000000;-inkscape-stroke:none"
     d="m 15,1 a 1,1 0 0 0 -1,1 1,1 0 0 0 1,1 h 0.0098 a 1,1 0 0 0 1,-1 1,1 0 0 0 -1,-1 z"
     id="path8" />
  <path
     style="color:#000000;fill:#000000;-inkscape-stroke:none"
     d="m 22,19 a 1,1 0 0 0 -1,1 1,1 0 0 0 1,1 h 0.0098 a 1,1 0 0 0 1,-1 1,1 0 0 0 -1,-1 z"
     id="path10" />
  <path
     style="color:#000000;fill:#000000;-inkscape-stroke:none"
     d="m 21.681641,1.0507812 -2.238282,0.75 c -1.762511,0.5870881 -2.870903,2.354616 -2.634765,4.1972657 l -0.002,-0.011719 C 16.839542,6.2692837 16.646276,6.5 16.349609,6.5 h -0.378906 c -1.325115,0 -2.492521,0.9412058 -2.742187,2.2519531 l -0.208985,1.0527344 a 1,1 0 0 0 0.785157,1.1757815 1,1 0 0 0 1.175781,-0.785156 l 0.210937,-1.0605474 a 1.0001,1.0001 0 0 0 0,-0.00781 C 15.26174,8.7577022 15.57582,8.5 15.970703,8.5 h 0.378906 c 1.463332,0 2.610458,-1.3090511 2.44336,-2.7460938 a 1.0001,1.0001 0 0 0 -0.002,-0.011719 c -0.116213,-0.90684 0.417755,-1.7540398 1.285156,-2.0429687 a 1.0001,1.0001 0 0 0 0.002,0 l 2.240234,-0.75 a 1,1 0 0 0 0.63086,-1.2675782 1,1 0 0 0 -1.267578,-0.6308594 z"
     id="path12" />
  <path
     style="color:#000000;fill:#000000;-inkscape-stroke:none"
     d="m 20.458984,11.580078 c -1.076385,0.09017 -2.044301,0.890759 -2.24414,2.027344 a 1.0001,1.0001 0 0 0 -0.002,0.01758 C 18.179113,13.839948 17.991268,14 17.769531,14 H 17 a 1,1 0 0 0 -1,1 1,1 0 0 0 1,1 h 0.769531 c 1.198262,0 2.231747,-0.879402 2.417969,-2.064453 l -0.002,0.01758 c 0.05355,-0.304551 0.340241,-0.466867 0.626953,-0.353516 l 0.814453,0.328125 a 1,1 0 0 0 1.300781,-0.554687 1,1 0 0 0 -0.554687,-1.300781 l -0.820313,-0.330078 a 1.0001,1.0001 0 0 0 -0.0059,-0.002 c -0.358321,-0.141662 -0.729096,-0.190212 -1.087891,-0.160156 z"
     id="path14" />
  <path
     style="color:#000000;fill:#000000;-inkscape-stroke:none"
     d="M 10.626953,1.0722656 A 1,1 0 0 0 10.072266,2.3730469 L 10.400391,3.1875 c 0.113351,0.2867124 -0.04897,0.5734057 -0.353516,0.6269531 l 0.03125,-0.00391 C 8.8739119,3.9825773 8,5.032207 8,6.2304687 V 7 A 1,1 0 0 0 9,8 1,1 0 0 0 10,7 V 6.2304687 c 0,-0.2217368 0.165543,-0.4134368 0.361328,-0.4414062 a 1.0001,1.0001 0 0 0 0.03125,-0.00391 C 11.908025,5.518704 12.826414,3.8864109 12.259766,2.453125 a 1.0001,1.0001 0 0 0 -0.002,-0.00586 L 11.927734,1.6269531 A 1,1 0 0 0 10.626953,1.0722656 Z"
     id="path16" />
  <path
     style="color:#000000;fill:#000000;-inkscape-stroke:none"
     d="m 6.8535156,9.6914063 c -0.5391183,0.0033 -1.1301241,0.1711397 -1.5605469,0.6015627 -0.4304227,0.430423 -0.5982579,1.021428 -0.6015625,1.560547 -0.0033,0.539118 0.1302367,1.067545 0.3457032,1.605468 0.430933,1.075847 1.2090363,2.201224 2.2558593,3.248047 1.0468231,1.046823 2.1722003,1.824927 3.2480473,2.25586 0.537923,0.215466 1.06635,0.349007 1.605468,0.345703 0.539119,-0.0033 1.130124,-0.17114 1.560547,-0.601563 0.430423,-0.430423 0.598258,-1.021428 0.601563,-1.560547 0.0033,-0.539118 -0.130237,-1.067545 -0.345703,-1.605468 -0.430933,-1.075847 -1.209037,-2.201224 -2.25586,-3.248047 -1.046823,-1.046823 -2.1722,-1.824927 -3.2480466,-2.25586 C 7.9210611,9.8216429 7.392634,9.6881017 6.8535156,9.6914063 Z m 0.011719,1.9999997 c 0.1746309,-0.0011 0.4825336,0.05414 0.8496093,0.201172 0.7341516,0.294066 1.69495,0.931278 2.5781253,1.814453 0.883175,0.883175 1.520387,1.843974 1.814453,2.578125 0.147033,0.367076 0.202242,0.674979 0.201172,0.84961 -0.0011,0.174631 -0.03105,0.173626 -0.01563,0.158203 0.01542,-0.01542 0.01643,0.01455 -0.158203,0.01563 -0.174631,0.0011 -0.482534,-0.05414 -0.84961,-0.201172 C 10.551005,16.813356 9.5902063,16.176144 8.7070313,15.292969 7.8238562,14.409794 7.1866444,13.448995 6.8925781,12.714844 6.745545,12.347768 6.6903358,12.039865 6.6914062,11.865234 c 0.00107,-0.174631 0.031048,-0.173626 0.015625,-0.158203 -0.015423,0.01542 -0.016428,-0.01455 0.1582032,-0.01563 z"
     id="path18" />
</svg>
