<?xml version="1.0" encoding="UTF-8" standalone="no"?>
<svg
   width="24"
   height="24"
   viewBox="0 0 24 24"
   fill="none"
   stroke="currentColor"
   stroke-width="2"
   stroke-linecap="round"
   stroke-linejoin="round"
   version="1.1"
   id="svg10"
   xmlns="http://www.w3.org/2000/svg"
   xmlns:svg="http://www.w3.org/2000/svg">
  <defs
     id="defs14" />
  <path
     style="color:#000000;fill:#000000;-inkscape-stroke:none"
     d="M 7,1 C 5.3552989,1 4,2.3552989 4,4 v 16 c 0,1.644701 1.3552989,3 3,3 h 10 c 1.644701,0 3,-1.355299 3,-3 V 4 C 20,2.3552989 18.644701,1 17,1 Z m 0,2 h 10 c 0.571297,0 1,0.4287033 1,1 v 16 c 0,0.571297 -0.428703,1 -1,1 H 7 C 6.4287033,21 6,20.571297 6,20 V 4 C 6,3.4287033 6.4287033,3 7,3 Z"
     id="rect2" />
  <path
     style="color:#000000;fill:#000000;-inkscape-stroke:none"
     d="m 15,13 a 1,1 0 0 0 -1,1 1,1 0 0 0 1,1 h 0.0098 a 1,1 0 0 0 1,-1 1,1 0 0 0 -1,-1 z"
     id="path4" />
  <path
     style="color:#000000;fill:#000000;-inkscape-stroke:none"
     d="M 9,5 A 1,1 0 0 0 8,6 1,1 0 0 0 9,7 h 6 A 1,1 0 0 0 16,6 1,1 0 0 0 15,5 Z"
     id="path6" />
  <path
     style="color:#000000;fill:#000000;-inkscape-stroke:none"
     d="m 9,9 a 1,1 0 0 0 -1,1 1,1 0 0 0 1,1 h 6 a 1,1 0 0 0 1,-1 1,1 0 0 0 -1,-1 z"
     id="path8" />
</svg>
