<?xml version="1.0" encoding="UTF-8" standalone="no"?>
<svg
   width="24"
   height="24"
   viewBox="0 0 24 24"
   fill="none"
   stroke="currentColor"
   stroke-width="2"
   stroke-linecap="round"
   stroke-linejoin="round"
   version="1.1"
   id="svg10"
   xmlns="http://www.w3.org/2000/svg"
   xmlns:svg="http://www.w3.org/2000/svg">
  <defs
     id="defs14" />
  <path
     style="color:#000000;fill:#000000;-inkscape-stroke:none"
     d="m 18.292969,11.292969 -7,7 a 1.0001,1.0001 0 0 0 0,1.414062 l 3,3 a 1.0001,1.0001 0 0 0 1.414062,0 l 7,-7 a 1.0001,1.0001 0 0 0 0,-1.414062 l -3,-3 a 1.0001,1.0001 0 0 0 -1.414062,0 z M 19,13.414063 20.585937,15 15,20.585937 13.414063,19 Z"
     id="path2" />
  <path
     style="color:#000000;fill:#000000;-inkscape-stroke:none"
     d="M 2.234375,1.0273437 A 1.0001,1.0001 0 0 0 1.0273437,2.234375 l 3.5,14.5 a 1.0001,1.0001 0 0 0 0.7773438,0.746094 l 7.5000005,1.5 a 1.0001,1.0001 0 0 0 0.902343,-0.273438 l 5,-5 a 1.0001,1.0001 0 0 0 0.273438,-0.902343 l -1.5,-7.5000005 A 1.0001,1.0001 0 0 0 16.734375,4.5273437 Z m 1.1230469,2.3300782 12.2871091,2.9648437 1.269531,6.3496094 -4.242187,4.242187 -6.3496094,-1.269531 z"
     id="path4" />
  <path
     style="color:#000000;fill:#000000;-inkscape-stroke:none"
     d="m 2,1 a 1,1 0 0 0 -0.7070313,0.2929687 1,1 0 0 0 0,1.4140626 l 7.5859376,7.5859377 a 1,1 0 0 0 1.4140627,0 1,1 0 0 0 0,-1.4140627 L 2.7070313,1.2929687 A 1,1 0 0 0 2,1 Z"
     id="path6" />
  <path
     style="color:#000000;fill:#000000;-inkscape-stroke:none"
     d="m 11,8 c -1.645008,0 -3,1.354992 -3,3 0,1.645008 1.354992,3 3,3 1.645008,0 3,-1.354992 3,-3 0,-1.645008 -1.354992,-3 -3,-3 z m 0,2 c 0.564129,0 1,0.435871 1,1 0,0.564129 -0.435871,1 -1,1 -0.564129,0 -1,-0.435871 -1,-1 0,-0.564129 0.435871,-1 1,-1 z"
     id="circle8" />
</svg>
