<?xml version="1.0" encoding="UTF-8" standalone="no"?>
<svg
   width="24"
   height="24"
   viewBox="0 0 24 24"
   fill="none"
   stroke="currentColor"
   stroke-width="2"
   stroke-linecap="round"
   stroke-linejoin="round"
   version="1.1"
   id="svg6"
   xmlns="http://www.w3.org/2000/svg"
   xmlns:svg="http://www.w3.org/2000/svg">
  <defs
     id="defs10" />
  <path
     style="color:#000000;fill:#000000;-inkscape-stroke:none"
     d="m 17.292969,1.2929687 a 1,1 0 0 0 0,1.4140626 l 4,3.9999999 a 1,1 0 0 0 1.414062,0 1,1 0 0 0 0,-1.4140625 l -4,-4 a 1,1 0 0 0 -1.414062,0 z"
     id="line2" />
  <path
     style="color:#000000;fill:#000000;-inkscape-stroke:none"
     d="M 14.292969,4.2929687 2.7929688,15.792969 a 1.0001,1.0001 0 0 0 -0.2578125,0.443359 l -1.5000001,5.5 a 1.0001,1.0001 0 0 0 1.2285157,1.228516 l 5.5,-1.5 A 1.0001,1.0001 0 0 0 8.2070313,21.207031 L 19.707031,9.7070313 a 1.0001,1.0001 0 0 0 0,-1.4140625 l -4,-4.0000001 a 1.0001,1.0001 0 0 0 -1.414062,0 z M 15,6.4140625 17.585937,9 6.9804687,19.605469 3.4257813,20.574219 4.3945312,17.019531 Z"
     id="path4" />
</svg>
