<?xml version="1.0" encoding="UTF-8" standalone="no"?>
<svg
   width="24"
   height="24"
   viewBox="0 0 24 24"
   fill="none"
   stroke="currentColor"
   stroke-width="2"
   stroke-linecap="round"
   stroke-linejoin="round"
   version="1.1"
   id="svg8"
   xmlns="http://www.w3.org/2000/svg"
   xmlns:svg="http://www.w3.org/2000/svg">
  <defs
     id="defs12" />
  <path
     style="color:#000000;fill:#000000;-inkscape-stroke:none"
     d="M 18.292969,4.2929687 4.2929687,18.292969 a 1,1 0 0 0 0,1.414062 1,1 0 0 0 1.4140625,0 L 19.707031,5.7070312 a 1,1 0 0 0 0,-1.4140625 1,1 0 0 0 -1.414062,0 z"
     id="line2" />
  <path
     style="color:#000000;fill:#000000;-inkscape-stroke:none"
     d="M 6.5,3 C 4.5788499,3 3,4.5788499 3,6.5 3,8.4211501 4.5788499,10 6.5,10 8.4211501,10 10,8.4211501 10,6.5 10,4.5788499 8.4211501,3 6.5,3 Z m 0,2 C 7.3402709,5 8,5.6597291 8,6.5 8,7.3402709 7.3402709,8 6.5,8 5.6597291,8 5,7.3402709 5,6.5 5,5.6597291 5.6597291,5 6.5,5 Z"
     id="circle4" />
  <path
     style="color:#000000;fill:#000000;-inkscape-stroke:none"
     d="M 17.5,14 C 15.57885,14 14,15.57885 14,17.5 14,19.42115 15.57885,21 17.5,21 19.42115,21 21,19.42115 21,17.5 21,15.57885 19.42115,14 17.5,14 Z m 0,2 C 18.340271,16 19,16.659729 19,17.5 19,18.340271 18.340271,19 17.5,19 16.659729,19 16,18.340271 16,17.5 16,16.659729 16.659729,16 17.5,16 Z"
     id="circle6" />
</svg>
