<?xml version="1.0" encoding="UTF-8" standalone="no"?>
<svg
   width="24"
   height="24"
   viewBox="0 0 24 24"
   fill="none"
   stroke="currentColor"
   stroke-width="2"
   stroke-linecap="round"
   stroke-linejoin="round"
   version="1.1"
   id="svg10"
   xmlns="http://www.w3.org/2000/svg"
   xmlns:svg="http://www.w3.org/2000/svg">
  <defs
     id="defs14" />
  <path
     style="color:#000000;fill:#000000;-inkscape-stroke:none"
     d="m 12,3 c -1.092724,0 -2,0.9072762 -2,2 0,1.0927238 0.907276,2 2,2 1.092724,0 2,-0.9072762 2,-2 0,-1.0927238 -0.907276,-2 -2,-2 z"
     id="circle2" />
  <path
     style="color:#000000;fill:#000000;-inkscape-stroke:none"
     d="m 12,13 a 1.0001,1.0001 0 0 0 -0.894531,0.552734 l -3.0000002,6 a 1,1 0 0 0 0.4472656,1.341797 1,1 0 0 0 1.3417969,-0.447265 L 12,16.236328 l 2.105469,4.210938 a 1,1 0 0 0 1.341797,0.447265 1,1 0 0 0 0.447265,-1.341797 l -3,-6 A 1.0001,1.0001 0 0 0 12,13 Z"
     id="path4" />
  <path
     style="color:#000000;fill:#000000;-inkscape-stroke:none"
     d="m 6.3164062,7.0507812 a 1,1 0 0 0 -1.265625,0.6328125 1,1 0 0 0 0.6328125,1.2656251 l 6.0000003,2.0000002 a 1.0001,1.0001 0 0 0 0.632812,0 l 6,-2.0000002 A 1,1 0 0 0 18.949219,7.6835937 1,1 0 0 0 17.683594,7.0507812 L 12,8.9453125 Z"
     id="path6" />
  <path
     style="color:#000000;fill:#000000;-inkscape-stroke:none"
     d="m 12,9 a 1,1 0 0 0 -1,1 v 4 a 1,1 0 0 0 1,1 1,1 0 0 0 1,-1 V 10 A 1,1 0 0 0 12,9 Z"
     id="path8" />
</svg>
