<?xml version="1.0" encoding="UTF-8" standalone="no"?>
<svg
   width="24"
   height="24"
   viewBox="0 0 24 24"
   fill="none"
   stroke="currentColor"
   stroke-width="2"
   stroke-linecap="round"
   stroke-linejoin="round"
   version="1.1"
   id="svg8"
   xmlns="http://www.w3.org/2000/svg"
   xmlns:svg="http://www.w3.org/2000/svg">
  <defs
     id="defs12" />
  <path
     style="color:#000000;fill:#000000;-inkscape-stroke:none"
     d="m 16,1 a 1,1 0 0 0 -1,1 v 6 a 1.0001,1.0001 0 0 0 1,1 h 6 A 1,1 0 0 0 23,8 1,1 0 0 0 22,7 H 17 V 2 A 1,1 0 0 0 16,1 Z"
     id="polyline2" />
  <path
     style="color:#000000;fill:#000000;-inkscape-stroke:none"
     d="m 21.292969,1.2929687 -6,6 a 1,1 0 0 0 0,1.4140626 1,1 0 0 0 1.414062,0 l 6,-6 a 1,1 0 0 0 0,-1.4140626 1,1 0 0 0 -1.414062,0 z"
     id="line4" />
  <path
     style="color:#000000;fill:#000000;-inkscape-stroke:none"
     d="M 4.109375,1 C 2.3625733,1.001645 0.967787,2.5298178 1.125,4.2695312 a 1.0001,1.0001 0 0 0 0,0.015625 c 0.3447638,3.2465672 1.4517216,6.3671858 3.2265625,9.1074218 3.196e-4,4.94e-4 -3.196e-4,0.0015 0,0.002 1.613475,2.536455 3.7654396,4.686526 6.3027345,6.298828 2.726419,1.766436 5.828883,2.869769 9.058594,3.220703 a 1.0001,1.0001 0 0 0 0.01758,0.002 c 1.745442,0.157744 3.276645,-1.247459 3.269531,-3 v -2.970704 c 0.03758,-1.514666 -1.079801,-2.833269 -2.580078,-3.044921 a 1.0001,1.0001 0 0 0 -0.0098,-0.002 c -0.884666,-0.116679 -1.751825,-0.332706 -2.58789,-0.644532 h -0.002 c -1.093569,-0.410228 -2.333483,-0.145554 -3.164062,0.675782 a 1.0001,1.0001 0 0 0 -0.0039,0.0039 l -0.658203,0.658203 C 12.142869,13.413495 10.586505,11.857131 9.4082031,10.005859 L 10.066406,9.3476563 a 1.0001,1.0001 0 0 0 0.0039,-0.00391 c 0.821335,-0.8305789 1.086009,-2.0704933 0.675781,-3.1640625 v -0.00195 C 10.434268,5.3416691 10.218241,4.4745098 10.101563,3.5898438 a 1.0001,1.0001 0 0 0 -0.002,-0.00977 C 9.8899434,2.0966895 8.5976695,0.9852559 7.0996094,1 Z m 0,2 h 3 a 1.0001,1.0001 0 0 0 0.00977,0 c 0.509666,-0.00502 0.928668,0.3547006 1,0.859375 v -0.00781 C 8.255625,4.8863987 8.5081301,5.9009749 8.8730469,6.8789062 a 1.0001,1.0001 0 0 0 0,0.00391 C 9.0112708,7.2505282 8.9246564,7.6581725 8.6484375,7.9375 l -1.265625,1.265625 a 1.0001,1.0001 0 0 0 -0.1621094,1.201172 c 1.5124977,2.659965 3.7150349,4.862502 6.3749999,6.375 a 1.0001,1.0001 0 0 0 1.201172,-0.16211 L 16.0625,15.351563 c 0.279327,-0.276219 0.686972,-0.362834 1.054687,-0.22461 a 1.0001,1.0001 0 0 0 0.0039,0 c 0.977931,0.364917 1.992507,0.617422 3.027343,0.753906 h -0.0078 c 0.510846,0.07207 0.872172,0.497926 0.859375,1.013672 a 1.0001,1.0001 0 0 0 0,0.02539 v 3 a 1.0001,1.0001 0 0 0 0,0.0039 c 0.0024,0.603575 -0.48541,1.049703 -1.085938,0.998047 -2.916589,-0.319156 -5.717893,-1.313692 -8.179687,-2.910156 a 1.0001,1.0001 0 0 0 -0.0078,-0.0059 C 9.4342814,16.549249 7.4898139,14.606734 6.0332031,12.314453 a 1.0001,1.0001 0 0 0 -0.00391,-0.0078 C 4.4264753,9.8324512 3.4300479,7.0152324 3.1171875,4.0839844 3.0669818,3.487274 3.509723,3.0016406 4.109375,3 Z"
     id="path6" />
</svg>
