<?xml version="1.0" encoding="UTF-8" standalone="no"?>
<svg
   width="24"
   height="24"
   viewBox="0 0 24 24"
   fill="none"
   stroke="currentColor"
   stroke-width="2"
   stroke-linecap="round"
   stroke-linejoin="round"
   version="1.1"
   id="svg6"
   xmlns="http://www.w3.org/2000/svg"
   xmlns:svg="http://www.w3.org/2000/svg">
  <defs
     id="defs10" />
  <path
     style="color:#000000;fill:#000000;-inkscape-stroke:none"
     d="M 4.109375,1 C 2.3625733,1.001645 0.967787,2.5298178 1.125,4.2695312 a 1.0001,1.0001 0 0 0 0,0.017578 C 1.4762511,7.5197346 2.5823346,10.625316 4.3515625,13.353516 A 1,1 0 0 0 5.734375,13.648438 1,1 0 0 0 6.0292969,12.265625 C 4.4328319,9.8038303 3.4363437,7.002527 3.1171875,4.0859375 3.0657833,3.4882821 3.5090323,3.0016425 4.109375,3 h 3 a 1.0001,1.0001 0 0 0 0.00977,0 c 0.509666,-0.00502 0.928668,0.3547006 1,0.859375 v -0.00781 C 8.255625,4.8863987 8.5081301,5.9009749 8.8730469,6.8789062 a 1.0001,1.0001 0 0 0 0,0.00391 C 9.0112708,7.2505282 8.9246564,7.6581725 8.6484375,7.9375 l -1.265625,1.265625 a 1,1 0 0 0 0,1.414063 1,1 0 0 0 1.4140625,0 l 1.269531,-1.2695317 a 1.0001,1.0001 0 0 0 0.0039,-0.00391 c 0.821335,-0.8305789 1.086009,-2.0704933 0.675781,-3.1640625 v -0.00195 C 10.434268,5.3416691 10.218241,4.4745098 10.101563,3.5898438 a 1.0001,1.0001 0 0 0 -0.002,-0.00977 C 9.8899434,2.0966895 8.5976695,0.9852559 7.0996094,1 Z m 5.8632813,11.603516 a 1,1 0 0 0 0,1.414062 c 1.0782807,1.079231 2.2968577,2.00763 3.6230467,2.761719 a 1.0001,1.0001 0 0 0 1.201172,-0.16211 L 16.0625,15.351563 c 0.279327,-0.276219 0.686972,-0.362834 1.054687,-0.22461 a 1.0001,1.0001 0 0 0 0.0039,0 c 0.977931,0.364917 1.992507,0.617422 3.027343,0.753906 h -0.0078 c 0.504674,0.07133 0.864391,0.490334 0.859375,1 a 1.0001,1.0001 0 0 0 0,0.0098 v 3 a 1.0001,1.0001 0 0 0 0,0.0039 c 0.0024,0.603576 -0.485409,1.049704 -1.085938,0.998047 -2.916589,-0.319156 -5.717893,-1.315645 -8.179687,-2.912109 a 1.0001,1.0001 0 0 0 -0.0078,-0.0039 C 10.583869,17.251007 9.5249534,16.401017 8.5683594,15.443359 a 1,1 0 0 0 -1.4160157,0 1,1 0 0 0 0,1.414063 c 1.0581514,1.059328 2.2305337,1.997601 3.4941403,2.800781 4.94e-4,3.2e-4 0.0015,-3.2e-4 0.002,0 2.727843,1.768668 5.832412,2.875375 9.064453,3.226563 a 1.0001,1.0001 0 0 0 0.01758,0.002 c 1.745442,0.157744 3.276645,-1.247459 3.269531,-3 v -2.986328 c 0.01474,-1.498061 -1.09669,-2.790334 -2.580078,-3 a 1.0001,1.0001 0 0 0 -0.0098,-0.002 c -0.884666,-0.116679 -1.751825,-0.332706 -2.58789,-0.644532 h -0.002 c -1.093569,-0.410228 -2.333483,-0.145554 -3.164062,0.675782 a 1.0001,1.0001 0 0 0 -0.0039,0.0039 l -0.658203,0.658203 c -0.925026,-0.588528 -1.831453,-1.211628 -2.607422,-1.988281 a 1,1 0 0 0 -1.4140627,0 z"
     id="path2" />
  <path
     style="color:#000000;fill:#000000;-inkscape-stroke:none"
     d="M 21.292969,1.2929687 1.2929687,21.292969 a 1,1 0 0 0 0,1.414062 1,1 0 0 0 1.4140626,0 L 22.707031,2.7070313 a 1,1 0 0 0 0,-1.4140626 1,1 0 0 0 -1.414062,0 z"
     id="line4" />
</svg>
