<?xml version="1.0" encoding="UTF-8" standalone="no"?>
<svg
   width="24"
   height="24"
   viewBox="0 0 24 24"
   fill="none"
   stroke="currentColor"
   stroke-width="2"
   stroke-linecap="round"
   stroke-linejoin="round"
   version="1.1"
   id="svg6"
   xmlns="http://www.w3.org/2000/svg"
   xmlns:svg="http://www.w3.org/2000/svg">
  <defs
     id="defs10" />
  <path
     style="color:#000000;fill:#000000;-inkscape-stroke:none"
     d="M 4,3 C 2.354992,3 1,4.354992 1,6 v 10 c 0,1.645453 1.3545471,3 3,3 H 8 A 1,1 0 0 0 9,18 1,1 0 0 0 8,17 H 4 C 3.4454551,17 3,16.554545 3,16 V 6 C 3,5.4358712 3.4358712,5 4,5 h 15 c 0.564129,0 1,0.4358712 1,1 v 3 a 1,1 0 0 0 1,1 1,1 0 0 0 1,-1 V 6 C 22,4.354992 20.645008,3 19,3 Z"
     id="path2" />
  <path
     style="color:#000000;fill:#000000;-inkscape-stroke:none"
     d="m 14,12 c -1.644701,0 -3,1.355299 -3,3 v 3 c 0,1.644701 1.355299,3 3,3 h 6 c 1.644701,0 3,-1.355299 3,-3 v -3 c 0,-1.644701 -1.355299,-3 -3,-3 z m 0,2 h 6 c 0.571297,0 1,0.428703 1,1 v 3 c 0,0.571297 -0.428703,1 -1,1 h -6 c -0.571297,0 -1,-0.428703 -1,-1 v -3 c 0,-0.571297 0.428703,-1 1,-1 z"
     id="rect4" />
</svg>
