<?xml version="1.0" encoding="UTF-8" standalone="no"?>
<svg
   width="24"
   height="24"
   viewBox="0 0 24 24"
   fill="none"
   stroke="currentColor"
   stroke-width="2"
   stroke-linecap="round"
   stroke-linejoin="round"
   version="1.1"
   id="svg6"
   xmlns="http://www.w3.org/2000/svg"
   xmlns:svg="http://www.w3.org/2000/svg">
  <defs
     id="defs10" />
  <path
     style="color:#000000;fill:#000000;-inkscape-stroke:none"
     d="m 2,2.5 a 1,1 0 0 0 -0.7070313,0.2929688 1,1 0 0 0 0,1.4140624 L 5.5859375,8.5 H 3 a 1,1 0 0 0 -1,1 1,1 0 0 0 1,1 H 8 A 1,1 0 0 0 8.7070313,10.207031 1,1 0 0 0 8.9667969,9.5332031 1.0001,1.0001 0 0 0 9,9.5 v -5 a 1,1 0 0 0 -1,-1 1,1 0 0 0 -1,1 V 7.0859375 L 2.7070313,2.7929688 A 1,1 0 0 0 2,2.5 Z m 10,1 a 1,1 0 0 0 -1,1 1,1 0 0 0 1,1 h 7 c 0.677241,0 1,0.3227593 1,1 v 3 a 1,1 0 0 0 1,1 1,1 0 0 0 1,-1 v -3 c 0,-1.642757 -1.357243,-3 -3,-3 z m -9,9 a 1,1 0 0 0 -1,1 v 2 c 0,1.653173 1.3468271,3 3,3 h 3 a 1,1 0 0 0 1,-1 1,1 0 0 0 -1,-1 H 5 c -0.446825,0 -1,-0.553175 -1,-1 v -2 a 1,1 0 0 0 -1,-1 z"
     id="path2" />
  <path
     style="color:#000000;fill:#000000;-inkscape-stroke:none"
     d="m 14,12.5 c -1.644701,0 -3,1.355299 -3,3 v 3 c 0,1.644701 1.355299,3 3,3 h 6 c 1.644701,0 3,-1.355299 3,-3 v -3 c 0,-1.644701 -1.355299,-3 -3,-3 z m 0,2 h 6 c 0.571297,0 1,0.428703 1,1 v 3 c 0,0.571297 -0.428703,1 -1,1 h -6 c -0.571297,0 -1,-0.428703 -1,-1 v -3 c 0,-0.571297 0.428703,-1 1,-1 z"
     id="rect4" />
</svg>
