<?xml version="1.0" encoding="UTF-8" standalone="no"?>
<svg
   width="24"
   height="24"
   viewBox="0 0 24 24"
   fill="none"
   stroke="currentColor"
   stroke-width="2"
   stroke-linecap="round"
   stroke-linejoin="round"
   version="1.1"
   id="svg6"
   xmlns="http://www.w3.org/2000/svg"
   xmlns:svg="http://www.w3.org/2000/svg">
  <defs
     id="defs10" />
  <path
     style="color:#000000;fill:#000000;-inkscape-stroke:none"
     d="m 8.3652344,1.8984375 a 1,1 0 0 0 -0.765625,0.015625 C 0.50199207,5.0113451 -1.2413236,14.373942 4.265625,19.818359 9.7725736,25.262776 19.11483,23.411821 22.130859,16.279297 A 1,1 0 0 0 21.599609,14.96875 1,1 0 0 0 20.289062,15.5 C 17.79727,21.392772 10.221618,22.892612 5.671875,18.394531 1.1221317,13.89645 2.536458,6.3050168 8.4003906,3.7460938 a 1,1 0 0 0 0.515625,-1.3164063 1,1 0 0 0 -0.5507812,-0.53125 z"
     id="path2" />
  <path
     style="color:#000000;fill:#000000;-inkscape-stroke:none"
     d="m 12,1 a 1.0001,1.0001 0 0 0 -1,1 v 10 a 1.0001,1.0001 0 0 0 1,1 h 10 a 1.0001,1.0001 0 0 0 1,-1 C 23,5.9367185 18.063282,1 12,1 Z m 1,2.2011719 C 17.140972,3.6789248 20.321075,6.8590284 20.798828,11 H 13 Z"
     id="path4" />
</svg>
