<?xml version="1.0" encoding="UTF-8" standalone="no"?>
<svg
   width="24"
   height="24"
   viewBox="0 0 24 24"
   fill="none"
   stroke="currentColor"
   stroke-width="2"
   stroke-linecap="round"
   stroke-linejoin="round"
   version="1.1"
   id="svg8"
   xmlns="http://www.w3.org/2000/svg"
   xmlns:svg="http://www.w3.org/2000/svg">
  <defs
     id="defs12" />
  <path
     style="color:#000000;fill:#000000;-inkscape-stroke:none"
     d="M 19,4 C 17.93889,4 17.051895,4.4689143 16.392578,4.9902344 16.024708,5.2811087 15.880488,5.626768 15.644531,5.9355469 13.644132,5.2975108 11.158862,5.2345869 8.8691406,6.0019531 7.5904344,6.4304925 6.3918918,7.1025557 5.4863281,8.0996094 4.5807644,9.096663 4,10.439153 4,12 4,12.899999 3.9840539,13.773987 4.3066406,14.693359 4.5810559,15.475443 5.1707639,16.209558 6,16.921875 V 20 a 1.0001,1.0001 0 0 0 1,1 h 4 a 1.0001,1.0001 0 0 0 1,-1 v -1 h 1 v 1 a 1.0001,1.0001 0 0 0 1,1 h 4 a 1.0001,1.0001 0 0 0 1,-1 V 16.525391 C 19.617671,16.153637 20.121447,15.644031 20.509766,15 H 22 a 1.0001,1.0001 0 0 0 1,-1 V 10 A 1.0001,1.0001 0 0 0 22,9 H 20.724609 C 20.526332,8.4414163 20.298564,7.9905791 20,7.6582031 V 5 A 1.0001,1.0001 0 0 0 19,4 Z M 18,6.4082031 V 8 a 1.0001,1.0001 0 0 0 0.292969,0.7070313 C 18.792968,9.2070308 19,9.333334 19,10 a 1.0001,1.0001 0 0 0 1,1 h 1 v 2 h -1 a 1.0001,1.0001 0 0 0 -0.957031,0.712891 c -0.203339,0.677794 -0.56179,0.928355 -1.490235,1.392578 A 1.0001,1.0001 0 0 0 17,16 v 3 h -2 v -1 a 1.0001,1.0001 0 0 0 -1,-1 h -3 a 1.0001,1.0001 0 0 0 -1,1 v 1 H 8 V 16.5 A 1.0001,1.0001 0 0 0 7.5996094,15.699219 C 6.7020103,15.026019 6.3707721,14.536876 6.1933594,14.03125 6.0159466,13.525624 6,12.899999 6,12 6,10.91085 6.3567371,10.115054 6.9667969,9.4433594 7.5768566,8.7716647 8.4720679,8.2448974 9.5058594,7.8984375 11.573442,7.2055178 14.181925,7.3098318 15.605469,7.9199219 a 1.0001,1.0001 0 0 0 1.34375,-0.6035157 C 16.917457,7.4116909 17.21713,6.8872729 17.632812,6.5585937 17.744492,6.4702889 17.877628,6.4797934 18,6.4082031 Z"
     id="path2" />
  <path
     style="color:#000000;fill:#000000;-inkscape-stroke:none"
     d="M 2,8 A 1,1 0 0 0 1,9 v 1 c 0,1.645453 1.3545471,3 3,3 H 5 A 1,1 0 0 0 6,12 1,1 0 0 0 5,11 H 4 C 3.4454551,11 3,10.554545 3,10 V 9 A 1,1 0 0 0 2,8 Z"
     id="path4" />
  <path
     style="color:#000000;fill:#000000;-inkscape-stroke:none"
     d="m 16,10 a 1,1 0 0 0 -1,1 1,1 0 0 0 1,1 1,1 0 0 0 1,-1 1,1 0 0 0 -1,-1 z"
     id="path6" />
</svg>
