<?xml version="1.0" encoding="UTF-8" standalone="no"?>
<svg
   width="24"
   height="24"
   viewBox="0 0 24 24"
   fill="none"
   stroke="currentColor"
   stroke-width="2"
   stroke-linecap="round"
   stroke-linejoin="round"
   version="1.1"
   id="svg8"
   xmlns="http://www.w3.org/2000/svg"
   xmlns:svg="http://www.w3.org/2000/svg">
  <defs
     id="defs12" />
  <path
     style="color:#000000;fill:#000000;-inkscape-stroke:none"
     d="m 13,3 a 1,1 0 0 0 -1,1 v 16 a 1,1 0 0 0 1,1 1,1 0 0 0 1,-1 V 4 A 1,1 0 0 0 13,3 Z"
     id="path2" />
  <path
     style="color:#000000;fill:#000000;-inkscape-stroke:none"
     d="m 17,3 a 1,1 0 0 0 -1,1 v 16 a 1,1 0 0 0 1,1 1,1 0 0 0 1,-1 V 4 A 1,1 0 0 0 17,3 Z"
     id="path4" />
  <path
     style="color:#000000;fill:#000000;-inkscape-stroke:none"
     d="M 9.5,3 C 7.7500023,3 6.3102246,3.6922566 5.3769531,4.7421875 4.4436817,5.7921184 4,7.1527792 4,8.5 4,9.8472208 4.4436817,11.207882 5.3769531,12.257813 6.3102246,13.307743 7.7500023,14 9.5,14 H 13 a 1,1 0 0 0 1,-1 1,1 0 0 0 -1,-1 H 9.5 C 8.250002,12 7.4397733,11.567255 6.8730469,10.929688 6.3063205,10.29212 6,9.402777 6,8.5 6,7.597223 6.3063205,6.70788 6.8730469,6.0703125 7.4397733,5.432745 8.250002,5 9.5,5 H 19 A 1,1 0 0 0 20,4 1,1 0 0 0 19,3 Z"
     id="path6" />
</svg>
