<?xml version="1.0" encoding="UTF-8" standalone="no"?>
<svg
   width="24"
   height="24"
   viewBox="0 0 24 24"
   fill="none"
   stroke="currentColor"
   stroke-width="2"
   stroke-linecap="round"
   stroke-linejoin="round"
   version="1.1"
   id="svg10"
   xmlns="http://www.w3.org/2000/svg"
   xmlns:svg="http://www.w3.org/2000/svg">
  <defs
     id="defs14" />
  <path
     style="color:#000000;fill:#000000;-inkscape-stroke:none"
     d="M 5,2 C 3.3552989,2 2,3.3552989 2,5 v 14 c 0,1.644701 1.3552989,3 3,3 h 14 c 1.644701,0 3,-1.355299 3,-3 V 5 C 22,3.3552989 20.644701,2 19,2 Z m 0,2 h 14 c 0.571297,0 1,0.4287033 1,1 v 14 c 0,0.571297 -0.428703,1 -1,1 H 5 C 4.4287033,20 4,19.571297 4,19 V 5 C 4,4.4287033 4.4287033,4 5,4 Z"
     id="rect2" />
  <path
     style="color:#000000;fill:#000000;-inkscape-stroke:none"
     d="M 9.5,6 C 8.416668,6 7.4768917,6.4422563 6.8769531,7.1171875 6.2770145,7.7921187 6,8.6527787 6,9.5 6,10.347221 6.2770145,11.207881 6.8769531,11.882813 7.4768917,12.557744 8.416668,13 9.5,13 H 12 a 1,1 0 0 0 1,-1 1,1 0 0 0 -1,-1 H 9.5 C 8.9166677,11 8.6064404,10.817255 8.3730469,10.554688 8.1396534,10.29212 8,9.9027775 8,9.5 8,9.0972225 8.1396534,8.7078803 8.3730469,8.4453125 8.6064404,8.1827447 8.9166677,8 9.5,8 H 17 A 1,1 0 0 0 18,7 1,1 0 0 0 17,6 Z"
     id="path4" />
  <path
     style="color:#000000;fill:#000000;-inkscape-stroke:none"
     d="m 12,6 a 1,1 0 0 0 -1,1 v 10 a 1,1 0 0 0 1,1 1,1 0 0 0 1,-1 V 7 A 1,1 0 0 0 12,6 Z"
     id="path6" />
  <path
     style="color:#000000;fill:#000000;-inkscape-stroke:none"
     d="m 16,6 a 1,1 0 0 0 -1,1 v 10 a 1,1 0 0 0 1,1 1,1 0 0 0 1,-1 V 7 A 1,1 0 0 0 16,6 Z"
     id="path8" />
</svg>
