<?xml version="1.0" encoding="UTF-8" standalone="no"?>
<svg
   width="24"
   height="24"
   viewBox="0 0 24 24"
   fill="none"
   stroke="currentColor"
   stroke-width="2"
   stroke-linecap="round"
   stroke-linejoin="round"
   version="1.1"
   id="svg6"
   xmlns="http://www.w3.org/2000/svg"
   xmlns:svg="http://www.w3.org/2000/svg">
  <defs
     id="defs10" />
  <path
     style="color:#000000;fill:#000000;-inkscape-stroke:none"
     d="M 17.287109,0.9296875 C 15.76243,0.84595474 14.127323,1.4312217 12.785156,2.8007813 L 2.8007813,12.785156 c -1.3695596,1.342167 -1.95482656,2.977274 -1.8710938,4.501953 0.0837328,1.52468 0.7895161,2.91647 1.828125,3.955078 1.0386089,1.038609 2.4303984,1.744393 3.9550781,1.828125 1.5246797,0.08373 3.1597862,-0.501534 4.5019534,-1.871093 l 9.984375,-9.984375 C 22.568778,9.8726768 23.154045,8.2375703 23.070312,6.7128906 22.98658,5.1882109 22.280796,3.7964214 21.242187,2.7578125 20.203579,1.7192036 18.811789,1.0134203 17.287109,0.9296875 Z m -0.109375,1.9980469 c 0.969305,0.053233 1.927097,0.5208465 2.650391,1.2441406 0.723294,0.7232941 1.190908,1.6810859 1.244141,2.6503906 0.05323,0.9693048 -0.260216,1.971848 -1.271485,2.9628907 a 1.0001,1.0001 0 0 0 -0.0078,0.00781 L 9.7929688,19.792969 a 1.0001,1.0001 0 0 0 -0.00781,0.0078 C 8.7941136,20.81205 7.7915704,21.125498 6.8222656,21.072266 5.8529609,21.019033 4.8951691,20.551419 4.171875,19.828125 3.4485809,19.104831 2.9809669,18.147039 2.9277344,17.177734 2.8745018,16.20843 3.1879497,15.205886 4.1992187,14.214844 a 1.0001,1.0001 0 0 0 0.00781,-0.0078 L 14.207031,4.2070312 a 1.0001,1.0001 0 0 0 0.0078,-0.00781 c 0.991042,-1.011269 1.993586,-1.3247169 2.96289,-1.2714843 z"
     id="path2" />
  <path
     style="color:#000000;fill:#000000;-inkscape-stroke:none"
     d="m 8.5,7.5 a 1,1 0 0 0 -0.7070313,0.2929687 1,1 0 0 0 0,1.4140626 l 7.0000003,6.9999997 a 1,1 0 0 0 1.414062,0 1,1 0 0 0 0,-1.414062 L 9.2070313,7.7929687 A 1,1 0 0 0 8.5,7.5 Z"
     id="path4" />
</svg>
