<?xml version="1.0" encoding="UTF-8" standalone="no"?>
<svg
   width="24"
   height="24"
   viewBox="0 0 24 24"
   fill="none"
   stroke="currentColor"
   stroke-width="2"
   stroke-linecap="round"
   stroke-linejoin="round"
   version="1.1"
   id="svg10"
   xmlns="http://www.w3.org/2000/svg"
   xmlns:svg="http://www.w3.org/2000/svg">
  <defs
     id="defs14" />
  <path
     style="color:#000000;fill:#000000;-inkscape-stroke:none"
     d="m 2,1 a 1,1 0 0 0 -0.7070313,0.2929687 1,1 0 0 0 0,1.4140626 L 21.292969,22.707031 a 1,1 0 0 0 1.414062,0 1,1 0 0 0 0,-1.414062 L 2.7070313,1.2929687 A 1,1 0 0 0 2,1 Z"
     id="line2" />
  <path
     style="color:#000000;fill:#000000;-inkscape-stroke:none"
     d="m 12,16 a 1,1 0 0 0 -1,1 v 5 a 1,1 0 0 0 1,1 1,1 0 0 0 1,-1 v -5 a 1,1 0 0 0 -1,-1 z"
     id="line4" />
  <path
     style="color:#000000;fill:#000000;-inkscape-stroke:none"
     d="M 9,8 A 1,1 0 0 0 8,9 v 1.759766 c -2.025e-4,0.381602 -0.212951,0.724718 -0.5546875,0.894531 a 1.0001,1.0001 0 0 0 -0.00586,0.0039 L 5.6640625,12.554688 C 4.646485,13.060334 4.000603,14.10395 4,15.240234 V 17 a 1.0001,1.0001 0 0 0 1,1 h 12 a 1,1 0 0 0 1,-1 1,1 0 0 0 -1,-1 H 6 v -0.759766 c 2.025e-4,-0.381602 0.212951,-0.724718 0.5546875,-0.894531 a 1.0001,1.0001 0 0 0 0.00586,-0.0039 L 8.3359375,13.445313 C 9.353515,12.939666 9.999397,11.89605 10,10.759766 V 9 A 1,1 0 0 0 9,8 Z"
     id="path6" />
  <path
     style="color:#000000;fill:#000000;-inkscape-stroke:none"
     d="m 7.890625,1 a 1,1 0 0 0 -1,1 1,1 0 0 0 1,1 H 16 c 0.416666,0 0.601893,0.1202446 0.751953,0.2890625 C 16.902013,3.4578804 17,3.7222224 17,4 17,4.2777776 16.902013,4.5421196 16.751953,4.7109375 16.601893,4.8797554 16.416666,5 16,5 h -1 a 1.0001,1.0001 0 0 0 -1,1 v 3.3398438 a 1,1 0 0 0 1,1.0000002 1,1 0 0 0 1,-1.0000002 V 7 C 16.916666,7 17.731441,6.6202438 18.248047,6.0390625 18.764652,5.4578812 19,4.7222214 19,4 19,3.2777786 18.764652,2.5421188 18.248047,1.9609375 17.731441,1.3797562 16.916666,1 16,1 Z"
     id="path8" />
</svg>
