<?xml version="1.0" encoding="UTF-8" standalone="no"?>
<svg
   width="24"
   height="24"
   viewBox="0 0 24 24"
   fill="none"
   stroke="currentColor"
   stroke-width="2"
   stroke-linecap="round"
   stroke-linejoin="round"
   version="1.1"
   id="svg6"
   xmlns="http://www.w3.org/2000/svg"
   xmlns:svg="http://www.w3.org/2000/svg">
  <defs
     id="defs10" />
  <path
     style="color:#000000;fill:#000000;-inkscape-stroke:none"
     d="m 12,16 a 1,1 0 0 0 -1,1 v 5 a 1,1 0 0 0 1,1 1,1 0 0 0 1,-1 v -5 a 1,1 0 0 0 -1,-1 z"
     id="line2" />
  <path
     style="color:#000000;fill:#000000;-inkscape-stroke:none"
     d="M 8,1 C 7.0833344,1 6.2685585,1.3797562 5.7519531,1.9609375 5.2353477,2.5421188 5,3.2777786 5,4 5,4.7222214 5.2353477,5.4578812 5.7519531,6.0390625 6.2685585,6.6202438 7.0833344,7 8,7 v 3.759766 c -2.025e-4,0.381602 -0.212951,0.724718 -0.5546875,0.894531 a 1.0001,1.0001 0 0 0 -0.00586,0.0039 L 5.6640625,12.554688 C 4.646485,13.060334 4.000603,14.10395 4,15.240234 V 17 a 1.0001,1.0001 0 0 0 1,1 h 14 a 1.0001,1.0001 0 0 0 1,-1 v -1.759766 c -6.03e-4,-1.136284 -0.646485,-2.1799 -1.664063,-2.685546 l -1.77539,-0.896485 a 1.0001,1.0001 0 0 0 -0.0059,-0.0039 C 16.212951,11.484484 16.000202,11.141368 16,10.759766 V 7 C 16.916666,7 17.731441,6.6202438 18.248047,6.0390625 18.764652,5.4578812 19,4.7222214 19,4 19,3.2777786 18.764652,2.5421188 18.248047,1.9609375 17.731441,1.3797562 16.916666,1 16,1 Z m 0,2 h 8 c 0.416666,0 0.601893,0.1202446 0.751953,0.2890625 C 16.902013,3.4578804 17,3.7222224 17,4 17,4.2777776 16.902013,4.5421196 16.751953,4.7109375 16.601893,4.8797554 16.416666,5 16,5 h -1 a 1.0001,1.0001 0 0 0 -1,1 v 4.759766 c 6.03e-4,1.136284 0.646485,2.1799 1.664063,2.685547 l 1.77539,0.896484 a 1.0001,1.0001 0 0 0 0.0059,0.0039 C 17.787049,14.515516 17.999798,14.858632 18,15.240234 V 16 H 6 v -0.759766 c 2.025e-4,-0.381602 0.212951,-0.724718 0.5546875,-0.894531 a 1.0001,1.0001 0 0 0 0.00586,-0.0039 L 8.3359375,13.445313 C 9.353515,12.939666 9.999397,11.89605 10,10.759766 V 6 A 1.0001,1.0001 0 0 0 9,5 H 8 C 7.5833341,5 7.3981072,4.8797554 7.2480469,4.7109375 7.0979866,4.5421196 7,4.2777776 7,4 7,3.7222224 7.0979866,3.4578804 7.2480469,3.2890625 7.3981072,3.1202446 7.5833341,3 8,3 Z"
     id="path4" />
</svg>
