<?xml version="1.0" encoding="UTF-8" standalone="no"?>
<svg
   width="24"
   height="24"
   viewBox="0 0 24 24"
   fill="none"
   stroke="currentColor"
   stroke-width="2"
   stroke-linecap="round"
   stroke-linejoin="round"
   version="1.1"
   id="svg8"
   xmlns="http://www.w3.org/2000/svg"
   xmlns:svg="http://www.w3.org/2000/svg">
  <defs
     id="defs12" />
  <path
     style="color:#000000;fill:#000000;-inkscape-stroke:none"
     d="m 15,11 a 1,1 0 0 0 -0.707031,0.292969 L 5.5859375,20 H 3 a 1.0001,1.0001 0 0 0 -0.7070312,0.292969 l -1.0000001,1 a 1,1 0 0 0 0,1.414062 1,1 0 0 0 1.4140626,0 L 3.4140625,22 H 6 a 1.0001,1.0001 0 0 0 0.7070312,-0.292969 l 8.9999998,-9 a 1,1 0 0 0 0,-1.414062 A 1,1 0 0 0 15,11 Z"
     id="path2" />
  <path
     style="color:#000000;fill:#000000;-inkscape-stroke:none"
     d="M 12,8 A 1,1 0 0 0 11.292969,8.2929688 L 2.2929688,17.292969 A 1.0001,1.0001 0 0 0 2,18 v 3 a 1,1 0 0 0 1,1 1,1 0 0 0 1,-1 v -2.585938 l 8.707031,-8.7070307 a 1,1 0 0 0 0,-1.4140625 A 1,1 0 0 0 12,8 Z"
     id="path4" />
  <path
     style="color:#000000;fill:#000000;-inkscape-stroke:none"
     d="M 20.052734,0.9453125 C 19.246099,0.89786321 18.370135,1.2158022 17.693359,1.8925781 L 14.9375,4.6484375 C 14.322833,4.1805383 13.622046,3.9056194 12.947266,3.9453125 12.140631,3.9927618 11.424712,4.3604439 10.892578,4.8925781 10.360444,5.4247124 9.9927618,6.1406305 9.9453125,6.9472656 9.8978632,7.7539007 10.215802,8.6298648 10.892578,9.3066406 l 3.800781,3.8007814 c 0.676776,0.676776 1.55274,0.994715 2.359375,0.947266 0.806635,-0.04745 1.522554,-0.415132 2.054688,-0.947266 0.532134,-0.532134 0.899816,-1.248053 0.947265,-2.054688 0.04745,-0.806635 -0.270489,-1.6825988 -0.947265,-2.3593746 L 19.414062,9 22.107422,6.3066406 C 22.784198,5.6298647 23.102137,4.7539007 23.054687,3.9472656 23.007238,3.1406305 22.639556,2.4247124 22.107422,1.8925781 21.575288,1.3604439 20.859369,0.99276179 20.052734,0.9453125 Z m -0.117187,1.9960938 c 0.255863,0.015051 0.539947,0.1473693 0.757812,0.3652343 0.217865,0.217865 0.350184,0.5019489 0.365235,0.7578125 0.01505,0.2558637 -0.04201,0.5049023 -0.365235,0.828125 l -3.40039,3.4003907 a 1.0001,1.0001 0 0 0 0,1.4140625 l 0.40039,0.4003907 c 0.323223,0.323223 0.380286,0.572261 0.365235,0.828125 -0.01505,0.255863 -0.14737,0.539947 -0.365235,0.757812 -0.217865,0.217865 -0.501948,0.350184 -0.757812,0.365235 -0.255864,0.01505 -0.504902,-0.04201 -0.828125,-0.365235 L 12.306641,7.8925781 c -0.323223,-0.3232227 -0.380286,-0.5722614 -0.365235,-0.828125 0.01505,-0.2558636 0.14737,-0.5399475 0.365235,-0.7578125 0.217865,-0.217865 0.501948,-0.3501835 0.757812,-0.3652344 0.255864,-0.015051 0.504902,0.042012 0.828125,0.3652344 l 0.400391,0.4003906 a 1.0001,1.0001 0 0 0 1.414062,0 l 3.400391,-3.4003906 c 0.323223,-0.3232227 0.572261,-0.3802852 0.828125,-0.3652343 z"
     id="path6" />
</svg>
