<?xml version="1.0" encoding="UTF-8" standalone="no"?>
<svg
   width="24"
   height="24"
   viewBox="0 0 24 24"
   fill="none"
   stroke="currentColor"
   stroke-width="2"
   stroke-linecap="round"
   stroke-linejoin="round"
   version="1.1"
   id="svg12"
   xmlns="http://www.w3.org/2000/svg"
   xmlns:svg="http://www.w3.org/2000/svg">
  <defs
     id="defs16" />
  <path
     style="color:#000000;fill:#000000;-inkscape-stroke:none"
     d="m 15,10 a 1,1 0 0 0 -1,1 1,1 0 0 0 1,1 h 0.0098 a 1,1 0 0 0 1,-1 1,1 0 0 0 -1,-1 z"
     id="path2" />
  <path
     style="color:#000000;fill:#000000;-inkscape-stroke:none"
     d="m 11,14 a 1,1 0 0 0 -1,1 1,1 0 0 0 1,1 h 0.0098 a 1,1 0 0 0 1,-1 1,1 0 0 0 -1,-1 z"
     id="path4" />
  <path
     style="color:#000000;fill:#000000;-inkscape-stroke:none"
     d="m 16,15 a 1,1 0 0 0 -1,1 1,1 0 0 0 1,1 h 0.0098 a 1,1 0 0 0 1,-1 1,1 0 0 0 -1,-1 z"
     id="path6" />
  <path
     style="color:#000000;fill:#000000;-inkscape-stroke:none"
     d="M 15.736328,1.0351562 C 8.5948937,2.9931079 3.0118843,8.5733839 1.0449219,15.710938 a 1,1 0 0 0 -0.00195,0.002 1,1 0 0 0 0,0.0039 c -0.00189,0.0069 -0.00593,0.01265 -0.00781,0.01953 a 1,1 0 0 0 0.048828,0.386719 1,1 0 0 0 0.044922,0.359375 1,1 0 0 0 0.2871094,0.234375 1,1 0 0 0 0.296875,0.240234 l 0.021484,0.0059 0.00391,0.002 19.9746098,5.992187 a 1.0001,1.0001 0 0 0 1.24414,-1.24414 l -6,-20.0000004 A 1.0001,1.0001 0 0 0 15.736328,1.0351562 Z M 15.359375,3.34375 20.509766,20.509766 3.34375,15.359375 C 5.2310107,9.6597167 9.6597167,5.2310107 15.359375,3.34375 Z"
     id="path8" />
  <path
     style="color:#000000;fill:#000000;-inkscape-stroke:none"
     d="M 16.822266,4.7519531 C 11.031341,6.4966538 6.4966538,11.031341 4.7519531,16.822266 A 1,1 0 0 0 5.421875,18.068359 1,1 0 0 0 6.6679687,17.398437 C 8.2198903,12.247376 12.247376,8.2198903 17.398437,6.6679687 A 1,1 0 0 0 18.068359,5.421875 1,1 0 0 0 16.822266,4.7519531 Z"
     id="path10" />
</svg>
