<?xml version="1.0" encoding="UTF-8" standalone="no"?>
<svg
   width="24"
   height="24"
   viewBox="0 0 24 24"
   fill="none"
   stroke="currentColor"
   stroke-width="2"
   stroke-linecap="round"
   stroke-linejoin="round"
   version="1.1"
   id="svg6"
   xmlns="http://www.w3.org/2000/svg"
   xmlns:svg="http://www.w3.org/2000/svg">
  <defs
     id="defs10" />
  <path
     style="color:#000000;fill:#000000;-inkscape-stroke:none"
     d="m 2,21 a 1,1 0 0 0 -1,1 1,1 0 0 0 1,1 h 20 a 1,1 0 0 0 1,-1 1,1 0 0 0 -1,-1 z"
     id="path2" />
  <path
     style="color:#000000;fill:#000000;-inkscape-stroke:none"
     d="M 10.685547,1.5507812 A 1.0001,1.0001 0 0 0 10.105469,2.0527344 L 7.5527344,7.1582031 7.3535156,7.0585937 c -5.553e-4,-2.827e-4 5.543e-4,-0.00167 0,-0.00195 C 7.1320733,6.9431533 7,6.7269182 7,6.5 7,5.5074873 6.430281,4.6049541 5.5527344,4.1582031 A 1.0001,1.0001 0 0 0 5.546875,4.15625 L 4.4472656,3.6054688 A 1.0001,1.0001 0 0 0 3.0859375,4.09375 l -2,4.5 A 1.0001,1.0001 0 0 0 1.2929687,9.7070313 L 3.0625,11.476563 c 0.2266126,0.229148 0.4879449,0.41867 0.7753906,0.564453 a 1.0001,1.0001 0 0 0 0.00586,0.0039 l 13.042969,6.511719 c 0.0012,6.17e-4 0.0027,-6.16e-4 0.0039,0 0.608263,0.317659 1.290774,0.430507 1.955078,0.345703 l 1.173828,-0.150391 c 1.674706,-0.200965 2.631494,-2.110787 1.814453,-3.578125 a 1.0001,1.0001 0 0 0 -0.0098,-0.01758 l -0.591797,-1.015625 c -0.33582,-0.598635 -0.841924,-1.055684 -1.417969,-1.357422 a 1.0001,1.0001 0 0 0 -0.01758,-0.0078 l -4.400391,-2.199219 a 1.0001,1.0001 0 0 0 0,-0.002 C 15.099254,10.426178 14.896429,10.143465 14.851563,9.8144531 L 14.130859,4.4179687 a 1.0001,1.0001 0 0 0 0,-0.00391 C 13.997058,3.4328845 13.385594,2.5794152 12.5,2.1367188 l -0.0039,-0.00195 -1.044922,-0.5273437 a 1.0001,1.0001 0 0 0 -0.765625,-0.056641 z m 0.759766,2.2929688 0.154296,0.078125 a 1.0001,1.0001 0 0 0 0.0039,0.00391 c 0.29723,0.1480409 0.500055,0.4307533 0.544922,0.7597656 l 0.720703,5.3964841 a 1.0001,1.0001 0 0 0 0,0.0039 c 0.133929,0.982114 0.74585,1.836964 1.632812,2.279296 l 4.384766,2.191407 c 0.263954,0.138262 0.477382,0.341135 0.601562,0.5625 a 1.0001,1.0001 0 0 0 0.0078,0.01367 l 0.589843,1.013671 c 0.162959,0.292661 0.0206,0.582059 -0.304687,0.621094 a 1.0001,1.0001 0 0 0 -0.0078,0 l -1.179687,0.150391 c -0.274408,0.03503 -0.548443,-0.01384 -0.779297,-0.134766 a 1.0001,1.0001 0 0 0 -0.01758,-0.0078 L 4.7421875,10.257813 C 4.6458215,10.208939 4.5582582,10.145326 4.4824219,10.068359 a 1.0001,1.0001 0 0 0 -0.00586,-0.0059 L 3.1933594,8.7792969 4.4882812,5.8632812 4.6464844,5.9414062 v 0.00195 C 4.8679267,6.0568467 5,6.2730818 5,6.5 5,7.4925127 5.569719,8.3950459 6.4472656,8.8417969 a 1.0001,1.0001 0 0 0 0.00586,0.00195 L 7.5527344,9.3945313 A 1.0001,1.0001 0 0 0 8.8945313,8.9472656 Z"
     id="path4" />
</svg>
