<?xml version="1.0" encoding="UTF-8" standalone="no"?>
<svg
   width="24"
   height="24"
   viewBox="0 0 24 24"
   fill="none"
   stroke="currentColor"
   stroke-width="2"
   stroke-linecap="round"
   stroke-linejoin="round"
   version="1.1"
   id="svg6"
   xmlns="http://www.w3.org/2000/svg"
   xmlns:svg="http://www.w3.org/2000/svg">
  <defs
     id="defs10" />
  <path
     style="color:#000000;fill:#000000;-inkscape-stroke:none"
     d="m 2,21 a 1,1 0 0 0 -1,1 1,1 0 0 0 1,1 h 20 a 1,1 0 0 0 1,-1 1,1 0 0 0 -1,-1 z"
     id="path2" />
  <path
     style="color:#000000;fill:#000000;-inkscape-stroke:none"
     d="M 7.0683594,4.359375 C 6.5244128,4.3073227 5.9668917,4.4024838 5.4589844,4.6523437 A 1.0001,1.0001 0 0 0 5.453125,4.65625 L 4.5527344,5.1054687 A 1.0001,1.0001 0 0 0 4.1054687,6.4472656 l 2.546875,5.0957034 -0.2207031,0.107422 a 1.0001,1.0001 0 0 0 -0.011719,0.0059 c -0.2826255,0.142416 -0.6134423,0.14118 -0.8964844,0 L 5.40625,11.587891 a 1.0001,1.0001 0 0 0 -0.056641,-0.03125 c -0.8483322,-0.427478 -1.8508866,-0.427478 -2.6992188,0 l -1.0976562,0.548828 a 1.0001,1.0001 0 0 0 -0.4472657,1.341797 l 2.0000001,4 a 1.0001,1.0001 0 0 0 0.7265625,0.539062 l 2.3613281,0.400391 a 1.0001,1.0001 0 0 0 0.1699218,-0.04687 c 0.5674624,0.06172 1.146526,0.01027 1.6601563,-0.244141 a 1.0001,1.0001 0 0 0 0.00195,0 l 12.8398434,-6.36914 a 1.0001,1.0001 0 0 0 0.0098,-0.0059 c 0.661445,-0.337759 1.186434,-0.876775 1.509766,-1.523437 l 0.375,-0.7500004 v -0.00195 C 23.444997,8.1119805 22.712335,6.438326 21.267578,6.0371094 L 20.306641,5.7597656 a 1.0001,1.0001 0 0 0 -0.0098,-0.00391 C 19.480334,5.5289841 18.608506,5.6150842 17.851562,5.9960937 l -4.183593,2.0566407 a 1.0001,1.0001 0 0 0 -0.002,0.00195 c -0.34248,0.1699186 -0.746534,0.1319023 -1.050782,-0.099609 a 1.0001,1.0001 0 0 0 -0.0078,-0.00586 L 8.59375,4.953125 c -5.018e-4,-3.799e-4 -0.00145,3.795e-4 -0.00195,0 C 8.140821,4.6121692 7.6117011,4.4113694 7.0683594,4.359375 Z M 6.3417969,6.4472656 H 6.34375 C 6.6844478,6.2805333 7.0841857,6.3178483 7.3867187,6.546875 a 1.0001,1.0001 0 0 0 0.00586,0.00391 l 4.0117189,2.9941407 c 0.905903,0.6893301 2.130652,0.8067171 3.150391,0.3007812 l 4.185546,-2.0585937 a 1.0001,1.0001 0 0 0 0.0098,-0.00391 c 0.312916,-0.1577387 0.672046,-0.1929272 1.009766,-0.099609 h 0.002 l 0.960937,0.2773438 a 1.0001,1.0001 0 0 0 0.0098,0.00195 c 0.26515,0.073634 0.374052,0.3237179 0.248047,0.5683594 a 1.0001,1.0001 0 0 0 -0.0059,0.011719 l -0.378906,0.7597656 c -0.136247,0.2724943 -0.3516,0.4924796 -0.628906,0.6347656 -8.57e-4,4.398e-4 -0.0011,0.00151 -0.002,0.00195 L 7.1347656,16.304687 c -0.1884501,0.09288 -0.4021647,0.124757 -0.609375,0.08984 a 1.0001,1.0001 0 0 0 -0.042969,0.01172 L 4.6679687,16.099609 3.3417969,13.447266 3.546875,13.34375 a 1.0001,1.0001 0 0 0 0.00391,0 c 0.2826228,-0.142415 0.6114909,-0.141176 0.8945312,0 L 4.5625,13.412109 a 1.0001,1.0001 0 0 0 0.056641,0.03125 c 0.8483322,0.427478 1.8528398,0.427478 2.7011719,0 L 8.4375,12.898438 a 1.0001,1.0001 0 0 0 0.4570313,-1.345704 z"
     id="path4" />
</svg>
