<?xml version="1.0" encoding="UTF-8" standalone="no"?>
<svg
   width="24"
   height="24"
   viewBox="0 0 24 24"
   fill="none"
   stroke="currentColor"
   stroke-width="2"
   stroke-linecap="round"
   stroke-linejoin="round"
   version="1.1"
   id="svg4"
   xmlns="http://www.w3.org/2000/svg"
   xmlns:svg="http://www.w3.org/2000/svg">
  <defs
     id="defs8" />
  <path
     style="color:#000000;fill:#000000;-inkscape-stroke:none"
     d="m 20.089844,1.8007812 c -0.4715,6.642e-4 -0.958354,0.093706 -1.447266,0.2441407 -0.977823,0.3008686 -1.981759,0.8801966 -2.849609,1.7480469 L 12.679688,6.90625 5.0136719,5.2226562 A 1.0001,1.0001 0 0 0 4.9960937,5.21875 C 4.1440913,5.0483495 3.1835726,5.494183 2.8046875,6.2519531 l 0.037109,-0.066406 -0.2988281,0.5 A 1.0001,1.0001 0 0 0 2.4707031,6.828125 C 2.1426377,7.6482886 2.3369435,8.7287818 3.0996094,9.3007813 a 1.0001,1.0001 0 0 0 0.048828,0.033203 L 7.6113281,12.28125 6.4648437,14 H 4 a 1.0001,1.0001 0 0 0 -0.7070312,0.292969 l -1,1 a 1.0001,1.0001 0 0 0 0.1523437,1.539062 l 2.8339844,1.888672 1.8886718,2.833984 a 1.0001,1.0001 0 0 0 1.5390626,0.152344 l 1,-1 A 1.0001,1.0001 0 0 0 10,20 v -2.464844 l 1.71875,-1.146484 2.947266,4.46289 a 1.0001,1.0001 0 0 0 0.0332,0.04883 c 0.571999,0.762666 1.652492,0.956971 2.472656,0.628906 l 0.5,-0.201172 a 1.0001,1.0001 0 0 0 0.228516,-0.128906 c 0.613332,-0.46 1.051259,-1.34331 0.880859,-2.195313 a 1.0001,1.0001 0 0 0 -0.0039,-0.01758 L 17.09375,11.320313 20.207031,8.2070313 C 21.074882,7.339181 21.65421,6.3352448 21.955078,5.3574219 22.255947,4.3795989 22.323416,3.4105044 21.894531,2.5527344 A 1.0001,1.0001 0 0 0 21.447266,2.1054688 C 21.018381,1.8910262 20.561344,1.8001171 20.089844,1.8007812 Z m -0.0059,2.1152344 c 0.02258,0.2478517 0.08937,0.4341533 -0.03906,0.8515625 -0.199131,0.6471754 -0.619805,1.3932424 -1.251953,2.0253906 l -3.5,3.5000003 a 1.0001,1.0001 0 0 0 -0.269531,0.921875 l 1.796874,8.18164 c 0.02247,0.112361 -0.02186,0.109866 -0.0918,0.154297 l -0.300782,0.121094 c -0.179835,0.07193 -0.09895,0.06468 -0.126953,0.02734 l -3.466797,-5.25 a 1.0001,1.0001 0 0 0 -1.388671,-0.28125 l -3.0000005,2 A 1.0001,1.0001 0 0 0 8,17 v 2.197266 L 6.8320312,17.445312 A 1.0001,1.0001 0 0 0 6.5546875,17.167969 L 4.8027344,16 H 7 a 1.0001,1.0001 0 0 0 0.8320312,-0.445312 l 2.0000001,-3 a 1.0001,1.0001 0 0 0 -0.28125,-1.388672 L 4.3007812,7.6992187 c -0.025883,-0.019412 -1.979e-4,-0.049499 0.019531,-0.087891 L 4.5566406,7.2148437 A 1.0001,1.0001 0 0 0 4.59375,7.1464844 c 0.021115,-0.042229 -0.1382309,0.0036 0.00977,0.033203 l 8.1816404,1.796875 a 1.0001,1.0001 0 0 0 0.921875,-0.2695312 l 3.5,-3.5000001 C 17.839179,4.574883 18.585246,4.154209 19.232422,3.9550781 19.649831,3.8266445 19.836133,3.893433 20.083984,3.9160156 Z"
     id="path2" />
</svg>
