<?xml version="1.0" encoding="UTF-8" standalone="no"?>
<svg
   width="24"
   height="24"
   viewBox="0 0 24 24"
   fill="none"
   stroke="currentColor"
   stroke-width="2"
   stroke-linecap="round"
   stroke-linejoin="round"
   version="1.1"
   id="svg10"
   xmlns="http://www.w3.org/2000/svg"
   xmlns:svg="http://www.w3.org/2000/svg">
  <defs
     id="defs14" />
  <path
     style="color:#000000;fill:#000000;-inkscape-stroke:none"
     d="m 12,16 a 1,1 0 0 0 -1,1 v 5 a 1,1 0 0 0 1,1 1,1 0 0 0 1,-1 v -5 a 1,1 0 0 0 -1,-1 z"
     id="path2" />
  <path
     style="color:#000000;fill:#000000;-inkscape-stroke:none"
     d="M 9,1 A 1,1 0 0 0 8,2 V 8 A 1,1 0 0 0 9,9 1,1 0 0 0 10,8 V 2 A 1,1 0 0 0 9,1 Z"
     id="path4" />
  <path
     style="color:#000000;fill:#000000;-inkscape-stroke:none"
     d="m 15,1 a 1,1 0 0 0 -1,1 v 6 a 1,1 0 0 0 1,1 1,1 0 0 0 1,-1 V 2 A 1,1 0 0 0 15,1 Z"
     id="path6" />
  <path
     style="color:#000000;fill:#000000;-inkscape-stroke:none"
     d="M 6,7 A 1.0001,1.0001 0 0 0 5,8 v 5 c 0,2.749576 2.2504236,5 5,5 h 4 c 2.749576,0 5,-2.250424 5,-5 V 8 A 1.0001,1.0001 0 0 0 18,7 Z m 1,2 h 10 v 4 c 0,1.668697 -1.331303,3 -3,3 H 10 C 8.3313028,16 7,14.668697 7,13 Z"
     id="path8" />
</svg>
