<?xml version="1.0" encoding="UTF-8" standalone="no"?>
<svg
   width="24"
   height="24"
   viewBox="0 0 24 24"
   fill="none"
   stroke="currentColor"
   stroke-width="2"
   stroke-linecap="round"
   stroke-linejoin="round"
   version="1.1"
   id="svg12"
   xmlns="http://www.w3.org/2000/svg"
   xmlns:svg="http://www.w3.org/2000/svg">
  <defs
     id="defs16" />
  <path
     style="color:#000000;fill:#000000;-inkscape-stroke:none"
     d="M 9,1 A 1,1 0 0 0 8,2 V 8 A 1,1 0 0 0 9,9 1,1 0 0 0 10,8 V 2 A 1,1 0 0 0 9,1 Z"
     id="path2" />
  <path
     style="color:#000000;fill:#000000;-inkscape-stroke:none"
     d="m 15,1 a 1,1 0 0 0 -1,1 v 6 a 1,1 0 0 0 1,1 1,1 0 0 0 1,-1 V 2 A 1,1 0 0 0 15,1 Z"
     id="path4" />
  <path
     style="color:#000000;fill:#000000;-inkscape-stroke:none"
     d="m 12,16 a 1,1 0 0 0 -1,1 v 5 a 1,1 0 0 0 1,1 1,1 0 0 0 1,-1 v -5 a 1,1 0 0 0 -1,-1 z"
     id="path6" />
  <path
     style="color:#000000;fill:#000000;-inkscape-stroke:none"
     d="M 5,7 A 1,1 0 0 0 4,8 1,1 0 0 0 5,9 H 19 A 1,1 0 0 0 20,8 1,1 0 0 0 19,7 Z"
     id="path8" />
  <path
     style="color:#000000;fill:#000000;-inkscape-stroke:none"
     d="M 6,7 A 1.0001,1.0001 0 0 0 5,8 v 3 c 0,3.854147 3.1458563,7 7,7 3.854144,0 7,-3.145853 7,-7 V 8 A 1.0001,1.0001 0 0 0 18,7 Z m 1,2 h 10 v 2 c 0,2.773268 -2.226734,5 -5,5 -2.7732665,0 -5,-2.226732 -5,-5 z"
     id="path10" />
</svg>
