<?xml version="1.0" encoding="UTF-8" standalone="no"?>
<svg
   width="24"
   height="24"
   viewBox="0 0 24 24"
   fill="none"
   stroke="currentColor"
   stroke-width="2"
   stroke-linecap="round"
   stroke-linejoin="round"
   version="1.1"
   id="svg12"
   xmlns="http://www.w3.org/2000/svg"
   xmlns:svg="http://www.w3.org/2000/svg">
  <defs
     id="defs16" />
  <path
     style="color:#000000;fill:#000000;-inkscape-stroke:none"
     d="M 13.625,1.21875 A 1,1 0 0 0 12.21875,1.375 l -2,2.5 A 1.0001,1.0001 0 0 0 11,5.5 h 0.917969 L 11.21875,6.375 A 1,1 0 0 0 11.375,7.78125 1,1 0 0 0 12.78125,7.625 l 2,-2.5 A 1.0001,1.0001 0 0 0 14,3.5 H 13.082031 L 13.78125,2.625 A 1,1 0 0 0 13.625,1.21875 Z"
     id="path2" />
  <path
     style="color:#000000;fill:#000000;-inkscape-stroke:none"
     d="m 10,10 a 1,1 0 0 0 -1,1 v 3 a 1,1 0 0 0 1,1 1,1 0 0 0 1,-1 v -3 a 1,1 0 0 0 -1,-1 z"
     id="path4" />
  <path
     style="color:#000000;fill:#000000;-inkscape-stroke:none"
     d="m 14,10 a 1,1 0 0 0 -1,1 v 3 a 1,1 0 0 0 1,1 1,1 0 0 0 1,-1 v -3 a 1,1 0 0 0 -1,-1 z"
     id="path6" />
  <path
     style="color:#000000;fill:#000000;-inkscape-stroke:none"
     d="m 8,13 a 1.0001,1.0001 0 0 0 -1,1 v 2 c 0,2.209802 1.7901983,4 4,4 h 2 c 2.209802,0 4,-1.790198 4,-4 v -2 a 1.0001,1.0001 0 0 0 -1,-1 z m 1,2 h 6 v 1 c 0,1.190195 -0.809805,2 -2,2 H 11 C 9.8098051,18 9,17.190195 9,16 Z"
     id="path8" />
  <path
     style="color:#000000;fill:#000000;-inkscape-stroke:none"
     d="m 12,18 a 1,1 0 0 0 -1,1 v 3 a 1,1 0 0 0 1,1 1,1 0 0 0 1,-1 v -3 a 1,1 0 0 0 -1,-1 z"
     id="path10" />
</svg>
