<?xml version="1.0" encoding="UTF-8" standalone="no"?>
<svg
   width="24"
   height="24"
   viewBox="0 0 24 24"
   fill="none"
   stroke="currentColor"
   stroke-width="2"
   stroke-linecap="round"
   stroke-linejoin="round"
   version="1.1"
   id="svg12"
   xmlns="http://www.w3.org/2000/svg"
   xmlns:svg="http://www.w3.org/2000/svg">
  <defs
     id="defs16" />
  <path
     style="color:#000000;fill:#000000;-inkscape-stroke:none"
     d="M 5.2929687,11.292969 2.9921875,13.59375 c -1.3228753,1.320473 -1.3222518,3.494838 0.00195,4.814453 L 5.59375,21.007812 c 1.3204734,1.322876 3.4948382,1.322252 4.814453,-0.002 l 2.298828,-2.298828 a 1.0001,1.0001 0 0 0 0,-1.414062 l -5.9999998,-6 a 1.0001,1.0001 0 0 0 -1.4140625,0 z M 6,13.414063 10.585938,18 8.9921875,19.59375 c -0.5555758,0.557508 -1.4287992,0.557508 -1.984375,0 L 4.40625,16.992187 c -0.5575083,-0.555575 -0.5575083,-1.428799 0,-1.984374 z"
     id="path2" />
  <path
     style="color:#000000;fill:#000000;-inkscape-stroke:none"
     d="m 5,18 a 1,1 0 0 0 -0.7070313,0.292969 l -3,3 a 1,1 0 0 0 0,1.414062 1,1 0 0 0 1.4140626,0 l 2.9999999,-3 a 1,1 0 0 0 0,-1.414062 A 1,1 0 0 0 5,18 Z"
     id="path4" />
  <path
     style="color:#000000;fill:#000000;-inkscape-stroke:none"
     d="m 10,10 a 1,1 0 0 0 -0.7070312,0.292969 l -2.5000001,2.5 a 1,1 0 0 0 0,1.414062 1,1 0 0 0 1.4140626,0 l 2.4999997,-2.5 a 1,1 0 0 0 0,-1.414062 A 1,1 0 0 0 10,10 Z"
     id="path6" />
  <path
     style="color:#000000;fill:#000000;-inkscape-stroke:none"
     d="m 13,13 a 1,1 0 0 0 -0.707031,0.292969 l -2.5000002,2.5 a 1,1 0 0 0 0,1.414062 1,1 0 0 0 1.4140622,0 l 2.5,-2.5 a 1,1 0 0 0 0,-1.414062 A 1,1 0 0 0 13,13 Z"
     id="path8" />
  <path
     style="color:#000000;fill:#000000;-inkscape-stroke:none"
     d="m 17.292969,2.2929688 -4,3.9999999 A 1.0001,1.0001 0 0 0 14,8 h 3.585937 l -2.292968,2.292969 a 1,1 0 0 0 0,1.414062 1,1 0 0 0 1.414062,0 l 4,-3.9999998 A 1.0001,1.0001 0 0 0 20,6 h -3.585938 l 2.292969,-2.2929687 a 1,1 0 0 0 0,-1.4140625 1,1 0 0 0 -1.414062,0 z"
     id="path10" />
</svg>
