<?xml version="1.0" encoding="UTF-8" standalone="no"?>
<svg
   width="24"
   height="24"
   viewBox="0 0 24 24"
   fill="none"
   stroke="currentColor"
   stroke-width="2"
   stroke-linecap="round"
   stroke-linejoin="round"
   version="1.1"
   id="svg6"
   xmlns="http://www.w3.org/2000/svg"
   xmlns:svg="http://www.w3.org/2000/svg">
  <defs
     id="defs10" />
  <path
     style="color:#000000;fill:#000000;-inkscape-stroke:none"
     d="m 12,4 a 1,1 0 0 0 -1,1 v 14 a 1,1 0 0 0 1,1 1,1 0 0 0 1,-1 V 5 A 1,1 0 0 0 12,4 Z"
     id="line2" />
  <path
     style="color:#000000;fill:#000000;-inkscape-stroke:none"
     d="m 5,11 a 1,1 0 0 0 -1,1 1,1 0 0 0 1,1 h 14 a 1,1 0 0 0 1,-1 1,1 0 0 0 -1,-1 z"
     id="line4" />
</svg>
