<?xml version="1.0" encoding="UTF-8" standalone="no"?>
<svg
   width="24"
   height="24"
   viewBox="0 0 24 24"
   fill="none"
   stroke="currentColor"
   stroke-width="2"
   stroke-linecap="round"
   stroke-linejoin="round"
   version="1.1"
   id="svg12"
   xmlns="http://www.w3.org/2000/svg"
   xmlns:svg="http://www.w3.org/2000/svg">
  <defs
     id="defs16" />
  <path
     style="color:#000000;fill:#000000;-inkscape-stroke:none"
     d="M 3,1 A 1,1 0 0 0 2,2 v 1 c 0,0.5833327 0.3500415,1.0931336 0.671875,1.3613281 0.3218335,0.2681946 0.6308596,0.4082033 0.8808594,0.5332031 0.094751,0.047376 0.113926,0.065031 0.1875,0.1054688 -0.073574,0.040438 -0.092749,0.058093 -0.1875,0.1054687 C 3.3027346,5.2304686 2.9937085,5.3704773 2.671875,5.6386719 2.3500415,5.9068664 2,6.4166673 2,7 2,7.5833327 2.3500415,8.0931336 2.671875,8.3613281 2.9937085,8.6295227 3.3027346,8.7695314 3.5527344,8.8945313 3.6474855,8.9419068 3.6666604,8.9595619 3.7402344,9 3.6666604,9.0404381 3.6474855,9.0580932 3.5527344,9.1054688 3.3027346,9.2304686 2.9937085,9.3704773 2.671875,9.6386719 2.3500415,9.9068664 2,10.416667 2,11 c 0,0.583333 0.3500415,1.093134 0.671875,1.361328 0.3218335,0.268195 0.6308596,0.408203 0.8808594,0.533203 0.2499997,0.125 0.4409744,0.234992 0.4941406,0.279297 C 4.1000412,13.218133 4,13.083333 4,13 a 1,1 0 0 0 1,1 1,1 0 0 0 1,-1 C 6,12.416667 5.6499585,11.906866 5.328125,11.638672 5.0062915,11.370477 4.6972654,11.230469 4.4472656,11.105469 4.3525145,11.058093 4.3333396,11.040438 4.2597656,11 c 0.073574,-0.04044 0.092749,-0.05809 0.1875,-0.105469 0.2499998,-0.125 0.5590259,-0.265008 0.8808594,-0.533203 C 5.6499585,10.093134 6,9.5833327 6,9 6,8.4166673 5.6499585,7.9068664 5.328125,7.6386719 5.0062915,7.3704773 4.6972654,7.2304686 4.4472656,7.1054687 4.3525145,7.0580932 4.3333396,7.0404381 4.2597656,7 4.3333396,6.9595619 4.3525145,6.9419068 4.4472656,6.8945312 4.6972654,6.7695314 5.0062915,6.6295227 5.328125,6.3613281 5.6499585,6.0931336 6,5.5833327 6,5 6,4.4166672 5.6499585,3.9068664 5.328125,3.6386719 5.0062915,3.3704773 4.6972654,3.2304686 4.4472656,3.1054688 4.2211653,2.9924186 4.0713227,2.9046416 4,2.8535156 V 2 A 1,1 0 0 0 3,1 Z"
     id="path2" />
  <path
     style="color:#000000;fill:#000000;-inkscape-stroke:none"
     d="m 18,5 a 1,1 0 0 0 -1,1 1,1 0 0 0 1,1 h 0.0098 a 1,1 0 0 0 1,-1 1,1 0 0 0 -1,-1 z"
     id="path4" />
  <path
     style="color:#000000;fill:#000000;-inkscape-stroke:none"
     d="m 6,17 a 1,1 0 0 0 -1,1 1,1 0 0 0 1,1 h 0.00977 a 1,1 0 0 0 1,-1 1,1 0 0 0 -1,-1 z"
     id="path6" />
  <path
     style="color:#000000;fill:#000000;-inkscape-stroke:none"
     d="M 18.236328,0.93359375 C 16.958652,0.85843605 15.582999,1.342782 14.462891,2.4628906 L 2.4628906,14.462891 c -1.1201086,1.120108 -1.60445455,2.495761 -1.52929685,3.773437 0.0751576,1.277676 0.66466295,2.436147 1.52929685,3.300781 0.8646339,0.864634 2.0231051,1.45414 3.3007813,1.529297 1.2776762,0.07516 2.6533289,-0.409188 3.7734375,-1.529297 L 21.537109,9.5371094 C 22.657218,8.4170008 23.141564,7.0413481 23.066406,5.7636719 22.991249,4.4859957 22.401743,3.3275245 21.537109,2.4628906 20.672475,1.5982567 19.514004,1.0087514 18.236328,0.93359375 Z M 18.117187,2.9296875 c 0.726905,0.042759 1.455495,0.3969009 2.00586,0.9472656 0.550365,0.5503647 0.904506,1.2789547 0.947265,2.0058594 0.04276,0.7269047 -0.18071,1.473679 -0.947265,2.2402344 L 8.1230469,20.123047 C 7.3564915,20.889602 6.6097172,21.113072 5.8828125,21.070312 5.1559078,21.027553 4.4273178,20.673412 3.8769531,20.123047 3.3265884,19.572682 2.9724468,18.844092 2.9296875,18.117187 2.8869282,17.390283 3.1103977,16.643509 3.8769531,15.876953 L 15.876953,3.8769531 c 0.766556,-0.7665554 1.51333,-0.9900249 2.240234,-0.9472656 z"
     id="path8" />
  <path
     style="color:#000000;fill:#000000;-inkscape-stroke:none"
     d="m 22,5 a 1,1 0 0 0 -1,1 v 12 c 0,1.276015 -0.887499,2.150854 -2,2.587891 v -8.927735 a 1,1 0 0 0 -1,-1 1,1 0 0 0 -1,1 V 22 a 1.0001,1.0001 0 0 0 1,1 c 2.749576,0 5,-2.250424 5,-5 V 6 A 1,1 0 0 0 22,5 Z"
     id="path10" />
</svg>
