<?xml version="1.0" encoding="UTF-8" standalone="no"?>
<svg
   width="24"
   height="24"
   viewBox="0 0 24 24"
   fill="none"
   stroke="currentColor"
   stroke-width="2"
   stroke-linecap="round"
   stroke-linejoin="round"
   version="1.1"
   id="svg6"
   xmlns="http://www.w3.org/2000/svg"
   xmlns:svg="http://www.w3.org/2000/svg">
  <defs
     id="defs10" />
  <path
     style="color:#000000;fill:#000000;-inkscape-stroke:none"
     d="M 4,2 C 2.354992,2 1,3.354992 1,5 v 6 c 0,6.063282 4.9367185,11 11,11 6.063282,0 11,-4.936718 11,-11 V 5 C 23,3.354992 21.645008,2 20,2 Z m 0,2 h 16 c 0.564129,0 1,0.4358712 1,1 v 6 c 0,4.982402 -4.017598,9 -9,9 C 7.0175976,20 3,15.982402 3,11 V 5 C 3,4.4358712 3.4358712,4 4,4 Z"
     id="path2" />
  <path
     style="color:#000000;fill:#000000;-inkscape-stroke:none"
     d="m 8,9 a 1,1 0 0 0 -0.7070313,0.2929688 1,1 0 0 0 0,1.4140622 l 4.0000003,4 a 1.0001,1.0001 0 0 0 1.414062,0 l 4,-4 a 1,1 0 0 0 0,-1.4140622 1,1 0 0 0 -1.414062,0 L 12,12.585938 8.7070313,9.2929688 A 1,1 0 0 0 8,9 Z"
     id="polyline4" />
</svg>
