<?xml version="1.0" encoding="UTF-8" standalone="no"?>
<svg
   width="24"
   height="24"
   viewBox="0 0 24 24"
   fill="none"
   stroke="currentColor"
   stroke-width="2"
   stroke-linecap="round"
   stroke-linejoin="round"
   version="1.1"
   id="svg10"
   xmlns="http://www.w3.org/2000/svg"
   xmlns:svg="http://www.w3.org/2000/svg">
  <defs
     id="defs14" />
  <path
     style="color:#000000;fill:#000000;-inkscape-stroke:none"
     d="m 12,9 c -1.092724,0 -2,0.9072762 -2,2 0,1.092724 0.907276,2 2,2 1.092724,0 2,-0.907276 2,-2 0,-1.0927238 -0.907276,-2 -2,-2 z"
     id="circle2" />
  <path
     style="color:#000000;fill:#000000;-inkscape-stroke:none"
     d="m 12,15 c -0.472222,0 -0.957881,0.152014 -1.351562,0.501953 C 10.254756,15.851892 10,16.416667 10,17 c 0,0.476666 0.09182,1.115413 0.197266,1.994141 0.105447,0.878727 0.230302,1.877351 0.308593,2.611328 L 10.5,21.5 c 0,0.416666 0.192256,0.856441 0.492188,1.123047 C 11.292119,22.889653 11.652778,23 12,23 12.347222,23 12.707881,22.889653 13.007813,22.623047 13.307744,22.356441 13.5,21.916666 13.5,21.5 l -0.0059,0.105469 c 0.07829,-0.733977 0.203146,-1.732601 0.308593,-2.611328 C 13.908182,18.115413 14,17.476666 14,17 14,16.416667 13.745244,15.851892 13.351563,15.501953 12.957881,15.152014 12.472222,15 12,15 Z"
     id="path4" />
  <path
     style="color:#000000;fill:#000000;-inkscape-stroke:none"
     d="M 12,5 C 7.1187906,5 4.2703651,10.694471 7.1992187,14.599609 a 1,1 0 0 0 1.4003907,0.201172 1,1 0 0 0 0.2011719,-1.40039 C 6.7852087,10.712961 8.6409339,7 12,7 c 3.359066,0 5.214791,3.712961 3.199219,6.400391 a 1,1 0 0 0 0.201172,1.40039 1,1 0 0 0 1.40039,-0.201172 C 19.729635,10.694471 16.881209,5 12,5 Z"
     id="path6" />
  <path
     style="color:#000000;fill:#000000;-inkscape-stroke:none"
     d="m 12,1.0175781 c -4.8813346,0 -8.3947855,3.2222315 -9.5703125,7.0957032 -1.175527,3.8734717 -0.044424,8.5060157 4.015625,11.2187497 A 1,1 0 0 0 7.8320312,19.054687 1,1 0 0 0 7.5546875,17.667969 C 4.2131758,15.435327 3.3934719,11.826568 4.34375,8.6953125 5.2940281,5.5640572 7.9830039,3.0175781 12,3.0175781 c 4.016996,0 6.705972,2.5464791 7.65625,5.6777344 0.950278,3.1312555 0.130574,6.7400145 -3.210938,8.9726565 a 1,1 0 0 0 -0.277343,1.386718 1,1 0 0 0 1.386718,0.277344 C 21.614737,16.619297 22.745839,11.986753 21.570312,8.1132813 20.394786,4.2398096 16.881335,1.0175781 12,1.0175781 Z"
     id="path8" />
</svg>
