<?xml version="1.0" encoding="UTF-8" standalone="no"?>
<svg
   width="24"
   height="24"
   viewBox="0 0 24 24"
   fill="none"
   stroke="currentColor"
   stroke-width="2"
   stroke-linecap="round"
   stroke-linejoin="round"
   version="1.1"
   id="svg12"
   xmlns="http://www.w3.org/2000/svg"
   xmlns:svg="http://www.w3.org/2000/svg">
  <defs
     id="defs16" />
  <path
     style="color:#000000;fill:#000000;-inkscape-stroke:none"
     d="m 22,13 a 1,1 0 0 0 -1,1 c 0,3.877834 -3.122166,7 -7,7 a 1,1 0 0 0 -1,1 1,1 0 0 0 1,1 c 4.958713,0 9,-4.041287 9,-9 a 1,1 0 0 0 -1,-1 z"
     id="path2" />
  <path
     style="color:#000000;fill:#000000;-inkscape-stroke:none"
     d="m 16,7 c -1.645008,0 -3,1.354992 -3,3 a 1,1 0 0 0 1,1 1,1 0 0 0 1,-1 c 0,-0.5641288 0.435871,-1 1,-1 0.564129,0 1,0.4358712 1,1 v 1 a 1,1 0 0 0 1,1 1,1 0 0 0 1,-1 V 10 C 19,8.354992 17.645008,7 16,7 Z"
     id="path4" />
  <path
     style="color:#000000;fill:#000000;-inkscape-stroke:none"
     d="M 12,6 C 10.354992,6 9,7.354992 9,9 v 1 a 1,1 0 0 0 1,1 1,1 0 0 0 1,-1 V 9 c 0,-0.5641288 0.435871,-1 1,-1 0.564129,0 1,0.4358712 1,1 v 1 a 1,1 0 0 0 1,1 1,1 0 0 0 1,-1 V 9 C 15,7.354992 13.645008,6 12,6 Z"
     id="path6" />
  <path
     style="color:#000000;fill:#000000;-inkscape-stroke:none"
     d="M 8,1 C 6.354992,1 5,2.354992 5,4 v 10 a 1,1 0 0 0 1,1 1,1 0 0 0 1,-1 V 4 C 7,3.4358712 7.4358712,3 8,3 8.5641288,3 9,3.4358712 9,4 v 5.5 a 1,1 0 0 0 1,1 1,1 0 0 0 1,-1 V 4 C 11,2.354992 9.645008,1 8,1 Z"
     id="path8" />
  <path
     style="color:#000000;fill:#000000;-inkscape-stroke:none"
     d="M 20,8 C 19.277779,8 18.542119,8.2353477 17.960937,8.7519531 17.379756,9.2685585 17,10.083334 17,11 a 1,1 0 0 0 1,1 1,1 0 0 0 1,-1 c 0,-0.416666 0.120245,-0.601893 0.289062,-0.751953 C 19.45788,10.097987 19.722222,10 20,10 c 0.277778,0 0.54212,0.09799 0.710937,0.248047 C 20.879755,10.398107 21,10.583334 21,11 v 3 c 0,3.877834 -3.122166,7 -7,7 H 12 C 9.4060913,21 8.0736756,20.300261 6.7167969,18.953125 l -0.00195,-0.002 -3.5624999,-3.560547 -0.00195,-0.0039 C 2.8935407,15.100386 2.8495668,14.88463 2.8671875,14.664063 c 0.017719,-0.221804 0.1342569,-0.465 0.3222656,-0.652344 0.1880087,-0.187345 0.4304787,-0.303379 0.6523438,-0.320313 0.221865,-0.01693 0.4367809,0.02732 0.7246093,0.289063 l 1.7265625,1.726562 a 1,1 0 0 0 1.4140625,0 1,1 0 0 0 0,-1.414062 L 5.9472656,12.533203 A 1.0001,1.0001 0 0 0 5.9121094,12.5 C 5.260867,11.90778 4.440111,11.639971 3.6894531,11.697266 c -0.7506579,0.05729 -1.4147283,0.400861 -1.9121094,0.896484 -0.497381,0.495623 -0.84434502,1.159706 -0.90429682,1.910156 -0.0599518,0.750451 0.20501102,1.573228 0.79492182,2.226563 a 1.0001,1.0001 0 0 0 0.035156,0.03711 l 3.5996094,3.599609 a 1.0001,1.0001 0 0 0 0.00195,0.002 C 6.9270864,21.980651 8.9952411,23 12,23 h 2 c 4.958713,0 9,-4.041287 9,-9 V 11 C 23,10.083334 22.620244,9.2685585 22.039062,8.7519531 21.457881,8.2353477 20.722221,8 20,8 Z"
     id="path10" />
</svg>
