<?xml version="1.0" encoding="UTF-8" standalone="no"?>
<svg
   width="24"
   height="24"
   viewBox="0 0 24 24"
   fill="none"
   stroke="currentColor"
   stroke-width="2"
   stroke-linecap="round"
   stroke-linejoin="round"
   version="1.1"
   id="svg10"
   xmlns="http://www.w3.org/2000/svg"
   xmlns:svg="http://www.w3.org/2000/svg">
  <defs
     id="defs14" />
  <path
     style="color:#000000;fill:#000000;-inkscape-stroke:none"
     d="M 8,1 C 7.2777786,1 6.5421188,1.2353477 5.9609375,1.7519531 5.5691445,2.1002134 5.3239145,2.6109746 5.1699219,3.1699219 4.6109746,3.3239145 4.1002134,3.5691445 3.7519531,3.9609375 3.2353477,4.5421188 3,5.2777786 3,6 3,6.7222214 3.2353477,7.4578812 3.7519531,8.0390625 4.2685585,8.6202438 5.0833344,9 6,9 A 1,1 0 0 0 7,8 1,1 0 0 0 6,7 C 5.5833341,7 5.3981072,6.8797554 5.2480469,6.7109375 5.0979866,6.5421196 5,6.2777776 5,6 5,5.7222224 5.0979866,5.4578804 5.2480469,5.2890625 5.3981072,5.1202446 5.5833341,5 6,5 A 1.0001,1.0001 0 0 0 7,4 C 7,3.5833341 7.1202446,3.3981072 7.2890625,3.2480469 7.4578804,3.0979866 7.7222224,3 8,3 8.2777776,3 8.5421196,3.0979866 8.7109375,3.2480469 8.8797554,3.3981072 9,3.5833341 9,4 a 1.0001,1.0001 0 0 0 2,0 C 11,3.5833341 11.120245,3.3981072 11.289063,3.2480469 11.45788,3.0979866 11.722222,3 12,3 12.277778,3 12.54212,3.0979866 12.710938,3.2480469 12.879755,3.3981072 13,3.5833341 13,4 a 1.0001,1.0001 0 0 0 2,0 C 15,3.5833341 15.120245,3.3981072 15.289063,3.2480469 15.45788,3.0979866 15.722222,3 16,3 16.277778,3 16.54212,3.0979866 16.710937,3.2480469 16.879755,3.3981072 17,3.5833341 17,4 a 1.0001,1.0001 0 0 0 1,1 c 0.416666,0 0.601893,0.1202446 0.751953,0.2890625 C 18.902013,5.4578804 19,5.7222224 19,6 19,6.2777776 18.902013,6.5421196 18.751953,6.7109375 18.601893,6.8797554 18.416666,7 18,7 a 1,1 0 0 0 -1,1 1,1 0 0 0 1,1 C 18.916666,9 19.731441,8.6202438 20.248047,8.0390625 20.764652,7.4578812 21,6.7222214 21,6 21,5.2777786 20.764652,4.5421188 20.248047,3.9609375 19.899787,3.5691445 19.389025,3.3239145 18.830078,3.1699219 18.676085,2.6109746 18.430856,2.1002134 18.039062,1.7519531 17.457881,1.2353477 16.722221,1 16,1 15.29153,1 14.575837,1.2419791 14,1.7382812 13.424163,1.2419791 12.70847,1 12,1 11.29153,1 10.575837,1.2419791 10,1.7382812 9.4241627,1.2419791 8.7084701,1 8,1 Z"
     id="path2" />
  <path
     style="color:#000000;fill:#000000;-inkscape-stroke:none"
     d="M 8.9296875,7.0019531 A 1,1 0 0 0 8.0019531,8.0703125 l 1,13.9999995 a 1,1 0 0 0 1.0683599,0.927735 1,1 0 0 0 0.927734,-1.06836 L 9.9980469,7.9296875 A 1,1 0 0 0 8.9296875,7.0019531 Z"
     id="path4" />
  <path
     style="color:#000000;fill:#000000;-inkscape-stroke:none"
     d="m 15.070313,7.0019531 a 1,1 0 0 0 -1.06836,0.9277344 l -1,13.9999995 a 1,1 0 0 0 0.927735,1.06836 1,1 0 0 0 1.068359,-0.927735 l 1,-13.9999995 A 1,1 0 0 0 15.070313,7.0019531 Z"
     id="path6" />
  <path
     style="color:#000000;fill:#000000;-inkscape-stroke:none"
     d="M 4,7 C 3.4833338,7 2.9642996,7.2177572 2.6152344,7.625 2.2661691,8.0322428 2.1214207,8.615243 2.2128906,9.1640625 a 1.0001,1.0001 0 0 0 0.00977,0.046875 l 2.5996093,11.9999995 -0.00781,-0.04687 C 4.9914687,22.226156 5.9555566,23 7,23 h 10 c 0.583333,0 1.025694,-0.240813 1.390625,-0.544922 0.364931,-0.304109 0.676205,-0.695477 0.789062,-1.259766 l -0.002,0.01563 2.59961,-11.9999995 a 1.0001,1.0001 0 0 0 0.0098,-0.046875 C 21.878579,8.615243 21.733831,8.0322428 21.384766,7.625 21.0357,7.2177572 20.516666,7 20,7 Z M 4.2226562,9 H 19.777344 l -2.554688,11.789062 a 1.0001,1.0001 0 0 0 -0.0039,0.01563 c 0.01286,-0.06429 -0.02431,0.04434 -0.109375,0.115235 C 17.024306,20.990813 16.916667,21 17,21 H 7 C 6.8444446,21 6.8100936,20.973843 6.7871094,20.835937 a 1.0001,1.0001 0 0 0 -0.00977,-0.04687 z"
     id="path8" />
</svg>
