<?xml version="1.0" encoding="UTF-8" standalone="no"?>
<svg
   width="24"
   height="24"
   viewBox="0 0 24 24"
   fill="none"
   stroke="currentColor"
   stroke-width="2"
   stroke-linecap="round"
   stroke-linejoin="round"
   version="1.1"
   id="svg6"
   xmlns="http://www.w3.org/2000/svg"
   xmlns:svg="http://www.w3.org/2000/svg">
  <defs
     id="defs10" />
  <path
     style="color:#000000;fill:#000000;-inkscape-stroke:none"
     d="M 6.6699219,0.94921875 C 5.137246,1.0393765 3.7379931,1.748335 2.6933594,2.7929688 1.6487256,3.8376025 0.93781399,5.2368553 0.84765625,6.7695312 0.75749851,8.3022072 1.3332511,9.9465324 2.6933594,11.306641 l 8.0996096,8.099609 a 1.0001,1.0001 0 0 0 0.09375,0.08398 c 1.240027,0.964466 3.067151,0.969959 4.220703,-0.183593 l 4.199219,-4.199219 c 1.153552,-1.153552 1.153552,-3.061292 0,-4.214844 L 11.207031,2.7929688 C 9.846923,1.4328605 8.2025978,0.85906103 6.6699219,0.94921875 Z M 6.7871094,2.9453125 c 0.9819044,-0.057759 1.9993043,0.2551637 3.0058594,1.2617187 l 8.0996092,8.0996098 c 0.446446,0.446446 0.446446,0.940272 0,1.386718 l -4.199219,4.199219 c -0.441183,0.441184 -1.006903,0.445484 -1.560546,0.02539 L 4.1074219,9.8925781 C 3.1008668,8.8860231 2.7879438,7.8686232 2.8457031,6.8867187 2.9034624,5.9048143 3.3770574,4.9373957 4.1074219,4.2070312 4.8377864,3.4766668 5.805205,3.0030718 6.7871094,2.9453125 Z"
     id="path2" />
  <path
     style="color:#000000;fill:#000000;-inkscape-stroke:none"
     d="m 15.792969,15.792969 a 1,1 0 0 0 0,1.414062 l 5.5,5.5 a 1,1 0 0 0 1.414062,0 1,1 0 0 0 0,-1.414062 l -5.5,-5.5 a 1,1 0 0 0 -1.414062,0 z"
     id="path4" />
</svg>
