<?xml version="1.0" encoding="UTF-8" standalone="no"?>
<svg
   width="24"
   height="24"
   viewBox="0 0 24 24"
   fill="none"
   stroke="currentColor"
   stroke-width="2"
   stroke-linecap="round"
   stroke-linejoin="round"
   version="1.1"
   id="svg10"
   xmlns="http://www.w3.org/2000/svg"
   xmlns:svg="http://www.w3.org/2000/svg">
  <defs
     id="defs14" />
  <path
     style="color:#000000;fill:#000000;-inkscape-stroke:none"
     d="M 14,2 C 12.777793,2 11.542123,2.4020639 10.585938,3.2519531 9.6297524,4.1018423 9,5.416736 9,7 a 1,1 0 0 0 1,1 1,1 0 0 0 1,-1 C 11,5.9167667 11.370249,5.2314064 11.914063,4.7480469 12.457876,4.2646874 13.222209,4 14,4 14.777791,4 15.542124,4.2646874 16.085937,4.7480469 16.629751,5.2314064 17,5.9167667 17,7 a 1,1 0 0 0 1,1 1,1 0 0 0 1,-1 C 19,5.416736 18.370248,4.1018423 17.414062,3.2519531 16.457877,2.4020639 15.222207,2 14,2 Z"
     id="path2" />
  <path
     style="color:#000000;fill:#000000;-inkscape-stroke:none"
     d="M 10,6 A 1,1 0 0 0 9,7 v 14 a 1,1 0 0 0 1,1 1,1 0 0 0 1,-1 V 7 A 1,1 0 0 0 10,6 Z"
     id="path4" />
  <path
     style="color:#000000;fill:#000000;-inkscape-stroke:none"
     d="m 6,20 a 1,1 0 0 0 -1,1 1,1 0 0 0 1,1 h 12 a 1,1 0 0 0 1,-1 1,1 0 0 0 -1,-1 z"
     id="path6" />
  <path
     style="color:#000000;fill:#000000;-inkscape-stroke:none"
     d="m 6,12 a 1,1 0 0 0 -1,1 1,1 0 0 0 1,1 h 10 a 1,1 0 0 0 1,-1 1,1 0 0 0 -1,-1 z"
     id="path8" />
</svg>
