<?xml version="1.0" encoding="UTF-8" standalone="no"?>
<svg
   width="24"
   height="24"
   viewBox="0 0 24 24"
   fill="none"
   stroke="currentColor"
   stroke-width="2"
   stroke-linecap="round"
   stroke-linejoin="round"
   version="1.1"
   id="svg6"
   xmlns="http://www.w3.org/2000/svg"
   xmlns:svg="http://www.w3.org/2000/svg">
  <defs
     id="defs10" />
  <path
     style="color:#000000;fill:#000000;-inkscape-stroke:none"
     d="M 4.921875,5.9335937 C 1.8026636,9.0538238 1.318758,13.36186 2.7558594,16.830078 c 1.4371014,3.468218 4.8268006,6.171875 9.2382816,6.171875 4.41148,0 7.803133,-2.703657 9.240234,-6.171875 1.437101,-3.468218 0.951243,-7.7762542 -2.167969,-10.8964843 a 1,1 0 0 0 -1.414062,0 1,1 0 0 0 0,1.4140625 c 2.549434,2.5502666 2.892678,5.9214138 1.734375,8.7167968 -1.158304,2.795383 -3.787046,4.9375 -7.392578,4.9375 -3.605533,0 -6.232322,-2.142117 -7.3906254,-4.9375 C 3.4452122,13.26907 3.7884567,9.8979228 6.3378906,7.3476562 a 1,1 0 0 0 0,-1.4140625 1,1 0 0 0 -1.4160156,0 z"
     id="path2" />
  <path
     style="color:#000000;fill:#000000;-inkscape-stroke:none"
     d="m 12,1 a 1,1 0 0 0 -1,1 v 10 a 1,1 0 0 0 1,1 1,1 0 0 0 1,-1 V 2 A 1,1 0 0 0 12,1 Z"
     id="line4" />
</svg>
