<?xml version="1.0" encoding="UTF-8" standalone="no"?>
<svg
   width="24"
   height="24"
   viewBox="0 0 24 24"
   fill="none"
   stroke="currentColor"
   stroke-width="2"
   stroke-linecap="round"
   stroke-linejoin="round"
   version="1.1"
   id="svg10"
   xmlns="http://www.w3.org/2000/svg"
   xmlns:svg="http://www.w3.org/2000/svg">
  <defs
     id="defs14" />
  <path
     style="color:#000000;fill:#000000;-inkscape-stroke:none"
     d="m 17.652344,5.9335937 a 1,1 0 0 0 0,1.4140625 c 1.944408,1.9453575 2.75306,4.7478128 2.142578,7.4296878 a 1,1 0 0 0 0.753906,1.197265 1,1 0 0 0 1.195313,-0.751953 C 22.506577,11.873238 21.494796,8.3631688 19.066406,5.9335937 a 1,1 0 0 0 -1.414062,0 z"
     id="path2" />
  <path
     style="color:#000000;fill:#000000;-inkscape-stroke:none"
     d="M 6.2460937,5.1640625 A 1,1 0 0 0 5.5175781,5.3945312 C 1.0382996,9.1566226 0.74070047,15.986794 4.8769531,20.123047 9.0132058,24.2593 15.843377,23.9617 19.605469,19.482422 a 1,1 0 0 0 -0.123047,-1.408203 1,1 0 0 0 -1.408203,0.123047 C 15.046699,21.801937 9.6196395,22.037608 6.2910156,18.708984 2.9623917,15.38036 3.1980628,9.9533009 6.8027344,6.9257812 A 1,1 0 0 0 6.9257812,5.5175781 1,1 0 0 0 6.2460937,5.1640625 Z"
     id="path4" />
  <path
     style="color:#000000;fill:#000000;-inkscape-stroke:none"
     d="m 12,1 a 1,1 0 0 0 -1,1 v 4 a 1,1 0 0 0 1,1 1,1 0 0 0 1,-1 V 2 A 1,1 0 0 0 12,1 Z"
     id="path6" />
  <path
     style="color:#000000;fill:#000000;-inkscape-stroke:none"
     d="m 2,1 a 1,1 0 0 0 -0.7070313,0.2929687 1,1 0 0 0 0,1.4140626 L 21.292969,22.707031 a 1,1 0 0 0 1.414062,0 1,1 0 0 0 0,-1.414062 L 2.7070313,1.2929687 A 1,1 0 0 0 2,1 Z"
     id="path8" />
</svg>
