<?xml version="1.0" encoding="UTF-8" standalone="no"?>
<svg
   width="24"
   height="24"
   viewBox="0 0 24 24"
   fill="none"
   stroke="currentColor"
   stroke-width="2"
   stroke-linecap="round"
   stroke-linejoin="round"
   version="1.1"
   id="svg8"
   xmlns="http://www.w3.org/2000/svg"
   xmlns:svg="http://www.w3.org/2000/svg">
  <defs
     id="defs12" />
  <path
     style="color:#000000;fill:#000000;-inkscape-stroke:none"
     d="M 2,2 A 1,1 0 0 0 1,3 1,1 0 0 0 2,4 H 22 A 1,1 0 0 0 23,3 1,1 0 0 0 22,2 Z"
     id="path2" />
  <path
     style="color:#000000;fill:#000000;-inkscape-stroke:none"
     d="M 3,2 A 1,1 0 0 0 2,3 v 11 c 0,1.645008 1.354992,3 3,3 h 14 c 1.645008,0 3,-1.354992 3,-3 V 3 A 1,1 0 0 0 21,2 1,1 0 0 0 20,3 v 11 c 0,0.564129 -0.435871,1 -1,1 H 5 C 4.4358712,15 4,14.564129 4,14 V 3 A 1,1 0 0 0 3,2 Z"
     id="path4" />
  <path
     style="color:#000000;fill:#000000;-inkscape-stroke:none"
     d="m 11.292969,15.292969 -5.0000003,5 a 1,1 0 0 0 0,1.414062 1,1 0 0 0 1.4140625,0 L 12,17.414062 l 4.292969,4.292969 a 1,1 0 0 0 1.414062,0 1,1 0 0 0 0,-1.414062 l -5,-5 a 1.0001,1.0001 0 0 0 -1.414062,0 z"
     id="path6" />
</svg>
