<?xml version="1.0" encoding="UTF-8" standalone="no"?>
<svg
   width="24"
   height="24"
   viewBox="0 0 24 24"
   fill="none"
   stroke="currentColor"
   stroke-width="2"
   stroke-linecap="round"
   stroke-linejoin="round"
   version="1.1"
   id="svg8"
   xmlns="http://www.w3.org/2000/svg"
   xmlns:svg="http://www.w3.org/2000/svg">
  <defs
     id="defs12" />
  <path
     style="color:#000000;fill:#000000;-inkscape-stroke:none"
     d="M 6,1 A 1.0001,1.0001 0 0 0 5,2 V 9 A 1,1 0 0 0 6,10 1,1 0 0 0 7,9 V 3 h 10 v 6 a 1,1 0 0 0 1,1 1,1 0 0 0 1,-1 V 2 A 1.0001,1.0001 0 0 0 18,1 Z"
     id="polyline2" />
  <path
     style="color:#000000;fill:#000000;-inkscape-stroke:none"
     d="M 4,8 C 2.354992,8 1,9.354992 1,11 v 5 c 0,1.645008 1.354992,3 3,3 H 6 A 1,1 0 0 0 7,18 1,1 0 0 0 6,17 H 4 C 3.4358712,17 3,16.564129 3,16 v -5 c 0,-0.564129 0.4358712,-1 1,-1 h 16 c 0.564129,0 1,0.435871 1,1 v 5 c 0,0.564129 -0.435871,1 -1,1 h -2 a 1,1 0 0 0 -1,1 1,1 0 0 0 1,1 h 2 c 1.645008,0 3,-1.354992 3,-3 V 11 C 23,9.354992 21.645008,8 20,8 Z"
     id="path4" />
  <path
     style="color:#000000;fill:#000000;-inkscape-stroke:none"
     d="m 6,13 a 1.0001,1.0001 0 0 0 -1,1 v 8 a 1.0001,1.0001 0 0 0 1,1 h 12 a 1.0001,1.0001 0 0 0 1,-1 v -8 a 1.0001,1.0001 0 0 0 -1,-1 z m 1,2 h 10 v 6 H 7 Z"
     id="rect6" />
</svg>
