<?xml version="1.0" encoding="UTF-8" standalone="no"?>
<svg
   width="24"
   height="24"
   viewBox="0 0 24 24"
   fill="none"
   stroke="currentColor"
   stroke-width="2"
   stroke-linecap="round"
   stroke-linejoin="round"
   version="1.1"
   id="svg14"
   xmlns="http://www.w3.org/2000/svg"
   xmlns:svg="http://www.w3.org/2000/svg">
  <defs
     id="defs18" />
  <path
     style="color:#000000;fill:#000000;-inkscape-stroke:none"
     d="m 3,4 a 1,1 0 0 0 -0.7070312,0.2929687 1,1 0 0 0 0,1.4140625 l 1.9999999,2 a 1,1 0 0 0 1.4140625,0 1,1 0 0 0 0,-1.4140625 l -1.9999999,-2 A 1,1 0 0 0 3,4 Z"
     id="path2" />
  <path
     style="color:#000000;fill:#000000;-inkscape-stroke:none"
     d="M 9,2 A 1,1 0 0 0 8,3 V 6 A 1,1 0 0 0 9,7 1,1 0 0 0 10,6 V 3 A 1,1 0 0 0 9,2 Z"
     id="path4" />
  <path
     style="color:#000000;fill:#000000;-inkscape-stroke:none"
     d="m 15,4 a 1,1 0 0 0 -0.707031,0.2929687 l -2,2 a 1,1 0 0 0 0,1.4140625 1,1 0 0 0 1.414062,0 l 2,-2 a 1,1 0 0 0 0,-1.4140625 A 1,1 0 0 0 15,4 Z"
     id="path6" />
  <path
     style="color:#000000;fill:#000000;-inkscape-stroke:none"
     d="m 9,9 c -2.1972922,0 -4,1.802708 -4,4 0,2.197292 1.8027078,4 4,4 2.197292,0 4,-1.802708 4,-4 0,-2.197292 -1.802708,-4 -4,-4 z m 0,2 c 1.116413,0 2,0.883587 2,2 0,1.116413 -0.883587,2 -2,2 -1.116413,0 -2,-0.883587 -2,-2 0,-1.116413 0.883587,-2 2,-2 z"
     id="circle8" />
  <path
     style="color:#000000;fill:#000000;-inkscape-stroke:none"
     d="m 4,11 c -1.645008,0 -3,1.354992 -3,3 v 4 c 0,1.645008 1.354992,3 3,3 h 16 c 1.645008,0 3,-1.354992 3,-3 v -4 c 0,-1.645008 -1.354992,-3 -3,-3 h -8.169922 a 1,1 0 0 0 -1,1 1,1 0 0 0 1,1 H 20 c 0.564129,0 1,0.435871 1,1 v 4 c 0,0.564129 -0.435871,1 -1,1 H 4 C 3.4358712,19 3,18.564129 3,18 v -4 c 0,-0.564129 0.4358712,-1 1,-1 h 2.1699219 a 1,1 0 0 0 1,-1 1,1 0 0 0 -1,-1 z"
     id="path10" />
  <path
     style="color:#000000;fill:#000000;-inkscape-stroke:none"
     d="m 16,15 a 1,1 0 0 0 -1,1 1,1 0 0 0 1,1 h 2 a 1,1 0 0 0 1,-1 1,1 0 0 0 -1,-1 z"
     id="path12" />
</svg>
