<?xml version="1.0" encoding="UTF-8" standalone="no"?>
<svg
   width="24"
   height="24"
   viewBox="0 0 24 24"
   fill="none"
   stroke="currentColor"
   stroke-width="2"
   stroke-linecap="round"
   stroke-linejoin="round"
   version="1.1"
   id="svg4"
   xmlns="http://www.w3.org/2000/svg"
   xmlns:svg="http://www.w3.org/2000/svg">
  <defs
     id="defs8" />
  <path
     style="color:#000000;fill:#000000;-inkscape-stroke:none"
     d="M 12,0.99804688 C 11.096304,0.99741479 10.228336,1.3564936 9.5898438,1.9960937 L 8.0644531,3.5214844 C 7.6004656,3.9854719 7.3840131,4.6447866 7.4804687,5.2929687 7.6317769,6.3049647 8.4231956,6.8686808 9.1015625,7.1445312 10.127705,7.563049 10.379312,8.8101413 9.5957031,9.59375 8.8120944,10.377359 7.5650021,10.125752 7.1464844,9.0996094 6.8706339,8.4212425 6.3069178,7.6298238 5.2949219,7.4785156 4.644534,7.3817317 3.9873542,7.5985833 3.5234375,8.0625 L 1.9960937,9.5898438 C 1.3350251,10.250912 0.99804687,11.128004 0.99804688,12 0.99741353,12.904389 1.3575806,13.773504 1.9980469,14.412109 l 1.5664062,1.566407 c 0.00647,0.0065 0.00917,0.01439 0.00781,0.02344 3.856e-4,-0.0026 -0.085639,0.135761 -0.3398437,0.234375 a 1.0001,1.0001 0 0 0 -0.00195,0 c -2.31939298,0.903624 -2.96323736,3.976216 -1.203125,5.736328 1.7601123,1.760113 4.8327039,1.116268 5.7363281,-1.203125 a 1.0001,1.0001 0 0 0 0,-0.002 C 7.8622856,20.513374 8.001244,20.427548 8,20.427734 c 0.00794,-6.75e-4 0.013613,-6.9e-5 0.019531,0.0059 a 1.0001,1.0001 0 0 0 0.00195,0.002 l 1.5683594,1.568359 c 0.6388822,0.639705 1.5079382,0.999199 2.4121092,0.998047 0.9048,3.22e-4 1.773369,-0.361042 2.41211,-1.001953 l 1.607421,-1.607422 c 0.442569,-0.44255 0.650495,-1.07239 0.558594,-1.691406 -0.143249,-0.963861 -0.898488,-1.509942 -1.564453,-1.757813 a 1.0001,1.0001 0 0 0 -0.002,-0.002 c -1.062376,-0.393519 -1.342092,-1.667673 -0.541016,-2.46875 0.801077,-0.801076 2.075231,-0.52136 2.46875,0.541016 a 1.0001,1.0001 0 0 0 0.002,0.002 c 0.248303,0.665629 0.792948,1.42075 1.757813,1.564453 0.619297,0.09224 1.248447,-0.116072 1.691406,-0.558594 l 1.611328,-1.611328 C 22.665569,13.748493 23.001953,12.870916 23.001953,12 c 0,-0.871996 -0.336978,-1.749088 -0.998047,-2.4101562 L 20.435547,8.0214844 c -0.0066,-0.0066 -0.0088,-0.014781 -0.0078,-0.021484 a 1.0001,1.0001 0 0 0 0,-0.00195 c -3.85e-4,0.0026 0.08564,-0.1357613 0.339844,-0.234375 a 1.0001,1.0001 0 0 0 0.002,0 C 23.088924,6.8600477 23.732769,3.7874561 21.972656,2.0273438 20.212544,0.26723144 17.139952,0.91107582 16.236328,3.2304688 a 1.0001,1.0001 0 0 0 0,0.00195 C 16.137714,3.4866262 15.998756,3.5724523 16,3.5722656 c -0.006,3.752e-4 -0.01538,-0.00171 -0.02148,-0.00781 L 14.410156,1.9960937 C 13.749571,1.3355089 12.87332,0.99854091 12.001953,0.99804688 Z m -0.002,2.00000002 a 1.0001,1.0001 0 0 0 0.002,0 c 0.362002,0 0.717163,0.1331789 0.996094,0.4121094 l 1.568359,1.5683593 c 0.453404,0.4534043 1.096504,0.6673563 1.732422,0.5722656 0.986552,-0.1480828 1.543073,-0.9202879 1.804687,-1.5937499 0.406501,-1.0433922 1.665241,-1.3074155 2.457032,-0.515625 0.79179,0.7917904 0.527767,2.0505307 -0.515625,2.4570312 -0.671234,0.2607486 -1.439914,0.8170388 -1.589844,1.7988281 a 1.0001,1.0001 0 0 0 -0.002,0.00195 c -9.9e-5,6.471e-4 9.8e-5,0.00131 0,0.00195 -2.46e-4,0.00163 -0.0017,0.00227 -0.002,0.00391 h 0.0039 c -0.0081,0.054494 0.05244,0.093967 0.04883,0.1484375 l -0.0625,-0.00391 v 0.00195 a 1.0001,1.0001 0 0 0 0.0957,0.1035156 c -0.0059,0.5416059 0.09973,1.0938723 0.486328,1.4804688 l 1.56836,1.5683591 c 0.27893,0.278931 0.412109,0.634092 0.412109,0.996094 0,0.363083 -0.131773,0.715758 -0.412109,0.996094 l -1.597657,1.597656 c 0.01695,1.08e-4 -0.09242,-0.06106 -0.173828,-0.275391 l -0.002,-0.002 c -0.87453,-2.35501 -3.981043,-3.034581 -5.757812,-1.257812 -1.777455,1.777454 -1.097447,4.88662 1.259765,5.759765 0.216943,0.08217 0.277807,0.187586 0.277344,0.171875 l -1.597656,1.597657 a 1.0001,1.0001 0 0 0 -0.002,0.002 C 12.732062,20.854772 12.374032,21.002301 12,21.001953 a 1.0001,1.0001 0 0 0 -0.002,0 c -0.37355,4.76e-4 -0.730386,-0.147586 -0.994141,-0.412109 L 9.4355469,19.021484 C 8.9823593,18.567492 8.3376257,18.354895 7.703125,18.449219 6.7165728,18.597302 6.1600515,19.369507 5.8984375,20.042969 5.491937,21.086361 4.2331967,21.350384 3.4414063,20.558594 2.6496158,19.766803 2.9136391,18.508063 3.9570313,18.101562 4.6300506,17.84012 5.4037683,17.283565 5.5507812,16.296875 v -0.002 C 5.6448928,15.661367 5.4313321,15.017552 4.9785156,14.564453 L 3.4101563,12.996094 C 3.1456326,12.732339 2.9975709,12.375503 2.9980469,12.001953 a 1.0001,1.0001 0 0 0 0,-0.002 c 0,-0.362002 0.1331789,-0.717163 0.4121094,-0.996094 L 4.9375,9.4765625 C 4.9535828,9.4604797 4.9783885,9.4538153 5,9.4570313 c 0.018847,0.00336 0.1771891,0.111761 0.2929687,0.3964843 a 1.0001,1.0001 0 0 0 0.00195,0.00195 C 6.226549,12.139678 9.2654285,12.75215 11.009766,11.007813 12.754103,9.2634754 12.141631,6.2245959 9.8574219,5.2929687 a 1.0001,1.0001 0 0 0 -0.00195,-0.00195 C 9.5707454,5.175236 9.4623448,5.0168939 9.4589844,4.9980469 c -0.00354,-0.023817 0.00152,-0.044488 0.019531,-0.0625 L 11.003906,3.4101563 c 0.263708,-0.2641649 0.620879,-0.4125847 0.994141,-0.4121094 z"
     id="path2" />
</svg>
