<?xml version="1.0" encoding="UTF-8" standalone="no"?>
<svg
   width="24"
   height="24"
   viewBox="0 0 24 24"
   fill="none"
   stroke="currentColor"
   stroke-width="2"
   stroke-linecap="round"
   stroke-linejoin="round"
   version="1.1"
   id="svg26"
   xmlns="http://www.w3.org/2000/svg"
   xmlns:svg="http://www.w3.org/2000/svg">
  <defs
     id="defs30" />
  <path
     style="color:#000000;fill:#000000;-inkscape-stroke:none"
     d="M 4,2 C 2.9092983,2 2,2.9092983 2,4 V 7 C 2,8.0907017 2.9092983,9 4,9 H 7 C 8.0907017,9 9,8.0907017 9,7 V 4 C 9,2.9092983 8.0907017,2 7,2 Z M 4,4 H 7 V 7 H 4 Z"
     id="rect2" />
  <path
     style="color:#000000;fill:#000000;-inkscape-stroke:none"
     d="m 17,2 c -1.090702,0 -2,0.9092983 -2,2 v 3 c 0,1.0907017 0.909298,2 2,2 h 3 c 1.090702,0 2,-0.9092983 2,-2 V 4 C 22,2.9092983 21.090702,2 20,2 Z m 0,2 h 3 v 3 h -3 z"
     id="rect4" />
  <path
     style="color:#000000;fill:#000000;-inkscape-stroke:none"
     d="m 4,15 c -1.0907017,0 -2,0.909298 -2,2 v 3 c 0,1.090702 0.9092983,2 2,2 h 3 c 1.0907017,0 2,-0.909298 2,-2 V 17 C 9,15.909298 8.0907017,15 7,15 Z m 0,2 h 3 v 3 H 4 Z"
     id="rect6" />
  <path
     style="color:#000000;fill:#000000;-inkscape-stroke:none"
     d="m 18,15 c -1.645008,0 -3,1.354992 -3,3 v 3 a 1,1 0 0 0 1,1 1,1 0 0 0 1,-1 v -3 c 0,-0.564129 0.435871,-1 1,-1 h 3 a 1,1 0 0 0 1,-1 1,1 0 0 0 -1,-1 z"
     id="path8" />
  <path
     style="color:#000000;fill:#000000;-inkscape-stroke:none"
     d="m 21,20 a 1,1 0 0 0 -1,1 v 0.0098 a 1,1 0 0 0 1,1 1,1 0 0 0 1,-1 V 21 a 1,1 0 0 0 -1,-1 z"
     id="path10" />
  <path
     style="color:#000000;fill:#000000;-inkscape-stroke:none"
     d="m 12,6 a 1,1 0 0 0 -1,1 v 3 c 0,0.564129 -0.435871,1 -1,1 H 7 a 1,1 0 0 0 -1,1 1,1 0 0 0 1,1 h 3 c 1.645008,0 3,-1.354992 3,-3 V 7 A 1,1 0 0 0 12,6 Z"
     id="path12" />
  <path
     style="color:#000000;fill:#000000;-inkscape-stroke:none"
     d="m 3,11 a 1,1 0 0 0 -1,1 1,1 0 0 0 1,1 h 0.00977 a 1,1 0 0 0 1,-1 1,1 0 0 0 -1,-1 z"
     id="path14" />
  <path
     style="color:#000000;fill:#000000;-inkscape-stroke:none"
     d="m 12,2 a 1,1 0 0 0 -1,1 1,1 0 0 0 1,1 h 0.0098 a 1,1 0 0 0 1,-1 1,1 0 0 0 -1,-1 z"
     id="path16" />
  <path
     style="color:#000000;fill:#000000;-inkscape-stroke:none"
     d="m 12,15 a 1,1 0 0 0 -1,1 v 0.0098 a 1,1 0 0 0 1,1 1,1 0 0 0 1,-1 V 16 a 1,1 0 0 0 -1,-1 z"
     id="path18" />
  <path
     style="color:#000000;fill:#000000;-inkscape-stroke:none"
     d="m 16,11 a 1,1 0 0 0 -1,1 1,1 0 0 0 1,1 h 1 a 1,1 0 0 0 1,-1 1,1 0 0 0 -1,-1 z"
     id="path20" />
  <path
     style="color:#000000;fill:#000000;-inkscape-stroke:none"
     d="m 21,11 a 1,1 0 0 0 -1,1 v 0.0098 a 1,1 0 0 0 1,1 1,1 0 0 0 1,-1 V 12 a 1,1 0 0 0 -1,-1 z"
     id="path22" />
  <path
     style="color:#000000;fill:#000000;-inkscape-stroke:none"
     d="m 12,19 a 1,1 0 0 0 -1,1 v 1 a 1,1 0 0 0 1,1 1,1 0 0 0 1,-1 v -1 a 1,1 0 0 0 -1,-1 z"
     id="path24" />
</svg>
