<?xml version="1.0" encoding="UTF-8" standalone="no"?>
<svg
   width="24"
   height="24"
   viewBox="0 0 24 24"
   fill="none"
   stroke="currentColor"
   stroke-width="2"
   stroke-linecap="round"
   stroke-linejoin="round"
   version="1.1"
   id="svg6"
   xmlns="http://www.w3.org/2000/svg"
   xmlns:svg="http://www.w3.org/2000/svg">
  <defs
     id="defs10" />
  <path
     style="color:#000000;fill:#000000;-inkscape-stroke:none"
     d="M 4,2 C 3.1750008,2 2.3859024,2.264308 1.828125,2.8164063 1.2703476,3.3685045 1,4.1570744 1,4.9726562 V 11 c 0,0.824999 0.2661945,1.617757 0.8242187,2.175781 C 2.382243,13.733805 3.1750008,14 4,14 v 1 C 4,15.166667 3.8858337,15.450104 3.6679688,15.667969 3.4501038,15.885834 3.1666665,16 3,16 2.7486669,16 2.5446083,15.994655 2.3027344,16.023437 2.0608605,16.05222 1.6960007,16.13442 1.4042969,16.4375 1.112593,16.74058 1.0472813,17.091327 1.0214844,17.330078 0.99568742,17.568829 1,17.7755 1,18.03125 V 20 c 0,0.25 -0.004914,0.451864 0.021484,0.689453 0.026399,0.237589 0.098282,0.594376 0.3964843,0.892578 0.298202,0.298202 0.6549891,0.370086 0.8925782,0.396485 C 2.5481359,22.004914 2.7500002,22 3,22 4.6111095,22 6.6171654,21.740785 8.2578125,20.398437 9.8984596,19.05609 11,16.690472 11,13 V 5 C 11,4.1734008 10.73417,3.3789768 10.175781,2.8183594 9.6173925,2.2577419 8.8165571,1.9886544 7.9863281,2 Z m 0,2 h 4 a 1.0001,1.0001 0 0 0 0.013672,0 c 0.4137698,-0.00565 0.61353,0.099337 0.7441406,0.2304687 C 8.8884231,4.3616006 9,4.5766004 9,5 v 8 C 9,16.309521 8.1015377,17.943912 6.9921875,18.851562 5.8828373,19.759213 4.3888875,20 3,20 V 18.03125 C 3,18.014823 2.9999647,18.01578 3,18 3.8333325,18 4.5498969,17.614166 5.0820312,17.082031 5.6141656,16.549897 6,15.833332 6,15 V 14 C 6,13.75 6.0049144,13.548136 5.9785156,13.310547 5.9521168,13.072958 5.8802332,12.716171 5.5820312,12.417969 5.2838293,12.119767 4.9270422,12.047883 4.6894531,12.021484 4.4518641,11.995086 4.2499997,12 4,12 3.5750004,12 3.3677563,11.891194 3.2382813,11.761719 3.1088062,11.632244 3,11.425 3,11 V 4.9726562 C 3,4.5662393 3.1046531,4.3666824 3.234375,4.2382812 3.3640969,4.1098801 3.5750004,4 4,4 Z"
     id="path2" />
  <path
     style="color:#000000;fill:#000000;-inkscape-stroke:none"
     d="M 16,2 C 15.175001,2 14.385902,2.264308 13.828125,2.8164063 13.270348,3.3685045 13,4.1570744 13,4.9726562 V 11 c 0,0.824999 0.266195,1.617757 0.824219,2.175781 0.478416,0.478417 1.169334,0.641485 1.865234,0.707032 -0.01587,0.604614 -0.0066,1.330548 -0.107422,1.5625 -0.07891,0.181501 -0.13197,0.250555 -0.333984,0.351562 C 15.046033,15.897882 14.652777,16 14,16 a 1.0001,1.0001 0 0 0 -1,1 v 3 c 0,0.25 -0.0049,0.451864 0.02148,0.689453 0.0264,0.237589 0.09828,0.594376 0.396485,0.892578 0.298202,0.298202 0.654989,0.370086 0.892578,0.396485 C 14.548136,22.004914 14.75,22 15,22 16.61111,22 18.617165,21.740785 20.257812,20.398437 21.89846,19.05609 23,16.690472 23,13 V 5 C 23,4.1731342 22.732257,3.378814 22.173828,2.8183594 21.615399,2.2579047 20.81623,1.9886498 19.986328,2 Z m 0,2 h 4 a 1.0001,1.0001 0 0 0 0.01367,0 c 0.413096,-0.00565 0.61332,0.099174 0.74414,0.2304687 C 20.888633,4.3617634 21,4.5768671 21,5 v 8 c 0,3.309521 -0.898462,4.943912 -2.007813,5.851562 C 17.882837,19.759213 16.388887,20 15,20 v -2.193359 c 0.383513,-0.06554 0.825361,-0.06209 1.142578,-0.220704 0.59486,-0.29743 1.041805,-0.806501 1.275391,-1.34375 C 17.885141,15.167691 17.75,14.087962 17.75,13 a 1.0001,1.0001 0 0 0 -1,-1 H 16 C 15.575,12 15.367756,11.891194 15.238281,11.761719 15.108806,11.632244 15,11.425 15,11 V 4.9726562 C 15,4.5662393 15.104653,4.3666824 15.234375,4.2382812 15.364097,4.1098801 15.575,4 16,4 Z"
     id="path4" />
</svg>
