<?xml version="1.0" encoding="UTF-8" standalone="no"?>
<svg
   width="24"
   height="24"
   viewBox="0 0 24 24"
   fill="none"
   stroke="currentColor"
   stroke-width="2"
   stroke-linecap="round"
   stroke-linejoin="round"
   version="1.1"
   id="svg18"
   xmlns="http://www.w3.org/2000/svg"
   xmlns:svg="http://www.w3.org/2000/svg">
  <defs
     id="defs22" />
  <path
     style="color:#000000;fill:#000000;-inkscape-stroke:none"
     d="M 13.429688,1.09375 C 11.086235,0.78529892 8.6452158,1.2287218 6.4902344,2.4746094 A 1,1 0 0 0 6.125,3.8398438 1,1 0 0 0 7.4902344,4.2050781 C 11.024206,2.1619371 15.478361,2.748707 18.363281,5.6367187 a 1,1 0 0 0 1.414063,0 1,1 0 0 0 0,-1.4140625 C 18.018147,2.4615747 15.77314,1.4022011 13.429688,1.09375 Z"
     id="path2" />
  <path
     style="color:#000000;fill:#000000;-inkscape-stroke:none"
     d="M 4,5 A 1,1 0 0 0 3,6 1,1 0 0 0 4,7 h 0.00977 a 1,1 0 0 0 1,-1 1,1 0 0 0 -1,-1 z"
     id="path4" />
  <path
     style="color:#000000;fill:#000000;-inkscape-stroke:none"
     d="M 20.945312,7.4199219 A 1,1 0 0 0 20.378906,8.7148438 C 22.614318,14.409022 18.705179,20.576825 12.601563,20.984375 6.4979462,21.391925 1.8031975,15.800204 3.2617188,9.859375 A 1,1 0 0 0 2.5292969,8.6484375 1,1 0 0 0 1.3183594,9.3808594 C -0.44924755,16.580651 5.3372939,23.474385 12.734375,22.980469 20.131456,22.486552 24.949368,14.885247 22.240234,7.984375 A 1,1 0 0 0 20.945312,7.4199219 Z"
     id="path6" />
  <path
     style="color:#000000;fill:#000000;-inkscape-stroke:none"
     d="M 11.808594,5 C 9.9539937,5.0465985 8.1184118,5.8209696 6.7792969,7.3105469 4.1010671,10.289701 4.4790181,14.942063 7.6035156,17.449219 a 1,1 0 0 0 1.40625,-0.154297 1,1 0 0 0 -0.1542968,-1.404297 C 6.6048786,14.084709 6.3384365,10.794337 8.2675781,8.6484375 10.19672,6.5025383 13.496776,6.4185297 15.53125,8.4648438 a 1,1 0 0 0 1.414062,0.00391 1,1 0 0 0 0.0039,-1.4140625 C 15.536987,5.6342371 13.663194,4.9534015 11.808594,5 Z"
     id="path8" />
  <path
     style="color:#000000;fill:#000000;-inkscape-stroke:none"
     d="m 12,17 a 1,1 0 0 0 -1,1 1,1 0 0 0 1,1 h 0.0098 a 1,1 0 0 0 1,-1 1,1 0 0 0 -1,-1 z"
     id="path10" />
  <path
     style="color:#000000;fill:#000000;-inkscape-stroke:none"
     d="m 17.933594,10.662109 a 1,1 0 0 0 -0.941407,1.054688 c 0.09202,1.609419 -0.595572,3.16282 -1.849609,4.175781 a 1,1 0 0 0 -0.15039,1.40625 1,1 0 0 0 1.406249,0.148438 c 1.75382,-1.416667 2.718543,-3.592914 2.589844,-5.84375 a 1,1 0 0 0 -1.054687,-0.941407 z"
     id="path12" />
  <path
     style="color:#000000;fill:#000000;-inkscape-stroke:none"
     d="m 12,9 c -1.645008,0 -3,1.354992 -3,3 0,1.645008 1.354992,3 3,3 1.645008,0 3,-1.354992 3,-3 0,-1.645008 -1.354992,-3 -3,-3 z m 0,2 c 0.564129,0 1,0.435871 1,1 0,0.564129 -0.435871,1 -1,1 -0.564129,0 -1,-0.435871 -1,-1 0,-0.564129 0.435871,-1 1,-1 z"
     id="circle14" />
  <path
     style="color:#000000;fill:#000000;-inkscape-stroke:none"
     d="m 18.363281,4.2226562 -5.660156,5.6601563 a 1,1 0 0 0 0,1.4140625 1,1 0 0 0 1.414063,0 l 5.660156,-5.6601563 a 1,1 0 0 0 0,-1.4140625 1,1 0 0 0 -1.414063,0 z"
     id="path16" />
</svg>
