<?xml version="1.0" encoding="UTF-8" standalone="no"?>
<svg
   width="24"
   height="24"
   viewBox="0 0 24 24"
   fill="none"
   stroke="currentColor"
   stroke-width="2"
   stroke-linecap="round"
   stroke-linejoin="round"
   version="1.1"
   id="svg16"
   xmlns="http://www.w3.org/2000/svg"
   xmlns:svg="http://www.w3.org/2000/svg">
  <defs
     id="defs20" />
  <path
     style="color:#000000;fill:#000000;-inkscape-stroke:none"
     d="M 4.9003906,0.90039063 A 1,1 0 0 0 4.1933594,1.1933594 c -4.28678919,4.2867891 -4.28678919,11.3264916 0,15.6132816 a 1,1 0 0 0 1.4140625,0 1,1 0 0 0 0,-1.414063 c -3.5132031,-3.513203 -3.5132031,-9.2719531 0,-12.7851561 a 1,1 0 0 0 0,-1.4140625 1,1 0 0 0 -0.7070313,-0.29296877 z"
     id="path2" />
  <path
     style="color:#000000;fill:#000000;-inkscape-stroke:none"
     d="M 7.7832031,3.6992188 A 1,1 0 0 0 7.0800781,4.0058594 C 4.8139954,6.3538221 4.4305574,9.9534354 6.1503906,12.726563 a 1,1 0 0 0 1.3769531,0.324218 1,1 0 0 0 0.3222657,-1.376953 C 6.6069101,9.6700507 6.8821286,7.0910978 8.5195313,5.3945312 A 1,1 0 0 0 8.4941406,3.9804688 1,1 0 0 0 7.7832031,3.6992188 Z"
     id="path4" />
  <path
     style="color:#000000;fill:#000000;-inkscape-stroke:none"
     d="m 12,6 c -1.645008,0 -3,1.354992 -3,3 0,1.645008 1.354992,3 3,3 1.645008,0 3,-1.354992 3,-3 0,-1.645008 -1.354992,-3 -3,-3 z m 0,2 c 0.564129,0 1,0.4358712 1,1 0,0.5641288 -0.435871,1 -1,1 -0.564129,0 -1,-0.4358712 -1,-1 0,-0.5641288 0.435871,-1 1,-1 z"
     id="circle6" />
  <path
     style="color:#000000;fill:#000000;-inkscape-stroke:none"
     d="m 15.492188,4.09375 a 1,1 0 0 0 0,1.4140625 c 1.664122,1.6641226 1.883462,4.2557712 0.658203,6.2363285 a 1,1 0 0 0 0.324218,1.376953 1,1 0 0 0 1.375,-0.324219 C 19.544347,10.057437 19.242123,6.4296234 16.90625,4.09375 a 1,1 0 0 0 -1.414062,0 z"
     id="path8" />
  <path
     style="color:#000000;fill:#000000;-inkscape-stroke:none"
     d="m 19.806641,1.1914062 a 1,1 0 0 0 -1.414063,0.00195 1,1 0 0 0 0.002,1.4140625 c 3.516197,3.5089945 3.516197,9.1765521 0,12.6855471 a 1,1 0 0 0 -0.002,1.414062 1,1 0 0 0 1.414063,0 c 4.282303,-4.273531 4.282303,-11.2420931 0,-15.5156248 z"
     id="path10" />
  <path
     style="color:#000000;fill:#000000;-inkscape-stroke:none"
     d="m 9.5,17 a 1,1 0 0 0 -1,1 1,1 0 0 0 1,1 h 5 a 1,1 0 0 0 1,-1 1,1 0 0 0 -1,-1 z"
     id="path12" />
  <path
     style="color:#000000;fill:#000000;-inkscape-stroke:none"
     d="m 12,10 a 1.0001,1.0001 0 0 0 -0.939453,0.658203 l -4.0000001,11 a 1,1 0 0 0 0.5976562,1.28125 1,1 0 0 0 1.28125,-0.597656 L 12,13.925781 l 3.060547,8.416016 a 1,1 0 0 0 1.28125,0.597656 1,1 0 0 0 0.597656,-1.28125 l -4,-11 A 1.0001,1.0001 0 0 0 12,10 Z"
     id="path14" />
</svg>
