<?xml version="1.0" encoding="UTF-8" standalone="no"?>
<svg
   width="24"
   height="24"
   viewBox="0 0 24 24"
   fill="none"
   stroke="currentColor"
   stroke-width="2"
   stroke-linecap="round"
   stroke-linejoin="round"
   version="1.1"
   id="svg10"
   xmlns="http://www.w3.org/2000/svg"
   xmlns:svg="http://www.w3.org/2000/svg">
  <defs
     id="defs14" />
  <path
     style="color:#000000;fill:#000000;-inkscape-stroke:none"
     d="m 12,11 a 1,1 0 0 0 -1,1 1,1 0 0 0 1,1 1,1 0 0 0 1,-1 1,1 0 0 0 -1,-1 z"
     id="path2" />
  <path
     style="color:#000000;fill:#000000;-inkscape-stroke:none"
     d="M 7.1894531,2.7460938 C 6.6995336,2.5913823 6.0786664,2.643165 5.6015625,3 3.1119687,4.8419509 1.3758314,7.6509619 1.0234375,10.816406 0.90458516,11.438323 1.1579698,12.021251 1.53125,12.394531 1.9073114,12.770593 2.4222228,13 3,13 H 8 A 1.0001,1.0001 0 0 0 9,12 C 9,10.855557 9.6050373,9.9152548 10.447266,9.4941406 A 1.0001,1.0001 0 0 0 10.865234,8.0996094 C 9.7687005,6.2055962 8.8719451,4.609345 8.375,3.7148438 A 1.0001,1.0001 0 0 0 8.3574219,3.6855469 C 8.0863643,3.2337843 7.6799603,2.9009908 7.1894531,2.7460938 Z M 6.6621094,4.75 C 7.0927815,5.5247109 7.8921122,6.9329449 8.7617188,8.4453125 7.9930653,9.1092018 7.4924559,9.9631952 7.2714844,11 H 3.0292969 C 3.3194064,8.511547 4.691032,6.2704103 6.6621094,4.75 Z"
     id="path4" />
  <path
     style="color:#000000;fill:#000000;-inkscape-stroke:none"
     d="M 16.978516,2.7695313 C 16.464514,2.8723316 15.912747,3.2259448 15.671875,3.828125 l 0.0957,-0.1835937 c -0.64741,0.9711144 -1.532031,2.5518827 -2.621094,4.3339843 a 1.0001,1.0001 0 0 0 0.34961,1.3847657 C 14.397724,9.889232 15,10.855557 15,12 a 1.0001,1.0001 0 0 0 1,1 h 5 c 0.522222,0 1.05461,-0.191329 1.431641,-0.568359 C 22.808671,12.05461 23,11.522222 23,11 a 1.0001,1.0001 0 0 0 -0.0059,-0.103516 c -0.327726,-3.1680183 -1.964791,-6.0238826 -4.5,-7.7988277 -0.465404,-0.3465258 -1.003651,-0.43052 -1.515625,-0.328125 z m 0.423828,2.0332031 C 19.372891,6.2137121 20.679533,8.4628581 20.972656,11 H 16.730469 C 16.507231,9.9513504 16.006088,9.0739263 15.242188,8.3769531 16.120056,6.91562 16.932563,5.5120965 17.402344,4.8027344 Z"
     id="path6" />
  <path
     style="color:#000000;fill:#000000;-inkscape-stroke:none"
     d="m 10.503906,14.636719 a 1.0001,1.0001 0 0 0 -1.3574216,0.341797 c -1.1033691,1.805513 -1.9988244,3.39777 -2.5039063,4.30664 -0.5806696,0.967783 -0.1668841,2.30995 0.8808594,2.736328 2.8423215,1.297291 6.1108035,1.297291 8.9531245,0 1.047744,-0.426378 1.46153,-1.768545 0.88086,-2.736328 -0.505082,-0.90887 -1.400537,-2.501127 -2.503906,-4.30664 a 1.0001,1.0001 0 0 0 -1.357422,-0.341797 c -0.865826,0.505065 -2.126362,0.505065 -2.992188,0 z m -0.0059,1.996093 c 0.997966,0.321937 2.00594,0.321937 3.003906,0 0.863906,1.441088 1.653554,2.809418 2.082031,3.580079 -2.281482,1.020947 -4.886486,1.020947 -7.1679684,0 C 8.8444935,19.44223 9.6341411,18.0739 10.498047,16.632812 Z"
     id="path8" />
</svg>
