<?xml version="1.0" encoding="UTF-8" standalone="no"?>
<svg
   width="24"
   height="24"
   viewBox="0 0 24 24"
   fill="none"
   stroke="currentColor"
   stroke-width="2"
   stroke-linecap="round"
   stroke-linejoin="round"
   version="1.1"
   id="svg12"
   xmlns="http://www.w3.org/2000/svg"
   xmlns:svg="http://www.w3.org/2000/svg">
  <defs
     id="defs16" />
  <path
     style="color:#000000;fill:#000000;-inkscape-stroke:none"
     d="M 4.9003906,3.9003906 A 1,1 0 0 0 4.1933594,4.1933594 c -4.28678919,4.2867891 -4.28678919,11.3264916 0,15.6132816 a 1,1 0 0 0 1.4140625,0 1,1 0 0 0 0,-1.414063 c -3.5132031,-3.513203 -3.5132031,-9.2719531 0,-12.7851561 a 1,1 0 0 0 0,-1.4140625 1,1 0 0 0 -0.7070313,-0.2929688 z"
     id="path2" />
  <path
     style="color:#000000;fill:#000000;-inkscape-stroke:none"
     d="M 7.7792969,6.7011719 A 1,1 0 0 0 7.078125,7.0078125 C 4.4132859,9.7885142 4.4043316,14.216832 7.09375,16.90625 a 1,1 0 0 0 1.4140625,0 1,1 0 0 0 0,-1.414062 C 6.5972355,13.581611 6.5863281,10.411872 8.5214844,8.3925781 A 1,1 0 0 0 8.4921875,6.9785156 1,1 0 0 0 7.7792969,6.7011719 Z"
     id="path4" />
  <path
     style="color:#000000;fill:#000000;-inkscape-stroke:none"
     d="m 12,9 c -1.645008,0 -3,1.354992 -3,3 0,1.645008 1.354992,3 3,3 1.645008,0 3,-1.354992 3,-3 0,-1.645008 -1.354992,-3 -3,-3 z m 0,2 c 0.564129,0 1,0.435871 1,1 0,0.564129 -0.435871,1 -1,1 -0.564129,0 -1,-0.435871 -1,-1 0,-0.564129 0.435871,-1 1,-1 z"
     id="circle6" />
  <path
     style="color:#000000;fill:#000000;-inkscape-stroke:none"
     d="m 15.492188,7.09375 a 1,1 0 0 0 0,1.4140625 c 1.910576,1.9105765 1.921484,5.0803155 -0.01367,7.0996095 a 1,1 0 0 0 0.0293,1.414062 1,1 0 0 0 1.414062,-0.0293 C 19.586714,14.211486 19.595668,9.7831684 16.90625,7.09375 a 1,1 0 0 0 -1.414062,0 z"
     id="path8" />
  <path
     style="color:#000000;fill:#000000;-inkscape-stroke:none"
     d="m 18.392578,4.1933594 a 1,1 0 0 0 0,1.4140625 c 3.519247,3.5192467 3.519247,9.1663001 0,12.6855471 a 1,1 0 0 0 0,1.414062 1,1 0 0 0 1.414063,0 c 4.280745,-4.280745 4.280745,-11.2329261 0,-15.5136716 a 1,1 0 0 0 -1.414063,0 z"
     id="path10" />
</svg>
