<?xml version="1.0" encoding="UTF-8" standalone="no"?>
<svg
   width="24"
   height="24"
   viewBox="0 0 24 24"
   fill="none"
   stroke="currentColor"
   stroke-width="2"
   stroke-linecap="round"
   stroke-linejoin="round"
   version="1.1"
   id="svg8"
   xmlns="http://www.w3.org/2000/svg"
   xmlns:svg="http://www.w3.org/2000/svg">
  <defs
     id="defs12" />
  <path
     style="color:#000000;fill:#000000;-inkscape-stroke:none"
     d="M 12,6 C 5.9367195,6 1,10.936715 1,17 a 1,1 0 0 0 1,1 1,1 0 0 0 1,-1 c 0,-4.982406 4.0175968,-9 9,-9 4.982403,0 9,4.017594 9,9 a 1,1 0 0 0 1,1 1,1 0 0 0 1,-1 C 23,10.936715 18.06328,6 12,6 Z"
     id="path2" />
  <path
     style="color:#000000;fill:#000000;-inkscape-stroke:none"
     d="m 12,10 c -3.8541437,0 -7,3.145853 -7,7 a 1,1 0 0 0 1,1 1,1 0 0 0 1,-1 c 0,-2.773268 2.2267335,-5 5,-5 2.773266,0 5,2.226732 5,5 a 1,1 0 0 0 1,1 1,1 0 0 0 1,-1 c 0,-3.854147 -3.145856,-7 -7,-7 z"
     id="path4" />
  <path
     style="color:#000000;fill:#000000;-inkscape-stroke:none"
     d="M 12,14 C 11.277779,14 10.542119,14.235348 9.9609375,14.751953 9.3797562,15.268559 9,16.083334 9,17 a 1,1 0 0 0 1,1 1,1 0 0 0 1,-1 c 0,-0.416666 0.120245,-0.601893 0.289063,-0.751953 C 11.45788,16.097987 11.722222,16 12,16 c 0.277778,0 0.54212,0.09799 0.710938,0.248047 C 12.879755,16.398107 13,16.583334 13,17 a 1,1 0 0 0 1,1 1,1 0 0 0 1,-1 C 15,16.083334 14.620244,15.268559 14.039063,14.751953 13.457881,14.235348 12.722221,14 12,14 Z"
     id="path6" />
</svg>
