<?xml version="1.0" encoding="UTF-8" standalone="no"?>
<svg
   width="24"
   height="24"
   viewBox="0 0 24 24"
   fill="none"
   stroke="currentColor"
   stroke-width="2"
   stroke-linecap="round"
   stroke-linejoin="round"
   version="1.1"
   id="svg12"
   xmlns="http://www.w3.org/2000/svg"
   xmlns:svg="http://www.w3.org/2000/svg">
  <defs
     id="defs16" />
  <path
     style="color:#000000;fill:#000000;-inkscape-stroke:none"
     d="m 14,1 c -2.209802,0 -4,1.7901983 -4,4 0,0.407876 0.109625,0.7845935 0.224609,1.15625 C 6.1800948,6.5626365 3,9.8454261 3,14 c 0,2.745452 2.2545482,5 5,5 A 1,1 0 0 0 9,18 1,1 0 0 0 8,17 C 6.3454562,17 5,15.654544 5,14 5,10.629918 7.6299179,8 11,8 h 0.800781 A 1.0001,1.0001 0 0 0 12.507813,6.2929687 C 12.196375,5.9815309 12,5.5499994 12,5 c 0,-1.1901949 0.809805,-2 2,-2 1.190195,0 2,0.8098051 2,2 a 1,1 0 0 0 1,1 1,1 0 0 0 1,-1 C 18,2.7901983 16.209802,1 14,1 Z"
     id="path2" />
  <path
     style="color:#000000;fill:#000000;-inkscape-stroke:none"
     d="m 18.972656,1.9824219 c -0.517706,-0.0052 -1.043635,0.088548 -1.544922,0.2890625 a 1.0001,1.0001 0 0 0 -0.07422,0.033203 c -0.459628,0.229814 -0.881199,0.5101048 -1.259766,0.8886719 a 1,1 0 0 0 0,1.4140625 1,1 0 0 0 1.414062,0 c 0.206254,-0.2062533 0.392213,-0.3256151 0.689454,-0.4785157 0.990252,-0.3801841 2.193693,0.091655 2.574218,1.0429688 0.397941,0.9948508 -0.08369,2.2158986 -1.042968,2.5996094 a 1.0001,1.0001 0 0 0 -0.496094,1.4238281 l 1.599609,2.8007815 a 1.0001,1.0001 0 0 0 0.03516,0.05859 c -0.01415,-0.02123 0.0056,0.145117 0.01758,0.228515 -0.08448,0.277994 -0.189089,0.367379 -0.556641,0.322266 -0.06627,-0.01259 -1.560762,-0.296579 -2.564453,-0.570313 A 1.0001,1.0001 0 0 0 17.5,12 H 17 c -2.209802,0 -4,1.790198 -4,4 a 1,1 0 0 0 1,1 1,1 0 0 0 1,-1 c 0,-1.190195 0.809805,-2 2,-2 h 0.394531 c 1.147363,0.298766 2.621094,0.582031 2.621094,0.582031 a 1.0001,1.0001 0 0 0 0.06055,0.0098 c 1.19691,0.149614 2.480788,-0.593073 2.794922,-1.849609 A 1.0001,1.0001 0 0 0 22.900391,12.5 c 0,-0.3 0.05843,-0.913334 -0.369141,-1.554687 l 0.03711,0.05859 -1.148437,-2.0097654 c 1.321975,-1.0798581 1.86574,-2.9245163 1.208984,-4.5664062 -0.612216,-1.53054 -2.103132,-2.4297159 -3.65625,-2.4453125 z"
     id="path4" />
  <path
     style="color:#000000;fill:#000000;-inkscape-stroke:none"
     d="M 11.011719,12 A 1,1 0 0 0 10,12.988281 1,1 0 0 0 10.988281,14 c 0.895541,0.01071 1.507149,0.512695 1.806641,1.193359 0.299492,0.680664 0.25729,1.473138 -0.339844,2.140625 a 1,1 0 0 0 0.07813,1.41211 1,1 0 0 0 1.41211,-0.08008 C 15.065768,17.41355 15.210923,15.720315 14.625,14.388672 14.039077,13.057028 12.692101,12.020097 11.011719,12 Z"
     id="path6" />
  <path
     style="color:#000000;fill:#000000;-inkscape-stroke:none"
     d="M 4,17 C 3.0833344,17 2.2685585,17.379756 1.7519531,17.960937 1.2353477,18.542119 1,19.277779 1,20 1,20.722221 1.2353477,21.457881 1.7519531,22.039062 2.2685585,22.620244 3.0833344,23 4,23 h 9 a 1,1 0 0 0 1,-1 1,1 0 0 0 -1,-1 H 4 C 3.5833341,21 3.3981072,20.879755 3.2480469,20.710937 3.0979866,20.54212 3,20.277778 3,20 3,19.722222 3.0979866,19.45788 3.2480469,19.289062 3.3981072,19.120245 3.5833341,19 4,19 h 12 a 1,1 0 0 0 1,-1 1,1 0 0 0 -1,-1 z"
     id="path8" />
  <path
     style="color:#000000;fill:#000000;-inkscape-stroke:none"
     d="m 16,8 a 1,1 0 0 0 -1,1 1,1 0 0 0 1,1 h 0.0098 a 1,1 0 0 0 1,-1 1,1 0 0 0 -1,-1 z"
     id="path10" />
</svg>
