<?xml version="1.0" encoding="UTF-8" standalone="no"?>
<svg
   width="24"
   height="24"
   viewBox="0 0 24 24"
   fill="none"
   stroke="currentColor"
   stroke-width="2"
   stroke-linecap="round"
   stroke-linejoin="round"
   version="1.1"
   id="svg8"
   xmlns="http://www.w3.org/2000/svg"
   xmlns:svg="http://www.w3.org/2000/svg">
  <defs
     id="defs12" />
  <path
     style="color:#000000;fill:#000000;-inkscape-stroke:none"
     d="M 4.4472656,1.1054687 A 1.0001,1.0001 0 0 0 3,2 v 20 a 1.0001,1.0001 0 0 0 1.4472656,0.894531 L 6,22.117187 7.5527344,22.894531 a 1.0001,1.0001 0 0 0 0.8945312,0 L 10,22.117187 l 1.552734,0.777344 a 1.0001,1.0001 0 0 0 0.894532,0 L 14,22.117187 l 1.552734,0.777344 a 1.0001,1.0001 0 0 0 0.894532,0 L 18,22.117187 19.552734,22.894531 A 1.0001,1.0001 0 0 0 21,22 V 2 A 1.0001,1.0001 0 0 0 19.552734,1.1054687 L 18,1.8828125 16.447266,1.1054687 a 1.0001,1.0001 0 0 0 -0.894532,0 L 14,1.8828125 12.447266,1.1054687 a 1.0001,1.0001 0 0 0 -0.894532,0 L 10,1.8828125 8.4472656,1.1054687 a 1.0001,1.0001 0 0 0 -0.8945312,0 L 6,1.8828125 Z M 8,3.1171875 9.5527344,3.8945313 a 1.0001,1.0001 0 0 0 0.8945316,0 L 12,3.1171875 13.552734,3.8945313 a 1.0001,1.0001 0 0 0 0.894532,0 L 16,3.1171875 17.552734,3.8945313 a 1.0001,1.0001 0 0 0 0.894532,0 L 19,3.6171875 V 20.382812 l -0.552734,-0.277343 a 1.0001,1.0001 0 0 0 -0.894532,0 L 16,20.882812 14.447266,20.105469 a 1.0001,1.0001 0 0 0 -0.894532,0 L 12,20.882812 10.447266,20.105469 a 1.0001,1.0001 0 0 0 -0.8945316,0 L 8,20.882812 6.4472656,20.105469 a 1.0001,1.0001 0 0 0 -0.8945312,0 L 5,20.382812 V 3.6171875 l 0.5527344,0.2773438 a 1.0001,1.0001 0 0 0 0.8945312,0 z"
     id="path2" />
  <path
     style="color:#000000;fill:#000000;-inkscape-stroke:none"
     d="M 10,7 C 9.0833344,7 8.2685585,7.3797562 7.7519531,7.9609375 7.2353477,8.5421188 7,9.2777786 7,10 7,10.722221 7.2353477,11.457881 7.7519531,12.039063 8.2685585,12.620244 9.0833344,13 10,13 h 4 c 0.416666,0 0.601893,0.120245 0.751953,0.289063 C 14.902013,13.45788 15,13.722222 15,14 c 0,0.277778 -0.09799,0.54212 -0.248047,0.710938 C 14.601893,14.879755 14.416666,15 14,15 H 8 a 1,1 0 0 0 -1,1 1,1 0 0 0 1,1 h 6 c 0.916666,0 1.731441,-0.379756 2.248047,-0.960938 C 16.764652,15.457881 17,14.722221 17,14 17,13.277779 16.764652,12.542119 16.248047,11.960938 15.731441,11.379756 14.916666,11 14,11 H 10 C 9.5833341,11 9.3981072,10.879755 9.2480469,10.710938 9.0979866,10.54212 9,10.277778 9,10 9,9.7222224 9.0979866,9.4578804 9.2480469,9.2890625 9.3981072,9.1202446 9.5833341,9 10,9 h 6 A 1,1 0 0 0 17,8 1,1 0 0 0 16,7 Z"
     id="path4" />
  <path
     style="color:#000000;fill:#000000;-inkscape-stroke:none"
     d="m 12,6 a 1,1 0 0 0 -1,1 v 10 a 1,1 0 0 0 1,1 1,1 0 0 0 1,-1 V 7 A 1,1 0 0 0 12,6 Z"
     id="path6" />
</svg>
