<?xml version="1.0" encoding="UTF-8" standalone="no"?>
<svg
   width="24"
   height="24"
   viewBox="0 0 24 24"
   fill="none"
   stroke="currentColor"
   stroke-width="2"
   stroke-linecap="round"
   stroke-linejoin="round"
   version="1.1"
   id="svg4"
   xmlns="http://www.w3.org/2000/svg"
   xmlns:svg="http://www.w3.org/2000/svg">
  <defs
     id="defs8" />
  <path
     style="color:#000000;fill:#000000;-inkscape-stroke:none"
     d="M 8,1 C 6.3552989,1 5,2.3552989 5,4 v 16 c 0,1.644701 1.3552989,3 3,3 h 8 c 1.644701,0 3,-1.355299 3,-3 V 4 C 19,2.3552989 17.644701,1 16,1 Z m 0,2 h 8 c 0.571297,0 1,0.4287033 1,1 v 16 c 0,0.571297 -0.428703,1 -1,1 H 8 C 7.4287033,21 7,20.571297 7,20 V 4 C 7,3.4287033 7.4287033,3 8,3 Z"
     id="rect2" />
</svg>
