<?xml version="1.0" encoding="UTF-8" standalone="no"?>
<svg
   width="24"
   height="24"
   viewBox="0 0 24 24"
   fill="none"
   stroke="currentColor"
   stroke-width="2"
   stroke-linecap="round"
   stroke-linejoin="round"
   version="1.1"
   id="svg14"
   xmlns="http://www.w3.org/2000/svg"
   xmlns:svg="http://www.w3.org/2000/svg">
  <defs
     id="defs18" />
  <path
     style="color:#000000;fill:#000000;-inkscape-stroke:none"
     d="M 6.9375,8.5332031 A 1,1 0 0 0 6.3300781,9 L 2.375,15.833984 a 1.0001,1.0001 0 0 0 -0.00195,0.0039 c -0.4941663,0.861012 -0.4902098,1.924415 0.00781,2.783203 a 1.0001,1.0001 0 0 0 0.00977,0.01563 C 2.9037118,19.482702 3.8252176,20.001494 4.8144531,20 H 7 A 1,1 0 0 0 8,19 1,1 0 0 0 7,18 H 4.8144531 A 1.0001,1.0001 0 0 0 4.8125,18 C 4.524113,18.000834 4.2621016,17.849302 4.109375,17.605469 3.9749027,17.364974 3.9712798,17.076043 4.1074219,16.835937 L 8.0625,10 A 1,1 0 0 0 7.6972656,8.6347656 1,1 0 0 0 6.9375,8.5332031 Z"
     id="path2" />
  <path
     style="color:#000000;fill:#000000;-inkscape-stroke:none"
     d="m 19.791016,13.248047 a 1,1 0 0 0 -0.757813,0.101562 1,1 0 0 0 -0.365234,1.365235 l 1.222656,2.117187 c 0.137217,0.239272 0.1331,0.528766 0,0.769531 C 19.740075,17.845022 19.482217,17.99778 19.195312,18 H 11 a 1,1 0 0 0 -1,1 1,1 0 0 0 1,1 h 8.203125 a 1.0001,1.0001 0 0 0 0.0078,0 c 0.985825,-0.0076 1.899885,-0.531079 2.40625,-1.376953 a 1.0001,1.0001 0 0 0 0.0098,-0.01563 c 0.49115,-0.856443 0.49115,-1.913089 0,-2.769531 a 1.0001,1.0001 0 0 0 -0.002,-0.0039 l -1.226563,-2.11914 a 1,1 0 0 0 -0.607421,-0.466797 z"
     id="path4" />
  <path
     style="color:#000000;fill:#000000;-inkscape-stroke:none"
     d="m 14,15 a 1,1 0 0 0 -0.707031,0.292969 l -3,3 a 1.0001,1.0001 0 0 0 0,1.414062 l 3,3 a 1,1 0 0 0 1.414062,0 1,1 0 0 0 0,-1.414062 L 12.414063,19 14.707031,16.707031 a 1,1 0 0 0 0,-1.414062 A 1,1 0 0 0 14,15 Z"
     id="path6" />
  <path
     style="color:#000000;fill:#000000;-inkscape-stroke:none"
     d="M 6.9375,8.5332031 2.8417969,9.6328125 A 1,1 0 0 0 2.1347656,10.857422 1,1 0 0 0 3.359375,11.564453 l 3.1308594,-0.83789 0.8359375,3.128906 A 1,1 0 0 0 8.5507813,14.5625 1,1 0 0 0 9.2597656,13.337891 L 8.1621094,9.2421875 A 1.0001,1.0001 0 0 0 6.9375,8.5332031 Z"
     id="path8" />
  <path
     style="color:#000000;fill:#000000;-inkscape-stroke:none"
     d="M 11.962891,2 C 10.972436,2.0213144 10.06326,2.5625398 9.5703125,3.421875 v -0.00391 L 8.4785156,5.3105469 A 1,1 0 0 0 8.84375,6.6777344 1,1 0 0 0 10.208984,6.3105469 l 1.09375,-1.890625 a 1.0001,1.0001 0 0 0 0.002,-0.00391 c 0.143485,-0.2501323 0.403902,-0.3998152 0.691406,-0.4101562 0.276668,0.00371 0.530599,0.1448884 0.669922,0.3847656 l 3.941406,6.839844 a 1,1 0 0 0 1.365234,0.367187 1,1 0 0 0 0.367188,-1.365234 l -3.94336,-6.8437501 a 1.0001,1.0001 0 0 0 0,-0.00195 C 13.898107,2.5286425 12.974728,1.9981504 11.982422,2 a 1.0001,1.0001 0 0 0 -0.01953,0 z"
     id="path10" />
  <path
     style="color:#000000;fill:#000000;-inkscape-stroke:none"
     d="M 18.830078,5.6699219 A 1,1 0 0 0 17.605469,6.3769531 L 16.767578,9.5058594 13.636719,8.6679688 A 1,1 0 0 0 12.412109,9.375 a 1,1 0 0 0 0.707032,1.224609 l 4.095703,1.097657 a 1.0001,1.0001 0 0 0 1.224609,-0.707032 L 19.537109,6.8945312 A 1,1 0 0 0 18.830078,5.6699219 Z"
     id="path12" />
</svg>
