<?xml version="1.0" encoding="UTF-8" standalone="no"?>
<svg
   width="24"
   height="24"
   viewBox="0 0 24 24"
   fill="none"
   stroke="currentColor"
   stroke-width="2"
   stroke-linecap="round"
   stroke-linejoin="round"
   version="1.1"
   id="svg6"
   xmlns="http://www.w3.org/2000/svg"
   xmlns:svg="http://www.w3.org/2000/svg">
  <defs
     id="defs10" />
  <path
     style="color:#000000;fill:#000000;-inkscape-stroke:none"
     d="m 15,3 a 1,1 0 0 0 -0.707031,0.2929688 1,1 0 0 0 0,1.4140624 L 18.585937,9 14.292969,13.292969 a 1,1 0 0 0 0,1.414062 1,1 0 0 0 1.414062,0 l 5,-4.9999997 a 1.0001,1.0001 0 0 0 0,-1.4140625 l -5,-5 A 1,1 0 0 0 15,3 Z"
     id="path2" />
  <path
     style="color:#000000;fill:#000000;-inkscape-stroke:none"
     d="M 9.5,8 C 5.9219973,8 3,10.921997 3,14.5 3,18.078003 5.9219973,21 9.5,21 H 13 a 1,1 0 0 0 1,-1 1,1 0 0 0 -1,-1 H 9.5 C 7.0028765,19 5,16.997124 5,14.5 5,12.002876 7.0028765,10 9.5,10 H 20 A 1,1 0 0 0 21,9 1,1 0 0 0 20,8 Z"
     id="path4" />
</svg>
