<?xml version="1.0" encoding="UTF-8" standalone="no"?>
<svg
   width="24"
   height="24"
   viewBox="0 0 24 24"
   fill="none"
   stroke="currentColor"
   stroke-width="2"
   stroke-linecap="round"
   stroke-linejoin="round"
   version="1.1"
   id="svg6"
   xmlns="http://www.w3.org/2000/svg"
   xmlns:svg="http://www.w3.org/2000/svg">
  <defs
     id="defs10" />
  <path
     style="color:#000000;fill:#000000;-inkscape-stroke:none"
     d="m 21,6 a 1,1 0 0 0 -1,1 v 5 h -5 a 1,1 0 0 0 -1,1 1,1 0 0 0 1,1 h 6 a 1.0001,1.0001 0 0 0 1,-1 V 7 A 1,1 0 0 0 21,6 Z"
     id="path2" />
  <path
     style="color:#000000;fill:#000000;-inkscape-stroke:none"
     d="M 12,7 C 6.4890026,7 2,11.489003 2,17 a 1,1 0 0 0 1,1 1,1 0 0 0 1,-1 c 0,-4.429452 3.5688541,-7.9989259 7.998047,-8 1.969045,0.00201 3.86814,0.7302192 5.333984,2.044922 l 2.998047,2.699219 a 1,1 0 0 0 1.414063,-0.07422 1,1 0 0 0 -0.07422,-1.414063 l -3,-2.6992184 a 1.0001,1.0001 0 0 0 -0.002,-0.00195 C 16.83611,7.9117104 14.462659,7.0025058 12.001953,7 A 1.0001,1.0001 0 0 0 12,7 Z"
     id="path4" />
</svg>
