<?xml version="1.0" encoding="UTF-8" standalone="no"?>
<svg
   width="24"
   height="24"
   viewBox="0 0 24 24"
   fill="none"
   stroke="currentColor"
   stroke-width="2"
   stroke-linecap="round"
   stroke-linejoin="round"
   version="1.1"
   id="svg10"
   xmlns="http://www.w3.org/2000/svg"
   xmlns:svg="http://www.w3.org/2000/svg">
  <defs
     id="defs14" />
  <path
     style="color:#000000;fill:#000000;-inkscape-stroke:none"
     d="M 11.996094,2 C 9.2223287,2.0104346 6.5587136,3.0935822 4.5644531,5.0214844 a 1.0001,1.0001 0 0 0 -0.011719,0.011719 L 2.2929688,7.2929687 a 1,1 0 0 0 0,1.4140626 1,1 0 0 0 1.4140625,0 L 5.9550781,6.4589844 C 7.5778164,4.8902421 9.7430811,4.0094955 12,4 c 4.430118,0 8,3.5698818 8,8 a 1,1 0 0 0 1,1 1,1 0 0 0 1,-1 C 22,6.4890026 17.510997,2 12,2 a 1.0001,1.0001 0 0 0 -0.0039,0 z"
     id="path2" />
  <path
     style="color:#000000;fill:#000000;-inkscape-stroke:none"
     d="M 3,2 A 1,1 0 0 0 2,3 V 8 A 1.0001,1.0001 0 0 0 3,9 H 8 A 1,1 0 0 0 9,8 1,1 0 0 0 8,7 H 4 V 3 A 1,1 0 0 0 3,2 Z"
     id="path4" />
  <path
     style="color:#000000;fill:#000000;-inkscape-stroke:none"
     d="m 3,11 a 1,1 0 0 0 -1,1 c 0,5.510997 4.4890026,10 10,10 a 1.0001,1.0001 0 0 0 0.0039,0 c 2.773765,-0.01044 5.43738,-1.093582 7.431641,-3.021484 a 1.0001,1.0001 0 0 0 0.01172,-0.01172 l 2.259765,-2.259766 a 1,1 0 0 0 0,-1.414062 1,1 0 0 0 -1.414062,0 l -2.248047,2.248047 C 16.422184,19.109758 14.256919,19.990505 12,20 7.5698818,20 4,16.430118 4,12 A 1,1 0 0 0 3,11 Z"
     id="path6" />
  <path
     style="color:#000000;fill:#000000;-inkscape-stroke:none"
     d="m 16,15 a 1,1 0 0 0 -1,1 1,1 0 0 0 1,1 h 4 v 4 a 1,1 0 0 0 1,1 1,1 0 0 0 1,-1 v -5 a 1.0001,1.0001 0 0 0 -1,-1 z"
     id="path8" />
</svg>
