<?xml version="1.0" encoding="UTF-8" standalone="no"?>
<svg
   width="24"
   height="24"
   viewBox="0 0 24 24"
   fill="none"
   stroke="currentColor"
   stroke-width="2"
   stroke-linecap="round"
   stroke-linejoin="round"
   version="1.1"
   id="svg12"
   xmlns="http://www.w3.org/2000/svg"
   xmlns:svg="http://www.w3.org/2000/svg">
  <defs
     id="defs16" />
  <path
     style="color:#000000;fill:#000000;-inkscape-stroke:none"
     d="M 3,1 A 1,1 0 0 0 2,2 V 8 A 1.0001,1.0001 0 0 0 3,9 H 9 A 1,1 0 0 0 10,8 1,1 0 0 0 9,7 H 4 V 2 A 1,1 0 0 0 3,1 Z"
     id="path2" />
  <path
     style="color:#000000;fill:#000000;-inkscape-stroke:none"
     d="M 10.646484,2.0839844 C 8.7779925,2.3335155 6.9296507,3.1274786 5.3339844,4.5546875 a 1.0001,1.0001 0 0 0 -0.00391,0.00195 l -3,2.6992188 a 1,1 0 0 0 -0.074219,1.4140625 1,1 0 0 0 1.4140625,0.074219 l 2.9960937,-2.6992187 0.00391,-0.00195 C 9.2731106,3.7169949 12.564141,3.4982068 15.261719,4.703125 17.960481,5.908572 19.996817,8.5067344 20,12 a 1,1 0 0 0 1,1 1,1 0 0 0 1,-1 C 21.996099,7.7183777 19.42882,4.3735968 16.078125,2.8769531 14.402778,2.1286313 12.514976,1.8344533 10.646484,2.0839844 Z"
     id="path4" />
  <path
     style="color:#000000;fill:#000000;-inkscape-stroke:none"
     d="m 15,15 a 1,1 0 0 0 -1,1 1,1 0 0 0 1,1 h 5 v 5 a 1,1 0 0 0 1,1 1,1 0 0 0 1,-1 v -6 a 1.0001,1.0001 0 0 0 -1,-1 z"
     id="path6" />
  <path
     style="color:#000000;fill:#000000;-inkscape-stroke:none"
     d="m 3,11 a 1,1 0 0 0 -1,1 c 0.0039,4.281622 2.5711802,7.626403 5.921875,9.123047 3.350695,1.496644 7.552808,1.176683 10.744141,-1.677735 a 1.0001,1.0001 0 0 0 0.0039,-0.002 l 3,-2.699218 a 1,1 0 0 0 0.07422,-1.414063 1,1 0 0 0 -1.414063,-0.07422 l -3,2.701172 C 14.726889,20.283005 11.435859,20.501793 8.7382813,19.296875 6.0395193,18.091428 4.003183,15.493266 4,12 A 1,1 0 0 0 3,11 Z"
     id="path8" />
  <path
     style="color:#000000;fill:#000000;-inkscape-stroke:none"
     d="m 12,10 c -1.092724,0 -2,0.907276 -2,2 0,1.092724 0.907276,2 2,2 1.092724,0 2,-0.907276 2,-2 0,-1.092724 -0.907276,-2 -2,-2 z"
     id="circle10" />
</svg>
