<?xml version="1.0" encoding="UTF-8" standalone="no"?>
<svg
   width="24"
   height="24"
   viewBox="0 0 24 24"
   fill="none"
   stroke="currentColor"
   stroke-width="2"
   stroke-linecap="round"
   stroke-linejoin="round"
   version="1.1"
   id="svg8"
   xmlns="http://www.w3.org/2000/svg"
   xmlns:svg="http://www.w3.org/2000/svg">
  <defs
     id="defs12" />
  <path
     style="color:#000000;fill:#000000;-inkscape-stroke:none"
     d="M 9,1 C 6.2504236,1 4,3.2504236 4,6 v 14 c 0,1.645008 1.354992,3 3,3 h 10 c 1.645008,0 3,-1.354992 3,-3 V 6 C 20,3.2504236 17.749576,1 15,1 Z m 0,2 h 6 c 1.668697,0 3,1.3313028 3,3 v 14 c 0,0.564129 -0.435871,1 -1,1 H 7 C 6.4358712,21 6,20.564129 6,20 V 6 C 6,4.3313028 7.3313028,3 9,3 Z"
     id="path2" />
  <path
     style="color:#000000;fill:#000000;-inkscape-stroke:none"
     d="m 5,9 a 1,1 0 0 0 -1,1 1,1 0 0 0 1,1 h 14 a 1,1 0 0 0 1,-1 1,1 0 0 0 -1,-1 z"
     id="path4" />
  <path
     style="color:#000000;fill:#000000;-inkscape-stroke:none"
     d="m 15,6 a 1,1 0 0 0 -1,1 v 6 a 1,1 0 0 0 1,1 1,1 0 0 0 1,-1 V 7 A 1,1 0 0 0 15,6 Z"
     id="path6" />
</svg>
