<?xml version="1.0" encoding="UTF-8" standalone="no"?>
<svg
   width="24"
   height="24"
   viewBox="0 0 24 24"
   fill="none"
   stroke="currentColor"
   stroke-width="2"
   stroke-linecap="round"
   stroke-linejoin="round"
   version="1.1"
   id="svg16"
   xmlns="http://www.w3.org/2000/svg"
   xmlns:svg="http://www.w3.org/2000/svg">
  <defs
     id="defs20" />
  <path
     style="color:#000000;fill:#000000;-inkscape-stroke:none"
     d="M 12,2 C 10.893334,2 9.8136939,2.177844 8.8046875,2.5253906 A 1,1 0 0 0 8.1835938,3.7949219 1,1 0 0 0 9.4550781,4.4160156 C 10.244887,4.1439702 11.104196,4.000427 11.996094,4 c 2.258326,0.0085 4.425154,0.8893375 6.048828,2.4589844 l 2.248047,2.2480469 a 1,1 0 0 0 1.414062,0 1,1 0 0 0 0,-1.4140626 L 19.447266,5.0332031 a 1.0001,1.0001 0 0 0 -0.01172,-0.011719 C 17.441286,3.0935822 14.777671,2.0104346 12.003906,2 A 1.0001,1.0001 0 0 0 12,2 Z"
     id="path2" />
  <path
     style="color:#000000;fill:#000000;-inkscape-stroke:none"
     d="m 3,15 a 1.0001,1.0001 0 0 0 -1,1 v 5 a 1,1 0 0 0 1,1 1,1 0 0 0 1,-1 V 17 H 8 A 1,1 0 0 0 9,16 1,1 0 0 0 8,15 Z"
     id="path4" />
  <path
     style="color:#000000;fill:#000000;-inkscape-stroke:none"
     d="M 4.9375,4.9277344 C 3.1127492,6.7302321 2,9.2422651 2,12 a 1,1 0 0 0 1,1 1,1 0 0 0 1,-1 C 4,9.7777398 4.886551,7.7890615 6.3417969,6.3515625 A 1,1 0 0 0 6.3515625,4.9375 1,1 0 0 0 4.9375,4.9277344 Z"
     id="path6" />
  <path
     style="color:#000000;fill:#000000;-inkscape-stroke:none"
     d="m 3,15 a 1,1 0 0 0 -0.7070312,0.292969 1,1 0 0 0 0,1.414062 l 2.2597656,2.259766 a 1.0001,1.0001 0 0 0 0.011719,0.01172 C 6.5587136,20.906418 9.2223287,21.989565 11.996094,22 A 1.0001,1.0001 0 0 0 12,22 c 2.757735,0 5.269768,-1.112749 7.072266,-2.9375 a 1,1 0 0 0 -0.0098,-1.414063 1,1 0 0 0 -1.414063,0.0098 C 16.211804,19.112573 14.224548,19.998932 12.003906,20 9.7455802,19.991504 7.5787521,19.110662 5.9550781,17.541016 L 3.7070313,15.292969 A 1,1 0 0 0 3,15 Z"
     id="path8" />
  <path
     style="color:#000000;fill:#000000;-inkscape-stroke:none"
     d="m 21,11 a 1,1 0 0 0 -1,1 c 0,0.893332 -0.143563,1.75393 -0.416016,2.544922 a 1,1 0 0 0 0.621094,1.271484 1,1 0 0 0 1.269531,-0.621093 C 21.822156,14.186306 22,13.106666 22,12 a 1,1 0 0 0 -1,-1 z"
     id="path10" />
  <path
     style="color:#000000;fill:#000000;-inkscape-stroke:none"
     d="m 21,2 a 1,1 0 0 0 -1,1 v 4 h -4 a 1,1 0 0 0 -1,1 1,1 0 0 0 1,1 h 5 A 1.0001,1.0001 0 0 0 22,8 V 3 A 1,1 0 0 0 21,2 Z"
     id="path12" />
  <path
     style="color:#000000;fill:#000000;-inkscape-stroke:none"
     d="m 2,1 a 1,1 0 0 0 -0.7070313,0.2929687 1,1 0 0 0 0,1.4140626 L 21.292969,22.707031 a 1,1 0 0 0 1.414062,0 1,1 0 0 0 0,-1.414062 L 2.7070313,1.2929687 A 1,1 0 0 0 2,1 Z"
     id="path14" />
</svg>
