<?xml version="1.0" encoding="UTF-8" standalone="no"?>
<svg
   width="24"
   height="24"
   viewBox="0 0 24 24"
   fill="none"
   stroke="currentColor"
   stroke-width="2"
   stroke-linecap="round"
   stroke-linejoin="round"
   version="1.1"
   id="svg10"
   xmlns="http://www.w3.org/2000/svg"
   xmlns:svg="http://www.w3.org/2000/svg">
  <defs
     id="defs14" />
  <path
     style="color:#000000;fill:#000000;-inkscape-stroke:none"
     d="M 12,2 C 6.4890026,2 2,6.4890026 2,12 a 1,1 0 0 0 1,1 1,1 0 0 0 1,-1 c 0,-4.4287851 3.5678265,-7.9978523 7.996094,-8 2.258326,0.0085 4.425154,0.8893375 6.048828,2.4589844 l 2.248047,2.2480469 a 1,1 0 0 0 1.414062,0 1,1 0 0 0 0,-1.4140626 L 19.447266,5.0332031 a 1.0001,1.0001 0 0 0 -0.01172,-0.011719 C 17.441286,3.0935822 14.777671,2.0104346 12.003906,2 A 1.0001,1.0001 0 0 0 12,2 Z"
     id="path2" />
  <path
     style="color:#000000;fill:#000000;-inkscape-stroke:none"
     d="m 21,2 a 1,1 0 0 0 -1,1 v 4 h -4 a 1,1 0 0 0 -1,1 1,1 0 0 0 1,1 h 5 A 1.0001,1.0001 0 0 0 22,8 V 3 A 1,1 0 0 0 21,2 Z"
     id="path4" />
  <path
     style="color:#000000;fill:#000000;-inkscape-stroke:none"
     d="m 21,11 a 1,1 0 0 0 -1,1 c 0,4.428785 -3.567827,7.997852 -7.996094,8 -2.2583258,-0.0085 -4.4251539,-0.889338 -6.0488279,-2.458984 L 3.7070313,15.292969 a 1,1 0 0 0 -1.4140625,0 1,1 0 0 0 0,1.414062 l 2.2597656,2.259766 a 1.0001,1.0001 0 0 0 0.011719,0.01172 C 6.5587136,20.906418 9.2223287,21.989565 11.996094,22 A 1.0001,1.0001 0 0 0 12,22 c 5.510997,0 10,-4.489003 10,-10 a 1,1 0 0 0 -1,-1 z"
     id="path6" />
  <path
     style="color:#000000;fill:#000000;-inkscape-stroke:none"
     d="m 3,15 a 1.0001,1.0001 0 0 0 -1,1 v 5 a 1,1 0 0 0 1,1 1,1 0 0 0 1,-1 V 17 H 8 A 1,1 0 0 0 9,16 1,1 0 0 0 8,15 Z"
     id="path8" />
</svg>
