<?xml version="1.0" encoding="UTF-8" standalone="no"?>
<svg
   width="24"
   height="24"
   viewBox="0 0 24 24"
   fill="none"
   stroke="currentColor"
   stroke-width="2"
   stroke-linecap="round"
   stroke-linejoin="round"
   version="1.1"
   id="svg10"
   xmlns="http://www.w3.org/2000/svg"
   xmlns:svg="http://www.w3.org/2000/svg">
  <defs
     id="defs14" />
  <path
     style="color:#000000;fill:#000000;-inkscape-stroke:none"
     d="m 17,2 a 1,1 0 0 0 -1,1 v 10 a 1,1 0 0 0 1,1 1,1 0 0 0 1,-1 V 3 A 1,1 0 0 0 17,2 Z"
     id="path2" />
  <path
     style="color:#000000;fill:#000000;-inkscape-stroke:none"
     d="M 13.169922,4.6347656 A 1,1 0 0 0 11.804688,5 1,1 0 0 0 12.169922,6.3652344 l 8.660156,4.9999996 A 1,1 0 0 0 22.195312,11 1,1 0 0 0 21.830078,9.6347656 Z"
     id="path4" />
  <path
     style="color:#000000;fill:#000000;-inkscape-stroke:none"
     d="m 21.587891,4.5332031 a 1,1 0 0 0 -0.757813,0.1015625 l -8.660156,5 A 1,1 0 0 0 11.804688,11 1,1 0 0 0 13.169922,11.365234 L 21.830078,6.3652344 A 1,1 0 0 0 22.195312,5 1,1 0 0 0 21.587891,4.5332031 Z"
     id="path6" />
  <path
     style="color:#000000;fill:#000000;-inkscape-stroke:none"
     d="m 5,14 c -1.645008,0 -3,1.354992 -3,3 v 2 c 0,1.645008 1.354992,3 3,3 h 2 c 1.645008,0 3,-1.354992 3,-3 V 17 C 10,15.354992 8.645008,14 7,14 Z m 0,2 h 2 c 0.5641288,0 1,0.435871 1,1 v 2 c 0,0.564129 -0.4358712,1 -1,1 H 5 C 4.4358712,20 4,19.564129 4,19 v -2 c 0,-0.564129 0.4358712,-1 1,-1 z"
     id="path8" />
</svg>
