<?xml version="1.0" encoding="UTF-8" standalone="no"?>
<svg
   width="24"
   height="24"
   viewBox="0 0 24 24"
   fill="none"
   stroke="currentColor"
   stroke-width="2"
   stroke-linecap="round"
   stroke-linejoin="round"
   version="1.1"
   id="svg10"
   xmlns="http://www.w3.org/2000/svg"
   xmlns:svg="http://www.w3.org/2000/svg">
  <defs
     id="defs14" />
  <path
     style="color:#000000;fill:#000000;-inkscape-stroke:none"
     d="m 4.2929687,5.2929687 -3,3.0000001 a 1,1 0 0 0 0,1.4140625 1,1 0 0 0 1.4140626,0 L 5,7.4140625 7.2929687,9.7070313 a 1,1 0 0 0 1.4140626,0 1,1 0 0 0 0,-1.4140625 L 5.7070312,5.2929687 a 1.0001,1.0001 0 0 0 -1.4140625,0 z"
     id="path2" />
  <path
     style="color:#000000;fill:#000000;-inkscape-stroke:none"
     d="M 5,5 A 1,1 0 0 0 4,6 v 10 c 0,1.645008 1.354992,3 3,3 h 6 a 1,1 0 0 0 1,-1 1,1 0 0 0 -1,-1 H 7 C 6.4358712,17 6,16.564129 6,16 V 6 A 1,1 0 0 0 5,5 Z"
     id="path4" />
  <path
     style="color:#000000;fill:#000000;-inkscape-stroke:none"
     d="m 15.292969,14.292969 a 1,1 0 0 0 0,1.414062 l 3,3 a 1.0001,1.0001 0 0 0 1.414062,0 l 3,-3 a 1,1 0 0 0 0,-1.414062 1,1 0 0 0 -1.414062,0 L 19,16.585937 16.707031,14.292969 a 1,1 0 0 0 -1.414062,0 z"
     id="path6" />
  <path
     style="color:#000000;fill:#000000;-inkscape-stroke:none"
     d="m 11,5 a 1,1 0 0 0 -1,1 1,1 0 0 0 1,1 h 6 c 0.564129,0 1,0.4358712 1,1 v 10 a 1,1 0 0 0 1,1 1,1 0 0 0 1,-1 V 8 C 20,6.354992 18.645008,5 17,5 Z"
     id="path8" />
</svg>
