<?xml version="1.0" encoding="UTF-8" standalone="no"?>
<svg
   width="24"
   height="24"
   viewBox="0 0 24 24"
   fill="none"
   stroke="currentColor"
   stroke-width="2"
   stroke-linecap="round"
   stroke-linejoin="round"
   version="1.1"
   id="svg10"
   xmlns="http://www.w3.org/2000/svg"
   xmlns:svg="http://www.w3.org/2000/svg">
  <defs
     id="defs14" />
  <path
     style="color:#000000;fill:#000000;-inkscape-stroke:none"
     d="m 16.292969,1.2929687 a 1,1 0 0 0 0,1.4140626 L 19.585937,6 16.292969,9.2929688 a 1,1 0 0 0 0,1.4140622 1,1 0 0 0 1.414062,0 l 4,-3.9999998 a 1.0001,1.0001 0 0 0 0,-1.4140625 l -4,-4 a 1,1 0 0 0 -1.414062,0 z"
     id="path2" />
  <path
     style="color:#000000;fill:#000000;-inkscape-stroke:none"
     d="M 7,5 C 4.2504236,5 2,7.2504236 2,10 v 1 a 1,1 0 0 0 1,1 1,1 0 0 0 1,-1 V 10 C 4,8.3313028 5.3313028,7 7,7 H 21 A 1,1 0 0 0 22,6 1,1 0 0 0 21,5 Z"
     id="path4" />
  <path
     style="color:#000000;fill:#000000;-inkscape-stroke:none"
     d="m 7,13 a 1,1 0 0 0 -0.7070313,0.292969 l -3.9999999,4 a 1.0001,1.0001 0 0 0 0,1.414062 l 3.9999999,4 a 1,1 0 0 0 1.4140625,0 1,1 0 0 0 0,-1.414062 L 4.4140625,18 7.7070312,14.707031 a 1,1 0 0 0 0,-1.414062 A 1,1 0 0 0 7,13 Z"
     id="path6" />
  <path
     style="color:#000000;fill:#000000;-inkscape-stroke:none"
     d="m 21,12 a 1,1 0 0 0 -1,1 v 1 c 0,1.668697 -1.331303,3 -3,3 H 3 a 1,1 0 0 0 -1,1 1,1 0 0 0 1,1 h 14 c 2.749576,0 5,-2.250424 5,-5 v -1 a 1,1 0 0 0 -1,-1 z"
     id="path8" />
</svg>
