<?xml version="1.0" encoding="UTF-8" standalone="no"?>
<svg
   width="24"
   height="24"
   viewBox="0 0 24 24"
   fill="none"
   stroke="currentColor"
   stroke-width="2"
   stroke-linecap="round"
   stroke-linejoin="round"
   version="1.1"
   id="svg20"
   xmlns="http://www.w3.org/2000/svg"
   xmlns:svg="http://www.w3.org/2000/svg">
  <defs
     id="defs24" />
  <path
     style="color:#000000;fill:#000000;-inkscape-stroke:none"
     d="m 16,1 c -1.645453,0 -3,1.3545471 -3,3 a 1,1 0 0 0 1,1 1,1 0 0 0 1,-1 C 15,3.4454551 15.445455,3 16,3 A 1,1 0 0 0 17,2 1,1 0 0 0 16,1 Z"
     id="path2" />
  <path
     style="color:#000000;fill:#000000;-inkscape-stroke:none"
     d="m 20,1 a 1,1 0 0 0 -1,1 1,1 0 0 0 1,1 c 0.554545,0 1,0.4454551 1,1 a 1,1 0 0 0 1,1 1,1 0 0 0 1,-1 C 23,2.3545471 21.645453,1 20,1 Z"
     id="path4" />
  <path
     style="color:#000000;fill:#000000;-inkscape-stroke:none"
     d="m 22,7 a 1,1 0 0 0 -1,1 c 0,0.5545449 -0.445455,1 -1,1 a 1,1 0 0 0 -1,1 1,1 0 0 0 1,1 c 1.645453,0 3,-1.3545471 3,-3 A 1,1 0 0 0 22,7 Z"
     id="path6" />
  <path
     style="color:#000000;fill:#000000;-inkscape-stroke:none"
     d="m 14,7 a 1,1 0 0 0 -1,1 c 0,1.6454529 1.354547,3 3,3 A 1,1 0 0 0 17,10 1,1 0 0 0 16,9 C 15.445455,9 15,8.5545449 15,8 A 1,1 0 0 0 14,7 Z"
     id="path8" />
  <path
     style="color:#000000;fill:#000000;-inkscape-stroke:none"
     d="m 3,6 a 1,1 0 0 0 -0.7070312,0.2929687 1,1 0 0 0 0,1.4140625 l 2.9999999,2.9999998 a 1.0001,1.0001 0 0 0 1.4140625,0 L 9.7070313,7.7070312 a 1,1 0 0 0 0,-1.4140625 1,1 0 0 0 -1.4140625,0 L 6,8.5859375 3.7070313,6.2929687 A 1,1 0 0 0 3,6 Z"
     id="path10" />
  <path
     style="color:#000000;fill:#000000;-inkscape-stroke:none"
     d="M 9,1 C 6.7901983,1 5,2.7901983 5,5 v 5 a 1,1 0 0 0 1,1 1,1 0 0 0 1,-1 V 5 C 7,3.8098051 7.8098051,3 9,3 h 1 A 1,1 0 0 0 11,2 1,1 0 0 0 10,1 Z"
     id="path12" />
  <path
     style="color:#000000;fill:#000000;-inkscape-stroke:none"
     d="m 4,13 c -1.6447011,0 -3,1.355299 -3,3 v 4 c 0,1.644701 1.3552989,3 3,3 h 4 c 1.6447011,0 3,-1.355299 3,-3 V 16 C 11,14.355299 9.6447011,13 8,13 Z m 0,2 h 4 c 0.5712967,0 1,0.428703 1,1 v 4 c 0,0.571297 -0.4287033,1 -1,1 H 4 C 3.4287033,21 3,20.571297 3,20 v -4 c 0,-0.571297 0.4287033,-1 1,-1 z"
     id="rect14" />
  <path
     style="color:#000000;fill:#000000;-inkscape-stroke:none"
     d="m 14,13 a 1,1 0 0 0 -1,1 1,1 0 0 0 1,1 c 0.554545,0 1,0.445455 1,1 v 4 c 0,0.554545 -0.445455,1 -1,1 a 1,1 0 0 0 -1,1 1,1 0 0 0 1,1 c 1.645453,0 3,-1.354547 3,-3 v -4 c 0,-1.645453 -1.354547,-3 -3,-3 z"
     id="path16" />
  <path
     style="color:#000000;fill:#000000;-inkscape-stroke:none"
     d="m 20,13 a 1,1 0 0 0 -1,1 1,1 0 0 0 1,1 c 0.554545,0 1,0.445455 1,1 v 4 c 0,0.554545 -0.445455,1 -1,1 a 1,1 0 0 0 -1,1 1,1 0 0 0 1,1 c 1.645453,0 3,-1.354547 3,-3 v -4 c 0,-1.645453 -1.354547,-3 -3,-3 z"
     id="path18" />
</svg>
