<?xml version="1.0" encoding="UTF-8" standalone="no"?>
<svg
   width="24"
   height="24"
   viewBox="0 0 24 24"
   fill="none"
   stroke="currentColor"
   stroke-width="2"
   stroke-linecap="round"
   stroke-linejoin="round"
   version="1.1"
   id="svg8"
   xmlns="http://www.w3.org/2000/svg"
   xmlns:svg="http://www.w3.org/2000/svg">
  <defs
     id="defs12" />
  <path
     style="color:#000000;fill:#000000;-inkscape-stroke:none"
     d="M 7,6 A 1,1 0 0 0 6.2929687,6.2929687 l -5,5.0000003 a 1.0001,1.0001 0 0 0 0,1.414062 l 5,5 a 1,1 0 0 0 1.4140625,0 1,1 0 0 0 0,-1.414062 L 3.4140625,12 7.7070312,7.7070312 a 1,1 0 0 0 0,-1.4140625 A 1,1 0 0 0 7,6 Z"
     id="polyline2" />
  <path
     style="color:#000000;fill:#000000;-inkscape-stroke:none"
     d="M 12,6 A 1,1 0 0 0 11.292969,6.2929687 L 6.2929687,11.292969 a 1.0001,1.0001 0 0 0 0,1.414062 l 5.0000003,5 a 1,1 0 0 0 1.414062,0 1,1 0 0 0 0,-1.414062 L 8.4140625,12 12.707031,7.7070312 a 1,1 0 0 0 0,-1.4140625 A 1,1 0 0 0 12,6 Z"
     id="polyline4" />
  <path
     style="color:#000000;fill:#000000;-inkscape-stroke:none"
     d="m 7,11 a 1,1 0 0 0 -1,1 1,1 0 0 0 1,1 h 11 c 1.668697,0 3,1.331303 3,3 v 2 a 1,1 0 0 0 1,1 1,1 0 0 0 1,-1 v -2 c 0,-2.749576 -2.250424,-5 -5,-5 z"
     id="path6" />
</svg>
