<?xml version="1.0" encoding="UTF-8" standalone="no"?>
<svg
   width="24"
   height="24"
   viewBox="0 0 24 24"
   fill="none"
   stroke="currentColor"
   stroke-width="2"
   stroke-linecap="round"
   stroke-linejoin="round"
   version="1.1"
   id="svg6"
   xmlns="http://www.w3.org/2000/svg"
   xmlns:svg="http://www.w3.org/2000/svg">
  <defs
     id="defs10" />
  <path
     style="color:#000000;fill:#000000;-inkscape-stroke:none"
     d="m 11.439453,4.1015625 a 1.0001,1.0001 0 0 0 -1.052734,0.109375 L 1.3867187,11.210938 a 1.0001,1.0001 0 0 0 0,1.578125 l 9.0000003,6.999999 A 1.0001,1.0001 0 0 0 12,19 V 5 A 1.0001,1.0001 0 0 0 11.439453,4.1015625 Z M 10,7.0429687 V 16.957031 L 3.6269531,12 Z"
     id="polygon2" />
  <path
     style="color:#000000;fill:#000000;-inkscape-stroke:none"
     d="m 22.439453,4.1015625 a 1.0001,1.0001 0 0 0 -1.052734,0.109375 l -9,7.0000005 a 1.0001,1.0001 0 0 0 0,1.578125 l 9,6.999999 A 1.0001,1.0001 0 0 0 23,19 V 5 A 1.0001,1.0001 0 0 0 22.439453,4.1015625 Z M 21,7.0429687 V 16.957031 L 14.626953,12 Z"
     id="polygon4" />
</svg>
