<?xml version="1.0" encoding="UTF-8" standalone="no"?>
<svg
   width="24"
   height="24"
   viewBox="0 0 24 24"
   fill="none"
   stroke="currentColor"
   stroke-width="2"
   stroke-linecap="round"
   stroke-linejoin="round"
   version="1.1"
   id="svg10"
   xmlns="http://www.w3.org/2000/svg"
   xmlns:svg="http://www.w3.org/2000/svg">
  <defs
     id="defs14" />
  <path
     style="color:#000000;fill:#000000;-inkscape-stroke:none"
     d="M 3.2246094,1.0390625 A 1,1 0 0 0 2.5390625,2.2753906 l 3,10.5000004 A 1.0001,1.0001 0 0 0 6.5,13.5 H 18 a 1,1 0 0 0 1,-1 1,1 0 0 0 -1,-1 H 7.2539062 L 4.4609375,1.7246094 A 1,1 0 0 0 3.2246094,1.0390625 Z"
     id="polyline2" />
  <path
     style="color:#000000;fill:#000000;-inkscape-stroke:none"
     d="m 9.2089844,11.542969 a 1,1 0 0 0 -0.5917969,0.486328 l -4,7.5 a 1,1 0 0 0 0.4121094,1.353515 1,1 0 0 0 1.3535156,-0.412109 l 4.0000005,-7.5 A 1,1 0 0 0 9.9707031,11.617188 1,1 0 0 0 9.2089844,11.542969 Z"
     id="line4" />
  <path
     style="color:#000000;fill:#000000;-inkscape-stroke:none"
     d="m 15.341797,11.560547 a 1,1 0 0 0 -0.765625,0.0332 1,1 0 0 0 -0.482422,1.330078 l 3.5,7.5 a 1,1 0 0 0 1.330078,0.482422 1,1 0 0 0 0.482422,-1.330078 l -3.5,-7.5 a 1,1 0 0 0 -0.564453,-0.515625 z"
     id="line6" />
  <path
     style="color:#000000;fill:#000000;-inkscape-stroke:none"
     d="m 2.7558594,17 a 1,1 0 0 0 -0.7089844,0.289062 1,1 0 0 0 -0.00781,1.414063 c 5.4725672,5.541817 14.4493075,5.541817 19.9218745,0 a 1,1 0 0 0 -0.0078,-1.414063 1,1 0 0 0 -1.414063,0.0078 c -4.706844,4.766405 -12.3712803,4.766405 -17.0781245,0 A 1,1 0 0 0 2.7558594,17 Z"
     id="path8" />
</svg>
