<?xml version="1.0" encoding="UTF-8" standalone="no"?>
<svg
   width="24"
   height="24"
   viewBox="0 0 24 24"
   fill="none"
   stroke="currentColor"
   stroke-width="2"
   stroke-linecap="round"
   stroke-linejoin="round"
   version="1.1"
   id="svg10"
   xmlns="http://www.w3.org/2000/svg"
   xmlns:svg="http://www.w3.org/2000/svg">
  <defs
     id="defs14" />
  <path
     style="color:#000000;fill:#000000;-inkscape-stroke:none"
     d="m 6.0039062,14.992188 c -0.7602444,-0.02351 -1.5293693,0.222772 -2.1464843,0.742187 -1.0812138,0.90822 -1.5462623,2.293139 -1.8808594,3.462891 -0.3345971,1.169751 -0.4667969,2.169921 -0.4667969,2.169921 a 1.0001,1.0001 0 0 0 1.1230469,1.123047 c 0,0 1.0001705,-0.132199 2.1699219,-0.466797 1.1697514,-0.334597 2.554671,-0.799645 3.4628906,-1.880859 1.0358523,-1.229085 1.0257941,-3.100447 -0.1523437,-4.263672 a 1.0001,1.0001 0 0 0 -0.013672,-0.01172 c -0.5840385,-0.55744 -1.3348407,-0.851469 -2.0957032,-0.875 z m -0.0625,1.990234 c 0.2773139,0.0086 0.5498152,0.119601 0.7695313,0.326172 0.3944524,0.396839 0.4045331,1.096359 0.025391,1.544922 a 1.0001,1.0001 0 0 0 -0.00195,0.0039 c -0.3517792,0.418785 -1.4671755,0.953738 -2.4824219,1.24414 -0.2430213,0.06951 -0.2347576,0.04721 -0.4511718,0.09766 0.050447,-0.216414 0.028142,-0.208151 0.097656,-0.451172 0.2904023,-1.015247 0.8253559,-2.130643 1.2441406,-2.482422 a 1.0001,1.0001 0 0 0 0.00195,0 c 0.2334575,-0.196744 0.5166687,-0.291869 0.796875,-0.283203 z"
     id="path2" />
  <path
     style="color:#000000;fill:#000000;-inkscape-stroke:none"
     d="m 22.005859,1 c -4.809992,-0.0298338 -9.294401,2.4357756 -11.847656,6.5117187 -3.14e-4,4.904e-4 3.14e-4,0.00146 0,0.00195 C 9.3245589,8.8159431 8.6225292,10.197847 8.0664063,11.640625 a 1.0001,1.0001 0 0 0 0.2265625,1.066406 l 3.0000002,3 a 1.0001,1.0001 0 0 0 1.0625,0.228516 c 1.459343,-0.555027 2.86006,-1.255385 4.179687,-2.089844 a 1.0001,1.0001 0 0 0 0.02148,-0.01563 C 22.088155,10.121209 23,4.9111736 23,2 A 1.0001,1.0001 0 0 0 22.005859,1 Z m -1.097656,2.1328125 c -0.198024,2.566857 -1.191356,6.1607371 -5.453125,9.0253905 -1.028259,0.649506 -2.130929,1.163845 -3.253906,1.628906 l -1.984375,-1.984375 c 0.465855,-1.108901 0.976038,-2.1992881 1.625,-3.2128902 a 1.0001,1.0001 0 0 0 0.0059,-0.00977 c 1.989285,-3.1806738 5.365775,-5.1262623 9.060547,-5.4472656 z"
     id="path4" />
  <path
     style="color:#000000;fill:#000000;-inkscape-stroke:none"
     d="M 7.3613281,6.5292969 C 6.7078999,6.5885461 6.0478547,6.7662739 5.4453125,7.1679687 a 1.0001,1.0001 0 0 0 -0.00195,0 C 4.3669655,7.8880391 3.8657563,9.0581735 3.515625,10.023438 c -0.3501313,0.965263 -0.5,1.798828 -0.5,1.798828 A 1.0001,1.0001 0 0 0 4,13 H 9 A 1,1 0 0 0 10,12 1,1 0 0 0 9,11 H 5.3144531 c 0.044814,-0.145142 0.024507,-0.136335 0.082031,-0.294922 C 5.6838524,9.9128438 6.1830359,9.0819599 6.5566406,8.8320313 6.972255,8.5559384 8.0337508,8.4639261 8.9804688,8.5859375 9.9279417,8.7080462 10.695312,8.953125 10.695313,8.953125 A 1,1 0 0 0 11.953125,8.3046875 1,1 0 0 0 11.304688,7.046875 c 0,0 -0.922788,-0.2954683 -2.070313,-0.4433594 C 8.6606125,6.5295701 8.0147563,6.4700476 7.3613281,6.5292969 Z"
     id="path6" />
  <path
     style="color:#000000;fill:#000000;-inkscape-stroke:none"
     d="m 15.695313,12.046875 a 1,1 0 0 0 -0.648438,1.257813 c 0,0 0.245079,0.76737 0.367188,1.714843 0.122011,0.946718 0.03,2.008214 -0.246094,2.423828 -0.249929,0.373605 -1.080813,0.872789 -1.873047,1.160157 -0.158587,0.05752 -0.14978,0.03722 -0.294922,0.08203 V 15 a 1,1 0 0 0 -1,-1 1,1 0 0 0 -1,1 v 5 a 1.0001,1.0001 0 0 0 1.177734,0.984375 c 0,0 0.833565,-0.149869 1.798829,-0.5 0.965263,-0.350131 2.135398,-0.851341 2.855468,-1.927734 a 1.0001,1.0001 0 0 0 0,-0.002 c 0.80339,-1.205084 0.712344,-2.641537 0.564453,-3.789062 -0.147891,-1.147525 -0.443359,-2.070313 -0.443359,-2.070312 a 1,1 0 0 0 -1.257812,-0.648438 z"
     id="path8" />
</svg>
