<?xml version="1.0" encoding="UTF-8" standalone="no"?>
<svg
   width="24"
   height="24"
   viewBox="0 0 24 24"
   fill="none"
   stroke="currentColor"
   stroke-width="2"
   stroke-linecap="round"
   stroke-linejoin="round"
   version="1.1"
   id="svg16"
   xmlns="http://www.w3.org/2000/svg"
   xmlns:svg="http://www.w3.org/2000/svg">
  <defs
     id="defs20" />
  <path
     style="color:#000000;fill:#000000;-inkscape-stroke:none"
     d="M 6,4 A 1,1 0 0 0 5,5 v 14 a 1,1 0 0 0 1,1 1,1 0 0 0 1,-1 V 5 A 1,1 0 0 0 6,4 Z"
     id="path2" />
  <path
     style="color:#000000;fill:#000000;-inkscape-stroke:none"
     d="m 10,5.8007812 a 1,1 0 0 0 -1,1 V 19 a 1,1 0 0 0 1,1 1,1 0 0 0 1,-1 V 6.8007812 a 1,1 0 0 0 -1,-1 z"
     id="path4" />
  <path
     style="color:#000000;fill:#000000;-inkscape-stroke:none"
     d="m 14,10.199219 a 1,1 0 0 0 -1,1 V 19 a 1,1 0 0 0 1,1 1,1 0 0 0 1,-1 v -7.800781 a 1,1 0 0 0 -1,-1 z"
     id="path6" />
  <path
     style="color:#000000;fill:#000000;-inkscape-stroke:none"
     d="m 18,4 a 1,1 0 0 0 -1,1 v 4 a 1,1 0 0 0 1,1 1,1 0 0 0 1,-1 V 5 A 1,1 0 0 0 18,4 Z"
     id="path8" />
  <path
     style="color:#000000;fill:#000000;-inkscape-stroke:none"
     d="m 18,12 a 1,1 0 0 0 -1,1 v 6 a 1,1 0 0 0 1,1 1,1 0 0 0 1,-1 v -6 a 1,1 0 0 0 -1,-1 z"
     id="path10" />
  <path
     style="color:#000000;fill:#000000;-inkscape-stroke:none"
     d="m 22,8 a 1,1 0 0 0 -1,1 v 10 a 1,1 0 0 0 1,1 1,1 0 0 0 1,-1 V 9 A 1,1 0 0 0 22,8 Z"
     id="path12" />
  <path
     style="color:#000000;fill:#000000;-inkscape-stroke:none"
     d="M 6,4 C 3.2504236,4 1,6.2504236 1,9 v 10 a 1,1 0 0 0 1,1 1,1 0 0 0 1,-1 V 9 C 3,7.3313028 4.3313028,6 6,6 7.5566651,6 9.2954694,7.058104 11.199219,9.5996094 13.295465,12.398099 15.556669,14 18,14 21.590408,13.99663 24.031116,10.216109 22.554687,6.9433594 21.078259,3.6706093 16.628648,2.9980626 14.25,5.6875 A 1,1 0 0 0 14.337891,7.0996094 1,1 0 0 0 15.75,7.0117187 C 17.217369,5.3526257 19.819676,5.7467005 20.730469,7.765625 21.641262,9.7845495 20.214895,11.997921 18,12 16.443335,12 14.704531,10.941896 12.800781,8.4003906 10.704535,5.6019013 8.4433309,4 6,4 Z"
     id="path14" />
</svg>
