<?xml version="1.0" encoding="UTF-8" standalone="no"?>
<svg
   width="24"
   height="24"
   viewBox="0 0 24 24"
   fill="none"
   stroke="currentColor"
   stroke-width="2"
   stroke-linecap="round"
   stroke-linejoin="round"
   version="1.1"
   id="svg8"
   xmlns="http://www.w3.org/2000/svg"
   xmlns:svg="http://www.w3.org/2000/svg">
  <defs
     id="defs12" />
  <path
     style="color:#000000;fill:#000000;-inkscape-stroke:none"
     d="M 12,1 C 10.078997,1 8.5661774,2.4908297 7.5703125,4.4824219 6.5744476,6.4740141 6,9.103371 6,12 6,14.896629 6.5744476,17.525986 7.5703125,19.517578 8.5661774,21.50917 10.078997,23 12,23 c 0.476502,0 0.942172,-0.09789 1.375,-0.273438 A 1,1 0 0 0 13.925781,21.423828 1,1 0 0 0 12.625,20.873047 C 12.411828,20.959503 12.207497,21 12,21 11.160005,21 10.173258,20.250701 9.359375,18.623047 8.5454917,16.995393 8,14.626366 8,12 8,9.3736345 8.5454917,7.0046073 9.359375,5.3769531 10.173258,3.7492989 11.160005,3 12,3 c 0.593998,0 1.225812,0.3351107 1.873047,1.1484375 0.647234,0.8133268 1.238014,2.0691404 1.623047,3.5957031 A 1,1 0 0 0 16.710937,8.46875 1,1 0 0 0 17.435547,7.2558594 C 16.99758,5.5194254 16.331467,4.0252181 15.439453,2.9042969 14.547439,1.7833756 13.358,1 12,1 Z"
     id="path2" />
  <path
     style="color:#000000;fill:#000000;-inkscape-stroke:none"
     d="m 15.632813,12.808594 a 1,1 0 0 0 -1.337891,0.460937 1,1 0 0 0 0.460937,1.335938 L 17.671875,16.027344 16.25,18.943359 a 1,1 0 0 0 0.458984,1.335938 1,1 0 0 0 1.337891,-0.460938 l 1.859375,-3.8125 a 1.0001,1.0001 0 0 0 -0.458984,-1.33789 z"
     id="path4" />
  <path
     style="color:#000000;fill:#000000;-inkscape-stroke:none"
     d="M 12,6 C 9.103371,6 6.4740141,6.5744476 4.4824219,7.5703125 2.4908297,8.5661774 1,10.078997 1,12 1,13.921003 2.4908297,15.433823 4.4824219,16.429687 6.4740141,17.425552 9.103371,18 12,18 c 2.859282,0 5.459114,-0.558784 7.441406,-1.53125 a 1,1 0 0 0 0.457031,-1.339844 1,1 0 0 0 -1.339843,-0.457031 C 16.932889,15.469407 14.592713,16 12,16 9.3736345,16 7.0046073,15.454508 5.3769531,14.640625 3.7492989,13.826742 3,12.839995 3,12 3,11.160005 3.7492989,10.173258 5.3769531,9.359375 7.0046073,8.5454917 9.3736345,8 12,8 c 2.300629,0 4.403282,0.4148943 5.984375,1.0683594 1.581093,0.653465 2.582643,1.5552406 2.888672,2.3085936 a 1,1 0 0 0 1.302734,0.548828 1,1 0 0 0 0.550781,-1.302734 C 22.105593,9.0944024 20.625701,7.9967367 18.748047,7.2207031 16.870393,6.4446696 14.537366,6 12,6 Z"
     id="path6" />
</svg>
