<?xml version="1.0" encoding="UTF-8" standalone="no"?>
<svg
   width="24"
   height="24"
   viewBox="0 0 24 24"
   fill="none"
   stroke="currentColor"
   stroke-width="2"
   stroke-linecap="round"
   stroke-linejoin="round"
   version="1.1"
   id="svg6"
   xmlns="http://www.w3.org/2000/svg"
   xmlns:svg="http://www.w3.org/2000/svg">
  <defs
     id="defs10" />
  <path
     style="color:#000000;fill:#000000;-inkscape-stroke:none"
     d="M 12,2 C 7.5876688,2 4.1983115,4.7051351 2.7617188,8.1738281 1.325126,11.642521 1.8100315,15.950656 4.9296875,19.070312 8.0493435,22.189969 12.357479,22.674874 15.826172,21.238281 19.294865,19.801689 22,16.412331 22,12 a 1,1 0 0 0 -1,-1 1,1 0 0 0 -1,1 c 0,3.606362 -2.141728,6.232729 -4.9375,7.390625 C 12.266728,20.548521 8.8934791,20.205979 6.34375,17.65625 3.7940209,15.106521 3.4514791,11.733272 4.609375,8.9375 5.7672709,6.1417281 8.3936379,4 12,4 c 2.255447,0 4.418592,0.8956265 6.046875,2.4609375 l 2.246094,2.2460938 a 1,1 0 0 0 1.414062,0 1,1 0 0 0 0,-1.4140626 L 19.447266,5.0332031 a 1.0001,1.0001 0 0 0 -0.01367,-0.013672 C 17.441881,3.1048457 14.784547,2 12,2 Z"
     id="path2" />
  <path
     style="color:#000000;fill:#000000;-inkscape-stroke:none"
     d="m 21,2 a 1,1 0 0 0 -1,1 v 4 h -4 a 1,1 0 0 0 -1,1 1,1 0 0 0 1,1 h 5 A 1.0001,1.0001 0 0 0 22,8 V 3 A 1,1 0 0 0 21,2 Z"
     id="path4" />
</svg>
