<?xml version="1.0" encoding="UTF-8" standalone="no"?>
<svg
   width="24"
   height="24"
   viewBox="0 0 24 24"
   fill="none"
   stroke="currentColor"
   stroke-width="2"
   stroke-linecap="round"
   stroke-linejoin="round"
   version="1.1"
   id="svg14"
   xmlns="http://www.w3.org/2000/svg"
   xmlns:svg="http://www.w3.org/2000/svg">
  <defs
     id="defs18" />
  <path
     style="color:#000000;fill:#000000;-inkscape-stroke:none"
     d="m 4,13 c -1.6447011,0 -3,1.355299 -3,3 v 4 c 0,1.644701 1.3552989,3 3,3 h 16 c 1.644701,0 3,-1.355299 3,-3 v -4 c 0,-1.644701 -1.355299,-3 -3,-3 z m 0,2 h 16 c 0.571297,0 1,0.428703 1,1 v 4 c 0,0.571297 -0.428703,1 -1,1 H 4 C 3.4287033,21 3,20.571297 3,20 v -4 c 0,-0.571297 0.4287033,-1 1,-1 z"
     id="rect2" />
  <path
     style="color:#000000;fill:#000000;-inkscape-stroke:none"
     d="m 6,17 a 1,1 0 0 0 -1,1 1,1 0 0 0 1,1 h 0.00977 a 1,1 0 0 0 1,-1 1,1 0 0 0 -1,-1 z"
     id="path4" />
  <path
     style="color:#000000;fill:#000000;-inkscape-stroke:none"
     d="m 10,17 a 1,1 0 0 0 -1,1 1,1 0 0 0 1,1 h 0.0098 a 1,1 0 0 0 1,-1 1,1 0 0 0 -1,-1 z"
     id="path6" />
  <path
     style="color:#000000;fill:#000000;-inkscape-stroke:none"
     d="m 15,9 a 1,1 0 0 0 -1,1 v 4 a 1,1 0 0 0 1,1 1,1 0 0 0 1,-1 V 10 A 1,1 0 0 0 15,9 Z"
     id="path8" />
  <path
     style="color:#000000;fill:#000000;-inkscape-stroke:none"
     d="m 15.009766,5.0039062 c -1.282581,0 -2.564775,0.4855678 -3.53711,1.4589844 a 1,1 0 0 0 0,1.4140625 1,1 0 0 0 1.414063,0 c 1.180241,-1.1815546 3.065853,-1.1815546 4.246093,0 a 1,1 0 0 0 1.414063,0 1,1 0 0 0 0,-1.4140625 C 17.574541,5.489474 16.292347,5.0039062 15.009766,5.0039062 Z"
     id="path10" />
  <path
     style="color:#000000;fill:#000000;-inkscape-stroke:none"
     d="m 15.005859,1.0058594 c -2.304465,0 -4.610343,0.8751636 -6.3632809,2.6269531 a 1,1 0 0 0 0,1.4140625 1,1 0 0 0 1.4140629,0 c 2.741656,-2.7398603 7.154827,-2.7398603 9.896484,0 a 1,1 0 0 0 1.414062,0 1,1 0 0 0 0,-1.4140625 C 19.614249,1.881023 17.310325,1.0058594 15.005859,1.0058594 Z"
     id="path12" />
</svg>
