<?xml version="1.0" encoding="UTF-8" standalone="no"?>
<svg
   width="24"
   height="24"
   viewBox="0 0 24 24"
   fill="none"
   stroke="currentColor"
   stroke-width="2"
   stroke-linecap="round"
   stroke-linejoin="round"
   version="1.1"
   id="svg8"
   xmlns="http://www.w3.org/2000/svg"
   xmlns:svg="http://www.w3.org/2000/svg">
  <defs
     id="defs12" />
  <path
     style="color:#000000;fill:#000000;-inkscape-stroke:none"
     d="m 4,10 a 1,1 0 0 0 -1,1 1,1 0 0 0 1,1 c 4.4301182,0 8,3.569882 8,8 a 1,1 0 0 0 1,1 1,1 0 0 0 1,-1 C 14,14.489003 9.5109974,10 4,10 Z"
     id="path2" />
  <path
     style="color:#000000;fill:#000000;-inkscape-stroke:none"
     d="M 4,3 A 1,1 0 0 0 3,4 1,1 0 0 0 4,5 c 8.296108,0 15,6.703892 15,15 a 1,1 0 0 0 1,1 1,1 0 0 0 1,-1 C 21,10.623013 13.376987,3 4,3 Z"
     id="path4" />
  <path
     style="color:#000000;fill:#000000;-inkscape-stroke:none"
     d="m 5,17 c -1.0927238,0 -2,0.907276 -2,2 0,1.092724 0.9072762,2 2,2 1.0927238,0 2,-0.907276 2,-2 0,-1.092724 -0.9072762,-2 -2,-2 z"
     id="circle6" />
</svg>
