<?xml version="1.0" encoding="UTF-8" standalone="no"?>
<svg
   width="24"
   height="24"
   viewBox="0 0 24 24"
   fill="none"
   stroke="currentColor"
   stroke-width="2"
   stroke-linecap="round"
   stroke-linejoin="round"
   version="1.1"
   id="svg12"
   xmlns="http://www.w3.org/2000/svg"
   xmlns:svg="http://www.w3.org/2000/svg">
  <defs
     id="defs16" />
  <path
     style="color:#000000;fill:#000000;-inkscape-stroke:none"
     d="M 17.048828,0.97460938 C 16.164122,0.97221216 15.270526,1.3154115 14.59375,1.9921875 L 2.03125,14.556641 c -1.41065834,1.269592 -1.39261454,3.496057 -0.039063,4.849609 l 2.5644531,2.5625 c 1.2695925,1.410658 3.4960574,1.392615 4.8496094,0.03906 L 21.96875,9.4433594 C 23.379408,8.1737669 23.361365,5.947302 22.007812,4.59375 L 19.443359,2.03125 C 18.808563,1.3259208 17.933534,0.97700659 17.048828,0.97460938 Z m -0.02344,1.94921872 c 0.340292,-0.0024 0.666437,0.1506427 0.93164,0.4453125 a 1.0001,1.0001 0 0 0 0.03516,0.037109 l 2.601563,2.6015625 c 0.646446,0.646446 0.626449,1.4188131 0.03711,1.9492187 a 1.0001,1.0001 0 0 0 -0.03711,0.035156 L 7.9921875,20.59375 c -0.646446,0.646446 -1.4188131,0.626449 -1.9492188,0.03711 A 1.0001,1.0001 0 0 0 6.0078125,20.59375 L 3.40625,17.992187 C 2.759804,17.345742 2.779801,16.573374 3.3691406,16.042969 A 1.0001,1.0001 0 0 0 3.40625,16.007812 L 16.007812,3.40625 c 0.323223,-0.323223 0.677286,-0.4800247 1.017579,-0.4824219 z"
     id="path2" />
  <path
     style="color:#000000;fill:#000000;-inkscape-stroke:none"
     d="m 7.5,9.5 a 1,1 0 0 0 -0.7070313,0.2929688 1,1 0 0 0 0,1.4140622 l 2.0000001,2 a 1,1 0 0 0 1.4140622,0 1,1 0 0 0 0,-1.414062 L 8.2070313,9.7929688 A 1,1 0 0 0 7.5,9.5 Z"
     id="path4" />
  <path
     style="color:#000000;fill:#000000;-inkscape-stroke:none"
     d="m 10.5,6.5 a 1,1 0 0 0 -0.7070312,0.2929687 1,1 0 0 0 0,1.4140626 l 2.0000002,1.9999997 a 1,1 0 0 0 1.414062,0 1,1 0 0 0 0,-1.4140622 l -2,-2.0000001 A 1,1 0 0 0 10.5,6.5 Z"
     id="path6" />
  <path
     style="color:#000000;fill:#000000;-inkscape-stroke:none"
     d="m 13.5,3.5 a 1,1 0 0 0 -0.707031,0.2929688 1,1 0 0 0 0,1.4140624 l 2,2 a 1,1 0 0 0 1.414062,0 1,1 0 0 0 0,-1.4140625 l -2,-1.9999999 A 1,1 0 0 0 13.5,3.5 Z"
     id="path8" />
  <path
     style="color:#000000;fill:#000000;-inkscape-stroke:none"
     d="m 4.5,12.5 a 1,1 0 0 0 -0.7070312,0.292969 1,1 0 0 0 0,1.414062 l 1.9999999,2 a 1,1 0 0 0 1.4140625,0 1,1 0 0 0 0,-1.414062 l -2,-2 A 1,1 0 0 0 4.5,12.5 Z"
     id="path10" />
</svg>
