<?xml version="1.0" encoding="UTF-8" standalone="no"?>
<svg
   width="24"
   height="24"
   viewBox="0 0 24 24"
   fill="none"
   stroke="currentColor"
   stroke-width="2"
   stroke-linecap="round"
   stroke-linejoin="round"
   version="1.1"
   id="svg12"
   xmlns="http://www.w3.org/2000/svg"
   xmlns:svg="http://www.w3.org/2000/svg">
  <defs
     id="defs16" />
  <path
     style="color:#000000;fill:#000000;-inkscape-stroke:none"
     d="m 14,2 a 1,1 0 0 0 -1,1 1,1 0 0 0 1,1 c 1.083233,0 1.768594,0.3702491 2.251953,0.9140625 C 16.735313,5.4578759 17,6.2222091 17,7 17,7.7777909 16.735313,8.5421241 16.251953,9.0859375 15.768594,9.6297509 15.083233,10 14,10 a 1,1 0 0 0 -1,1 1,1 0 0 0 1,1 c 1.583264,0 2.898158,-0.629752 3.748047,-1.585937 C 18.597936,9.4578774 19,8.2222071 19,7 19,5.7777929 18.597936,4.5421226 17.748047,3.5859375 16.898158,2.6297524 15.583264,2 14,2 Z"
     id="path2" />
  <path
     style="color:#000000;fill:#000000;-inkscape-stroke:none"
     d="m 6,10 a 1,1 0 0 0 -1,1 1,1 0 0 0 1,1 h 8 a 1,1 0 0 0 1,-1 1,1 0 0 0 -1,-1 z"
     id="path4" />
  <path
     style="color:#000000;fill:#000000;-inkscape-stroke:none"
     d="m 6,14 a 1,1 0 0 0 -1,1 1,1 0 0 0 1,1 h 8 a 1,1 0 0 0 1,-1 1,1 0 0 0 -1,-1 z"
     id="path6" />
  <path
     style="color:#000000;fill:#000000;-inkscape-stroke:none"
     d="M 9,2 A 1,1 0 0 0 8,3 v 18 a 1,1 0 0 0 1,1 1,1 0 0 0 1,-1 V 3 A 1,1 0 0 0 9,2 Z"
     id="path8" />
  <path
     style="color:#000000;fill:#000000;-inkscape-stroke:none"
     d="M 9,2 A 1,1 0 0 0 8,3 1,1 0 0 0 9,4 h 5 A 1,1 0 0 0 15,3 1,1 0 0 0 14,2 Z"
     id="path10" />
</svg>
