<?xml version="1.0" encoding="UTF-8" standalone="no"?>
<svg
   width="24"
   height="24"
   viewBox="0 0 24 24"
   fill="none"
   stroke="currentColor"
   stroke-width="2"
   stroke-linecap="round"
   stroke-linejoin="round"
   version="1.1"
   id="svg8"
   xmlns="http://www.w3.org/2000/svg"
   xmlns:svg="http://www.w3.org/2000/svg">
  <defs
     id="defs12" />
  <path
     style="color:#000000;fill:#000000;-inkscape-stroke:none"
     d="m 2,17 a 1.0001,1.0001 0 0 0 -1,1 c 0,2.749576 2.2504236,5 5,5 h 12 c 2.749576,0 5,-2.250424 5,-5 a 1.0001,1.0001 0 0 0 -1,-1 z m 1.4121094,2 H 20.587891 C 20.150854,20.112501 19.276015,21 18,21 H 6 C 4.7239851,21 3.8491461,20.112501 3.4121094,19 Z"
     id="path2" />
  <path
     style="color:#000000;fill:#000000;-inkscape-stroke:none"
     d="M 9.8925781,1.0058594 A 1.0001,1.0001 0 0 0 9.1367188,1.4960937 l -7,12.0000003 A 1.0001,1.0001 0 0 0 3,15 h 18 a 1.0001,1.0001 0 0 0 0.736328,-1.675781 l -11,-12.0000003 A 1.0001,1.0001 0 0 0 9.8925781,1.0058594 Z M 10.179688,3.6757813 18.726562,13 H 4.7402344 Z"
     id="path4" />
  <path
     style="color:#000000;fill:#000000;-inkscape-stroke:none"
     d="M 10,1 A 1,1 0 0 0 9,2 v 16 a 1,1 0 0 0 1,1 1,1 0 0 0 1,-1 V 2 A 1,1 0 0 0 10,1 Z"
     id="path6" />
</svg>
