<?xml version="1.0" encoding="UTF-8" standalone="no"?>
<svg
   width="24"
   height="24"
   viewBox="0 0 24 24"
   fill="none"
   stroke="currentColor"
   stroke-width="2"
   stroke-linecap="round"
   stroke-linejoin="round"
   version="1.1"
   id="svg12"
   xmlns="http://www.w3.org/2000/svg"
   xmlns:svg="http://www.w3.org/2000/svg">
  <defs
     id="defs16" />
  <path
     style="color:#000000;fill:#000000;-inkscape-stroke:none"
     d="m 7,20 a 1,1 0 0 0 -1,1 1,1 0 0 0 1,1 h 10 a 1,1 0 0 0 1,-1 1,1 0 0 0 -1,-1 z"
     id="path2" />
  <path
     style="color:#000000;fill:#000000;-inkscape-stroke:none"
     d="m 3,11 a 1.0001,1.0001 0 0 0 -1,1 c 0,5.510997 4.4890026,10 10,10 5.510997,0 10,-4.489003 10,-10 a 1.0001,1.0001 0 0 0 -1,-1 z m 1.2011719,2 H 19.798828 C 19.288438,16.93217 16.075031,20 12,20 7.9249687,20 4.7115615,16.93217 4.2011719,13 Z"
     id="path4" />
  <path
     style="color:#000000;fill:#000000;-inkscape-stroke:none"
     d="M 19.4375,2.3320313 C 18.834485,2.2732911 18.215564,2.4399427 17.623047,2.7402344 16.31129,2.1310049 14.790312,2.4151569 13.789063,3.4628906 11.872442,3.2122483 10.190883,4.6181534 10.060547,6.5273437 8.6365484,7.1275617 7.8567103,8.5486928 7.96875,9.8847656 8.1002829,11.453295 9.41722,13.018375 11.388672,13 A 1,1 0 0 0 12.380859,11.990234 1,1 0 0 0 11.371094,11 c -0.998946,0.0093 -1.348955,-0.576665 -1.4082034,-1.2832031 -0.059248,-0.7065385 0.1872824,-1.3428124 1.1738284,-1.5 A 1.0001,1.0001 0 0 0 11.955078,7.0097656 C 11.696289,5.8645553 12.725963,4.9742933 13.822266,5.3945312 a 1.0001,1.0001 0 0 0 1.201172,-0.3984375 c 0.446256,-0.7025134 1.360663,-0.8679949 2.02539,-0.3671875 a 1.0001,1.0001 0 0 0 1.21875,-0.011719 c 0.741364,-0.5826911 1.372827,-0.3732668 1.855469,0.109375 0.482642,0.4826418 0.694019,1.1141046 0.111328,1.8554687 a 1.0001,1.0001 0 0 0 -0.01367,1.21875 c 0.582906,0.7742783 0.270603,1.8281268 -0.640625,2.1582032 a 1.0001,1.0001 0 0 0 -0.628906,1.1874996 c 0.0549,0.216555 0.06059,0.440932 0.01758,0.660157 a 1,1 0 0 0 0.789062,1.173828 1,1 0 0 0 1.173829,-0.78711 C 20.982764,11.932786 20.91868,11.670057 20.910156,11.40625 22.280934,10.492125 22.781907,8.7551722 22.097656,7.25 22.814988,5.8615807 22.489731,4.2651221 21.537109,3.3125 20.995656,2.7710464 20.242051,2.4104032 19.4375,2.3320313 Z"
     id="path6" />
  <path
     style="color:#000000;fill:#000000;-inkscape-stroke:none"
     d="m 16.292969,7.2929687 -4,4.0000003 a 1,1 0 0 0 0,1.414062 1,1 0 0 0 1.414062,0 l 4,-3.9999997 a 1,1 0 0 0 0,-1.4140626 1,1 0 0 0 -1.414062,0 z"
     id="path8" />
  <path
     style="color:#000000;fill:#000000;-inkscape-stroke:none"
     d="M 8.9765625,5.0839844 C 8.0148355,4.8935107 7.0224416,4.9930798 6.1425781,5.34375 4.3844577,6.0444502 2.9913134,7.7810575 3,10 c 0,6.65e-4 -3e-7,0.0013 0,0.002 3.672e-4,0.9119 0.2528751,1.76757 0.6738281,2.498047 A 1,1 0 0 0 5.0390625,12.867188 1,1 0 0 0 5.40625,11.5 C 5.1475106,11.051011 5,10.547351 5,10 a 1.0001,1.0001 0 0 0 0,-0.00586 C 4.9928827,8.5896704 5.8081992,7.6314129 6.8828125,7.203125 7.9574258,6.7748371 9.2090335,6.9092497 10.169922,7.9335937 a 1,1 0 0 0 1.414062,0.044922 1,1 0 0 0 0.04492,-1.4121094 C 10.868849,5.7561563 9.9382895,5.274458 8.9765625,5.0839844 Z"
     id="path10" />
</svg>
