<?xml version="1.0" encoding="UTF-8" standalone="no"?>
<svg
   width="24"
   height="24"
   viewBox="0 0 24 24"
   fill="none"
   stroke="currentColor"
   stroke-width="2"
   stroke-linecap="round"
   stroke-linejoin="round"
   version="1.1"
   id="svg10"
   xmlns="http://www.w3.org/2000/svg"
   xmlns:svg="http://www.w3.org/2000/svg">
  <defs
     id="defs14" />
  <path
     style="color:#000000;fill:#000000;-inkscape-stroke:none"
     d="m 3,10 a 1,1 0 0 0 -1,1 v 3 c 0,1.092724 0.9072762,2 2,2 h 16 c 1.092724,0 2,-0.907276 2,-2 v -3 a 1,1 0 0 0 -1,-1 1,1 0 0 0 -1,1 v 3 H 4 V 11 A 1,1 0 0 0 3,10 Z"
     id="path2" />
  <path
     style="color:#000000;fill:#000000;-inkscape-stroke:none"
     d="m 4,14 c -1.0927238,0 -2,0.907276 -2,2 v 2 c 0,1.092724 0.9072762,2 2,2 h 8 a 1,1 0 0 0 1,-1 1,1 0 0 0 -1,-1 H 4 v -2 h 16 v 2 h -3.830078 a 1,1 0 0 0 -1,1 1,1 0 0 0 1,1 H 20 c 1.092724,0 2,-0.907276 2,-2 v -2 c 0,-1.092724 -0.907276,-2 -2,-2 z"
     id="path4" />
  <path
     style="color:#000000;fill:#000000;-inkscape-stroke:none"
     d="m 12,3.5390625 c -0.652368,0 -1.305441,0.2114433 -1.845703,0.6328125 L 2.3867188,10.210938 A 1.0001,1.0001 0 0 0 3,12 h 18 a 1.0001,1.0001 0 0 0 0.613281,-1.789062 L 13.845703,4.171875 C 13.305441,3.7505058 12.652368,3.5390625 12,3.5390625 Z m -0.615234,2.2089844 c 0.365563,-0.285116 0.864905,-0.285116 1.230468,0 a 1.0001,1.0001 0 0 0 0.002,0.00195 L 18.085937,10 H 5.9140625 L 11.382813,5.75 a 1.0001,1.0001 0 0 0 0.002,-0.00195 z"
     id="path6" />
  <path
     style="color:#000000;fill:#000000;-inkscape-stroke:none"
     d="m 7,14 a 1.0001,1.0001 0 0 0 -0.625,1.78125 l 5.96875,4.769531 h 0.002 c 1.261108,1.010434 3.125549,0.828848 4.167969,-0.40625 a 1.0001,1.0001 0 0 0 0.0039,-0.0039 l 3.75,-4.5 A 1.0001,1.0001 0 0 0 19.5,14 Z m 2.8535156,2 h 7.5117184 l -2.378906,2.855469 c -4.07e-4,4.82e-4 -0.0015,-4.81e-4 -0.002,0 -0.357186,0.421719 -0.957395,0.480791 -1.388672,0.134765 a 1.0001,1.0001 0 0 0 -0.002,-0.002 z"
     id="path8" />
</svg>
