<?xml version="1.0" encoding="UTF-8" standalone="no"?>
<svg
   width="24"
   height="24"
   viewBox="0 0 24 24"
   fill="none"
   stroke="currentColor"
   stroke-width="2"
   stroke-linecap="round"
   stroke-linejoin="round"
   version="1.1"
   id="svg12"
   xmlns="http://www.w3.org/2000/svg"
   xmlns:svg="http://www.w3.org/2000/svg">
  <defs
     id="defs16" />
  <path
     style="color:#000000;fill:#000000;-inkscape-stroke:none"
     d="M 8.2929688,2.2929688 4.2929687,6.2929687 a 1.0001,1.0001 0 0 0 0,1.4140625 l 4.0000001,3.9999998 a 1,1 0 0 0 1.4140625,0 1,1 0 0 0 0,-1.414062 L 6.4140625,7 9,4.4140625 12.292969,7.7070312 a 1,1 0 0 0 1.414062,0 1,1 0 0 0 0,-1.4140625 L 9.7070313,2.2929688 a 1.0001,1.0001 0 0 0 -1.4140625,0 z"
     id="path2" />
  <path
     style="color:#000000;fill:#000000;-inkscape-stroke:none"
     d="m 16.292969,10.292969 a 1,1 0 0 0 0,1.414062 L 19.585937,15 17,17.585937 13.707031,14.292969 a 1,1 0 0 0 -1.414062,0 1,1 0 0 0 0,1.414062 l 4,4 a 1.0001,1.0001 0 0 0 1.414062,0 l 4,-4 a 1.0001,1.0001 0 0 0 0,-1.414062 l -4,-4 a 1,1 0 0 0 -1.414062,0 z"
     id="path4" />
  <path
     style="color:#000000;fill:#000000;-inkscape-stroke:none"
     d="M 13.292969,5.2929687 7.2929687,11.292969 a 1.0001,1.0001 0 0 0 0,1.414062 l 4.0000003,4 a 1.0001,1.0001 0 0 0 1.414062,0 l 6,-6 a 1.0001,1.0001 0 0 0 0,-1.4140622 l -4,-4.0000001 a 1.0001,1.0001 0 0 0 -1.414062,0 z M 14,7.4140625 16.585937,10 12,14.585938 9.4140625,12 Z"
     id="path6" />
  <path
     style="color:#000000;fill:#000000;-inkscape-stroke:none"
     d="m 18.292969,4.2929687 -3,3 a 1,1 0 0 0 0,1.4140626 1,1 0 0 0 1.414062,0 l 3,-3.0000001 a 1,1 0 0 0 0,-1.4140625 1,1 0 0 0 -1.414062,0 z"
     id="path8" />
  <path
     style="color:#000000;fill:#000000;-inkscape-stroke:none"
     d="m 3,14 a 1,1 0 0 0 -1,1 1,1 0 0 0 1,1 c 2.7732656,0 5,2.226734 5,5 a 1,1 0 0 0 1,1 1,1 0 0 0 1,-1 C 10,17.145855 6.8541448,14 3,14 Z"
     id="path10" />
</svg>
