<?xml version="1.0" encoding="UTF-8" standalone="no"?>
<svg
   width="24"
   height="24"
   viewBox="0 0 24 24"
   fill="none"
   stroke="currentColor"
   stroke-width="2"
   stroke-linecap="round"
   stroke-linejoin="round"
   version="1.1"
   id="svg10"
   xmlns="http://www.w3.org/2000/svg"
   xmlns:svg="http://www.w3.org/2000/svg">
  <defs
     id="defs14" />
  <path
     style="color:#000000;fill:#000000;-inkscape-stroke:none"
     d="M 3.8730469,9.0078125 A 1.0001,1.0001 0 0 0 3.1367188,9.4960938 C 1.0154036,13.12476 1.9923864,17.121293 4.4355469,19.564453 6.8787074,22.007614 10.87524,22.984596 14.503906,20.863281 a 1.0001,1.0001 0 0 0 0.203125,-1.570312 L 4.7070312,9.2929688 A 1.0001,1.0001 0 0 0 3.8730469,9.0078125 Z m 0.5,2.7792965 7.8398441,7.839844 C 9.7894693,20.450652 7.4497503,19.750532 5.8496094,18.150391 4.2494685,16.55025 3.5493475,14.210531 4.3730469,11.787109 Z"
     id="path2" />
  <path
     style="color:#000000;fill:#000000;-inkscape-stroke:none"
     d="m 12,11 a 1,1 0 0 0 -0.707031,0.292969 l -3.0000002,3 a 1,1 0 0 0 0,1.414062 1,1 0 0 0 1.4140625,0 l 2.9999997,-3 a 1,1 0 0 0 0,-1.414062 A 1,1 0 0 0 12,11 Z"
     id="path4" />
  <path
     style="color:#000000;fill:#000000;-inkscape-stroke:none"
     d="m 11,6 a 1,1 0 0 0 -1,1 1,1 0 0 0 1,1 c 2.773266,0 5,2.226734 5,5 a 1,1 0 0 0 1,1 1,1 0 0 0 1,-1 C 18,9.1458552 14.854145,6 11,6 Z"
     id="path6" />
  <path
     style="color:#000000;fill:#000000;-inkscape-stroke:none"
     d="m 11,2 a 1,1 0 0 0 -1,1 1,1 0 0 0 1,1 c 4.982402,0 9,4.0175976 9,9 a 1,1 0 0 0 1,1 1,1 0 0 0 1,-1 C 22,6.9367185 17.063282,2 11,2 Z"
     id="path8" />
</svg>
