<?xml version="1.0" encoding="UTF-8" standalone="no"?>
<svg
   width="24"
   height="24"
   viewBox="0 0 24 24"
   fill="none"
   stroke="currentColor"
   stroke-width="2"
   stroke-linecap="round"
   stroke-linejoin="round"
   version="1.1"
   id="svg8"
   xmlns="http://www.w3.org/2000/svg"
   xmlns:svg="http://www.w3.org/2000/svg">
  <defs
     id="defs12" />
  <path
     style="color:#000000;fill:#000000;-inkscape-stroke:none"
     d="M 5,2 C 3.354992,2 2,3.354992 2,5 v 14 c 0,1.645008 1.354992,3 3,3 h 14 c 1.645008,0 3,-1.354992 3,-3 V 8 A 1.0001,1.0001 0 0 0 21.707031,7.2929687 l -5,-4.9999999 A 1.0001,1.0001 0 0 0 16,2 Z M 5,4 H 15.585938 L 20,8.4140625 V 19 c 0,0.564129 -0.435871,1 -1,1 H 5 C 4.4358712,20 4,19.564129 4,19 V 5 C 4,4.4358712 4.4358712,4 5,4 Z"
     id="path2" />
  <path
     style="color:#000000;fill:#000000;-inkscape-stroke:none"
     d="m 7,12 a 1.0001,1.0001 0 0 0 -1,1 v 8 a 1,1 0 0 0 1,1 1,1 0 0 0 1,-1 v -7 h 8 v 7 a 1,1 0 0 0 1,1 1,1 0 0 0 1,-1 v -8 a 1.0001,1.0001 0 0 0 -1,-1 z"
     id="polyline4" />
  <path
     style="color:#000000;fill:#000000;-inkscape-stroke:none"
     d="M 7,2 A 1,1 0 0 0 6,3 v 5 a 1.0001,1.0001 0 0 0 1,1 h 8 A 1,1 0 0 0 16,8 1,1 0 0 0 15,7 H 8 V 3 A 1,1 0 0 0 7,2 Z"
     id="polyline6" />
</svg>
