<?xml version="1.0" encoding="UTF-8" standalone="no"?>
<svg
   width="24"
   height="24"
   viewBox="0 0 24 24"
   fill="none"
   stroke="currentColor"
   stroke-width="2"
   stroke-linecap="round"
   stroke-linejoin="round"
   version="1.1"
   id="svg10"
   xmlns="http://www.w3.org/2000/svg"
   xmlns:svg="http://www.w3.org/2000/svg">
  <defs
     id="defs14" />
  <path
     style="color:#000000;fill:#000000;-inkscape-stroke:none"
     d="M 8,1 C 6.354992,1 5,2.354992 5,4 v 12 c 0,1.645008 1.354992,3 3,3 h 11.994141 c 1.537716,0.0077 2.846245,-1.169189 3,-2.699219 A 1.0001,1.0001 0 0 0 23,16.199219 V 6 A 1.0001,1.0001 0 0 0 22.707031,5.2929687 l -4,-4 A 1.0001,1.0001 0 0 0 18,1 Z m 0,2 h 9.585937 L 21,6.4140625 V 16.111328 C 20.941424,16.625635 20.525305,17.002603 20.005859,17 A 1.0001,1.0001 0 0 0 20,17 H 8 C 7.4358712,17 7,16.564129 7,16 V 4 C 7,3.4358712 7.4358712,3 8,3 Z"
     id="path2" />
  <path
     style="color:#000000;fill:#000000;-inkscape-stroke:none"
     d="M 10,1 A 1,1 0 0 0 9,2 v 4 a 1.0001,1.0001 0 0 0 1,1 h 6 A 1,1 0 0 0 17,6 1,1 0 0 0 16,5 H 11 V 2 A 1,1 0 0 0 10,1 Z"
     id="path4" />
  <path
     style="color:#000000;fill:#000000;-inkscape-stroke:none"
     d="m 10,10 a 1.0001,1.0001 0 0 0 -1,1 v 7 a 1,1 0 0 0 1,1 1,1 0 0 0 1,-1 v -6 h 6 v 6 a 1,1 0 0 0 1,1 1,1 0 0 0 1,-1 v -7 a 1.0001,1.0001 0 0 0 -1,-1 z"
     id="path6" />
  <path
     style="color:#000000;fill:#000000;-inkscape-stroke:none"
     d="M 2,5 A 1,1 0 0 0 1,6 v 14 c 0,1.645008 1.354992,3 3,3 h 14 a 1,1 0 0 0 1,-1 1,1 0 0 0 -1,-1 H 4 C 3.4358712,21 3,20.564129 3,20 V 6 A 1,1 0 0 0 2,5 Z"
     id="path8" />
</svg>
