<?xml version="1.0" encoding="UTF-8" standalone="no"?>
<svg
   width="24"
   height="24"
   viewBox="0 0 24 24"
   fill="none"
   stroke="currentColor"
   stroke-width="2"
   stroke-linecap="round"
   stroke-linejoin="round"
   version="1.1"
   id="svg10"
   xmlns="http://www.w3.org/2000/svg"
   xmlns:svg="http://www.w3.org/2000/svg">
  <defs
     id="defs14" />
  <path
     style="color:#000000;fill:#000000;-inkscape-stroke:none"
     d="m 19,16 c -1.645008,0 -3,1.354992 -3,3 0,1.645008 1.354992,3 3,3 1.645008,0 3,-1.354992 3,-3 0,-1.645008 -1.354992,-3 -3,-3 z m 0,2 c 0.564129,0 1,0.435871 1,1 0,0.564129 -0.435871,1 -1,1 -0.564129,0 -1,-0.435871 -1,-1 0,-0.564129 0.435871,-1 1,-1 z"
     id="circle2" />
  <path
     style="color:#000000;fill:#000000;-inkscape-stroke:none"
     d="M 5,2 C 3.354992,2 2,3.354992 2,5 2,6.645008 3.354992,8 5,8 6.645008,8 8,6.645008 8,5 8,3.354992 6.645008,2 5,2 Z M 5,4 C 5.5641288,4 6,4.4358712 6,5 6,5.5641288 5.5641288,6 5,6 4.4358712,6 4,5.5641288 4,5 4,4.4358712 4.4358712,4 5,4 Z"
     id="circle4" />
  <path
     style="color:#000000;fill:#000000;-inkscape-stroke:none"
     d="M 5,6 A 1,1 0 0 0 4,7 v 12 a 1.0001,1.0001 0 0 0 1,1 h 12 a 1,1 0 0 0 1,-1 1,1 0 0 0 -1,-1 H 6 V 7 A 1,1 0 0 0 5,6 Z"
     id="path6" />
  <path
     style="color:#000000;fill:#000000;-inkscape-stroke:none"
     d="m 11,12 a 1,1 0 0 0 -0.707031,0.292969 l -6.0000003,6 a 1,1 0 0 0 0,1.414062 1,1 0 0 0 1.4140625,0 l 5.9999998,-6 a 1,1 0 0 0 0,-1.414062 A 1,1 0 0 0 11,12 Z"
     id="path8" />
</svg>
