<?xml version="1.0" encoding="UTF-8" standalone="no"?>
<svg
   width="24"
   height="24"
   viewBox="0 0 24 24"
   fill="none"
   stroke="currentColor"
   stroke-width="2"
   stroke-linecap="round"
   stroke-linejoin="round"
   version="1.1"
   id="svg12"
   xmlns="http://www.w3.org/2000/svg"
   xmlns:svg="http://www.w3.org/2000/svg">
  <defs
     id="defs16" />
  <path
     style="color:#000000;fill:#000000;-inkscape-stroke:none"
     d="m 19,7 a 1.0001,1.0001 0 0 0 -0.935547,0.6484375 l -3,8.0000005 a 1.0001,1.0001 0 0 0 0.337891,1.152343 C 16.443513,17.578666 17.703952,18 19,18 c 1.296048,0 2.556487,-0.421334 3.597656,-1.199219 a 1.0001,1.0001 0 0 0 0.337891,-1.152343 l -3,-8.0000005 A 1.0001,1.0001 0 0 0 19,7 Z m 0,3.845703 1.71875,4.582031 C 20.168516,15.700149 19.61804,16 19,16 18.38196,16 17.831484,15.700149 17.28125,15.427734 Z"
     id="path2" />
  <path
     style="color:#000000;fill:#000000;-inkscape-stroke:none"
     d="M 5,7 A 1.0001,1.0001 0 0 0 4.0644531,7.6484375 l -3,8.0000005 a 1.0001,1.0001 0 0 0 0.3378906,1.152343 C 2.4435129,17.578666 3.7039519,18 5,18 6.2960481,18 7.5564871,17.578666 8.5976563,16.800781 a 1.0001,1.0001 0 0 0 0.3378906,-1.152343 l -3,-8.0000005 A 1.0001,1.0001 0 0 0 5,7 Z m 0,3.845703 1.71875,4.582031 C 6.1685162,15.700149 5.6180402,16 5,16 4.3819598,16 3.8314838,15.700149 3.28125,15.427734 Z"
     id="path4" />
  <path
     style="color:#000000;fill:#000000;-inkscape-stroke:none"
     d="m 7,20 a 1,1 0 0 0 -1,1 1,1 0 0 0 1,1 h 10 a 1,1 0 0 0 1,-1 1,1 0 0 0 -1,-1 z"
     id="path6" />
  <path
     style="color:#000000;fill:#000000;-inkscape-stroke:none"
     d="m 12,2 a 1,1 0 0 0 -1,1 v 18 a 1,1 0 0 0 1,1 1,1 0 0 0 1,-1 V 3 A 1,1 0 0 0 12,2 Z"
     id="path8" />
  <path
     style="color:#000000;fill:#000000;-inkscape-stroke:none"
     d="M 11.552734,4.1054687 C 9.6719932,5.0458393 6.666665,6 5,6 H 3 A 1,1 0 0 0 2,7 1,1 0 0 0 3,8 H 5 C 7.1901016,8 9.9153981,7.0616211 12,6.0722656 14.084602,7.0616211 16.809898,8 19,8 h 2 A 1,1 0 0 0 22,7 1,1 0 0 0 21,6 H 19 C 17.333335,6 14.328007,5.0458393 12.447266,4.1054687 a 1.0001,1.0001 0 0 0 -0.894532,0 z"
     id="path10" />
</svg>
