<?xml version="1.0" encoding="UTF-8" standalone="no"?>
<svg
   width="24"
   height="24"
   viewBox="0 0 24 24"
   fill="none"
   stroke="currentColor"
   stroke-width="2"
   stroke-linecap="round"
   stroke-linejoin="round"
   version="1.1"
   id="svg10"
   xmlns="http://www.w3.org/2000/svg"
   xmlns:svg="http://www.w3.org/2000/svg">
  <defs
     id="defs14" />
  <path
     style="color:#000000;fill:#000000;-inkscape-stroke:none"
     d="M 20.292969,2.2929688 8.2929688,14.292969 a 1,1 0 0 0 0,1.414062 1,1 0 0 0 1.4140625,0 L 21.707031,3.7070313 a 1,1 0 0 0 0,-1.4140625 1,1 0 0 0 -1.414062,0 z"
     id="path2" />
  <path
     style="color:#000000;fill:#000000;-inkscape-stroke:none"
     d="M 3,2 A 1.0001,1.0001 0 0 0 2,3 v 18 a 1.0001,1.0001 0 0 0 1,1 h 18 a 1.0001,1.0001 0 0 0 1,-1 v -9 a 1,1 0 0 0 -1,-1 1,1 0 0 0 -1,1 v 8 H 4 V 4 h 8 A 1,1 0 0 0 13,3 1,1 0 0 0 12,2 Z"
     id="path4" />
  <path
     style="color:#000000;fill:#000000;-inkscape-stroke:none"
     d="m 16,2 a 1,1 0 0 0 -1,1 1,1 0 0 0 1,1 h 4 v 4 a 1,1 0 0 0 1,1 1,1 0 0 0 1,-1 V 3 A 1.0001,1.0001 0 0 0 21,2 Z"
     id="path6" />
  <path
     style="color:#000000;fill:#000000;-inkscape-stroke:none"
     d="m 9,9 a 1,1 0 0 0 -1,1 v 5 a 1.0001,1.0001 0 0 0 1,1 h 5 a 1,1 0 0 0 1,-1 1,1 0 0 0 -1,-1 H 10 V 10 A 1,1 0 0 0 9,9 Z"
     id="path8" />
</svg>
