<?xml version="1.0" encoding="UTF-8" standalone="no"?>
<svg
   width="24"
   height="24"
   viewBox="0 0 24 24"
   fill="none"
   stroke="currentColor"
   stroke-width="2"
   stroke-linecap="round"
   stroke-linejoin="round"
   version="1.1"
   id="svg16"
   xmlns="http://www.w3.org/2000/svg"
   xmlns:svg="http://www.w3.org/2000/svg">
  <defs
     id="defs20" />
  <path
     style="color:#000000;fill:#000000;-inkscape-stroke:none"
     d="M 5,2 C 3.354992,2 2,3.354992 2,5 V 7 A 1,1 0 0 0 3,8 1,1 0 0 0 4,7 V 5 C 4,4.4358712 4.4358712,4 5,4 H 7 A 1,1 0 0 0 8,3 1,1 0 0 0 7,2 Z"
     id="path2" />
  <path
     style="color:#000000;fill:#000000;-inkscape-stroke:none"
     d="m 17,2 a 1,1 0 0 0 -1,1 1,1 0 0 0 1,1 h 2 c 0.564129,0 1,0.4358712 1,1 v 2 a 1,1 0 0 0 1,1 1,1 0 0 0 1,-1 V 5 C 22,3.354992 20.645008,2 19,2 Z"
     id="path4" />
  <path
     style="color:#000000;fill:#000000;-inkscape-stroke:none"
     d="m 21,16 a 1,1 0 0 0 -1,1 v 2 c 0,0.564129 -0.435871,1 -1,1 h -2 a 1,1 0 0 0 -1,1 1,1 0 0 0 1,1 h 2 c 1.645008,0 3,-1.354992 3,-3 v -2 a 1,1 0 0 0 -1,-1 z"
     id="path6" />
  <path
     style="color:#000000;fill:#000000;-inkscape-stroke:none"
     d="m 3,16 a 1,1 0 0 0 -1,1 v 2 c 0,1.645008 1.354992,3 3,3 H 7 A 1,1 0 0 0 8,21 1,1 0 0 0 7,20 H 5 C 4.4358712,20 4,19.564129 4,19 V 17 A 1,1 0 0 0 3,16 Z"
     id="path8" />
  <path
     style="color:#000000;fill:#000000;-inkscape-stroke:none"
     d="m 8.140625,13.009766 a 1,1 0 0 0 -0.7402344,0.189453 1,1 0 0 0 -0.2011719,1.40039 c 0,0 1.767451,2.400391 4.8007813,2.400391 3.03333,0 4.800781,-2.400391 4.800781,-2.400391 a 1,1 0 0 0 -0.201172,-1.40039 1,1 0 0 0 -1.40039,0.201172 C 15.199219,13.400391 13.966665,15 12,15 10.033335,15 8.8007812,13.400391 8.8007813,13.400391 A 1,1 0 0 0 8.140625,13.009766 Z"
     id="path10" />
  <path
     style="color:#000000;fill:#000000;-inkscape-stroke:none"
     d="m 9,8 a 1,1 0 0 0 -1,1 1,1 0 0 0 1,1 h 0.00977 A 1,1 0 0 0 10.009766,9 1,1 0 0 0 9.0097656,8 Z"
     id="path12" />
  <path
     style="color:#000000;fill:#000000;-inkscape-stroke:none"
     d="m 15,8 a 1,1 0 0 0 -1,1 1,1 0 0 0 1,1 h 0.0098 a 1,1 0 0 0 1,-1 1,1 0 0 0 -1,-1 z"
     id="path14" />
</svg>
