<?xml version="1.0" encoding="UTF-8" standalone="no"?>
<svg
   width="24"
   height="24"
   viewBox="0 0 24 24"
   fill="none"
   stroke="currentColor"
   stroke-width="2"
   stroke-linecap="round"
   stroke-linejoin="round"
   version="1.1"
   id="svg14"
   xmlns="http://www.w3.org/2000/svg"
   xmlns:svg="http://www.w3.org/2000/svg">
  <defs
     id="defs18" />
  <path
     style="color:#000000;fill:#000000;-inkscape-stroke:none"
     d="m 11.552734,1.1054687 -7.9999996,4 A 1,1 0 0 0 3.1054688,6.4472656 1,1 0 0 0 4.4472656,6.8945312 L 12,3.1171875 19.552734,6.8945312 A 1,1 0 0 0 20.894531,6.4472656 1,1 0 0 0 20.447266,5.1054687 l -8,-4 a 1.0001,1.0001 0 0 0 -0.894532,0 z"
     id="path2" />
  <path
     style="color:#000000;fill:#000000;-inkscape-stroke:none"
     d="m 6.3164062,9.0507813 a 1,1 0 0 0 -0.7636718,0.054687 l -4,2.0000002 A 1.0001,1.0001 0 0 0 1,12 v 8 c 0,1.645008 1.354992,3 3,3 h 16 c 1.645008,0 3,-1.354992 3,-3 v -8 a 1.0001,1.0001 0 0 0 -0.552734,-0.894531 l -4,-2.0000002 a 1,1 0 0 0 -1.341797,0.4472656 1,1 0 0 0 0.447265,1.3417966 L 21,12.617188 V 20 c 0,0.564129 -0.435871,1 -1,1 H 4 C 3.4358712,21 3,20.564129 3,20 V 12.617188 L 6.4472656,10.894531 A 1,1 0 0 0 6.8945312,9.5527344 1,1 0 0 0 6.3164062,9.0507813 Z"
     id="path4" />
  <path
     style="color:#000000;fill:#000000;-inkscape-stroke:none"
     d="m 12,15 c -1.645008,0 -3,1.354992 -3,3 v 4 a 1,1 0 0 0 1,1 1,1 0 0 0 1,-1 v -4 c 0,-0.564129 0.435871,-1 1,-1 0.564129,0 1,0.435871 1,1 v 4 a 1,1 0 0 0 1,1 1,1 0 0 0 1,-1 v -4 c 0,-1.645008 -1.354992,-3 -3,-3 z"
     id="path6" />
  <path
     style="color:#000000;fill:#000000;-inkscape-stroke:none"
     d="m 18,4 a 1,1 0 0 0 -1,1 v 17 a 1,1 0 0 0 1,1 1,1 0 0 0 1,-1 V 5 A 1,1 0 0 0 18,4 Z"
     id="path8" />
  <path
     style="color:#000000;fill:#000000;-inkscape-stroke:none"
     d="M 6,4 A 1,1 0 0 0 5,5 v 17 a 1,1 0 0 0 1,1 1,1 0 0 0 1,-1 V 5 A 1,1 0 0 0 6,4 Z"
     id="path10" />
  <path
     style="color:#000000;fill:#000000;-inkscape-stroke:none"
     d="m 12,6 c -1.645008,0 -3,1.354992 -3,3 0,1.645008 1.354992,3 3,3 1.645008,0 3,-1.354992 3,-3 0,-1.645008 -1.354992,-3 -3,-3 z m 0,2 c 0.564129,0 1,0.4358712 1,1 0,0.5641288 -0.435871,1 -1,1 -0.564129,0 -1,-0.4358712 -1,-1 0,-0.5641288 0.435871,-1 1,-1 z"
     id="circle12" />
</svg>
