<?xml version="1.0" encoding="UTF-8" standalone="no"?>
<svg
   width="24"
   height="24"
   viewBox="0 0 24 24"
   fill="none"
   stroke="currentColor"
   stroke-width="2"
   stroke-linecap="round"
   stroke-linejoin="round"
   version="1.1"
   id="svg16"
   xmlns="http://www.w3.org/2000/svg"
   xmlns:svg="http://www.w3.org/2000/svg">
  <defs
     id="defs20" />
  <path
     style="color:#000000;fill:#000000;-inkscape-stroke:none"
     d="m 12,8 c -1.092724,0 -2,0.9072762 -2,2 0,1.092724 0.907276,2 2,2 1.092724,0 2,-0.907276 2,-2 0,-1.0927238 -0.907276,-2 -2,-2 z"
     id="circle2" />
  <path
     style="color:#000000;fill:#000000;-inkscape-stroke:none"
     d="M 11.445313,3.1679688 5.6972656,7 H 2 A 1.0001,1.0001 0 0 0 1,8 v 12 c 0,1.645008 1.354992,3 3,3 h 16 c 1.645008,0 3,-1.354992 3,-3 V 8 A 1.0001,1.0001 0 0 0 22,7 H 18.302734 L 12.554688,3.1679688 a 1.0001,1.0001 0 0 0 -1.109375,0 z M 12,5.2011719 17.445312,8.8320313 A 1.0001,1.0001 0 0 0 18,9 h 3 v 11 c 0,0.564129 -0.435871,1 -1,1 H 4 C 3.4358712,21 3,20.564129 3,20 V 9 H 6 A 1.0001,1.0001 0 0 0 6.5546875,8.8320313 Z"
     id="path4" />
  <path
     style="color:#000000;fill:#000000;-inkscape-stroke:none"
     d="m 6,16 a 1,1 0 0 0 -1,1 v 0.0098 a 1,1 0 0 0 1,1 1,1 0 0 0 1,-1 V 17 A 1,1 0 0 0 6,16 Z"
     id="path6" />
  <path
     style="color:#000000;fill:#000000;-inkscape-stroke:none"
     d="m 6,12 a 1,1 0 0 0 -1,1 v 0.0098 a 1,1 0 0 0 1,1 1,1 0 0 0 1,-1 V 13 A 1,1 0 0 0 6,12 Z"
     id="path8" />
  <path
     style="color:#000000;fill:#000000;-inkscape-stroke:none"
     d="m 18,16 a 1,1 0 0 0 -1,1 v 0.0098 a 1,1 0 0 0 1,1 1,1 0 0 0 1,-1 V 17 a 1,1 0 0 0 -1,-1 z"
     id="path10" />
  <path
     style="color:#000000;fill:#000000;-inkscape-stroke:none"
     d="m 18,12 a 1,1 0 0 0 -1,1 v 0.0098 a 1,1 0 0 0 1,1 1,1 0 0 0 1,-1 V 13 a 1,1 0 0 0 -1,-1 z"
     id="path12" />
  <path
     style="color:#000000;fill:#000000;-inkscape-stroke:none"
     d="m 12,14 c -1.645008,0 -3,1.354992 -3,3 v 5 a 1,1 0 0 0 1,1 1,1 0 0 0 1,-1 v -5 c 0,-0.564129 0.435871,-1 1,-1 0.564129,0 1,0.435871 1,1 v 5 a 1,1 0 0 0 1,1 1,1 0 0 0 1,-1 v -5 c 0,-1.645008 -1.354992,-3 -3,-3 z"
     id="path14" />
</svg>
