<?xml version="1.0" encoding="UTF-8" standalone="no"?>
<svg
   width="24"
   height="24"
   viewBox="0 0 24 24"
   fill="none"
   stroke="currentColor"
   stroke-width="2"
   stroke-linecap="round"
   stroke-linejoin="round"
   version="1.1"
   id="svg12"
   xmlns="http://www.w3.org/2000/svg"
   xmlns:svg="http://www.w3.org/2000/svg">
  <defs
     id="defs16" />
  <path
     style="color:#000000;fill:#000000;-inkscape-stroke:none"
     d="M 6,2 C 3.8027078,2 2,3.8027078 2,6 2,8.1972922 3.8027078,10 6,10 8.1972922,10 10,8.1972922 10,6 10,3.8027078 8.1972922,2 6,2 Z M 6,4 C 7.116413,4 8,4.883587 8,6 8,7.116413 7.116413,8 6,8 4.883587,8 4,7.116413 4,6 4,4.883587 4.883587,4 6,4 Z"
     id="circle2" />
  <path
     style="color:#000000;fill:#000000;-inkscape-stroke:none"
     d="m 6,14 c -2.1972922,0 -4,1.802708 -4,4 0,2.197292 1.8027078,4 4,4 2.1972922,0 4,-1.802708 4,-4 0,-2.197292 -1.8027078,-4 -4,-4 z m 0,2 c 1.116413,0 2,0.883587 2,2 0,1.116413 -0.883587,2 -2,2 -1.116413,0 -2,-0.883587 -2,-2 0,-1.116413 0.883587,-2 2,-2 z"
     id="circle4" />
  <path
     style="color:#000000;fill:#000000;-inkscape-stroke:none"
     d="M 19.292969,3.2929688 7.4121094,15.173828 a 1,1 0 0 0 0,1.414063 1,1 0 0 0 1.4140625,0 L 20.707031,4.7070312 a 1,1 0 0 0 0,-1.4140624 1,1 0 0 0 -1.414062,0 z"
     id="line6" />
  <path
     style="color:#000000;fill:#000000;-inkscape-stroke:none"
     d="m 14.46875,13.480469 a 1,1 0 0 0 -0.707031,0.292969 1,1 0 0 0 0.002,1.414062 l 5.529297,5.519531 a 1,1 0 0 0 1.414062,0 1,1 0 0 0 0,-1.414062 l -5.53125,-5.521485 A 1,1 0 0 0 14.46875,13.480469 Z"
     id="line8" />
  <path
     style="color:#000000;fill:#000000;-inkscape-stroke:none"
     d="m 8.1191406,7.1191406 a 1,1 0 0 0 -0.7070312,0.2929688 1,1 0 0 0 0,1.4140625 l 3.8808596,3.8808591 a 1,1 0 0 0 1.414062,0 1,1 0 0 0 0,-1.414062 L 8.8261719,7.4121094 A 1,1 0 0 0 8.1191406,7.1191406 Z"
     id="line10" />
</svg>
