<?xml version="1.0" encoding="UTF-8" standalone="no"?>
<svg
   width="24"
   height="24"
   viewBox="0 0 24 24"
   fill="none"
   stroke="currentColor"
   stroke-width="2"
   stroke-linecap="round"
   stroke-linejoin="round"
   version="1.1"
   id="svg10"
   xmlns="http://www.w3.org/2000/svg"
   xmlns:svg="http://www.w3.org/2000/svg">
  <defs
     id="defs14" />
  <path
     style="color:#000000;fill:#000000;-inkscape-stroke:none"
     d="M 4,2 C 3.2777786,2 2.5421188,2.2353477 1.9609375,2.7519531 1.3797562,3.2685585 1,4.0833344 1,5 v 3 a 1.0001,1.0001 0 0 0 1,1 h 3 v 10 c 0,0.916666 0.3797562,1.731441 0.9609375,2.248047 C 6.5421188,21.764652 7.2777786,22 8,22 h 12 c 1.645008,0 3,-1.354992 3,-3 V 17 A 1.0001,1.0001 0 0 0 22,16 H 10 a 1.0001,1.0001 0 0 0 -1,1 v 2 C 9,19.416666 8.8797554,19.601893 8.7109375,19.751953 8.5421196,19.902013 8.2777776,20 8,20 7.7222224,20 7.4578804,19.902013 7.2890625,19.751953 7.1202446,19.601893 7,19.416666 7,19 V 8 5 C 7,4.0833344 6.6202438,3.2685585 6.0390625,2.7519531 5.4578812,2.2353477 4.7222214,2 4,2 Z M 4,4 C 4.2777776,4 4.5421196,4.0979866 4.7109375,4.2480469 4.8797554,4.3981072 5,4.5833341 5,5 V 7 H 3 V 5 C 3,4.5833341 3.1202446,4.3981072 3.2890625,4.2480469 3.4578804,4.0979866 3.7222224,4 4,4 Z m 7,14 h 10 v 1 c 0,0.564129 -0.435871,1 -1,1 H 10.794922 C 10.901143,19.683522 11,19.359886 11,19 Z"
     id="path2" />
  <path
     style="color:#000000;fill:#000000;-inkscape-stroke:none"
     d="M 4,2 A 1,1 0 0 0 3,3 1,1 0 0 0 4,4 h 13 c 0.564129,0 1,0.4358712 1,1 v 12 a 1,1 0 0 0 1,1 1,1 0 0 0 1,-1 V 5 C 20,3.354992 18.645008,2 17,2 Z"
     id="path4" />
  <path
     style="color:#000000;fill:#000000;-inkscape-stroke:none"
     d="m 10,7 a 1,1 0 0 0 -1,1 1,1 0 0 0 1,1 h 5 A 1,1 0 0 0 16,8 1,1 0 0 0 15,7 Z"
     id="path6" />
  <path
     style="color:#000000;fill:#000000;-inkscape-stroke:none"
     d="m 10,11 a 1,1 0 0 0 -1,1 1,1 0 0 0 1,1 h 5 a 1,1 0 0 0 1,-1 1,1 0 0 0 -1,-1 z"
     id="path8" />
</svg>
