<?xml version="1.0" encoding="UTF-8" standalone="no"?>
<svg
   width="24"
   height="24"
   viewBox="0 0 24 24"
   fill="none"
   stroke="currentColor"
   stroke-width="2"
   stroke-linecap="round"
   stroke-linejoin="round"
   version="1.1"
   id="svg10"
   xmlns="http://www.w3.org/2000/svg"
   xmlns:svg="http://www.w3.org/2000/svg">
  <defs
     id="defs14" />
  <path
     style="color:#000000;fill:#000000;-inkscape-stroke:none"
     d="M 9,8 A 1,1 0 0 0 8.2929688,8.2929688 L 6.2929687,10.292969 a 1.0001,1.0001 0 0 0 0,1.414062 l 2.0000001,2 a 1,1 0 0 0 1.4140625,0 1,1 0 0 0 0,-1.414062 L 8.4140625,11 9.7070313,9.7070313 a 1,1 0 0 0 0,-1.4140625 A 1,1 0 0 0 9,8 Z"
     id="path2" />
  <path
     style="color:#000000;fill:#000000;-inkscape-stroke:none"
     d="m 13,8 a 1,1 0 0 0 -0.707031,0.2929688 1,1 0 0 0 0,1.4140625 L 13.585938,11 12.292969,12.292969 a 1,1 0 0 0 0,1.414062 1,1 0 0 0 1.414062,0 l 2,-2 a 1.0001,1.0001 0 0 0 0,-1.414062 l -2,-2.0000002 A 1,1 0 0 0 13,8 Z"
     id="path4" />
  <path
     style="color:#000000;fill:#000000;-inkscape-stroke:none"
     d="m 11,2 c -4.9587132,0 -9,4.0412868 -9,9 0,4.958713 4.0412868,9 9,9 4.958713,0 9,-4.041287 9,-9 0,-4.9587132 -4.041287,-9 -9,-9 z m 0,2 c 3.877834,0 7,3.122166 7,7 0,3.877834 -3.122166,7 -7,7 C 7.122166,18 4,14.877834 4,11 4,7.122166 7.122166,4 11,4 Z"
     id="circle6" />
  <path
     style="color:#000000;fill:#000000;-inkscape-stroke:none"
     d="m 15.992188,15.992188 a 1,1 0 0 0 0,1.414062 l 4.300781,4.300781 a 1,1 0 0 0 1.414062,0 1,1 0 0 0 0,-1.414062 L 17.40625,15.992188 a 1,1 0 0 0 -1.414062,0 z"
     id="path8" />
</svg>
