<?xml version="1.0" encoding="UTF-8" standalone="no"?>
<svg
   width="24"
   height="24"
   viewBox="0 0 24 24"
   fill="none"
   stroke="currentColor"
   stroke-width="2"
   stroke-linecap="round"
   stroke-linejoin="round"
   version="1.1"
   id="svg6"
   xmlns="http://www.w3.org/2000/svg"
   xmlns:svg="http://www.w3.org/2000/svg">
  <defs
     id="defs10" />
  <path
     style="color:#000000;fill:#000000;-inkscape-stroke:none"
     d="m 21.292969,1.2929687 -11,11.0000003 a 1,1 0 0 0 0,1.414062 1,1 0 0 0 1.414062,0 l 11,-10.9999997 a 1,1 0 0 0 0,-1.4140626 1,1 0 0 0 -1.414062,0 z"
     id="line2" />
  <path
     style="color:#000000;fill:#000000;-inkscape-stroke:none"
     d="m 21.669922,1.0566406 -20.0000001,7 A 1.0001,1.0001 0 0 0 1.59375,9.9140625 l 8.648438,3.8437505 3.84375,8.648437 a 1.0001,1.0001 0 0 0 1.857421,-0.07617 l 7,-19.9999999 A 1.0001,1.0001 0 0 0 21.669922,1.0566406 Z M 20.371094,3.6289063 14.890625,19.289062 11.914063,12.59375 A 1.0001,1.0001 0 0 0 11.40625,12.085938 L 4.7109375,9.109375 Z"
     id="polygon4" />
</svg>
