<?xml version="1.0" encoding="UTF-8" standalone="no"?>
<svg
   width="24"
   height="24"
   viewBox="0 0 24 24"
   fill="none"
   stroke="currentColor"
   stroke-width="2"
   stroke-linecap="round"
   stroke-linejoin="round"
   version="1.1"
   id="svg8"
   xmlns="http://www.w3.org/2000/svg"
   xmlns:svg="http://www.w3.org/2000/svg">
  <defs
     id="defs12" />
  <path
     style="color:#000000;fill:#000000;-inkscape-stroke:none"
     d="m 12,2 a 1,1 0 0 0 -1,1 v 18 a 1,1 0 0 0 1,1 1,1 0 0 0 1,-1 V 3 A 1,1 0 0 0 12,2 Z"
     id="line2" />
  <path
     style="color:#000000;fill:#000000;-inkscape-stroke:none"
     d="M 8,7 A 1,1 0 0 0 7.2929687,7.2929687 L 3.2929688,11.292969 a 1.0001,1.0001 0 0 0 0,1.414062 l 3.9999999,4 a 1,1 0 0 0 1.4140626,0 1,1 0 0 0 0,-1.414062 L 5.4140625,12 8.7070313,8.7070313 a 1,1 0 0 0 0,-1.4140626 A 1,1 0 0 0 8,7 Z"
     id="polyline4" />
  <path
     style="color:#000000;fill:#000000;-inkscape-stroke:none"
     d="m 15.292969,7.2929687 a 1,1 0 0 0 0,1.4140626 L 18.585937,12 15.292969,15.292969 a 1,1 0 0 0 0,1.414062 1,1 0 0 0 1.414062,0 l 4,-4 a 1.0001,1.0001 0 0 0 0,-1.414062 l -4,-4.0000003 a 1,1 0 0 0 -1.414062,0 z"
     id="polyline6" />
</svg>
