<?xml version="1.0" encoding="UTF-8" standalone="no"?>
<svg
   width="24"
   height="24"
   viewBox="0 0 24 24"
   fill="none"
   stroke="currentColor"
   stroke-width="2"
   stroke-linecap="round"
   stroke-linejoin="round"
   version="1.1"
   id="svg8"
   xmlns="http://www.w3.org/2000/svg"
   xmlns:svg="http://www.w3.org/2000/svg">
  <defs
     id="defs12" />
  <path
     style="color:#000000;fill:#000000;-inkscape-stroke:none"
     d="m 3,11 a 1,1 0 0 0 -1,1 1,1 0 0 0 1,1 h 18 a 1,1 0 0 0 1,-1 1,1 0 0 0 -1,-1 z"
     id="line2" />
  <path
     style="color:#000000;fill:#000000;-inkscape-stroke:none"
     d="M 11.292969,3.2929688 7.2929687,7.2929687 a 1,1 0 0 0 0,1.4140626 1,1 0 0 0 1.4140626,0 L 12,5.4140625 15.292969,8.7070313 a 1,1 0 0 0 1.414062,0 1,1 0 0 0 0,-1.4140626 l -4,-3.9999999 a 1.0001,1.0001 0 0 0 -1.414062,0 z"
     id="polyline4" />
  <path
     style="color:#000000;fill:#000000;-inkscape-stroke:none"
     d="m 8,15 a 1,1 0 0 0 -0.7070313,0.292969 1,1 0 0 0 0,1.414062 l 4.0000003,4 a 1.0001,1.0001 0 0 0 1.414062,0 l 4,-4 a 1,1 0 0 0 0,-1.414062 1,1 0 0 0 -1.414062,0 L 12,18.585937 8.7070313,15.292969 A 1,1 0 0 0 8,15 Z"
     id="polyline6" />
</svg>
