<?xml version="1.0" encoding="UTF-8" standalone="no"?>
<svg
   width="24"
   height="24"
   viewBox="0 0 24 24"
   fill="none"
   stroke="currentColor"
   stroke-width="2"
   stroke-linecap="round"
   stroke-linejoin="round"
   version="1.1"
   id="svg12"
   xmlns="http://www.w3.org/2000/svg"
   xmlns:svg="http://www.w3.org/2000/svg">
  <defs
     id="defs16" />
  <path
     style="color:#000000;fill:#000000;-inkscape-stroke:none"
     d="M 4,1 C 2.354992,1 1,2.354992 1,4 v 4 c 0,1.645008 1.354992,3 3,3 H 6 A 1,1 0 0 0 7,10 1,1 0 0 0 6,9 H 4 C 3.4358712,9 3,8.5641288 3,8 V 4 C 3,3.4358712 3.4358712,3 4,3 h 16 c 0.564129,0 1,0.4358712 1,1 v 4 c 0,0.5641288 -0.435871,1 -1,1 h -2 a 1,1 0 0 0 -1,1 1,1 0 0 0 1,1 h 2 c 1.645008,0 3,-1.354992 3,-3 V 4 C 23,2.354992 21.645008,1 20,1 Z"
     id="path2" />
  <path
     style="color:#000000;fill:#000000;-inkscape-stroke:none"
     d="m 4,13 c -1.645008,0 -3,1.354992 -3,3 v 4 c 0,1.645008 1.354992,3 3,3 h 16 c 1.645008,0 3,-1.354992 3,-3 v -4 c 0,-1.645008 -1.354992,-3 -3,-3 h -2 a 1,1 0 0 0 -1,1 1,1 0 0 0 1,1 h 2 c 0.564129,0 1,0.435871 1,1 v 4 c 0,0.564129 -0.435871,1 -1,1 H 4 C 3.4358712,21 3,20.564129 3,20 V 16 C 3,15.435871 3.4358712,15 4,15 H 6 A 1,1 0 0 0 7,14 1,1 0 0 0 6,13 Z"
     id="path4" />
  <path
     style="color:#000000;fill:#000000;-inkscape-stroke:none"
     d="M 6,5 A 1,1 0 0 0 5,6 1,1 0 0 0 6,7 h 0.00977 a 1,1 0 0 0 1,-1 1,1 0 0 0 -1,-1 z"
     id="path6" />
  <path
     style="color:#000000;fill:#000000;-inkscape-stroke:none"
     d="m 6,17 a 1,1 0 0 0 -1,1 1,1 0 0 0 1,1 h 0.00977 a 1,1 0 0 0 1,-1 1,1 0 0 0 -1,-1 z"
     id="path8" />
  <path
     style="color:#000000;fill:#000000;-inkscape-stroke:none"
     d="M 13.554688,5.1679687 A 1,1 0 0 0 12.167969,5.4453125 L 8.1679688,11.445313 A 1.0001,1.0001 0 0 0 9,13 h 4.130859 l -2.96289,4.445312 a 1,1 0 0 0 0.277344,1.386719 1,1 0 0 0 1.386718,-0.277344 l 4,-5.999999 A 1.0001,1.0001 0 0 0 15,11 h -4.130859 l 2.96289,-4.4453125 A 1,1 0 0 0 13.554688,5.1679687 Z"
     id="path10" />
</svg>
