<?xml version="1.0" encoding="UTF-8" standalone="no"?>
<svg
   width="24"
   height="24"
   viewBox="0 0 24 24"
   fill="none"
   stroke="currentColor"
   stroke-width="2"
   stroke-linecap="round"
   stroke-linejoin="round"
   version="1.1"
   id="svg14"
   xmlns="http://www.w3.org/2000/svg"
   xmlns:svg="http://www.w3.org/2000/svg">
  <defs
     id="defs18" />
  <path
     style="color:#000000;fill:#000000;-inkscape-stroke:none"
     d="M 7,1 A 1,1 0 0 0 6,2 1,1 0 0 0 7,3 h 13 c 0.564129,0 1,0.4358712 1,1 v 4 c 0,0.5641288 -0.435871,1 -1,1 h -5 a 1,1 0 0 0 -1,1 1,1 0 0 0 1,1 h 5 c 1.645008,0 3,-1.354992 3,-3 V 4 C 23,2.354992 21.645008,1 20,1 Z"
     id="path2" />
  <path
     style="color:#000000;fill:#000000;-inkscape-stroke:none"
     d="M 1.9941406,1.3515625 C 1.5914791,1.4410428 1.329254,1.7633669 1.2285156,1.9648437 1.1277772,2.1663206 1.1006833,2.3138691 1.0761719,2.4609375 0.97812625,3.0492113 1,3.7500013 1,5 v 3 c 0,1.645008 1.354992,3 3,3 h 6 A 1.0001,1.0001 0 0 0 10.707031,9.2929688 L 3.2070313,1.7929687 C 3.1150686,1.7010061 3.0210192,1.6079741 2.8574219,1.5078125 2.6938245,1.4076509 2.3968022,1.2620822 1.9941406,1.3515625 Z M 3.0117188,4.4257812 7.5859375,9 H 4 C 3.4358712,9 3,8.5641288 3,8 V 5 c 0,-0.3246343 0.00906,-0.3136979 0.011719,-0.5742188 z"
     id="path4" />
  <path
     style="color:#000000;fill:#000000;-inkscape-stroke:none"
     d="m 19,13 a 1,1 0 0 0 -1,1 1,1 0 0 0 1,1 h 1 c 0.564129,0 1,0.435871 1,1 v 1 a 1,1 0 0 0 1,1 1,1 0 0 0 1,-1 v -1 c 0,-1.645008 -1.354992,-3 -3,-3 z"
     id="path6" />
  <path
     style="color:#000000;fill:#000000;-inkscape-stroke:none"
     d="m 4,13 c -1.645008,0 -3,1.354992 -3,3 v 4 c 0,1.645008 1.354992,3 3,3 h 16.5 a 1.0001,1.0001 0 0 0 0.447266,-0.105469 l 0.355468,-0.177734 -0.0098,-0.0098 1.414062,-1.414062 -0.5,-0.5 -7.5,-7.5 A 1.0001,1.0001 0 0 0 14,13 Z m 0,2 h 9.585938 l 5.999999,6 H 4 C 3.4358712,21 3,20.564129 3,20 v -4 c 0,-0.564129 0.4358712,-1 1,-1 z"
     id="path8" />
  <path
     style="color:#000000;fill:#000000;-inkscape-stroke:none"
     d="m 6,17 a 1,1 0 0 0 -1,1 1,1 0 0 0 1,1 h 0.00977 a 1,1 0 0 0 1,-1 1,1 0 0 0 -1,-1 z"
     id="path10" />
  <path
     style="color:#000000;fill:#000000;-inkscape-stroke:none"
     d="m 2,1 a 1,1 0 0 0 -0.7070313,0.2929687 1,1 0 0 0 0,1.4140626 L 21.292969,22.707031 a 1,1 0 0 0 1.414062,0 1,1 0 0 0 0,-1.414062 L 2.7070313,1.2929687 A 1,1 0 0 0 2,1 Z"
     id="path12" />
</svg>
