<?xml version="1.0" encoding="UTF-8" standalone="no"?>
<svg
   width="24"
   height="24"
   viewBox="0 0 24 24"
   fill="none"
   stroke="currentColor"
   stroke-width="2"
   stroke-linecap="round"
   stroke-linejoin="round"
   version="1.1"
   id="svg28"
   xmlns="http://www.w3.org/2000/svg"
   xmlns:svg="http://www.w3.org/2000/svg">
  <defs
     id="defs32" />
  <path
     style="color:#000000;fill:#000000;-inkscape-stroke:none"
     d="M 4,1 C 2.354992,1 1,2.354992 1,4 v 4 c 0,1.645008 1.354992,3 3,3 H 5 A 1,1 0 0 0 6,10 1,1 0 0 0 5,9 H 4 C 3.4358712,9 3,8.5641288 3,8 V 4 C 3,3.4358712 3.4358712,3 4,3 h 16 c 0.564129,0 1,0.4358712 1,1 v 4 c 0,0.5641288 -0.435871,1 -1,1 h -1 a 1,1 0 0 0 -1,1 1,1 0 0 0 1,1 h 1 c 1.645008,0 3,-1.354992 3,-3 V 4 C 23,2.354992 21.645008,1 20,1 Z"
     id="path2" />
  <path
     style="color:#000000;fill:#000000;-inkscape-stroke:none"
     d="m 4,13 c -1.645008,0 -3,1.354992 -3,3 v 4 c 0,1.645008 1.354992,3 3,3 h 16 c 1.645008,0 3,-1.354992 3,-3 v -4 c 0,-1.645008 -1.354992,-3 -3,-3 h -1 a 1,1 0 0 0 -1,1 1,1 0 0 0 1,1 h 1 c 0.564129,0 1,0.435871 1,1 v 4 c 0,0.564129 -0.435871,1 -1,1 H 4 C 3.4358712,21 3,20.564129 3,20 V 16 C 3,15.435871 3.4358712,15 4,15 H 5 A 1,1 0 0 0 6,14 1,1 0 0 0 5,13 Z"
     id="path4" />
  <path
     style="color:#000000;fill:#000000;-inkscape-stroke:none"
     d="M 6,5 A 1,1 0 0 0 5,6 1,1 0 0 0 6,7 h 0.00977 a 1,1 0 0 0 1,-1 1,1 0 0 0 -1,-1 z"
     id="path6" />
  <path
     style="color:#000000;fill:#000000;-inkscape-stroke:none"
     d="m 6,17 a 1,1 0 0 0 -1,1 1,1 0 0 0 1,1 h 0.00977 a 1,1 0 0 0 1,-1 1,1 0 0 0 -1,-1 z"
     id="path8" />
  <path
     style="color:#000000;fill:#000000;-inkscape-stroke:none"
     d="m 12,8 c -2.1972922,0 -4,1.8027078 -4,4 0,2.197292 1.8027078,4 4,4 2.197292,0 4,-1.802708 4,-4 0,-2.1972922 -1.802708,-4 -4,-4 z m 0,2 c 1.116413,0 2,0.883587 2,2 0,1.116413 -0.883587,2 -2,2 -1.116413,0 -2,-0.883587 -2,-2 0,-1.116413 0.883587,-2 2,-2 z"
     id="circle10" />
  <path
     style="color:#000000;fill:#000000;-inkscape-stroke:none"
     d="m 12,7 a 1,1 0 0 0 -1,1 v 1 a 1,1 0 0 0 1,1 1,1 0 0 0 1,-1 V 8 A 1,1 0 0 0 12,7 Z"
     id="path12" />
  <path
     style="color:#000000;fill:#000000;-inkscape-stroke:none"
     d="m 12,14 a 1,1 0 0 0 -1,1 v 1 a 1,1 0 0 0 1,1 1,1 0 0 0 1,-1 v -1 a 1,1 0 0 0 -1,-1 z"
     id="path14" />
  <path
     style="color:#000000;fill:#000000;-inkscape-stroke:none"
     d="m 15,11 a 1,1 0 0 0 -1,1 1,1 0 0 0 1,1 h 1 a 1,1 0 0 0 1,-1 1,1 0 0 0 -1,-1 z"
     id="path16" />
  <path
     style="color:#000000;fill:#000000;-inkscape-stroke:none"
     d="m 8,11 a 1,1 0 0 0 -1,1 1,1 0 0 0 1,1 h 1 a 1,1 0 0 0 1,-1 1,1 0 0 0 -1,-1 z"
     id="path18" />
  <path
     style="color:#000000;fill:#000000;-inkscape-stroke:none"
     d="m 15,8 a 1,1 0 0 0 -0.707031,0.2929688 l -0.88086,0.8808593 a 1,1 0 0 0 0,1.4140629 1,1 0 0 0 1.414063,0 l 0.880859,-0.8808597 a 1,1 0 0 0 0,-1.4140625 A 1,1 0 0 0 15,8 Z"
     id="path20" />
  <path
     style="color:#000000;fill:#000000;-inkscape-stroke:none"
     d="m 9.8808594,13.119141 a 1,1 0 0 0 -0.7070313,0.292968 l -0.8808593,0.88086 a 1,1 0 0 0 0,1.414062 1,1 0 0 0 1.4140625,0 l 0.8808597,-0.880859 a 1,1 0 0 0 0,-1.414063 1,1 0 0 0 -0.7070316,-0.292968 z"
     id="path22" />
  <path
     style="color:#000000;fill:#000000;-inkscape-stroke:none"
     d="m 14.119141,13.119141 a 1,1 0 0 0 -0.707032,0.292968 1,1 0 0 0 0,1.414063 l 0.88086,0.880859 a 1,1 0 0 0 1.414062,0 1,1 0 0 0 0,-1.414062 l -0.880859,-0.88086 a 1,1 0 0 0 -0.707031,-0.292968 z"
     id="path24" />
  <path
     style="color:#000000;fill:#000000;-inkscape-stroke:none"
     d="m 9,8 a 1,1 0 0 0 -0.7070312,0.2929688 1,1 0 0 0 0,1.4140625 l 0.8808593,0.8808597 a 1,1 0 0 0 1.4140629,0 1,1 0 0 0 0,-1.4140629 L 9.7070313,8.2929688 A 1,1 0 0 0 9,8 Z"
     id="path26" />
</svg>
