<?xml version="1.0" encoding="UTF-8" standalone="no"?>
<svg
   width="24"
   height="24"
   viewBox="0 0 24 24"
   fill="none"
   stroke="currentColor"
   stroke-width="2"
   stroke-linecap="round"
   stroke-linejoin="round"
   version="1.1"
   id="svg10"
   xmlns="http://www.w3.org/2000/svg"
   xmlns:svg="http://www.w3.org/2000/svg">
  <defs
     id="defs14" />
  <path
     style="color:#000000;fill:#000000;-inkscape-stroke:none"
     d="M 4,1 C 2.3552989,1 1,2.3552989 1,4 v 4 c 0,1.6447011 1.3552989,3 3,3 h 16 c 1.644701,0 3,-1.3552989 3,-3 V 4 C 23,2.3552989 21.644701,1 20,1 Z m 0,2 h 16 c 0.571297,0 1,0.4287033 1,1 v 4 c 0,0.5712967 -0.428703,1 -1,1 H 4 C 3.4287033,9 3,8.5712967 3,8 V 4 C 3,3.4287033 3.4287033,3 4,3 Z"
     id="rect2" />
  <path
     style="color:#000000;fill:#000000;-inkscape-stroke:none"
     d="m 4,13 c -1.6447011,0 -3,1.355299 -3,3 v 4 c 0,1.644701 1.3552989,3 3,3 h 16 c 1.644701,0 3,-1.355299 3,-3 v -4 c 0,-1.644701 -1.355299,-3 -3,-3 z m 0,2 h 16 c 0.571297,0 1,0.428703 1,1 v 4 c 0,0.571297 -0.428703,1 -1,1 H 4 C 3.4287033,21 3,20.571297 3,20 v -4 c 0,-0.571297 0.4287033,-1 1,-1 z"
     id="rect4" />
  <path
     style="color:#000000;fill:#000000;-inkscape-stroke:none"
     d="M 6,5 A 1,1 0 0 0 5,6 1,1 0 0 0 6,7 h 0.00977 a 1,1 0 0 0 1,-1 1,1 0 0 0 -1,-1 z"
     id="line6" />
  <path
     style="color:#000000;fill:#000000;-inkscape-stroke:none"
     d="m 6,17 a 1,1 0 0 0 -1,1 1,1 0 0 0 1,1 h 0.00977 a 1,1 0 0 0 1,-1 1,1 0 0 0 -1,-1 z"
     id="line8" />
</svg>
