<?xml version="1.0" encoding="UTF-8" standalone="no"?>
<svg
   width="24"
   height="24"
   viewBox="0 0 24 24"
   fill="none"
   stroke="currentColor"
   stroke-width="2"
   stroke-linecap="round"
   stroke-linejoin="round"
   version="1.1"
   id="svg6"
   xmlns="http://www.w3.org/2000/svg"
   xmlns:svg="http://www.w3.org/2000/svg">
  <defs
     id="defs10" />
  <path
     style="color:#000000;fill:#000000;-inkscape-stroke:none"
     d="M 11.779297,1 C 10.134289,1 8.7792969,2.354992 8.7792969,4 v 0.1796875 c -3.677e-4,0.3584942 -0.1895346,0.6859874 -0.5,0.8652344 a 1.0001,1.0001 0 0 0 -0.00195,0 l -0.4296876,0.25 c -0.3104452,0.1783842 -0.6878647,0.1790837 -0.9980468,0 A 1.0001,1.0001 0 0 0 6.8203125,5.2773437 L 6.6992187,5.2128906 C 5.2760365,4.3919262 3.428958,4.886871 2.6054688,6.3085937 L 2.3847656,6.6894531 a 1.0001,1.0001 0 0 0 -0.00195,0 C 1.5618481,8.1126353 2.0567929,9.961667 3.4785156,10.785156 l -0.052734,-0.0332 0.1503906,0.09961 a 1.0001,1.0001 0 0 0 0.054687,0.03516 c 0.3088935,0.178331 0.4978471,0.502706 0.5,0.859375 V 12.25 a 1.0001,1.0001 0 0 0 0,0.0039 c 0.00143,0.360318 -0.1879514,0.688983 -0.5,0.869141 a 1.0001,1.0001 0 0 0 -0.015625,0.0098 l -0.1367188,0.08203 c -1.4217227,0.823489 -1.9166675,2.672521 -1.0957031,4.095703 a 1.0001,1.0001 0 0 0 0.00195,0 l 0.2207032,0.380859 c 0.8234892,1.421723 2.6705677,1.916668 4.0937499,1.095703 l 0.1210938,-0.06445 a 1.0001,1.0001 0 0 0 0.029297,-0.01758 c 0.3107891,-0.179434 0.6892108,-0.179434 1,0 l 0.4277344,0.25 a 1.0001,1.0001 0 0 0 0.00195,0 c 0.3104654,0.179247 0.4996323,0.50674 0.5,0.865234 V 20 c 0,1.645008 1.3549921,3 3.0000001,3 h 0.441406 c 1.645008,0 3,-1.354992 3,-3 v -0.179688 c 3.68e-4,-0.358494 0.189535,-0.685987 0.5,-0.865234 a 1.0001,1.0001 0 0 0 0.002,0 l 0.427735,-0.25 c 0.310789,-0.179434 0.68921,-0.179434 1,0 a 1.0001,1.0001 0 0 0 0.0293,0.01758 l 0.121094,0.06445 c 1.423182,0.820965 3.270261,0.32602 4.09375,-1.095703 a 1.0001,1.0001 0 0 0 0.0059,-0.0098 l 0.216796,-0.382813 v -0.002 c 0.819506,-1.42294 0.325419,-3.268656 -1.095703,-4.091797 a 1.0001,1.0001 0 0 0 -0.03125,-0.01758 l -0.121093,-0.06445 c -0.312049,-0.180158 -0.501431,-0.508823 -0.5,-0.869141 a 1.0001,1.0001 0 0 0 0,-0.0039 v -0.5 a 1.0001,1.0001 0 0 0 0,-0.0039 c -0.0014,-0.360318 0.187951,-0.688983 0.5,-0.869141 a 1.0001,1.0001 0 0 0 0.01563,-0.0098 l 0.136718,-0.08203 c 1.421723,-0.823489 1.916668,-2.6725207 1.095703,-4.0957029 a 1.0001,1.0001 0 0 0 -0.002,0 L 21.394531,6.3085937 C 20.571042,4.886871 18.723963,4.3919262 17.300781,5.2128906 l -0.121094,0.064453 a 1.0001,1.0001 0 0 0 -0.0293,0.017578 c -0.310183,0.1790837 -0.687602,0.1783842 -0.998047,0 h -0.002 l -0.427735,-0.25 a 1.0001,1.0001 0 0 0 -0.002,0 c -0.310465,-0.179247 -0.499632,-0.5067402 -0.5,-0.8652344 V 4 c 0,-1.645008 -1.354992,-3 -3,-3 z m 0,2 h 0.441406 c 0.564129,0 1,0.4358712 1,1 v 0.1796875 a 1.0001,1.0001 0 0 0 0,0.00195 c 0.0011,1.0691011 0.574131,2.0591997 1.5,2.59375 h -0.0039 l 0.429687,0.25 a 1.0001,1.0001 0 0 0 0.0039,0 c 0.926814,0.5350963 2.073186,0.5350963 3,0 l -0.0293,0.017578 0.15039,-0.080078 a 1.0001,1.0001 0 0 0 0.02734,-0.017578 C 18.786827,6.66381 19.381694,6.8230489 19.664062,7.3105469 l 0.21875,0.3789062 c 0.281503,0.4879984 0.124217,1.0828662 -0.363281,1.3652344 a 1.0001,1.0001 0 0 0 -0.01367,0.00781 l -0.136718,0.082031 c -0.930487,0.5372055 -1.504266,1.5349557 -1.5,2.6093747 v 0.492188 c -0.0043,1.074419 0.569513,2.072169 1.5,2.609375 a 1.0001,1.0001 0 0 0 0.0293,0.01758 l 0.123047,0.06641 c 0.484307,0.283316 0.642045,0.874692 0.361328,1.361328 a 1.0001,1.0001 0 0 0 -0.0039,0.0078 l -0.214844,0.380859 c -0.282368,0.487498 -0.877235,0.646737 -1.365234,0.365234 a 1.0001,1.0001 0 0 0 -0.02734,-0.01758 l -0.15039,-0.08008 0.0293,0.01758 c -0.926814,-0.535096 -2.073186,-0.535096 -3,0 a 1.0001,1.0001 0 0 0 -0.0039,0 l -0.429687,0.25 h 0.0039 c -0.925869,0.534551 -1.498903,1.524649 -1.5,2.59375 a 1.0001,1.0001 0 0 0 0,0.002 V 20 c 0,0.564129 -0.435871,1 -1,1 h -0.441406 c -0.564129,0 -1,-0.435871 -1,-1 v -0.179688 a 1.0001,1.0001 0 0 0 0,-0.002 C 10.7782,18.749258 10.205166,17.75916 9.2792969,17.224609 h 0.00391 l -0.4296875,-0.25 a 1.0001,1.0001 0 0 0 -0.00391,0 c -0.926814,-0.535096 -2.0731861,-0.535096 -3,0 l 0.029297,-0.01758 -0.1503906,0.08008 a 1.0001,1.0001 0 0 0 -0.027344,0.01758 C 5.2131735,17.33619 4.6183057,17.176951 4.3359375,16.689453 l -0.21875,-0.378906 C 3.835685,15.822548 3.9929708,15.227681 4.4804687,14.945313 a 1.0001,1.0001 0 0 0 0.013672,-0.0078 l 0.1367188,-0.08203 c 0.9304869,-0.537206 1.5042655,-1.534956 1.5,-2.609375 v -0.50586 a 1.0001,1.0001 0 0 0 0,-0.0059 c -0.00642,-1.063774 -0.5787167,-2.0482008 -1.5,-2.5800781 L 4.6855469,9.1875 4.5351562,9.0878906 A 1.0001,1.0001 0 0 0 4.4804687,9.0546875 C 3.9929708,8.7723193 3.835685,8.1774515 4.1171875,7.6894531 l 0.21875,-0.3789062 C 4.6183057,6.8230489 5.2131735,6.66381 5.7011719,6.9453125 a 1.0001,1.0001 0 0 0 0.027344,0.017578 l 0.1503906,0.080078 -0.029297,-0.017578 c 0.9268139,0.5350963 2.073186,0.5350963 3,0 a 1.0001,1.0001 0 0 0 0.00391,0 l 0.4296875,-0.25 h -0.00391 C 10.205166,6.2408403 10.7782,5.2507417 10.779297,4.1816406 a 1.0001,1.0001 0 0 0 0,-0.00195 V 4 c 0,-0.5641288 0.435871,-1 1,-1 z"
     id="path2" />
  <path
     style="color:#000000;fill:#000000;-inkscape-stroke:none"
     d="m 12,8 c -2.1972922,0 -4,1.8027078 -4,4 0,2.197292 1.8027078,4 4,4 2.197292,0 4,-1.802708 4,-4 0,-2.1972922 -1.802708,-4 -4,-4 z m 0,2 c 1.116413,0 2,0.883587 2,2 0,1.116413 -0.883587,2 -2,2 -1.116413,0 -2,-0.883587 -2,-2 0,-1.116413 0.883587,-2 2,-2 z"
     id="circle4" />
</svg>
