<?xml version="1.0" encoding="UTF-8" standalone="no"?>
<svg
   width="24"
   height="24"
   viewBox="0 0 24 24"
   fill="none"
   stroke="currentColor"
   stroke-width="2"
   stroke-linecap="round"
   stroke-linejoin="round"
   version="1.1"
   id="svg8"
   xmlns="http://www.w3.org/2000/svg"
   xmlns:svg="http://www.w3.org/2000/svg">
  <defs
     id="defs12" />
  <path
     style="color:#000000;fill:#000000;-inkscape-stroke:none"
     d="m 11.951172,1.6699219 c -0.567874,0.020383 -1.125795,0.3035506 -1.425781,0.84375 l 0.02734,-0.046875 -3.7187496,5.9121094 C 6.1128918,9.4943021 7.0292549,11.07043 8.3554688,10.998047 L 8.3007813,11 h 7.4277347 a 1.0001,1.0001 0 0 0 0.0039,0 c 1.312887,-0.0046 2.138906,-1.5944508 1.388672,-2.671875 L 13.447266,2.4277344 a 1.0001,1.0001 0 0 0 -0.01172,-0.017578 C 13.097603,1.8928543 12.519046,1.6495391 11.951172,1.6699219 Z M 12.011719,3.90625 15.183594,9 H 8.8046875 Z"
     id="path2" />
  <path
     style="color:#000000;fill:#000000;-inkscape-stroke:none"
     d="m 4,13 c -1.0907017,0 -2,0.909298 -2,2 v 5 c 0,1.090702 0.9092983,2 2,2 h 5 c 1.090702,0 2,-0.909298 2,-2 v -5 c 0,-1.090702 -0.909298,-2 -2,-2 z m 0,2 h 5 v 5 H 4 Z"
     id="rect4" />
  <path
     style="color:#000000;fill:#000000;-inkscape-stroke:none"
     d="M 17.5,13 C 15.026566,13 13,15.026566 13,17.5 13,19.973434 15.026566,22 17.5,22 19.973434,22 22,19.973434 22,17.5 22,15.026566 19.973434,13 17.5,13 Z m 0,2 C 18.892555,15 20,16.107445 20,17.5 20,18.892555 18.892555,20 17.5,20 16.107445,20 15,18.892555 15,17.5 15,16.107445 16.107445,15 17.5,15 Z"
     id="circle6" />
</svg>
