<?xml version="1.0" encoding="UTF-8" standalone="no"?>
<svg
   width="24"
   height="24"
   viewBox="0 0 24 24"
   fill="none"
   stroke="currentColor"
   stroke-width="2"
   stroke-linecap="round"
   stroke-linejoin="round"
   version="1.1"
   id="svg12"
   xmlns="http://www.w3.org/2000/svg"
   xmlns:svg="http://www.w3.org/2000/svg">
  <defs
     id="defs16" />
  <path
     style="color:#000000;fill:#000000;-inkscape-stroke:none"
     d="M 5,2 C 3.3552989,2 2,3.3552989 2,5 v 14 c 0,1.644701 1.3552989,3 3,3 h 14 c 1.644701,0 3,-1.355299 3,-3 V 5 C 22,3.3552989 20.644701,2 19,2 Z m 0,2 h 14 c 0.571297,0 1,0.4287033 1,1 v 14 c 0,0.571297 -0.428703,1 -1,1 H 5 C 4.4287033,20 4,19.571297 4,19 V 5 C 4,4.4287033 4.4287033,4 5,4 Z"
     id="rect2" />
  <path
     style="color:#000000;fill:#000000;-inkscape-stroke:none"
     d="M 3,8 A 1,1 0 0 0 2,9 1,1 0 0 0 3,10 H 21 A 1,1 0 0 0 22,9 1,1 0 0 0 21,8 Z"
     id="line4" />
  <path
     style="color:#000000;fill:#000000;-inkscape-stroke:none"
     d="m 3,14 a 1,1 0 0 0 -1,1 1,1 0 0 0 1,1 h 18 a 1,1 0 0 0 1,-1 1,1 0 0 0 -1,-1 z"
     id="line6" />
  <path
     style="color:#000000;fill:#000000;-inkscape-stroke:none"
     d="M 9,8 A 1,1 0 0 0 8,9 v 12 a 1,1 0 0 0 1,1 1,1 0 0 0 1,-1 V 9 A 1,1 0 0 0 9,8 Z"
     id="line8" />
  <path
     style="color:#000000;fill:#000000;-inkscape-stroke:none"
     d="m 15,8 a 1,1 0 0 0 -1,1 v 12 a 1,1 0 0 0 1,1 1,1 0 0 0 1,-1 V 9 A 1,1 0 0 0 15,8 Z"
     id="line10" />
</svg>
