<?xml version="1.0" encoding="UTF-8" standalone="no"?>
<svg
   width="24"
   height="24"
   viewBox="0 0 24 24"
   fill="none"
   stroke="currentColor"
   stroke-width="2"
   stroke-linecap="round"
   stroke-linejoin="round"
   version="1.1"
   id="svg8"
   xmlns="http://www.w3.org/2000/svg"
   xmlns:svg="http://www.w3.org/2000/svg">
  <defs
     id="defs12" />
  <path
     style="color:#000000;fill:#000000;-inkscape-stroke:none"
     d="m 12,16 a 1,1 0 0 0 -1,1 1,1 0 0 0 1,1 h 0.0098 a 1,1 0 0 0 1,-1 1,1 0 0 0 -1,-1 z"
     id="path2" />
  <path
     style="color:#000000;fill:#000000;-inkscape-stroke:none"
     d="m 11.648438,1.0644531 -8.0000005,3 A 1.0001,1.0001 0 0 0 3,5 v 7 c 0,3.444441 2.2352394,6.158715 4.3417969,8.001953 2.1065574,1.843238 4.2109371,2.892578 4.2109371,2.892578 a 1,1 0 0 0 0.07422,0.0059 1,1 0 0 0 0.373047,0.02539 1,1 0 0 0 0.373047,-0.02539 1,1 0 0 0 0.07422,-0.0059 c 0,0 2.10438,-1.04934 4.210937,-2.892578 C 18.764761,18.158715 21,15.444441 21,12 V 5 A 1.0001,1.0001 0 0 0 20.351562,4.0644531 l -7.999999,-3 a 1.0001,1.0001 0 0 0 -0.703125,0 z M 12,3.0683594 l 7,2.625 V 12 c 0,2.555553 -1.764765,4.841288 -3.658203,6.498047 C 13.672051,19.959074 12.371562,20.601665 12,20.796875 11.628438,20.601665 10.327949,19.959074 8.6582031,18.498047 6.7647646,16.841288 5,14.555553 5,12 V 5.6933594 Z"
     id="path4" />
  <path
     style="color:#000000;fill:#000000;-inkscape-stroke:none"
     d="M 12.597656,6.0800781 C 10.88142,5.7851922 8.8885615,6.650757 8.1601563,8.6582031 a 1,1 0 0 0 0.5996093,1.28125 1,1 0 0 0 1.2792974,-0.5976562 c 0.412502,-1.1368362 1.316703,-1.4440534 2.21875,-1.2890625 0.900139,0.1546631 1.647671,0.7450585 1.660156,1.9492186 -0.0013,0.499236 -0.431705,1.001996 -1.052735,1.416016 -0.621991,0.414661 -1.261718,0.632812 -1.261718,0.632812 a 1,1 0 0 0 -0.632813,1.265625 1,1 0 0 0 1.265625,0.632813 c 0,0 0.860275,-0.28185 1.738281,-0.867188 C 14.852616,12.496693 15.919922,11.499998 15.919922,10 a 1.0001,1.0001 0 0 0 0,-0.00781 C 15.903354,7.8567392 14.313892,6.374964 12.597656,6.0800781 Z"
     id="path6" />
</svg>
