<?xml version="1.0" encoding="UTF-8" standalone="no"?>
<svg
   width="24"
   height="24"
   viewBox="0 0 24 24"
   fill="none"
   stroke="currentColor"
   stroke-width="2"
   stroke-linecap="round"
   stroke-linejoin="round"
   version="1.1"
   id="svg6"
   xmlns="http://www.w3.org/2000/svg"
   xmlns:svg="http://www.w3.org/2000/svg">
  <defs
     id="defs10" />
  <path
     style="color:#000000;fill:#000000;-inkscape-stroke:none"
     d="m 11.648438,1.0644531 -8.0000005,3 A 1.0001,1.0001 0 0 0 3,5 v 7 c 0,3.444441 2.2352394,6.158715 4.3417969,8.001953 2.1065574,1.843238 4.2109371,2.892578 4.2109371,2.892578 a 1.0001,1.0001 0 0 0 0.894532,0 c 0,0 2.10438,-1.04934 4.210937,-2.892578 C 18.764761,18.158715 21,15.444441 21,12 V 5 A 1.0001,1.0001 0 0 0 20.351562,4.0644531 l -7.999999,-3 a 1.0001,1.0001 0 0 0 -0.703125,0 z M 12,3.0683594 l 7,2.625 V 12 c 0,2.555553 -1.764765,4.841288 -3.658203,6.498047 C 13.672051,19.959074 12.371562,20.601665 12,20.796875 11.628438,20.601665 10.327949,19.959074 8.6582031,18.498047 6.7647646,16.841288 5,14.555553 5,12 V 5.6933594 Z"
     id="path2" />
  <path
     style="color:#000000;fill:#000000;-inkscape-stroke:none"
     d="M 15,9 A 1,1 0 0 0 14.292969,9.2929688 L 11,12.585938 9.7070313,11.292969 a 1,1 0 0 0 -1.4140625,0 1,1 0 0 0 0,1.414062 l 2.0000002,2 a 1.0001,1.0001 0 0 0 1.414062,0 l 4,-4 a 1,1 0 0 0 0,-1.4140622 A 1,1 0 0 0 15,9 Z"
     id="path4" />
</svg>
