<?xml version="1.0" encoding="UTF-8" standalone="no"?>
<svg
   width="24"
   height="24"
   viewBox="0 0 24 24"
   fill="none"
   stroke="currentColor"
   stroke-width="2"
   stroke-linecap="round"
   stroke-linejoin="round"
   version="1.1"
   id="svg8"
   xmlns="http://www.w3.org/2000/svg"
   xmlns:svg="http://www.w3.org/2000/svg">
  <defs
     id="defs12" />
  <path
     style="color:#000000;fill:#000000;-inkscape-stroke:none"
     d="M 11.650391,1.0625 8.4902344,2.2441406 A 1,1 0 0 0 7.9023437,3.5292969 1,1 0 0 0 9.1894531,4.1171875 L 12,3.0683594 l 7,2.625 V 12 c -0.0044,0.578014 -0.09427,1.151056 -0.265625,1.703125 a 1,1 0 0 0 0.660156,1.251953 1,1 0 0 0 1.25,-0.658203 C 20.874747,13.555188 20.994884,12.782437 21,12.005859 A 1.0001,1.0001 0 0 0 21,12 V 5 A 1.0001,1.0001 0 0 0 20.351562,4.0644531 l -7.999999,-3 A 1.0001,1.0001 0 0 0 11.650391,1.0625 Z"
     id="path2" />
  <path
     style="color:#000000;fill:#000000;-inkscape-stroke:none"
     d="M 4.3828125,3.7929688 3.6523438,4.0625 A 1.0001,1.0001 0 0 0 3,5 v 7 c 0,3.444441 2.2352394,6.158715 4.3417969,8.001953 2.1065574,1.843238 4.2109371,2.892578 4.2109371,2.892578 a 1.0001,1.0001 0 0 0 0.914063,-0.0098 c 2.221358,-1.172118 4.217312,-2.727905 5.896484,-4.595704 a 1,1 0 0 0 -0.07422,-1.412109 1,1 0 0 0 -1.412109,0.07422 c -1.394044,1.550641 -3.05288,2.829439 -4.865234,3.855469 C 11.648554,20.616094 10.334202,19.964546 8.6582031,18.498047 6.7647646,16.841288 5,14.555553 5,12 V 5.6972656 l 0.076172,-0.029297 A 1,1 0 0 0 5.6679687,4.3828125 1,1 0 0 0 4.3828125,3.7929688 Z"
     id="path4" />
  <path
     style="color:#000000;fill:#000000;-inkscape-stroke:none"
     d="m 2,1 a 1,1 0 0 0 -0.7070313,0.2929687 1,1 0 0 0 0,1.4140626 L 21.292969,22.707031 a 1,1 0 0 0 1.414062,0 1,1 0 0 0 0,-1.414062 L 2.7070313,1.2929687 A 1,1 0 0 0 2,1 Z"
     id="line6" />
</svg>
