<?xml version="1.0" encoding="UTF-8" standalone="no"?>
<svg
   width="24"
   height="24"
   viewBox="0 0 24 24"
   fill="none"
   stroke="currentColor"
   stroke-width="2"
   stroke-linecap="round"
   stroke-linejoin="round"
   version="1.1"
   id="svg12"
   xmlns="http://www.w3.org/2000/svg"
   xmlns:svg="http://www.w3.org/2000/svg">
  <defs
     id="defs16" />
  <path
     style="color:#000000;fill:#000000;-inkscape-stroke:none"
     d="M 9.5,19 C 7.9833349,19 6.9999994,19.71875 6.375,20.21875 5.7500006,20.71875 5.4833324,21 4.5,21 3.4564113,21 3.2406244,20.732421 2.640625,20.232422 A 1,1 0 0 0 1.2324219,20.359375 1,1 0 0 0 1.359375,21.767578 C 1.9593744,22.267578 2.9435913,23 4.5,23 6.0166651,23 7.0000006,22.28125 7.625,21.78125 8.2499994,21.28125 8.5166677,21 9.5,21 c 1.043589,0 1.259376,0.267579 1.859375,0.767578 C 11.959374,22.267578 12.943591,23 14.5,23 16.016665,23 17.000001,22.28125 17.625,21.78125 18.249999,21.28125 18.516668,21 19.5,21 c 1.043589,0 1.259376,0.267579 1.859375,0.767578 a 1,1 0 0 0 1.408203,-0.126953 1,1 0 0 0 -0.126953,-1.408203 C 22.040626,19.732422 21.056409,19 19.5,19 17.983335,19 16.999999,19.71875 16.375,20.21875 15.750001,20.71875 15.483332,21 14.5,21 13.456411,21 13.240624,20.732421 12.640625,20.232422 12.040626,19.732422 11.056409,19 9.5,19 Z"
     id="path2" />
  <path
     style="color:#000000;fill:#000000;-inkscape-stroke:none"
     d="m 11.59375,9.0859375 -9,4.0000005 A 1.0001,1.0001 0 0 0 2,14 c 0,3.116089 1.0498185,5.822054 3.0195312,8.371094 A 1,1 0 0 0 6.421875,22.550781 1,1 0 0 0 6.6015625,21.148437 C 4.9748625,19.043296 4.2280376,16.997476 4.1035156,14.603516 L 12,11.09375 l 7.921875,3.521484 c -0.08701,1.713857 -0.524416,3.39333 -1.402344,4.875 a 1,1 0 0 0 0.351563,1.369141 1,1 0 0 0 1.36914,-0.349609 C 21.408618,18.537895 22.017148,16.284152 22,13.992188 a 1.0001,1.0001 0 0 0 -0.59375,-0.90625 l -9,-4.0000005 a 1.0001,1.0001 0 0 0 -0.8125,0 z"
     id="path4" />
  <path
     style="color:#000000;fill:#000000;-inkscape-stroke:none"
     d="M 7,4 C 5.354992,4 4,5.354992 4,7 v 6 a 1,1 0 0 0 1,1 1,1 0 0 0 1,-1 V 7 C 6,6.4358712 6.4358712,6 7,6 h 10 c 0.564129,0 1,0.4358712 1,1 v 6 a 1,1 0 0 0 1,1 1,1 0 0 0 1,-1 V 7 C 20,5.354992 18.645008,4 17,4 Z"
     id="path6" />
  <path
     style="color:#000000;fill:#000000;-inkscape-stroke:none"
     d="m 12,9 a 1,1 0 0 0 -1,1 v 4 a 1,1 0 0 0 1,1 1,1 0 0 0 1,-1 V 10 A 1,1 0 0 0 12,9 Z"
     id="path8" />
  <path
     style="color:#000000;fill:#000000;-inkscape-stroke:none"
     d="m 12,1 a 1,1 0 0 0 -1,1 v 3 a 1,1 0 0 0 1,1 1,1 0 0 0 1,-1 V 2 A 1,1 0 0 0 12,1 Z"
     id="path10" />
</svg>
