<?xml version="1.0" encoding="UTF-8" standalone="no"?>
<svg
   width="24"
   height="24"
   viewBox="0 0 24 24"
   fill="none"
   stroke="currentColor"
   stroke-width="2"
   stroke-linecap="round"
   stroke-linejoin="round"
   version="1.1"
   id="svg4"
   xmlns="http://www.w3.org/2000/svg"
   xmlns:svg="http://www.w3.org/2000/svg">
  <defs
     id="defs8" />
  <path
     style="color:#000000;fill:#000000;-inkscape-stroke:none"
     d="M 7.6835937,1.0507812 3.3046875,2.5117188 C 1.9086971,2.9768084 1.048318,4.404523 1.2929687,5.8554687 L 1.8730469,9.3203125 C 2.0292339,10.283931 2.8773256,11.002814 3.8535156,11 H 5 v 9 c 0,1.645453 1.3545471,3 3,3 h 8 c 1.645008,0 3,-1.354992 3,-3 v -9 h 1.146484 c 0.97619,0.0028 1.824282,-0.716069 1.980469,-1.6796875 L 22.707031,5.8554687 C 22.951682,4.404523 22.091303,2.9768084 20.695312,2.5117188 L 16.316406,1.0507812 A 1.0001,1.0001 0 0 0 15,2 C 15,3.0833316 14.629755,3.76856 14.085938,4.2519531 13.54212,4.7353463 12.777777,5 12,5 11.222223,5 10.45788,4.7353463 9.9140625,4.2519531 9.370245,3.76856 9,3.0833316 9,2 A 1.0001,1.0001 0 0 0 7.6835937,1.0507812 Z M 7.2617187,3.3007813 C 7.5080945,4.2787559 7.919184,5.1553773 8.5859375,5.7480469 9.5421185,6.5979851 10.777779,7 12,7 c 1.222221,0 2.457882,-0.4020149 3.414063,-1.2519531 0.666753,-0.5926696 1.077842,-1.469291 1.324218,-2.4472656 l 3.326172,1.1074218 c 0.474339,0.1580312 0.753051,0.6222225 0.669922,1.1152344 a 1.0001,1.0001 0 0 0 0,0.00195 L 20.154297,8.9960938 A 1.0001,1.0001 0 0 0 20.152344,9 a 1.0001,1.0001 0 0 0 -0.002,0 H 18 a 1.0001,1.0001 0 0 0 -1,1 v 10 c 0,0.564129 -0.435871,1 -1,1 H 8 C 7.4454551,21 7,20.554545 7,20 V 10 A 1.0001,1.0001 0 0 0 6,9 H 3.8496094 a 1.0001,1.0001 0 0 0 -0.00195,0 1.0001,1.0001 0 0 0 -0.00195,-0.00391 L 3.265625,5.5253906 a 1.0001,1.0001 0 0 0 0,-0.00195 C 3.182496,5.0304256 3.461208,4.5662343 3.9355469,4.4082031 Z"
     id="path2" />
</svg>
