<?xml version="1.0" encoding="UTF-8" standalone="no"?>
<svg
   width="24"
   height="24"
   viewBox="0 0 24 24"
   fill="none"
   stroke="currentColor"
   stroke-width="2"
   stroke-linecap="round"
   stroke-linejoin="round"
   version="1.1"
   id="svg8"
   xmlns="http://www.w3.org/2000/svg"
   xmlns:svg="http://www.w3.org/2000/svg">
  <defs
     id="defs12" />
  <path
     style="color:#000000;fill:#000000;-inkscape-stroke:none"
     d="M 6,1 A 1.0001,1.0001 0 0 0 5.1992187,1.4003906 l -2.9999999,4 A 1.0001,1.0001 0 0 0 2,6 v 14 c 0,1.645008 1.354992,3 3,3 h 14 c 1.645008,0 3,-1.354992 3,-3 V 6 A 1.0001,1.0001 0 0 0 21.800781,5.4003906 l -3,-4 A 1.0001,1.0001 0 0 0 18,1 Z m 0.5,2 h 11 L 20,6.3339844 V 20 c 0,0.564129 -0.435871,1 -1,1 H 5 C 4.4358712,21 4,20.564129 4,20 V 6.3339844 Z"
     id="path2" />
  <path
     style="color:#000000;fill:#000000;-inkscape-stroke:none"
     d="M 3,5 A 1,1 0 0 0 2,6 1,1 0 0 0 3,7 H 21 A 1,1 0 0 0 22,6 1,1 0 0 0 21,5 Z"
     id="line4" />
  <path
     style="color:#000000;fill:#000000;-inkscape-stroke:none"
     d="m 8,9 a 1,1 0 0 0 -1,1 c 0,1.583331 0.6297565,2.898109 1.5859375,3.748047 C 9.5421185,14.597985 10.777779,15 12,15 13.222221,15 14.457882,14.597985 15.414063,13.748047 16.370243,12.898109 17,11.583331 17,10 a 1,1 0 0 0 -1,-1 1,1 0 0 0 -1,1 c 0,1.083332 -0.370245,1.76856 -0.914062,2.251953 C 13.54212,12.735346 12.777777,13 12,13 11.222223,13 10.45788,12.735346 9.9140625,12.251953 9.370245,11.76856 9,11.083332 9,10 A 1,1 0 0 0 8,9 Z"
     id="path6" />
</svg>
