<?xml version="1.0" encoding="UTF-8" standalone="no"?>
<svg
   width="24"
   height="24"
   viewBox="0 0 24 24"
   fill="none"
   stroke="currentColor"
   stroke-width="2"
   stroke-linecap="round"
   stroke-linejoin="round"
   version="1.1"
   id="svg8"
   xmlns="http://www.w3.org/2000/svg"
   xmlns:svg="http://www.w3.org/2000/svg">
  <defs
     id="defs12" />
  <path
     style="color:#000000;fill:#000000;-inkscape-stroke:none"
     d="m 8,19 c -1.0927238,0 -2,0.907276 -2,2 0,1.092724 0.9072762,2 2,2 1.0927238,0 2,-0.907276 2,-2 0,-1.092724 -0.9072762,-2 -2,-2 z"
     id="circle2" />
  <path
     style="color:#000000;fill:#000000;-inkscape-stroke:none"
     d="m 19,19 c -1.092724,0 -2,0.907276 -2,2 0,1.092724 0.907276,2 2,2 1.092724,0 2,-0.907276 2,-2 0,-1.092724 -0.907276,-2 -2,-2 z"
     id="circle4" />
  <path
     style="color:#000000;fill:#000000;-inkscape-stroke:none"
     d="m 2.0507813,1.0507812 a 1,1 0 0 0 -1.0000001,1.0000001 1,1 0 0 0 1.0000001,1 H 3.2421875 L 5.7324219,14.679688 c 0.3006018,1.401245 1.5672285,2.401021 3,2.36914 l -0.021484,0.002 h 9.7792965 a 1.0001,1.0001 0 0 0 0.002,0 c 1.400241,-0.0023 2.62201,-0.986338 2.923829,-2.353515 v -0.002 l 1.65039,-7.4277349 A 1.0001,1.0001 0 0 0 22.089844,6.0507812 H 5.9296875 L 5.0273437,1.8398437 A 1.0001,1.0001 0 0 0 4.0507812,1.0507812 Z M 6.3574219,8.0507813 H 20.84375 l -1.380859,6.2128907 a 1.0001,1.0001 0 0 0 0,0.002 c -0.10202,0.463414 -0.500099,0.78439 -0.97461,0.785156 H 8.7109375 a 1.0001,1.0001 0 0 0 -0.023437,0 c -0.4859978,0.01081 -0.8980355,-0.315711 -1,-0.791015 z"
     id="path6" />
</svg>
