<?xml version="1.0" encoding="UTF-8" standalone="no"?>
<svg
   width="24"
   height="24"
   viewBox="0 0 24 24"
   fill="none"
   stroke="currentColor"
   stroke-width="2"
   stroke-linecap="round"
   stroke-linejoin="round"
   version="1.1"
   id="svg8"
   xmlns="http://www.w3.org/2000/svg"
   xmlns:svg="http://www.w3.org/2000/svg">
  <defs
     id="defs12" />
  <path
     style="color:#000000;fill:#000000;-inkscape-stroke:none"
     d="m 6.2929687,11.292969 -5,5 A 1.0001,1.0001 0 0 0 1,17 v 5 a 1.0001,1.0001 0 0 0 1,1 h 5 a 1.0001,1.0001 0 0 0 0.7070312,-0.292969 l 4.9999998,-5 a 1.0001,1.0001 0 0 0 0,-1.414062 l -4.9999998,-5 a 1.0001,1.0001 0 0 0 -1.4140625,0 z M 7,13.414063 10.585938,17 6.5859375,21 H 3 v -3.585938 z"
     id="path2" />
  <path
     style="color:#000000;fill:#000000;-inkscape-stroke:none"
     d="M 15.292969,7.2929687 8.7929688,13.792969 a 1,1 0 0 0 0,1.414062 1,1 0 0 0 1.4140622,0 l 6.5,-6.4999997 a 1,1 0 0 0 0,-1.4140626 1,1 0 0 0 -1.414062,0 z"
     id="path4" />
  <path
     style="color:#000000;fill:#000000;-inkscape-stroke:none"
     d="m 16.292969,1.2929687 -0.5,0.5 c -1.763983,1.7606321 -1.764607,4.6506277 -0.002,6.4121094 6.63e-4,6.653e-4 0.0013,0.00129 0.002,0.00195 6.65e-4,6.635e-4 0.0013,0.00129 0.002,0.00195 1.762145,1.7633183 4.653617,1.7620713 6.414062,-0.00391 l 0.498047,-0.4980469 a 1.0001,1.0001 0 0 0 0,-1.4140625 l -5,-5 a 1,1 0 0 0 -1.414062,0 z m 0.791015,2.2050782 3.417969,3.4179687 C 19.50453,7.68712 18.125623,7.7144415 17.208984,6.7949219 a 1.0001,1.0001 0 0 0 -0.0039,-0.00391 C 16.285558,5.8743767 16.31288,4.4954703 17.083984,3.4980469 Z"
     id="path6" />
</svg>
