<?xml version="1.0" encoding="UTF-8" standalone="no"?>
<svg
   width="24"
   height="24"
   viewBox="0 0 24 24"
   fill="none"
   stroke="currentColor"
   stroke-width="2"
   stroke-linecap="round"
   stroke-linejoin="round"
   version="1.1"
   id="svg22"
   xmlns="http://www.w3.org/2000/svg"
   xmlns:svg="http://www.w3.org/2000/svg">
  <defs
     id="defs26" />
  <path
     style="color:#000000;fill:#000000;-inkscape-stroke:none"
     d="m 4,3 a 1,1 0 0 0 -0.7070312,0.2929688 1,1 0 0 0 0,1.4140624 l 2.4999999,2.5 a 1,1 0 0 0 1.4140625,0 1,1 0 0 0 0,-1.4140625 l -2.5,-2.4999999 A 1,1 0 0 0 4,3 Z"
     id="path2" />
  <path
     style="color:#000000;fill:#000000;-inkscape-stroke:none"
     d="M 9.7324219,4.0097656 C 8.2270637,4.1042231 6.8538901,4.8023599 5.828125,5.828125 4.8023599,6.8538901 4.1042231,8.2270637 4.0097656,9.7324219 3.9153082,11.23778 4.4674996,12.85467 5.7851562,14.199219 a 1,1 0 0 0 1.4140625,0.01563 1,1 0 0 0 0.015625,-1.414063 C 6.2459548,11.812118 5.9456743,10.816585 6.0058594,9.8574219 6.0660445,8.8982586 6.529621,7.954754 7.2421875,7.2421875 7.954754,6.529621 8.8982586,6.0660445 9.8574219,6.0058594 10.816585,5.9456743 11.812118,6.2459548 12.800781,7.2148437 a 1,1 0 0 0 1.414063,-0.015625 1,1 0 0 0 -0.01563,-1.4140625 C 12.85467,4.4674996 11.23778,3.9153082 9.7324219,4.0097656 Z"
     id="path4" />
  <path
     style="color:#000000;fill:#000000;-inkscape-stroke:none"
     d="M 15,4 A 1,1 0 0 0 14.292969,4.2929687 L 4.2929687,14.292969 a 1,1 0 0 0 0,1.414062 1,1 0 0 0 1.4140625,0 L 15.707031,5.7070312 a 1,1 0 0 0 0,-1.4140625 A 1,1 0 0 0 15,4 Z"
     id="path6" />
  <path
     style="color:#000000;fill:#000000;-inkscape-stroke:none"
     d="m 14,16 a 1,1 0 0 0 -1,1 v 0.0098 a 1,1 0 0 0 1,1 1,1 0 0 0 1,-1 V 17 a 1,1 0 0 0 -1,-1 z"
     id="path8" />
  <path
     style="color:#000000;fill:#000000;-inkscape-stroke:none"
     d="m 10,15 a 1,1 0 0 0 -1,1 v 0.0098 a 1,1 0 0 0 1,1 1,1 0 0 0 1,-1 V 16 a 1,1 0 0 0 -1,-1 z"
     id="path10" />
  <path
     style="color:#000000;fill:#000000;-inkscape-stroke:none"
     d="m 13,12 a 1,1 0 0 0 -1,1 v 0.0098 a 1,1 0 0 0 1,1 1,1 0 0 0 1,-1 V 13 a 1,1 0 0 0 -1,-1 z"
     id="path12" />
  <path
     style="color:#000000;fill:#000000;-inkscape-stroke:none"
     d="m 16,9 a 1,1 0 0 0 -1,1 v 0.0098 a 1,1 0 0 0 1,1 1,1 0 0 0 1,-1 V 10 A 1,1 0 0 0 16,9 Z"
     id="path14" />
  <path
     style="color:#000000;fill:#000000;-inkscape-stroke:none"
     d="m 11,19 a 1,1 0 0 0 -1,1 v 0.0098 a 1,1 0 0 0 1,1 1,1 0 0 0 1,-1 V 20 a 1,1 0 0 0 -1,-1 z"
     id="path16" />
  <path
     style="color:#000000;fill:#000000;-inkscape-stroke:none"
     d="m 17,13 a 1,1 0 0 0 -1,1 v 0.0098 a 1,1 0 0 0 1,1 1,1 0 0 0 1,-1 V 14 a 1,1 0 0 0 -1,-1 z"
     id="path18" />
  <path
     style="color:#000000;fill:#000000;-inkscape-stroke:none"
     d="m 20,10 a 1,1 0 0 0 -1,1 v 0.0098 a 1,1 0 0 0 1,1 1,1 0 0 0 1,-1 V 11 a 1,1 0 0 0 -1,-1 z"
     id="path20" />
</svg>
