<?xml version="1.0" encoding="UTF-8" standalone="no"?>
<svg
   width="24"
   height="24"
   viewBox="0 0 24 24"
   fill="none"
   stroke="currentColor"
   stroke-width="2"
   stroke-linecap="round"
   stroke-linejoin="round"
   version="1.1"
   id="svg10"
   xmlns="http://www.w3.org/2000/svg"
   xmlns:svg="http://www.w3.org/2000/svg">
  <defs
     id="defs14" />
  <path
     style="color:#000000;fill:#000000;-inkscape-stroke:none"
     d="M 15,14 A 1,1 0 0 0 14.292969,14.292969 1,1 0 0 0 14,15 v 4.800781 a 1,1 0 0 0 1,1 1,1 0 0 0 1,-1 v -2.386719 l 4.292969,4.292969 a 1,1 0 0 0 1.414062,0 1,1 0 0 0 0,-1.414062 L 17.414062,16 h 2.386719 a 1,1 0 0 0 1,-1 1,1 0 0 0 -1,-1 z"
     id="path2" />
  <path
     style="color:#000000;fill:#000000;-inkscape-stroke:none"
     d="m 4.1992187,14 a 1,1 0 0 0 -0.9999999,1 1,1 0 0 0 0.9999999,1 h 2.3867188 l -4.2929687,4.292969 a 1,1 0 0 0 0,1.414062 1,1 0 0 0 1.4140625,0 L 8,17.414062 v 2.386719 a 1,1 0 0 0 1,1 1,1 0 0 0 1,-1 V 15 A 1,1 0 0 0 9.9667969,14.833984 1,1 0 0 0 9.9394531,14.691406 1,1 0 0 0 9.9238281,14.617188 1,1 0 0 0 9.7070313,14.292969 1,1 0 0 0 9.3828125,14.076172 1,1 0 0 0 9,14 Z"
     id="path4" />
  <path
     style="color:#000000;fill:#000000;-inkscape-stroke:none"
     d="M 20.292969,2.2929688 16,6.5859375 V 4.1992187 A 1,1 0 0 0 15,3.1992188 1,1 0 0 0 14,4.1992187 V 9 A 1,1 0 0 0 14.292969,9.7070313 1,1 0 0 0 15,10 h 4.800781 a 1,1 0 0 0 1,-1 1,1 0 0 0 -1,-1 h -2.386719 l 4.292969,-4.2929687 a 1,1 0 0 0 0,-1.4140625 1,1 0 0 0 -1.414062,0 z"
     id="path6" />
  <path
     style="color:#000000;fill:#000000;-inkscape-stroke:none"
     d="m 3,2 a 1,1 0 0 0 -0.7070312,0.2929688 1,1 0 0 0 0,1.4140625 L 6.5859375,8 H 4.1992187 A 1,1 0 0 0 3.1992188,9 1,1 0 0 0 4.1992187,10 H 9 A 1,1 0 0 0 9.7070313,9.7070313 1,1 0 0 0 9.9667969,9.0800781 1,1 0 0 0 10,9 V 4.1992187 A 1,1 0 0 0 9,3.1992188 1,1 0 0 0 8,4.1992187 V 6.5859375 L 3.7070313,2.2929688 A 1,1 0 0 0 3,2 Z"
     id="path8" />
</svg>
