<?xml version="1.0" encoding="UTF-8" standalone="no"?>
<svg
   width="24"
   height="24"
   viewBox="0 0 24 24"
   fill="none"
   stroke="currentColor"
   stroke-width="2"
   stroke-linecap="round"
   stroke-linejoin="round"
   version="1.1"
   id="svg8"
   xmlns="http://www.w3.org/2000/svg"
   xmlns:svg="http://www.w3.org/2000/svg">
  <defs
     id="defs12" />
  <path
     style="color:#000000;fill:#000000;-inkscape-stroke:none"
     d="m 10,12 a 1,1 0 0 0 -0.7070312,0.292969 1,1 0 0 0 0,1.414062 L 11,15.414063 V 22 a 1,1 0 0 0 1,1 1,1 0 0 0 1,-1 v -7 a 1.0001,1.0001 0 0 0 -0.292969,-0.707031 l -2,-2 A 1,1 0 0 0 10,12 Z"
     id="path2" />
  <path
     style="color:#000000;fill:#000000;-inkscape-stroke:none"
     d="M 12,2 C 10.527779,2 9.0421183,2.4853484 7.8984375,3.5019531 6.8713503,4.4149191 6.2402048,5.8177584 6.1054687,7.4726562 3.3999232,9.4084323 2.4735096,12.571773 3.1640625,15.333984 c 0.7253755,2.901502 3.195892,5.421574 6.7675781,5.664063 A 1.0001,1.0001 0 0 0 10,21 h 3.763672 c 3.574485,0.127136 6.174097,-2.249964 6.980469,-5.072266 C 21.498104,13.288863 20.640538,10.20153 18,8.3496094 V 8 C 18,6.0833359 17.245243,4.5185578 16.101562,3.5019531 14.957882,2.4853484 13.472221,2 12,2 Z m 0,2 c 1.027777,0 2.04212,0.3479873 2.773438,0.9980469 C 15.504755,5.6481065 16,6.5833356 16,8 v 0.8007813 a 1.0001,1.0001 0 0 0 0.501953,0.8671875 c 2.32769,1.3359832 2.905278,3.6547702 2.318359,5.7089842 C 18.233394,17.431168 16.518081,19.095397 13.835938,19 a 1.0001,1.0001 0 0 0 -0.03516,0 H 10.060547 C 7.345839,18.812097 5.6442252,17.004635 5.1054687,14.849609 4.5661396,12.692293 5.2164109,10.290465 7.5292969,8.8476563 A 1.0001,1.0001 0 0 0 8,8 C 8,6.5833356 8.4952451,5.6481065 9.2265625,4.9980469 9.9578799,4.3479873 10.972223,4 12,4 Z"
     id="path4" />
  <path
     style="color:#000000;fill:#000000;-inkscape-stroke:none"
     d="m 14,13 a 1,1 0 0 0 -0.707031,0.292969 l -2,2 a 1,1 0 0 0 0,1.414062 1,1 0 0 0 1.414062,0 l 2,-2 a 1,1 0 0 0 0,-1.414062 A 1,1 0 0 0 14,13 Z"
     id="path6" />
</svg>
