<?xml version="1.0" encoding="UTF-8" standalone="no"?>
<svg
   width="24"
   height="24"
   viewBox="0 0 24 24"
   fill="none"
   stroke="currentColor"
   stroke-width="2"
   stroke-linecap="round"
   stroke-linejoin="round"
   version="1.1"
   id="svg12"
   xmlns="http://www.w3.org/2000/svg"
   xmlns:svg="http://www.w3.org/2000/svg">
  <defs
     id="defs16" />
  <path
     style="color:#000000;fill:#000000;-inkscape-stroke:none"
     d="m 16.099609,5 c -1.60769,0 -3.229934,0.7299078 -4.142578,2.1640625 l 0.02734,-0.042969 -6.09375,8.5898443 C 5.2686668,16.56613 4.3926973,17 3.4003906,17 H 2 a 1,1 0 0 0 -1,1 1,1 0 0 0 1,1 h 1.4003906 c 1.6076907,0 3.1293817,-0.766523 4.1074219,-2.111328 a 1.0001,1.0001 0 0 0 0.00781,-0.0098 l 6.099609,-8.5996091 a 1.0001,1.0001 0 0 0 0.0293,-0.042969 C 14.131886,7.470485 15.107303,7 16.099609,7 H 22 A 1,1 0 0 0 23,6 1,1 0 0 0 22,5 Z"
     id="path2" />
  <path
     style="color:#000000;fill:#000000;-inkscape-stroke:none"
     d="m 17.292969,1.2929687 a 1,1 0 0 0 0,1.4140626 L 20.585937,6 17.292969,9.2929688 a 1,1 0 0 0 0,1.4140622 1,1 0 0 0 1.414062,0 l 4,-3.9999998 a 1.0001,1.0001 0 0 0 0,-1.4140625 l -4,-4 a 1,1 0 0 0 -1.414062,0 z"
     id="path4" />
  <path
     style="color:#000000;fill:#000000;-inkscape-stroke:none"
     d="M 2,5 A 1,1 0 0 0 1,6 1,1 0 0 0 2,7 h 1.9003906 c 1.0999989,0 2.1912823,0.6942452 2.71875,1.6738281 a 1,1 0 0 0 1.3554688,0.40625 1,1 0 0 0 0.40625,-1.3535156 C 7.5083285,6.106148 5.8003887,5 3.9003906,5 Z"
     id="path6" />
  <path
     style="color:#000000;fill:#000000;-inkscape-stroke:none"
     d="m 12.525391,14.425781 a 1,1 0 0 0 -0.75586,0.126953 1,1 0 0 0 -0.318359,1.376954 l 0.5,0.800781 a 1.0001,1.0001 0 0 0 0.0059,0.0059 C 12.854937,18.147323 14.440637,19 16.099609,19 H 22 a 1,1 0 0 0 1,-1 1,1 0 0 0 -1,-1 h -5.900391 c -0.941024,0 -1.952985,-0.546935 -2.455078,-1.335937 l -0.496093,-0.794922 a 1,1 0 0 0 -0.623047,-0.44336 z"
     id="path8" />
  <path
     style="color:#000000;fill:#000000;-inkscape-stroke:none"
     d="m 17.292969,13.292969 a 1,1 0 0 0 0,1.414062 L 20.585937,18 17.292969,21.292969 a 1,1 0 0 0 0,1.414062 1,1 0 0 0 1.414062,0 l 4,-4 a 1.0001,1.0001 0 0 0 0,-1.414062 l -4,-4 a 1,1 0 0 0 -1.414062,0 z"
     id="path10" />
</svg>
