<?xml version="1.0" encoding="UTF-8" standalone="no"?>
<svg
   width="24"
   height="24"
   viewBox="0 0 24 24"
   fill="none"
   stroke="currentColor"
   stroke-width="2"
   stroke-linecap="round"
   stroke-linejoin="round"
   version="1.1"
   id="svg4"
   xmlns="http://www.w3.org/2000/svg"
   xmlns:svg="http://www.w3.org/2000/svg">
  <defs
     id="defs8" />
  <path
     style="color:#000000;fill:#000000;-inkscape-stroke:none"
     d="M 6,3 A 1.0001,1.0001 0 0 0 5.1992187,4.5996094 L 10.75,12 5.1992187,19.400391 A 1.0001,1.0001 0 0 0 6,21 h 12 a 1.0001,1.0001 0 0 0 1,-1 v -3 a 1,1 0 0 0 -1,-1 1,1 0 0 0 -1,1 v 2 H 8 l 4.800781,-6.400391 a 1.0001,1.0001 0 0 0 0,-1.199218 L 8,5 h 9 v 2 a 1,1 0 0 0 1,1 1,1 0 0 0 1,-1 V 4 A 1.0001,1.0001 0 0 0 18,3 Z"
     id="path2" />
</svg>
