<?xml version="1.0" encoding="UTF-8" standalone="no"?>
<svg
   width="24"
   height="24"
   viewBox="0 0 24 24"
   fill="none"
   stroke="currentColor"
   stroke-width="2"
   stroke-linecap="round"
   stroke-linejoin="round"
   version="1.1"
   id="svg18"
   xmlns="http://www.w3.org/2000/svg"
   xmlns:svg="http://www.w3.org/2000/svg">
  <defs
     id="defs22" />
  <path
     style="color:#000000;fill:#000000;-inkscape-stroke:none"
     d="M 12,6 C 8.6981394,6 6,8.6981394 6,12 v 6 a 1.0001,1.0001 0 0 0 1,1 h 10 a 1.0001,1.0001 0 0 0 1,-1 V 12 C 18,8.6981394 15.301861,6 12,6 Z m 0,2 c 2.220981,0 4,1.7790186 4,4 v 5 H 8 V 12 C 8,9.7790186 9.7790186,8 12,8 Z"
     id="path2" />
  <path
     style="color:#000000;fill:#000000;-inkscape-stroke:none"
     d="m 7,17 c -1.645008,0 -3,1.354992 -3,3 v 2 a 1.0001,1.0001 0 0 0 1,1 h 14 a 1.0001,1.0001 0 0 0 1,-1 v -2 c 0,-1.645008 -1.354992,-3 -3,-3 z m 0,2 h 10 c 0.564129,0 1,0.435871 1,1 v 1 H 6 v -1 c 0,-0.564129 0.4358712,-1 1,-1 z"
     id="path4" />
  <path
     style="color:#000000;fill:#000000;-inkscape-stroke:none"
     d="m 21,11 a 1,1 0 0 0 -1,1 1,1 0 0 0 1,1 h 1 a 1,1 0 0 0 1,-1 1,1 0 0 0 -1,-1 z"
     id="path6" />
  <path
     style="color:#000000;fill:#000000;-inkscape-stroke:none"
     d="m 17.792969,3.7929688 -0.5,0.4999999 a 1,1 0 0 0 0,1.4140625 1,1 0 0 0 1.414062,0 l 0.5,-0.5 a 1,1 0 0 0 0,-1.4140624 1,1 0 0 0 -1.414062,0 z"
     id="path8" />
  <path
     style="color:#000000;fill:#000000;-inkscape-stroke:none"
     d="m 2,11 a 1,1 0 0 0 -1,1 1,1 0 0 0 1,1 H 3 A 1,1 0 0 0 4,12 1,1 0 0 0 3,11 Z"
     id="path10" />
  <path
     style="color:#000000;fill:#000000;-inkscape-stroke:none"
     d="m 12,1 a 1,1 0 0 0 -1,1 v 1 a 1,1 0 0 0 1,1 1,1 0 0 0 1,-1 V 2 A 1,1 0 0 0 12,1 Z"
     id="path12" />
  <path
     style="color:#000000;fill:#000000;-inkscape-stroke:none"
     d="m 4.9296875,3.9296875 a 1,1 0 0 0 -0.7070313,0.2929687 1,1 0 0 0 0,1.4140625 L 4.9296875,6.34375 a 1,1 0 0 0 1.4140625,0 1,1 0 0 0 0,-1.4140625 L 5.6367187,4.2226562 A 1,1 0 0 0 4.9296875,3.9296875 Z"
     id="path14" />
  <path
     style="color:#000000;fill:#000000;-inkscape-stroke:none"
     d="m 12,11 a 1,1 0 0 0 -1,1 v 6 a 1,1 0 0 0 1,1 1,1 0 0 0 1,-1 v -6 a 1,1 0 0 0 -1,-1 z"
     id="path16" />
</svg>
