<?xml version="1.0" encoding="UTF-8" standalone="no"?>
<svg
   width="24"
   height="24"
   viewBox="0 0 24 24"
   fill="none"
   stroke="currentColor"
   stroke-width="2"
   stroke-linecap="round"
   stroke-linejoin="round"
   version="1.1"
   id="svg12"
   xmlns="http://www.w3.org/2000/svg"
   xmlns:svg="http://www.w3.org/2000/svg">
  <defs
     id="defs16" />
  <path
     style="color:#000000;fill:#000000;-inkscape-stroke:none"
     d="m 9,10 c -1.0927238,0 -2,0.907276 -2,2 0,1.092724 0.9072762,2 2,2 1.092724,0 2,-0.907276 2,-2 0,-1.092724 -0.907276,-2 -2,-2 z"
     id="circle2" />
  <path
     style="color:#000000;fill:#000000;-inkscape-stroke:none"
     d="m 15,10 c -1.092724,0 -2,0.907276 -2,2 0,1.092724 0.907276,2 2,2 1.092724,0 2,-0.907276 2,-2 0,-1.092724 -0.907276,-2 -2,-2 z"
     id="circle4" />
  <path
     style="color:#000000;fill:#000000;-inkscape-stroke:none"
     d="m 8,19 a 1,1 0 0 0 -1,1 v 2 a 1.0001,1.0001 0 0 0 1,1 h 8 a 1.0001,1.0001 0 0 0 1,-1 v -2 a 1,1 0 0 0 -1,-1 1,1 0 0 0 -1,1 v 1 H 9 V 20 A 1,1 0 0 0 8,19 Z"
     id="path6" />
  <path
     style="color:#000000;fill:#000000;-inkscape-stroke:none"
     d="m 12,15 a 1.0001,1.0001 0 0 0 -0.894531,0.552734 l -0.5,1 A 1.0001,1.0001 0 0 0 11.5,18 h 1 a 1.0001,1.0001 0 0 0 0.894531,-1.447266 l -0.5,-1 A 1.0001,1.0001 0 0 0 12,15 Z"
     id="path8" />
  <path
     style="color:#000000;fill:#000000;-inkscape-stroke:none"
     d="m 12,1.9980469 c -4.0018624,0 -7.0689784,2.474396 -8.34375,5.6269531 -1.1995171,2.96645 -0.7625326,6.571977 1.6816406,9.308594 C 4.640184,18.776268 5.8676401,20.998668 8,21 A 1,1 0 0 0 9,20 1,1 0 0 0 8,19 C 7.0942896,18.999434 6.6546339,18.08202 7.2207031,17.375 A 1.0001,1.0001 0 0 0 7.1347656,16.03125 C 4.8403122,13.813415 4.5096223,10.848391 5.5097656,8.375 6.5099089,5.9016089 8.8093687,3.9980469 12,3.9980469 c 3.190631,0 5.490091,1.903562 6.490234,4.3769531 1.000144,2.473391 0.669454,5.438415 -1.625,7.65625 A 1.0001,1.0001 0 0 0 16.779297,17.375 C 17.345366,18.08202 16.90571,18.999434 16,19 a 1,1 0 0 0 -1,1 1,1 0 0 0 1,1 c 2.13236,-0.0013 3.359816,-2.223732 2.662109,-4.066406 C 21.106283,14.196977 21.543267,10.59145 20.34375,7.625 19.068978,4.4724429 16.001862,1.9980469 12,1.9980469 Z"
     id="path10" />
</svg>
