<?xml version="1.0" encoding="UTF-8" standalone="no"?>
<svg
   width="24"
   height="24"
   viewBox="0 0 24 24"
   fill="none"
   stroke="currentColor"
   stroke-width="2"
   stroke-linecap="round"
   stroke-linejoin="round"
   version="1.1"
   id="svg18"
   xmlns="http://www.w3.org/2000/svg"
   xmlns:svg="http://www.w3.org/2000/svg">
  <defs
     id="defs22" />
  <path
     style="color:#000000;fill:#000000;-inkscape-stroke:none"
     d="M 14.5,1 C 13.132299,1 12,2.1322986 12,3.5 v 5 C 12,9.8677014 13.132299,11 14.5,11 15.867701,11 17,9.8677014 17,8.5 v -5 C 17,2.1322986 15.867701,1 14.5,1 Z m 0,2 C 14.794297,3 15,3.2057031 15,3.5 v 5 C 15,8.7942969 14.794297,9 14.5,9 14.205703,9 14,8.7942969 14,8.5 v -5 C 14,3.2057031 14.205703,3 14.5,3 Z"
     id="rect2" />
  <path
     style="color:#000000;fill:#000000;-inkscape-stroke:none"
     d="M 20.943359,6.0429687 C 20.464252,5.9577027 19.972218,6.0116752 19.542969,6.1894531 18.684469,6.5450089 18,7.428791 18,8.5 V 10 a 1.0001,1.0001 0 0 0 1,1 h 1.5 c 1.071209,0 1.954991,-0.684469 2.310547,-1.5429687 C 23.166103,8.5985319 23.02499,7.4898341 22.267578,6.7324219 21.888872,6.3537158 21.422467,6.1282348 20.943359,6.0429687 Z m -0.634765,1.9960938 c 0.185578,-0.076859 0.357436,-0.080063 0.544922,0.1074219 0.187485,0.1874852 0.18428,0.3593437 0.107421,0.5449219 C 20.884079,8.8769844 20.76524,9 20.5,9 H 20 V 8.5 c 0,-0.2652399 0.123016,-0.3840785 0.308594,-0.4609375 z"
     id="path4" />
  <path
     style="color:#000000;fill:#000000;-inkscape-stroke:none"
     d="M 9.5,13 C 8.1322986,13 7,14.132299 7,15.5 v 5 C 7,21.867701 8.1322986,23 9.5,23 10.867701,23 12,21.867701 12,20.5 v -5 C 12,14.132299 10.867701,13 9.5,13 Z m 0,2 c 0.2942969,0 0.5,0.205703 0.5,0.5 v 5 C 10,20.794297 9.7942969,21 9.5,21 9.2057031,21 9,20.794297 9,20.5 v -5 C 9,15.205703 9.2057031,15 9.5,15 Z"
     id="rect6" />
  <path
     style="color:#000000;fill:#000000;-inkscape-stroke:none"
     d="m 3.5,13 c -1.071209,0 -1.9549911,0.684469 -2.3105469,1.542969 -0.35555576,0.858499 -0.21444347,1.967197 0.5429688,2.724609 0.7574122,0.757412 1.86611,0.898525 2.7246093,0.542969 C 5.3155306,17.454991 6,16.571209 6,15.5 V 14 A 1.0001,1.0001 0 0 0 5,13 Z m 0,2 H 4 v 0.5 C 4,15.76524 3.8769844,15.884079 3.6914063,15.960938 3.5058281,16.037796 3.3339696,16.041001 3.1464844,15.853516 2.9589991,15.66603 2.9622035,15.494172 3.0390625,15.308594 3.1159215,15.123016 3.2347601,15 3.5,15 Z"
     id="path8" />
  <path
     style="color:#000000;fill:#000000;-inkscape-stroke:none"
     d="m 15.5,12 c -1.367701,0 -2.5,1.132299 -2.5,2.5 0,1.367701 1.132299,2.5 2.5,2.5 h 5 C 21.867701,17 23,15.867701 23,14.5 23,13.132299 21.867701,12 20.5,12 Z m 0,2 h 5 c 0.294297,0 0.5,0.205703 0.5,0.5 0,0.294297 -0.205703,0.5 -0.5,0.5 h -5 C 15.205703,15 15,14.794297 15,14.5 15,14.205703 15.205703,14 15.5,14 Z"
     id="rect10" />
  <path
     style="color:#000000;fill:#000000;-inkscape-stroke:none"
     d="m 14,18 a 1.0001,1.0001 0 0 0 -1,1 v 1.5 c 0,1.071209 0.684469,1.954991 1.542969,2.310547 0.858499,0.355556 1.967197,0.214443 2.724609,-0.542969 0.757412,-0.757412 0.898525,-1.86611 0.542969,-2.724609 -0.291931,-0.704876 -0.985497,-1.195018 -1.800781,-1.382813 A 1,1 0 0 0 15.5,18 Z m 1,2 h 0.5 c 0.26524,0 0.384079,0.123016 0.460938,0.308594 0.07686,0.185578 0.08006,0.357436 -0.107422,0.544922 -0.187486,0.187485 -0.359344,0.18428 -0.544922,0.107421 C 15.123016,20.884079 15,20.76524 15,20.5 Z"
     id="path12" />
  <path
     style="color:#000000;fill:#000000;-inkscape-stroke:none"
     d="M 3.5,7 C 2.1322986,7 1,8.1322986 1,9.5 1,10.867701 2.1322986,12 3.5,12 h 5 C 9.8677014,12 11,10.867701 11,9.5 11,8.1322986 9.8677014,7 8.5,7 Z m 0,2 h 5 C 8.7942969,9 9,9.2057031 9,9.5 9,9.7942969 8.7942969,10 8.5,10 h -5 C 3.2057031,10 3,9.7942969 3,9.5 3,9.2057031 3.2057031,9 3.5,9 Z"
     id="rect14" />
  <path
     style="color:#000000;fill:#000000;-inkscape-stroke:none"
     d="M 8.0566406,1.0429687 C 7.5775333,1.1282348 7.111128,1.3537158 6.7324219,1.7324219 5.9750096,2.4898341 5.8338973,3.5985319 6.1894531,4.4570312 6.5450089,5.3155306 7.428791,6 8.5,6 H 10 A 1.0001,1.0001 0 0 0 11,5 V 3.5 C 11,2.428791 10.315531,1.5450089 9.4570313,1.1894531 9.0277816,1.0116752 8.5357479,0.9577027 8.0566406,1.0429687 Z M 8.6914063,3.0390625 C 8.8769844,3.1159215 9,3.2347601 9,3.5 V 4 H 8.5 C 8.2347601,4 8.1159215,3.8769844 8.0390625,3.6914063 7.9622035,3.5058281 7.9589991,3.3339696 8.1464844,3.1464844 8.3339696,2.9589991 8.5058281,2.9622035 8.6914063,3.0390625 Z"
     id="path16" />
</svg>
