<?xml version="1.0" encoding="UTF-8" standalone="no"?>
<svg
   width="24"
   height="24"
   viewBox="0 0 24 24"
   fill="none"
   stroke="currentColor"
   stroke-width="2"
   stroke-linecap="round"
   stroke-linejoin="round"
   version="1.1"
   id="svg6"
   xmlns="http://www.w3.org/2000/svg"
   xmlns:svg="http://www.w3.org/2000/svg">
  <defs
     id="defs10" />
  <path
     style="color:#000000;fill:#000000;-inkscape-stroke:none"
     d="m 8,13 a 1,1 0 0 0 -0.7070313,0.292969 l -6,6 A 1.0001,1.0001 0 0 0 2,21 h 9 a 1.0001,1.0001 0 0 0 1,-1 v -3 a 1,1 0 0 0 -1,-1 1,1 0 0 0 -1,1 v 2 H 4.4140625 l 4.2929688,-4.292969 a 1,1 0 0 0 0,-1.414062 A 1,1 0 0 0 8,13 Z"
     id="path2" />
  <path
     style="color:#000000;fill:#000000;-inkscape-stroke:none"
     d="M 20.023437,1.9746094 C 19.216802,1.9271601 18.338885,2.2470522 17.662109,2.9238281 L 7.2929687,13.292969 a 1.0001,1.0001 0 0 0 0,1.414062 l 3.0000003,3 a 1.0001,1.0001 0 0 0 1.414062,0 L 22.076172,7.3378906 C 22.752948,6.6611147 23.07284,5.7831976 23.025391,4.9765625 22.977941,4.1699274 22.608306,3.4559624 22.076172,2.9238281 21.544038,2.3916939 20.830073,2.0220587 20.023437,1.9746094 Z m -0.11914,1.9980469 c 0.255863,0.015051 0.539947,0.1473693 0.757812,0.3652343 0.217865,0.217865 0.350184,0.5019489 0.365235,0.7578125 0.01505,0.2558636 -0.04201,0.5049023 -0.365235,0.828125 L 11,15.585938 9.4140625,14 19.076172,4.3378906 c 0.323223,-0.3232227 0.572261,-0.3802852 0.828125,-0.3652343 z"
     id="path4" />
</svg>
