<?xml version="1.0" encoding="UTF-8" standalone="no"?>
<svg
   width="24"
   height="24"
   viewBox="0 0 24 24"
   fill="none"
   stroke="currentColor"
   stroke-width="2"
   stroke-linecap="round"
   stroke-linejoin="round"
   version="1.1"
   id="svg6"
   xmlns="http://www.w3.org/2000/svg"
   xmlns:svg="http://www.w3.org/2000/svg">
  <defs
     id="defs10" />
  <path
     style="color:#000000;fill:#000000;-inkscape-stroke:none"
     d="M 7,1 C 5.3552989,1 4,2.3552989 4,4 v 16 c 0,1.644701 1.3552989,3 3,3 h 10 c 1.644701,0 3,-1.355299 3,-3 V 4 C 20,2.3552989 18.644701,1 17,1 Z m 0,2 h 10 c 0.571297,0 1,0.4287033 1,1 v 16 c 0,0.571297 -0.428703,1 -1,1 H 7 C 6.4287033,21 6,20.571297 6,20 V 4 C 6,3.4287033 6.4287033,3 7,3 Z"
     id="rect2" />
  <path
     style="color:#000000;fill:#000000;-inkscape-stroke:none"
     d="M 13.222656,7.1679687 A 1,1 0 0 0 11.835938,7.4453125 L 9.1679688,11.445313 A 1.0001,1.0001 0 0 0 10,13 h 2.130859 l -1.628906,2.445313 a 1,1 0 0 0 0.275391,1.386718 1,1 0 0 0 1.386719,-0.277344 l 2.667968,-3.999999 A 1.0001,1.0001 0 0 0 14,11 H 11.869141 L 13.498047,8.5546875 A 1,1 0 0 0 13.222656,7.1679687 Z"
     id="path4" />
</svg>
