<?xml version="1.0" encoding="UTF-8" standalone="no"?>
<svg
   width="24"
   height="24"
   viewBox="0 0 24 24"
   fill="none"
   stroke="currentColor"
   stroke-width="2"
   stroke-linecap="round"
   stroke-linejoin="round"
   version="1.1"
   id="svg10"
   xmlns="http://www.w3.org/2000/svg"
   xmlns:svg="http://www.w3.org/2000/svg">
  <defs
     id="defs14" />
  <path
     style="color:#000000;fill:#000000;-inkscape-stroke:none"
     d="M 3,5 C 1.9092983,5 1,5.9092983 1,7 v 10 c 0,1.090702 0.9092983,2 2,2 h 5 c 1.0907017,0 2,-0.909298 2,-2 V 7 C 10,5.9092983 9.0907017,5 8,5 Z M 3,7 H 8 V 17 H 3 Z"
     id="rect2" />
  <path
     style="color:#000000;fill:#000000;-inkscape-stroke:none"
     d="m 12.503906,7.4511719 a 1,1 0 0 0 -0.373047,1.3632812 c 1.126191,1.9753179 1.126191,4.3957759 0,6.3710939 a 1,1 0 0 0 0.373047,1.363281 1,1 0 0 0 1.365235,-0.373047 c 1.474741,-2.586667 1.474741,-5.764895 0,-8.3515623 A 1,1 0 0 0 12.503906,7.4511719 Z"
     id="path4" />
  <path
     style="color:#000000;fill:#000000;-inkscape-stroke:none"
     d="m 16.726562,5.2460937 a 1,1 0 0 0 -0.759765,0.09375 1,1 0 0 0 -0.376953,1.3632813 c 1.860065,3.28833 1.860065,7.30542 0,10.59375 a 1,1 0 0 0 0.376953,1.363281 1,1 0 0 0 1.363281,-0.376953 c 2.204217,-3.89674 2.204217,-8.6696663 0,-12.5664061 A 1,1 0 0 0 16.726562,5.2460937 Z"
     id="path6" />
  <path
     style="color:#000000;fill:#000000;-inkscape-stroke:none"
     d="m 20.171875,3.1347656 a 1,1 0 0 0 -0.759766,0.097656 1,1 0 0 0 -0.36914,1.3652343 c 2.627588,4.5865751 2.629592,10.2167428 0.0078,14.8066408 a 1,1 0 0 0 0.373047,1.363281 1,1 0 0 0 1.365234,-0.371094 C 23.760889,15.193767 23.755754,8.8024671 20.777344,3.6035156 a 1,1 0 0 0 -0.605469,-0.46875 z"
     id="path8" />
</svg>
