<?xml version="1.0" encoding="UTF-8" standalone="no"?>
<svg
   width="24"
   height="24"
   viewBox="0 0 24 24"
   fill="none"
   stroke="currentColor"
   stroke-width="2"
   stroke-linecap="round"
   stroke-linejoin="round"
   version="1.1"
   id="svg14"
   xmlns="http://www.w3.org/2000/svg"
   xmlns:svg="http://www.w3.org/2000/svg">
  <defs
     id="defs18" />
  <path
     style="color:#000000;fill:#000000;-inkscape-stroke:none"
     d="m 2,11 a 1,1 0 0 0 -1,1 1,1 0 0 0 1,1 h 20 a 1,1 0 0 0 1,-1 1,1 0 0 0 -1,-1 z"
     id="line2" />
  <path
     style="color:#000000;fill:#000000;-inkscape-stroke:none"
     d="m 12,1 a 1,1 0 0 0 -1,1 v 20 a 1,1 0 0 0 1,1 1,1 0 0 0 1,-1 V 2 A 1,1 0 0 0 12,1 Z"
     id="line4" />
  <path
     style="color:#000000;fill:#000000;-inkscape-stroke:none"
     d="m 19.292969,7.2929687 -4,4.0000003 a 1.0001,1.0001 0 0 0 0,1.414062 l 4,4 a 1,1 0 0 0 1.414062,0 1,1 0 0 0 0,-1.414062 L 17.414062,12 20.707031,8.7070313 a 1,1 0 0 0 0,-1.4140626 1,1 0 0 0 -1.414062,0 z"
     id="path6" />
  <path
     style="color:#000000;fill:#000000;-inkscape-stroke:none"
     d="m 4,7 a 1,1 0 0 0 -0.7070312,0.2929687 1,1 0 0 0 0,1.4140626 L 6.5859375,12 3.2929688,15.292969 a 1,1 0 0 0 0,1.414062 1,1 0 0 0 1.4140624,0 l 4.0000001,-4 a 1.0001,1.0001 0 0 0 0,-1.414062 L 4.7070312,7.2929687 A 1,1 0 0 0 4,7 Z"
     id="path8" />
  <path
     style="color:#000000;fill:#000000;-inkscape-stroke:none"
     d="m 8,3 a 1,1 0 0 0 -0.7070313,0.2929688 1,1 0 0 0 0,1.4140624 l 4.0000003,4.0000001 a 1.0001,1.0001 0 0 0 1.414062,0 l 4,-4.0000001 a 1,1 0 0 0 0,-1.4140624 1,1 0 0 0 -1.414062,0 L 12,6.5859375 8.7070313,3.2929688 A 1,1 0 0 0 8,3 Z"
     id="path10" />
  <path
     style="color:#000000;fill:#000000;-inkscape-stroke:none"
     d="m 11.292969,15.292969 -4.0000003,4 a 1,1 0 0 0 0,1.414062 1,1 0 0 0 1.4140626,0 L 12,17.414062 l 3.292969,3.292969 a 1,1 0 0 0 1.414062,0 1,1 0 0 0 0,-1.414062 l -4,-4 a 1.0001,1.0001 0 0 0 -1.414062,0 z"
     id="path12" />
</svg>
