<?xml version="1.0" encoding="UTF-8" standalone="no"?>
<svg
   width="24"
   height="24"
   viewBox="0 0 24 24"
   fill="none"
   stroke="currentColor"
   stroke-width="2"
   stroke-linecap="round"
   stroke-linejoin="round"
   version="1.1"
   id="svg12"
   xmlns="http://www.w3.org/2000/svg"
   xmlns:svg="http://www.w3.org/2000/svg">
  <defs
     id="defs16" />
  <path
     style="color:#000000;fill:#000000;-inkscape-stroke:none"
     d="M 6,3 C 4.354992,3 3,4.354992 3,6 V 9 A 1,1 0 0 0 4,10 1,1 0 0 0 5,9 V 6 C 5,5.4358712 5.4358712,5 6,5 h 12 c 0.564129,0 1,0.4358712 1,1 v 3 a 1,1 0 0 0 1,1 1,1 0 0 0 1,-1 V 6 C 21,4.354992 19.645008,3 18,3 Z"
     id="path2" />
  <path
     style="color:#000000;fill:#000000;-inkscape-stroke:none"
     d="M 4,8 C 3.2777786,8 2.5421188,8.2353477 1.9609375,8.7519531 1.3797562,9.2685585 1,10.083334 1,11 v 5 c 0,1.645008 1.354992,3 3,3 h 16 c 1.645008,0 3,-1.354992 3,-3 V 11 C 23,10.083334 22.620244,9.2685585 22.039062,8.7519531 21.457881,8.2353477 20.722221,8 20,8 19.277779,8 18.542119,8.2353477 17.960937,8.7519531 17.379756,9.2685585 17,10.083334 17,11 v 1 H 7 V 11 C 7,10.083334 6.6202438,9.2685585 6.0390625,8.7519531 5.4578812,8.2353477 4.7222214,8 4,8 Z m 0,2 c 0.2777776,0 0.5421196,0.09799 0.7109375,0.248047 C 4.8797554,10.398107 5,10.583334 5,11 v 2 a 1.0001,1.0001 0 0 0 1,1 h 12 a 1.0001,1.0001 0 0 0 1,-1 v -2 c 0,-0.416666 0.120245,-0.601893 0.289062,-0.751953 C 19.45788,10.097987 19.722222,10 20,10 c 0.277778,0 0.54212,0.09799 0.710937,0.248047 C 20.879755,10.398107 21,10.583334 21,11 v 5 c 0,0.564129 -0.435871,1 -1,1 H 4 C 3.4358712,17 3,16.564129 3,16 V 11 C 3,10.583334 3.1202446,10.398107 3.2890625,10.248047 3.4578804,10.097987 3.7222224,10 4,10 Z"
     id="path4" />
  <path
     style="color:#000000;fill:#000000;-inkscape-stroke:none"
     d="m 4,17 a 1,1 0 0 0 -1,1 v 2 a 1,1 0 0 0 1,1 1,1 0 0 0 1,-1 V 18 A 1,1 0 0 0 4,17 Z"
     id="path6" />
  <path
     style="color:#000000;fill:#000000;-inkscape-stroke:none"
     d="m 20,17 a 1,1 0 0 0 -1,1 v 2 a 1,1 0 0 0 1,1 1,1 0 0 0 1,-1 v -2 a 1,1 0 0 0 -1,-1 z"
     id="path8" />
  <path
     style="color:#000000;fill:#000000;-inkscape-stroke:none"
     d="m 12,3 a 1,1 0 0 0 -1,1 v 9 a 1,1 0 0 0 1,1 1,1 0 0 0 1,-1 V 4 A 1,1 0 0 0 12,3 Z"
     id="path10" />
</svg>
