<?xml version="1.0" encoding="UTF-8" standalone="no"?>
<svg
   width="24"
   height="24"
   viewBox="0 0 24 24"
   fill="none"
   stroke="currentColor"
   stroke-width="2"
   stroke-linecap="round"
   stroke-linejoin="round"
   version="1.1"
   id="svg14"
   xmlns="http://www.w3.org/2000/svg"
   xmlns:svg="http://www.w3.org/2000/svg">
  <defs
     id="defs18" />
  <path
     style="color:#000000;fill:#000000;-inkscape-stroke:none"
     d="m 3,11 a 1.0001,1.0001 0 0 0 -1,1 c 0,5.510997 4.4890026,10 10,10 5.510997,0 10,-4.489003 10,-10 a 1.0001,1.0001 0 0 0 -1,-1 z m 1.2011719,2 H 19.798828 C 19.288438,16.93217 16.075031,20 12,20 7.9249687,20 4.7115615,16.93217 4.2011719,13 Z"
     id="path2" />
  <path
     style="color:#000000;fill:#000000;-inkscape-stroke:none"
     d="m 7,20 a 1,1 0 0 0 -1,1 1,1 0 0 0 1,1 h 10 a 1,1 0 0 0 1,-1 1,1 0 0 0 -1,-1 z"
     id="path4" />
  <path
     style="color:#000000;fill:#000000;-inkscape-stroke:none"
     d="m 22.384766,5.0761719 a 1,1 0 0 0 -1.308594,0.5390625 l -2.5,5.9999996 a 1,1 0 0 0 0.539062,1.308594 1,1 0 0 0 1.308594,-0.539062 l 2.5,-6.0000004 A 1,1 0 0 0 22.384766,5.0761719 Z"
     id="path6" />
  <path
     style="color:#000000;fill:#000000;-inkscape-stroke:none"
     d="M 16.597656,2.0625 A 1,1 0 0 0 15.3125,2.6523438 1,1 0 0 0 15.902344,3.9375 c -0.102925,-0.03812 -0.01001,-0.00419 0.0293,0.050781 0.03808,0.053259 0.07641,0.1234303 0.06836,0.3027343 -0.0063,0.078609 -0.05319,0.1728198 -0.283203,0.4667969 -0.23185,0.2963209 -0.649112,0.789983 -0.712891,1.5371094 a 1.0001,1.0001 0 0 0 -0.002,0.021484 c -0.07284,1.1363363 0.589053,1.9714347 1.029297,2.4003907 a 1,1 0 0 0 1.414062,-0.019531 1,1 0 0 0 -0.01758,-1.4140625 C 17.092072,6.9561472 16.980525,6.8637105 17.003906,6.453125 c 0.0084,-0.072527 0.0574,-0.1692995 0.28711,-0.4628906 0.23565,-0.3011786 0.65274,-0.807576 0.707031,-1.5585938 a 1.0001,1.0001 0 0 0 0,-0.011719 C 18.036423,3.7828778 17.839287,3.2167512 17.558594,2.8242188 17.2779,2.4316863 16.970581,2.2006202 16.597656,2.0625 Z"
     id="path8" />
  <path
     style="color:#000000;fill:#000000;-inkscape-stroke:none"
     d="M 11.597656,2.0625 A 1,1 0 0 0 10.3125,2.6523438 1,1 0 0 0 10.902344,3.9375 c -0.102925,-0.03812 -0.01181,-0.00555 0.02539,0.046875 0.0372,0.052429 0.07829,0.1113148 0.06445,0.3027344 a 1.0001,1.0001 0 0 0 0,0.013672 c -0.0044,0.072404 -0.04958,0.1613017 -0.28125,0.4589844 -0.230486,0.296162 -0.645616,0.8005838 -0.695313,1.5507813 -0.083476,1.1357458 0.576556,1.9784393 1.015625,2.40625 a 1,1 0 0 0 1.414063,-0.019531 1,1 0 0 0 -0.01758,-1.4140625 C 12.087979,6.9521599 11.975534,6.8766575 12.007813,6.4570312 a 1.0001,1.0001 0 0 0 0,-0.015625 c 0.0039,-0.063382 0.04792,-0.1533083 0.28125,-0.453125 C 12.5218,5.6892264 12.938912,5.1782452 12.986328,4.4238281 13.029952,3.7890021 12.837536,3.2212797 12.558594,2.828125 12.278292,2.4330541 11.970581,2.2006202 11.597656,2.0625 Z"
     id="path10" />
  <path
     style="color:#000000;fill:#000000;-inkscape-stroke:none"
     d="M 6.5976562,2.0625 A 1,1 0 0 0 5.3125,2.6523438 1,1 0 0 0 5.9023437,3.9375 c -0.1029248,-0.03812 -0.010009,-0.00419 0.029297,0.050781 C 5.969725,4.0415399 6.008053,4.1117116 6,4.2910156 5.9936496,4.3696248 5.9468124,4.4638354 5.7167969,4.7578125 5.4849475,5.0541334 5.0676853,5.5477955 5.0039062,6.2949219 a 1.0001,1.0001 0 0 0 -0.00195,0.021484 C 4.9291111,7.4527425 5.5939377,8.290608 6.0507812,8.7246094 A 1,1 0 0 0 7.4648437,8.6894531 1,1 0 0 0 7.4296875,7.2753906 C 7.0906932,6.9533461 6.9804915,6.8635336 7.0039062,6.453125 7.0123557,6.3805984 7.0613021,6.2838255 7.2910156,5.9902344 7.5266658,5.6890558 7.9437564,5.1826584 7.9980469,4.4316406 a 1.0001,1.0001 0 0 0 0,-0.011719 C 8.036423,3.7828778 7.8392873,3.2167512 7.5585937,2.8242188 7.2779002,2.4316863 6.9705809,2.2006202 6.5976562,2.0625 Z"
     id="path12" />
</svg>
