<?xml version="1.0" encoding="UTF-8" standalone="no"?>
<svg
   width="24"
   height="24"
   viewBox="0 0 24 24"
   fill="none"
   stroke="currentColor"
   stroke-width="2"
   stroke-linecap="round"
   stroke-linejoin="round"
   version="1.1"
   id="svg4"
   xmlns="http://www.w3.org/2000/svg"
   xmlns:svg="http://www.w3.org/2000/svg">
  <defs
     id="defs8" />
  <path
     style="color:#000000;fill:#000000;-inkscape-stroke:none"
     d="m 2,16 a 1,1 0 0 0 -1,1 v 1 c 0,0.583333 0.2608343,1.049897 0.6054687,1.394531 C 1.9501032,19.739166 2.4166673,20 3,20 h 18 c 0.583333,0 1.049897,-0.260834 1.394531,-0.605469 C 22.739166,19.049897 23,18.583333 23,18 v -1 a 1,1 0 0 0 -1,-1 1,1 0 0 0 -1,1 v 1 H 3 V 17 A 1,1 0 0 0 2,16 Z"
     id="path2" />
</svg>
