<?xml version="1.0" encoding="UTF-8" standalone="no"?>
<svg
   width="24"
   height="24"
   viewBox="0 0 24 24"
   fill="none"
   stroke="currentColor"
   stroke-width="2"
   stroke-linecap="round"
   stroke-linejoin="round"
   version="1.1"
   id="svg6"
   xmlns="http://www.w3.org/2000/svg"
   xmlns:svg="http://www.w3.org/2000/svg">
  <defs
     id="defs10" />
  <path
     style="color:#000000;fill:#000000;-inkscape-stroke:none"
     d="M 11.292969,1.2929687 4.2929687,8.2929688 C 2.7615433,9.8243942 1,11.76522 1,14.5 1,18.078003 3.9219973,21 7.5,21 9.2003173,21 10.614011,20.364367 12,19.208984 13.385989,20.364367 14.799683,21 16.5,21 20.078003,21 23,18.078003 23,14.5 23,11.76522 21.238457,9.8243942 19.707031,8.2929688 l -7,-7.0000001 a 1.0001,1.0001 0 0 0 -1.414062,0 z M 12,3.4140625 18.292969,9.7070313 C 19.76154,11.175603 21,12.634784 21,14.5 21,16.997124 18.997124,19 16.5,19 14.885187,19 14.097035,18.682973 12.707031,17.292969 a 1.0001,1.0001 0 0 0 -1.414062,0 C 9.9029645,18.682973 9.1148132,19 7.5,19 5.0028765,19 3,16.997124 3,14.5 3,12.634784 4.2384597,11.175603 5.7070312,9.7070313 Z"
     id="path2" />
  <path
     style="color:#000000;fill:#000000;-inkscape-stroke:none"
     d="m 12,17 a 1,1 0 0 0 -1,1 v 4 a 1,1 0 0 0 1,1 1,1 0 0 0 1,-1 v -4 a 1,1 0 0 0 -1,-1 z"
     id="path4" />
</svg>
