<?xml version="1.0" encoding="UTF-8" standalone="no"?>
<svg
   width="24"
   height="24"
   viewBox="0 0 24 24"
   fill="none"
   stroke="currentColor"
   stroke-width="2"
   stroke-linecap="round"
   stroke-linejoin="round"
   version="1.1"
   id="svg4"
   xmlns="http://www.w3.org/2000/svg"
   xmlns:svg="http://www.w3.org/2000/svg">
  <defs
     id="defs8" />
  <path
     style="color:#000000;fill:#000000;-inkscape-stroke:none"
     d="M 12,2 A 1.0001,1.0001 0 0 0 11.048828,2.6894531 L 9.1503906,8.4882813 a 1.0001,1.0001 0 0 0 -0.00195,0.00391 C 9.0494608,8.7986264 8.8122213,9.037504 8.5058594,9.1367188 A 1.0001,1.0001 0 0 0 8.5,9.1386719 L 2.6875,11.050781 a 1.0001,1.0001 0 0 0 0.00195,1.900391 l 5.7988282,1.898437 a 1.0001,1.0001 0 0 0 0.00391,0.002 c 0.3064389,0.09898 0.5453165,0.336216 0.6445313,0.642578 a 1.0001,1.0001 0 0 0 0.00195,0.0059 l 1.9121091,5.8125 a 1.0001,1.0001 0 0 0 1.900391,-0.002 l 1.898437,-5.798828 a 1.0001,1.0001 0 0 0 0.002,-0.0039 c 0.09898,-0.306439 0.336216,-0.545317 0.642578,-0.644532 a 1.0001,1.0001 0 0 0 0.0059,-0.002 l 5.8125,-1.912109 a 1.0001,1.0001 0 0 0 -0.002,-1.900391 L 15.511719,9.1503906 a 1.0001,1.0001 0 0 0 -0.0039,-0.00195 C 15.201374,9.0494608 14.962496,8.8122213 14.863281,8.5058594 A 1.0001,1.0001 0 0 0 14.861328,8.5 L 12.949219,2.6875 A 1.0001,1.0001 0 0 0 12,2 Z m 0.002,4.2050781 0.958985,2.9160157 c 2.83e-4,8.753e-4 0.0017,0.00108 0.002,0.00195 V 9.125 c 0.297305,0.913391 1.015459,1.630495 1.929687,1.925781 l 2.902344,0.951172 -2.916016,0.958985 c -0.915416,0.296455 -1.633943,1.015994 -1.929687,1.93164 l -0.951172,2.902344 -0.958984,-2.916016 -0.002,-0.002 C 10.740128,13.962787 10.022192,13.244681 9.1074219,12.949219 l -2.9023438,-0.951172 2.9160157,-0.958984 0.00391,-0.002 c 0.913391,-0.297305 1.630495,-1.015459 1.925781,-1.9296871 z"
     id="path2" />
</svg>
