<?xml version="1.0" encoding="UTF-8" standalone="no"?>
<svg
   width="24"
   height="24"
   viewBox="0 0 24 24"
   fill="none"
   stroke="currentColor"
   stroke-width="2"
   stroke-linecap="round"
   stroke-linejoin="round"
   version="1.1"
   id="svg12"
   xmlns="http://www.w3.org/2000/svg"
   xmlns:svg="http://www.w3.org/2000/svg">
  <defs
     id="defs16" />
  <path
     style="color:#000000;fill:#000000;-inkscape-stroke:none"
     d="M 12,2 A 1.0001,1.0001 0 0 0 11.050781,2.6875 L 9.1386719,8.5 C 9.0391656,8.8025393 8.8025393,9.0391656 8.5,9.1386719 L 2.6875,11.050781 a 1.0001,1.0001 0 0 0 0,1.898438 L 8.5,14.861328 C 8.8025393,14.960834 9.0391656,15.197461 9.1386719,15.5 l 1.9121091,5.8125 a 1.0001,1.0001 0 0 0 1.898438,0 L 14.861328,15.5 C 14.960834,15.197461 15.197461,14.960834 15.5,14.861328 l 5.8125,-1.912109 a 1.0001,1.0001 0 0 0 0,-1.898438 L 15.5,9.1386719 C 15.197461,9.0391656 14.960834,8.8025393 14.861328,8.5 L 12.949219,2.6875 A 1.0001,1.0001 0 0 0 12,2 Z M 12,6.1972656 12.962891,9.125 c 0.297375,0.90414 1.007969,1.614734 1.912109,1.912109 L 17.802734,12 14.875,12.962891 C 13.97086,13.260266 13.260266,13.97086 12.962891,14.875 L 12,17.802734 11.037109,14.875 C 10.739734,13.97086 10.02914,13.260266 9.125,12.962891 L 6.1972656,12 9.125,11.037109 C 10.02914,10.739734 10.739734,10.02914 11.037109,9.125 Z"
     id="path2" />
  <path
     style="color:#000000;fill:#000000;-inkscape-stroke:none"
     d="M 5,2 A 1,1 0 0 0 4,3 V 7 A 1,1 0 0 0 5,8 1,1 0 0 0 6,7 V 3 A 1,1 0 0 0 5,2 Z"
     id="path4" />
  <path
     style="color:#000000;fill:#000000;-inkscape-stroke:none"
     d="m 19,16 a 1,1 0 0 0 -1,1 v 4 a 1,1 0 0 0 1,1 1,1 0 0 0 1,-1 v -4 a 1,1 0 0 0 -1,-1 z"
     id="path6" />
  <path
     style="color:#000000;fill:#000000;-inkscape-stroke:none"
     d="M 3,4 A 1,1 0 0 0 2,5 1,1 0 0 0 3,6 H 7 A 1,1 0 0 0 8,5 1,1 0 0 0 7,4 Z"
     id="path8" />
  <path
     style="color:#000000;fill:#000000;-inkscape-stroke:none"
     d="m 17,18 a 1,1 0 0 0 -1,1 1,1 0 0 0 1,1 h 4 a 1,1 0 0 0 1,-1 1,1 0 0 0 -1,-1 z"
     id="path10" />
</svg>
