<?xml version="1.0" encoding="UTF-8" standalone="no"?>
<svg
   width="24"
   height="24"
   viewBox="0 0 24 24"
   fill="none"
   stroke="currentColor"
   stroke-width="2"
   stroke-linecap="round"
   stroke-linejoin="round"
   version="1.1"
   id="svg8"
   xmlns="http://www.w3.org/2000/svg"
   xmlns:svg="http://www.w3.org/2000/svg">
  <defs
     id="defs12" />
  <path
     style="color:#000000;fill:#000000;-inkscape-stroke:none"
     d="M 12,3 A 1.0001,1.0001 0 0 0 11.105469,3.5527344 L 5.1054687,15.552734 a 1,1 0 0 0 0.4472657,1.341797 1,1 0 0 0 1.3417968,-0.447265 L 12,6.2363281 17.105469,16.447266 a 1,1 0 0 0 1.341797,0.447265 1,1 0 0 0 0.447265,-1.341797 l -6,-11.9999996 A 1.0001,1.0001 0 0 0 12,3 Z"
     id="path2" />
  <path
     style="color:#000000;fill:#000000;-inkscape-stroke:none"
     d="m 8,11 a 1,1 0 0 0 -1,1 1,1 0 0 0 1,1 h 8 a 1,1 0 0 0 1,-1 1,1 0 0 0 -1,-1 z"
     id="path4" />
  <path
     style="color:#000000;fill:#000000;-inkscape-stroke:none"
     d="M 6.3007812,19 C 5.4230043,19 4.7553613,19.486676 4.4570312,19.746094 4.1587012,20.005511 4.2469694,20 4,20 a 1,1 0 0 0 -1,1 1,1 0 0 0 1,1 C 4.8530294,22 5.4928619,21.494488 5.7695312,21.253906 6.0462006,21.013324 5.9785593,21 6.3007812,21 6.6230032,21 6.502344,20.990235 6.7773437,21.240234 7.0523435,21.490234 7.7218325,22 8.5996094,22 9.4526388,22 10.092471,21.494488 10.369141,21.253906 10.64581,21.013324 10.578169,21 10.900391,21 c 0.246969,0 0.156748,-0.0055 0.455078,0.253906 C 11.653799,21.513324 12.321442,22 13.199219,22 14.052248,22 14.692081,21.494488 14.96875,21.253906 15.245419,21.013324 15.177778,21 15.5,21 c 0.246969,0 0.158701,-0.0055 0.457031,0.253906 C 16.255361,21.513324 16.923004,22 17.800781,22 18.653811,22 19.29169,21.494488 19.568359,21.253906 19.845029,21.013324 19.777387,21 20.099609,21 a 1,1 0 0 0 1,-1 1,1 0 0 0 -1,-1 c -0.877777,0 -1.54542,0.486676 -1.84375,0.746094 C 17.957529,20.005511 18.047751,20 17.800781,20 17.478559,20 17.546201,19.986676 17.269531,19.746094 16.992862,19.505512 16.353029,19 15.5,19 14.622223,19 13.95458,19.486676 13.65625,19.746094 13.35792,20.005511 13.446188,20 13.199219,20 12.876997,20 12.944638,19.986676 12.667969,19.746094 12.391299,19.505512 11.75342,19 10.900391,19 10.022614,19 9.3549707,19.486676 9.0566406,19.746094 8.7583106,20.005511 8.8465788,20 8.5996094,20 8.2773875,20 8.3980466,20.009765 8.1230469,19.759766 7.8480471,19.509766 7.1785581,19 6.3007812,19 Z"
     id="path6" />
</svg>
