<?xml version="1.0" encoding="UTF-8" standalone="no"?>
<svg
   width="24"
   height="24"
   viewBox="0 0 24 24"
   fill="none"
   stroke="currentColor"
   stroke-width="2"
   stroke-linecap="round"
   stroke-linejoin="round"
   version="1.1"
   id="svg10"
   xmlns="http://www.w3.org/2000/svg"
   xmlns:svg="http://www.w3.org/2000/svg">
  <defs
     id="defs14" />
  <path
     style="color:#000000;fill:#000000;-inkscape-stroke:none"
     d="m 16,2 a 1,1 0 0 0 -1,1 1,1 0 0 0 1,1 h 4 v 4 a 1,1 0 0 0 1,1 1,1 0 0 0 1,-1 V 3 A 1.0001,1.0001 0 0 0 21,2 Z"
     id="path2" />
  <path
     style="color:#000000;fill:#000000;-inkscape-stroke:none"
     d="M 3,2 A 1.0001,1.0001 0 0 0 2,3 V 8 A 1,1 0 0 0 3,9 1,1 0 0 0 4,8 V 4 H 8 A 1,1 0 0 0 9,3 1,1 0 0 0 8,2 Z"
     id="path4" />
  <path
     style="color:#000000;fill:#000000;-inkscape-stroke:none"
     d="m 3,2 a 1,1 0 0 0 -0.7070312,0.2929688 1,1 0 0 0 0,1.4140625 L 10.121094,11.535156 C 10.692188,12.105985 11.008663,12.882038 11,13.689453 a 1.0001,1.0001 0 0 0 0,0.0098 V 22 a 1,1 0 0 0 1,1 1,1 0 0 0 1,-1 v -8.289062 c 0.01443,-1.344595 -0.513796,-2.639239 -1.464844,-3.589844 L 3.7070313,2.2929688 A 1,1 0 0 0 3,2 Z"
     id="path6" />
  <path
     style="color:#000000;fill:#000000;-inkscape-stroke:none"
     d="m 20.292969,2.2929688 -6,6 a 1,1 0 0 0 0,1.4140625 1,1 0 0 0 1.414062,0 l 6,-6 a 1,1 0 0 0 0,-1.4140625 1,1 0 0 0 -1.414062,0 z"
     id="path8" />
</svg>
