<?xml version="1.0" encoding="UTF-8" standalone="no"?>
<svg
   width="24"
   height="24"
   viewBox="0 0 24 24"
   fill="none"
   stroke="currentColor"
   stroke-width="2"
   stroke-linecap="round"
   stroke-linejoin="round"
   version="1.1"
   id="svg8"
   xmlns="http://www.w3.org/2000/svg"
   xmlns:svg="http://www.w3.org/2000/svg">
  <defs
     id="defs12" />
  <path
     style="color:#000000;fill:#000000;-inkscape-stroke:none"
     d="M 7,2 C 6.1666675,2 5.4501031,2.3858344 4.9179687,2.9179688 4.3858344,3.4501031 4,4.1666675 4,5 V 8 A 1,1 0 0 0 5,9 1,1 0 0 0 6,8 V 5 C 6,4.8333335 6.1141663,4.5498962 6.3320312,4.3320312 6.5498962,4.1141663 6.8333335,4 7,4 h 10 c 0.166667,0 0.450104,0.1141663 0.667969,0.3320312 C 17.885834,4.5498962 18,4.8333335 18,5 v 3 a 1,1 0 0 0 1,1 1,1 0 0 0 1,-1 V 5 C 20,4.1666675 19.614166,3.4501031 19.082031,2.9179688 18.549897,2.3858344 17.833332,2 17,2 Z"
     id="path2" />
  <path
     style="color:#000000;fill:#000000;-inkscape-stroke:none"
     d="m 5,15 a 1,1 0 0 0 -1,1 v 3 c 0,0.833332 0.3858344,1.549897 0.9179687,2.082031 C 5.4501031,21.614166 6.1666675,22 7,22 h 10 c 0.833332,0 1.549897,-0.385834 2.082031,-0.917969 C 19.614166,20.549897 20,19.833332 20,19 v -3 a 1,1 0 0 0 -1,-1 1,1 0 0 0 -1,1 v 3 c 0,0.166667 -0.114166,0.450104 -0.332031,0.667969 C 17.450104,19.885834 17.166667,20 17,20 H 7 C 6.8333335,20 6.5498962,19.885834 6.3320312,19.667969 6.1141663,19.450104 6,19.166667 6,19 V 16 A 1,1 0 0 0 5,15 Z"
     id="path4" />
  <path
     style="color:#000000;fill:#000000;-inkscape-stroke:none"
     d="m 4,11 a 1,1 0 0 0 -1,1 1,1 0 0 0 1,1 h 16 a 1,1 0 0 0 1,-1 1,1 0 0 0 -1,-1 z"
     id="line6" />
</svg>
