<?xml version="1.0" encoding="UTF-8" standalone="no"?>
<svg
   width="24"
   height="24"
   viewBox="0 0 24 24"
   fill="none"
   stroke="currentColor"
   stroke-width="2"
   stroke-linecap="round"
   stroke-linejoin="round"
   version="1.1"
   id="svg8"
   xmlns="http://www.w3.org/2000/svg"
   xmlns:svg="http://www.w3.org/2000/svg">
  <defs
     id="defs12" />
  <path
     style="color:#000000;fill:#000000;-inkscape-stroke:none"
     d="M 5,4 C 4.1666675,4 3.4501031,4.3858344 2.9179688,4.9179687 2.3858344,5.4501031 2,6.1666675 2,7 v 10 c 0,0.833332 0.3858344,1.549897 0.9179688,2.082031 C 3.4501031,19.614166 4.1666675,20 5,20 H 8 A 1,1 0 0 0 9,19 1,1 0 0 0 8,18 H 5 C 4.8333335,18 4.5498962,17.885834 4.3320312,17.667969 4.1141663,17.450104 4,17.166667 4,17 V 7 C 4,6.8333335 4.1141663,6.5498962 4.3320312,6.3320312 4.5498962,6.1141663 4.8333335,6 5,6 H 8 A 1,1 0 0 0 9,5 1,1 0 0 0 8,4 Z"
     id="path2" />
  <path
     style="color:#000000;fill:#000000;-inkscape-stroke:none"
     d="m 16,4 a 1,1 0 0 0 -1,1 1,1 0 0 0 1,1 h 3 c 0.166667,0 0.450104,0.1141663 0.667969,0.3320312 C 19.885834,6.5498962 20,6.8333335 20,7 v 10 c 0,0.166667 -0.114166,0.450104 -0.332031,0.667969 C 19.450104,17.885834 19.166667,18 19,18 h -3 a 1,1 0 0 0 -1,1 1,1 0 0 0 1,1 h 3 c 0.833332,0 1.549897,-0.385834 2.082031,-0.917969 C 21.614166,18.549897 22,17.833332 22,17 V 7 C 22,6.1666675 21.614166,5.4501031 21.082031,4.9179687 20.549897,4.3858344 19.833332,4 19,4 Z"
     id="path4" />
  <path
     style="color:#000000;fill:#000000;-inkscape-stroke:none"
     d="m 12,3 a 1,1 0 0 0 -1,1 v 16 a 1,1 0 0 0 1,1 1,1 0 0 0 1,-1 V 4 A 1,1 0 0 0 12,3 Z"
     id="line6" />
</svg>
