<?xml version="1.0" encoding="UTF-8" standalone="no"?>
<svg
   width="24"
   height="24"
   viewBox="0 0 24 24"
   fill="none"
   stroke="currentColor"
   stroke-width="2"
   stroke-linecap="round"
   stroke-linejoin="round"
   version="1.1"
   id="svg22"
   xmlns="http://www.w3.org/2000/svg"
   xmlns:svg="http://www.w3.org/2000/svg">
  <defs
     id="defs26" />
  <path
     style="color:#000000;fill:#000000;-inkscape-stroke:none"
     d="M 3,2 A 1,1 0 0 0 2,3 1,1 0 0 0 3,4 h 0.00977 a 1,1 0 0 0 1,-1 1,1 0 0 0 -1,-1 z"
     id="path2" />
  <path
     style="color:#000000;fill:#000000;-inkscape-stroke:none"
     d="M 7,4 A 1,1 0 0 0 6,5 1,1 0 0 0 7,6 h 0.00977 a 1,1 0 0 0 1,-1 1,1 0 0 0 -1,-1 z"
     id="path4" />
  <path
     style="color:#000000;fill:#000000;-inkscape-stroke:none"
     d="m 11,6 a 1,1 0 0 0 -1,1 1,1 0 0 0 1,1 h 0.0098 a 1,1 0 0 0 1,-1 1,1 0 0 0 -1,-1 z"
     id="path6" />
  <path
     style="color:#000000;fill:#000000;-inkscape-stroke:none"
     d="M 3,6 A 1,1 0 0 0 2,7 1,1 0 0 0 3,8 h 0.00977 a 1,1 0 0 0 1,-1 1,1 0 0 0 -1,-1 z"
     id="path8" />
  <path
     style="color:#000000;fill:#000000;-inkscape-stroke:none"
     d="m 7,8 a 1,1 0 0 0 -1,1 1,1 0 0 0 1,1 h 0.00977 a 1,1 0 0 0 1,-1 1,1 0 0 0 -1,-1 z"
     id="path10" />
  <path
     style="color:#000000;fill:#000000;-inkscape-stroke:none"
     d="m 3,10 a 1,1 0 0 0 -1,1 1,1 0 0 0 1,1 h 0.00977 a 1,1 0 0 0 1,-1 1,1 0 0 0 -1,-1 z"
     id="path12" />
  <path
     style="color:#000000;fill:#000000;-inkscape-stroke:none"
     d="m 15,4 a 1.0001,1.0001 0 0 0 -1,1 v 4 a 1.0001,1.0001 0 0 0 1,1 h 4 A 1.0001,1.0001 0 0 0 20,9 V 5 A 1.0001,1.0001 0 0 0 19,4 Z m 1,2 h 2 v 2 h -2 z"
     id="rect14" />
  <path
     style="color:#000000;fill:#000000;-inkscape-stroke:none"
     d="m 15,8 a 1,1 0 0 0 -0.707031,0.2929688 l -2,2.0000002 A 1.0001,1.0001 0 0 0 12,11 v 10 c 0,0.522222 0.191329,1.05461 0.568359,1.431641 C 12.94539,22.808671 13.477778,23 14,23 h 6 c 0.522222,0 1.05461,-0.191329 1.431641,-0.568359 C 21.808671,22.05461 22,21.522222 22,21 V 11 a 1.0001,1.0001 0 0 0 -0.292969,-0.707031 l -2,-2.0000002 a 1,1 0 0 0 -1.414062,0 1,1 0 0 0 0,1.4140625 L 20,11.414063 V 21 h -6 v -9.585937 l 1.707031,-1.7070317 a 1,1 0 0 0 0,-1.4140625 A 1,1 0 0 0 15,8 Z"
     id="path16" />
  <path
     style="color:#000000;fill:#000000;-inkscape-stroke:none"
     d="m 20.757812,11.029297 -7.999999,2 a 1,1 0 0 0 -0.728516,1.212891 1,1 0 0 0 1.212891,0.728515 l 7.999999,-2 a 1,1 0 0 0 0.728516,-1.21289 1,1 0 0 0 -1.212891,-0.728516 z"
     id="path18" />
  <path
     style="color:#000000;fill:#000000;-inkscape-stroke:none"
     d="m 20.757812,16.029297 -7.999999,2 a 1,1 0 0 0 -0.728516,1.21289 1,1 0 0 0 1.212891,0.728516 l 7.999999,-2 a 1,1 0 0 0 0.728516,-1.212891 1,1 0 0 0 -1.212891,-0.728515 z"
     id="path20" />
</svg>
