<?xml version="1.0" encoding="UTF-8" standalone="no"?>
<svg
   width="24"
   height="24"
   viewBox="0 0 24 24"
   fill="none"
   stroke="currentColor"
   stroke-width="2"
   stroke-linecap="round"
   stroke-linejoin="round"
   version="1.1"
   id="svg10"
   xmlns="http://www.w3.org/2000/svg"
   xmlns:svg="http://www.w3.org/2000/svg">
  <defs
     id="defs14" />
  <path
     style="color:#000000;fill:#000000;-inkscape-stroke:none"
     d="m 7,19 a 1,1 0 0 0 -1,1 1,1 0 0 0 1,1 h 10 a 1,1 0 0 0 1,-1 1,1 0 0 0 -1,-1 z"
     id="path2" />
  <path
     style="color:#000000;fill:#000000;-inkscape-stroke:none"
     d="m 12.765625,9.0273438 a 1,1 0 0 0 -0.619141,0.4511718 c -1.349005,2.2074634 -0.596684,4.4656664 -0.402343,6.0546874 0.09717,0.794511 0.07878,1.407992 -0.167969,1.927734 -0.246746,0.519743 -0.753246,1.066639 -1.9902345,1.628907 a 1,1 0 0 0 -0.4960937,1.324218 1,1 0 0 0 1.3242192,0.496094 c 1.513008,-0.687731 2.481122,-1.564666 2.96875,-2.591797 0.487627,-1.027131 0.462985,-2.084356 0.347656,-3.027343 -0.230659,-1.885976 -0.727945,-3.376999 0.123047,-4.769532 A 1,1 0 0 0 13.521484,9.1464844 1,1 0 0 0 12.765625,9.0273438 Z"
     id="path4" />
  <path
     style="color:#000000;fill:#000000;-inkscape-stroke:none"
     d="M 7.5800781,7.546875 C 6.550491,7.3558094 5.3134526,7.3492998 3.8242188,7.6152344 a 1.0001,1.0001 0 0 0 -0.78125,1.2753906 c 0.7518736,2.470442 2.0045913,4.040886 3.4960937,4.792969 1.5795782,0.845164 3.3684034,0.81421 5.4570315,0.396484 a 1.0001,1.0001 0 0 0 0.751953,-1.296875 C 12.218533,11.194661 11.473497,9.5995106 10.087891,8.5917969 9.431517,8.1144342 8.6096653,7.7379406 7.5800781,7.546875 Z M 7.1933594,9.4785156 c 0.745411,0.1339341 1.2751247,0.4078322 1.71875,0.7304684 0.5658418,0.411522 1.0223742,1.174552 1.4257816,2.041016 -1.1575056,0.11447 -2.1144046,0.07316 -2.8632816,-0.330078 A 1.0001,1.0001 0 0 0 7.4472656,11.90625 C 6.7738075,11.569521 6.1174561,10.73139 5.5390625,9.5371094 6.0997442,9.5121046 6.7847034,9.4050891 7.1933594,9.4785156 Z"
     id="path6" />
  <path
     style="color:#000000;fill:#000000;-inkscape-stroke:none"
     d="m 18.962891,3 c -2.909899,0.107774 -4.584736,1.1959304 -5.605469,2.3300781 a 1.0001,1.0001 0 0 0 -0.09961,0.1308594 C 12.386538,6.8226304 11.947516,8.4174764 12,10.033203 a 1.0001,1.0001 0 0 0 1.052734,0.964844 c 2.048963,-0.10784 3.674291,-0.659745 4.871094,-1.6171876 a 1.0001,1.0001 0 0 0 0.08398,-0.074219 C 19.172803,8.1416502 19.89317,6.5000506 20,4.0429687 A 1.0001,1.0001 0 0 0 18.962891,3 Z m -1.1875,2.25 C 17.56312,6.399108 17.219041,7.2404941 16.625,7.8457031 16.042044,8.3001451 15.179071,8.6009489 14.138672,8.7949219 14.266359,8.0297648 14.492694,7.288786 14.904297,6.6230469 15.492824,5.9796268 16.394426,5.5142487 17.775391,5.25 Z"
     id="path8" />
</svg>
