<?xml version="1.0" encoding="UTF-8" standalone="no"?>
<svg
   width="24"
   height="24"
   viewBox="0 0 24 24"
   fill="none"
   stroke="currentColor"
   stroke-width="2"
   stroke-linecap="round"
   stroke-linejoin="round"
   version="1.1"
   id="svg8"
   xmlns="http://www.w3.org/2000/svg"
   xmlns:svg="http://www.w3.org/2000/svg">
  <defs
     id="defs12" />
  <path
     style="color:#000000;fill:#000000;-inkscape-stroke:none"
     d="M 5,2 C 3.354992,2 2,3.354992 2,5 v 14 c 0,1.645008 1.354992,3 3,3 A 1,1 0 0 0 6,21 1,1 0 0 0 5,20 C 4.4358712,20 4,19.564129 4,19 V 5 C 4,4.4358712 4.4358712,4 5,4 h 14 c 0.564129,0 1,0.4358712 1,1 v 14 c 0,0.564129 -0.435871,1 -1,1 a 1,1 0 0 0 -1,1 1,1 0 0 0 1,1 c 1.645008,0 3,-1.354992 3,-3 V 5 C 22,3.354992 20.645008,2 19,2 Z"
     id="path2" />
  <path
     style="color:#000000;fill:#000000;-inkscape-stroke:none"
     d="m 9,20 a 1,1 0 0 0 -1,1 1,1 0 0 0 1,1 h 1 a 1,1 0 0 0 1,-1 1,1 0 0 0 -1,-1 z"
     id="path4" />
  <path
     style="color:#000000;fill:#000000;-inkscape-stroke:none"
     d="m 14,20 a 1,1 0 0 0 -1,1 1,1 0 0 0 1,1 h 1 a 1,1 0 0 0 1,-1 1,1 0 0 0 -1,-1 z"
     id="path6" />
</svg>
