<?xml version="1.0" encoding="UTF-8" standalone="no"?>
<svg
   width="24"
   height="24"
   viewBox="0 0 24 24"
   fill="none"
   stroke="currentColor"
   stroke-width="2"
   stroke-linecap="round"
   stroke-linejoin="round"
   version="1.1"
   id="svg8"
   xmlns="http://www.w3.org/2000/svg"
   xmlns:svg="http://www.w3.org/2000/svg">
  <defs
     id="defs12" />
  <path
     style="color:#000000;fill:#000000;-inkscape-stroke:none"
     d="M 4,1 C 2.3545471,1 1,2.3545471 1,4 v 4 c 0,1.6454529 1.3545471,3 3,3 A 1,1 0 0 0 5,10 1,1 0 0 0 4,9 C 3.4454551,9 3,8.5545449 3,8 V 4 C 3,3.4454551 3.4454551,3 4,3 h 4 c 0.5545449,0 1,0.4454551 1,1 a 1,1 0 0 0 1,1 1,1 0 0 0 1,-1 C 11,2.3545471 9.6454529,1 8,1 Z"
     id="path2" />
  <path
     style="color:#000000;fill:#000000;-inkscape-stroke:none"
     d="M 10,7 C 8.3545471,7 7,8.3545471 7,10 v 4 c 0,1.645453 1.3545471,3 3,3 a 1,1 0 0 0 1,-1 1,1 0 0 0 -1,-1 C 9.4454551,15 9,14.554545 9,14 V 10 C 9,9.4454551 9.4454551,9 10,9 h 4 c 0.554545,0 1,0.4454551 1,1 a 1,1 0 0 0 1,1 1,1 0 0 0 1,-1 C 17,8.3545471 15.645453,7 14,7 Z"
     id="path4" />
  <path
     style="color:#000000;fill:#000000;-inkscape-stroke:none"
     d="m 16,13 c -1.644701,0 -3,1.355299 -3,3 v 4 c 0,1.644701 1.355299,3 3,3 h 4 c 1.644701,0 3,-1.355299 3,-3 v -4 c 0,-1.644701 -1.355299,-3 -3,-3 z m 0,2 h 4 c 0.571297,0 1,0.428703 1,1 v 4 c 0,0.571297 -0.428703,1 -1,1 h -4 c -0.571297,0 -1,-0.428703 -1,-1 v -4 c 0,-0.571297 0.428703,-1 1,-1 z"
     id="rect6" />
</svg>
