<?xml version="1.0" encoding="UTF-8" standalone="no"?>
<svg
   width="24"
   height="24"
   viewBox="0 0 24 24"
   fill="none"
   stroke="currentColor"
   stroke-width="2"
   stroke-linecap="round"
   stroke-linejoin="round"
   version="1.1"
   id="svg10"
   xmlns="http://www.w3.org/2000/svg"
   xmlns:svg="http://www.w3.org/2000/svg">
  <defs
     id="defs14" />
  <path
     style="color:#000000;fill:#000000;-inkscape-stroke:none"
     d="M 5,2 C 3.3552989,2 2,3.3552989 2,5 v 14 c 0,1.644701 1.3552989,3 3,3 h 14 c 1.644701,0 3,-1.355299 3,-3 V 5 C 22,3.3552989 20.644701,2 19,2 Z m 0,2 h 14 c 0.571297,0 1,0.4287033 1,1 v 14 c 0,0.571297 -0.428703,1 -1,1 H 5 C 4.4287033,20 4,19.571297 4,19 V 5 C 4,4.4287033 4.4287033,4 5,4 Z"
     id="rect2" />
  <path
     style="color:#000000;fill:#000000;-inkscape-stroke:none"
     d="m 12,7 a 1,1 0 0 0 -1,1 v 8 a 1,1 0 0 0 1,1 1,1 0 0 0 1,-1 V 8 A 1,1 0 0 0 12,7 Z"
     id="path4" />
  <path
     style="color:#000000;fill:#000000;-inkscape-stroke:none"
     d="m 15.763672,9.0351563 a 1,1 0 0 0 -0.759766,0.095703 L 8.0039063,13.130859 a 1,1 0 0 0 -0.3730469,1.365235 1,1 0 0 0 1.3652344,0.373047 l 7.0000002,-4 a 1,1 0 0 0 0.373047,-1.3652347 1,1 0 0 0 -0.605469,-0.46875 z"
     id="path6" />
  <path
     style="color:#000000;fill:#000000;-inkscape-stroke:none"
     d="m 8.2363281,9.0351563 a 1,1 0 0 0 -0.6054687,0.46875 1,1 0 0 0 0.3730469,1.3652347 l 6.9999997,4 a 1,1 0 0 0 1.365235,-0.373047 1,1 0 0 0 -0.373047,-1.365235 L 8.9960938,9.1308594 A 1,1 0 0 0 8.2363281,9.0351563 Z"
     id="path8" />
</svg>
