<?xml version="1.0" encoding="UTF-8" standalone="no"?>
<svg
   width="24"
   height="24"
   viewBox="0 0 24 24"
   fill="none"
   stroke="currentColor"
   stroke-width="2"
   stroke-linecap="round"
   stroke-linejoin="round"
   version="1.1"
   id="svg10"
   xmlns="http://www.w3.org/2000/svg"
   xmlns:svg="http://www.w3.org/2000/svg">
  <defs
     id="defs14" />
  <path
     style="color:#000000;fill:#000000;-inkscape-stroke:none"
     d="M 6.5,1 C 5.1527792,1 3.7921184,1.4436817 2.7421875,2.3769531 1.6922566,3.3102246 1,4.7500023 1,6.5 1,7.583332 1.4422563,8.5231083 2.1171875,9.1230469 2.7566325,9.6914422 3.5714781,9.9253468 4.375,9.953125 4.2999105,10.05908 4.2579125,10.129739 4.1796875,10.242188 3.1408901,11.735459 2,13.777781 2,17 c 0,3.323806 2.6761938,6 6,6 h 10 a 1,1 0 0 0 1,-1 1,1 0 0 0 -1,-1 H 8 C 5.7238118,21 4,19.276188 4,17 4,14.222225 4.8591119,12.764538 5.8203125,11.382813 6.4812291,10.432745 7.1206507,9.3915988 7.5449219,8.2011719 7.8117153,7.7011264 8,7.141821 8,6.5 a 1.0001,1.0001 0 0 0 -2,0 C 6,7.0833323 5.8172553,7.3935596 5.5546875,7.6269531 5.2921197,7.8603466 4.9027775,8 4.5,8 4.0972225,8 3.7078803,7.8603466 3.4453125,7.6269531 3.1827447,7.3935596 3,7.0833323 3,6.5 3,5.250002 3.432745,4.4397733 4.0703125,3.8730469 4.70788,3.3063205 5.597223,3 6.5,3 7.402777,3 8.29212,3.3063205 8.9296875,3.8730469 9.567255,4.4397733 10,5.250002 10,6.5 10,9.0075733 9.1958024,10.031706 8.2050781,11.332031 7.6822586,12.018232 7.1253668,12.821806 6.6894531,13.802734 6.2568887,14.78545 6,15.860468 6,17 a 1.0001,1.0001 0 0 0 2,0 C 8,15.980131 8.2003424,15.285132 8.4746094,14.654297 9.3842427,12.502673 11.508385,11 14,11 a 1.0001,1.0001 0 0 0 1,-1 C 15,8.3313028 16.331303,7 18,7 A 1,1 0 0 0 19,6 1,1 0 0 0 18,5 C 15.545079,5 13.582605,6.8265227 13.169922,9.1679688 12.559529,9.2345172 11.960287,9.3305579 11.398438,9.5273438 11.711561,8.6596479 12,7.7421662 12,6.5 12,4.7500023 11.307743,3.3102246 10.257813,2.3769531 9.2078816,1.4436817 7.8472208,1 6.5,1 Z"
     id="path2" />
  <path
     style="color:#000000;fill:#000000;-inkscape-stroke:none"
     d="m 18,3 a 1,1 0 0 0 -1,1 v 5 a 1.0001,1.0001 0 0 0 1,1 c 1.668697,0 3,1.331303 3,3 v 2 c 0,0.564129 -0.435871,1 -1,1 h -1 c -2.209802,0 -4,1.790198 -4,4 a 1,1 0 0 0 1,1 1,1 0 0 0 1,-1 c 0,-1.190195 0.809805,-2 2,-2 h 1 c 1.645008,0 3,-1.354992 3,-3 V 13 C 23,10.604487 21.258214,8.6827674 19,8.203125 V 4 A 1,1 0 0 0 18,3 Z"
     id="path4" />
  <path
     style="color:#000000;fill:#000000;-inkscape-stroke:none"
     d="M 13.011719,16 A 1,1 0 0 0 12,16.988281 1,1 0 0 0 12.988281,18 c 0.895541,0.01071 1.507149,0.512695 1.806641,1.193359 0.299492,0.680664 0.25729,1.473138 -0.339844,2.140625 a 1,1 0 0 0 0.07813,1.41211 1,1 0 0 0 1.41211,-0.08008 C 17.065768,21.41355 17.210923,19.720315 16.625,18.388672 16.039077,17.057028 14.692101,16.020097 13.011719,16 Z"
     id="path6" />
  <path
     style="color:#000000;fill:#000000;-inkscape-stroke:none"
     d="m 18,12 a 1,1 0 0 0 -1,1 1,1 0 0 0 1,1 h 0.0098 a 1,1 0 0 0 1,-1 1,1 0 0 0 -1,-1 z"
     id="path8" />
</svg>
