<?xml version="1.0" encoding="UTF-8" standalone="no"?>
<svg
   width="24"
   height="24"
   viewBox="0 0 24 24"
   fill="none"
   stroke="currentColor"
   stroke-width="2"
   stroke-linecap="round"
   stroke-linejoin="round"
   version="1.1"
   id="svg8"
   xmlns="http://www.w3.org/2000/svg"
   xmlns:svg="http://www.w3.org/2000/svg">
  <defs
     id="defs12" />
  <path
     style="color:#000000;fill:#000000;-inkscape-stroke:none"
     d="m 5,21 a 1,1 0 0 0 -1,1 1,1 0 0 0 1,1 h 14 a 1,1 0 0 0 1,-1 1,1 0 0 0 -1,-1 z"
     id="path2" />
  <path
     style="color:#000000;fill:#000000;-inkscape-stroke:none"
     d="M 6.5,12 C 4.5788499,12 3,13.57885 3,15.5 V 17 c 0,1.092724 0.9072762,2 2,2 h 14 c 1.092724,0 2,-0.907276 2,-2 v -1.5 c 0,-0.922625 -0.36287,-1.815995 -1.023438,-2.476562 a 1.0001,1.0001 0 0 0 0,-0.002 C 19.319642,12.366219 18.427804,11.99886 17.5,12 Z m 0,2 h 11 a 1.0001,1.0001 0 0 0 0.002,0 c 0.397855,-7.11e-4 0.778554,0.156918 1.060547,0.4375 C 18.841932,14.716932 19,15.102627 19,15.5 V 17 H 5 V 15.5 C 5,14.659729 5.6597291,14 6.5,14 Z"
     id="path4" />
  <path
     style="color:#000000;fill:#000000;-inkscape-stroke:none"
     d="M 12,1 C 10.969198,1 9.9573049,1.3169281 9.1992188,2.015625 8.4411326,2.7143219 8,3.7766679 8,5 8,6.1666655 8.3605052,6.960474 8.6308594,7.4335937 8.9012135,7.9067135 9,7.9722227 9,8.5 V 13 a 1,1 0 0 0 1,1 1,1 0 0 0 1,-1 V 8.5 C 11,7.5277788 10.598786,6.8432856 10.369141,6.4414062 10.139495,6.0395269 10,5.8333325 10,5 10,4.2233341 10.227775,3.7856771 10.554688,3.484375 10.8816,3.1830729 11.370804,3 12,3 13.116413,3 14,3.883587 14,5 14,5.8333325 13.860505,6.0395269 13.630859,6.4414062 13.401214,6.8432856 13,7.5277788 13,8.5 V 13 a 1,1 0 0 0 1,1 1,1 0 0 0 1,-1 V 8.5 C 15,7.9722227 15.098786,7.9067135 15.369141,7.4335937 15.639495,6.960474 16,6.1666655 16,5 16,2.8027078 14.197292,1 12,1 Z"
     id="path6" />
</svg>
