<?xml version="1.0" encoding="UTF-8" standalone="no"?>
<svg
   width="24"
   height="24"
   viewBox="0 0 24 24"
   fill="none"
   stroke="currentColor"
   stroke-width="2"
   stroke-linecap="round"
   stroke-linejoin="round"
   version="1.1"
   id="svg4"
   xmlns="http://www.w3.org/2000/svg"
   xmlns:svg="http://www.w3.org/2000/svg">
  <defs
     id="defs8" />
  <path
     style="color:#000000;fill:#000000;-inkscape-stroke:none"
     d="M 12.429688,1.0976562 A 1,1 0 0 0 11.097656,1.5703125 L 8.328125,7.3867187 1.859375,8.3105469 A 1.0001,1.0001 0 0 0 1.3066406,10.021484 l 4.6171875,4.431641 -1.109375,6.375 a 1.0001,1.0001 0 0 0 1.4433594,1.060547 l 6.2011715,-3.199219 a 1,1 0 0 0 0.429688,-1.347656 1,1 0 0 0 -1.347656,-0.429688 L 7.1289062,19.189453 7.984375,14.271484 A 1.0001,1.0001 0 0 0 7.6933594,13.378906 L 4.1738281,9.9980469 9.140625,9.2890625 A 1.0001,1.0001 0 0 0 9.9023438,8.7304688 L 12.902344,2.4296875 A 1,1 0 0 0 12.429688,1.0976562 Z"
     id="path2" />
</svg>
