<?xml version="1.0" encoding="UTF-8" standalone="no"?>
<svg
   width="24"
   height="24"
   viewBox="0 0 24 24"
   fill="none"
   stroke="currentColor"
   stroke-width="2"
   stroke-linecap="round"
   stroke-linejoin="round"
   version="1.1"
   id="svg4"
   xmlns="http://www.w3.org/2000/svg"
   xmlns:svg="http://www.w3.org/2000/svg">
  <defs
     id="defs8" />
  <path
     style="color:#000000;fill:#000000;-inkscape-stroke:none"
     d="M 12,1 A 1.0001,1.0001 0 0 0 11.103516,1.5566406 L 8.2460938,7.3457031 1.8554687,8.28125 A 1.0001,1.0001 0 0 0 1.3027344,9.9863281 l 4.6230468,4.5039059 -1.0917968,6.361328 a 1.0001,1.0001 0 0 0 1.4511718,1.052735 L 12,18.900391 l 5.714844,3.003906 a 1.0001,1.0001 0 0 0 1.451172,-1.052735 L 18.074219,14.490234 22.697266,9.9863281 A 1.0001,1.0001 0 0 0 22.144531,8.28125 L 15.753906,7.3457031 12.896484,1.5566406 A 1.0001,1.0001 0 0 0 12,1 Z m 0,3.2597656 2.193359,4.4433594 A 1.0001,1.0001 0 0 0 14.945313,9.25 l 4.906249,0.7167969 -3.548828,3.4570311 a 1.0001,1.0001 0 0 0 -0.289062,0.884766 l 0.83789,4.882812 -4.386718,-2.30664 a 1.0001,1.0001 0 0 0 -0.929688,0 l -4.3867185,2.30664 0.8378906,-4.882812 A 1.0001,1.0001 0 0 0 7.6972656,13.423828 L 4.1484375,9.9667969 9.0546875,9.25 A 1.0001,1.0001 0 0 0 9.8066406,8.703125 Z"
     id="polygon2" />
</svg>
