<?xml version="1.0" encoding="UTF-8" standalone="no"?>
<svg
   width="24"
   height="24"
   viewBox="0 0 24 24"
   fill="none"
   stroke="currentColor"
   stroke-width="2"
   stroke-linecap="round"
   stroke-linejoin="round"
   version="1.1"
   id="svg8"
   xmlns="http://www.w3.org/2000/svg"
   xmlns:svg="http://www.w3.org/2000/svg">
  <defs
     id="defs12" />
  <path
     style="color:#000000;fill:#000000;-inkscape-stroke:none"
     d="M 8.1953125,7.3515625 1.8554687,8.28125 A 1.0001,1.0001 0 0 0 1.3027344,9.9863281 l 4.6230468,4.5019529 -1.0917968,6.341797 a 1.0001,1.0001 0 0 0 1.4492187,1.056641 L 12,18.898437 l 5.716797,2.988282 a 1.0001,1.0001 0 0 0 1.449219,-1.056641 l -0.589844,-3.429687 a 1,1 0 0 0 -1.15625,-0.816407 1,1 0 0 0 -0.816406,1.15625 l 0.248046,1.4375 -4.388671,-2.294922 a 1.0001,1.0001 0 0 0 -0.925782,0 l -4.3886715,2.294922 0.8378906,-4.86914 A 1.0001,1.0001 0 0 0 7.6972656,13.423828 L 4.1484375,9.9667969 8.484375,9.3300781 A 1,1 0 0 0 9.3300781,8.1953125 1,1 0 0 0 8.1953125,7.3515625 Z"
     id="path2" />
  <path
     style="color:#000000;fill:#000000;-inkscape-stroke:none"
     d="M 12,1 A 1.0001,1.0001 0 0 0 11.103516,1.5566406 L 9.6640625,4.4667969 a 1,1 0 0 0 0.4531255,1.3398437 1,1 0 0 0 1.339843,-0.453125 l 0.541016,-1.0957031 2.195312,4.4550781 a 1.0001,1.0001 0 0 0 0.753907,0.546875 l 4.904296,0.7089844 -2.128906,2.076172 a 1,1 0 0 0 -0.01953,1.414062 1,1 0 0 0 1.414062,0.01758 L 22.697266,9.9863281 A 1.0001,1.0001 0 0 0 22.142578,8.28125 L 15.753906,7.3554687 12.896484,1.5585937 A 1.0001,1.0001 0 0 0 12,1 Z"
     id="path4" />
  <path
     style="color:#000000;fill:#000000;-inkscape-stroke:none"
     d="m 2,1 a 1,1 0 0 0 -0.7070313,0.2929687 1,1 0 0 0 0,1.4140626 L 21.292969,22.707031 a 1,1 0 0 0 1.414062,0 1,1 0 0 0 0,-1.414062 L 2.7070313,1.2929687 A 1,1 0 0 0 2,1 Z"
     id="line6" />
</svg>
