<?xml version="1.0" encoding="UTF-8" standalone="no"?>
<svg
   width="24"
   height="24"
   viewBox="0 0 24 24"
   fill="none"
   stroke="currentColor"
   stroke-width="2"
   stroke-linecap="round"
   stroke-linejoin="round"
   version="1.1"
   id="svg6"
   xmlns="http://www.w3.org/2000/svg"
   xmlns:svg="http://www.w3.org/2000/svg">
  <defs
     id="defs10" />
  <path
     style="color:#000000;fill:#000000;-inkscape-stroke:none"
     d="m 18,3 a 1,1 0 0 0 -1,1 v 16 a 1,1 0 0 0 1,1 1,1 0 0 0 1,-1 V 4 A 1,1 0 0 0 18,3 Z"
     id="line2" />
  <path
     style="color:#000000;fill:#000000;-inkscape-stroke:none"
     d="M 14.433594,3.0996094 A 1.0001,1.0001 0 0 0 13.375,3.21875 l -10,8 a 1.0001,1.0001 0 0 0 0,1.5625 l 10,8 A 1.0001,1.0001 0 0 0 15,20 V 4 A 1.0001,1.0001 0 0 0 14.433594,3.0996094 Z M 13,6.0820312 V 17.917969 L 5.6015625,12 Z"
     id="polygon4" />
</svg>
