<?xml version="1.0" encoding="UTF-8" standalone="no"?>
<svg
   width="24"
   height="24"
   viewBox="0 0 24 24"
   fill="none"
   stroke="currentColor"
   stroke-width="2"
   stroke-linecap="round"
   stroke-linejoin="round"
   version="1.1"
   id="svg8"
   xmlns="http://www.w3.org/2000/svg"
   xmlns:svg="http://www.w3.org/2000/svg">
  <defs
     id="defs12" />
  <path
     style="color:#000000;fill:#000000;-inkscape-stroke:none"
     d="M 4,1 C 2.354992,1 1,2.354992 1,4 v 5 c 0,3.854145 3.1458552,7 7,7 3.854145,0 7,-3.145855 7,-7 V 4 C 15,2.354992 13.645008,1 12,1 H 11 A 1.0001,1.0001 0 0 0 10.292969,1.2929687 C 10.066192,1.5197453 9.9162227,1.8902393 9.9355469,2.21875 c 0.019324,0.3285107 0.1627871,0.5944279 0.3574221,0.7890625 0.194634,0.1946346 0.460552,0.3361445 0.789062,0.3554688 0.328511,0.019324 0.699005,-0.1286923 0.925782,-0.3554688 a 1,1 0 0 0 0.002,-0.00391 C 12.568269,3.0098244 13,3.4397368 13,4 v 5 c 0,2.773266 -2.226734,5 -5,5 C 5.2267344,14 3,11.773266 3,9 V 4 C 3,3.4358712 3.4358712,3 4,3 h 0.054687 c 0.025818,0.035605 0.00189,0.052611 0.035156,0.089844 C 4.3613325,3.3937212 4.936925,3.4785633 5.2070312,3.3945313 5.7472437,3.2264672 5.7942081,3.0186487 5.9199219,2.8300781 6.0456356,2.6415075 6.2206068,2.5164227 6.1679687,1.953125 6.1416497,1.6714762 5.8399991,1.1747447 5.4550781,1.0410156 5.0701572,0.90728659 4.8364861,0.9973831 4.6679687,1.0566406 L 5,1 Z m 7.199219,0.3671875 c 0.222261,0.013074 0.388178,0.1069278 0.507812,0.2265625 a 1,1 0 0 0 -1.113281,0 C 10.720527,1.4669733 10.976958,1.3541133 11.199219,1.3671875 Z M 5.1035156,1.6230469 c 0.184362,0.044156 0.3635615,0.0061 0.4785156,0.1347656 0.2327617,0.2605302 0.2137513,0.4326286 0.2167969,0.4863281 A 1,1 0 0 0 5.1035156,1.6230469 Z"
     id="path2" />
  <path
     style="color:#000000;fill:#000000;-inkscape-stroke:none"
     d="m 20,11 a 1,1 0 0 0 -1,1 v 4 c 0,2.773266 -2.226734,5 -5,5 -2.773266,0 -5,-2.226734 -5,-5 V 15 A 1,1 0 0 0 8,14 1,1 0 0 0 7,15 v 1 c 0,3.854145 3.145855,7 7,7 3.854145,0 7,-3.145855 7,-7 v -4 a 1,1 0 0 0 -1,-1 z"
     id="path4" />
  <path
     style="color:#000000;fill:#000000;-inkscape-stroke:none"
     d="m 20,7 c -1.645008,0 -3,1.354992 -3,3 0,1.645008 1.354992,3 3,3 1.645008,0 3,-1.354992 3,-3 0,-1.645008 -1.354992,-3 -3,-3 z m 0,2 c 0.564129,0 1,0.4358712 1,1 0,0.564129 -0.435871,1 -1,1 -0.564129,0 -1,-0.435871 -1,-1 0,-0.5641288 0.435871,-1 1,-1 z"
     id="circle6" />
</svg>
