<?xml version="1.0" encoding="UTF-8" standalone="no"?>
<svg
   width="24"
   height="24"
   viewBox="0 0 24 24"
   fill="none"
   stroke="currentColor"
   stroke-width="2"
   stroke-linecap="round"
   stroke-linejoin="round"
   version="1.1"
   id="svg12"
   xmlns="http://www.w3.org/2000/svg"
   xmlns:svg="http://www.w3.org/2000/svg">
  <defs
     id="defs16" />
  <path
     style="color:#000000;fill:#000000;-inkscape-stroke:none"
     d="M 5,2 C 3.354992,2 2,3.354992 2,5 v 14 c 0,1.645453 1.3545471,3 3,3 h 14 c 1.645008,0 3,-1.354992 3,-3 V 8.5 A 1.0001,1.0001 0 0 0 21.707031,7.7929687 l -5.5,-5.4999999 A 1.0001,1.0001 0 0 0 15.5,2 Z M 5,4 H 15.085938 L 20,8.9140625 V 19 c 0,0.564129 -0.435871,1 -1,1 H 5 C 4.4454551,20 4,19.554545 4,19 V 5 C 4,4.4358712 4.4358712,4 5,4 Z"
     id="path2" />
  <path
     style="color:#000000;fill:#000000;-inkscape-stroke:none"
     d="m 15,2 a 1,1 0 0 0 -1,1 v 6 a 1.0001,1.0001 0 0 0 1,1 h 6 A 1,1 0 0 0 22,9 1,1 0 0 0 21,8 H 16 V 3 A 1,1 0 0 0 15,2 Z"
     id="path4" />
  <path
     style="color:#000000;fill:#000000;-inkscape-stroke:none"
     d="M 10.111328,15.005859 A 1,1 0 0 0 9.375,15.21875 1,1 0 0 0 9.21875,16.625 c 0,0 1.025696,1.375 2.78125,1.375 1.812819,0 2.818359,-1.425781 2.818359,-1.425781 a 1,1 0 0 0 -0.24414,-1.392578 1,1 0 0 0 -1.392578,0.24414 C 13.181641,15.425781 12.787179,16 12,16 11.355556,16 10.78125,15.375 10.78125,15.375 a 1,1 0 0 0 -0.669922,-0.369141 z"
     id="path6" />
  <path
     style="color:#000000;fill:#000000;-inkscape-stroke:none"
     d="M 8,12 A 1,1 0 0 0 7,13 1,1 0 0 0 8,14 1,1 0 0 0 9,13 1,1 0 0 0 8,12 Z"
     id="path8" />
  <path
     style="color:#000000;fill:#000000;-inkscape-stroke:none"
     d="m 16,12 a 1,1 0 0 0 -1,1 1,1 0 0 0 1,1 1,1 0 0 0 1,-1 1,1 0 0 0 -1,-1 z"
     id="path10" />
</svg>
