<?xml version="1.0" encoding="UTF-8" standalone="no"?>
<svg
   width="24"
   height="24"
   viewBox="0 0 24 24"
   fill="none"
   stroke="currentColor"
   stroke-width="2"
   stroke-linecap="round"
   stroke-linejoin="round"
   version="1.1"
   id="svg12"
   xmlns="http://www.w3.org/2000/svg"
   xmlns:svg="http://www.w3.org/2000/svg">
  <defs
     id="defs16" />
  <path
     style="color:#000000;fill:#000000;-inkscape-stroke:none"
     d="M 7.8300781,1 C 7.0309055,0.99936675 6.2645885,1.3179861 5.7011719,1.8847656 L 1.2929687,6.2929687 a 1,1 0 0 0 0,1.4140625 1,1 0 0 0 1.4140626,0 L 7.1171875,3.296875 a 1.0001,1.0001 0 0 0 0.00195,-0.00195 C 7.307316,3.1056233 7.5631627,2.9997885 7.8300781,3 h 8.3398439 c 0.266915,-2.115e-4 0.522762,0.1056233 0.710937,0.2949219 a 1.0001,1.0001 0 0 0 0.002,0.00195 l 4.410157,4.4101562 a 1,1 0 0 0 1.414062,0 1,1 0 0 0 0,-1.4140625 L 18.298828,1.8847656 C 17.735411,1.3179861 16.969095,0.99936675 16.169922,1 Z"
     id="path2" />
  <path
     style="color:#000000;fill:#000000;-inkscape-stroke:none"
     d="m 4,11 a 1,1 0 0 0 -1,1 v 8 c 0,1.645008 1.354992,3 3,3 h 12 c 1.645008,0 3,-1.354992 3,-3 v -8 a 1,1 0 0 0 -1,-1 1,1 0 0 0 -1,1 v 8 c 0,0.564129 -0.435871,1 -1,1 H 6 C 5.4358712,21 5,20.564129 5,20 V 12 A 1,1 0 0 0 4,11 Z"
     id="path4" />
  <path
     style="color:#000000;fill:#000000;-inkscape-stroke:none"
     d="m 11,15 c -1.645008,0 -3,1.354992 -3,3 v 4 a 1,1 0 0 0 1,1 1,1 0 0 0 1,-1 v -4 c 0,-0.564129 0.435871,-1 1,-1 h 2 c 0.564129,0 1,0.435871 1,1 v 4 a 1,1 0 0 0 1,1 1,1 0 0 0 1,-1 v -4 c 0,-1.645008 -1.354992,-3 -3,-3 z"
     id="path6" />
  <path
     style="color:#000000;fill:#000000;-inkscape-stroke:none"
     d="M 2,6 A 1,1 0 0 0 1,7 1,1 0 0 0 2,8 H 22 A 1,1 0 0 0 23,7 1,1 0 0 0 22,6 Z"
     id="path8" />
  <path
     style="color:#000000;fill:#000000;-inkscape-stroke:none"
     d="M 2,6 A 1,1 0 0 0 1,7 v 3 c 0,1.645008 1.354992,3 3,3 a 1.0001,1.0001 0 0 0 0.054687,-0.002 C 4.7690096,12.958731 5.4246961,12.6477 6,12.228516 6.5753039,12.6477 7.2309904,12.958731 7.9453125,12.998047 a 1.0001,1.0001 0 0 0 0.109375,0 C 8.7690096,12.958731 9.4246961,12.6477 10,12.228516 c 0.575304,0.419184 1.23099,0.730215 1.945313,0.769531 a 1.0001,1.0001 0 0 0 0.109375,0 C 12.76901,12.958731 13.424696,12.6477 14,12.228516 c 0.575304,0.419184 1.23099,0.730215 1.945313,0.769531 a 1.0001,1.0001 0 0 0 0.109374,0 C 16.76901,12.958731 17.424696,12.6477 18,12.228516 c 0.575304,0.419184 1.23099,0.730215 1.945312,0.769531 A 1.0001,1.0001 0 0 0 20,13 c 1.645008,0 3,-1.354992 3,-3 V 7 A 1,1 0 0 0 22,6 1,1 0 0 0 21,7 v 3 c 0,0.554132 -0.425037,0.975156 -0.974609,0.990234 -0.356212,-0.02641 -0.696962,-0.154423 -0.970704,-0.384765 a 1.0001,1.0001 0 0 0 -0.05859,-0.04687 c -0.591199,-0.427226 -1.400989,-0.427226 -1.992188,0 a 1.0001,1.0001 0 0 0 -0.05859,0.04687 c -0.26661,0.224341 -0.599295,0.343635 -0.945312,0.375 -0.346017,-0.03136 -0.678702,-0.150659 -0.945312,-0.375 a 1.0001,1.0001 0 0 0 -0.05859,-0.04687 c -0.591199,-0.427226 -1.400989,-0.427226 -1.992188,0 a 1.0001,1.0001 0 0 0 -0.05859,0.04687 c -0.266611,0.224341 -0.599296,0.343635 -0.945313,0.375 -0.346017,-0.03136 -0.678702,-0.150659 -0.945312,-0.375 a 1.0001,1.0001 0 0 0 -0.05859,-0.04687 c -0.591199,-0.427226 -1.4009889,-0.427226 -1.9921877,0 a 1.0001,1.0001 0 0 0 -0.058594,0.04687 C 8.6787022,10.82981 8.3460173,10.949104 8,10.980469 7.6539827,10.949104 7.3212978,10.82981 7.0546875,10.605469 a 1.0001,1.0001 0 0 0 -0.058594,-0.04687 c -0.5911988,-0.427226 -1.4009886,-0.427226 -1.9921875,0 a 1.0001,1.0001 0 0 0 -0.058594,0.04687 C 4.6715708,10.835811 4.3308206,10.963822 3.9746094,10.990234 3.4250369,10.975156 3,10.554132 3,10 V 7 A 1,1 0 0 0 2,6 Z m 3.765625,6.134766 c 0.031887,0.02683 0.080592,0.01925 0.1132812,0.04492 -0.017715,-0.0079 -0.038861,0.01144 -0.054687,0 z m 0.46875,0 -0.058594,0.04492 c -0.015827,0.01144 -0.036973,-0.0079 -0.054687,0 0.032689,-0.02567 0.081394,-0.01809 0.1132813,-0.04492 z m 3.53125,0 c 0.031887,0.02683 0.080592,0.01925 0.1132813,0.04492 -0.017715,-0.0079 -0.038861,0.01144 -0.054687,0 z m 0.46875,0 -0.05859,0.04492 c -0.01583,0.01144 -0.03697,-0.0079 -0.05469,0 0.03269,-0.02567 0.08139,-0.01809 0.113281,-0.04492 z m 3.53125,0 c 0.03189,0.02683 0.08059,0.01925 0.113281,0.04492 -0.01772,-0.0079 -0.03886,0.01144 -0.05469,0 z m 0.46875,0 -0.05859,0.04492 c -0.01583,0.01144 -0.03697,-0.0079 -0.05469,0 0.03269,-0.02567 0.08139,-0.01809 0.113281,-0.04492 z m 3.53125,0 c 0.03189,0.02683 0.08059,0.01925 0.113281,0.04492 -0.01771,-0.0079 -0.03886,0.01144 -0.05469,0 z m 0.46875,0 -0.05859,0.04492 c -0.01583,0.01144 -0.03697,-0.0079 -0.05469,0 0.03269,-0.02567 0.08139,-0.01809 0.113281,-0.04492 z"
     id="path10" />
</svg>
