<?xml version="1.0" encoding="UTF-8" standalone="no"?>
<svg
   width="24"
   height="24"
   viewBox="0 0 24 24"
   fill="none"
   stroke="currentColor"
   stroke-width="2"
   stroke-linecap="round"
   stroke-linejoin="round"
   version="1.1"
   id="svg8"
   xmlns="http://www.w3.org/2000/svg"
   xmlns:svg="http://www.w3.org/2000/svg">
  <defs
     id="defs12" />
  <path
     style="color:#000000;fill:#000000;-inkscape-stroke:none"
     d="M 9,3 C 6.2692434,2.9985682 4.3163098,5.7594021 5.2265625,8.3339844 a 1,1 0 0 0 1.2773437,0.609375 1,1 0 0 0 0.609375,-1.2773438 C 6.6427231,6.3350769 7.5883265,4.9992598 9,5 h 7 A 1,1 0 0 0 17,4 1,1 0 0 0 16,3 Z"
     id="path2" />
  <path
     style="color:#000000;fill:#000000;-inkscape-stroke:none"
     d="m 14,11 a 1,1 0 0 0 -1,1 1,1 0 0 0 1,1 c 1.083332,0 1.76856,0.370245 2.251953,0.914063 C 16.735346,14.45788 17,15.222223 17,16 17,16.777777 16.735346,17.54212 16.251953,18.085937 15.76856,18.629755 15.083332,19 14,19 H 6 a 1,1 0 0 0 -1,1 1,1 0 0 0 1,1 h 8 c 1.583331,0 2.898109,-0.629757 3.748047,-1.585938 C 18.597985,18.457882 19,17.222221 19,16 19,14.777779 18.597985,13.542118 17.748047,12.585938 16.898109,11.629757 15.583331,11 14,11 Z"
     id="path4" />
  <path
     style="color:#000000;fill:#000000;-inkscape-stroke:none"
     d="m 4,11 a 1,1 0 0 0 -1,1 1,1 0 0 0 1,1 h 16 a 1,1 0 0 0 1,-1 1,1 0 0 0 -1,-1 z"
     id="line6" />
</svg>
