<?xml version="1.0" encoding="UTF-8" standalone="no"?>
<svg
   width="24"
   height="24"
   viewBox="0 0 24 24"
   fill="none"
   stroke="currentColor"
   stroke-width="2"
   stroke-linecap="round"
   stroke-linejoin="round"
   version="1.1"
   id="svg8"
   xmlns="http://www.w3.org/2000/svg"
   xmlns:svg="http://www.w3.org/2000/svg">
  <defs
     id="defs12" />
  <path
     style="color:#000000;fill:#000000;-inkscape-stroke:none"
     d="m 4,4 a 1,1 0 0 0 -0.7070312,0.2929687 1,1 0 0 0 0,1.4140625 l 8.0000002,7.9999998 a 1,1 0 0 0 1.414062,0 1,1 0 0 0 0,-1.414062 L 4.7070312,4.2929687 A 1,1 0 0 0 4,4 Z"
     id="path2" />
  <path
     style="color:#000000;fill:#000000;-inkscape-stroke:none"
     d="M 12,4 A 1,1 0 0 0 11.292969,4.2929687 L 3.2929688,12.292969 a 1,1 0 0 0 0,1.414062 1,1 0 0 0 1.4140624,0 L 12.707031,5.7070312 a 1,1 0 0 0 0,-1.4140625 A 1,1 0 0 0 12,4 Z"
     id="path4" />
  <path
     style="color:#000000;fill:#000000;-inkscape-stroke:none"
     d="m 18.453125,11.042969 c -0.685135,-0.115061 -1.408059,-0.0027 -2.044922,0.357422 a 1.0001,1.0001 0 0 0 -0.0039,0.002 c -0.624816,0.357037 -1.10424,0.924399 -1.345703,1.603515 a 1,1 0 0 0 0.605469,1.275391 1,1 0 0 0 1.277343,-0.605469 c 0.07823,-0.220019 0.239212,-0.412131 0.453125,-0.535156 0.459032,-0.258465 1.018259,-0.165601 1.369141,0.226563 C 18.914933,13.544526 19,13.772597 19,14 c 0,0.304097 -0.12069,0.493355 -0.478516,0.78125 -0.357825,0.287895 -0.915115,0.563439 -1.447265,0.814453 -0.598038,0.282094 -1.172829,0.636765 -1.560547,1.236328 C 15.125954,17.431595 15,18.152223 15,19 a 1.0001,1.0001 0 0 0 1,1 h 4 a 1,1 0 0 0 1,-1 1,1 0 0 0 -1,-1 h -2.822266 c 0.0073,-0.01297 0.0063,-0.07065 0.01367,-0.08203 0.09728,-0.150436 0.272414,-0.295766 0.734375,-0.513672 0.527849,-0.248985 1.220483,-0.559849 1.847656,-1.064453 C 20.400611,15.83524 21,15.025901 21,14 21,13.288866 20.744234,12.598836 20.277344,12.056641 a 1.0001,1.0001 0 0 0 -0.0078,-0.0078 c -0.4843,-0.548365 -1.131271,-0.890798 -1.816406,-1.005859 z"
     id="path6" />
</svg>
