<?xml version="1.0" encoding="UTF-8" standalone="no"?>
<svg
   width="24"
   height="24"
   viewBox="0 0 24 24"
   fill="none"
   stroke="currentColor"
   stroke-width="2"
   stroke-linecap="round"
   stroke-linejoin="round"
   version="1.1"
   id="svg12"
   xmlns="http://www.w3.org/2000/svg"
   xmlns:svg="http://www.w3.org/2000/svg">
  <defs
     id="defs16" />
  <path
     style="color:#000000;fill:#000000;-inkscape-stroke:none"
     d="m 7,12 a 1,1 0 0 0 -1,1 1,1 0 0 0 1,1 h 4 a 1,1 0 0 0 1,-1 1,1 0 0 0 -1,-1 z"
     id="path2" />
  <path
     style="color:#000000;fill:#000000;-inkscape-stroke:none"
     d="m 15,12 a 1,1 0 0 0 -1,1 1,1 0 0 0 1,1 h 2 a 1,1 0 0 0 1,-1 1,1 0 0 0 -1,-1 z"
     id="path4" />
  <path
     style="color:#000000;fill:#000000;-inkscape-stroke:none"
     d="M 7,8 A 1,1 0 0 0 6,9 1,1 0 0 0 7,10 H 9 A 1,1 0 0 0 10,9 1,1 0 0 0 9,8 Z"
     id="path6" />
  <path
     style="color:#000000;fill:#000000;-inkscape-stroke:none"
     d="m 13,8 a 1,1 0 0 0 -1,1 1,1 0 0 0 1,1 h 4 A 1,1 0 0 0 18,9 1,1 0 0 0 17,8 Z"
     id="path8" />
  <path
     style="color:#000000;fill:#000000;-inkscape-stroke:none"
     d="M 5,2 C 3.354992,2 2,3.354992 2,5 v 16 a 1.0001,1.0001 0 0 0 1.7070313,0.707031 L 7.4140625,18 H 19 c 1.645008,0 3,-1.354992 3,-3 V 5 C 22,3.354992 20.645008,2 19,2 Z m 0,2 h 14 c 0.564129,0 1,0.4358712 1,1 v 10 c 0,0.564129 -0.435871,1 -1,1 H 7 A 1.0001,1.0001 0 0 0 6.2929687,16.292969 L 4,18.585937 V 5 C 4,4.4358712 4.4358712,4 5,4 Z"
     id="path10" />
</svg>
