<?xml version="1.0" encoding="UTF-8" standalone="no"?>
<svg
   width="24"
   height="24"
   viewBox="0 0 24 24"
   fill="none"
   stroke="currentColor"
   stroke-width="2"
   stroke-linecap="round"
   stroke-linejoin="round"
   version="1.1"
   id="svg24"
   xmlns="http://www.w3.org/2000/svg"
   xmlns:svg="http://www.w3.org/2000/svg">
  <defs
     id="defs28" />
  <path
     style="color:#000000;fill:#000000;-inkscape-stroke:none"
     d="M 10,8 C 8.7500016,8 7.685225,8.5047564 7.0019531,9.2734375 6.3186813,10.042119 6,11.027779 6,12 6,12.972221 6.3186813,13.957881 7.0019531,14.726563 7.685225,15.495244 8.7500016,16 10,16 a 1,1 0 0 0 1,-1 1,1 0 0 0 -1,-1 C 9.2500013,14 8.8147736,13.754755 8.4980469,13.398438 8.1813201,13.04212 8,12.527777 8,12 8,11.472223 8.1813201,10.95788 8.4980469,10.601563 8.8147736,10.245245 9.2500013,10 10,10 A 1,1 0 0 0 11,9 1,1 0 0 0 10,8 Z"
     id="path2" />
  <path
     style="color:#000000;fill:#000000;-inkscape-stroke:none"
     d="m 2,11 a 1,1 0 0 0 -1,1 1,1 0 0 0 1,1 H 3 A 1,1 0 0 0 4,12 1,1 0 0 0 3,11 Z"
     id="path4" />
  <path
     style="color:#000000;fill:#000000;-inkscape-stroke:none"
     d="m 14,2 a 1,1 0 0 0 -1,1 v 18 a 1,1 0 0 0 1,1 1,1 0 0 0 1,-1 V 3 A 1,1 0 0 0 14,2 Z"
     id="path6" />
  <path
     style="color:#000000;fill:#000000;-inkscape-stroke:none"
     d="M 10,2 A 1,1 0 0 0 9,3 v 1 a 1,1 0 0 0 1,1 1,1 0 0 0 1,-1 V 3 A 1,1 0 0 0 10,2 Z"
     id="path8" />
  <path
     style="color:#000000;fill:#000000;-inkscape-stroke:none"
     d="m 10,19 a 1,1 0 0 0 -1,1 v 1 a 1,1 0 0 0 1,1 1,1 0 0 0 1,-1 v -1 a 1,1 0 0 0 -1,-1 z"
     id="path10" />
  <path
     style="color:#000000;fill:#000000;-inkscape-stroke:none"
     d="m 4.3398437,16.660156 a 1,1 0 0 0 -0.7070312,0.292969 l -0.6992187,0.699219 a 1,1 0 0 0 0,1.414062 1,1 0 0 0 1.4140624,0 L 5.046875,18.367187 a 1,1 0 0 0 0,-1.414062 1,1 0 0 0 -0.7070313,-0.292969 z"
     id="path12" />
  <path
     style="color:#000000;fill:#000000;-inkscape-stroke:none"
     d="m 2.9335938,4.9335937 a 1,1 0 0 0 0,1.4140625 L 3.6328125,7.046875 a 1,1 0 0 0 1.4140625,0 1,1 0 0 0 0,-1.4140625 L 4.3476562,4.9335937 a 1,1 0 0 0 -1.4140624,0 z"
     id="path14" />
  <path
     style="color:#000000;fill:#000000;-inkscape-stroke:none"
     d="m 14,11 a 1,1 0 0 0 -1,1 1,1 0 0 0 1,1 h 8 a 1,1 0 0 0 1,-1 1,1 0 0 0 -1,-1 z"
     id="path16" />
  <path
     style="color:#000000;fill:#000000;-inkscape-stroke:none"
     d="m 16.292969,3.2929688 -3,2.9999999 a 1,1 0 0 0 0,1.4140625 1,1 0 0 0 1.414062,0 l 3,-3 a 1,1 0 0 0 0,-1.4140624 1,1 0 0 0 -1.414062,0 z"
     id="path18" />
  <path
     style="color:#000000;fill:#000000;-inkscape-stroke:none"
     d="m 14,16 a 1,1 0 0 0 -0.707031,0.292969 1,1 0 0 0 0,1.414062 l 3,3 a 1,1 0 0 0 1.414062,0 1,1 0 0 0 0,-1.414062 l -3,-3 A 1,1 0 0 0 14,16 Z"
     id="path20" />
  <path
     style="color:#000000;fill:#000000;-inkscape-stroke:none"
     d="m 20.292969,8.2929688 -3,3.0000002 a 1.0001,1.0001 0 0 0 0,1.414062 l 3,3 a 1,1 0 0 0 1.414062,0 1,1 0 0 0 0,-1.414062 L 19.414062,12 21.707031,9.7070313 a 1,1 0 0 0 0,-1.4140625 1,1 0 0 0 -1.414062,0 z"
     id="path22" />
</svg>
