<?xml version="1.0" encoding="UTF-8" standalone="no"?>
<svg
   width="24"
   height="24"
   viewBox="0 0 24 24"
   fill="none"
   stroke="currentColor"
   stroke-width="2"
   stroke-linecap="round"
   stroke-linejoin="round"
   version="1.1"
   id="svg22"
   xmlns="http://www.w3.org/2000/svg"
   xmlns:svg="http://www.w3.org/2000/svg">
  <defs
     id="defs26" />
  <path
     style="color:#000000;fill:#000000;-inkscape-stroke:none"
     d="m 12,7 c -2.7495764,0 -5,2.2504236 -5,5 0,2.749576 2.2504236,5 5,5 2.749576,0 5,-2.250424 5,-5 0,-2.7495764 -2.250424,-5 -5,-5 z m 0,2 c 1.668697,0 3,1.331303 3,3 0,1.668697 -1.331303,3 -3,3 -1.668697,0 -3,-1.331303 -3,-3 0,-1.668697 1.331303,-3 3,-3 z"
     id="circle2" />
  <path
     style="color:#000000;fill:#000000;-inkscape-stroke:none"
     d="m 12,7 a 1,1 0 0 0 -0.707031,0.2929687 c -0.843443,0.8434424 -1.223882,1.9069068 -1.166016,2.8906253 0.05787,0.983718 0.508882,1.866303 1.166016,2.523437 0.657134,0.657134 1.539719,1.10815 2.523437,1.166016 0.983718,0.05787 2.047183,-0.322573 2.890625,-1.166016 a 1,1 0 0 0 0,-1.414062 1,1 0 0 0 -1.414062,0 c -0.489889,0.489889 -0.926429,0.609452 -1.359375,0.583984 -0.432947,-0.02547 -0.883698,-0.241119 -1.226563,-0.583984 -0.342865,-0.342865 -0.558517,-0.793616 -0.583984,-1.226563 -0.02547,-0.4329465 0.0941,-0.8694856 0.583984,-1.3593747 a 1,1 0 0 0 0,-1.4140626 A 1,1 0 0 0 12,7 Z"
     id="path4" />
  <path
     style="color:#000000;fill:#000000;-inkscape-stroke:none"
     d="m 12,1 a 1,1 0 0 0 -1,1 v 2 a 1,1 0 0 0 1,1 1,1 0 0 0 1,-1 V 2 A 1,1 0 0 0 12,1 Z"
     id="path6" />
  <path
     style="color:#000000;fill:#000000;-inkscape-stroke:none"
     d="m 12,19 a 1,1 0 0 0 -1,1 v 2 a 1,1 0 0 0 1,1 1,1 0 0 0 1,-1 v -2 a 1,1 0 0 0 -1,-1 z"
     id="path8" />
  <path
     style="color:#000000;fill:#000000;-inkscape-stroke:none"
     d="m 4.9296875,3.9296875 a 1,1 0 0 0 -0.7070313,0.2929687 1,1 0 0 0 0,1.4140625 L 5.6328125,7.046875 a 1,1 0 0 0 1.4140625,0 1,1 0 0 0 0,-1.4140625 L 5.6367187,4.2226562 A 1,1 0 0 0 4.9296875,3.9296875 Z"
     id="path10" />
  <path
     style="color:#000000;fill:#000000;-inkscape-stroke:none"
     d="m 16.953125,16.953125 a 1,1 0 0 0 0,1.414062 l 1.410156,1.410157 a 1,1 0 0 0 1.414063,0 1,1 0 0 0 0,-1.414063 l -1.410157,-1.410156 a 1,1 0 0 0 -1.414062,0 z"
     id="path12" />
  <path
     style="color:#000000;fill:#000000;-inkscape-stroke:none"
     d="m 2,11 a 1,1 0 0 0 -1,1 1,1 0 0 0 1,1 H 4 A 1,1 0 0 0 5,12 1,1 0 0 0 4,11 Z"
     id="path14" />
  <path
     style="color:#000000;fill:#000000;-inkscape-stroke:none"
     d="m 20,11 a 1,1 0 0 0 -1,1 1,1 0 0 0 1,1 h 2 a 1,1 0 0 0 1,-1 1,1 0 0 0 -1,-1 z"
     id="path16" />
  <path
     style="color:#000000;fill:#000000;-inkscape-stroke:none"
     d="m 6.3398437,16.660156 a 1,1 0 0 0 -0.7070312,0.292969 l -1.4101563,1.410156 a 1,1 0 0 0 0,1.414063 1,1 0 0 0 1.4140625,0 L 7.046875,18.367187 a 1,1 0 0 0 0,-1.414062 1,1 0 0 0 -0.7070313,-0.292969 z"
     id="path18" />
  <path
     style="color:#000000;fill:#000000;-inkscape-stroke:none"
     d="m 18.363281,4.2226562 -1.410156,1.4101563 a 1,1 0 0 0 0,1.4140625 1,1 0 0 0 1.414062,0 l 1.410157,-1.4101563 a 1,1 0 0 0 0,-1.4140625 1,1 0 0 0 -1.414063,0 z"
     id="path20" />
</svg>
