<?xml version="1.0" encoding="UTF-8" standalone="no"?>
<svg
   width="24"
   height="24"
   viewBox="0 0 24 24"
   fill="none"
   stroke="currentColor"
   stroke-width="2"
   stroke-linecap="round"
   stroke-linejoin="round"
   version="1.1"
   id="svg18"
   xmlns="http://www.w3.org/2000/svg"
   xmlns:svg="http://www.w3.org/2000/svg">
  <defs
     id="defs22" />
  <path
     style="color:#000000;fill:#000000;-inkscape-stroke:none"
     d="m 12,1 a 1,1 0 0 0 -1,1 v 8 a 1,1 0 0 0 1,1 1,1 0 0 0 1,-1 V 2 A 1,1 0 0 0 12,1 Z"
     id="path2" />
  <path
     style="color:#000000;fill:#000000;-inkscape-stroke:none"
     d="m 4.9296875,9.9296875 a 1,1 0 0 0 -0.7070313,0.2929685 1,1 0 0 0 0,1.414063 l 1.4101563,1.410156 a 1,1 0 0 0 1.4140625,0 1,1 0 0 0 0,-1.414062 L 5.6367187,10.222656 A 1,1 0 0 0 4.9296875,9.9296875 Z"
     id="path4" />
  <path
     style="color:#000000;fill:#000000;-inkscape-stroke:none"
     d="m 2,17 a 1,1 0 0 0 -1,1 1,1 0 0 0 1,1 H 4 A 1,1 0 0 0 5,18 1,1 0 0 0 4,17 Z"
     id="path6" />
  <path
     style="color:#000000;fill:#000000;-inkscape-stroke:none"
     d="m 20,17 a 1,1 0 0 0 -1,1 1,1 0 0 0 1,1 h 2 a 1,1 0 0 0 1,-1 1,1 0 0 0 -1,-1 z"
     id="path8" />
  <path
     style="color:#000000;fill:#000000;-inkscape-stroke:none"
     d="m 18.363281,10.222656 -1.410156,1.410157 a 1,1 0 0 0 0,1.414062 1,1 0 0 0 1.414062,0 l 1.410157,-1.410156 a 1,1 0 0 0 0,-1.414063 1,1 0 0 0 -1.414063,0 z"
     id="path10" />
  <path
     style="color:#000000;fill:#000000;-inkscape-stroke:none"
     d="m 2,21 a 1,1 0 0 0 -1,1 1,1 0 0 0 1,1 h 20 a 1,1 0 0 0 1,-1 1,1 0 0 0 -1,-1 z"
     id="path12" />
  <path
     style="color:#000000;fill:#000000;-inkscape-stroke:none"
     d="m 11.292969,1.2929687 -4.0000003,4 a 1,1 0 0 0 0,1.4140625 1,1 0 0 0 1.4140626,0 L 12,3.4140625 15.292969,6.7070312 a 1,1 0 0 0 1.414062,0 1,1 0 0 0 0,-1.4140625 l -4,-4 a 1.0001,1.0001 0 0 0 -1.414062,0 z"
     id="path14" />
  <path
     style="color:#000000;fill:#000000;-inkscape-stroke:none"
     d="M 12,13 C 10.777779,13 9.5421185,13.402015 8.5859375,14.251953 7.6297565,15.101891 7,16.416669 7,18 a 1,1 0 0 0 1,1 1,1 0 0 0 1,-1 C 9,16.916668 9.370245,16.23144 9.9140625,15.748047 10.45788,15.264654 11.222223,15 12,15 c 0.777777,0 1.54212,0.264654 2.085938,0.748047 C 14.629755,16.23144 15,16.916668 15,18 a 1,1 0 0 0 1,1 1,1 0 0 0 1,-1 C 17,16.416669 16.370243,15.101891 15.414063,14.251953 14.457882,13.402015 13.222221,13 12,13 Z"
     id="path16" />
</svg>
