<?xml version="1.0" encoding="UTF-8" standalone="no"?>
<svg
   width="24"
   height="24"
   viewBox="0 0 24 24"
   fill="none"
   stroke="currentColor"
   stroke-width="2"
   stroke-linecap="round"
   stroke-linejoin="round"
   version="1.1"
   id="svg8"
   xmlns="http://www.w3.org/2000/svg"
   xmlns:svg="http://www.w3.org/2000/svg">
  <defs
     id="defs12" />
  <path
     style="color:#000000;fill:#000000;-inkscape-stroke:none"
     d="m 12,10 a 1,1 0 0 0 -0.707031,0.292969 l -8.0000002,8 a 1,1 0 0 0 0,1.414062 1,1 0 0 0 1.4140624,0 l 7.9999998,-8 a 1,1 0 0 0 0,-1.414062 A 1,1 0 0 0 12,10 Z"
     id="path2" />
  <path
     style="color:#000000;fill:#000000;-inkscape-stroke:none"
     d="m 4,10 a 1,1 0 0 0 -0.7070312,0.292969 1,1 0 0 0 0,1.414062 l 8.0000002,8 a 1,1 0 0 0 1.414062,0 1,1 0 0 0 0,-1.414062 l -7.9999998,-8 A 1,1 0 0 0 4,10 Z"
     id="path4" />
  <path
     style="color:#000000;fill:#000000;-inkscape-stroke:none"
     d="M 18.449219,4.046875 C 17.764234,3.9327545 17.040183,4.0449449 16.404297,4.40625 15.782081,4.7603203 15.301598,5.3229255 15.058594,5.9960937 a 1,1 0 0 0 0.601562,1.28125 1,1 0 0 0 1.28125,-0.6015625 c 0.07899,-0.2188308 0.235342,-0.4073208 0.453125,-0.53125 C 17.852476,5.8854714 18.413865,5.9822956 18.763672,6.375 18.916288,6.5522941 19,6.7721829 19,7.0019531 19,7.307092 18.879379,7.495943 18.521484,7.7832031 18.163589,8.0704633 17.604868,8.3440005 17.072266,8.5957031 16.475481,8.8777376 15.901543,9.2328479 15.513672,9.8320313 15.1258,10.431215 15,11.151779 15,12 a 1.0001,1.0001 0 0 0 1,1 h 4 a 1,1 0 0 0 1,-1 1,1 0 0 0 -1,-1 h -2.822266 c 0.0073,-0.01304 0.0082,-0.07057 0.01563,-0.08203 0.09763,-0.150816 0.273161,-0.295707 0.734375,-0.513672 C 18.453131,10.156 19.145833,9.847489 19.773437,9.34375 20.401042,8.840011 21,8.028813 21,7.0019531 21,6.2898408 20.742173,5.5965701 20.269531,5.0546875 a 1.0001,1.0001 0 0 0 -0.0039,-0.00586 C 19.781223,4.5008796 19.134203,4.1609955 18.449219,4.046875 Z"
     id="path6" />
</svg>
