<?xml version="1.0" encoding="UTF-8" standalone="no"?>
<svg
   width="24"
   height="24"
   viewBox="0 0 24 24"
   fill="none"
   stroke="currentColor"
   stroke-width="2"
   stroke-linecap="round"
   stroke-linejoin="round"
   version="1.1"
   id="svg12"
   xmlns="http://www.w3.org/2000/svg"
   xmlns:svg="http://www.w3.org/2000/svg">
  <defs
     id="defs16" />
  <path
     style="color:#000000;fill:#000000;-inkscape-stroke:none"
     d="M 4,4 C 2.354992,4 1,5.354992 1,7 v 10 c 0,1.645008 1.354992,3 3,3 h 7 a 1,1 0 0 0 1,-1 1,1 0 0 0 -1,-1 H 4 C 3.4358712,18 3,17.564129 3,17 V 7 C 3,6.4358712 3.4358712,6 4,6 H 9 A 1,1 0 0 0 10,5 1,1 0 0 0 9,4 Z"
     id="path2" />
  <path
     style="color:#000000;fill:#000000;-inkscape-stroke:none"
     d="m 13,4 a 1,1 0 0 0 -1,1 1,1 0 0 0 1,1 h 7 c 0.564129,0 1,0.4358712 1,1 v 10 c 0,0.564129 -0.435871,1 -1,1 h -5 a 1,1 0 0 0 -1,1 1,1 0 0 0 1,1 h 5 c 1.645008,0 3,-1.354992 3,-3 V 7 C 23,5.354992 21.645008,4 20,4 Z"
     id="path4" />
  <path
     style="color:#000000;fill:#000000;-inkscape-stroke:none"
     d="m 12,8 c -2.1972922,0 -4,1.8027078 -4,4 0,2.197292 1.8027078,4 4,4 2.197292,0 4,-1.802708 4,-4 0,-2.1972922 -1.802708,-4 -4,-4 z m 0,2 c 1.116413,0 2,0.883587 2,2 0,1.116413 -0.883587,2 -2,2 -1.116413,0 -2,-0.883587 -2,-2 0,-1.116413 0.883587,-2 2,-2 z"
     id="circle6" />
  <path
     style="color:#000000;fill:#000000;-inkscape-stroke:none"
     d="m 17.292969,15.292969 -3,3 a 1.0001,1.0001 0 0 0 0,1.414062 l 3,3 a 1,1 0 0 0 1.414062,0 1,1 0 0 0 0,-1.414062 L 16.414062,19 18.707031,16.707031 a 1,1 0 0 0 0,-1.414062 1,1 0 0 0 -1.414062,0 z"
     id="path8" />
  <path
     style="color:#000000;fill:#000000;-inkscape-stroke:none"
     d="m 6,1 a 1,1 0 0 0 -0.7070313,0.2929687 1,1 0 0 0 0,1.4140626 L 7.5859375,5 5.2929687,7.2929687 a 1,1 0 0 0 0,1.4140626 1,1 0 0 0 1.4140625,0 L 9.7070313,5.7070312 a 1.0001,1.0001 0 0 0 0,-1.4140625 l -3.0000001,-3 A 1,1 0 0 0 6,1 Z"
     id="path10" />
</svg>
