<?xml version="1.0" encoding="UTF-8" standalone="no"?>
<svg
   width="24"
   height="24"
   viewBox="0 0 24 24"
   fill="none"
   stroke="currentColor"
   stroke-width="2"
   stroke-linecap="round"
   stroke-linejoin="round"
   version="1.1"
   id="svg10"
   xmlns="http://www.w3.org/2000/svg"
   xmlns:svg="http://www.w3.org/2000/svg">
  <defs
     id="defs14" />
  <path
     style="color:#000000;fill:#000000;-inkscape-stroke:none"
     d="M 3,2 A 1.0001,1.0001 0 0 0 2,3 V 6 A 1.0001,1.0001 0 0 0 2.2929688,6.7070312 L 13.792969,18.207031 a 1,1 0 0 0 1.414062,0 1,1 0 0 0 0,-1.414062 L 4,5.5859375 V 4 H 5.5859375 L 16.792969,15.207031 a 1,1 0 0 0 1.414062,0 1,1 0 0 0 0,-1.414062 L 6.7070312,2.2929688 A 1.0001,1.0001 0 0 0 6,2 Z"
     id="polyline2" />
  <path
     style="color:#000000;fill:#000000;-inkscape-stroke:none"
     d="m 18.292969,12.292969 -6,6 a 1,1 0 0 0 0,1.414062 1,1 0 0 0 1.414062,0 l 6,-6 a 1,1 0 0 0 0,-1.414062 1,1 0 0 0 -1.414062,0 z"
     id="line4" />
  <path
     style="color:#000000;fill:#000000;-inkscape-stroke:none"
     d="m 15.292969,15.292969 a 1,1 0 0 0 0,1.414062 l 4,4 a 1,1 0 0 0 1.414062,0 1,1 0 0 0 0,-1.414062 l -4,-4 a 1,1 0 0 0 -1.414062,0 z"
     id="line6" />
  <path
     style="color:#000000;fill:#000000;-inkscape-stroke:none"
     d="m 20.292969,18.292969 -2,2 a 1,1 0 0 0 0,1.414062 1,1 0 0 0 1.414062,0 l 2,-2 a 1,1 0 0 0 0,-1.414062 1,1 0 0 0 -1.414062,0 z"
     id="line8" />
</svg>
