<?xml version="1.0" encoding="UTF-8" standalone="no"?>
<svg
   width="24"
   height="24"
   viewBox="0 0 24 24"
   fill="none"
   stroke="currentColor"
   stroke-width="2"
   stroke-linecap="round"
   stroke-linejoin="round"
   version="1.1"
   id="svg14"
   xmlns="http://www.w3.org/2000/svg"
   xmlns:svg="http://www.w3.org/2000/svg">
  <defs
     id="defs18" />
  <path
     style="color:#000000;fill:#000000;-inkscape-stroke:none"
     d="m 17.292969,1.2929687 a 1,1 0 0 0 0,1.4140626 l 4,3.9999999 a 1,1 0 0 0 1.414062,0 1,1 0 0 0 0,-1.4140625 l -4,-4 a 1,1 0 0 0 -1.414062,0 z"
     id="path2" />
  <path
     style="color:#000000;fill:#000000;-inkscape-stroke:none"
     d="m 19.292969,3.2929688 -3,2.9999999 a 1,1 0 0 0 0,1.4140625 1,1 0 0 0 1.414062,0 l 3,-3 a 1,1 0 0 0 0,-1.4140624 1,1 0 0 0 -1.414062,0 z"
     id="path4" />
  <path
     style="color:#000000;fill:#000000;-inkscape-stroke:none"
     d="M 15,4 A 1,1 0 0 0 14.292969,4.2929687 L 4.03125,14.556641 c -1.4106583,1.269592 -1.3926145,3.496057 -0.039063,4.849609 l 0.5644531,0.5625 c 1.2695925,1.410658 3.4960574,1.392615 4.8496094,0.03906 L 19.707031,9.7070313 a 1,1 0 0 0 0,-1.4140625 1,1 0 0 0 -1.414062,0 L 7.9921875,18.59375 c -0.646446,0.646446 -1.4188131,0.626449 -1.9492188,0.03711 A 1.0001,1.0001 0 0 0 6.0078125,18.59375 L 5.40625,17.992187 C 4.759804,17.345742 4.779801,16.573374 5.3691406,16.042969 A 1.0001,1.0001 0 0 0 5.40625,16.007812 L 15.707031,5.7070312 a 1,1 0 0 0 0,-1.4140625 A 1,1 0 0 0 15,4 Z"
     id="path6" />
  <path
     style="color:#000000;fill:#000000;-inkscape-stroke:none"
     d="m 9,10 a 1,1 0 0 0 -0.7070312,0.292969 1,1 0 0 0 0,1.414062 l 4.0000002,4 a 1,1 0 0 0 1.414062,0 1,1 0 0 0 0,-1.414062 l -3.9999997,-4 A 1,1 0 0 0 9,10 Z"
     id="path8" />
  <path
     style="color:#000000;fill:#000000;-inkscape-stroke:none"
     d="m 5,18 a 1,1 0 0 0 -0.7070313,0.292969 l -3,3 a 1,1 0 0 0 0,1.414062 1,1 0 0 0 1.4140626,0 l 2.9999999,-3 a 1,1 0 0 0 0,-1.414062 A 1,1 0 0 0 5,18 Z"
     id="path10" />
  <path
     style="color:#000000;fill:#000000;-inkscape-stroke:none"
     d="m 14,3 a 1,1 0 0 0 -0.707031,0.2929688 1,1 0 0 0 0,1.4140624 l 6,5.9999998 a 1,1 0 0 0 1.414062,0 1,1 0 0 0 0,-1.4140622 l -6,-6 A 1,1 0 0 0 14,3 Z"
     id="path12" />
</svg>
