<?xml version="1.0" encoding="UTF-8" standalone="no"?>
<svg
   width="24"
   height="24"
   viewBox="0 0 24 24"
   fill="none"
   stroke="currentColor"
   stroke-width="2"
   stroke-linecap="round"
   stroke-linejoin="round"
   version="1.1"
   id="svg4"
   xmlns="http://www.w3.org/2000/svg"
   xmlns:svg="http://www.w3.org/2000/svg">
  <defs
     id="defs8" />
  <path
     style="color:#000000;fill:#000000;-inkscape-stroke:none"
     d="M 5,2 C 3.354992,2 2,3.354992 2,5 v 4 10 c 0,1.645008 1.354992,3 3,3 h 4 10 c 1.645008,0 3,-1.354992 3,-3 V 9 5 C 22,3.354992 20.645008,2 19,2 H 9 Z M 5,4 H 8 V 8 H 4 V 5 C 4,4.4358712 4.4358712,4 5,4 Z m 5,0 h 9 c 0.564129,0 1,0.4358712 1,1 V 8 H 10 Z M 4,10 H 8 V 20 H 5 C 4.4358712,20 4,19.564129 4,19 Z m 6,0 h 10 v 9 c 0,0.564129 -0.435871,1 -1,1 h -9 z"
     id="path2" />
</svg>
