<?xml version="1.0" encoding="UTF-8" standalone="no"?>
<svg
   width="24"
   height="24"
   viewBox="0 0 24 24"
   fill="none"
   stroke="currentColor"
   stroke-width="2"
   stroke-linecap="round"
   stroke-linejoin="round"
   version="1.1"
   id="svg10"
   xmlns="http://www.w3.org/2000/svg"
   xmlns:svg="http://www.w3.org/2000/svg">
  <defs
     id="defs14" />
  <path
     style="color:#000000;fill:#000000;-inkscape-stroke:none"
     d="M 7,1 C 3.6981394,1 1,3.6981394 1,7 c 0,3.301861 2.6981394,6 6,6 3.301861,0 6,-2.698139 6,-6 C 13,3.6981394 10.301861,1 7,1 Z m 0,2 c 2.2209814,0 4,1.7790186 4,4 0,2.2209814 -1.7790186,4 -4,4 C 4.7790186,11 3,9.2209814 3,7 3,4.7790186 4.7790186,3 7,3 Z"
     id="circle2" />
  <path
     style="color:#000000;fill:#000000;-inkscape-stroke:none"
     d="m 17,11 c -3.301861,0 -6,2.698139 -6,6 0,3.301861 2.698139,6 6,6 3.301861,0 6,-2.698139 6,-6 0,-3.301861 -2.698139,-6 -6,-6 z m 0,2 c 2.220981,0 4,1.779019 4,4 0,2.220981 -1.779019,4 -4,4 -2.220981,0 -4,-1.779019 -4,-4 0,-2.220981 1.779019,-4 4,-4 z"
     id="circle4" />
  <path
     style="color:#000000;fill:#000000;-inkscape-stroke:none"
     d="m 12,16 a 1,1 0 0 0 -1,1 1,1 0 0 0 1,1 h 10 a 1,1 0 0 0 1,-1 1,1 0 0 0 -1,-1 z"
     id="path6" />
  <path
     style="color:#000000;fill:#000000;-inkscape-stroke:none"
     d="M 10.539063,2.4609375 A 1,1 0 0 0 9.8320313,2.7519531 L 2.7519531,9.8320313 a 1,1 0 0 0 0,1.4160157 1,1 0 0 0 1.4160156,0 L 11.248047,4.1679687 a 1,1 0 0 0 0,-1.4160156 1,1 0 0 0 -0.708984,-0.2910156 z"
     id="path8" />
</svg>
