<?xml version="1.0" encoding="UTF-8" standalone="no"?>
<svg
   width="24"
   height="24"
   viewBox="0 0 24 24"
   fill="none"
   stroke="currentColor"
   stroke-width="2"
   stroke-linecap="round"
   stroke-linejoin="round"
   version="1.1"
   id="svg6"
   xmlns="http://www.w3.org/2000/svg"
   xmlns:svg="http://www.w3.org/2000/svg">
  <defs
     id="defs10" />
  <path
     style="color:#000000;fill:#000000;-inkscape-stroke:none"
     d="M 2,1 A 1.0001,1.0001 0 0 0 1,2 v 10 a 1.0001,1.0001 0 0 0 0.2929687,0.707031 l 9.2890623,9.291016 c 1.326149,1.326149 3.509789,1.326149 4.835938,0 l 6.580078,-6.580078 c 1.326149,-1.326149 1.326149,-3.509789 0,-4.835938 L 12.707031,1.2929687 A 1.0001,1.0001 0 0 0 12,1 Z m 1,2 h 8.585938 l 8.996093,8.998047 c 0.553849,0.553849 0.553849,1.450057 0,2.003906 l -6.580078,6.580078 c -0.553849,0.553849 -1.450057,0.553849 -2.003906,0 L 3,11.585938 Z"
     id="path2" />
  <path
     style="color:#000000;fill:#000000;-inkscape-stroke:none"
     d="M 7,6 A 1,1 0 0 0 6,7 1,1 0 0 0 7,8 h 0.00977 a 1,1 0 0 0 1,-1 1,1 0 0 0 -1,-1 z"
     id="path4" />
</svg>
