<?xml version="1.0" encoding="UTF-8" standalone="no"?>
<svg
   width="24"
   height="24"
   viewBox="0 0 24 24"
   fill="none"
   stroke="currentColor"
   stroke-width="2"
   stroke-linecap="round"
   stroke-linejoin="round"
   version="1.1"
   id="svg8"
   xmlns="http://www.w3.org/2000/svg"
   xmlns:svg="http://www.w3.org/2000/svg">
  <defs
     id="defs12" />
  <path
     style="color:#000000;fill:#000000;-inkscape-stroke:none"
     d="M 2,4 A 1.0001,1.0001 0 0 0 1,5 v 7 a 1.0001,1.0001 0 0 0 0.2929687,0.707031 l 6.2890625,6.291016 c 1.3261492,1.326149 3.5097888,1.326149 4.8359378,0 l 3.580078,-3.580078 c 1.326149,-1.326149 1.326149,-3.509789 0,-4.835938 L 9.7070313,4.2929687 A 1.0001,1.0001 0 0 0 9,4 Z m 1,2 h 5.5859375 l 5.9960935,5.998047 c 0.553849,0.553849 0.553849,1.450057 0,2.003906 l -3.580078,3.580078 c -0.553849,0.553849 -1.4500572,0.553849 -2.0039061,0 L 3,11.585938 Z"
     id="path2" />
  <path
     style="color:#000000;fill:#000000;-inkscape-stroke:none"
     d="M 6,8 A 1,1 0 0 0 5,9 v 0.00977 A 1,1 0 0 0 6,10.009766 1,1 0 0 0 7,9.0097656 V 9 A 1,1 0 0 0 6,8 Z"
     id="path4" />
  <path
     style="color:#000000;fill:#000000;-inkscape-stroke:none"
     d="m 15,4 a 1,1 0 0 0 -0.707031,0.2929687 1,1 0 0 0 0,1.4140625 l 6.300781,6.3007818 c 0.557508,0.555575 0.557508,1.428799 0,1.984375 l -4.300781,4.300781 a 1,1 0 0 0 0,1.414062 1,1 0 0 0 1.414062,0 l 4.298828,-4.298828 0.002,-0.002 c 1.322211,-1.31981 1.322211,-3.49269 0,-4.8125 l -0.002,-0.002 -6.298828,-6.2988283 A 1,1 0 0 0 15,4 Z"
     id="path6" />
</svg>
