<?xml version="1.0" encoding="UTF-8" standalone="no"?>
<svg
   width="24"
   height="24"
   viewBox="0 0 24 24"
   fill="none"
   stroke="currentColor"
   stroke-width="2"
   stroke-linecap="round"
   stroke-linejoin="round"
   version="1.1"
   id="svg12"
   xmlns="http://www.w3.org/2000/svg"
   xmlns:svg="http://www.w3.org/2000/svg">
  <defs
     id="defs16" />
  <path
     style="color:#000000;fill:#000000;-inkscape-stroke:none"
     d="M 10.269531,3.0371094 A 1,1 0 0 0 9.5097656,3.1289063 1,1 0 0 0 9.1289063,4.4902344 L 18.128906,20.490234 a 1,1 0 0 0 1.361328,0.38086 1,1 0 0 0 0.38086,-1.361328 l -9,-16.0000004 A 1,1 0 0 0 10.269531,3.0371094 Z"
     id="path2" />
  <path
     style="color:#000000;fill:#000000;-inkscape-stroke:none"
     d="M 13.730469,3.0371094 A 1,1 0 0 0 13.128906,3.5097656 L 4.1289062,19.509766 a 1,1 0 0 0 0.3808594,1.361328 1,1 0 0 0 1.3613281,-0.38086 L 14.871094,4.4902344 a 1,1 0 0 0 -0.38086,-1.3613281 1,1 0 0 0 -0.759765,-0.091797 z"
     id="path4" />
  <path
     style="color:#000000;fill:#000000;-inkscape-stroke:none"
     d="m 3,19 a 1,1 0 0 0 -1,1 1,1 0 0 0 1,1 h 18 a 1,1 0 0 0 1,-1 1,1 0 0 0 -1,-1 z"
     id="path6" />
  <path
     style="color:#000000;fill:#000000;-inkscape-stroke:none"
     d="m 12.513672,14.142578 a 1,1 0 0 0 -1.371094,0.34375 l -2.9999999,5 a 1,1 0 0 0 0.34375,1.371094 1,1 0 0 0 1.3710938,-0.34375 l 3.0000001,-5 a 1,1 0 0 0 -0.34375,-1.371094 z"
     id="path8" />
  <path
     style="color:#000000;fill:#000000;-inkscape-stroke:none"
     d="m 11.486328,14.142578 a 1,1 0 0 0 -0.34375,1.371094 l 3,5 a 1,1 0 0 0 1.371094,0.34375 1,1 0 0 0 0.34375,-1.371094 l -3,-5 a 1,1 0 0 0 -1.371094,-0.34375 z"
     id="path10" />
</svg>
