<?xml version="1.0" encoding="UTF-8" standalone="no"?>
<svg
   width="24"
   height="24"
   viewBox="0 0 24 24"
   fill="none"
   stroke="currentColor"
   stroke-width="2"
   stroke-linecap="round"
   stroke-linejoin="round"
   version="1.1"
   id="svg6"
   xmlns="http://www.w3.org/2000/svg"
   xmlns:svg="http://www.w3.org/2000/svg">
  <defs
     id="defs10" />
  <path
     style="color:#000000;fill:#000000;-inkscape-stroke:none"
     d="m 4,4 a 1,1 0 0 0 -0.7070312,0.2929687 1,1 0 0 0 0,1.4140625 L 8.5859375,11 3.2929688,16.292969 a 1,1 0 0 0 0,1.414062 1,1 0 0 0 1.4140624,0 l 5.9999998,-6 a 1.0001,1.0001 0 0 0 0,-1.414062 L 4.7070312,4.2929687 A 1,1 0 0 0 4,4 Z"
     id="polyline2" />
  <path
     style="color:#000000;fill:#000000;-inkscape-stroke:none"
     d="m 12,18 a 1,1 0 0 0 -1,1 1,1 0 0 0 1,1 h 8 a 1,1 0 0 0 1,-1 1,1 0 0 0 -1,-1 z"
     id="line4" />
</svg>
