<?xml version="1.0" encoding="UTF-8" standalone="no"?>
<svg
   width="24"
   height="24"
   viewBox="0 0 24 24"
   fill="none"
   stroke="currentColor"
   stroke-width="2"
   stroke-linecap="round"
   stroke-linejoin="round"
   version="1.1"
   id="svg4"
   xmlns="http://www.w3.org/2000/svg"
   xmlns:svg="http://www.w3.org/2000/svg">
  <defs
     id="defs8" />
  <path
     style="color:#000000;fill:#000000;-inkscape-stroke:none"
     d="M 12,1 C 11.277779,1 10.542119,1.2353477 9.9609375,1.7519531 9.3797562,2.2685585 9,3.0833344 9,4 V 14.089844 C 7.2866648,15.399017 6.6853324,17.491688 7.1699219,19.298828 7.7040191,21.290593 9.5130224,23.003906 12,23.003906 c 2.486978,0 4.295981,-1.713313 4.830078,-3.705078 C 17.314668,17.491688 16.713335,15.399017 15,14.089844 V 4 C 15,3.0833344 14.620244,2.2685585 14.039063,1.7519531 13.457881,1.2353477 12.722221,1 12,1 Z m 0,2 c 0.277778,0 0.54212,0.097987 0.710938,0.2480469 C 12.879755,3.3981072 13,3.5833341 13,4 v 10.539063 a 1.0001,1.0001 0 0 0 0.5,0.867187 c 1.390521,0.802818 1.727793,2.144809 1.398438,3.373047 -0.329356,1.228238 -1.294072,2.224609 -2.898438,2.224609 -1.604366,0 -2.5690821,-0.996371 -2.8984375,-2.224609 C 8.7722071,17.551059 9.109479,16.209068 10.5,15.40625 A 1.0001,1.0001 0 0 0 11,14.539063 V 4 C 11,3.5833341 11.120245,3.3981072 11.289063,3.2480469 11.45788,3.0979866 11.722222,3 12,3 Z"
     id="path2" />
</svg>
