<?xml version="1.0" encoding="UTF-8" standalone="no"?>
<svg
   width="24"
   height="24"
   viewBox="0 0 24 24"
   fill="none"
   stroke="currentColor"
   stroke-width="2"
   stroke-linecap="round"
   stroke-linejoin="round"
   version="1.1"
   id="svg14"
   xmlns="http://www.w3.org/2000/svg"
   xmlns:svg="http://www.w3.org/2000/svg">
  <defs
     id="defs18" />
  <path
     style="color:#000000;fill:#000000;-inkscape-stroke:none"
     d="M 12.015625,8 C 9.4868498,7.9592517 7.641368,9.693991 7.1035156,11.710938 6.5656632,13.727884 7.3023311,16.151197 9.515625,17.375 A 1,1 0 0 0 10.875,16.984375 1,1 0 0 0 10.484375,15.625 C 9.0516729,14.832812 8.7048872,13.472396 9.0371094,12.226563 9.3693315,10.980729 10.347457,9.9736229 11.984375,10 A 1,1 0 0 0 13,9.015625 1,1 0 0 0 12.015625,8 Z"
     id="path2" />
  <path
     style="color:#000000;fill:#000000;-inkscape-stroke:none"
     d="m 12,2 a 1,1 0 0 0 -1,1 v 2 a 1,1 0 0 0 1,1 1,1 0 0 0 1,-1 V 3 A 1,1 0 0 0 12,2 Z"
     id="path4" />
  <path
     style="color:#000000;fill:#000000;-inkscape-stroke:none"
     d="M 6.5996094,17.400391 A 1,1 0 0 0 5.8925781,17.693359 L 4.4921875,19.09375 a 1,1 0 0 0 0,1.414062 1,1 0 0 0 1.4140625,0 l 1.4003906,-1.40039 a 1,1 0 0 0 0,-1.414063 1,1 0 0 0 -0.7070312,-0.292968 z"
     id="path6" />
  <path
     style="color:#000000;fill:#000000;-inkscape-stroke:none"
     d="M 18,1 C 17.277779,1 16.542119,1.2353477 15.960938,1.7519531 15.379756,2.2685585 15,3.0833344 15,4 v 10.089844 c -1.713335,1.309173 -2.314668,3.401844 -1.830078,5.208984 0.534097,1.991765 2.3431,3.705078 4.830078,3.705078 2.486978,0 4.295981,-1.713313 4.830078,-3.705078 C 23.314668,17.491688 22.713335,15.399017 21,14.089844 V 4 C 21,3.0833344 20.620244,2.2685585 20.039062,1.7519531 19.457881,1.2353477 18.722221,1 18,1 Z m 0,2 c 0.277778,0 0.54212,0.097987 0.710937,0.2480469 C 18.879755,3.3981072 19,3.5833341 19,4 v 10.539063 a 1.0001,1.0001 0 0 0 0.5,0.867187 c 1.390521,0.802818 1.727793,2.144809 1.398437,3.373047 -0.329355,1.228238 -1.294071,2.224609 -2.898437,2.224609 -1.604366,0 -2.569082,-0.996371 -2.898437,-2.224609 C 14.772207,17.551059 15.109479,16.209068 16.5,15.40625 A 1.0001,1.0001 0 0 0 17,14.539063 V 4 C 17,3.5833341 17.120245,3.3981072 17.289062,3.2480469 17.45788,3.0979866 17.722222,3 18,3 Z"
     id="path8" />
  <path
     style="color:#000000;fill:#000000;-inkscape-stroke:none"
     d="m 2,12 a 1,1 0 0 0 -1,1 1,1 0 0 0 1,1 H 4 A 1,1 0 0 0 5,13 1,1 0 0 0 4,12 Z"
     id="path10" />
  <path
     style="color:#000000;fill:#000000;-inkscape-stroke:none"
     d="m 4.9296875,4.9296875 a 1,1 0 0 0 -0.7070313,0.2929687 1,1 0 0 0 0,1.4140625 L 5.6328125,8.046875 a 1,1 0 0 0 1.4140625,0 1,1 0 0 0 0,-1.4140625 L 5.6367187,5.2226562 A 1,1 0 0 0 4.9296875,4.9296875 Z"
     id="path12" />
</svg>
