<?xml version="1.0" encoding="UTF-8" standalone="no"?>
<svg
   width="24"
   height="24"
   viewBox="0 0 24 24"
   fill="none"
   stroke="currentColor"
   stroke-width="2"
   stroke-linecap="round"
   stroke-linejoin="round"
   version="1.1"
   id="svg6"
   xmlns="http://www.w3.org/2000/svg"
   xmlns:svg="http://www.w3.org/2000/svg">
  <defs
     id="defs10" />
  <path
     style="color:#000000;fill:#000000;-inkscape-stroke:none"
     d="m 7,9 a 1,1 0 0 0 -1,1 v 12 a 1,1 0 0 0 1,1 1,1 0 0 0 1,-1 V 10 A 1,1 0 0 0 7,9 Z"
     id="path2" />
  <path
     style="color:#000000;fill:#000000;-inkscape-stroke:none"
     d="m 12.011719,1 a 1.0001,1.0001 0 0 0 -0.90625,0.5527344 L 7.65625,8.4414063 a 1.0001,1.0001 0 0 0 -0.00195,0.00391 C 7.4844839,8.787049 7.1413678,8.9997975 6.7597656,9 H 4 C 2.354992,9 1,10.354992 1,12 v 8 c 0,1.645008 1.354992,3 3,3 h 13.5 c 1.328888,0 2.508771,-0.884424 2.880859,-2.160156 l 2.330078,-8 C 23.26347,10.945446 21.803409,9 19.830078,9 h -4.55664 L 15.970703,6.1191406 C 16.602948,3.5583093 14.649241,1.0326609 12.011719,1 Z m 0.482422,2.2480469 c 1.059496,0.313814 1.818904,1.2432912 1.535156,2.3925781 a 1.0001,1.0001 0 0 0 -0.002,0.00391 l -1,4.1191407 A 1.0001,1.0001 0 0 0 14,11 h 5.830078 c 0.693333,0 1.153118,0.613698 0.958984,1.279297 a 1.0001,1.0001 0 0 0 0,0.002 l -2.330078,8 C 18.332403,20.710557 17.947867,21 17.5,21 H 4 C 3.4358712,21 3,20.564129 3,20 v -8 c 0,-0.564129 0.4358712,-1 1,-1 h 2.7597656 c 1.1353291,-6.02e-4 2.1774699,-0.64601 2.6835938,-1.6621094 l 0.00195,-0.00195 z"
     id="path4" />
</svg>
