<?xml version="1.0" encoding="UTF-8" standalone="no"?>
<svg
   width="24"
   height="24"
   viewBox="0 0 24 24"
   fill="none"
   stroke="currentColor"
   stroke-width="2"
   stroke-linecap="round"
   stroke-linejoin="round"
   version="1.1"
   id="svg6"
   xmlns="http://www.w3.org/2000/svg"
   xmlns:svg="http://www.w3.org/2000/svg">
  <defs
     id="defs10" />
  <path
     style="color:#000000;fill:#000000;-inkscape-stroke:none"
     d="m 17,1 a 1,1 0 0 0 -1,1 v 12 a 1,1 0 0 0 1,1 1,1 0 0 0 1,-1 V 2 A 1,1 0 0 0 17,1 Z"
     id="path2" />
  <path
     style="color:#000000;fill:#000000;-inkscape-stroke:none"
     d="M 6.5,1 C 5.1711124,1 3.9912291,1.8844242 3.6191406,3.1601563 L 1.2890625,11.160156 C 0.73652972,13.054554 2.1965905,15 4.1699219,15 H 8.7265625 L 8.0292969,17.880859 C 7.397052,20.441691 9.3507589,22.967339 11.988281,23 a 1.0001,1.0001 0 0 0 0.90625,-0.552734 l 3.449219,-6.888672 a 1.0001,1.0001 0 0 0 0.002,-0.0039 C 16.515516,15.212951 16.858632,15.000202 17.240234,15 H 20 c 1.645008,0 3,-1.354992 3,-3 V 4 C 23,2.354992 21.645008,1 20,1 Z m 0,2 H 20 c 0.564129,0 1,0.4358712 1,1 v 8 c 0,0.564129 -0.435871,1 -1,1 h -2.759766 c -1.136284,6.03e-4 -2.1799,0.646485 -2.685546,1.664063 l -3.048829,6.08789 C 10.446363,20.438139 9.6869551,19.508662 9.9707031,18.359375 a 1.0001,1.0001 0 0 0 0.00195,-0.0039 L 10.972656,14.236328 A 1.0001,1.0001 0 0 0 10,13 H 4.1699219 C 3.4765892,13 3.0168044,12.386302 3.2109375,11.720703 a 1.0001,1.0001 0 0 0 0,-0.002 l 2.3300781,-8 C 5.6675971,3.2894433 6.0521334,3 6.5,3 Z"
     id="path4" />
</svg>
