<?xml version="1.0" encoding="UTF-8" standalone="no"?>
<svg
   width="24"
   height="24"
   viewBox="0 0 24 24"
   fill="none"
   stroke="currentColor"
   stroke-width="2"
   stroke-linecap="round"
   stroke-linejoin="round"
   version="1.1"
   id="svg10"
   xmlns="http://www.w3.org/2000/svg"
   xmlns:svg="http://www.w3.org/2000/svg">
  <defs
     id="defs14" />
  <path
     style="color:#000000;fill:#000000;-inkscape-stroke:none"
     d="M 4,4 C 2.354992,4 1,5.354992 1,7 v 2 a 1.0001,1.0001 0 0 0 1,1 c 0.7499987,0 1.1852264,0.245245 1.5019531,0.601563 C 3.8186799,10.95788 4,11.472223 4,12 4,12.527777 3.8186799,13.04212 3.5019531,13.398438 3.1852264,13.754755 2.7499987,14 2,14 a 1.0001,1.0001 0 0 0 -1,1 v 2 c 0,1.645008 1.354992,3 3,3 h 16 c 1.645008,0 3,-1.354992 3,-3 V 15 A 1.0001,1.0001 0 0 0 22,14 C 21.250001,14 20.814774,13.754755 20.498047,13.398438 20.18132,13.04212 20,12.527777 20,12 20,11.472223 20.18132,10.95788 20.498047,10.601563 20.814774,10.245245 21.250001,10 22,10 A 1.0001,1.0001 0 0 0 23,9 V 7 C 23,5.354992 21.645008,4 20,4 Z m 0,2 h 16 c 0.564129,0 1,0.4358712 1,1 V 8.203125 C 20.203965,8.3972803 19.48555,8.7293906 19.001953,9.2734375 18.318681,10.042119 18,11.027779 18,12 c 0,0.972221 0.318681,1.957881 1.001953,2.726563 C 19.48555,15.270609 20.203965,15.60272 21,15.796875 V 17 c 0,0.564129 -0.435871,1 -1,1 H 4 C 3.4358712,18 3,17.564129 3,17 V 15.796875 C 3.7960354,15.60272 4.5144499,15.270609 4.9980469,14.726563 5.6813187,13.957881 6,12.972221 6,12 6,11.027779 5.6813187,10.042119 4.9980469,9.2734375 4.5144499,8.7293906 3.7960354,8.3972803 3,8.203125 V 7 C 3,6.4358712 3.4358712,6 4,6 Z"
     id="path2" />
  <path
     style="color:#000000;fill:#000000;-inkscape-stroke:none"
     d="m 13,4 a 1,1 0 0 0 -1,1 v 2 a 1,1 0 0 0 1,1 1,1 0 0 0 1,-1 V 5 A 1,1 0 0 0 13,4 Z"
     id="path4" />
  <path
     style="color:#000000;fill:#000000;-inkscape-stroke:none"
     d="m 13,16 a 1,1 0 0 0 -1,1 v 2 a 1,1 0 0 0 1,1 1,1 0 0 0 1,-1 v -2 a 1,1 0 0 0 -1,-1 z"
     id="path6" />
  <path
     style="color:#000000;fill:#000000;-inkscape-stroke:none"
     d="m 13,10 a 1,1 0 0 0 -1,1 v 2 a 1,1 0 0 0 1,1 1,1 0 0 0 1,-1 v -2 a 1,1 0 0 0 -1,-1 z"
     id="path8" />
</svg>
