<?xml version="1.0" encoding="UTF-8" standalone="no"?>
<svg
   width="24"
   height="24"
   viewBox="0 0 24 24"
   fill="none"
   stroke="currentColor"
   stroke-width="2"
   stroke-linecap="round"
   stroke-linejoin="round"
   version="1.1"
   id="svg8"
   xmlns="http://www.w3.org/2000/svg"
   xmlns:svg="http://www.w3.org/2000/svg">
  <defs
     id="defs12" />
  <path
     style="color:#000000;fill:#000000;-inkscape-stroke:none"
     d="m 10,1 a 1,1 0 0 0 -1,1 1,1 0 0 0 1,1 h 4 A 1,1 0 0 0 15,2 1,1 0 0 0 14,1 Z"
     id="line2" />
  <path
     style="color:#000000;fill:#000000;-inkscape-stroke:none"
     d="m 15,10 a 1,1 0 0 0 -0.707031,0.292969 l -3,3 a 1,1 0 0 0 0,1.414062 1,1 0 0 0 1.414062,0 l 3,-3 a 1,1 0 0 0 0,-1.414062 A 1,1 0 0 0 15,10 Z"
     id="line4" />
  <path
     style="color:#000000;fill:#000000;-inkscape-stroke:none"
     d="m 12,5 c -4.9587132,0 -9,4.0412868 -9,9 0,4.958713 4.0412868,9 9,9 4.958713,0 9,-4.041287 9,-9 0,-4.9587132 -4.041287,-9 -9,-9 z m 0,2 c 3.877834,0 7,3.122166 7,7 0,3.877834 -3.122166,7 -7,7 C 8.122166,21 5,17.877834 5,14 5,10.122166 8.122166,7 12,7 Z"
     id="circle6" />
</svg>
