<?xml version="1.0" encoding="UTF-8" standalone="no"?>
<svg
   width="24"
   height="24"
   viewBox="0 0 24 24"
   fill="none"
   stroke="currentColor"
   stroke-width="2"
   stroke-linecap="round"
   stroke-linejoin="round"
   version="1.1"
   id="svg12"
   xmlns="http://www.w3.org/2000/svg"
   xmlns:svg="http://www.w3.org/2000/svg">
  <defs
     id="defs16" />
  <path
     style="color:#000000;fill:#000000;-inkscape-stroke:none"
     d="m 10,1 a 1,1 0 0 0 -1,1 1,1 0 0 0 1,1 h 4 A 1,1 0 0 0 15,2 1,1 0 0 0 14,1 Z"
     id="path2" />
  <path
     style="color:#000000;fill:#000000;-inkscape-stroke:none"
     d="m 4.21875,10.076172 a 1,1 0 0 0 -0.5429687,0.539062 c -1.3924439,3.347147 -0.6359314,7.212277 1.9140624,9.789063 a 1.0001,1.0001 0 0 0 0.00586,0.0059 c 2.5767857,2.549994 6.4419159,3.306507 9.7890629,1.914063 a 1,1 0 0 0 0.539062,-1.308594 1,1 0 0 0 -1.308594,-0.539063 C 12.008975,21.56079 9.0155312,20.975896 7.0078125,18.992187 5.0241038,16.984469 4.4392099,13.991025 5.5234375,11.384766 a 1,1 0 0 0 -0.5390625,-1.308594 1,1 0 0 0 -0.765625,0 z"
     id="path4" />
  <path
     style="color:#000000;fill:#000000;-inkscape-stroke:none"
     d="M 12.830078,5.0175781 C 10.767515,4.8173292 8.6360781,5.3250849 6.8300781,6.578125 a 1,1 0 0 0 -0.2519531,1.3925781 1,1 0 0 0 1.3925781,0.25 c 2.8193949,-1.9561545 6.6212669,-1.5869648 9.0117189,0.875 a 1.0001,1.0001 0 0 0 0.0078,0.00977 c 2.385969,2.3999562 2.717917,6.1431522 0.789063,8.9238282 a 1,1 0 0 0 0.25,1.392578 1,1 0 0 0 1.392578,-0.251953 C 21.892867,15.607688 21.465609,10.772531 18.410156,7.6972656 16.879851,6.1246767 14.889488,5.2175208 12.830078,5.0175781 Z"
     id="path6" />
  <path
     style="color:#000000;fill:#000000;-inkscape-stroke:none"
     d="m 2,1 a 1,1 0 0 0 -0.7070313,0.2929687 1,1 0 0 0 0,1.4140626 L 21.292969,22.707031 a 1,1 0 0 0 1.414062,0 1,1 0 0 0 0,-1.414062 L 2.7070313,1.2929687 A 1,1 0 0 0 2,1 Z"
     id="path8" />
  <path
     style="color:#000000;fill:#000000;-inkscape-stroke:none"
     d="m 12,9 a 1,1 0 0 0 -1,1 v 2 a 1,1 0 0 0 1,1 1,1 0 0 0 1,-1 V 10 A 1,1 0 0 0 12,9 Z"
     id="path10" />
</svg>
