<?xml version="1.0" encoding="UTF-8" standalone="no"?>
<svg
   width="24"
   height="24"
   viewBox="0 0 24 24"
   fill="none"
   stroke="currentColor"
   stroke-width="2"
   stroke-linecap="round"
   stroke-linejoin="round"
   version="1.1"
   id="svg10"
   xmlns="http://www.w3.org/2000/svg"
   xmlns:svg="http://www.w3.org/2000/svg">
  <defs
     id="defs14" />
  <path
     style="color:#000000;fill:#000000;-inkscape-stroke:none"
     d="m 10,1 a 1,1 0 0 0 -1,1 1,1 0 0 0 1,1 h 4 A 1,1 0 0 0 15,2 1,1 0 0 0 14,1 Z"
     id="path2" />
  <path
     style="color:#000000;fill:#000000;-inkscape-stroke:none"
     d="m 12,9 a 1,1 0 0 0 -1,1 v 4 a 1,1 0 0 0 1,1 1,1 0 0 0 1,-1 V 10 A 1,1 0 0 0 12,9 Z"
     id="path4" />
  <path
     style="color:#000000;fill:#000000;-inkscape-stroke:none"
     d="M 12.001953,5 C 7.4501901,4.9673056 3.5767346,8.358193 3.0078125,12.875 A 1,1 0 0 0 3.875,13.992188 1,1 0 0 0 4.9921875,13.125 C 5.4366727,9.5961271 8.4355411,6.9721172 11.992188,7 a 1.0001,1.0001 0 0 0 0.0059,0 c 4.926121,0.00524 8.283139,4.87152 6.539062,9.478516 -1.743525,4.605537 -7.477156,6.027764 -11.1718746,2.773437 L 7.3613281,19.25 4.6640625,16.853516 a 1,1 0 0 0 -1.4121094,0.08203 1,1 0 0 0 0.083984,1.412109 l 2.6992187,2.400391 a 1.0001,1.0001 0 0 0 0.00391,0.002 C 10.73352,24.890115 18.192127,23.039334 20.408203,17.185547 22.623569,11.333637 18.263859,5.0107008 12.007813,5 Z"
     id="path6" />
  <path
     style="color:#000000;fill:#000000;-inkscape-stroke:none"
     d="m 4,16 a 1.0001,1.0001 0 0 0 -1,1 v 5 a 1,1 0 0 0 1,1 1,1 0 0 0 1,-1 v -4 h 4 a 1,1 0 0 0 1,-1 1,1 0 0 0 -1,-1 z"
     id="path8" />
</svg>
