<?xml version="1.0" encoding="UTF-8" standalone="no"?>
<svg
   width="24"
   height="24"
   viewBox="0 0 24 24"
   fill="none"
   stroke="currentColor"
   stroke-width="2"
   stroke-linecap="round"
   stroke-linejoin="round"
   version="1.1"
   id="svg6"
   xmlns="http://www.w3.org/2000/svg"
   xmlns:svg="http://www.w3.org/2000/svg">
  <defs
     id="defs10" />
  <path
     style="color:#000000;fill:#000000;-inkscape-stroke:none"
     d="m 8,5 c -3.8606989,0 -7,3.1393011 -7,7 0,3.860699 3.1393011,7 7,7 h 8 c 3.860699,0 7,-3.139301 7,-7 0,-3.8606989 -3.139301,-7 -7,-7 z m 0,2 h 8 c 2.787294,0 5,2.2127056 5,5 0,2.787294 -2.212706,5 -5,5 H 8 C 5.2127056,17 3,14.787294 3,12 3,9.2127056 5.2127056,7 8,7 Z"
     id="rect2" />
  <path
     style="color:#000000;fill:#000000;-inkscape-stroke:none"
     d="m 8,9 c -1.645008,0 -3,1.354992 -3,3 0,1.645008 1.354992,3 3,3 1.645008,0 3,-1.354992 3,-3 C 11,10.354992 9.645008,9 8,9 Z m 0,2 c 0.5641288,0 1,0.435871 1,1 0,0.564129 -0.4358712,1 -1,1 -0.5641288,0 -1,-0.435871 -1,-1 0,-0.564129 0.4358712,-1 1,-1 z"
     id="circle4" />
</svg>
