<?xml version="1.0" encoding="UTF-8" standalone="no"?>
<svg
   width="24"
   height="24"
   viewBox="0 0 24 24"
   fill="none"
   stroke="currentColor"
   stroke-width="2"
   stroke-linecap="round"
   stroke-linejoin="round"
   version="1.1"
   id="svg16"
   xmlns="http://www.w3.org/2000/svg"
   xmlns:svg="http://www.w3.org/2000/svg">
  <defs
     id="defs20" />
  <path
     style="color:#000000;fill:#000000;-inkscape-stroke:none"
     d="M 4,5 A 1.0001,1.0001 0 0 0 3.0390625,6.2753906 l 1.7988281,6.2714844 v -0.0078 C 5.0761489,13.389009 5.8536921,13.988628 6.7363281,14 A 1.0001,1.0001 0 0 0 6.75,14 h 10.5 a 1.0001,1.0001 0 0 0 0.002,0 c 0.889902,-0.0025 1.681604,-0.604082 1.921875,-1.460937 a 1.0001,1.0001 0 0 0 -0.002,-0.0293 L 20.960937,6.2753906 A 1.0001,1.0001 0 0 0 20,5 Z m 1.328125,2 h 13.34375 l -1.433594,4.994141 A 1.0001,1.0001 0 0 0 17.240234,12 H 6.7636719 a 1.0001,1.0001 0 0 0 -0.00195,-0.0059 z"
     id="path2" />
  <path
     style="color:#000000;fill:#000000;-inkscape-stroke:none"
     d="m 8,12 a 1,1 0 0 0 -1,1 v 9 a 1,1 0 0 0 1,1 1,1 0 0 0 1,-1 V 13 A 1,1 0 0 0 8,12 Z"
     id="path4" />
  <path
     style="color:#000000;fill:#000000;-inkscape-stroke:none"
     d="m 16,12 a 1,1 0 0 0 -1,1 v 9 a 1,1 0 0 0 1,1 1,1 0 0 0 1,-1 v -9 a 1,1 0 0 0 -1,-1 z"
     id="path6" />
  <path
     style="color:#000000;fill:#000000;-inkscape-stroke:none"
     d="M 8.859375,5.0097656 A 1,1 0 0 0 8.0097656,6.140625 l 1,7 a 1,1 0 0 0 1.1308594,0.849609 1,1 0 0 0 0.849609,-1.130859 l -0.9999996,-7 A 1,1 0 0 0 8.859375,5.0097656 Z"
     id="path8" />
  <path
     style="color:#000000;fill:#000000;-inkscape-stroke:none"
     d="M 15.140625,5.0097656 A 1,1 0 0 0 14.009766,5.859375 l -1,7 a 1,1 0 0 0 0.849609,1.130859 1,1 0 0 0 1.130859,-0.849609 l 1,-7 A 1,1 0 0 0 15.140625,5.0097656 Z"
     id="path10" />
  <path
     style="color:#000000;fill:#000000;-inkscape-stroke:none"
     d="m 12,1 a 1,1 0 0 0 -1,1 v 4 a 1,1 0 0 0 1,1 1,1 0 0 0 1,-1 V 2 A 1,1 0 0 0 12,1 Z"
     id="path12" />
  <path
     style="color:#000000;fill:#000000;-inkscape-stroke:none"
     d="m 11,1 a 1,1 0 0 0 -1,1 1,1 0 0 0 1,1 h 2 A 1,1 0 0 0 14,2 1,1 0 0 0 13,1 Z"
     id="path14" />
</svg>
