<?xml version="1.0" encoding="UTF-8" standalone="no"?>
<svg
   width="24"
   height="24"
   viewBox="0 0 24 24"
   fill="none"
   stroke="currentColor"
   stroke-width="2"
   stroke-linecap="round"
   stroke-linejoin="round"
   version="1.1"
   id="svg8"
   xmlns="http://www.w3.org/2000/svg"
   xmlns:svg="http://www.w3.org/2000/svg">
  <defs
     id="defs12" />
  <path
     style="color:#000000;fill:#000000;-inkscape-stroke:none"
     d="M 4,7 C 2.9092983,7 2,7.9092983 2,9 v 10 c 0,1.090702 0.9092983,2 2,2 h 16 c 1.090702,0 2,-0.909298 2,-2 V 9 C 22,7.9092983 21.090702,7 20,7 Z M 4,9 H 20 V 19 H 4 Z"
     id="rect2" />
  <path
     style="color:#000000;fill:#000000;-inkscape-stroke:none"
     d="M 6,3 C 4.9072762,3 4,3.9072762 4,5 V 8 A 1,1 0 0 0 5,9 1,1 0 0 0 6,8 V 5 h 3 v 3 a 1,1 0 0 0 1,1 1,1 0 0 0 1,-1 V 5 C 11,4.4777783 10.808671,3.9453895 10.431641,3.5683594 10.05461,3.1913292 9.5222217,3 9,3 Z"
     id="path4" />
  <path
     style="color:#000000;fill:#000000;-inkscape-stroke:none"
     d="m 15,3 c -1.092724,0 -2,0.9072762 -2,2 v 3 a 1,1 0 0 0 1,1 1,1 0 0 0 1,-1 V 5 h 3 v 3 a 1,1 0 0 0 1,1 1,1 0 0 0 1,-1 V 5 C 20,4.4777783 19.808671,3.9453895 19.431641,3.5683594 19.05461,3.1913292 18.522222,3 18,3 Z"
     id="path6" />
</svg>
