<?xml version="1.0" encoding="UTF-8" standalone="no"?>
<svg
   width="24"
   height="24"
   viewBox="0 0 24 24"
   fill="none"
   stroke="currentColor"
   stroke-width="2"
   stroke-linecap="round"
   stroke-linejoin="round"
   version="1.1"
   id="svg16"
   xmlns="http://www.w3.org/2000/svg"
   xmlns:svg="http://www.w3.org/2000/svg">
  <defs
     id="defs20" />
  <path
     style="color:#000000;fill:#000000;-inkscape-stroke:none"
     d="M 6,2 C 4.3552989,2 3,3.3552989 3,5 v 12 c 0,1.644701 1.3552989,3 3,3 h 12 c 1.644701,0 3,-1.355299 3,-3 V 5 C 21,3.3552989 19.644701,2 18,2 Z m 0,2 h 12 c 0.571297,0 1,0.4287033 1,1 v 12 c 0,0.571297 -0.428703,1 -1,1 H 6 C 5.4287033,18 5,17.571297 5,17 V 5 C 5,4.4287033 5.4287033,4 6,4 Z"
     id="rect2" />
  <path
     style="color:#000000;fill:#000000;-inkscape-stroke:none"
     d="m 4,10 a 1,1 0 0 0 -1,1 1,1 0 0 0 1,1 h 16 a 1,1 0 0 0 1,-1 1,1 0 0 0 -1,-1 z"
     id="path4" />
  <path
     style="color:#000000;fill:#000000;-inkscape-stroke:none"
     d="m 12,2 a 1,1 0 0 0 -1,1 v 8 a 1,1 0 0 0 1,1 1,1 0 0 0 1,-1 V 3 A 1,1 0 0 0 12,2 Z"
     id="path6" />
  <path
     style="color:#000000;fill:#000000;-inkscape-stroke:none"
     d="m 8.5546875,18.167969 a 1,1 0 0 0 -1.3867188,0.277343 l -2,3 a 1,1 0 0 0 0.2773438,1.386719 1,1 0 0 0 1.3867187,-0.277344 l 2.0000001,-3 A 1,1 0 0 0 8.5546875,18.167969 Z"
     id="path8" />
  <path
     style="color:#000000;fill:#000000;-inkscape-stroke:none"
     d="m 15.445313,18.167969 a 1,1 0 0 0 -0.277344,1.386718 l 2,3 a 1,1 0 0 0 1.386718,0.277344 1,1 0 0 0 0.277344,-1.386719 l -2,-3 a 1,1 0 0 0 -1.386718,-0.277343 z"
     id="path10" />
  <path
     style="color:#000000;fill:#000000;-inkscape-stroke:none"
     d="M 8,14 A 1,1 0 0 0 7,15 1,1 0 0 0 8,16 1,1 0 0 0 9,15 1,1 0 0 0 8,14 Z"
     id="path12" />
  <path
     style="color:#000000;fill:#000000;-inkscape-stroke:none"
     d="m 16,14 a 1,1 0 0 0 -1,1 1,1 0 0 0 1,1 1,1 0 0 0 1,-1 1,1 0 0 0 -1,-1 z"
     id="path14" />
</svg>
