<?xml version="1.0" encoding="UTF-8" standalone="no"?>
<svg
   width="24"
   height="24"
   viewBox="0 0 24 24"
   fill="none"
   stroke="currentColor"
   stroke-width="2"
   stroke-linecap="round"
   stroke-linejoin="round"
   version="1.1"
   id="svg8"
   xmlns="http://www.w3.org/2000/svg"
   xmlns:svg="http://www.w3.org/2000/svg">
  <defs
     id="defs12" />
  <path
     style="color:#000000;fill:#000000;-inkscape-stroke:none"
     d="M 3,5 A 1,1 0 0 0 2,6 1,1 0 0 0 3,7 H 21 A 1,1 0 0 0 22,6 1,1 0 0 0 21,5 Z"
     id="path2" />
  <path
     style="color:#000000;fill:#000000;-inkscape-stroke:none"
     d="M 5,5 A 1,1 0 0 0 4,6 v 14 c 0,0.833332 0.3858344,1.549897 0.9179687,2.082031 C 5.4501031,22.614166 6.1666675,23 7,23 h 10 c 0.833332,0 1.549897,-0.385834 2.082031,-0.917969 C 19.614166,21.549897 20,20.833332 20,20 V 6 A 1,1 0 0 0 19,5 1,1 0 0 0 18,6 v 14 c 0,0.166667 -0.114166,0.450104 -0.332031,0.667969 C 17.450104,20.885834 17.166667,21 17,21 H 7 C 6.8333335,21 6.5498962,20.885834 6.3320312,20.667969 6.1141663,20.450104 6,20.166667 6,20 V 6 A 1,1 0 0 0 5,5 Z"
     id="path4" />
  <path
     style="color:#000000;fill:#000000;-inkscape-stroke:none"
     d="M 10,1 C 9.1666675,1 8.4501031,1.3858344 7.9179687,1.9179687 7.3858344,2.4501031 7,3.1666675 7,4 V 6 A 1,1 0 0 0 8,7 1,1 0 0 0 9,6 V 4 C 9,3.8333335 9.1141663,3.5498962 9.3320313,3.3320313 9.5498962,3.1141663 9.8333335,3 10,3 h 4 c 0.166667,0 0.450104,0.1141663 0.667969,0.3320313 C 14.885834,3.5498962 15,3.8333335 15,4 v 2 a 1,1 0 0 0 1,1 1,1 0 0 0 1,-1 V 4 C 17,3.1666675 16.614166,2.4501031 16.082031,1.9179687 15.549897,1.3858344 14.833332,1 14,1 Z"
     id="path6" />
</svg>
