<?xml version="1.0" encoding="UTF-8" standalone="no"?>
<svg
   width="24"
   height="24"
   viewBox="0 0 24 24"
   fill="none"
   stroke="currentColor"
   stroke-width="2"
   stroke-linecap="round"
   stroke-linejoin="round"
   version="1.1"
   id="svg6"
   xmlns="http://www.w3.org/2000/svg"
   xmlns:svg="http://www.w3.org/2000/svg">
  <defs
     id="defs10" />
  <path
     style="color:#000000;fill:#000000;-inkscape-stroke:none"
     d="M 12,2 C 10.101204,2 8.5726678,3.3725533 8.171875,5.15625 6.7009772,5.267927 5.2946322,5.8967019 4.5371094,7.1953125 a 1.0001,1.0001 0 0 0 -0.017578,0.03125 C 3.7854109,8.5899288 3.98501,10.118922 4.6484375,11.427734 3.2801234,12.716426 2.6788308,14.654522 3.2441406,16.494141 a 1.0001,1.0001 0 0 0 0.00195,0.0059 c 0.6516707,2.07224 2.5777247,3.491438 4.7499999,3.5 A 1.0001,1.0001 0 0 0 8,20 h 8 a 1.0001,1.0001 0 0 0 0.0039,0 c 2.172275,-0.0086 4.098329,-1.42776 4.75,-3.5 a 1.0001,1.0001 0 0 0 0.002,-0.0059 c 0.566698,-1.844135 -0.03836,-3.787732 -1.414062,-5.076172 0.67307,-1.330955 0.757181,-2.8558603 0.166015,-4.136719 a 1.0001,1.0001 0 0 0 -0.04492,-0.085937 C 18.722637,5.9263055 17.323791,5.2392436 15.828125,5.1542969 15.426632,3.3715291 13.898133,2 12,2 Z m 0,2 c 1.116413,0 2,0.883587 2,2 a 1.0001,1.0001 0 0 0 1.208984,0.9785156 c 0.88698,-0.1900671 1.997762,0.3834252 2.494141,1.1933594 0.444601,1.0035231 0.421659,2.125237 -0.242188,2.855469 a 1.0001,1.0001 0 0 0 0.183594,1.503906 c 1.103872,0.738189 1.587482,2.101529 1.199219,3.371094 C 18.450387,17.149101 17.307238,17.993177 16,18 H 8.0039063 8 C 6.6927617,17.993177 5.5496133,17.149101 5.15625,15.902344 4.7679869,14.632779 5.2515967,13.269439 6.3554687,12.53125 a 1.0001,1.0001 0 0 0 0.21875,-1.464844 C 5.9329889,10.282681 5.7879633,9.1172354 6.2773437,8.1914063 6.7546217,7.3904784 7.8877522,6.8514311 8.859375,6.9902344 A 1.0001,1.0001 0 0 0 10,6 c 0,-1.116413 0.883587,-2 2,-2 z"
     id="path2" />
  <path
     style="color:#000000;fill:#000000;-inkscape-stroke:none"
     d="m 12,18 a 1,1 0 0 0 -1,1 v 3 a 1,1 0 0 0 1,1 1,1 0 0 0 1,-1 v -3 a 1,1 0 0 0 -1,-1 z"
     id="path4" />
</svg>
