<?xml version="1.0" encoding="UTF-8" standalone="no"?>
<svg
   width="24"
   height="24"
   viewBox="0 0 24 24"
   fill="none"
   stroke="currentColor"
   stroke-width="2"
   stroke-linecap="round"
   stroke-linejoin="round"
   version="1.1"
   id="svg10"
   xmlns="http://www.w3.org/2000/svg"
   xmlns:svg="http://www.w3.org/2000/svg">
  <defs
     id="defs14" />
  <path
     style="color:#000000;fill:#000000;-inkscape-stroke:none"
     d="M 7,6 C 6.0277788,6 5.0421186,6.3186813 4.2734375,7.0019531 3.5925362,7.6071984 3.1793591,8.5419751 3.0800781,9.609375 1.5594954,10.502052 0.8729802,12.17266 1.1328125,13.679688 1.4252566,15.375864 2.873978,16.947736 4.9746094,17 A 1.0001,1.0001 0 0 0 5,17 H 8.8925781 C 11.024573,17.016488 12.529415,15.45499 12.853516,13.746094 13.141864,12.225709 12.464423,10.518826 10.921875,9.6113281 10.823078,8.5428902 10.407971,7.6076491 9.7265625,7.0019531 8.9578814,6.3186813 7.9722212,6 7,6 Z M 7,8 C 7.5277773,8 8.0421198,8.1813201 8.3984375,8.4980469 8.7547552,8.8147736 9,9.2500013 9,10 v 0.199219 a 1.0001,1.0001 0 0 0 0.640625,0.933594 c 1.126363,0.433152 1.418348,1.342283 1.248047,2.240234 C 10.718371,14.270998 10.114946,15.009333 8.9082031,15 a 1.0001,1.0001 0 0 0 -0.00781,0 h -3.875 C 3.8418512,14.970553 3.256826,14.229044 3.1035156,13.339844 2.9502052,12.450643 3.252077,11.556894 4.3574219,11.132813 A 1.0001,1.0001 0 0 0 5,10.199219 V 10 C 5,9.2500013 5.2452448,8.8147736 5.6015625,8.4980469 5.9578802,8.1813201 6.4722227,8 7,8 Z"
     id="path2" />
  <path
     style="color:#000000;fill:#000000;-inkscape-stroke:none"
     d="m 7,15 a 1,1 0 0 0 -1,1 v 6 a 1,1 0 0 0 1,1 1,1 0 0 0 1,-1 V 16 A 1,1 0 0 0 7,15 Z"
     id="path4" />
  <path
     style="color:#000000;fill:#000000;-inkscape-stroke:none"
     d="m 13,18 a 1,1 0 0 0 -1,1 v 3 a 1,1 0 0 0 1,1 1,1 0 0 0 1,-1 v -3 a 1,1 0 0 0 -1,-1 z"
     id="path6" />
  <path
     style="color:#000000;fill:#000000;-inkscape-stroke:none"
     d="m 13,2 a 1.0001,1.0001 0 0 0 -0.730469,0.3183594 l -1.40039,1.5 a 1,1 0 0 0 0.04883,1.4121093 1,1 0 0 0 1.414062,-0.048828 l 0.666016,-0.7148437 3.269531,3.5136718 a 1.0001,1.0001 0 0 0 0.02148,0.023438 A 1.0001,1.0001 0 0 0 16.199219,8 H 16 a 1.0001,1.0001 0 0 0 -0.740234,1.671875 l 3,3.300781 A 1.0001,1.0001 0 0 0 18.285156,13 H 18 a 1.0001,1.0001 0 0 0 -0.740234,1.671875 l 3,3.300781 A 1.0001,1.0001 0 0 0 20.285156,18 H 12 a 1,1 0 0 0 -1,1 1,1 0 0 0 1,1 h 8.300781 a 1.0001,1.0001 0 0 0 0.01367,0 c 0.83893,-0.01178 1.54076,-0.559367 1.820313,-1.238281 0.279552,-0.678914 0.167469,-1.563016 -0.419922,-2.16211 L 19.664062,14.34375 c 0.177968,-0.182813 0.37701,-0.354489 0.470704,-0.582031 0.279552,-0.678914 0.167469,-1.563016 -0.419922,-2.16211 L 17.658203,9.3378906 C 17.813778,9.1794087 18.008287,9.0495291 18.099609,8.8554688 18.42512,8.1637593 18.332214,7.2223728 17.710937,6.5957031 L 13.732422,2.3183594 A 1.0001,1.0001 0 0 0 13,2 Z"
     id="path8" />
</svg>
