<?xml version="1.0" encoding="UTF-8" standalone="no"?>
<svg
   width="24"
   height="24"
   viewBox="0 0 24 24"
   fill="none"
   stroke="currentColor"
   stroke-width="2"
   stroke-linecap="round"
   stroke-linejoin="round"
   version="1.1"
   id="svg6"
   xmlns="http://www.w3.org/2000/svg"
   xmlns:svg="http://www.w3.org/2000/svg">
  <defs
     id="defs10" />
  <path
     style="color:#000000;fill:#000000;-inkscape-stroke:none"
     d="M 12,2 A 1.0001,1.0001 0 0 0 11.267578,2.3183594 L 7.2890625,6.5957031 C 6.6677863,7.2223728 6.5748803,8.1637593 6.9003906,8.8554688 6.9917132,9.0495291 7.1862222,9.1794087 7.3417969,9.3378906 L 5.2851562,11.599609 c -0.5873915,0.599094 -0.6994746,1.483196 -0.4199218,2.16211 0.093694,0.227542 0.2927354,0.399218 0.4707031,0.582031 L 3.2851563,16.599609 C 2.6977647,17.198703 2.5856816,18.082805 2.8652344,18.761719 3.1447871,19.440633 3.8466172,19.988215 4.6855469,20 a 1.0001,1.0001 0 0 0 0.013672,0 H 19.300781 a 1.0001,1.0001 0 0 0 0.01367,0 c 0.83893,-0.01178 1.54076,-0.559367 1.820313,-1.238281 0.279552,-0.678914 0.167469,-1.563016 -0.419922,-2.16211 L 18.664062,14.34375 c 0.177968,-0.182813 0.37701,-0.354489 0.470704,-0.582031 0.279552,-0.678914 0.167469,-1.563016 -0.419922,-2.16211 L 16.658203,9.3378906 C 16.813778,9.1794087 17.008287,9.0495291 17.099609,8.8554688 17.42512,8.1637593 17.332214,7.2223728 16.710937,6.5957031 L 12.732422,2.3183594 A 1.0001,1.0001 0 0 0 12,2 Z m 0,2.46875 3.267578,3.5117187 a 1.0001,1.0001 0 0 0 0.02149,0.023438 A 1.0001,1.0001 0 0 0 15.199219,8 H 15 a 1.0001,1.0001 0 0 0 -0.740234,1.671875 l 3,3.300781 A 1.0001,1.0001 0 0 0 17.285156,13 H 17 a 1.0001,1.0001 0 0 0 -0.740234,1.671875 l 3,3.300781 A 1.0001,1.0001 0 0 0 19.285156,18 H 4.7148437 a 1.0001,1.0001 0 0 0 0.025391,-0.02734 l 3,-3.300781 A 1.0001,1.0001 0 0 0 7,13 H 6.7148437 a 1.0001,1.0001 0 0 0 0.025391,-0.02734 l 3,-3.300781 A 1.0001,1.0001 0 0 0 9,8 H 8.8007813 a 1.0001,1.0001 0 0 0 -0.089844,0.00391 1.0001,1.0001 0 0 0 0.021484,-0.023438 z"
     id="path2" />
  <path
     style="color:#000000;fill:#000000;-inkscape-stroke:none"
     d="m 12,18 a 1,1 0 0 0 -1,1 v 3 a 1,1 0 0 0 1,1 1,1 0 0 0 1,-1 v -3 a 1,1 0 0 0 -1,-1 z"
     id="path4" />
</svg>
