<?xml version="1.0" encoding="UTF-8" standalone="no"?>
<svg
   width="24"
   height="24"
   viewBox="0 0 24 24"
   fill="none"
   stroke="currentColor"
   stroke-width="2"
   stroke-linecap="round"
   stroke-linejoin="round"
   version="1.1"
   id="svg6"
   xmlns="http://www.w3.org/2000/svg"
   xmlns:svg="http://www.w3.org/2000/svg">
  <defs
     id="defs10" />
  <path
     style="color:#000000;fill:#000000;-inkscape-stroke:none"
     d="M 21.292969,6.2929687 13.5,14.085938 9.2070313,9.7929688 a 1.0001,1.0001 0 0 0 -1.4140626,0 l -6.5,6.5000002 a 1,1 0 0 0 0,1.414062 1,1 0 0 0 1.4140626,0 L 8.5,11.914063 l 4.292969,4.292968 a 1.0001,1.0001 0 0 0 1.414062,0 l 8.5,-8.4999998 a 1,1 0 0 0 0,-1.4140625 1,1 0 0 0 -1.414062,0 z"
     id="polyline2" />
  <path
     style="color:#000000;fill:#000000;-inkscape-stroke:none"
     d="m 16,6 a 1,1 0 0 0 -1,1 1,1 0 0 0 1,1 h 5 v 5 a 1,1 0 0 0 1,1 1,1 0 0 0 1,-1 V 7 A 1.0001,1.0001 0 0 0 22,6 Z"
     id="polyline4" />
</svg>
