<?xml version="1.0" encoding="UTF-8" standalone="no"?>
<svg
   width="24"
   height="24"
   viewBox="0 0 24 24"
   fill="none"
   stroke="currentColor"
   stroke-width="2"
   stroke-linecap="round"
   stroke-linejoin="round"
   version="1.1"
   id="svg4"
   xmlns="http://www.w3.org/2000/svg"
   xmlns:svg="http://www.w3.org/2000/svg">
  <defs
     id="defs8" />
  <path
     style="color:#000000;fill:#000000;-inkscape-stroke:none"
     d="m 11.990234,2.0195313 c -1.023851,0 -2.0470794,0.4960996 -2.6093746,1.4882812 v -0.00391 l -8,13.9999997 0.00391,-0.0039 c -1.13626628,1.967859 0.3527434,4.520447 2.625,4.5 H 20 a 1.0001,1.0001 0 0 0 0.002,0 c 2.258505,-0.0023 3.721452,-2.539384 2.595703,-4.496094 L 14.599609,3.5078125 C 14.037314,2.5156309 13.014085,2.0195313 11.990234,2.0195313 Z m 0,1.9335937 c 0.33308,0 0.665301,0.1793834 0.869141,0.5390625 a 1.0001,1.0001 0 0 0 0.002,0.00391 l 8,14.0000003 a 1.0001,1.0001 0 0 0 0.002,0.0039 c 0.408672,0.70784 -0.04789,1.499162 -0.865234,1.5 H 4 a 1.0001,1.0001 0 0 0 -0.00977,0 c -0.8229172,0.0074 -1.2865086,-0.787323 -0.875,-1.5 a 1.0001,1.0001 0 0 0 0.00391,-0.0039 L 11.119141,4.4960937 a 1.0001,1.0001 0 0 0 0,-0.00391 C 11.32298,4.1325084 11.657155,3.953125 11.990234,3.953125 Z"
     id="path2" />
</svg>
