<?xml version="1.0" encoding="UTF-8" standalone="no"?>
<svg
   width="24"
   height="24"
   viewBox="0 0 24 24"
   fill="none"
   stroke="currentColor"
   stroke-width="2"
   stroke-linecap="round"
   stroke-linejoin="round"
   version="1.1"
   id="svg12"
   xmlns="http://www.w3.org/2000/svg"
   xmlns:svg="http://www.w3.org/2000/svg">
  <defs
     id="defs16" />
  <path
     style="color:#000000;fill:#000000;-inkscape-stroke:none"
     d="M 2,4 A 1.0001,1.0001 0 0 0 1,5 v 12 a 1.0001,1.0001 0 0 0 1,1 H 5 A 1,1 0 0 0 6,17 1,1 0 0 0 5,16 H 3 V 6 h 10 v 10 h -3 a 1,1 0 0 0 -1,1 1,1 0 0 0 1,1 h 4 a 1.0001,1.0001 0 0 0 1,-1 V 5 A 1.0001,1.0001 0 0 0 14,4 Z"
     id="path2" />
  <path
     style="color:#000000;fill:#000000;-inkscape-stroke:none"
     d="m 14,8 a 1,1 0 0 0 -1,1 1,1 0 0 0 1,1 h 4.585937 l 1.53711,1.537109 C 20.685784,12.100472 21.000626,12.863883 21,13.660156 V 16 h -1 a 1,1 0 0 0 -1,1 1,1 0 0 0 1,1 h 2 a 1.0001,1.0001 0 0 0 1,-1 v -3.339844 c 0.001,-1.326095 -0.525721,-2.598897 -1.462891,-3.537109 L 19.707031,8.2929688 A 1.0001,1.0001 0 0 0 19,8 Z"
     id="path4" />
  <path
     style="color:#000000;fill:#000000;-inkscape-stroke:none"
     d="m 14,16 a 1,1 0 0 0 -1,1 1,1 0 0 0 1,1 h 1 a 1,1 0 0 0 1,-1 1,1 0 0 0 -1,-1 z"
     id="path6" />
  <path
     style="color:#000000;fill:#000000;-inkscape-stroke:none"
     d="M 7.5,14 C 5.5788499,14 4,15.57885 4,17.5 4,19.42115 5.5788499,21 7.5,21 9.4211501,21 11,19.42115 11,17.5 11,15.57885 9.4211501,14 7.5,14 Z m 0,2 C 8.3402709,16 9,16.659729 9,17.5 9,18.340271 8.3402709,19 7.5,19 6.6597291,19 6,18.340271 6,17.5 6,16.659729 6.6597291,16 7.5,16 Z"
     id="circle8" />
  <path
     style="color:#000000;fill:#000000;-inkscape-stroke:none"
     d="M 17.5,14 C 15.57885,14 14,15.57885 14,17.5 14,19.42115 15.57885,21 17.5,21 19.42115,21 21,19.42115 21,17.5 21,15.57885 19.42115,14 17.5,14 Z m 0,2 C 18.340271,16 19,16.659729 19,17.5 19,18.340271 18.340271,19 17.5,19 16.659729,19 16,18.340271 16,17.5 16,16.659729 16.659729,16 17.5,16 Z"
     id="circle10" />
</svg>
