<?xml version="1.0" encoding="UTF-8" standalone="no"?>
<svg
   width="24"
   height="24"
   viewBox="0 0 24 24"
   fill="none"
   stroke="currentColor"
   stroke-width="2"
   stroke-linecap="round"
   stroke-linejoin="round"
   version="1.1"
   id="svg6"
   xmlns="http://www.w3.org/2000/svg"
   xmlns:svg="http://www.w3.org/2000/svg">
  <defs
     id="defs10" />
  <path
     style="color:#000000;fill:#000000;-inkscape-stroke:none"
     d="M 4,6 C 2.3552989,6 1,7.3552989 1,9 v 11 c 0,1.644701 1.3552989,3 3,3 h 16 c 1.644701,0 3,-1.355299 3,-3 V 9 C 23,7.3552989 21.644701,6 20,6 Z m 0,2 h 16 c 0.571297,0 1,0.4287033 1,1 v 11 c 0,0.571297 -0.428703,1 -1,1 H 4 C 3.4287033,21 3,20.571297 3,20 V 9 C 3,8.4287033 3.4287033,8 4,8 Z"
     id="rect2" />
  <path
     style="color:#000000;fill:#000000;-inkscape-stroke:none"
     d="m 7,1 a 1,1 0 0 0 -0.7070313,0.2929687 1,1 0 0 0 0,1.4140626 l 5.0000003,4.9999999 a 1.0001,1.0001 0 0 0 1.414062,0 l 5,-4.9999999 a 1,1 0 0 0 0,-1.4140626 1,1 0 0 0 -1.414062,0 L 12,5.5859375 7.7070312,1.2929687 A 1,1 0 0 0 7,1 Z"
     id="polyline4" />
</svg>
