<?xml version="1.0" encoding="UTF-8" standalone="no"?>
<svg
   width="24"
   height="24"
   viewBox="0 0 24 24"
   fill="none"
   stroke="currentColor"
   stroke-width="2"
   stroke-linecap="round"
   stroke-linejoin="round"
   version="1.1"
   id="svg4"
   xmlns="http://www.w3.org/2000/svg"
   xmlns:svg="http://www.w3.org/2000/svg">
  <defs
     id="defs8" />
  <path
     style="color:#000000;fill:#000000;-inkscape-stroke:none"
     d="m 22.251953,3.0332031 a 1.0001,1.0001 0 0 0 -0.785156,0.1210938 c 0,0 -0.434735,0.2728802 -0.994141,0.546875 C 19.984594,3.9402226 19.460332,4.0873728 19.1875,4.1347656 17.443617,2.8295105 15.2603,2.7104455 13.576172,3.5878906 12.067464,4.3739403 11.015222,5.9849879 10.958984,7.9121094 8.2159079,7.7107834 5.5391298,6.4517841 3.7636719,4.3535156 A 1.0001,1.0001 0 0 0 2.1210938,4.5234375 C -0.35734494,9.0837647 1.6816296,14.56851 6.0214844,16.988281 4.8183482,17.63361 3.471586,18.066801 2.0449219,18.001953 a 1.0001,1.0001 0 0 0 -0.5976563,1.832031 c 4.6275119,3.067072 9.9967424,2.651174 13.9238284,0.0918 3.8139,-2.48561 6.26922,-7.037246 5.621093,-12.2343748 1.291606,-1.5096939 1.957032,-3.3749999 1.957032,-3.375 A 1.0001,1.0001 0 0 0 22.251953,3.0332031 Z m -5.867187,1.9726563 c 0.66305,0.076509 1.334957,0.3670535 1.933593,0.9257812 A 1.0001,1.0001 0 0 0 19,6.1992187 c 0.302781,0 0.506178,-0.1653467 0.779297,-0.2324218 -0.173162,0.2472992 -0.286031,0.5262649 -0.486328,0.7265625 a 1.0001,1.0001 0 0 0 -0.28125,0.8652343 C 19.749237,12.16808 17.602204,16.084381 14.279297,18.25 11.747154,19.900258 8.5731289,20.492805 5.4472656,19.527344 6.6249149,19.152239 7.7256317,18.567953 8.6582031,17.751953 A 1.0001,1.0001 0 0 0 8.2871094,16.042969 C 4.3631604,14.865784 2.3745265,10.616583 3.5117188,6.8398437 5.8493304,8.8997707 8.900937,10.092011 12.029297,10 A 1.0001,1.0001 0 0 0 12.978516,8.7910156 C 12.614599,7.0927378 13.365435,5.9524459 14.5,5.3613281 15.067282,5.0657692 15.721715,4.9293505 16.384766,5.0058594 Z"
     id="path2" />
</svg>
