<?xml version="1.0" encoding="UTF-8" standalone="no"?>
<svg
   width="24"
   height="24"
   viewBox="0 0 24 24"
   fill="none"
   stroke="currentColor"
   stroke-width="2"
   stroke-linecap="round"
   stroke-linejoin="round"
   version="1.1"
   id="svg4"
   xmlns="http://www.w3.org/2000/svg"
   xmlns:svg="http://www.w3.org/2000/svg">
  <defs
     id="defs8" />
  <path
     style="color:#000000;fill:#000000;-inkscape-stroke:none"
     d="M 3,1 A 1.0001,1.0001 0 0 0 2,2 v 16 a 1.0001,1.0001 0 0 0 1,1 h 4 v 3 a 1.0001,1.0001 0 0 0 1.7070313,0.707031 L 12.414063,19 H 17 a 1.0001,1.0001 0 0 0 0.707031,-0.292969 l 4,-4 A 1.0001,1.0001 0 0 0 22,14 V 2 A 1.0001,1.0001 0 0 0 21,1 Z M 4,3 H 20 V 13.585938 L 16.585937,17 H 12 a 1.0001,1.0001 0 0 0 -0.707031,0.292969 L 9,19.585937 V 18 A 1.0001,1.0001 0 0 0 8,17 H 4 Z m 7,3 a 1,1 0 0 0 -1,1 v 4 a 1,1 0 0 0 1,1 1,1 0 0 0 1,-1 V 7 A 1,1 0 0 0 11,6 Z m 5,0 a 1,1 0 0 0 -1,1 v 4 a 1,1 0 0 0 1,1 1,1 0 0 0 1,-1 V 7 A 1,1 0 0 0 16,6 Z"
     id="path2" />
</svg>
