<?xml version="1.0" encoding="UTF-8" standalone="no"?>
<svg
   width="24"
   height="24"
   viewBox="0 0 24 24"
   fill="none"
   stroke="currentColor"
   stroke-width="2"
   stroke-linecap="round"
   stroke-linejoin="round"
   version="1.1"
   id="svg8"
   xmlns="http://www.w3.org/2000/svg"
   xmlns:svg="http://www.w3.org/2000/svg">
  <defs
     id="defs12" />
  <path
     style="color:#000000;fill:#000000;-inkscape-stroke:none"
     d="m 12,2.0371094 c -5.6331494,0 -10.3798208,4.2539617 -10.9941406,9.8535156 A 1.0001,1.0001 0 0 0 2,13 h 20 a 1.0001,1.0001 0 0 0 0.994141,-1.109375 C 22.379821,6.2910711 17.633149,2.0371094 12,2.0371094 Z m 0,2 c 4.228722,0 7.694063,2.9544843 8.669922,6.9628906 H 3.3300781 C 4.305937,6.9915937 7.7712779,4.0371094 12,4.0371094 Z"
     id="path2" />
  <path
     style="color:#000000;fill:#000000;-inkscape-stroke:none"
     d="m 12,11 a 1,1 0 0 0 -1,1 v 8 c 0,0.916666 0.379756,1.731441 0.960938,2.248047 C 12.542119,22.764652 13.277779,23 14,23 14.722221,23 15.457881,22.764652 16.039062,22.248047 16.620244,21.731441 17,20.916666 17,20 a 1,1 0 0 0 -1,-1 1,1 0 0 0 -1,1 c 0,0.416666 -0.120245,0.601893 -0.289062,0.751953 C 14.54212,20.902013 14.277778,21 14,21 13.722222,21 13.45788,20.902013 13.289063,20.751953 13.120245,20.601893 13,20.416666 13,20 v -8 a 1,1 0 0 0 -1,-1 z"
     id="path4" />
  <path
     style="color:#000000;fill:#000000;-inkscape-stroke:none"
     d="m 12,1 a 1,1 0 0 0 -1,1 v 1 a 1,1 0 0 0 1,1 1,1 0 0 0 1,-1 V 2 A 1,1 0 0 0 12,1 Z"
     id="path6" />
</svg>
