<?xml version="1.0" encoding="UTF-8" standalone="no"?>
<svg
   width="24"
   height="24"
   viewBox="0 0 24 24"
   fill="none"
   stroke="currentColor"
   stroke-width="2"
   stroke-linecap="round"
   stroke-linejoin="round"
   version="1.1"
   id="svg8"
   xmlns="http://www.w3.org/2000/svg"
   xmlns:svg="http://www.w3.org/2000/svg">
  <defs
     id="defs12" />
  <path
     style="color:#000000;fill:#000000;-inkscape-stroke:none"
     d="m 12,15 c -1.092724,0 -2,0.907276 -2,2 0,1.092724 0.907276,2 2,2 1.092724,0 2,-0.907276 2,-2 0,-1.092724 -0.907276,-2 -2,-2 z"
     id="circle2" />
  <path
     style="color:#000000;fill:#000000;-inkscape-stroke:none"
     d="M 3,6 A 1,1 0 0 0 2,7 v 6 a 1.0001,1.0001 0 0 0 1,1 H 9 A 1,1 0 0 0 10,13 1,1 0 0 0 9,12 H 4 V 7 A 1,1 0 0 0 3,6 Z"
     id="path4" />
  <path
     style="color:#000000;fill:#000000;-inkscape-stroke:none"
     d="M 11.998047,7 C 9.5373412,7.0025058 7.1638896,7.9117104 5.3320312,9.5546875 a 1.0001,1.0001 0 0 0 -0.00195,0.00195 l -3,2.6992184 a 1,1 0 0 0 -0.074219,1.414063 1,1 0 0 0 1.4140625,0.07422 l 2.9980468,-2.699219 0.00195,-0.002 C 8.1350038,9.7298504 10.032562,9.002483 12,9 c 4.430118,0 8,3.569882 8,8 a 1,1 0 0 0 1,1 1,1 0 0 0 1,-1 C 22,11.489003 17.510997,7 12,7 a 1.0001,1.0001 0 0 0 -0.002,0 z"
     id="path6" />
</svg>
