<?xml version="1.0" encoding="UTF-8" standalone="no"?>
<svg
   width="24"
   height="24"
   viewBox="0 0 24 24"
   fill="none"
   stroke="currentColor"
   stroke-width="2"
   stroke-linecap="round"
   stroke-linejoin="round"
   version="1.1"
   id="svg6"
   xmlns="http://www.w3.org/2000/svg"
   xmlns:svg="http://www.w3.org/2000/svg">
  <defs
     id="defs10" />
  <path
     style="color:#000000;fill:#000000;-inkscape-stroke:none"
     d="M 6,3 C 4.9092983,3 4,3.9092983 4,5 v 4 c 0,1.090702 0.9092983,2 2,2 h 6 c 1.090702,0 2,-0.909298 2,-2 V 5 C 14,3.9092983 13.090702,3 12,3 Z m 0,2 h 6 V 9 H 6 Z"
     id="rect2" />
  <path
     style="color:#000000;fill:#000000;-inkscape-stroke:none"
     d="m 12,13 c -1.090702,0 -2,0.909298 -2,2 v 4 c 0,1.090702 0.909298,2 2,2 h 6 c 1.090702,0 2,-0.909298 2,-2 v -4 c 0,-1.090702 -0.909298,-2 -2,-2 z m 0,2 h 6 v 4 h -6 z"
     id="rect4" />
</svg>
