<?xml version="1.0" encoding="UTF-8" standalone="no"?>
<svg
   width="24"
   height="24"
   viewBox="0 0 24 24"
   fill="none"
   stroke="currentColor"
   stroke-width="2"
   stroke-linecap="round"
   stroke-linejoin="round"
   version="1.1"
   id="svg14"
   xmlns="http://www.w3.org/2000/svg"
   xmlns:svg="http://www.w3.org/2000/svg">
  <defs
     id="defs18" />
  <path
     style="color:#000000;fill:#000000;-inkscape-stroke:none"
     d="m 16.945312,1.0722656 c -1.504825,0 -3.01041,0.5595367 -4.169921,1.6777344 a 1.0001,1.0001 0 0 0 -0.0098,0.011719 l -1.720703,1.7089843 a 1,1 0 0 0 -0.0039,1.4140625 1,1 0 0 0 1.414062,0.00391 l 1.714844,-1.703125 c 1.55969,-1.4988038 3.998941,-1.498292 5.55664,0.00391 1.593384,1.5447895 1.635141,4.0590571 0.09375,5.65625 a 1.0001,1.0001 0 0 0 -0.0039,0.023437 l -1.68164,1.6718754 a 1,1 0 0 0 -0.0039,1.414062 1,1 0 0 0 1.414063,0.0039 L 21.265625,11.25 a 1.0001,1.0001 0 0 0 0.0293,-0.07227 C 23.537879,8.7996953 23.469725,5.0315256 21.115234,2.7519531 A 1.0001,1.0001 0 0 0 21.113281,2.75 C 19.95377,1.6318023 18.450138,1.0722656 16.945312,1.0722656 Z"
     id="path2" />
  <path
     style="color:#000000;fill:#000000;-inkscape-stroke:none"
     d="m 5.1699219,10.75 a 1,1 0 0 0 -0.7070313,0.292969 l -1.7109375,1.708984 a 1.0001,1.0001 0 0 0 -0.011719,0.01367 c -2.2918459,2.374816 -2.22658743,6.186751 0.1445312,8.482422 a 1.0001,1.0001 0 0 0 0.00195,0.002 c 2.3190222,2.236395 6.0188683,2.236395 8.3378902,0 a 1.0001,1.0001 0 0 0 0.01172,-0.01367 l 1.710938,-1.708984 a 1,1 0 0 0 0,-1.414063 1,1 0 0 0 -1.414063,0 l -1.7031249,1.701172 c -1.5590138,1.498154 -3.9969002,1.498292 -5.5546875,-0.002 l -0.00195,-0.002 C 2.681815,18.267465 2.6395898,15.757604 4.1757812,14.160156 c 0.0017,-0.0018 0.0022,-0.0041 0.00391,-0.0059 l 1.6972656,-1.697266 a 1,1 0 0 0 0,-1.414062 A 1,1 0 0 0 5.1699219,10.75 Z"
     id="path4" />
  <path
     style="color:#000000;fill:#000000;-inkscape-stroke:none"
     d="M 8,1 A 1,1 0 0 0 7,2 V 5 A 1,1 0 0 0 8,6 1,1 0 0 0 9,5 V 2 A 1,1 0 0 0 8,1 Z"
     id="line6" />
  <path
     style="color:#000000;fill:#000000;-inkscape-stroke:none"
     d="M 2,7 A 1,1 0 0 0 1,8 1,1 0 0 0 2,9 H 5 A 1,1 0 0 0 6,8 1,1 0 0 0 5,7 Z"
     id="line8" />
  <path
     style="color:#000000;fill:#000000;-inkscape-stroke:none"
     d="m 16,18 a 1,1 0 0 0 -1,1 v 3 a 1,1 0 0 0 1,1 1,1 0 0 0 1,-1 v -3 a 1,1 0 0 0 -1,-1 z"
     id="line10" />
  <path
     style="color:#000000;fill:#000000;-inkscape-stroke:none"
     d="m 19,15 a 1,1 0 0 0 -1,1 1,1 0 0 0 1,1 h 3 a 1,1 0 0 0 1,-1 1,1 0 0 0 -1,-1 z"
     id="line12" />
</svg>
