<?xml version="1.0" encoding="UTF-8" standalone="no"?>
<svg
   width="24"
   height="24"
   viewBox="0 0 24 24"
   fill="none"
   stroke="currentColor"
   stroke-width="2"
   stroke-linecap="round"
   stroke-linejoin="round"
   version="1.1"
   id="svg6"
   xmlns="http://www.w3.org/2000/svg"
   xmlns:svg="http://www.w3.org/2000/svg">
  <defs
     id="defs10" />
  <path
     style="color:#000000;fill:#000000;-inkscape-stroke:none"
     d="m 5,10 c -1.6447011,0 -3,1.355299 -3,3 v 7 c 0,1.644701 1.3552989,3 3,3 h 14 c 1.644701,0 3,-1.355299 3,-3 v -7 c 0,-1.644701 -1.355299,-3 -3,-3 z m 0,2 h 14 c 0.571297,0 1,0.428703 1,1 v 7 c 0,0.571297 -0.428703,1 -1,1 H 5 C 4.4287033,21 4,20.571297 4,20 v -7 c 0,-0.571297 0.4287033,-1 1,-1 z"
     id="rect2" />
  <path
     style="color:#000000;fill:#000000;-inkscape-stroke:none"
     d="M 11.396484,1.0253906 C 8.644928,1.3033256 5.9964849,3.5043006 6,7.0019531 V 11 a 1,1 0 0 0 1,1 1,1 0 0 0 1,-1 V 7 a 1.0001,1.0001 0 0 0 0,-0.00195 c -0.00255,-2.5356178 1.6978495,-3.7905222 3.597656,-3.9824219 1.899807,-0.1918997 3.81769,0.6986858 4.322266,3.1835937 a 1,1 0 0 0 1.179687,0.78125 1,1 0 0 0 0.78125,-1.1796875 C 17.184844,2.3730782 14.148041,0.74745564 11.396484,1.0253906 Z"
     id="path4" />
</svg>
