<?xml version="1.0" encoding="UTF-8" standalone="no"?>
<svg
   width="24"
   height="24"
   viewBox="0 0 24 24"
   fill="none"
   stroke="currentColor"
   stroke-width="2"
   stroke-linecap="round"
   stroke-linejoin="round"
   version="1.1"
   id="svg14"
   xmlns="http://www.w3.org/2000/svg"
   xmlns:svg="http://www.w3.org/2000/svg">
  <defs
     id="defs18" />
  <path
     style="color:#000000;fill:#000000;-inkscape-stroke:none"
     d="m 21.292969,1.2929687 -3,3 a 1,1 0 0 0 0,1.4140625 1,1 0 0 0 1.414062,0 l 3,-2.9999999 a 1,1 0 0 0 0,-1.4140626 1,1 0 0 0 -1.414062,0 z"
     id="path2" />
  <path
     style="color:#000000;fill:#000000;-inkscape-stroke:none"
     d="m 5,18 a 1,1 0 0 0 -0.7070313,0.292969 l -3,3 a 1,1 0 0 0 0,1.414062 1,1 0 0 0 1.4140626,0 l 2.9999999,-3 a 1,1 0 0 0 0,-1.414062 A 1,1 0 0 0 5,18 Z"
     id="path4" />
  <path
     style="color:#000000;fill:#000000;-inkscape-stroke:none"
     d="M 5.2929687,11.292969 2.9921875,13.59375 c -1.3228753,1.320473 -1.3222518,3.494838 0.00195,4.814453 L 5.59375,21.007812 c 1.3204734,1.322876 3.4948382,1.322252 4.814453,-0.002 l 2.298828,-2.298828 a 1.0001,1.0001 0 0 0 0,-1.414062 l -5.9999998,-6 a 1.0001,1.0001 0 0 0 -1.4140625,0 z M 6,13.414063 10.585938,18 8.9921875,19.59375 c -0.5555758,0.557508 -1.4287992,0.557508 -1.984375,0 L 4.40625,16.992187 c -0.5575083,-0.555575 -0.5575083,-1.428799 0,-1.984374 z"
     id="path6" />
  <path
     style="color:#000000;fill:#000000;-inkscape-stroke:none"
     d="m 10,10 a 1,1 0 0 0 -0.7070312,0.292969 l -2.5000001,2.5 a 1,1 0 0 0 0,1.414062 1,1 0 0 0 1.4140626,0 l 2.4999997,-2.5 a 1,1 0 0 0 0,-1.414062 A 1,1 0 0 0 10,10 Z"
     id="path8" />
  <path
     style="color:#000000;fill:#000000;-inkscape-stroke:none"
     d="m 13,13 a 1,1 0 0 0 -0.707031,0.292969 l -2.5000002,2.5 a 1,1 0 0 0 0,1.414062 1,1 0 0 0 1.4140622,0 l 2.5,-2.5 a 1,1 0 0 0 0,-1.414062 A 1,1 0 0 0 13,13 Z"
     id="path10" />
  <path
     style="color:#000000;fill:#000000;-inkscape-stroke:none"
     d="m 16,2 c -0.874096,0 -1.748064,0.3317056 -2.408203,0.9941406 l -2.298828,2.2988281 a 1.0001,1.0001 0 0 0 0,1.4140625 l 6,5.9999998 a 1.0001,1.0001 0 0 0 1.414062,0 l 2.298828,-2.298828 0.002,-0.002 c 1.322211,-1.3198101 1.322211,-3.4926899 0,-4.8125 l -0.002,-0.00195 -2.597656,-2.5976563 C 17.748064,2.3317056 16.874096,2 16,2 Z m 0,1.9882813 c 0.356939,0 0.7144,0.1392146 0.992187,0.4179687 l 2.601563,2.6015625 c 0.557508,0.5555758 0.557508,1.4287992 0,1.984375 L 18,10.585938 13.414063,6 15.007813,4.40625 C 15.2856,4.1274959 15.643061,3.9882812 16,3.9882813 Z"
     id="path12" />
</svg>
