<?xml version="1.0" encoding="UTF-8" standalone="no"?>
<svg
   width="24"
   height="24"
   viewBox="0 0 24 24"
   fill="none"
   stroke="currentColor"
   stroke-width="2"
   stroke-linecap="round"
   stroke-linejoin="round"
   version="1.1"
   id="svg16"
   xmlns="http://www.w3.org/2000/svg"
   xmlns:svg="http://www.w3.org/2000/svg">
  <defs
     id="defs20" />
  <path
     style="color:#000000;fill:#000000;-inkscape-stroke:none"
     d="M 10,5 C 8.9072762,5 8,5.9072762 8,7 8,8.0927238 8.9072762,9 10,9 11.092724,9 12,8.0927238 12,7 12,5.9072762 11.092724,5 10,5 Z"
     id="circle2" />
  <path
     style="color:#000000;fill:#000000;-inkscape-stroke:none"
     d="m 4,18 c -1.0927238,0 -2,0.907276 -2,2 0,1.092724 0.9072762,2 2,2 1.0927238,0 2,-0.907276 2,-2 0,-1.092724 -0.9072762,-2 -2,-2 z"
     id="circle4" />
  <path
     style="color:#000000;fill:#000000;-inkscape-stroke:none"
     d="M 18.292969,4.2929687 3.9921875,18.59375 a 1,1 0 0 0 0,1.414062 1,1 0 0 0 1.4140625,0 L 19.707031,5.7070312 a 1,1 0 0 0 0,-1.4140625 1,1 0 0 0 -1.414062,0 z"
     id="path6" />
  <path
     style="color:#000000;fill:#000000;-inkscape-stroke:none"
     d="m 20.683594,2.0507813 -3,1 a 1.0001,1.0001 0 0 0 -0.390625,1.6562499 l 2,2 a 1.0001,1.0001 0 0 0 1.65625,-0.390625 l 1,-2.9999999 a 1.0001,1.0001 0 0 0 -1.265625,-1.265625 z"
     id="path8" />
  <path
     style="color:#000000;fill:#000000;-inkscape-stroke:none"
     d="M 9.2539063,6.6796875 A 1,1 0 0 0 8.5488281,6.9785156 L 4.2871094,11.298828 a 1.0001,1.0001 0 0 0 -0.2148438,1.072266 l 2,5 a 1,1 0 0 0 1.2988281,0.55664 1,1 0 0 0 0.5566407,-1.298828 L 6.171875,12.236328 9.9726563,8.3828125 A 1,1 0 0 0 9.9628906,6.96875 1,1 0 0 0 9.2539063,6.6796875 Z"
     id="path10" />
  <path
     style="color:#000000;fill:#000000;-inkscape-stroke:none"
     d="m 17.792969,11.792969 -3.033203,3.033203 -4.388672,-1.753906 a 1,1 0 0 0 -1.2988284,0.55664 1,1 0 0 0 0.5566407,1.298828 l 4.9999997,2 a 1.0001,1.0001 0 0 0 1.078125,-0.220703 l 3.5,-3.5 a 1,1 0 0 0 0,-1.414062 1,1 0 0 0 -1.414062,0 z"
     id="path12" />
  <path
     style="color:#000000;fill:#000000;-inkscape-stroke:none"
     d="m 18.292969,10.292969 -1,1 a 1.0001,1.0001 0 0 0 0,1.414062 l 1,1 a 1.0001,1.0001 0 0 0 1.414062,0 l 1,-1 a 1.0001,1.0001 0 0 0 0,-1.414062 l -1,-1 a 1.0001,1.0001 0 0 0 -1.414062,0 z"
     id="path14" />
</svg>
