<?xml version="1.0" encoding="UTF-8" standalone="no"?>
<svg
   width="24"
   height="24"
   viewBox="0 0 24 24"
   fill="none"
   stroke="currentColor"
   stroke-width="2"
   stroke-linecap="round"
   stroke-linejoin="round"
   version="1.1"
   id="svg20"
   xmlns="http://www.w3.org/2000/svg"
   xmlns:svg="http://www.w3.org/2000/svg">
  <defs
     id="defs24" />
  <path
     style="color:#000000;fill:#000000;-inkscape-stroke:none"
     d="m 6,14 c -2.7495764,0 -5,2.250424 -5,5 v 2 a 1,1 0 0 0 1,1 1,1 0 0 0 1,-1 v -2 c 0,-1.668697 1.3313028,-3 3,-3 h 6 c 1.668697,0 3,1.331303 3,3 v 2 a 1,1 0 0 0 1,1 1,1 0 0 0 1,-1 v -2 c 0,-2.749576 -2.250424,-5 -5,-5 z"
     id="path2" />
  <path
     style="color:#000000;fill:#000000;-inkscape-stroke:none"
     d="M 9,2 C 6.2504236,2 4,4.2504236 4,7 4,9.7495764 6.2504236,12 9,12 11.749576,12 14,9.7495764 14,7 14,4.2504236 11.749576,2 9,2 Z m 0,2 c 1.668697,0 3,1.3313028 3,3 0,1.6686972 -1.331303,3 -3,3 C 7.3313028,10 6,8.6686972 6,7 6,5.3313028 7.3313028,4 9,4 Z"
     id="circle4" />
  <path
     style="color:#000000;fill:#000000;-inkscape-stroke:none"
     d="m 19,8 c -1.645008,0 -3,1.354992 -3,3 0,1.645008 1.354992,3 3,3 1.645008,0 3,-1.354992 3,-3 0,-1.645008 -1.354992,-3 -3,-3 z m 0,2 c 0.564129,0 1,0.435871 1,1 0,0.564129 -0.435871,1 -1,1 -0.564129,0 -1,-0.435871 -1,-1 0,-0.564129 0.435871,-1 1,-1 z"
     id="circle6" />
  <path
     style="color:#000000;fill:#000000;-inkscape-stroke:none"
     d="m 19,7 a 1,1 0 0 0 -1,1 v 1 a 1,1 0 0 0 1,1 1,1 0 0 0 1,-1 V 8 A 1,1 0 0 0 19,7 Z"
     id="path8" />
  <path
     style="color:#000000;fill:#000000;-inkscape-stroke:none"
     d="m 19,12 a 1,1 0 0 0 -1,1 v 1 a 1,1 0 0 0 1,1 1,1 0 0 0 1,-1 v -1 a 1,1 0 0 0 -1,-1 z"
     id="path10" />
  <path
     style="color:#000000;fill:#000000;-inkscape-stroke:none"
     d="m 21.101562,8.6328125 -0.86914,0.5 a 1,1 0 0 0 -0.369141,1.3652345 1,1 0 0 0 1.365235,0.369141 l 0.86914,-0.5 A 1,1 0 0 0 22.466797,9.0019531 1,1 0 0 0 21.101562,8.6328125 Z"
     id="path12" />
  <path
     style="color:#000000;fill:#000000;-inkscape-stroke:none"
     d="m 16.771484,11.132813 -0.86914,0.5 a 1,1 0 0 0 -0.369141,1.365234 1,1 0 0 0 1.365234,0.369141 l 0.869141,-0.5 a 1,1 0 0 0 0.369141,-1.365235 1,1 0 0 0 -1.365235,-0.36914 z"
     id="path14" />
  <path
     style="color:#000000;fill:#000000;-inkscape-stroke:none"
     d="m 21.228516,11.132813 a 1,1 0 0 0 -1.365235,0.36914 1,1 0 0 0 0.369141,1.365235 l 0.86914,0.5 a 1,1 0 0 0 1.365235,-0.369141 1,1 0 0 0 -0.369141,-1.365234 z"
     id="path16" />
  <path
     style="color:#000000;fill:#000000;-inkscape-stroke:none"
     d="m 16.898437,8.6328125 a 1,1 0 0 0 -1.365234,0.3691406 1,1 0 0 0 0.369141,1.3652349 l 0.86914,0.5 a 1,1 0 0 0 1.365235,-0.369141 1,1 0 0 0 -0.369141,-1.3652345 z"
     id="path18" />
</svg>
