<?xml version="1.0" encoding="UTF-8" standalone="no"?>
<svg
   width="24"
   height="24"
   viewBox="0 0 24 24"
   fill="none"
   stroke="currentColor"
   stroke-width="2"
   stroke-linecap="round"
   stroke-linejoin="round"
   version="1.1"
   id="svg6"
   xmlns="http://www.w3.org/2000/svg"
   xmlns:svg="http://www.w3.org/2000/svg">
  <defs
     id="defs10" />
  <path
     style="color:#000000;fill:#000000;-inkscape-stroke:none"
     d="M 12,2 C 8.6981394,2 6,4.6981394 6,8 c 0,3.301861 2.6981394,6 6,6 3.301861,0 6,-2.698139 6,-6 0,-3.3018606 -2.698139,-6 -6,-6 z m 0,2 c 2.220981,0 4,1.7790186 4,4 0,2.220981 -1.779019,4 -4,4 C 9.7790186,12 8,10.220981 8,8 8,5.7790186 9.7790186,4 12,4 Z"
     id="circle2" />
  <path
     style="color:#000000;fill:#000000;-inkscape-stroke:none"
     d="m 12,12 c -4.9587121,0 -9,4.041284 -9,9 a 1,1 0 0 0 1,1 1,1 0 0 0 1,-1 c 0,-3.877837 3.1221651,-7 7,-7 3.877835,0 7,3.122163 7,7 a 1,1 0 0 0 1,1 1,1 0 0 0 1,-1 c 0,-4.958716 -4.041288,-9 -9,-9 z"
     id="path4" />
</svg>
