<?xml version="1.0" encoding="UTF-8" standalone="no"?>
<svg
   width="24"
   height="24"
   viewBox="0 0 24 24"
   fill="none"
   stroke="currentColor"
   stroke-width="2"
   stroke-linecap="round"
   stroke-linejoin="round"
   version="1.1"
   id="svg10"
   xmlns="http://www.w3.org/2000/svg"
   xmlns:svg="http://www.w3.org/2000/svg">
  <defs
     id="defs14" />
  <path
     style="color:#000000;fill:#000000;-inkscape-stroke:none"
     d="m 6,14 c -2.7495764,0 -5,2.250424 -5,5 v 2 a 1,1 0 0 0 1,1 1,1 0 0 0 1,-1 v -2 c 0,-1.668697 1.3313028,-3 3,-3 h 6 c 1.668697,0 3,1.331303 3,3 v 2 a 1,1 0 0 0 1,1 1,1 0 0 0 1,-1 v -2 c 0,-2.749576 -2.250424,-5 -5,-5 z"
     id="path2" />
  <path
     style="color:#000000;fill:#000000;-inkscape-stroke:none"
     d="M 9,2 C 6.2504236,2 4,4.2504236 4,7 4,9.7495764 6.2504236,12 9,12 11.749576,12 14,9.7495764 14,7 14,4.2504236 11.749576,2 9,2 Z m 0,2 c 1.668697,0 3,1.3313028 3,3 0,1.6686972 -1.331303,3 -3,3 C 7.3313028,10 6,8.6686972 6,7 6,5.3313028 7.3313028,4 9,4 Z"
     id="circle4" />
  <path
     style="color:#000000;fill:#000000;-inkscape-stroke:none"
     d="m 19.25,14.162109 a 1,1 0 0 0 -1.21875,0.71875 1,1 0 0 0 0.71875,1.216797 C 20.078576,16.440693 20.998977,17.627853 21,19 v 2 a 1,1 0 0 0 1,1 1,1 0 0 0 1,-1 v -2 c -0.0017,-2.273614 -1.548582,-4.269488 -3.75,-4.837891 z"
     id="path6" />
  <path
     style="color:#000000;fill:#000000;-inkscape-stroke:none"
     d="m 16.248047,2.1621094 a 1,1 0 0 0 -1.216797,0.7207031 1,1 0 0 0 0.720703,1.2167969 c 1.574785,0.4032087 2.255859,1.6231369 2.255859,2.90625 0,1.2831131 -0.681074,2.5030412 -2.255859,2.90625 a 1,1 0 0 0 -0.720703,1.2167966 1,1 0 0 0 1.216797,0.720703 c 2.435668,-0.623629 3.759765,-2.7652857 3.759765,-4.8437496 0,-2.0784639 -1.324097,-4.2201205 -3.759765,-4.84375 z"
     id="path8" />
</svg>
