<?xml version="1.0" encoding="UTF-8" standalone="no"?>
<svg
   width="24"
   height="24"
   viewBox="0 0 24 24"
   fill="none"
   stroke="currentColor"
   stroke-width="2"
   stroke-linecap="round"
   stroke-linejoin="round"
   version="1.1"
   id="svg10"
   xmlns="http://www.w3.org/2000/svg"
   xmlns:svg="http://www.w3.org/2000/svg">
  <defs
     id="defs14" />
  <path
     style="color:#000000;fill:#000000;-inkscape-stroke:none"
     d="m 8,12 c -3.8541437,0 -7,3.145853 -7,7 a 1,1 0 0 0 1,1 1,1 0 0 0 1,-1 c 0,-2.773268 2.2267335,-5 5,-5 2.773266,0 5,2.226732 5,5 a 1,1 0 0 0 1,1 1,1 0 0 0 1,-1 c 0,-3.854147 -3.145856,-7 -7,-7 z"
     id="path2" />
  <path
     style="color:#000000;fill:#000000;-inkscape-stroke:none"
     d="M 8,4 C 5.2504236,4 3,6.2504236 3,9 c 0,2.749576 2.2504236,5 5,5 2.749576,0 5,-2.250424 5,-5 C 13,6.2504236 10.749576,4 8,4 Z m 0,2 c 1.6686972,0 3,1.3313028 3,3 0,1.668697 -1.3313028,3 -3,3 C 6.3313028,12 5,10.668697 5,9 5,7.3313028 6.3313028,6 8,6 Z"
     id="circle4" />
  <path
     style="color:#000000;fill:#000000;-inkscape-stroke:none"
     d="m 16.292969,7.2929687 a 1,1 0 0 0 0,1.4140626 l 5,4.9999997 a 1,1 0 0 0 1.414062,0 1,1 0 0 0 0,-1.414062 l -5,-5.0000003 a 1,1 0 0 0 -1.414062,0 z"
     id="line6" />
  <path
     style="color:#000000;fill:#000000;-inkscape-stroke:none"
     d="m 21.292969,7.2929687 -5,5.0000003 a 1,1 0 0 0 0,1.414062 1,1 0 0 0 1.414062,0 l 5,-4.9999997 a 1,1 0 0 0 0,-1.4140626 1,1 0 0 0 -1.414062,0 z"
     id="line8" />
</svg>
