<?xml version="1.0" encoding="UTF-8" standalone="no"?>
<svg
   width="24"
   height="24"
   viewBox="0 0 24 24"
   fill="none"
   stroke="currentColor"
   stroke-width="2"
   stroke-linecap="round"
   stroke-linejoin="round"
   version="1.1"
   id="svg8"
   xmlns="http://www.w3.org/2000/svg"
   xmlns:svg="http://www.w3.org/2000/svg">
  <defs
     id="defs12" />
  <path
     style="color:#000000;fill:#000000;-inkscape-stroke:none"
     d="m 8,12 c -3.8541437,0 -7,3.145853 -7,7 a 1,1 0 0 0 1,1 1,1 0 0 0 1,-1 c 0,-2.773268 2.2267335,-5 5,-5 2.773266,0 5,2.226732 5,5 a 1,1 0 0 0 1,1 1,1 0 0 0 1,-1 c 0,-3.854147 -3.145856,-7 -7,-7 z"
     id="path2" />
  <path
     style="color:#000000;fill:#000000;-inkscape-stroke:none"
     d="M 8,4 C 5.2504236,4 3,6.2504236 3,9 c 0,2.749576 2.2504236,5 5,5 2.749576,0 5,-2.250424 5,-5 C 13,6.2504236 10.749576,4 8,4 Z m 0,2 c 1.6686972,0 3,1.3313028 3,3 0,1.668697 -1.3313028,3 -3,3 C 6.3313028,12 5,10.668697 5,9 5,7.3313028 6.3313028,6 8,6 Z"
     id="circle4" />
  <path
     style="color:#000000;fill:#000000;-inkscape-stroke:none"
     d="m 16,4 a 1,1 0 0 0 -1,1 1,1 0 0 0 1,1 c 1.083332,0 1.76856,0.370245 2.251953,0.9140625 C 18.735346,7.45788 19,8.2222229 19,9 19,9.7777771 18.735346,10.54212 18.251953,11.085938 17.76856,11.629755 17.083332,12 16,12 a 1.0001,1.0001 0 0 0 0,2 c 2.773266,0 5,2.226734 5,5 a 1,1 0 0 0 1,1 1,1 0 0 0 1,-1 c 0,-2.703848 -1.594693,-4.991217 -3.849609,-6.15625 0.189758,-0.153762 0.438984,-0.251182 0.597656,-0.429687 C 20.597985,11.457882 21,10.222221 21,9 21,7.7777791 20.597985,6.5421185 19.748047,5.5859375 18.898109,4.6297565 17.583331,4 16,4 Z"
     id="path6" />
</svg>
