<?xml version="1.0" encoding="UTF-8" standalone="no"?>
<svg
   width="24"
   height="24"
   viewBox="0 0 24 24"
   fill="none"
   stroke="currentColor"
   stroke-width="2"
   stroke-linecap="round"
   stroke-linejoin="round"
   version="1.1"
   id="svg8"
   xmlns="http://www.w3.org/2000/svg"
   xmlns:svg="http://www.w3.org/2000/svg">
  <defs
     id="defs12" />
  <path
     style="color:#000000;fill:#000000;-inkscape-stroke:none"
     d="m 6,14 c -2.7495764,0 -5,2.250424 -5,5 v 2 a 1,1 0 0 0 1,1 1,1 0 0 0 1,-1 v -2 c 0,-1.668697 1.3313028,-3 3,-3 h 6 c 1.668697,0 3,1.331303 3,3 v 2 a 1,1 0 0 0 1,1 1,1 0 0 0 1,-1 v -2 c 0,-2.749576 -2.250424,-5 -5,-5 z"
     id="path2" />
  <path
     style="color:#000000;fill:#000000;-inkscape-stroke:none"
     d="M 9,2 C 6.2504236,2 4,4.2504236 4,7 4,9.7495764 6.2504236,12 9,12 11.749576,12 14,9.7495764 14,7 14,4.2504236 11.749576,2 9,2 Z m 0,2 c 1.668697,0 3,1.3313028 3,3 0,1.6686972 -1.331303,3 -3,3 C 7.3313028,10 6,8.6686972 6,7 6,5.3313028 7.3313028,4 9,4 Z"
     id="circle4" />
  <path
     style="color:#000000;fill:#000000;-inkscape-stroke:none"
     d="M 21.292969,8.2929688 18,11.585938 16.707031,10.292969 a 1,1 0 0 0 -1.414062,0 1,1 0 0 0 0,1.414062 l 2,2 a 1.0001,1.0001 0 0 0 1.414062,0 l 4,-3.9999997 a 1,1 0 0 0 0,-1.4140625 1,1 0 0 0 -1.414062,0 z"
     id="polyline6" />
</svg>
