<?xml version="1.0" encoding="UTF-8" standalone="no"?>
<svg
   width="24"
   height="24"
   viewBox="0 0 24 24"
   fill="none"
   stroke="currentColor"
   stroke-width="2"
   stroke-linecap="round"
   stroke-linejoin="round"
   version="1.1"
   id="svg10"
   xmlns="http://www.w3.org/2000/svg"
   xmlns:svg="http://www.w3.org/2000/svg">
  <defs
     id="defs14" />
  <path
     style="color:#000000;fill:#000000;-inkscape-stroke:none"
     d="M 15.292969,1.2929687 12.992188,3.59375 a 1.0001,1.0001 0 0 0 -0.0059,0.00586 c -1.516784,1.5474289 -1.516784,4.0521804 0,5.5996094 a 1.0001,1.0001 0 0 0 0.0059,0.00781 l 1.800781,1.8007817 a 1.0001,1.0001 0 0 0 0.0078,0.0059 c 1.547429,1.516784 4.052181,1.516784 5.59961,0 a 1.0001,1.0001 0 0 0 0.0059,-0.0059 l 2.300781,-2.3007817 a 1,1 0 0 0 0,-1.4140626 1,1 0 0 0 -1.414062,0 L 19,9.5859375 c -0.78563,0.7700715 -2.015151,0.7700715 -2.800781,0 L 14.414063,7.8007812 C 13.643991,7.0151515 13.643991,5.7856298 14.414063,5 l 2.292968,-2.2929687 a 1,1 0 0 0 0,-1.4140626 1,1 0 0 0 -1.414062,0 z"
     id="path2" />
  <path
     style="color:#000000;fill:#000000;-inkscape-stroke:none"
     d="m 2.5996094,2.5859375 c -2.07199562,2.0301328 -2.07199562,5.3976016 0,7.4277345 l 7.2929687,7.292969 c 1.1377319,1.137731 2.9619789,1.100407 4.1660159,0.04687 a 1.0001,1.0001 0 0 0 0.04883,-0.04687 L 15,16.414062 l 6.292969,6.292969 a 1,1 0 0 0 1.414062,0 1,1 0 0 0 0,-1.414062 l -7,-7 L 4.0078125,2.59375 A 1.0001,1.0001 0 0 0 2.5996094,2.5859375 Z M 3.4355469,4.8496094 13.585938,15 l -0.84961,0.849609 c -0.397331,0.342208 -1.168424,0.304233 -1.429687,0.04297 L 4.0078125,8.59375 A 1.0001,1.0001 0 0 0 4,8.5859375 C 2.9619669,7.5688769 2.8025433,6.064023 3.4355469,4.8496094 Z"
     id="path4" />
  <path
     style="color:#000000;fill:#000000;-inkscape-stroke:none"
     d="m 7.7988281,14.787109 -6.4003906,6.300782 a 1,1 0 0 0 -0.011719,1.414062 1,1 0 0 0 1.4140626,0.0098 l 6.4003906,-6.298828 a 1,1 0 0 0 0.011719,-1.414063 1,1 0 0 0 -1.4140625,-0.01172 z"
     id="path6" />
  <path
     style="color:#000000;fill:#000000;-inkscape-stroke:none"
     d="m 18.292969,4.2929687 -7,7.0000003 a 1,1 0 0 0 0,1.414062 1,1 0 0 0 1.414062,0 l 7,-6.9999998 a 1,1 0 0 0 0,-1.4140625 1,1 0 0 0 -1.414062,0 z"
     id="path8" />
</svg>
