<?xml version="1.0" encoding="UTF-8" standalone="no"?>
<svg
   width="24"
   height="24"
   viewBox="0 0 24 24"
   fill="none"
   stroke="currentColor"
   stroke-width="2"
   stroke-linecap="round"
   stroke-linejoin="round"
   version="1.1"
   id="svg8"
   xmlns="http://www.w3.org/2000/svg"
   xmlns:svg="http://www.w3.org/2000/svg">
  <defs
     id="defs12" />
  <path
     style="color:#000000;fill:#000000;-inkscape-stroke:none"
     d="M 3,1 A 1,1 0 0 0 2,2 v 7 c 0,1.645453 1.3545471,3 3,3 h 4 c 1.645008,0 3,-1.354992 3,-3 V 2 A 1,1 0 0 0 11,1 1,1 0 0 0 10,2 v 7 c 0,0.5641288 -0.4358712,1 -1,1 H 5 C 4.4454551,10 4,9.5545449 4,9 V 2 A 1,1 0 0 0 3,1 Z"
     id="path2" />
  <path
     style="color:#000000;fill:#000000;-inkscape-stroke:none"
     d="M 7,1 A 1,1 0 0 0 6,2 v 20 a 1,1 0 0 0 1,1 1,1 0 0 0 1,-1 V 2 A 1,1 0 0 0 7,1 Z"
     id="path4" />
  <path
     style="color:#000000;fill:#000000;-inkscape-stroke:none"
     d="m 21,1 c -3.301861,0 -6,2.6981394 -6,6 v 6 c 0,1.645453 1.354547,3 3,3 h 2 v 6 a 1,1 0 0 0 1,1 1,1 0 0 0 1,-1 V 15 2 A 1.0001,1.0001 0 0 0 21,1 Z M 20,3.1992188 V 14 h -2 c -0.554545,0 -1,-0.445455 -1,-1 V 7 c 0,-1.8656778 1.281853,-3.3513843 3,-3.8007812 z"
     id="path6" />
</svg>
