<?xml version="1.0" encoding="UTF-8" standalone="no"?>
<svg
   width="24"
   height="24"
   viewBox="0 0 24 24"
   fill="none"
   stroke="currentColor"
   stroke-width="2"
   stroke-linecap="round"
   stroke-linejoin="round"
   version="1.1"
   id="svg16"
   xmlns="http://www.w3.org/2000/svg"
   xmlns:svg="http://www.w3.org/2000/svg">
  <defs
     id="defs20" />
  <path
     style="color:#000000;fill:#000000;-inkscape-stroke:none"
     d="m 12,1 a 1,1 0 0 0 -1,1 v 20 a 1,1 0 0 0 1,1 1,1 0 0 0 1,-1 V 2 A 1,1 0 0 0 12,1 Z"
     id="path2" />
  <path
     style="color:#000000;fill:#000000;-inkscape-stroke:none"
     d="M 2,4 A 1,1 0 0 0 1,5 1,1 0 0 0 2,6 H 22 A 1,1 0 0 0 23,5 1,1 0 0 0 22,4 Z"
     id="path4" />
  <path
     style="color:#000000;fill:#000000;-inkscape-stroke:none"
     d="M 3,2 A 1,1 0 0 0 2,3 V 5 A 1,1 0 0 0 3,6 1,1 0 0 0 4,5 V 3 A 1,1 0 0 0 3,2 Z"
     id="path6" />
  <path
     style="color:#000000;fill:#000000;-inkscape-stroke:none"
     d="M 7,2 A 1,1 0 0 0 6,3 V 5 A 1,1 0 0 0 7,6 1,1 0 0 0 8,5 V 3 A 1,1 0 0 0 7,2 Z"
     id="path8" />
  <path
     style="color:#000000;fill:#000000;-inkscape-stroke:none"
     d="m 17,2 a 1,1 0 0 0 -1,1 v 2 a 1,1 0 0 0 1,1 1,1 0 0 0 1,-1 V 3 A 1,1 0 0 0 17,2 Z"
     id="path10" />
  <path
     style="color:#000000;fill:#000000;-inkscape-stroke:none"
     d="m 21,2 a 1,1 0 0 0 -1,1 v 2 a 1,1 0 0 0 1,1 1,1 0 0 0 1,-1 V 3 A 1,1 0 0 0 21,2 Z"
     id="path12" />
  <path
     style="color:#000000;fill:#000000;-inkscape-stroke:none"
     d="m 5,4 a 1,1 0 0 0 -0.7070313,0.2929687 1,1 0 0 0 0,1.4140625 l 7.0000003,6.9999998 a 1.0001,1.0001 0 0 0 1.414062,0 l 7,-6.9999998 a 1,1 0 0 0 0,-1.4140625 1,1 0 0 0 -1.414062,0 L 12,10.585938 5.7070312,4.2929687 A 1,1 0 0 0 5,4 Z"
     id="path14" />
</svg>
