<?xml version="1.0" encoding="UTF-8" standalone="no"?>
<svg
   width="24"
   height="24"
   viewBox="0 0 24 24"
   fill="none"
   stroke="currentColor"
   stroke-width="2"
   stroke-linecap="round"
   stroke-linejoin="round"
   version="1.1"
   id="svg8"
   xmlns="http://www.w3.org/2000/svg"
   xmlns:svg="http://www.w3.org/2000/svg">
  <defs
     id="defs12" />
  <path
     style="color:#000000;fill:#000000;-inkscape-stroke:none"
     d="M 1.8886719,1.0058594 A 1,1 0 0 0 1.21875,1.3769531 1,1 0 0 0 1.3769531,2.78125 C 7.2573813,7.4722693 10.775441,14.510343 11,22.029297 a 1.0001,1.0001 0 0 0 1.992188,0.101562 C 13.88909,15.33433 14.423872,12.898358 16.875,8.4863281 A 1,1 0 0 0 16.486328,7.125 1,1 0 0 0 15.125,7.5136719 C 13.536601,10.37279 12.732567,12.904477 12.09375,15.822266 10.601149,10.113198 7.3209353,4.9664167 2.6230469,1.21875 A 1,1 0 0 0 1.8886719,1.0058594 Z"
     id="path2" />
  <path
     style="color:#000000;fill:#000000;-inkscape-stroke:none"
     d="M 22,1 C 19.833335,1 18.02867,1.5572677 16.792969,2.7929688 15.557268,4.0286698 15,5.8333355 15,8 A 1,1 0 0 0 15.292969,8.7070313 1,1 0 0 0 16,9 C 18.166664,9 19.97133,8.4427323 21.207031,7.2070312 22.442732,5.9713302 23,4.1666645 23,2 A 1.0001,1.0001 0 0 0 22,1 Z m -1.160156,2.1601563 c -0.161398,1.1392755 -0.47561,2.0615471 -1.046875,2.6328124 -0.571266,0.5712654 -1.493537,0.8854778 -2.632813,1.046875 0.161398,-1.1392755 0.47561,-2.0615471 1.046875,-2.6328125 0.571266,-0.5712653 1.493537,-0.8854777 2.632813,-1.0468749 z"
     id="path4" />
  <path
     style="color:#000000;fill:#000000;-inkscape-stroke:none"
     d="M 10.244141,1.15625 C 7.6459233,1.5763374 5.1983439,2.9211251 3.4375,5.1054687 -0.08410645,9.4740552 0.25845277,15.815093 4.2265625,19.783203 8.1946722,23.751313 14.53571,24.093872 18.904297,20.572266 23.272984,17.050578 24.28843,10.778841 21.251953,6.0585937 A 1,1 0 0 0 19.869141,5.7597656 1,1 0 0 0 19.568359,7.140625 c 2.492603,3.874786 1.665895,8.984401 -1.919922,11.875 C 14.062723,21.906143 8.8985592,21.627075 5.640625,18.369141 2.3826908,15.111206 2.1036231,9.9470428 4.9941406,6.3613281 7.88474,2.775512 12.994354,1.9488041 16.869141,4.4414062 A 1,1 0 0 0 18.251953,4.140625 1,1 0 0 0 17.951172,2.7597656 C 15.591048,1.2415273 12.842358,0.73616259 10.244141,1.15625 Z"
     id="path6" />
</svg>
