<?xml version="1.0" encoding="UTF-8" standalone="no"?>
<svg
   width="24"
   height="24"
   viewBox="0 0 24 24"
   fill="none"
   stroke="currentColor"
   stroke-width="2"
   stroke-linecap="round"
   stroke-linejoin="round"
   version="1.1"
   id="svg8"
   xmlns="http://www.w3.org/2000/svg"
   xmlns:svg="http://www.w3.org/2000/svg">
  <defs
     id="defs12" />
  <path
     style="color:#000000;fill:#000000;-inkscape-stroke:none"
     d="M 2,6 A 1.0001,1.0001 0 0 0 1,7 v 5 c 0,3.301861 2.6981394,6 6,6 h -0.037109 c 1.6169421,0.06023 3.1625734,0.678482 4.3750004,1.75 a 1.0001,1.0001 0 0 0 1.324218,0 c 1.212427,-1.071518 2.758058,-1.689771 4.375,-1.75 H 17 c 3.301861,0 6,-2.698139 6,-6 V 7 A 1.0001,1.0001 0 0 0 22,6 h -5 a 1.0001,1.0001 0 0 0 -0.03711,0 C 15.147426,6.0676236 13.451491,6.7693077 12,7.8417969 10.548509,6.7693077 8.8525744,6.0676236 7.0371094,6 A 1.0001,1.0001 0 0 0 7,6 Z m 1,2 h 3.9628906 c 1.6169421,0.060229 3.1625734,0.6784815 4.3750004,1.75 a 1.0001,1.0001 0 0 0 1.324218,0 C 13.874536,8.6784815 15.420167,8.0602288 17.037109,8 H 21 v 4 c 0,2.220981 -1.779019,4 -4,4 a 1.0001,1.0001 0 0 0 -0.03711,0 C 15.147426,16.067624 13.451491,16.769308 12,17.841797 10.548509,16.769308 8.8525744,16.067624 7.0371094,16 A 1.0001,1.0001 0 0 0 7,16 C 4.7790186,16 3,14.220981 3,12 Z"
     id="path2" />
  <path
     style="color:#000000;fill:#000000;-inkscape-stroke:none"
     d="m 6,10 a 1.0001,1.0001 0 0 0 -1,1 c 0,0.583333 0.064698,1.092836 0.2734375,1.5625 0.2087397,0.469664 0.6004119,0.867589 1.0292969,1.082031 C 7.1605044,14.073416 8.000001,14 9,14 a 1.0001,1.0001 0 0 0 1,-1 C 10,11.916668 9.3422368,11.003283 8.5488281,10.5625 7.7554194,10.121717 6.8611102,10 6,10 Z"
     id="path4" />
  <path
     style="color:#000000;fill:#000000;-inkscape-stroke:none"
     d="m 18,10 c -0.86111,0 -1.755419,0.121717 -2.548828,0.5625 C 14.657763,11.003283 14,11.916668 14,13 a 1.0001,1.0001 0 0 0 1,1 c 0.999999,0 1.839496,0.07342 2.697266,-0.355469 0.428885,-0.214442 0.820557,-0.612367 1.029296,-1.082031 C 18.935302,12.092836 19,11.583333 19,11 a 1.0001,1.0001 0 0 0 -1,-1 z"
     id="path6" />
</svg>
