<?xml version="1.0" encoding="UTF-8" standalone="no"?>
<svg
   width="24"
   height="24"
   viewBox="0 0 24 24"
   fill="none"
   stroke="currentColor"
   stroke-width="2"
   stroke-linecap="round"
   stroke-linejoin="round"
   version="1.1"
   id="svg12"
   xmlns="http://www.w3.org/2000/svg"
   xmlns:svg="http://www.w3.org/2000/svg">
  <defs
     id="defs16" />
  <path
     style="color:#000000;fill:#000000;-inkscape-stroke:none"
     d="m 2,7 a 1,1 0 0 0 -0.7070313,0.2929687 1,1 0 0 0 0,1.4140626 L 2.5859375,10 1.2929687,11.292969 a 1.0001,1.0001 0 0 0 0,1.414062 L 2.5859375,14 1.2929687,15.292969 a 1,1 0 0 0 0,1.414062 1,1 0 0 0 1.4140626,0 l 1.9999999,-2 a 1.0001,1.0001 0 0 0 0,-1.414062 L 3.4140625,12 4.7070312,10.707031 a 1.0001,1.0001 0 0 0 0,-1.4140622 L 2.7070313,7.2929687 A 1,1 0 0 0 2,7 Z"
     id="path2" />
  <path
     style="color:#000000;fill:#000000;-inkscape-stroke:none"
     d="m 21.292969,7.2929687 -2,2.0000001 a 1.0001,1.0001 0 0 0 0,1.4140622 L 20.585937,12 19.292969,13.292969 a 1.0001,1.0001 0 0 0 0,1.414062 l 2,2 a 1,1 0 0 0 1.414062,0 1,1 0 0 0 0,-1.414062 L 21.414062,14 22.707031,12.707031 a 1.0001,1.0001 0 0 0 0,-1.414062 L 21.414062,10 22.707031,8.7070313 a 1,1 0 0 0 0,-1.4140626 1,1 0 0 0 -1.414062,0 z"
     id="path4" />
  <path
     style="color:#000000;fill:#000000;-inkscape-stroke:none"
     d="M 8,7 A 1,1 0 0 0 7,8 v 10 c 0,1.095453 0.9045466,2 2,2 h 6 c 1.095453,0 2,-0.904547 2,-2 v -2 a 1,1 0 0 0 -1,-1 1,1 0 0 0 -1,1 v 2 H 9 V 8 A 1,1 0 0 0 8,7 Z"
     id="path6" />
  <path
     style="color:#000000;fill:#000000;-inkscape-stroke:none"
     d="M 10.660156,4 A 1,1 0 0 0 9.6601563,5 1,1 0 0 0 10.660156,6 H 15 v 4.339844 a 1,1 0 0 0 1,1 1,1 0 0 0 1,-1 V 6 C 17,4.9045466 16.095453,4 15,4 Z"
     id="path8" />
  <path
     style="color:#000000;fill:#000000;-inkscape-stroke:none"
     d="m 2,1 a 1,1 0 0 0 -0.7070313,0.2929687 1,1 0 0 0 0,1.4140626 L 21.292969,22.707031 a 1,1 0 0 0 1.414062,0 1,1 0 0 0 0,-1.414062 L 2.7070313,1.2929687 A 1,1 0 0 0 2,1 Z"
     id="line10" />
</svg>
