<?xml version="1.0" encoding="UTF-8" standalone="no"?>
<svg
   width="24"
   height="24"
   viewBox="0 0 24 24"
   fill="none"
   stroke="currentColor"
   stroke-width="2"
   stroke-linecap="round"
   stroke-linejoin="round"
   version="1.1"
   id="svg8"
   xmlns="http://www.w3.org/2000/svg"
   xmlns:svg="http://www.w3.org/2000/svg">
  <defs
     id="defs12" />
  <path
     style="color:#000000;fill:#000000;-inkscape-stroke:none"
     d="m 2,7 a 1,1 0 0 0 -0.7070313,0.2929687 1,1 0 0 0 0,1.4140626 L 2.5859375,10 1.2929687,11.292969 a 1.0001,1.0001 0 0 0 0,1.414062 L 2.5859375,14 1.2929687,15.292969 a 1,1 0 0 0 0,1.414062 1,1 0 0 0 1.4140626,0 l 1.9999999,-2 a 1.0001,1.0001 0 0 0 0,-1.414062 L 3.4140625,12 4.7070312,10.707031 a 1.0001,1.0001 0 0 0 0,-1.4140622 L 2.7070313,7.2929687 A 1,1 0 0 0 2,7 Z"
     id="path2" />
  <path
     style="color:#000000;fill:#000000;-inkscape-stroke:none"
     d="m 21.292969,7.2929687 -2,2.0000001 a 1.0001,1.0001 0 0 0 0,1.4140622 L 20.585937,12 19.292969,13.292969 a 1.0001,1.0001 0 0 0 0,1.414062 l 2,2 a 1,1 0 0 0 1.414062,0 1,1 0 0 0 0,-1.414062 L 21.414062,14 22.707031,12.707031 a 1.0001,1.0001 0 0 0 0,-1.414062 L 21.414062,10 22.707031,8.7070313 a 1,1 0 0 0 0,-1.4140626 1,1 0 0 0 -1.414062,0 z"
     id="path4" />
  <path
     style="color:#000000;fill:#000000;-inkscape-stroke:none"
     d="M 9,4 C 7.9092983,4 7,4.9092983 7,6 v 12 c 0,1.090702 0.9092983,2 2,2 h 6 c 1.090702,0 2,-0.909298 2,-2 V 6 C 17,4.9092983 16.090702,4 15,4 Z m 0,2 h 6 V 18 H 9 Z"
     id="rect6" />
</svg>
