<?xml version="1.0" encoding="UTF-8" standalone="no"?>
<svg
   width="24"
   height="24"
   viewBox="0 0 24 24"
   fill="none"
   stroke="currentColor"
   stroke-width="2"
   stroke-linecap="round"
   stroke-linejoin="round"
   version="1.1"
   id="svg8"
   xmlns="http://www.w3.org/2000/svg"
   xmlns:svg="http://www.w3.org/2000/svg">
  <defs
     id="defs12" />
  <path
     style="color:#000000;fill:#000000;-inkscape-stroke:none"
     d="M 10.660156,5 A 1,1 0 0 0 9.6601563,6 1,1 0 0 0 10.660156,7 H 14 c 0.564129,0 1,0.4358712 1,1 v 2.339844 a 1.0001,1.0001 0 0 0 0.292969,0.707031 l 1,1 a 1.0001,1.0001 0 0 0 1.261718,0.125 L 21,9.8710938 V 16 a 1,1 0 0 0 1,1 1,1 0 0 0 1,-1 V 8 A 1.0001,1.0001 0 0 0 21.445312,7.1679687 L 17.126953,10.052734 17,9.9257813 V 8 C 17,6.354992 15.645008,5 14,5 Z"
     id="path2" />
  <path
     style="color:#000000;fill:#000000;-inkscape-stroke:none"
     d="M 4,5 C 2.354992,5 1,6.354992 1,8 v 8 c 0,1.645008 1.354992,3 3,3 h 10 c 1.645008,0 3,-1.354992 3,-3 A 1.0001,1.0001 0 0 0 16.707031,15.292969 L 6.7070312,5.2929687 A 1.0001,1.0001 0 0 0 6,5 Z m 0,2 h 1.5859375 l 9.2949215,9.294922 C 14.748118,16.689533 14.447226,17 14,17 H 4 C 3.4358712,17 3,16.564129 3,16 V 8 C 3,7.4358712 3.4358712,7 4,7 Z"
     id="path4" />
  <path
     style="color:#000000;fill:#000000;-inkscape-stroke:none"
     d="m 2,1 a 1,1 0 0 0 -0.7070313,0.2929687 1,1 0 0 0 0,1.4140626 L 21.292969,22.707031 a 1,1 0 0 0 1.414062,0 1,1 0 0 0 0,-1.414062 L 2.7070313,1.2929687 A 1,1 0 0 0 2,1 Z"
     id="line6" />
</svg>
