<?xml version="1.0" encoding="UTF-8" standalone="no"?>
<svg
   width="24"
   height="24"
   viewBox="0 0 24 24"
   fill="none"
   stroke="currentColor"
   stroke-width="2"
   stroke-linecap="round"
   stroke-linejoin="round"
   version="1.1"
   id="svg6"
   xmlns="http://www.w3.org/2000/svg"
   xmlns:svg="http://www.w3.org/2000/svg">
  <defs
     id="defs10" />
  <path
     style="color:#000000;fill:#000000;-inkscape-stroke:none"
     d="m 22.472656,7.1191406 a 1.0001,1.0001 0 0 0 -1.027344,0.048828 l -5.999999,4.0000003 a 1.0001,1.0001 0 0 0 0,1.664062 l 5.999999,4 A 1.0001,1.0001 0 0 0 23,16 V 8 A 1.0001,1.0001 0 0 0 22.472656,7.1191406 Z M 21,9.8691406 V 14.130859 L 17.802734,12 Z"
     id="path2" />
  <path
     style="color:#000000;fill:#000000;-inkscape-stroke:none"
     d="M 4,5 C 2.3552989,5 1,6.3552989 1,8 v 8 c 0,1.644701 1.3552989,3 3,3 h 10 c 1.644701,0 3,-1.355299 3,-3 V 8 C 17,6.3552989 15.644701,5 14,5 Z m 0,2 h 10 c 0.571297,0 1,0.4287033 1,1 v 8 c 0,0.571297 -0.428703,1 -1,1 H 4 C 3.4287033,17 3,16.571297 3,16 V 8 C 3,7.4287033 3.4287033,7 4,7 Z"
     id="rect4" />
</svg>
