<?xml version="1.0" encoding="UTF-8" standalone="no"?>
<svg
   width="24"
   height="24"
   viewBox="0 0 24 24"
   fill="none"
   stroke="currentColor"
   stroke-width="2"
   stroke-linecap="round"
   stroke-linejoin="round"
   version="1.1"
   id="svg10"
   xmlns="http://www.w3.org/2000/svg"
   xmlns:svg="http://www.w3.org/2000/svg">
  <defs
     id="defs14" />
  <path
     style="color:#000000;fill:#000000;-inkscape-stroke:none"
     d="M 12,6 C 6.7967822,6 4.109375,11.546875 4.109375,11.546875 a 1.0001,1.0001 0 0 0 0,0.90625 C 4.109375,12.453125 6.7967822,18 12,18 c 5.202386,0 7.890625,-5.546875 7.890625,-5.546875 a 1.0001,1.0001 0 0 0 0,-0.90625 C 19.890625,11.546875 17.202386,6 12,6 Z m 0,2 c 3.328226,0 5.34014,3.268217 5.769531,4 C 17.34014,12.731783 15.328226,16 12,16 8.6701035,16 6.6571047,12.730828 6.2285156,12 6.6571047,11.269172 8.6701035,8 12,8 Z"
     id="path2" />
  <path
     style="color:#000000;fill:#000000;-inkscape-stroke:none"
     d="m 12,10 c -0.583333,0 -1.148108,0.254756 -1.498047,0.648438 C 10.152014,11.042119 10,11.527778 10,12 c 0,0.472222 0.152014,0.957881 0.501953,1.351563 C 10.851892,13.745244 11.416667,14 12,14 12.583333,14 13.148108,13.745244 13.498047,13.351563 13.847986,12.957881 14,12.472222 14,12 14,11.527778 13.847986,11.042119 13.498047,10.648438 13.148108,10.254756 12.583333,10 12,10 Z"
     id="path4" />
  <path
     style="color:#000000;fill:#000000;-inkscape-stroke:none"
     d="m 3,16 a 1,1 0 0 0 -1,1 v 2 c 0,1.645008 1.354992,3 3,3 h 14 c 1.645008,0 3,-1.354992 3,-3 v -2 a 1,1 0 0 0 -1,-1 1,1 0 0 0 -1,1 v 2 c 0,0.564129 -0.435871,1 -1,1 H 5 C 4.4358712,20 4,19.564129 4,19 V 17 A 1,1 0 0 0 3,16 Z"
     id="path6" />
  <path
     style="color:#000000;fill:#000000;-inkscape-stroke:none"
     d="M 5,2 C 3.354992,2 2,3.354992 2,5 V 7 A 1,1 0 0 0 3,8 1,1 0 0 0 4,7 V 5 C 4,4.4358712 4.4358712,4 5,4 h 14 c 0.564129,0 1,0.4358712 1,1 v 2 a 1,1 0 0 0 1,1 1,1 0 0 0 1,-1 V 5 C 22,3.354992 20.645008,2 19,2 Z"
     id="path8" />
</svg>
