<?xml version="1.0" encoding="UTF-8" standalone="no"?>
<svg
   width="24"
   height="24"
   viewBox="0 0 24 24"
   fill="none"
   stroke="currentColor"
   stroke-width="2"
   stroke-linecap="round"
   stroke-linejoin="round"
   version="1.1"
   id="svg8"
   xmlns="http://www.w3.org/2000/svg"
   xmlns:svg="http://www.w3.org/2000/svg">
  <defs
     id="defs12" />
  <path
     style="color:#000000;fill:#000000;-inkscape-stroke:none"
     d="m 6,7 c -2.7495764,0 -5,2.2504236 -5,5 0,2.749576 2.2504236,5 5,5 2.7495764,0 5,-2.250424 5,-5 C 11,9.2504236 8.7495764,7 6,7 Z m 0,2 c 1.6686972,0 3,1.331303 3,3 0,1.668697 -1.3313028,3 -3,3 C 4.3313028,15 3,13.668697 3,12 3,10.331303 4.3313028,9 6,9 Z"
     id="circle2" />
  <path
     style="color:#000000;fill:#000000;-inkscape-stroke:none"
     d="m 18,7 c -2.749576,0 -5,2.2504236 -5,5 0,2.749576 2.250424,5 5,5 2.749576,0 5,-2.250424 5,-5 0,-2.7495764 -2.250424,-5 -5,-5 z m 0,2 c 1.668697,0 3,1.331303 3,3 0,1.668697 -1.331303,3 -3,3 -1.668697,0 -3,-1.331303 -3,-3 0,-1.668697 1.331303,-3 3,-3 z"
     id="circle4" />
  <path
     style="color:#000000;fill:#000000;-inkscape-stroke:none"
     d="m 6,15 a 1,1 0 0 0 -1,1 1,1 0 0 0 1,1 h 12 a 1,1 0 0 0 1,-1 1,1 0 0 0 -1,-1 z"
     id="line6" />
</svg>
