<?xml version="1.0" encoding="UTF-8" standalone="no"?>
<svg
   width="24"
   height="24"
   viewBox="0 0 24 24"
   fill="none"
   stroke="currentColor"
   stroke-width="2"
   stroke-linecap="round"
   stroke-linejoin="round"
   version="1.1"
   id="svg8"
   xmlns="http://www.w3.org/2000/svg"
   xmlns:svg="http://www.w3.org/2000/svg">
  <defs
     id="defs12" />
  <path
     style="color:#000000;fill:#000000;-inkscape-stroke:none"
     d="M 11.433594,4.0996094 A 1.0001,1.0001 0 0 0 10.375,4.21875 L 5.6484375,8 H 2 A 1.0001,1.0001 0 0 0 1,9 v 6 a 1.0001,1.0001 0 0 0 1,1 H 5.6484375 L 10.375,19.78125 A 1.0001,1.0001 0 0 0 12,19 V 5 A 1.0001,1.0001 0 0 0 11.433594,4.0996094 Z M 10,7.0820312 V 16.917969 L 6.625,14.21875 A 1.0001,1.0001 0 0 0 6,14 H 3 V 10 H 6 A 1.0001,1.0001 0 0 0 6.625,9.78125 Z"
     id="polygon2" />
  <path
     style="color:#000000;fill:#000000;-inkscape-stroke:none"
     d="m 14.832031,7.7519531 a 1,1 0 0 0 0,1.4160157 c 1.569893,1.5703662 1.569893,4.0839302 0,5.6542972 a 1,1 0 0 0 0,1.414062 1,1 0 0 0 1.416016,0 c 2.333923,-2.334628 2.333923,-6.147794 0,-8.4824218 a 1,1 0 0 0 -1.416016,-0.00195 z"
     id="path4" />
  <path
     style="color:#000000;fill:#000000;-inkscape-stroke:none"
     d="m 18.363281,4.2226562 a 1,1 0 0 0 0,1.4140625 c 3.5218,3.522864 3.5218,9.2036983 0,12.7265623 a 1,1 0 0 0 0,1.414063 1,1 0 0 0 1.414063,0 c 4.285831,-4.287126 4.285831,-11.2675625 0,-15.5546878 a 1,1 0 0 0 -1.414063,0 z"
     id="path6" />
</svg>
