<?xml version="1.0" encoding="UTF-8" standalone="no"?>
<svg
   width="24"
   height="24"
   viewBox="0 0 24 24"
   fill="none"
   stroke="currentColor"
   stroke-width="2"
   stroke-linecap="round"
   stroke-linejoin="round"
   version="1.1"
   id="svg8"
   xmlns="http://www.w3.org/2000/svg"
   xmlns:svg="http://www.w3.org/2000/svg">
  <defs
     id="defs12" />
  <path
     style="color:#000000;fill:#000000;-inkscape-stroke:none"
     d="M 11.433594,4.0996094 A 1.0001,1.0001 0 0 0 10.375,4.21875 L 5.6484375,8 H 2 A 1.0001,1.0001 0 0 0 1,9 v 6 a 1.0001,1.0001 0 0 0 1,1 H 5.6484375 L 10.375,19.78125 A 1.0001,1.0001 0 0 0 12,19 V 5 A 1.0001,1.0001 0 0 0 11.433594,4.0996094 Z M 10,7.0820312 V 16.917969 L 6.625,14.21875 A 1.0001,1.0001 0 0 0 6,14 H 3 V 10 H 6 A 1.0001,1.0001 0 0 0 6.625,9.78125 Z"
     id="polygon2" />
  <path
     style="color:#000000;fill:#000000;-inkscape-stroke:none"
     d="m 21.292969,8.2929688 -6,6.0000002 a 1,1 0 0 0 0,1.414062 1,1 0 0 0 1.414062,0 l 6,-5.9999997 a 1,1 0 0 0 0,-1.4140625 1,1 0 0 0 -1.414062,0 z"
     id="line4" />
  <path
     style="color:#000000;fill:#000000;-inkscape-stroke:none"
     d="m 15.292969,8.2929688 a 1,1 0 0 0 0,1.4140625 l 6,5.9999997 a 1,1 0 0 0 1.414062,0 1,1 0 0 0 0,-1.414062 l -6,-6.0000002 a 1,1 0 0 0 -1.414062,0 z"
     id="line6" />
</svg>
