<?xml version="1.0" encoding="UTF-8" standalone="no"?>
<svg
   width="24"
   height="24"
   viewBox="0 0 24 24"
   fill="none"
   stroke="currentColor"
   stroke-width="2"
   stroke-linecap="round"
   stroke-linejoin="round"
   version="1.1"
   id="svg8"
   xmlns="http://www.w3.org/2000/svg"
   xmlns:svg="http://www.w3.org/2000/svg">
  <defs
     id="defs12" />
  <path
     style="color:#000000;fill:#000000;-inkscape-stroke:none"
     d="M 5,2 C 3.3552989,2 2,3.3552989 2,5 v 14 c 0,1.644701 1.3552989,3 3,3 h 14 c 1.644701,0 3,-1.355299 3,-3 V 5 C 22,3.3552989 20.644701,2 19,2 Z m 0,2 h 14 c 0.571297,0 1,0.4287033 1,1 v 14 c 0,0.571297 -0.428703,1 -1,1 H 5 C 4.4287033,20 4,19.571297 4,19 V 5 C 4,4.4287033 4.4287033,4 5,4 Z"
     id="rect2" />
  <path
     style="color:#000000;fill:#000000;-inkscape-stroke:none"
     d="M 5,6 C 3.354992,6 2,7.354992 2,9 A 1,1 0 0 0 3,10 1,1 0 0 0 4,9 C 4,8.4358712 4.4358712,8 5,8 h 14 c 0.564129,0 1,0.4358712 1,1 a 1,1 0 0 0 1,1 1,1 0 0 0 1,-1 C 22,7.354992 20.645008,6 19,6 Z"
     id="path4" />
  <path
     style="color:#000000;fill:#000000;-inkscape-stroke:none"
     d="m 3,10 a 1,1 0 0 0 -1,1 1,1 0 0 0 1,1 h 3 c 0.5499994,0 1.0629177,0.218079 1.3320312,0.541016 a 1.0001,1.0001 0 0 0 0.1347657,0.132812 l 1.0996094,0.900391 -0.074219,-0.06641 c 1.9682825,1.968282 5.1469515,1.968282 7.1152345,0 l -0.07422,0.06641 1.099609,-0.900391 a 1.0001,1.0001 0 0 0 0.07422,-0.06641 C 17.018469,12.295984 17.632943,12 18.099609,12 H 21 a 1,1 0 0 0 1,-1 1,1 0 0 0 -1,-1 h -2.900391 c -1.133332,0 -2.118079,0.504798 -2.80664,1.193359 l 0.07422,-0.06641 -1.09961,0.898438 a 1.0001,1.0001 0 0 0 -0.07422,0.06836 c -1.231714,1.231714 -3.055395,1.231714 -4.287109,0 a 1.0001,1.0001 0 0 0 -0.072266,-0.06836 L 8.7324219,11.126953 8.8691406,11.259766 C 8.1382552,10.382703 7.049999,10 6,10 Z"
     id="path6" />
</svg>
