<?xml version="1.0" encoding="UTF-8" standalone="no"?>
<svg
   width="24"
   height="24"
   viewBox="0 0 24 24"
   fill="none"
   stroke="currentColor"
   stroke-width="2"
   stroke-linecap="round"
   stroke-linejoin="round"
   version="1.1"
   id="svg8"
   xmlns="http://www.w3.org/2000/svg"
   xmlns:svg="http://www.w3.org/2000/svg">
  <defs
     id="defs12" />
  <path
     style="color:#000000;fill:#000000;-inkscape-stroke:none"
     d="M 5,2 C 4.0833344,2 3.2685585,2.3797562 2.7519531,2.9609375 2.2353477,3.5421188 2,4.2777786 2,5 2,5.7222214 2.2353477,6.4578812 2.7519531,7.0390625 3.2685585,7.6202438 4.0833344,8 5,8 h 14 1 v 4 a 1,1 0 0 0 1,1 1,1 0 0 0 1,-1 V 7 A 1.0001,1.0001 0 0 0 21,6 H 20 V 3 A 1.0001,1.0001 0 0 0 19,2 Z M 5,4 H 18 V 6 H 5 C 4.5833341,6 4.3981072,5.8797554 4.2480469,5.7109375 4.0979866,5.5421196 4,5.2777776 4,5 4,4.7222224 4.0979866,4.4578804 4.2480469,4.2890625 4.3981072,4.1202446 4.5833341,4 5,4 Z"
     id="path2" />
  <path
     style="color:#000000;fill:#000000;-inkscape-stroke:none"
     d="M 3,4 A 1,1 0 0 0 2,5 v 14 c 0,1.645008 1.354992,3 3,3 h 16 a 1.0001,1.0001 0 0 0 1,-1 v -5 a 1,1 0 0 0 -1,-1 1,1 0 0 0 -1,1 v 4 H 5 C 4.4358712,20 4,19.564129 4,19 V 5 A 1,1 0 0 0 3,4 Z"
     id="path4" />
  <path
     style="color:#000000;fill:#000000;-inkscape-stroke:none"
     d="m 18,11 c -0.916666,0 -1.731441,0.379756 -2.248047,0.960938 C 15.235348,12.542119 15,13.277779 15,14 c 0,0.722221 0.235348,1.457881 0.751953,2.039062 C 16.268559,16.620244 17.083334,17 18,17 h 4 a 1.0001,1.0001 0 0 0 1,-1 v -4 a 1.0001,1.0001 0 0 0 -1,-1 z m 0,2 h 3 v 2 H 18 C 17.583334,15 17.398107,14.879755 17.248047,14.710938 17.097987,14.54212 17,14.277778 17,14 17,13.722222 17.097987,13.45788 17.248047,13.289063 17.398107,13.120245 17.583334,13 18,13 Z"
     id="path6" />
</svg>
