<?xml version="1.0" encoding="UTF-8" standalone="no"?>
<svg
   width="24"
   height="24"
   viewBox="0 0 24 24"
   fill="none"
   stroke="currentColor"
   stroke-width="2"
   stroke-linecap="round"
   stroke-linejoin="round"
   version="1.1"
   id="svg10"
   xmlns="http://www.w3.org/2000/svg"
   xmlns:svg="http://www.w3.org/2000/svg">
  <defs
     id="defs14" />
  <path
     style="color:#000000;fill:#000000;-inkscape-stroke:none"
     d="M 8,6 C 6.354992,6 5,7.354992 5,9 c 0,1.645008 1.354992,3 3,3 1.645008,0 3,-1.354992 3,-3 C 11,7.354992 9.645008,6 8,6 Z M 8,8 C 8.5641288,8 9,8.4358712 9,9 9,9.5641288 8.5641288,10 8,10 7.4358712,10 7,9.5641288 7,9 7,8.4358712 7.4358712,8 8,8 Z"
     id="circle2" />
  <path
     style="color:#000000;fill:#000000;-inkscape-stroke:none"
     d="M 4,2 C 2.354992,2 1,3.354992 1,5 v 10 c 0,1.645008 1.354992,3 3,3 h 5 11 c 1.645008,0 3,-1.354992 3,-3 V 5 C 23,3.354992 21.645008,2 20,2 Z m 0,2 h 16 c 0.564129,0 1,0.4358712 1,1 v 7.585938 l -2.382813,-2.382813 a 1.0001,1.0001 0 0 0 -0.002,-0.002 C 17.459067,9.051758 15.564709,9.0443909 14.400391,10.185547 a 1.0001,1.0001 0 0 0 -0.0078,0.0078 L 8.5859375,16 H 4 C 3.4358712,16 3,15.564129 3,15 V 5 C 3,4.4358712 3.4358712,4 4,4 Z m 12.503906,7.322266 c 0.251865,8.96e-4 0.503101,0.09996 0.701172,0.296875 l 3.675781,3.675781 C 20.748118,15.689533 20.447226,16 20,16 h -8.585937 l 4.386718,-4.386719 c 0.199468,-0.195499 0.45126,-0.291912 0.703125,-0.291015 z"
     id="path4" />
  <path
     style="color:#000000;fill:#000000;-inkscape-stroke:none"
     d="m 8,20 a 1,1 0 0 0 -1,1 1,1 0 0 0 1,1 h 8 a 1,1 0 0 0 1,-1 1,1 0 0 0 -1,-1 z"
     id="path6" />
  <path
     style="color:#000000;fill:#000000;-inkscape-stroke:none"
     d="m 12,16 a 1,1 0 0 0 -1,1 v 4 a 1,1 0 0 0 1,1 1,1 0 0 0 1,-1 v -4 a 1,1 0 0 0 -1,-1 z"
     id="path8" />
</svg>
