<?xml version="1.0" encoding="UTF-8" standalone="no"?>
<svg
   width="24"
   height="24"
   viewBox="0 0 24 24"
   fill="none"
   stroke="currentColor"
   stroke-width="2"
   stroke-linecap="round"
   stroke-linejoin="round"
   version="1.1"
   id="svg18"
   xmlns="http://www.w3.org/2000/svg"
   xmlns:svg="http://www.w3.org/2000/svg">
  <defs
     id="defs22" />
  <path
     style="color:#000000;fill:#000000;-inkscape-stroke:none"
     d="m 19.5,1.0078125 c -0.571306,0 -1.142182,0.2158688 -1.570313,0.6484375 L 1.65625,17.929687 c -0.86513734,0.856261 -0.86513734,2.284365 0,3.140625 l 1.2675781,1.267579 c 0.854751,0.878344 2.2975928,0.878344 3.1523438,0 L 22.337891,6.0761719 c 0.878344,-0.854751 0.878344,-2.2975928 0,-3.1523438 L 21.070312,1.65625 C 20.642182,1.2236813 20.071306,1.0078125 19.5,1.0078125 Z M 19.351562,3.0625 c 0.09079,-0.091727 0.20609,-0.091727 0.296875,0 a 1.0001,1.0001 0 0 0 0.0039,0.00391 l 1.28125,1.2812499 a 1.0001,1.0001 0 0 0 0.0098,0.00977 c 0.08992,0.087508 0.08992,0.1976481 0,0.2851562 a 1.0001,1.0001 0 0 0 -0.0098,0.00977 L 4.6523437,20.933594 a 1.0001,1.0001 0 0 0 -0.00977,0.0098 c -0.087508,0.08992 -0.1976481,0.08992 -0.2851562,0 a 1.0001,1.0001 0 0 0 -0.00977,-0.0098 l -1.2812499,-1.28125 a 1.0001,1.0001 0 0 0 -0.00391,-0.0039 c -0.091727,-0.09079 -0.091727,-0.206089 0,-0.296875 a 1.0001,1.0001 0 0 0 0.00391,-0.0039 L 19.347656,3.0664063 a 1.0001,1.0001 0 0 0 0.0039,-0.00391 z"
     id="path2" />
  <path
     style="color:#000000;fill:#000000;-inkscape-stroke:none"
     d="m 14,6 a 1,1 0 0 0 -0.707031,0.2929687 1,1 0 0 0 0,1.4140625 l 3,2.9999998 a 1,1 0 0 0 1.414062,0 1,1 0 0 0 0,-1.4140622 l -3,-3.0000001 A 1,1 0 0 0 14,6 Z"
     id="path4" />
  <path
     style="color:#000000;fill:#000000;-inkscape-stroke:none"
     d="M 5,5 A 1,1 0 0 0 4,6 v 4 a 1,1 0 0 0 1,1 1,1 0 0 0 1,-1 V 6 A 1,1 0 0 0 5,5 Z"
     id="path6" />
  <path
     style="color:#000000;fill:#000000;-inkscape-stroke:none"
     d="m 19,13 a 1,1 0 0 0 -1,1 v 4 a 1,1 0 0 0 1,1 1,1 0 0 0 1,-1 v -4 a 1,1 0 0 0 -1,-1 z"
     id="path8" />
  <path
     style="color:#000000;fill:#000000;-inkscape-stroke:none"
     d="M 10,1 A 1,1 0 0 0 9,2 v 2 a 1,1 0 0 0 1,1 1,1 0 0 0 1,-1 V 2 A 1,1 0 0 0 10,1 Z"
     id="path10" />
  <path
     style="color:#000000;fill:#000000;-inkscape-stroke:none"
     d="M 3,7 A 1,1 0 0 0 2,8 1,1 0 0 0 3,9 H 7 A 1,1 0 0 0 8,8 1,1 0 0 0 7,7 Z"
     id="path12" />
  <path
     style="color:#000000;fill:#000000;-inkscape-stroke:none"
     d="m 17,15 a 1,1 0 0 0 -1,1 1,1 0 0 0 1,1 h 4 a 1,1 0 0 0 1,-1 1,1 0 0 0 -1,-1 z"
     id="path14" />
  <path
     style="color:#000000;fill:#000000;-inkscape-stroke:none"
     d="M 9,2 A 1,1 0 0 0 8,3 1,1 0 0 0 9,4 h 2 A 1,1 0 0 0 12,3 1,1 0 0 0 11,2 Z"
     id="path16" />
</svg>
