<?xml version="1.0" encoding="UTF-8" standalone="no"?>
<svg
   width="24"
   height="24"
   viewBox="0 0 24 24"
   fill="none"
   stroke="currentColor"
   stroke-width="2"
   stroke-linecap="round"
   stroke-linejoin="round"
   version="1.1"
   id="svg10"
   xmlns="http://www.w3.org/2000/svg"
   xmlns:svg="http://www.w3.org/2000/svg">
  <defs
     id="defs14" />
  <path
     style="color:#000000;fill:#000000;-inkscape-stroke:none"
     d="M 10.888672,2.3710938 2.8886719,5.5722656 C 1.7558473,6.0246724 1.0049227,7.1257116 1,8.3457031 a 1.0001,1.0001 0 0 0 0,0.00391 V 20 c 0,1.645008 1.354992,3 3,3 h 16 c 1.645008,0 3,-1.354992 3,-3 V 8.3496094 a 1.0001,1.0001 0 0 0 0,-0.00391 C 22.995077,7.1257116 22.244153,6.0246724 21.111328,5.5722656 l -0.002,-0.00195 -7.998047,-3.1992187 a 1.0001,1.0001 0 0 0 -0.002,0 c -0.712476,-0.2837536 -1.506274,-0.2837536 -2.21875,0 a 1.0001,1.0001 0 0 0 -0.002,0 z m 0.742187,1.8574218 c 0.237891,-0.094743 0.500391,-0.094743 0.738282,0 l 8,3.1992188 a 1.0001,1.0001 0 0 0 0,0.00195 C 20.750948,7.5817439 20.998342,7.9425466 21,8.3535156 V 20 c 0,0.564129 -0.435871,1 -1,1 H 4 C 3.4358712,21 3,20.564129 3,20 V 8.3535156 c 0.00166,-0.410969 0.2490516,-0.7717717 0.6308594,-0.9238281 a 1.0001,1.0001 0 0 0 0,-0.00195 z"
     id="path2" />
  <path
     style="color:#000000;fill:#000000;-inkscape-stroke:none"
     d="m 6,17 a 1,1 0 0 0 -1,1 1,1 0 0 0 1,1 h 12 a 1,1 0 0 0 1,-1 1,1 0 0 0 -1,-1 z"
     id="path4" />
  <path
     style="color:#000000;fill:#000000;-inkscape-stroke:none"
     d="m 6,13 a 1,1 0 0 0 -1,1 1,1 0 0 0 1,1 h 12 a 1,1 0 0 0 1,-1 1,1 0 0 0 -1,-1 z"
     id="path6" />
  <path
     style="color:#000000;fill:#000000;-inkscape-stroke:none"
     d="m 6,9 a 1.0001,1.0001 0 0 0 -1,1 v 12 a 1.0001,1.0001 0 0 0 1,1 h 12 a 1.0001,1.0001 0 0 0 1,-1 V 10 A 1.0001,1.0001 0 0 0 18,9 Z m 1,2 H 17 V 21 H 7 Z"
     id="rect8" />
</svg>
