<?xml version="1.0" encoding="UTF-8" standalone="no"?>
<svg
   width="24"
   height="24"
   viewBox="0 0 24 24"
   fill="none"
   stroke="currentColor"
   stroke-width="2"
   stroke-linecap="round"
   stroke-linejoin="round"
   version="1.1"
   id="svg10"
   xmlns="http://www.w3.org/2000/svg"
   xmlns:svg="http://www.w3.org/2000/svg">
  <defs
     id="defs14" />
  <path
     style="color:#000000;fill:#000000;-inkscape-stroke:none"
     d="m 12,5 c -3.8541448,0 -7,3.1458552 -7,7 0,3.854145 3.1458552,7 7,7 3.854145,0 7,-3.145855 7,-7 0,-3.8541448 -3.145855,-7 -7,-7 z m 0,2 c 2.773266,0 5,2.2267344 5,5 0,2.773266 -2.226734,5 -5,5 C 9.2267344,17 7,14.773266 7,12 7,9.2267344 9.2267344,7 12,7 Z"
     id="circle2" />
  <path
     style="color:#000000;fill:#000000;-inkscape-stroke:none"
     d="m 12,9 a 1,1 0 0 0 -1,1 v 2 a 1.0001,1.0001 0 0 0 0.292969,0.707031 l 1,1 a 1,1 0 0 0 1.414062,0 1,1 0 0 0 0,-1.414062 L 13,11.585938 V 10 A 1,1 0 0 0 12,9 Z"
     id="polyline4" />
  <path
     style="color:#000000;fill:#000000;-inkscape-stroke:none"
     d="M 10.658203,1 C 9.2118645,0.97228266 7.9400254,1.9971288 7.6582031,3.4160156 a 1.0001,1.0001 0 0 0 0,0.00391 L 6.8789062,7.4707031 a 1,1 0 0 0 0.7910157,1.171875 1,1 0 0 0 1.171875,-0.7929687 L 9.6210938,3.8046875 C 9.716745,3.3231132 10.130202,2.9905927 10.621094,3 a 1.0001,1.0001 0 0 0 0.01953,0 h 2.679688 a 1.0001,1.0001 0 0 0 0.01953,0 c 0.490891,-0.00941 0.904348,0.3231132 1,0.8046875 a 1.0001,1.0001 0 0 0 0,0.00195 l 0.810547,4.0488281 A 1,1 0 0 0 16.326172,8.640625 1,1 0 0 0 17.111328,7.4648437 L 16.300781,3.4160156 v -0.00195 C 16.018267,1.9960763 14.74653,0.97229396 13.300781,1 Z"
     id="path6" />
  <path
     style="color:#000000;fill:#000000;-inkscape-stroke:none"
     d="m 16.40625,15.330078 a 1,1 0 0 0 -1.177734,0.783203 l -0.808594,4.050781 a 1.0001,1.0001 0 0 0 0,0.002 c -0.09565,0.481574 -0.509109,0.814094 -1,0.804687 a 1.0001,1.0001 0 0 0 -0.01953,0 h -2.720703 a 1.0001,1.0001 0 0 0 -0.01953,0 C 10.169265,20.98011 9.7558075,20.64759 9.6601563,20.166016 a 1.0001,1.0001 0 0 0 0,-0.002 l -0.7988282,-4 A 1,1 0 0 0 7.6835937,15.378906 1,1 0 0 0 6.9003906,16.556641 l 0.7988281,4 c 0.2825143,1.417986 1.5542511,2.441768 3.0000003,2.414062 h 2.68164 c 1.445749,0.02771 2.717486,-0.996076 3,-2.414062 v -0.002 l 0.810547,-4.048828 A 1,1 0 0 0 16.40625,15.330078 Z"
     id="path8" />
</svg>
