<?xml version="1.0" encoding="UTF-8" standalone="no"?>
<svg
   width="24"
   height="24"
   viewBox="0 0 24 24"
   fill="none"
   stroke="currentColor"
   stroke-width="2"
   stroke-linecap="round"
   stroke-linejoin="round"
   version="1.1"
   id="svg8"
   xmlns="http://www.w3.org/2000/svg"
   xmlns:svg="http://www.w3.org/2000/svg">
  <defs
     id="defs12" />
  <path
     style="color:#000000;fill:#000000;-inkscape-stroke:none"
     d="M 9.5,4 C 7.9833349,4 6.9999994,4.7187505 6.375,5.21875 5.7500006,5.7187495 5.4833324,6 4.5,6 3.4564113,6 3.2406244,5.7324214 2.640625,5.2324219 A 1,1 0 0 0 1.2324219,5.359375 1,1 0 0 0 1.359375,6.7675781 C 1.9593744,7.2675776 2.9435913,8 4.5,8 6.0166651,8 7.0000006,7.2812495 7.625,6.78125 8.2499994,6.2812505 8.5166677,6 9.5,6 10.543589,6 10.759376,6.2675786 11.359375,6.7675781 11.959374,7.2675776 12.943591,8 14.5,8 16.016665,8 17.000001,7.2812495 17.625,6.78125 18.249999,6.2812505 18.516668,6 19.5,6 c 1.043589,0 1.259376,0.2675786 1.859375,0.7675781 A 1,1 0 0 0 22.767578,6.640625 1,1 0 0 0 22.640625,5.2324219 C 22.040626,4.7324224 21.056409,4 19.5,4 17.983335,4 16.999999,4.7187505 16.375,5.21875 15.750001,5.7187495 15.483332,6 14.5,6 13.456411,6 13.240624,5.7324214 12.640625,5.2324219 12.040626,4.7324224 11.056409,4 9.5,4 Z"
     id="path2" />
  <path
     style="color:#000000;fill:#000000;-inkscape-stroke:none"
     d="M 9.5,10 C 7.9833349,10 6.9999994,10.718751 6.375,11.21875 5.7500006,11.71875 5.4833324,12 4.5,12 3.4564113,12 3.2406244,11.732421 2.640625,11.232422 A 1,1 0 0 0 1.2324219,11.359375 1,1 0 0 0 1.359375,12.767578 C 1.9593744,13.267578 2.9435913,14 4.5,14 6.0166651,14 7.0000006,13.28125 7.625,12.78125 8.2499994,12.281251 8.5166677,12 9.5,12 c 1.043589,0 1.259376,0.267579 1.859375,0.767578 C 11.959374,13.267578 12.943591,14 14.5,14 16.016665,14 17.000001,13.28125 17.625,12.78125 18.249999,12.281251 18.516668,12 19.5,12 c 1.043589,0 1.259376,0.267579 1.859375,0.767578 a 1,1 0 0 0 1.408203,-0.126953 1,1 0 0 0 -0.126953,-1.408203 C 22.040626,10.732422 21.056409,10 19.5,10 17.983335,10 16.999999,10.718751 16.375,11.21875 15.750001,11.71875 15.483332,12 14.5,12 13.456411,12 13.240624,11.732421 12.640625,11.232422 12.040626,10.732422 11.056409,10 9.5,10 Z"
     id="path4" />
  <path
     style="color:#000000;fill:#000000;-inkscape-stroke:none"
     d="M 9.5,16 C 7.9833349,16 6.9999994,16.71875 6.375,17.21875 5.7500006,17.71875 5.4833324,18 4.5,18 3.4564113,18 3.2406244,17.732421 2.640625,17.232422 A 1,1 0 0 0 1.2324219,17.359375 1,1 0 0 0 1.359375,18.767578 C 1.9593744,19.267578 2.9435913,20 4.5,20 6.0166651,20 7.0000006,19.28125 7.625,18.78125 8.2499994,18.28125 8.5166677,18 9.5,18 c 1.043589,0 1.259376,0.267579 1.859375,0.767578 C 11.959374,19.267578 12.943591,20 14.5,20 16.016665,20 17.000001,19.28125 17.625,18.78125 18.249999,18.28125 18.516668,18 19.5,18 c 1.043589,0 1.259376,0.267579 1.859375,0.767578 a 1,1 0 0 0 1.408203,-0.126953 1,1 0 0 0 -0.126953,-1.408203 C 22.040626,16.732422 21.056409,16 19.5,16 17.983335,16 16.999999,16.71875 16.375,17.21875 15.750001,17.71875 15.483332,18 14.5,18 13.456411,18 13.240624,17.732421 12.640625,17.232422 12.040626,16.732422 11.056409,16 9.5,16 Z"
     id="path6" />
</svg>
