<?xml version="1.0" encoding="UTF-8" standalone="no"?>
<svg
   width="24"
   height="24"
   viewBox="0 0 24 24"
   fill="none"
   stroke="currentColor"
   stroke-width="2"
   stroke-linecap="round"
   stroke-linejoin="round"
   version="1.1"
   id="svg8"
   xmlns="http://www.w3.org/2000/svg"
   xmlns:svg="http://www.w3.org/2000/svg">
  <defs
     id="defs12" />
  <path
     style="color:#000000;fill:#000000;-inkscape-stroke:none"
     d="M 2.3398438,14.027344 A 1,1 0 0 0 1.71875,14.474609 C 1.2466389,15.240195 1.0124482,16.114953 1,16.986328 A 1.0001,1.0001 0 0 0 1,17 c 7.895e-4,2.527924 1.7644902,4.344138 3.7890625,4.849609 2.0245723,0.505471 4.4341332,-0.269107 5.6230465,-2.5 l -0.0059,0.01367 c 0.444844,-0.805756 1.073213,-1.382812 1.603516,-1.382812 H 18 a 1,1 0 0 0 1,-1 1,1 0 0 0 -1,-1 h -5.990234 c -1.669696,0 -2.7403146,1.301773 -3.3554691,2.416015 a 1.0001,1.0001 0 0 0 -0.00586,0.01367 c -0.7695313,1.443959 -2.1245124,1.812207 -3.375,1.5 C 4.0248224,19.598417 3.005517,18.637605 3.0019531,17.005859 3.0108967,16.480012 3.1553807,15.957543 3.421875,15.525391 A 1,1 0 0 0 3.0957031,14.148438 1,1 0 0 0 2.3398438,14.027344 Z"
     id="path2" />
  <path
     style="color:#000000;fill:#000000;-inkscape-stroke:none"
     d="M 11.224609,1.03125 C 10.608749,1.1478228 10.017344,1.3761979 9.4824219,1.6914062 8.4125767,2.321823 7.5404397,3.3152249 7.1542969,4.5566406 6.7681541,5.7980564 6.9218551,7.2759645 7.78125,8.6503906 a 1.0001,1.0001 0 0 0 0.011719,0.015625 c 0.500261,0.7670668 0.712077,1.6110114 0.4589844,2.0742184 A 1.0001,1.0001 0 0 0 8.25,10.744141 l -3.1289063,5.779296 a 1,1 0 0 0 0.4023438,1.355469 1,1 0 0 0 1.3554687,-0.402344 L 10.007813,11.699219 C 10.814719,10.222428 10.166535,8.6471501 9.4667969,7.5742187 l 0.011719,0.015625 C 8.8864362,6.642934 8.8437208,5.8537467 9.0625,5.1503906 9.2812792,4.4470345 9.8143655,3.8169285 10.498047,3.4140625 11.181728,3.0111965 11.991608,2.8505848 12.712891,3 c 0.721283,0.1494152 1.390189,0.5681792 1.93164,1.5449219 a 1,1 0 0 0 1.359375,0.390625 1,1 0 0 0 0.390625,-1.3613281 C 15.608622,2.1564906 14.390244,1.3047319 13.117188,1.0410156 12.480659,0.9091575 11.84047,0.9146772 11.224609,1.03125 Z"
     id="path4" />
  <path
     style="color:#000000;fill:#000000;-inkscape-stroke:none"
     d="m 12.28125,5.0410156 a 1,1 0 0 0 -0.759766,0.082031 1,1 0 0 0 -0.398437,1.3554687 l 3.128906,5.7304684 C 15.05504,13.678784 16.718183,14 18,14 c 1.083332,0 1.76856,0.370245 2.251953,0.914063 C 20.735346,15.45788 21,16.222223 21,17 21,17.777777 20.735346,18.54212 20.251953,19.085937 19.76856,19.629755 19.083332,20 18,20 a 1,1 0 0 0 -1,1 1,1 0 0 0 1,1 c 1.583331,0 2.898109,-0.629757 3.748047,-1.585938 C 22.597985,19.457882 23,18.222221 23,17 23,15.777779 22.597985,14.542118 21.748047,13.585938 20.898109,12.629757 19.583331,12 18,12 17.081819,12 16.264725,11.720198 16.007812,11.25 L 12.876953,5.5214844 A 1,1 0 0 0 12.28125,5.0410156 Z"
     id="path6" />
</svg>
