<?xml version="1.0" encoding="UTF-8" standalone="no"?>
<svg
   width="24"
   height="24"
   viewBox="0 0 24 24"
   fill="none"
   stroke="currentColor"
   stroke-width="2"
   stroke-linecap="round"
   stroke-linejoin="round"
   version="1.1"
   id="svg22"
   xmlns="http://www.w3.org/2000/svg"
   xmlns:svg="http://www.w3.org/2000/svg">
  <defs
     id="defs26" />
  <path
     style="color:#000000;fill:#000000;-inkscape-stroke:none"
     d="m 12,11 a 1,1 0 0 0 -0.707031,0.292969 l -10.0000003,10 a 1,1 0 0 0 0,1.414062 1,1 0 0 0 1.4140626,0 l 9.9999997,-10 a 1,1 0 0 0 0,-1.414062 A 1,1 0 0 0 12,11 Z"
     id="path2" />
  <path
     style="color:#000000;fill:#000000;-inkscape-stroke:none"
     d="m 15.292969,7.2929687 -1.169922,1.1699219 a 1,1 0 0 0 0,1.4140625 1,1 0 0 0 1.414062,0 l 1.169922,-1.1699218 a 1,1 0 0 0 0,-1.4140626 1,1 0 0 0 -1.414062,0 z"
     id="path4" />
  <path
     style="color:#000000;fill:#000000;-inkscape-stroke:none"
     d="m 4.2929687,10.292969 -1.5292968,1.529297 a 1.0001,1.0001 0 0 0 -0.00195,0.002 c -1.7407623,1.747625 -1.7407623,4.603937 0,6.351562 a 1.0001,1.0001 0 0 0 0.00195,0.002 l 1.5292968,1.529297 a 1.0001,1.0001 0 0 0 1.4140625,0 l 1.5292969,-1.529297 a 1.0001,1.0001 0 0 0 0.00195,-0.002 c 1.7407623,-1.747625 1.7407623,-4.603937 0,-6.351562 a 1.0001,1.0001 0 0 0 -0.00195,-0.002 L 5.7070312,10.292969 a 1.0001,1.0001 0 0 0 -1.4140625,0 z M 5,12.414063 5.8222656,13.236328 c 0.979934,0.983797 0.979934,2.543547 0,3.527344 L 5,17.585937 4.1777344,16.763672 c -0.979934,-0.983797 -0.979934,-2.543547 0,-3.527344 z"
     id="path6" />
  <path
     style="color:#000000;fill:#000000;-inkscape-stroke:none"
     d="M 8,7 A 1,1 0 0 0 7.2929687,7.2929687 L 6.7636719,7.8222656 a 1.0001,1.0001 0 0 0 -0.00195,0.00195 c -1.7407622,1.7476252 -1.7407622,4.6039373 0,6.3515623 a 1.0001,1.0001 0 0 0 0.00195,0.002 l 1.5292969,1.529297 a 1.0001,1.0001 0 0 0 1.4140625,0 L 11.236328,14.177734 C 11.944891,13.469172 12.37091,12.566163 12.5,11.636719 a 1,1 0 0 0 -0.851562,-1.126953 1,1 0 0 0 -1.128907,0.853515 c -0.07091,0.510554 -0.305829,1.008955 -0.6972654,1.400391 L 9,13.585938 8.1777344,12.763672 c -0.979934,-0.983797 -0.979934,-2.543547 0,-3.5273439 L 8.7070313,8.7070313 a 1,1 0 0 0 0,-1.4140626 A 1,1 0 0 0 8,7 Z"
     id="path8" />
  <path
     style="color:#000000;fill:#000000;-inkscape-stroke:none"
     d="m 12.292969,2.2929688 -1.529297,1.5292968 c -0.284282,0.2842822 -0.526703,0.6012324 -0.720703,0.9375 a 1,1 0 0 0 0.367187,1.3671875 1,1 0 0 0 1.365235,-0.3671875 C 11.88139,5.5760337 12.022017,5.3920455 12.177734,5.2363281 L 13,4.4140625 13.820313,5.2363281 c 0.893835,0.8981977 0.97999,2.2992575 0.201171,3.2988282 a 1,1 0 0 0 0.173829,1.4042968 1,1 0 0 0 1.404296,-0.1757812 c 1.388352,-1.781871 1.232056,-4.3382934 -0.361328,-5.9394531 a 1.0001,1.0001 0 0 0 -0.002,-0.00195 L 13.707031,2.2929688 a 1.0001,1.0001 0 0 0 -1.414062,0 z"
     id="path10" />
  <path
     style="color:#000000;fill:#000000;-inkscape-stroke:none"
     d="m 20,1 c -2.749576,0 -5,2.2504236 -5,5 v 2 a 1.0001,1.0001 0 0 0 1,1 h 2 c 2.749576,0 5,-2.2504236 5,-5 V 2 A 1.0001,1.0001 0 0 0 22,1 Z m 0,2 h 1 v 1 c 0,1.6686972 -1.331303,3 -3,3 H 17 V 6 c 0,-1.6686972 1.331303,-3 3,-3 z"
     id="path12" />
  <path
     style="color:#000000;fill:#000000;-inkscape-stroke:none"
     d="m 9,15.455078 c -1.1509493,0 -2.3019687,0.43626 -3.1757813,1.306641 a 1.0001,1.0001 0 0 0 -0.00195,0.002 l -1.5292969,1.529297 a 1.0001,1.0001 0 0 0 0,1.414062 l 1.5292969,1.529297 a 1.0001,1.0001 0 0 0 0.00195,0.002 c 1.7476252,1.740763 4.6039373,1.740763 6.3515623,0 a 1.0001,1.0001 0 0 0 0.002,-0.002 l 1.529297,-1.529297 a 1.0001,1.0001 0 0 0 0,-1.414062 l -1.529297,-1.529297 a 1.0001,1.0001 0 0 0 -0.002,-0.002 C 11.301969,15.891338 10.150949,15.455078 9,15.455078 Z m 0,1.988281 c 0.6361926,0 1.271773,0.244408 1.763672,0.734375 L 11.585938,19 10.763672,19.822266 c -0.9837975,0.979934 -2.5435465,0.979934 -3.5273439,0 L 6.4140625,19 7.2363281,18.177734 C 7.7282268,17.687767 8.3638074,17.443359 9,17.443359 Z"
     id="path14" />
  <path
     style="color:#000000;fill:#000000;-inkscape-stroke:none"
     d="m 12.359375,11.5 c -0.95853,0.135975 -1.848479,0.577313 -2.5351562,1.259766 a 1.0001,1.0001 0 0 0 -0.00195,0.0039 l -1.5292968,1.529297 a 1.0001,1.0001 0 0 0 0,1.414062 l 1.5292968,1.529297 a 1.0001,1.0001 0 0 0 0.00195,0.002 c 1.7476252,1.740763 4.6039372,1.740763 6.3515622,0 a 1.0001,1.0001 0 0 0 0.002,-0.002 l 0.529297,-0.529297 a 1,1 0 0 0 0,-1.414062 1,1 0 0 0 -1.414062,0 l -0.529297,0.529297 c -0.983797,0.979934 -2.543547,0.979934 -3.527344,0 L 10.414063,15 l 0.820312,-0.820312 0.002,-0.002 c 0.380699,-0.377543 0.8734,-0.621953 1.404297,-0.697265 A 1,1 0 0 0 13.490234,12.349609 1,1 0 0 0 12.359375,11.5 Z"
     id="path16" />
  <path
     style="color:#000000;fill:#000000;-inkscape-stroke:none"
     d="m 17.273437,7.4628906 c -1.062119,-0.064371 -2.146173,0.2433244 -3.037109,0.9375 a 1,1 0 0 0 -0.175781,1.4042969 1,1 0 0 0 1.404297,0.1738281 c 0.99957,-0.7788191 2.40063,-0.6926634 3.298828,0.2011724 L 19.585937,11 18.763672,11.822266 c -0.155718,0.155717 -0.339706,0.296344 -0.523438,0.402343 a 1,1 0 0 0 -0.367187,1.365235 1,1 0 0 0 1.367187,0.367187 c 0.336268,-0.194 0.653218,-0.436421 0.9375,-0.720703 l 1.529297,-1.529297 a 1.0001,1.0001 0 0 0 0,-1.414062 L 20.177734,8.7636719 a 1.0001,1.0001 0 0 0 -0.002,-0.00195 C 19.375201,7.9650271 18.335557,7.5272615 17.273437,7.4628906 Z"
     id="path18" />
  <path
     style="color:#000000;fill:#000000;-inkscape-stroke:none"
     d="m 2,1 a 1,1 0 0 0 -0.7070313,0.2929687 1,1 0 0 0 0,1.4140626 L 21.292969,22.707031 a 1,1 0 0 0 1.414062,0 1,1 0 0 0 0,-1.414062 L 2.7070313,1.2929687 A 1,1 0 0 0 2,1 Z"
     id="line20" />
</svg>
