<?xml version="1.0" encoding="UTF-8" standalone="no"?>
<svg
   width="24"
   height="24"
   viewBox="0 0 24 24"
   fill="none"
   stroke="currentColor"
   stroke-width="2"
   stroke-linecap="round"
   stroke-linejoin="round"
   version="1.1"
   id="svg18"
   xmlns="http://www.w3.org/2000/svg"
   xmlns:svg="http://www.w3.org/2000/svg">
  <defs
     id="defs22" />
  <path
     style="color:#000000;fill:#000000;-inkscape-stroke:none"
     d="M 15.292969,7.2929687 1.2929687,21.292969 a 1,1 0 0 0 0,1.414062 1,1 0 0 0 1.4140626,0 L 16.707031,8.7070313 a 1,1 0 0 0 0,-1.4140626 1,1 0 0 0 -1.414062,0 z"
     id="path2" />
  <path
     style="color:#000000;fill:#000000;-inkscape-stroke:none"
     d="m 4.2929687,10.292969 -1.5292968,1.529297 a 1.0001,1.0001 0 0 0 -0.00195,0.002 c -1.7407623,1.747625 -1.7407623,4.603937 0,6.351562 a 1.0001,1.0001 0 0 0 0.00195,0.002 l 1.5292968,1.529297 a 1.0001,1.0001 0 0 0 1.4140625,0 l 1.5292969,-1.529297 a 1.0001,1.0001 0 0 0 0.00195,-0.002 c 1.7407623,-1.747625 1.7407623,-4.603937 0,-6.351562 a 1.0001,1.0001 0 0 0 -0.00195,-0.002 L 5.7070312,10.292969 a 1.0001,1.0001 0 0 0 -1.4140625,0 z M 5,12.414063 5.8222656,13.236328 c 0.979934,0.983797 0.979934,2.543547 0,3.527344 L 5,17.585937 4.1777344,16.763672 c -0.979934,-0.983797 -0.979934,-2.543547 0,-3.527344 z"
     id="path4" />
  <path
     style="color:#000000;fill:#000000;-inkscape-stroke:none"
     d="M 8.2929688,6.2929687 6.7636719,7.8222656 a 1.0001,1.0001 0 0 0 -0.00195,0.00195 c -1.7407622,1.7476252 -1.7407622,4.6039373 0,6.3515623 a 1.0001,1.0001 0 0 0 0.00195,0.002 l 1.5292969,1.529297 a 1.0001,1.0001 0 0 0 1.4140625,0 l 1.5292967,-1.529297 a 1.0001,1.0001 0 0 0 0.002,-0.002 c 1.740763,-1.747625 1.740763,-4.6039371 0,-6.3515623 a 1.0001,1.0001 0 0 0 -0.002,-0.00195 L 9.7070313,6.2929687 a 1.0001,1.0001 0 0 0 -1.4140625,0 z M 9,8.4140625 9.8222656,9.2363281 c 0.9799344,0.9837969 0.9799344,2.5435469 0,3.5273439 L 9,13.585938 8.1777344,12.763672 c -0.979934,-0.983797 -0.979934,-2.543547 0,-3.5273439 z"
     id="path6" />
  <path
     style="color:#000000;fill:#000000;-inkscape-stroke:none"
     d="m 12.292969,2.2929688 -1.529297,1.5292968 a 1.0001,1.0001 0 0 0 -0.002,0.00195 c -1.7407625,1.7476251 -1.7407625,4.6039373 0,6.3515622 a 1.0001,1.0001 0 0 0 0.002,0.002 l 1.529297,1.529297 a 1.0001,1.0001 0 0 0 1.414062,0 l 1.529297,-1.529297 a 1.0001,1.0001 0 0 0 0.002,-0.002 c 1.740763,-1.7476249 1.740763,-4.6039371 0,-6.3515622 a 1.0001,1.0001 0 0 0 -0.002,-0.00195 L 13.707031,2.2929688 a 1.0001,1.0001 0 0 0 -1.414062,0 z M 13,4.4140625 13.822266,5.2363281 c 0.979934,0.9837974 0.979934,2.5435464 0,3.5273438 L 13,9.5859375 12.177734,8.7636719 c -0.979934,-0.9837974 -0.979934,-2.5435464 0,-3.5273438 z"
     id="path8" />
  <path
     style="color:#000000;fill:#000000;-inkscape-stroke:none"
     d="m 20,1 c -2.749576,0 -5,2.2504236 -5,5 v 2 a 1.0001,1.0001 0 0 0 1,1 h 2 c 2.749576,0 5,-2.2504236 5,-5 V 2 A 1.0001,1.0001 0 0 0 22,1 Z m 0,2 h 1 v 1 c 0,1.6686972 -1.331303,3 -3,3 H 17 V 6 c 0,-1.6686972 1.331303,-3 3,-3 z"
     id="path10" />
  <path
     style="color:#000000;fill:#000000;-inkscape-stroke:none"
     d="m 9,15.455078 c -1.1509493,0 -2.3019687,0.43626 -3.1757813,1.306641 a 1.0001,1.0001 0 0 0 -0.00195,0.002 l -1.5292969,1.529297 a 1.0001,1.0001 0 0 0 0,1.414062 l 1.5292969,1.529297 a 1.0001,1.0001 0 0 0 0.00195,0.002 c 1.7476252,1.740763 4.6039373,1.740763 6.3515623,0 a 1.0001,1.0001 0 0 0 0.002,-0.002 l 1.529297,-1.529297 a 1.0001,1.0001 0 0 0 0,-1.414062 l -1.529297,-1.529297 a 1.0001,1.0001 0 0 0 -0.002,-0.002 C 11.301969,15.891338 10.150949,15.455078 9,15.455078 Z m 0,1.988281 c 0.6361926,0 1.271773,0.244408 1.763672,0.734375 L 11.585938,19 10.763672,19.822266 c -0.9837975,0.979934 -2.5435465,0.979934 -3.5273439,0 L 6.4140625,19 7.2363281,18.177734 C 7.7282268,17.687767 8.3638074,17.443359 9,17.443359 Z"
     id="path12" />
  <path
     style="color:#000000;fill:#000000;-inkscape-stroke:none"
     d="m 13,11.455078 c -1.150949,0 -2.301969,0.43626 -3.1757812,1.306641 a 1.0001,1.0001 0 0 0 -0.00195,0.002 l -1.5292968,1.529297 a 1.0001,1.0001 0 0 0 0,1.414062 l 1.5292968,1.529297 a 1.0001,1.0001 0 0 0 0.00195,0.002 c 1.7476252,1.740763 4.6039372,1.740763 6.3515622,0 a 1.0001,1.0001 0 0 0 0.002,-0.002 l 1.529297,-1.529297 a 1.0001,1.0001 0 0 0 0,-1.414062 l -1.529297,-1.529297 a 1.0001,1.0001 0 0 0 -0.002,-0.002 C 15.301969,11.891338 14.150949,11.455078 13,11.455078 Z m 0,1.988281 c 0.636193,0 1.271773,0.244408 1.763672,0.734375 L 15.585938,15 14.763672,15.822266 c -0.983797,0.979934 -2.543547,0.979934 -3.527344,0 L 10.414063,15 11.236328,14.177734 C 11.728227,13.687767 12.363807,13.443359 13,13.443359 Z"
     id="path14" />
  <path
     style="color:#000000;fill:#000000;-inkscape-stroke:none"
     d="m 17,7.4550781 c -1.150949,0 -2.301969,0.4362595 -3.175781,1.3066407 a 1.0001,1.0001 0 0 0 -0.002,0.00195 l -1.529297,1.5292971 a 1.0001,1.0001 0 0 0 0,1.414062 l 1.529297,1.529297 a 1.0001,1.0001 0 0 0 0.002,0.002 c 1.747625,1.740763 4.603937,1.740763 6.351562,0 a 1.0001,1.0001 0 0 0 0.002,-0.002 l 1.529297,-1.529297 a 1.0001,1.0001 0 0 0 0,-1.414062 L 20.177734,8.7636719 a 1.0001,1.0001 0 0 0 -0.002,-0.00195 C 19.301969,7.8913376 18.150949,7.4550781 17,7.4550781 Z m 0,1.9882813 c 0.636193,0 1.271773,0.244408 1.763672,0.7343746 L 19.585937,11 18.763672,11.822266 c -0.983797,0.979934 -2.543547,0.979934 -3.527344,0 L 14.414063,11 15.236328,10.177734 C 15.728227,9.6877674 16.363807,9.4433594 17,9.4433594 Z"
     id="path16" />
</svg>
