<?xml version="1.0" encoding="UTF-8" standalone="no"?>
<svg
   width="24"
   height="24"
   viewBox="0 0 24 24"
   fill="none"
   stroke="currentColor"
   stroke-width="2"
   stroke-linecap="round"
   stroke-linejoin="round"
   version="1.1"
   id="svg12"
   xmlns="http://www.w3.org/2000/svg"
   xmlns:svg="http://www.w3.org/2000/svg">
  <defs
     id="defs16" />
  <path
     style="color:#000000;fill:#000000;-inkscape-stroke:none"
     d="m 7,8 c -2.1972922,0 -4,1.8027078 -4,4 0,2.197292 1.8027078,4 4,4 2.1972922,0 4,-1.802708 4,-4 C 11,9.8027078 9.1972922,8 7,8 Z m 0,2 c 1.116413,0 2,0.883587 2,2 0,1.116413 -0.883587,2 -2,2 -1.116413,0 -2,-0.883587 -2,-2 0,-1.116413 0.883587,-2 2,-2 z"
     id="circle2" />
  <path
     style="color:#000000;fill:#000000;-inkscape-stroke:none"
     d="M 10,8 A 1,1 0 0 0 9,9 v 6 a 1,1 0 0 0 1,1 1,1 0 0 0 1,-1 V 9 A 1,1 0 0 0 10,8 Z"
     id="path4" />
  <path
     style="color:#000000;fill:#000000;-inkscape-stroke:none"
     d="m 17,8 c -2.197292,0 -4,1.8027078 -4,4 0,2.197292 1.802708,4 4,4 2.197292,0 4,-1.802708 4,-4 0,-2.1972922 -1.802708,-4 -4,-4 z m 0,2 c 1.116413,0 2,0.883587 2,2 0,1.116413 -0.883587,2 -2,2 -1.116413,0 -2,-0.883587 -2,-2 0,-1.116413 0.883587,-2 2,-2 z"
     id="circle6" />
  <path
     style="color:#000000;fill:#000000;-inkscape-stroke:none"
     d="m 14,6 a 1,1 0 0 0 -1,1 v 8 a 1,1 0 0 0 1,1 1,1 0 0 0 1,-1 V 7 A 1,1 0 0 0 14,6 Z"
     id="path8" />
  <path
     style="color:#000000;fill:#000000;-inkscape-stroke:none"
     d="m 2,16 a 1,1 0 0 0 -1,1 v 1 c 0,0.583333 0.2608343,1.049897 0.6054687,1.394531 C 1.9501032,19.739166 2.4166673,20 3,20 h 18 c 0.583333,0 1.049897,-0.260834 1.394531,-0.605469 C 22.739166,19.049897 23,18.583333 23,18 v -1 a 1,1 0 0 0 -1,-1 1,1 0 0 0 -1,1 v 1 H 3 V 17 A 1,1 0 0 0 2,16 Z"
     id="path10" />
</svg>
