<?xml version="1.0" encoding="UTF-8" standalone="no"?>
<svg
   width="24"
   height="24"
   viewBox="0 0 24 24"
   fill="none"
   stroke="currentColor"
   stroke-width="2"
   stroke-linecap="round"
   stroke-linejoin="round"
   version="1.1"
   id="svg16"
   xmlns="http://www.w3.org/2000/svg"
   xmlns:svg="http://www.w3.org/2000/svg">
  <defs
     id="defs20" />
  <path
     style="color:#000000;fill:#000000;-inkscape-stroke:none"
     d="m 2,1 a 1,1 0 0 0 -0.7070313,0.2929687 1,1 0 0 0 0,1.4140626 L 21.292969,22.707031 a 1,1 0 0 0 1.414062,0 1,1 0 0 0 0,-1.414062 L 2.7070313,1.2929687 A 1,1 0 0 0 2,1 Z"
     id="line2" />
  <path
     style="color:#000000;fill:#000000;-inkscape-stroke:none"
     d="m 12,14.076172 c -1.518719,0 -3.0366611,0.56945 -4.1992188,1.708984 a 1,1 0 0 0 -0.015625,1.414063 1,1 0 0 0 1.4140626,0.01563 c 1.5633162,-1.532356 4.0382462,-1.532356 5.6015622,0 a 1,1 0 0 0 1.414063,-0.01563 1,1 0 0 0 -0.01563,-1.414063 C 15.036661,14.645622 13.518719,14.076172 12,14.076172 Z"
     id="path4" />
  <path
     style="color:#000000;fill:#000000;-inkscape-stroke:none"
     d="M 6.5449219,5.2421875 A 1,1 0 0 0 5.7792969,5.25 C 4.150585,5.9398788 2.648256,6.8945681 1.3320312,8.0761719 a 1,1 0 0 0 -0.076172,1.4121094 1,1 0 0 0 1.4121094,0.076172 C 3.8196726,8.5305434 5.1354151,7.6934915 6.5605469,7.0898437 A 1,1 0 0 0 7.0898437,5.7792969 1,1 0 0 0 6.5449219,5.2421875 Z"
     id="path6" />
  <path
     style="color:#000000;fill:#000000;-inkscape-stroke:none"
     d="M 10.570313,4.0039062 A 1,1 0 0 0 9.6640625,5.0898437 1,1 0 0 0 10.75,5.9960937 c 3.742123,-0.3359512 7.593933,0.8374073 10.583984,3.5097657 a 1,1 0 0 0 1.41211,-0.080078 1,1 0 0 0 -0.08008,-1.4121094 C 19.256073,4.966036 14.848181,3.6198582 10.570313,4.0039062 Z"
     id="path8" />
  <path
     style="color:#000000;fill:#000000;-inkscape-stroke:none"
     d="m 16.576172,10.289063 a 1,1 0 0 0 -0.599609,0.474609 1,1 0 0 0 0.386718,1.359375 c 0.733244,0.408374 1.405805,0.917022 1.998047,1.511719 a 1,1 0 0 0 1.414063,0.0039 1,1 0 0 0 0.0039,-1.414063 c -0.723848,-0.726848 -1.547177,-1.348535 -2.44336,-1.847656 a 1,1 0 0 0 -0.759765,-0.08789 z"
     id="path10" />
  <path
     style="color:#000000;fill:#000000;-inkscape-stroke:none"
     d="M 10.056641,9.2578125 C 7.8729339,9.6645794 5.8636053,10.722257 4.2929687,12.292969 a 1,1 0 0 0 0,1.414062 1,1 0 0 0 1.4140625,0 c 1.2851969,-1.285258 2.9299463,-2.151532 4.7167968,-2.484375 a 1,1 0 0 0 0.798828,-1.166015 1,1 0 0 0 -1.166015,-0.7988285 z"
     id="path12" />
  <path
     style="color:#000000;fill:#000000;-inkscape-stroke:none"
     d="m 12,19 a 1,1 0 0 0 -1,1 1,1 0 0 0 1,1 h 0.0098 a 1,1 0 0 0 1,-1 1,1 0 0 0 -1,-1 z"
     id="line14" />
</svg>
