<?xml version="1.0" encoding="UTF-8" standalone="no"?>
<svg
   width="24"
   height="24"
   viewBox="0 0 24 24"
   fill="none"
   stroke="currentColor"
   stroke-width="2"
   stroke-linecap="round"
   stroke-linejoin="round"
   version="1.1"
   id="svg10"
   xmlns="http://www.w3.org/2000/svg"
   xmlns:svg="http://www.w3.org/2000/svg">
  <defs
     id="defs14" />
  <path
     style="color:#000000;fill:#000000;-inkscape-stroke:none"
     d="m 12,9.1464844 c -2.7826634,0 -5.5645533,1.0462816 -7.6992188,3.1386716 a 1,1 0 0 0 -0.015625,1.414063 1,1 0 0 0 1.4140625,0.01563 c 3.5075317,-3.438069 9.0940313,-3.438069 12.6015623,0 a 1,1 0 0 0 1.414063,-0.01563 1,1 0 0 0 -0.01563,-1.414063 C 17.564553,10.192766 14.782663,9.1464844 12,9.1464844 Z"
     id="path2" />
  <path
     style="color:#000000;fill:#000000;-inkscape-stroke:none"
     d="m 12,14.076172 c -1.518719,0 -3.0366611,0.56945 -4.1992188,1.708984 a 1,1 0 0 0 -0.015625,1.414063 1,1 0 0 0 1.4140626,0.01563 c 1.5633162,-1.532356 4.0382462,-1.532356 5.6015622,0 a 1,1 0 0 0 1.414063,-0.01563 1,1 0 0 0 -0.01563,-1.414063 C 15.036661,14.645622 13.518719,14.076172 12,14.076172 Z"
     id="path4" />
  <path
     style="color:#000000;fill:#000000;-inkscape-stroke:none"
     d="m 12,4.0039062 c -3.8164644,10e-8 -7.6322885,1.3568645 -10.6660156,4.0703126 a 1,1 0 0 0 -0.080078,1.4121093 1,1 0 0 0 1.4121094,0.078125 c 5.3205606,-4.758854 13.3474084,-4.758854 18.6679684,0 a 1,1 0 0 0 1.41211,-0.078125 1,1 0 0 0 -0.08008,-1.4121093 C 19.632289,5.3607707 15.816464,4.0039062 12,4.0039062 Z"
     id="path6" />
  <path
     style="color:#000000;fill:#000000;-inkscape-stroke:none"
     d="m 12,19 a 1,1 0 0 0 -1,1 1,1 0 0 0 1,1 h 0.0098 a 1,1 0 0 0 1,-1 1,1 0 0 0 -1,-1 z"
     id="line8" />
</svg>
