<?xml version="1.0" encoding="UTF-8" standalone="no"?>
<svg
   width="24"
   height="24"
   viewBox="0 0 24 24"
   fill="none"
   stroke="currentColor"
   stroke-width="2"
   stroke-linecap="round"
   stroke-linejoin="round"
   version="1.1"
   id="svg8"
   xmlns="http://www.w3.org/2000/svg"
   xmlns:svg="http://www.w3.org/2000/svg">
  <defs
     id="defs12" />
  <path
     style="color:#000000;fill:#000000;-inkscape-stroke:none"
     d="M 20.138672,6.09375 C 19.060344,5.870741 17.880094,6.138681 17.005859,6.9804687 a 1,1 0 0 0 -0.02539,1.4140626 1,1 0 0 0 1.414062,0.025391 C 19.178116,7.6654194 20.398329,7.9184693 20.818359,8.921875 21.23839,9.9252807 20.560064,10.971296 19.472656,11 H 2 a 1,1 0 0 0 -1,1 1,1 0 0 0 1,1 h 17.5 a 1.0001,1.0001 0 0 0 0.02734,0 c 2.426411,-0.06405 4.072014,-2.61258 3.134765,-4.8515625 C 22.193485,7.0289463 21.217,6.316759 20.138672,6.09375 Z"
     id="path2" />
  <path
     style="color:#000000;fill:#000000;-inkscape-stroke:none"
     d="M 11.597656,3.078125 C 10.654663,2.8943538 9.6278429,3.1445016 8.8867188,3.9003906 a 1,1 0 0 0 0.013672,1.4140625 1,1 0 0 0 1.4140624,-0.013672 C 10.84238,4.7623374 11.666017,4.9218781 11.953125,5.6191406 12.240233,6.3164032 11.767672,7.0105918 11.013672,7 A 1.0001,1.0001 0 0 0 11,7 H 2 A 1,1 0 0 0 1,8 1,1 0 0 0 2,9 h 8.986328 C 13.103319,9.0297385 14.60885,6.815131 13.802734,4.8574219 13.399677,3.8785673 12.54065,3.2618962 11.597656,3.078125 Z"
     id="path4" />
  <path
     style="color:#000000;fill:#000000;-inkscape-stroke:none"
     d="m 2,15 a 1,1 0 0 0 -1,1 1,1 0 0 0 1,1 h 12 a 1.0001,1.0001 0 0 0 0.01367,0 c 0.754,-0.01059 1.226561,0.683597 0.939453,1.380859 -0.287108,0.697263 -1.110745,0.856804 -1.638672,0.31836 a 1,1 0 0 0 -1.414062,-0.01367 1,1 0 0 0 -0.01367,1.414062 c 1.482248,1.511778 4.1099,1.000678 4.916015,-0.957031 C 17.60885,17.184869 16.103319,14.970262 13.986328,15 Z"
     id="path6" />
</svg>
