<?xml version="1.0" encoding="UTF-8" standalone="no"?>
<svg
   width="24"
   height="24"
   viewBox="0 0 24 24"
   fill="none"
   stroke="currentColor"
   stroke-width="2"
   stroke-linecap="round"
   stroke-linejoin="round"
   version="1.1"
   id="svg10"
   xmlns="http://www.w3.org/2000/svg"
   xmlns:svg="http://www.w3.org/2000/svg">
  <defs
     id="defs14" />
  <path
     style="color:#000000;fill:#000000;-inkscape-stroke:none"
     d="m 8,21 a 1,1 0 0 0 -1,1 1,1 0 0 0 1,1 h 8 a 1,1 0 0 0 1,-1 1,1 0 0 0 -1,-1 z"
     id="path2" />
  <path
     style="color:#000000;fill:#000000;-inkscape-stroke:none"
     d="m 7,9 a 1,1 0 0 0 -1,1 1,1 0 0 0 1,1 h 10 a 1,1 0 0 0 1,-1 1,1 0 0 0 -1,-1 z"
     id="path4" />
  <path
     style="color:#000000;fill:#000000;-inkscape-stroke:none"
     d="m 12,14 a 1,1 0 0 0 -1,1 v 7 a 1,1 0 0 0 1,1 1,1 0 0 0 1,-1 v -7 a 1,1 0 0 0 -1,-1 z"
     id="path6" />
  <path
     style="color:#000000;fill:#000000;-inkscape-stroke:none"
     d="M 9,1 A 1.0001,1.0001 0 0 0 8.0644531,1.6484375 C 6.5516282,5.6826373 6,7.8333355 6,10 c 0,3.301861 2.6981394,6 6,6 3.301861,0 6,-2.698139 6,-6 C 18,7.8333355 17.448372,5.6826373 15.935547,1.6484375 A 1.0001,1.0001 0 0 0 15,1 Z M 9.7207031,3 H 14.279297 C 15.52939,6.4210738 16,8.2952943 16,10 16,12.220981 14.220981,14 12,14 9.7790186,14 8,12.220981 8,10 8,8.2952943 8.4706099,6.4210738 9.7207031,3 Z"
     id="path8" />
</svg>
