<?xml version="1.0" encoding="UTF-8" standalone="no"?>
<svg
   width="24"
   height="24"
   viewBox="0 0 24 24"
   fill="none"
   stroke="currentColor"
   stroke-width="2"
   stroke-linecap="round"
   stroke-linejoin="round"
   version="1.1"
   id="svg12"
   xmlns="http://www.w3.org/2000/svg"
   xmlns:svg="http://www.w3.org/2000/svg">
  <defs
     id="defs16" />
  <path
     style="color:#000000;fill:#000000;-inkscape-stroke:none"
     d="m 8,21 a 1,1 0 0 0 -1,1 1,1 0 0 0 1,1 h 8 a 1,1 0 0 0 1,-1 1,1 0 0 0 -1,-1 z"
     id="path2" />
  <path
     style="color:#000000;fill:#000000;-inkscape-stroke:none"
     d="m 7,9 a 1,1 0 0 0 -1,1 1,1 0 0 0 1,1 h 3 a 1,1 0 0 0 1,-1 1,1 0 0 0 -1,-1 z m 8.65625,0 a 1,1 0 0 0 -1,1 1,1 0 0 0 1,1 H 17 a 1,1 0 0 0 1,-1 1,1 0 0 0 -1,-1 z"
     id="path4" />
  <path
     style="color:#000000;fill:#000000;-inkscape-stroke:none"
     d="m 12,14 a 1,1 0 0 0 -1,1 v 7 a 1,1 0 0 0 1,1 1,1 0 0 0 1,-1 v -7 a 1,1 0 0 0 -1,-1 z"
     id="path6" />
  <path
     style="color:#000000;fill:#000000;-inkscape-stroke:none"
     d="M 9,1 A 1.0001,1.0001 0 0 0 8.0644531,1.6484375 C 7.9355563,1.9908197 7.8122125,2.3232959 7.6972656,2.6445313 A 1,1 0 0 0 8.3007813,3.921875 1,1 0 0 0 9.5800781,3.3183594 C 9.6159934,3.2179891 9.6590865,3.1042255 9.6972656,3 H 14.279297 C 15.52939,6.4210738 16,8.2952943 16,10 c 0,0.3251 -0.04067,0.647628 -0.117187,0.960938 a 1,1 0 0 0 0.734374,1.208984 1,1 0 0 0 1.208985,-0.734375 C 17.939657,10.970857 18,10.4889 18,10 18,7.8333355 17.448372,5.6826373 15.935547,1.6484375 A 1.0001,1.0001 0 0 0 15,1 Z M 7.5292969,6.3320312 A 1,1 0 0 0 6.3320312,7.0859375 C 6.114744,8.0412603 6.0033058,9.0163772 6,9.9960938 A 1.0001,1.0001 0 0 0 6,10 c 2.297e-4,4.506857 4.910989,7.42471 8.869141,5.269531 a 1,1 0 0 0 0.40039,-1.357422 1,1 0 0 0 -1.357422,-0.398437 C 11.208101,14.985981 8.0030046,13.081718 8,10.003906 v -0.002 c -4e-7,-6.84e-4 0,-0.0013 0,-0.002 0.00309,-0.8314169 0.096851,-1.6599788 0.28125,-2.4707031 A 1,1 0 0 0 7.5292969,6.3320312 Z"
     id="path8" />
  <path
     style="color:#000000;fill:#000000;-inkscape-stroke:none"
     d="m 2,1 a 1,1 0 0 0 -0.7070313,0.2929687 1,1 0 0 0 0,1.4140626 L 21.292969,22.707031 a 1,1 0 0 0 1.414062,0 1,1 0 0 0 0,-1.414062 L 2.7070313,1.2929687 A 1,1 0 0 0 2,1 Z"
     id="line10" />
</svg>
