<?xml version="1.0" encoding="UTF-8" standalone="no"?>
<svg
   width="24"
   height="24"
   viewBox="0 0 24 24"
   fill="none"
   stroke="currentColor"
   stroke-width="2"
   stroke-linecap="round"
   stroke-linejoin="round"
   version="1.1"
   id="svg8"
   xmlns="http://www.w3.org/2000/svg"
   xmlns:svg="http://www.w3.org/2000/svg">
  <defs
     id="defs12" />
  <path
     style="color:#000000;fill:#000000;-inkscape-stroke:none"
     d="M 5,2 C 3.3552989,2 2,3.3552989 2,5 v 4 c 0,1.644701 1.3552989,3 3,3 h 4 c 1.644701,0 3,-1.355299 3,-3 V 5 C 12,3.3552989 10.644701,2 9,2 Z m 0,2 h 4 c 0.5712967,0 1,0.4287033 1,1 v 4 c 0,0.5712967 -0.4287033,1 -1,1 H 5 C 4.4287033,10 4,9.5712967 4,9 V 5 C 4,4.4287033 4.4287033,4 5,4 Z"
     id="rect2" />
  <path
     style="color:#000000;fill:#000000;-inkscape-stroke:none"
     d="m 7,10 a 1,1 0 0 0 -1,1 v 4 c 0,1.645008 1.354992,3 3,3 h 4 a 1,1 0 0 0 1,-1 1,1 0 0 0 -1,-1 H 9 C 8.4358712,16 8,15.564129 8,15 V 11 A 1,1 0 0 0 7,10 Z"
     id="path4" />
  <path
     style="color:#000000;fill:#000000;-inkscape-stroke:none"
     d="m 15,12 c -1.644701,0 -3,1.355299 -3,3 v 4 c 0,1.644701 1.355299,3 3,3 h 4 c 1.644701,0 3,-1.355299 3,-3 v -4 c 0,-1.644701 -1.355299,-3 -3,-3 z m 0,2 h 4 c 0.571297,0 1,0.428703 1,1 v 4 c 0,0.571297 -0.428703,1 -1,1 h -4 c -0.571297,0 -1,-0.428703 -1,-1 v -4 c 0,-0.571297 0.428703,-1 1,-1 z"
     id="rect6" />
</svg>
