<?xml version="1.0" encoding="UTF-8" standalone="no"?>
<svg
   width="24"
   height="24"
   viewBox="0 0 24 24"
   fill="none"
   stroke="currentColor"
   stroke-width="2"
   stroke-linecap="round"
   stroke-linejoin="round"
   version="1.1"
   id="svg4"
   xmlns="http://www.w3.org/2000/svg"
   xmlns:svg="http://www.w3.org/2000/svg">
  <defs
     id="defs8" />
  <path
     style="color:#000000;fill:#000000;-inkscape-stroke:none"
     d="m 16.703125,1.0214844 c -2.165139,-0.22886196 -4.228928,0.5980685 -5.65625,2.0253906 -1.7461996,1.7461996 -2.5098765,4.4459423 -1.625,7.117188 l -6.5097656,6.509765 c -0.6767759,0.676776 -0.9947149,1.55274 -0.9472657,2.359375 0.047449,0.806635 0.4151314,1.522553 0.9472657,2.054688 0.5321342,0.532134 1.2480524,0.899816 2.0546875,0.947265 0.8066351,0.04745 1.6825991,-0.270489 2.359375,-0.947265 l 6.5097661,-6.509766 c 2.671245,0.884876 5.370987,0.1212 7.117187,-1.625 1.903096,-1.903096 2.738718,-4.9388641 1.427734,-7.8359375 A 1.0001,1.0001 0 0 0 20.763672,4.8222656 L 17,8.5859375 15.414063,7 l 0.0039,-0.00195 3.759765,-3.7617188 A 1.0001,1.0001 0 0 0 18.882812,1.6191406 C 18.158544,1.2913948 17.424838,1.0977717 16.703125,1.0214844 Z m -0.230469,1.9765625 c 0.02935,0.00326 0.0604,0.021577 0.08984,0.025391 l -2.560547,2.5585937 -0.0098,0.011719 a 1.0001,1.0001 0 0 0 -0.0059,0.00586 c -0.754499,0.7697427 -0.754499,2.0310385 0,2.8007812 a 1.0001,1.0001 0 0 0 0.0059,0.00586 l 1.601562,1.601563 a 1.0001,1.0001 0 0 0 0.0059,0.0059 c 0.769743,0.754499 2.031039,0.754499 2.800782,0 a 1.0001,1.0001 0 0 0 0.0059,-0.0059 L 20.976562,7.4375 c 0.205621,1.5872097 -0.385369,3.049432 -1.4375,4.101563 -1.37682,1.37682 -3.452869,1.990089 -5.597656,1.019531 a 1.0001,1.0001 0 0 0 -1.11914,0.205078 L 5.9121094,19.673828 C 5.5888867,19.997051 5.3418011,20.05216 5.0859375,20.037109 4.8300739,20.022059 4.5440369,19.891693 4.3261719,19.673828 4.1083069,19.455963 3.9779415,19.169926 3.9628906,18.914062 3.9478398,18.658199 4.0029492,18.411113 4.3261719,18.087891 l 6.9101561,-6.910157 a 1.0001,1.0001 0 0 0 0.205078,-1.11914 C 10.470848,7.9138074 11.084117,5.8377579 12.460938,4.4609375 13.493553,3.4283222 14.919612,2.8256793 16.472656,2.9980469 Z"
     id="path2" />
</svg>
