<?xml version="1.0" encoding="UTF-8" standalone="no"?>
<svg
   width="24"
   height="24"
   viewBox="0 0 24 24"
   fill="none"
   stroke="currentColor"
   stroke-width="2"
   stroke-linecap="round"
   stroke-linejoin="round"
   version="1.1"
   id="svg6"
   xmlns="http://www.w3.org/2000/svg"
   xmlns:svg="http://www.w3.org/2000/svg">
  <defs
     id="defs10" />
  <path
     style="color:#000000;fill:#000000;-inkscape-stroke:none"
     d="m 12,3.9335938 c -2.7638,0 -5.527842,0.2264538 -8.2636719,0.6796874 A 1.0001,1.0001 0 0 0 3.6347656,4.6347656 C 2.6145446,4.9144774 1.814868,5.7161071 1.5351562,6.7363281 a 1.0001,1.0001 0 0 0 -0.013672,0.056641 c -0.72753514,3.4333933 -0.72753514,6.9806693 0,10.4140623 a 1,1 0 0 0 0.033203,0.02148 1,1 0 0 0 -0.019531,0.03516 c 0.2797118,1.020221 1.0793884,1.821851 2.0996094,2.101562 a 1.0001,1.0001 0 0 0 0.1015625,0.02148 c 5.4716664,0.906656 11.0556769,0.906656 16.5273439,0 a 1.0001,1.0001 0 0 0 0.101562,-0.02148 c 1.020221,-0.279711 1.819898,-1.081341 2.09961,-2.101562 a 1.0001,1.0001 0 0 0 0.01367,-0.05664 c 0.727535,-3.433393 0.727535,-6.980669 0,-10.4140623 a 1.0001,1.0001 0 0 0 -0.01367,-0.056641 C 22.185132,5.7161071 21.385455,4.9144774 20.365234,4.6347656 A 1.0001,1.0001 0 0 0 20.263672,4.6132812 C 17.527842,4.1600476 14.7638,3.9335938 12,3.9335938 Z m 0,1.9999999 c 2.625062,0 5.250522,0.2188174 7.849609,0.6445313 0.328532,0.097317 0.583164,0.3479158 0.677735,0.6777344 0.656021,3.1288786 0.656021,6.3594026 0,9.4882816 -0.09457,0.329818 -0.349203,0.580417 -0.677735,0.677734 -5.19814,0.851598 -10.5010784,0.851598 -15.6992184,0 -0.3285313,-0.09732 -0.5831632,-0.347916 -0.6777343,-0.677734 -0.6560217,-3.128879 -0.6560217,-6.359403 0,-9.4882816 C 3.5672274,6.9260408 3.8218593,6.6754416 4.1503906,6.578125 6.7494784,6.1524111 9.3749385,5.9335937 12,5.9335937 Z"
     id="path2" />
  <path
     style="color:#000000;fill:#000000;-inkscape-stroke:none"
     d="M 9.5078125,8.1308594 A 1.0001,1.0001 0 0 0 9,9 v 6 a 1.0001,1.0001 0 0 0 1.513672,0.857422 l 5,-3 a 1.0001,1.0001 0 0 0 0,-1.714844 l -5,-2.9999999 A 1.0001,1.0001 0 0 0 9.5078125,8.1308594 Z M 11,10.765625 13.056641,12 11,13.234375 Z"
     id="path4" />
</svg>
