<?xml version="1.0" encoding="UTF-8" standalone="no"?>
<svg
   width="24"
   height="24"
   viewBox="0 0 24 24"
   fill="none"
   stroke="currentColor"
   stroke-width="2"
   stroke-linecap="round"
   stroke-linejoin="round"
   version="1.1"
   id="svg10"
   xmlns="http://www.w3.org/2000/svg"
   xmlns:svg="http://www.w3.org/2000/svg">
  <defs
     id="defs14" />
  <path
     style="color:#000000;fill:#000000;-inkscape-stroke:none"
     d="m 12.980469,1 a 1.0001,1.0001 0 0 0 -0.75,0.359375 L 9.8007813,4.28125 A 1,1 0 0 0 9.9296875,5.6894531 1,1 0 0 0 11.337891,5.5605469 l 0.25,-0.3007813 -0.169922,1.3671875 a 1,1 0 0 0 0.86914,1.1152344 1,1 0 0 0 1.115235,-0.8691406 l 0.589844,-4.75 A 1.0001,1.0001 0 0 0 12.980469,1 Z"
     id="polyline2" />
  <path
     style="color:#000000;fill:#000000;-inkscape-stroke:none"
     d="m 15.660156,9 a 1,1 0 0 0 -1,1 1,1 0 0 0 1,1 h 3.203125 l -1.060547,1.269531 a 1,1 0 0 0 0.126953,1.408203 1,1 0 0 0 1.408204,-0.126953 l 2.429687,-2.910156 A 1.0001,1.0001 0 0 0 21,9 Z"
     id="polyline4" />
  <path
     style="color:#000000;fill:#000000;-inkscape-stroke:none"
     d="M 7.9101562,7.0039062 A 1,1 0 0 0 7.2324219,7.359375 l -5,6 A 1.0001,1.0001 0 0 0 3,15 h 7.867188 l -0.859375,6.875 a 1.0001,1.0001 0 0 0 1.759765,0.765625 l 5,-6 a 1,1 0 0 0 -0.126953,-1.408203 1,1 0 0 0 -1.408203,0.126953 L 12.416016,18.740234 12.992188,14.125 A 1.0001,1.0001 0 0 0 12,13 H 5.1347656 L 8.7675781,8.640625 A 1,1 0 0 0 8.640625,7.2324219 1,1 0 0 0 7.9101562,7.0039062 Z"
     id="polyline6" />
  <path
     style="color:#000000;fill:#000000;-inkscape-stroke:none"
     d="m 2,1 a 1,1 0 0 0 -0.7070313,0.2929687 1,1 0 0 0 0,1.4140626 L 21.292969,22.707031 a 1,1 0 0 0 1.414062,0 1,1 0 0 0 0,-1.414062 L 2.7070313,1.2929687 A 1,1 0 0 0 2,1 Z"
     id="line8" />
</svg>
