<?xml version="1.0" encoding="UTF-8" standalone="no"?>
<svg
   width="24"
   height="24"
   viewBox="0 0 24 24"
   fill="none"
   stroke="currentColor"
   stroke-width="2"
   stroke-linecap="round"
   stroke-linejoin="round"
   version="1.1"
   id="svg4"
   xmlns="http://www.w3.org/2000/svg"
   xmlns:svg="http://www.w3.org/2000/svg">
  <defs
     id="defs8" />
  <path
     style="color:#000000;fill:#000000;-inkscape-stroke:none"
     d="m 12.980469,1 a 1.0001,1.0001 0 0 0 -0.748047,0.359375 l -10.0000001,12 A 1.0001,1.0001 0 0 0 3,15 h 7.867188 l -0.859375,6.875 a 1.0001,1.0001 0 0 0 1.759765,0.765625 l 10,-12 A 1.0001,1.0001 0 0 0 21,9 H 13.132813 L 13.992188,2.125 A 1.0001,1.0001 0 0 0 12.980469,1 Z M 11.583984,5.2597656 11.007813,9.875 A 1.0001,1.0001 0 0 0 12,11 h 6.865234 L 12.416016,18.740234 12.992188,14.125 A 1.0001,1.0001 0 0 0 12,13 H 5.1347656 Z"
     id="polygon2" />
</svg>
